<svg width="238" height="40" viewBox="0 0 238 40" fill="none" xmlns="http://www.w3.org/2000/svg">
<path d="M237.78 38.8906C235.374 38.898 232.966 38.8906 230.559 38.924C230.051 38.9314 229.805 38.7351 229.571 38.3017C227.015 33.5869 224.401 28.9016 221.889 24.1627C221.332 23.1145 220.71 22.6552 219.53 22.8052C218.741 22.9052 217.925 22.8682 217.126 22.8127C216.355 22.7571 216.123 23.0367 216.129 23.8053C216.158 28.4331 216.143 33.0609 216.143 37.6888C216.143 38.0517 216.143 38.4128 216.143 38.8443H209.534V1.09387C209.714 1.05869 209.862 1.00684 210.009 1.00684C215.192 1.04758 220.38 0.988317 225.557 1.18276C228.552 1.29388 231.462 2.09759 233.687 4.27539C234.651 5.218 235.5 6.41431 236.008 7.65692C237.302 10.8218 237.178 16.3959 233.683 19.5997C232.32 20.8478 230.713 21.5571 228.945 21.9738C228.681 22.0349 228.416 22.0886 228.01 22.1775C228.355 22.7793 228.644 23.3053 228.95 23.8182C231.688 28.3961 234.427 32.972 237.174 37.5443C237.345 37.8277 237.576 38.0721 237.78 38.3351V38.8906ZM216.141 17.2293C219.369 17.0681 222.463 17.1033 225.502 16.707C228.394 16.3292 229.694 14.5755 229.695 11.8496C229.699 9.20879 228.353 7.64951 225.522 7.03098C225.131 6.9458 224.732 6.86246 224.334 6.8532C221.839 6.79765 219.341 6.77542 216.846 6.71246C216.151 6.69394 216.134 7.09209 216.136 7.60136C216.145 10.1903 216.14 12.7811 216.14 15.37C216.14 15.8885 216.14 16.407 216.14 17.2293H216.141Z" fill="#00416A"/>
<path d="M185.904 40C184.499 39.6685 183.049 39.4629 181.698 38.9814C175.75 36.8684 171.709 32.9443 170.506 26.5757C169.766 22.6571 170.908 19.0719 172.877 15.7015C174.822 12.3755 177.404 9.55143 179.944 6.69214C181.438 5.01063 182.866 3.26802 184.373 1.59763C184.658 1.28096 185.17 1.01984 185.591 0.999474C187.037 0.927251 188.49 0.949474 189.94 0.988363C190.27 0.997622 190.7 1.12725 190.902 1.36059C194.11 5.06804 197.356 8.74401 200.45 12.5441C202.647 15.2422 204.358 18.2645 204.931 21.7645C205.858 27.4387 203.883 32.0702 199.595 35.7629C196.929 38.0573 193.781 39.324 190.309 39.8074C190.072 39.8407 189.842 39.9351 189.608 40C188.374 40 187.139 40 185.904 40ZM187.758 7.43659C187.15 8.11067 186.636 8.67735 186.128 9.24772C183.361 12.3552 180.426 15.3237 178.261 18.9219C175.635 23.2831 176.099 27.5257 179.644 30.7332C181.583 32.4887 183.924 33.3943 186.516 33.6314C189.714 33.9221 192.652 33.1776 195.231 31.2369C199.217 28.2387 199.979 23.5609 197.287 19.0423C194.721 14.733 191.065 11.3311 187.76 7.43659H187.758Z" fill="#00416A"/>
<path d="M157.013 0C158.537 0.364819 160.093 0.637045 161.58 1.11668C164.351 2.01114 166.544 3.77042 168.458 6.01489C166.713 7.29824 165.03 8.53714 163.354 9.77049C162.386 8.99826 161.531 8.11677 160.506 7.53713C156.648 5.35377 152.688 5.59822 148.936 7.67972C143.968 10.4353 142.054 14.9965 142.251 20.4836C142.408 24.9096 144.012 28.7281 147.696 31.4374C151.98 34.5856 159.005 35.1986 163.395 29.7059C163.51 29.5633 163.639 29.4337 163.815 29.2392C165.458 30.7115 167.08 32.1652 168.769 33.6782C167.436 35.4245 165.923 36.8819 163.988 37.8431C159.231 40.2042 154.259 40.4412 149.201 39.106C141.303 37.0208 136.079 30.6856 135.328 22.4892C134.88 17.5854 135.634 12.9353 138.278 8.72418C141.481 3.62227 146.265 1.00742 152.14 0.209262C152.471 0.164817 152.796 0.0703712 153.124 0C154.42 0 155.718 0 157.013 0Z" fill="#00416A"/>
<path d="M40.4002 38.8739H34.0932V7.78468C34.0191 7.76801 33.9449 7.74949 33.8708 7.73282C33.767 7.9606 33.6465 8.18098 33.5612 8.41616C30.0332 18.0885 26.5071 27.7627 22.981 37.4369C22.4433 38.9128 22.4396 38.9277 20.8601 38.9073C19.8219 38.8943 18.5409 39.1832 17.8141 38.6851C17.1245 38.211 16.9984 36.898 16.6499 35.9443C13.2721 26.7071 9.90169 17.47 6.52759 8.23283C6.46641 8.06616 6.38669 7.9069 6.31624 7.74393C6.23467 7.74764 6.15495 7.75134 6.07338 7.75504C6.07338 8.09394 6.07338 8.43283 6.07338 8.77172C6.07338 18.3996 6.07338 28.0275 6.07338 37.6554C6.07338 38.4925 5.65934 38.9116 4.83127 38.9128C3.23691 38.9128 1.6407 38.9128 0 38.9128V1.05311C0.296624 1.03644 0.595102 1.00311 0.891726 1.00311C3.60769 0.999407 6.32551 1.02718 9.04148 0.98274C9.7645 0.971629 10.0481 1.25126 10.2892 1.88831C13.4056 10.1366 16.5516 18.3755 19.6903 26.6145C19.7774 26.8423 19.8757 27.0664 20.0629 27.5164C20.3132 26.9405 20.5023 26.5479 20.658 26.1442C23.78 18.0311 26.9038 9.91618 30.0035 1.79571C30.2204 1.22719 30.4689 0.975332 31.1214 0.984592C33.9301 1.02348 36.7388 1.01793 39.5474 0.990147C40.1981 0.984592 40.4707 1.12163 40.4688 1.85127C40.4466 13.9477 40.454 26.0442 40.4521 38.1406C40.4521 38.3499 40.4243 38.561 40.4021 38.8739H40.4002Z" fill="#00416A"/>
<path d="M106.208 22.2955C109.495 27.7808 112.771 33.2438 116.165 38.905C115.109 38.905 114.263 38.905 113.418 38.905C111.844 38.905 110.268 38.9346 108.696 38.8791C108.381 38.868 107.941 38.6087 107.791 38.3365C105.12 33.5068 102.471 28.666 99.8585 23.8048C99.4766 23.0937 99.0761 22.727 98.2252 22.7974C97.2445 22.8789 96.2489 22.8548 95.2645 22.8048C94.5359 22.7678 94.3171 23.0252 94.3227 23.753C94.3524 28.3808 94.3375 33.0086 94.3375 37.6365C94.3375 38.0013 94.3375 38.368 94.3375 38.8346C93.9408 38.8624 93.6164 38.9013 93.2938 38.9031C91.781 38.9105 90.2664 38.8513 88.7573 38.9272C87.8304 38.9735 87.5949 38.6383 87.6412 37.7698C87.708 36.5087 87.6579 35.2401 87.6579 33.9753C87.6579 23.4233 87.6579 12.8713 87.6579 2.31936C87.6579 0.993415 87.6579 0.984156 88.939 0.993415C93.8129 1.0323 98.6905 1.01008 103.563 1.16379C105.077 1.21194 106.629 1.58601 108.073 2.07676C112.873 3.70641 115.216 7.40646 114.886 12.4713C114.643 16.2066 113.221 19.2288 109.79 21.0066C108.715 21.564 107.497 21.8418 106.21 22.2937L106.208 22.2955ZM94.5025 6.69534C94.408 6.92312 94.3635 6.98053 94.3635 7.03608C94.3524 10.1787 94.3561 13.3195 94.332 16.4621C94.3283 17.0584 94.6675 17.0825 95.1051 17.0788C96.5845 17.0695 98.0694 17.1529 99.5414 17.0529C101.282 16.9344 103.06 16.8436 104.736 16.4084C106.872 15.8529 107.864 14.1899 107.869 11.851C107.875 9.52685 106.911 8.06943 104.764 7.36201C101.401 6.25274 97.9304 6.88978 94.5025 6.69719V6.69534Z" fill="#00416A"/>
<path d="M83.2987 38.9114C81.3892 38.9114 79.5984 38.7892 77.8334 38.9466C76.2076 39.091 75.3418 38.6244 74.8357 36.991C74.1998 34.9373 73.2302 32.9891 72.4516 30.9761C72.2254 30.3909 71.9102 30.202 71.2892 30.2058C66.3522 30.2298 61.4135 30.2317 56.4747 30.2058C55.8351 30.202 55.557 30.4354 55.3382 31.0076C54.4131 33.4262 53.4565 35.8317 52.4721 38.2262C52.3571 38.504 52.0086 38.8744 51.7602 38.8799C49.4817 38.9299 47.1996 38.9096 44.7617 38.9096C45.0843 38.1318 45.3513 37.4632 45.6368 36.804C50.672 25.2113 55.7164 13.6204 60.7331 2.02023C61.0575 1.27022 61.4209 0.918362 62.2922 0.97577C63.614 1.06466 64.9451 1.01836 66.2725 0.990585C66.8027 0.979474 67.1123 1.13503 67.333 1.64985C71.6025 11.6259 75.8869 21.5945 80.1712 31.5632C81.0592 33.6299 81.9602 35.6929 82.8501 37.7596C82.9929 38.091 83.1134 38.4318 83.3006 38.9133L83.2987 38.9114ZM69.7745 24.4279C67.8242 19.2741 65.9277 14.2667 64.033 9.25735C63.9533 9.26661 63.8736 9.27587 63.7939 9.28513C61.8658 14.3 59.9378 19.3149 57.9726 24.4261H69.7745V24.4279Z" fill="#00416A"/>
<path d="M187.77 14.9091V29.0611C190.658 29.0611 193.85 27.5092 193.85 24.224C193.85 19.6221 187.77 14.9072 187.77 14.9072V14.9091Z" fill="#077BBF"/>
</svg>
