<svg width="144" height="80" viewBox="0 0 144 80" fill="none" xmlns="http://www.w3.org/2000/svg">
<path d="M39.0542 22H0V27.9783H37.1047C38.2094 27.9783 39.0542 28.8231 39.0542 29.9278V50.0722C39.0542 51.1119 38.2094 52.0217 37.1047 52.0217H7.9278C6.88809 52.0217 5.97834 51.1769 5.97834 50.0722V41.9495C5.97834 40.9097 6.82311 40 7.9278 40H33.0108V34.0217H5.97834C2.66426 34.0217 0 36.6859 0 40V52.0217C0 55.3357 2.66426 58 5.97834 58H39.0542C42.3682 58 45.0325 55.3357 45.0325 52.0217V27.9783C45.0325 24.6643 42.3033 22 39.0542 22Z" fill="#ABABAB"/>
<path d="M67.1913 30.5127L71.87 44.4839C72.4549 46.1734 72.8448 46.5633 73.8195 46.5633H74.7942V49.0326H64.5271V46.5633H65.3718C66.2166 46.5633 66.9314 46.4333 66.9314 46.1734C66.9314 45.9135 66.9314 45.5885 66.8014 45.1337L66.2166 43.1192H60.4332L60.1083 44.2239C59.7834 45.1987 59.7184 45.5885 59.7184 45.9784C59.7184 46.4333 60.6931 46.4983 61.4729 46.4983H62.2527V48.9676H54V46.4983H54.9747C55.9495 46.4983 56.3394 46.1084 56.9242 44.4189L61.6029 30.4478M61.278 40.7149H65.3069L63.2924 34.6716H63.2274L61.278 40.7149Z" fill="#ABABAB"/>
<path d="M76.3544 33.9567C76.3544 33.177 76.1595 32.7221 75.3797 32.7221H74.0801V30.5127H81.0331V37.4658C82.0729 36.2961 83.3725 35.5163 84.6072 35.5163C88.831 35.5163 90.3905 38.7654 90.3905 42.4694C90.3905 46.1733 88.831 49.4224 84.6072 49.4224C82.8526 49.4224 81.2931 48.8376 80.3183 47.278L79.5386 49.0325H76.4194M80.9682 42.4694C80.9682 45.3286 81.618 47.0181 83.1775 47.0181C84.7371 47.0181 85.3869 45.3286 85.3869 42.4694C85.3869 39.6102 84.7371 37.9206 83.1775 37.9206C81.618 37.9206 80.9682 39.6751 80.9682 42.4694Z" fill="#ABABAB"/>
<path d="M92.0146 33.9567C92.0146 33.177 91.8197 32.7221 91.0399 32.7221H89.7402V30.5127H96.6933V37.4658C97.733 36.2961 99.0326 35.5163 100.332 35.5163C104.556 35.5163 106.116 38.7654 106.116 42.4694C106.116 46.1733 104.556 49.4224 100.332 49.4224C98.5778 49.4224 97.0182 48.8376 96.0435 47.278L95.1987 49.0325H92.0796M96.6933 42.4694C96.6933 45.3286 97.3431 47.0181 98.9027 47.0181C100.462 47.0181 101.112 45.3286 101.112 42.4694C101.112 39.6102 100.462 37.9206 98.9027 37.9206C97.3431 37.9206 96.6933 39.6751 96.6933 42.4694Z" fill="#ABABAB"/>
<path d="M121.842 42.4692C121.842 46.9529 118.788 49.4223 114.629 49.4223C110.47 49.4223 107.416 46.9529 107.416 42.4692C107.416 37.9854 110.47 35.5161 114.629 35.5161C118.788 35.5161 121.842 38.0504 121.842 42.4692ZM112.355 42.4692C112.355 45.7833 112.939 47.2129 114.629 47.2129C116.319 47.2129 116.903 45.7833 116.903 42.4692C116.903 39.1551 116.319 37.7255 114.629 37.7255C112.939 37.7905 112.355 39.2201 112.355 42.4692Z" fill="#ABABAB"/>
<path d="M141.792 42.7291V44.9385C141.792 46.2382 141.532 46.953 140.428 46.953C139.778 46.953 139.453 46.4981 139.453 45.9133V38.1804H142.897V35.971H139.453V30.7725H136.659C136.464 33.1118 135.684 35.971 132.89 35.971H128.536V30.7725H125.742C125.547 33.1118 124.767 35.971 121.973 35.971V38.1804H123.857V45.1985C123.857 48.0577 125.482 49.4223 128.341 49.4223C131.72 49.4223 133.02 47.9277 133.02 45.1985V42.7291H130.81V44.9385C130.81 46.2382 130.55 47.0179 129.446 47.0179C128.796 47.0179 128.471 46.5631 128.471 45.9782V38.1804H134.709V45.1985C134.709 48.0577 136.269 49.4223 139.193 49.4223C142.572 49.4223 143.872 47.9277 143.872 45.1985V42.7291H141.792Z" fill="#ABABAB"/>
</svg>
