<svg width="191" height="80" viewBox="0 0 191 80" fill="none" xmlns="http://www.w3.org/2000/svg">
<path d="M47.7926 51.4441L45.1896 44.5472H36.7093L34.1063 51.4441H30.4583L39.4579 28.0757H42.5803L51.5039 51.4441H47.7926ZM43.9989 41.4335L41.0223 32.5346H40.9463L37.8936 41.4335H43.9989ZM56.4946 28.082H62.5936C69.2879 28.082 69.9593 32.9009 69.9593 34.5367C69.9593 37.1325 68.6229 38.2441 67.8756 38.9893C68.8446 39.583 71.3716 41.0672 71.3716 44.6988C71.3716 47.0735 70.0353 51.5262 63.5626 51.5262H56.4946C56.4946 51.5199 56.4946 28.082 56.4946 28.082ZM59.9209 37.7957H62.7456C65.9439 37.7957 66.5393 35.8693 66.5393 34.5304C66.5393 31.1893 63.3409 31.1893 62.5239 31.1893H59.9209V37.7957ZM59.9209 48.3304H63.6386C67.1346 48.3304 67.8756 45.8799 67.8756 44.6925C67.8756 43.8778 67.5019 42.9872 67.0586 42.3935C66.0199 40.9851 64.3796 40.9851 63.1889 40.9851H59.8386V48.3304H59.9209ZM77.1729 28.082H80.5929V51.4504H77.1729V28.082ZM98.7506 51.8925C91.6826 51.8925 86.4766 46.183 86.4766 39.7283C86.4766 33.3493 91.5369 27.6399 98.7506 27.6399C105.743 27.6399 111.025 33.2041 111.025 39.8041C111.018 46.1767 105.743 51.8925 98.7506 51.8925ZM98.7506 30.7472C92.6516 30.7472 89.8966 36.0146 89.8966 39.722C89.8966 43.5809 92.6516 48.6967 98.7506 48.6967C104.85 48.6967 107.605 43.4293 107.605 39.7978C107.598 35.7178 104.622 30.7472 98.7506 30.7472ZM138.467 51.4441V31.7135H138.321L130.436 51.4441H128.353L120.392 31.7135H120.316V51.4441H116.82V28.0757H122.247L129.315 45.9557L136.459 28.0757H141.887V51.4441H138.467ZM150.146 51.4441V28.0757H162.863V31.1893H153.566V38.0862H162.863V41.1999H153.566V48.3241H162.863V51.4378H150.146V51.4441ZM170.533 28.082H178.196C183.104 28.082 186.005 29.9388 187.791 32.383C189.501 34.7578 190.248 37.5746 190.248 39.8041C190.248 42.9935 189.058 46.3346 187.272 48.0399C184.593 50.7114 181.394 51.4504 178.05 51.4504H170.539V28.082H170.533ZM174.029 48.3304H178.12C182.287 48.3304 186.822 46.2525 186.822 39.7978C186.822 36.2357 184.593 31.1957 178.196 31.1957H174.029V48.3304ZM6.35993 24.3683C3.90259 24.3683 1.89493 26.4462 1.89493 28.9662V32.1557C1.89493 34.6757 3.90259 36.7535 6.35993 36.7535H8.36759C10.8249 36.7535 12.8326 34.6757 12.8326 32.1557V28.9662C12.8326 26.4462 10.8249 24.3683 8.36759 24.3683C8.36759 24.3683 6.35993 24.3683 6.35993 24.3683ZM3.83293 32.2314V29.042C3.83293 27.5578 4.94759 26.3704 6.35993 26.3704H8.36759C9.77993 26.3704 10.8946 27.5578 10.8946 29.042V32.2314C10.8946 33.7157 9.77993 34.903 8.36759 34.903H6.35993C4.94759 34.903 3.83293 33.7157 3.83293 32.2314ZM4.79559 10.9409C2.49026 10.9409 0.558594 12.943 0.558594 15.3178V18.362C0.558594 20.8125 2.49026 22.7388 4.79559 22.7388H6.65759C9.03893 22.7388 10.8946 20.7367 10.8946 18.362V15.3178C10.9706 12.943 9.03259 10.9409 6.72726 10.9409H4.79559ZM2.49026 18.362V15.3178C2.49026 13.9851 3.52893 12.8672 4.79559 12.8672H6.65759C7.92426 12.8672 8.96293 13.9788 8.96293 15.3178V18.362C8.96293 19.6946 7.92426 20.8125 6.65759 20.8125H4.79559C3.53526 20.8125 2.49026 19.6946 2.49026 18.362Z" fill="#ABABAB"/>
<path d="M19.7488 25.1136C16.7722 25.1136 14.3908 27.6336 14.3908 30.7536V34.8336C14.3908 37.9473 16.7722 40.4736 19.7488 40.4736H22.2758C25.2525 40.4736 27.6338 37.9536 27.6338 34.8336V30.7536C27.6338 27.64 25.2525 25.1136 22.2758 25.1136H19.7488ZM16.3288 34.8273V30.7473C16.3288 28.7452 17.8932 27.04 19.7488 27.04H22.2758C24.1378 27.04 25.6958 28.6694 25.6958 30.7473V34.8273C25.6958 36.8294 24.1315 38.5347 22.2758 38.5347H19.7488C17.8172 38.541 16.3288 36.8294 16.3288 34.8273ZM16.8482 11.6863C14.4668 11.6863 12.5352 13.6884 12.5352 16.1389V19.1831C12.5352 21.6336 14.4668 23.6358 16.8482 23.6358H18.7798C21.1612 23.6358 23.0928 21.6336 23.0928 19.1831V16.1389C23.0928 13.6884 21.1612 11.6863 18.7798 11.6863H16.8482ZM14.5428 19.1768V16.1389C14.5428 14.8063 15.5815 13.6884 16.9242 13.6884H18.8558C20.1225 13.6884 21.2372 14.8 21.2372 16.1389V19.1831C21.2372 20.5158 20.1985 21.7031 18.8558 21.7031H16.9242C15.5878 21.6273 14.5428 20.5158 14.5428 19.1768Z" fill="#ABABAB"/>
</svg>
