<svg width="186" height="80" viewBox="0 0 186 80" fill="none" xmlns="http://www.w3.org/2000/svg">
<path d="M98.4358 26L97.3945 31.21H103.881L104.903 26H98.4358Z" fill="#ABABAB"/>
<path d="M17.4813 39.918C12.4173 39.9309 6.80366 41.5915 0 46.7502C11.2952 43.1205 18.1248 43.7083 23.3957 45.1473L25.6592 41.1675C23.0302 40.448 20.3463 39.9116 17.4813 39.9148V39.918Z" fill="#ABABAB"/>
<path d="M178.299 26L176.213 36.7059C175.54 35.5399 174.722 34.6823 173.752 34.1362C172.795 33.5773 171.627 33.2979 170.25 33.2979C168.682 33.2979 167.207 33.6866 165.829 34.4575C164.465 35.2316 163.236 36.3687 162.146 37.8655C161.283 39.0572 160.62 40.3774 160.151 41.8292C159.695 43.2811 159.469 44.7715 159.469 46.3069C159.469 48.7706 160.129 50.7139 161.445 52.1433C162.761 53.5694 164.552 54.2857 166.816 54.2857C168.1 54.2857 169.277 54.0095 170.353 53.4634C171.433 52.9045 172.462 52.0437 173.445 50.8777L172.853 53.7686H179.337L184.782 26H178.299ZM33.6529 27.1242L18.4902 53.7654H25.5849L36.4371 33.815L39.7258 53.7654H46.3031L41.5593 27.1242H33.6529ZM64.9032 33.2979C63.6227 33.2979 62.4424 33.5773 61.3656 34.1362C60.2855 34.6823 59.2572 35.5399 58.2774 36.7059L58.8724 33.7797H52.405L46.9951 61.3684H53.4624L55.5288 50.8745C56.1884 52.0405 56.9969 52.9013 57.954 53.4602C58.9241 54.0063 60.0979 54.2825 61.4755 54.2825C63.0438 54.2825 64.5119 53.8971 65.8765 53.123C67.2541 52.3488 68.4861 51.215 69.5759 49.7149C70.4393 48.5265 71.0957 47.2031 71.5516 45.7512C72.0173 44.2993 72.2533 42.8089 72.2533 41.2735C72.2533 38.8099 71.5937 36.8665 70.2776 35.4404C68.9615 34.0142 67.17 33.2979 64.9064 33.2979H64.9032ZM88.412 33.2979C87.1056 33.2979 85.8542 33.5773 84.6577 34.1362C83.4613 34.6952 82.268 35.5528 81.0813 36.7059L81.6763 33.7797H75.2089L71.2929 53.7654H77.7441L79.6843 43.9331C80.0562 42.1119 80.7126 40.6921 81.6601 39.6675C82.6173 38.6332 83.762 38.1128 85.091 38.1128C85.8704 38.1128 86.4718 38.3216 86.889 38.7392C87.319 39.1535 87.5357 39.7446 87.5357 40.5058C87.5357 40.7789 87.4904 41.1547 87.4096 41.6301C87.3384 42.0926 87.2285 42.6644 87.0862 43.3421L85.0555 53.7654H91.5034L93.8931 41.5947C93.9998 41.0487 94.0774 40.5412 94.1259 40.0786C94.1841 39.6161 94.2165 39.1921 94.2165 38.8131C94.2165 37.0657 93.712 35.707 92.7063 34.7433C91.7007 33.7797 90.2714 33.2979 88.4153 33.2979H88.412ZM117.978 33.2979C116.745 33.2979 115.559 33.587 114.424 34.1555C113.285 34.7273 112.212 35.5753 111.206 36.7059L111.801 33.7797H105.334L101.418 53.7654H107.866L109.806 43.9331C110.152 42.1376 110.77 40.7211 111.656 39.6868C112.555 38.6396 113.596 38.116 114.783 38.116C115.439 38.116 115.956 38.3056 116.328 38.6878C116.7 39.0572 116.885 39.5743 116.885 40.2424C116.885 40.5058 116.849 40.8656 116.778 41.3313C116.707 41.7843 116.581 42.4556 116.399 43.3485L114.333 53.7718H120.817L122.757 43.9396C123.129 42.0733 123.737 40.6375 124.587 39.6386C125.451 38.6268 126.498 38.1225 127.734 38.1225C128.38 38.1225 128.888 38.312 129.26 38.6942C129.641 39.0732 129.835 39.5936 129.835 40.2489C129.835 40.6664 129.68 41.6108 129.367 43.0884L129.312 43.355L127.281 53.7782H133.764L136.154 41.6076C136.261 41.023 136.338 40.5058 136.387 40.0529C136.448 39.5872 136.477 39.1792 136.477 38.8227C136.477 37.1107 135.954 35.7648 134.912 34.7883C133.881 33.8022 132.468 33.3075 130.673 33.3075C129.308 33.3075 127.992 33.6352 126.721 34.2904C125.463 34.9425 124.338 35.8836 123.342 37.1107C123.138 35.9928 122.54 35.0806 121.548 34.3804C120.555 33.6673 119.362 33.3075 117.971 33.3075L117.978 33.2979ZM149.845 33.2979C147.75 33.2979 145.839 33.6673 144.115 34.4061C142.401 35.1416 140.93 36.2241 139.698 37.6535C138.657 38.842 137.858 40.1589 137.308 41.598C136.768 43.0241 136.5 44.5017 136.5 46.0242C136.5 48.6517 137.35 50.6882 139.051 52.1272C140.762 53.5662 143.191 54.2857 146.327 54.2857C147.931 54.2857 149.506 54.1412 151.052 53.8553C152.607 53.5823 154.172 53.1583 155.74 52.5865L156.73 47.6271C155.077 48.4237 153.496 49.0243 151.989 49.4291C150.492 49.8338 149.066 50.0361 147.711 50.0361C146.143 50.0361 144.963 49.7149 144.174 49.0725C143.394 48.4301 143.006 47.46 143.006 46.1656C143.006 46.0949 143.013 45.9921 143.022 45.8604C143.035 45.7159 143.039 45.6099 143.039 45.5392H158.095L158.308 44.5242C158.453 43.8914 158.554 43.3164 158.612 42.7929C158.683 42.2564 158.722 41.7521 158.722 41.2767C158.722 38.8388 157.92 36.8987 156.316 35.4596C154.722 34.0206 152.568 33.3011 149.849 33.3011L149.845 33.2979ZM96.9263 33.7797L93.0103 53.7654H99.4583L103.394 33.7797H96.9263ZM149.144 37.5443C150.127 37.5443 150.903 37.8237 151.478 38.3826C152.054 38.9415 152.342 39.6964 152.342 40.6504C152.342 40.8046 152.329 40.9652 152.306 41.1322C152.293 41.2864 152.271 41.4406 152.232 41.5947H143.915C144.384 40.2617 145.053 39.2563 145.926 38.5786C146.812 37.888 147.883 37.5411 149.144 37.5411V37.5443ZM62.2807 37.9394C63.3575 37.9394 64.1788 38.2606 64.7415 38.903C65.3171 39.5326 65.6017 40.4544 65.6017 41.6686C65.6017 44.0006 65.0746 45.915 64.0204 47.4151C62.9662 48.9023 61.6307 49.6443 60.0139 49.6443C58.9597 49.6443 58.1319 49.3359 57.5336 48.716C56.9483 48.0864 56.6541 47.2256 56.6541 46.1302C56.6541 43.7051 57.1747 41.7329 58.2192 40.2232C59.2734 38.7006 60.625 37.9394 62.2774 37.9394H62.2807ZM171.721 37.9394C172.762 37.9394 173.571 38.2477 174.146 38.8677C174.732 39.4876 175.026 40.3484 175.026 41.4566C175.026 43.8946 174.505 45.87 173.464 47.3797C172.433 48.8894 171.094 49.6443 169.441 49.6443C168.361 49.6443 167.537 49.3295 166.961 48.6999C166.399 48.0575 166.12 47.1292 166.12 45.915C166.12 43.583 166.648 41.675 167.702 40.1878C168.756 38.6878 170.098 37.9394 171.728 37.9394H171.721Z" fill="#ABABAB"/>
<path d="M31.483 42.9214L29.2227 47.0778C34.8396 49.079 39.7871 50.3188 49.7565 44.142C42.7815 46.1913 37.0773 44.6784 31.4862 42.9214H31.483Z" fill="#ABABAB"/>
</svg>
