<svg width="199" height="80" viewBox="0 0 199 80" fill="none" xmlns="http://www.w3.org/2000/svg">
<path d="M39.1472 58.5873L45.9722 49.2999C43.1093 47.2077 41.2433 43.8525 41.2433 40.0381C41.2433 36.2236 43.1093 32.8429 45.9722 30.7507L39.1727 21.4634C33.4469 25.6478 29.7404 32.4219 29.7404 40.0381C29.7148 47.6542 33.4213 54.3901 39.1472 58.5873Z" fill="#ABABAB"/>
<path d="M11.4518 41.2759L0 42.5389C1.23976 54.046 11.03 63.0272 22.9035 63.0272C26.201 63.0272 29.3324 62.3255 32.1953 61.088L27.5558 50.5632C26.1499 51.1883 24.5778 51.5455 22.9291 51.5455C16.9732 51.52 12.0908 47.0294 11.4518 41.2759Z" fill="#ABABAB"/>
<path d="M27.5558 29.4879L32.2081 18.9631C29.3835 17.7001 26.2266 17.024 22.9291 17.024C11.03 16.9985 1.23976 25.9796 0 37.5123L11.4518 38.7753C12.0908 32.9962 16.9732 28.5056 22.9035 28.5056C24.5778 28.5056 26.1499 28.8628 27.5558 29.4879Z" fill="#ABABAB"/>
<path fill-rule="evenodd" clip-rule="evenodd" d="M187.419 51.9538C185.591 51.9538 184.032 51.6476 182.69 50.9842C181.348 50.3591 180.313 49.4023 179.559 48.1649C178.817 46.9274 178.447 45.4603 178.447 43.8018C178.447 42.2582 178.741 40.8421 179.405 39.6047C180.031 38.3672 180.964 37.3849 182.153 36.6832C183.342 35.9433 184.735 35.5989 186.307 35.5989C187.777 35.5989 189.042 35.9178 190.154 36.5301C191.262 37.134 192.118 38.0185 192.723 39.1837C193.362 40.3446 193.669 41.6969 193.669 43.266C193.669 43.9209 193.618 44.529 193.515 45.0903H182.613C183.15 47.3867 184.888 48.5476 187.879 48.5476C188.786 48.5476 189.694 48.471 190.576 48.2669C191.458 48.0628 192.25 47.7821 192.953 47.4377L193.388 50.7418C192.646 51.1373 191.764 51.4435 190.704 51.6731C189.643 51.9028 188.556 52.0048 187.419 51.9538ZM189.592 42.1561C189.489 41.0718 189.157 40.2681 188.556 39.6812C187.968 39.1071 187.163 38.8265 186.179 38.8265C185.195 38.8265 184.403 39.1071 183.776 39.6812C183.15 40.2681 182.741 41.0973 182.562 42.1561H189.592ZM162.176 36.0964H166.829L170.42 47.106L174.139 36.0964H178.536L172.58 51.52H168.196L162.176 36.0964ZM158.291 32.9453C157.575 32.9453 156.975 32.7157 156.489 32.2309C156.016 31.7589 155.786 31.1721 155.786 30.4959C155.786 29.807 156.016 29.2329 156.489 28.7737C156.949 28.3017 157.55 28.072 158.291 28.072C158.994 28.072 159.607 28.3272 160.08 28.7737C160.566 29.2329 160.796 29.807 160.796 30.4959C160.796 31.1976 160.566 31.8099 160.08 32.2564C159.607 32.7157 158.994 32.9453 158.291 32.9453ZM156.157 36.0964H160.387V51.52H156.157V36.0964ZM146.533 39.6047H143.516V36.1219H146.533V31.9247H150.75V36.0964H154.418V39.5792H150.75V51.5073H146.533V39.6047ZM135.86 52.0431C134.697 52.0431 133.585 51.9283 132.525 51.6476C131.464 51.367 130.646 51.0097 130.096 50.5632L130.595 47.1315C131.285 47.578 132.09 47.9607 132.997 48.2414C133.905 48.5221 134.8 48.6624 135.656 48.6624C137.381 48.6624 138.238 48.2159 138.238 47.3611C138.238 46.9019 138.033 46.5447 137.675 46.2895C137.33 46.0471 136.563 45.7665 135.4 45.4348C133.585 44.9372 132.294 44.2994 131.515 43.5212C130.722 42.743 130.352 41.6969 130.352 40.3956C130.352 38.9243 130.906 37.7634 132.013 36.9129C133.125 36.0709 134.646 35.6499 136.589 35.6499C137.547 35.6499 138.493 35.7519 139.452 35.9688C140.385 36.1985 141.164 36.5046 141.778 36.8618L141.292 40.1915C140.666 39.8343 139.925 39.5281 139.12 39.324C138.314 39.1071 137.522 39.0051 136.768 39.0051C135.272 39.0051 134.544 39.4006 134.544 40.1915C134.544 40.6125 134.723 40.9697 135.068 41.2249C135.426 41.48 136.116 41.7479 137.177 42.0541C139.12 42.6154 140.487 43.2915 141.292 44.0442C142.072 44.8097 142.481 45.8685 142.481 47.2336C142.481 48.7134 141.906 49.8743 140.717 50.7418C139.529 51.5711 137.905 52.0048 135.86 52.0431ZM122.057 51.9538C120.229 51.9538 118.657 51.6476 117.328 50.9842C115.986 50.3591 114.951 49.4023 114.184 48.1649C113.455 46.9274 113.072 45.4603 113.072 43.8018C113.072 42.2582 113.379 40.8421 114.03 39.6047C114.67 38.3672 115.603 37.3849 116.791 36.6832C117.98 35.9433 119.373 35.5989 120.945 35.5989C122.402 35.5989 123.667 35.9178 124.779 36.5301C125.895 37.134 126.756 38.0185 127.361 39.1837C128 40.3446 128.294 41.6969 128.294 43.266C128.294 43.9209 128.243 44.529 128.141 45.0903H117.251C117.775 47.3867 119.526 48.5476 122.504 48.5476C123.412 48.5476 124.332 48.471 125.214 48.2669C126.096 48.0628 126.875 47.7821 127.591 47.4249L128.013 50.7418C127.284 51.1373 126.402 51.4435 125.342 51.6731C124.306 51.9028 123.194 52.0048 122.057 51.9538ZM124.255 42.1561C124.153 41.0718 123.821 40.2681 123.22 39.6812C122.632 39.1071 121.827 38.8265 120.843 38.8265C119.846 38.8265 119.066 39.1071 118.44 39.6812C117.801 40.2681 117.405 41.0973 117.226 42.1561H124.255ZM104.176 52.0303C101.876 52.0303 100.099 51.418 98.885 50.2316C97.6708 49.0196 96.9167 47.3356 96.9167 45.1286V36.0964H101.262V45.0393C101.262 47.1825 102.234 48.2669 104.202 48.2669C106.093 48.2669 107.052 47.2081 107.052 45.0393V36.0964H111.283V45.1286C111.283 47.3611 110.643 49.0451 109.429 50.2316C108.215 51.418 106.451 52.0048 104.176 52.0303ZM90.5518 58.9448V49.7085C89.4782 51.2394 87.8166 52.0048 85.5416 52.0048C84.1741 52.0048 82.9599 51.6476 81.8735 50.9842C80.8127 50.3336 79.9563 49.3768 79.3173 48.1393C78.691 46.9019 78.3843 45.4603 78.3843 43.8529C78.3843 42.3347 78.7166 40.9697 79.3173 39.7322C79.9563 38.4948 80.8127 37.4869 81.9502 36.7343C83.0877 35.9688 84.353 35.5989 85.7717 35.5989C86.8069 35.5989 87.7655 35.8285 88.6218 36.2495C89.4782 36.7088 90.1683 37.3083 90.6668 38.0993L90.7179 36.0964H94.7695V58.9448H90.5518ZM86.6791 48.2414C87.8678 48.2414 88.8519 47.8332 89.6188 47.0039C90.3984 46.1747 90.7818 45.1031 90.7818 43.8018C90.7818 42.5091 90.4027 41.446 89.6443 40.6125C88.8775 39.7833 87.8933 39.375 86.6791 39.375C85.4649 39.375 84.4808 39.7833 83.7267 40.6125C82.9684 41.446 82.5892 42.5091 82.5892 43.8018C82.5892 45.1031 82.9854 46.1747 83.7523 47.0039C84.5319 47.8332 85.5161 48.2414 86.6791 48.2414ZM64.3252 28.5058H69.2331L78.3843 51.52H73.4764L71.3036 45.4603H62.0246L59.8007 51.52H55.1484L64.3252 28.5058ZM69.9872 41.8755L66.6002 32.6136L63.2388 41.8755H69.9872ZM196.493 40.217C196.059 40.217 195.688 40.115 195.305 39.9108C194.947 39.7067 194.653 39.4261 194.423 39.0561C194.193 38.6989 194.091 38.2651 194.091 37.8186C194.091 37.3849 194.193 37.0149 194.397 36.6322C194.602 36.275 194.87 35.9688 195.254 35.7519C195.637 35.5223 196.033 35.4203 196.493 35.4203C196.928 35.4203 197.324 35.5223 197.682 35.7264C198.219 36.0326 198.334 36.1985 198.564 36.5812C198.794 36.9384 198.896 37.3594 198.896 37.8186C198.896 38.2524 198.794 38.6224 198.589 39.0051C198.385 39.3623 198.117 39.6557 197.733 39.8853C197.35 40.0895 196.954 40.217 196.493 40.217ZM196.493 39.6557C196.749 39.6557 196.979 39.6047 197.171 39.5281C197.401 39.4516 197.58 39.3368 197.759 39.1582C197.938 38.9796 198.065 38.801 198.168 38.5713C198.261 38.3502 198.308 38.0993 198.308 37.8186C198.308 37.4869 198.244 37.1553 198.091 36.8874C197.938 36.6067 197.708 36.3771 197.426 36.1985C197.145 36.0199 196.826 35.9433 196.493 35.9433C196.238 35.9433 196.008 35.9943 195.816 36.0709C195.586 36.1474 195.407 36.275 195.228 36.4536C195.049 36.6067 194.921 36.8108 194.819 37.0404C194.725 37.2616 194.678 37.5125 194.678 37.7931C194.678 38.1248 194.742 38.4438 194.896 38.7244C195.049 39.0051 195.279 39.2347 195.56 39.4006C195.816 39.5792 196.136 39.6557 196.493 39.6557ZM196.442 36.6322C196.749 36.6322 197.005 36.7088 197.145 36.8363C197.324 36.9639 197.401 37.1297 197.401 37.3849C197.401 37.7166 197.273 37.9462 197.005 38.0738L197.503 38.903H196.928L196.519 38.2014H196.136V38.903H195.637V36.6322H196.442ZM196.442 37.6911C196.596 37.6911 196.698 37.6656 196.762 37.6145C196.813 37.5635 196.864 37.487 196.864 37.3594C196.864 37.1553 196.736 37.066 196.468 37.066H196.187V37.6911H196.442Z" fill="#ABABAB"/>
</svg>
