<svg width="213" height="81" viewBox="0 0 213 81" fill="none" xmlns="http://www.w3.org/2000/svg">
<path fill-rule="evenodd" clip-rule="evenodd" d="M6.95444 42.0667L10.4305 32.6191L13.7537 42.0667H6.95444ZM17.1534 51.5905H20.362L12.073 28.8096H8.90255L0.193359 51.5905H3.44021L5.99949 44.6191H14.7087L17.1534 51.5905ZM27.3141 43.7048C24.3346 43.0572 21.2788 42.3715 21.2788 38.7905C21.2788 35.6667 23.9526 33.6858 27.9634 33.6858C30.5609 33.6858 33.0438 34.6381 34.2661 37L31.5541 38.1048C31.3249 37.4572 29.9498 35.8953 27.6197 35.8953C25.3278 35.8953 24.1818 37.2286 24.1818 38.4096C24.1818 40.0477 26.3591 40.7334 28.1926 41.1143C32.0125 41.8762 35.3739 42.8667 35.3739 46.4858C35.3739 49.3048 32.891 51.9334 28.1162 51.9334C24.602 51.9334 22.1191 50.7524 20.8968 48.3143L23.9908 47.781C24.7548 49.1143 26.1681 49.6858 28.2308 49.6858C30.8283 49.6858 32.318 48.6953 32.318 46.8286C32.3562 44.8858 29.8734 44.2762 27.3141 43.7048ZM41.7912 34.2191H44.9616V36.6572H41.7912V46.4858C41.7912 48.5429 41.7912 49.4191 43.0517 49.4191C43.5865 49.4191 44.3887 49.1905 44.9616 49V51.4C44.4651 51.4762 43.2427 51.7048 42.135 51.7048C38.7735 51.7048 38.7735 50.0667 38.8117 47.8191V36.6572H36.0615V34.2191H38.8117V30.1048L41.8294 28.8477V34.2191H41.7912ZM50.5004 34.2572V37.3429C52.1429 34.0667 55.2752 33.9905 56.4211 33.9524V36.962C53.5562 37 52.1429 37.5715 51.2262 39.0953C50.4622 40.3524 50.5004 42.1048 50.5004 43.5905V51.5524H47.5973V34.2572H50.5004ZM90.1119 28.8096V31.6667L77.2009 48.8477H90.4557V51.5905H73.6867V48.6191L86.6741 31.6286H73.6867V28.8096H90.1119ZM111.579 34.4096V36.9239C113.184 34.1048 115.972 33.8381 117.003 33.8381C119.219 33.8381 121.855 34.9429 122.695 37.8C123.001 38.8286 123.001 39.8953 123.001 41.3429V51.5905H120.097V41.8C120.097 40.0477 120.097 39.5524 119.907 38.9429C119.41 37.3048 117.767 36.581 116.201 36.581C114.903 36.581 113.795 37 112.878 37.8762C111.579 39.1715 111.579 40.4667 111.579 41.762V51.5905H108.676V34.4096H111.579ZM156.5 48.5048C155.431 50.2191 153.445 51.9334 149.892 51.9334C143.742 51.9334 141.45 47.2096 141.45 42.981C141.45 38.1048 144.124 33.6477 149.663 33.6477C151.84 33.6477 154.858 34.2953 156.539 37.0762L153.827 38.2191C153.33 37.0762 152.184 35.781 149.778 35.781C145.003 35.781 144.697 41.2286 144.697 42.7524C144.697 48.4667 147.982 49.6858 149.93 49.6858C152.184 49.6858 153.33 48.6191 153.941 47.4381L156.5 48.5048ZM94.6193 41.1524H103.825C103.558 36.6191 100.96 35.8572 99.2031 35.8572C96.682 35.8572 94.9249 37.6858 94.6193 41.1524ZM106.193 48.3143C105.2 49.9905 103.29 51.9334 99.5087 51.9334C94.3901 51.9334 91.4488 48.4667 91.4488 42.6381C91.4488 36.1239 95.7653 33.6477 99.3941 33.6477C102.565 33.6477 105.62 35.4 106.652 39.7429C106.996 41.1905 106.996 42.5239 106.996 43.2477H94.5429C94.4665 46.1429 95.6889 49.8 99.7761 49.7239C101.457 49.6858 102.641 48.9239 103.367 47.7429L106.193 48.3143ZM127.699 41.1524H136.905C136.637 36.6191 134.04 35.8572 132.283 35.8572C129.8 35.8572 128.043 37.6858 127.699 41.1524ZM139.311 48.3143C138.318 49.9905 136.408 51.9334 132.627 51.9334C127.508 51.9334 124.567 48.4667 124.567 42.6381C124.567 36.1239 128.883 33.6477 132.512 33.6477C135.682 33.6477 138.738 35.4 139.77 39.7429C140.113 41.1905 140.113 42.5239 140.113 43.2477H127.661C127.584 46.1429 128.807 49.8 132.894 49.7239C134.575 49.6858 135.759 48.9239 136.485 47.7429L139.311 48.3143ZM172.391 51.5905H169.373C169.373 51.5905 169.106 50.3715 169.029 49.0381C168.151 49.9524 166.508 51.8191 163.223 51.8191C159.862 51.8191 157.341 49.8381 157.341 46.9048C157.341 45.9905 157.608 45.0762 158.105 44.3143C159.098 42.8667 160.931 41.6858 166.088 41.2667L168.838 41.0381V40.581C168.838 38.7905 168.838 35.781 164.98 35.781C162.536 35.781 161.734 36.962 161.428 38.0286L158.754 36.9239C158.792 36.8096 158.83 36.7334 158.907 36.6572C159.938 34.7524 161.963 33.5715 164.866 33.5715C166.47 33.5715 168.571 33.9905 169.908 35.0191C171.856 36.4667 171.78 39.362 171.78 39.362L171.894 48.2381C171.932 48.3143 172.047 50.8667 172.391 51.5905ZM168.418 46.8286C168.877 45.8762 168.877 45.4572 168.877 42.9429C167.731 43.1334 166.203 43.362 164.331 43.7429C161.122 44.4286 160.549 45.6477 160.549 46.8667C160.549 48.2381 161.657 49.4191 163.796 49.4191C165.859 49.4191 167.578 48.6191 168.418 46.8286ZM71.5858 51.5905H68.5681C68.5681 51.5905 68.3007 50.3715 68.2244 49.0381C67.3458 49.9524 65.7033 51.8191 62.4182 51.8191C59.0568 51.8191 56.5357 49.8381 56.5357 46.9048C56.5357 45.9905 56.8031 45.0762 57.2997 44.3143C58.2928 42.8667 60.1263 41.6858 65.2831 41.2667L68.0334 41.0381V40.581C68.0334 38.7905 68.0334 35.781 64.1753 35.781C61.7307 35.781 60.9285 36.962 60.6229 38.0286L57.949 36.9239C57.9872 36.8477 58.0254 36.7334 58.1018 36.6572C59.1332 34.7524 61.1577 33.5715 64.0607 33.5715C65.6651 33.5715 67.766 33.9905 69.1029 35.0191C71.051 36.4667 70.9746 39.362 70.9746 39.362L71.0892 48.2381C71.1274 48.3143 71.242 50.8667 71.5858 51.5905ZM67.6132 46.8286C68.0716 45.8762 68.0716 45.4572 68.0716 42.9429C66.9256 43.1334 65.3977 43.362 63.526 43.7429C60.3173 44.4286 59.7443 45.6477 59.7443 46.8667C59.7443 48.2381 60.8521 49.4191 62.9912 49.4191C65.0539 49.4191 66.7728 48.6191 67.6132 46.8286Z" fill="#ABABAB"/>
<path fill-rule="evenodd" clip-rule="evenodd" d="M212.193 27.6286C212.193 27.5143 212.154 27.4 212.154 27.3238C212.116 27.0952 212.04 26.9048 211.963 26.7143C211.887 26.4857 211.772 26.2952 211.658 26.1048C211.543 25.8762 211.391 25.6857 211.238 25.4571C211.161 25.3429 211.047 25.2286 210.932 25.1143C210.818 25 210.703 24.8857 210.55 24.7714C210.245 24.5429 209.977 24.3143 209.633 24.0857C208.908 23.6667 208.22 23.2095 207.456 22.8667C206.539 22.4476 205.661 21.9905 204.706 21.6476L198.365 19.4381C198.365 18.219 198.403 17.0381 198.365 15.819C198.327 14.0286 198.212 12.2381 198.098 10.4476C197.983 9.19047 197.868 7.97143 197.639 6.71428C197.486 5.7619 197.257 4.80952 197.028 3.85714C196.99 3.62857 196.913 3.43809 196.837 3.20952C196.722 2.82857 196.57 2.48571 196.379 2.14286C196.226 1.87619 196.073 1.60952 195.882 1.34286C195.653 1.0381 195.385 0.771428 195.08 0.580952C194.927 0.466667 194.736 0.352381 194.583 0.27619C194.431 0.2 194.278 0.161905 194.125 0.12381C193.896 0.047619 193.667 0.047619 193.399 0.00952381C192.826 -0.0285714 192.291 0.047619 191.757 0.238095C191.566 0.314286 191.375 0.390476 191.184 0.504762C190.763 0.733333 190.343 1 189.923 1.26667C189.579 1.53333 189.197 1.8 188.892 2.10476C187.555 3.3619 186.256 4.61905 184.957 5.91428C184.27 6.6 183.62 7.32381 183.009 8.08571C180.565 11.0571 178.12 14.0286 175.752 17.0762C174.72 18.4095 173.765 19.8571 172.772 21.2667C172.543 21.6095 172.314 21.9905 172.085 22.3714C171.741 23.019 171.359 23.6667 171.053 24.3524C170.977 24.5429 170.9 24.6952 170.824 24.8857C170.748 25.0762 170.709 25.2286 170.671 25.419C170.595 25.7238 170.557 26.0667 170.557 26.4095C170.557 26.4857 170.595 26.5619 170.595 26.6381C170.633 26.7143 170.671 26.7905 170.709 26.8667C170.824 27.019 170.939 27.2095 171.053 27.3238C171.206 27.4762 171.359 27.6286 171.55 27.7809C171.741 27.9333 171.894 28.0476 172.085 28.2C172.428 28.4286 172.772 28.619 173.116 28.8095C173.269 28.8857 173.422 28.9619 173.574 29.0381C173.612 29.0762 173.46 29 173.422 28.9619H173.46L173.727 29.0762C175.828 30.1809 177.929 31.2476 180.03 32.3524C182.131 33.4571 184.232 34.6 186.294 35.7429L190.954 38.3714C189.35 39.5905 187.669 40.7714 186.103 42.0286C185.492 42.5238 184.919 43.0571 184.384 43.5905C183.926 44.0476 183.506 44.5048 183.124 45C182.818 45.3809 182.513 45.8 182.245 46.219C182.016 46.5619 181.863 46.9048 181.672 47.2476C181.558 47.5143 181.443 47.7809 181.367 48.0857C181.29 48.2762 181.252 48.5048 181.214 48.6952C181.176 48.8095 181.176 48.9619 181.176 49.0762V49.1905V49.5333C181.214 49.9143 181.29 50.3333 181.481 50.6762C181.52 50.7524 181.558 50.8286 181.634 50.9048C181.749 51.0571 181.863 51.2095 181.978 51.3238C182.092 51.4381 182.245 51.5524 182.398 51.6667C182.551 51.7809 182.704 51.8571 182.856 51.9714C183.009 52.0476 183.2 52.1238 183.353 52.2C183.506 52.2762 183.697 52.3524 183.888 52.3905C184.537 52.5428 185.187 52.6571 185.874 52.7714C186.18 52.8095 186.523 52.8476 186.867 52.8095C188.013 52.7333 189.121 52.619 190.229 52.4286C191.527 52.2381 192.826 51.9333 194.125 51.6667C195.653 51.3238 197.181 50.9809 198.671 50.6C199.74 50.3333 200.81 50.0667 201.841 49.6476C202.643 49.3048 203.445 49 204.247 48.6571C204.438 48.5809 204.591 48.4667 204.744 48.3905C204.897 48.3143 205.05 48.2 205.202 48.0857C205.317 48.0095 205.47 47.8952 205.546 47.7809C205.623 47.7048 205.737 47.5905 205.814 47.4762C205.928 47.2857 206.043 47.0952 206.081 46.9048C206.119 46.7143 206.119 46.5238 206.081 46.3714C206.043 46.1809 205.966 46.0286 205.89 45.8762C205.814 45.7238 205.699 45.5714 205.584 45.4571C205.355 45.2286 205.126 45 204.859 44.8476C204.744 44.7714 204.629 44.6952 204.515 44.619C203.674 44.1238 202.872 43.6286 202.032 43.1333L198.518 41.0762C200.657 39.6286 202.796 38.219 204.897 36.7714C205.814 36.1619 206.692 35.4762 207.532 34.7905C208.258 34.1809 208.946 33.5714 209.633 32.9238C209.977 32.619 210.245 32.2762 210.55 31.9333C210.703 31.7809 210.818 31.6286 210.932 31.4381C211.047 31.2857 211.161 31.1333 211.238 30.9809C211.505 30.4476 211.772 29.8762 212.002 29.3429C212.078 29.1143 212.116 28.8476 212.193 28.619C212.231 28.5048 212.231 28.3905 212.231 28.2762C212.231 28.1619 212.231 28.0476 212.231 27.9333C212.231 27.8571 212.193 27.7429 212.193 27.6286ZM186.065 13.3429C187.249 12.1238 188.433 10.9048 189.656 9.68571C189.885 9.45714 190.114 9.26666 190.343 9.07619C190.42 9 190.496 8.92381 190.611 8.88571C190.687 8.84762 190.725 8.77143 190.802 8.73333C190.84 8.69524 190.916 8.65714 190.954 8.65714C191.031 8.61905 191.069 8.61905 191.145 8.58095H191.336C191.413 8.58095 191.489 8.61905 191.527 8.65714C191.604 8.69524 191.68 8.77143 191.718 8.80952C191.757 8.84762 191.795 8.88571 191.795 8.92381C191.833 8.9619 191.871 9.03809 191.871 9.07619C191.948 9.22857 191.986 9.38095 192.024 9.53333C192.062 9.7619 192.139 9.99047 192.177 10.219C192.253 10.7905 192.33 11.3238 192.406 11.8952C192.482 12.619 192.559 13.3429 192.597 14.0667L192.941 17.9143L188.624 16.9238L184.614 16.2762L183.659 16.2H183.353C184.27 15.2476 185.148 14.2952 186.065 13.3429ZM183.391 18.6762H183.429H183.468L183.62 18.7143L184.002 18.8667L184.537 19.0952C185.912 19.6667 187.287 20.2762 188.663 20.8476C189.579 21.2286 190.496 21.6095 191.375 21.9905L193.17 22.7524L193.323 22.8286C193.437 24.2381 193.552 25.6476 193.628 27.0571C193.705 28.1619 193.705 29.2667 193.743 30.3714V30.7905C193.743 30.8667 193.743 30.9429 193.705 31.019C193.705 31.0952 193.667 31.1714 193.667 31.2476C193.628 31.3238 193.628 31.4 193.59 31.4762C193.552 31.5524 193.514 31.5905 193.476 31.6667C193.437 31.7048 193.437 31.7048 193.399 31.7429C193.361 31.7809 193.323 31.7809 193.285 31.819C193.208 31.8571 193.132 31.8952 193.017 31.8952C192.903 31.9333 192.788 31.9333 192.673 31.8952C192.597 31.8952 192.559 31.8571 192.482 31.8571C192.406 31.8571 192.33 31.819 192.291 31.7809C192.139 31.7048 192.024 31.6667 191.871 31.5905C191.718 31.5143 191.566 31.4 191.451 31.3238C191.298 31.2095 191.145 31.0952 190.993 30.9809C190.84 30.8286 190.687 30.7143 190.534 30.5619C190.229 30.219 189.923 29.8762 189.618 29.5333C189.083 28.8857 188.548 28.2762 188.09 27.5905C187.478 26.6381 186.829 25.7238 186.218 24.7714C185.836 24.2 185.492 23.6286 185.187 23.019L183.811 20.2762L183.506 19.4L183.429 19.1333L183.391 18.8667V18.6762ZM198.632 42.9428C199.014 43.1714 199.396 43.4 199.74 43.6667C200.198 43.9714 200.695 44.2762 201.153 44.619C201.497 44.8476 201.803 45.1143 202.108 45.3809C202.261 45.4952 202.376 45.6095 202.49 45.7619C202.605 45.8762 202.681 45.9905 202.758 46.1048V46.1428V46.219C202.758 46.219 202.758 46.2571 202.72 46.2571L202.681 46.2952C202.643 46.2952 202.643 46.2952 202.605 46.3333C202.567 46.3333 202.529 46.3333 202.49 46.3333C200.657 46.4857 198.861 46.6 197.028 46.7524L189.923 47.3238H189.694L189.809 47.2095L190.267 46.8286C191.184 46.1428 192.062 45.419 193.017 44.7714L197.028 42.0667L198.632 42.9428ZM204.095 29C204.056 29.1524 203.98 29.2667 203.904 29.3809C203.789 29.5333 203.636 29.6476 203.522 29.8C203.216 30.0667 202.949 30.3333 202.605 30.5619C201.459 31.3619 200.351 32.1619 199.205 32.9619C198.403 33.4952 197.601 33.9905 196.799 34.5238L192.139 37.4952L190.152 36.3524L181.711 31.5524C179.801 30.4095 177.891 29.3048 175.981 28.1238C175.637 27.8952 175.293 27.6667 174.949 27.4C174.835 27.3238 174.758 27.2476 174.644 27.1714C174.606 27.1333 174.567 27.1333 174.529 27.0952C174.453 27.019 174.376 26.9429 174.3 26.9048C174.224 26.8286 174.147 26.7143 174.109 26.6C174.071 26.5238 174.071 26.4857 174.071 26.4095C174.071 26.3333 174.071 26.2571 174.071 26.219C174.109 26.0667 174.147 25.9143 174.224 25.8C174.415 25.4952 174.606 25.1905 174.873 24.9619C175.981 23.8571 177.089 22.7524 178.158 21.6095L181.099 18.6L181.252 19.0952L181.596 19.9333L181.634 19.9714C182.398 21.3048 183.162 22.7143 183.964 24.0095C184.919 25.5333 185.951 27.019 186.982 28.4667C187.478 29.1524 187.975 29.8381 188.51 30.4857C188.968 31.0571 189.465 31.6286 189.961 32.1238C190.42 32.5809 190.916 33 191.413 33.419C191.68 33.6095 191.948 33.7619 192.215 33.9524C192.482 34.1048 192.75 34.219 193.017 34.2952C193.285 34.3714 193.552 34.4476 193.819 34.4476C194.125 34.4857 194.469 34.4476 194.774 34.3714C194.851 34.3333 194.965 34.3333 195.042 34.2952C195.118 34.2571 195.194 34.219 195.271 34.1809C195.347 34.1428 195.424 34.1048 195.5 34.0286C195.615 33.9524 195.729 33.8381 195.844 33.7238C195.92 33.6476 196.035 33.5333 196.111 33.419C196.226 33.3048 196.302 33.1524 196.379 33C196.608 32.619 196.799 32.2381 196.913 31.819C197.066 31.3619 197.219 30.9048 197.295 30.4476C197.448 29.8381 197.601 29.1905 197.677 28.5809L198.059 24.9238C198.938 25.3429 199.816 25.6857 200.695 26.1429C201.535 26.5619 202.338 27.0952 203.14 27.5524C203.216 27.5905 203.331 27.6667 203.407 27.7429C203.522 27.8571 203.636 27.9333 203.751 28.0476C203.865 28.1619 203.942 28.3143 204.018 28.4667C204.056 28.5429 204.056 28.619 204.095 28.6952V28.8095C204.133 28.9238 204.133 28.9619 204.095 29Z" fill="#ABABAB"/>
</svg>
