<svg width="200" height="80" viewBox="0 0 200 80" fill="none" xmlns="http://www.w3.org/2000/svg">
<path d="M60.4961 48.6922V43.1887H50.8933V48.6922H48.3281V38.4571C48.3281 37.3161 48.4926 36.2759 48.8214 35.3362C49.1503 34.3966 49.6107 33.6248 50.2355 32.9872C50.8604 32.3496 51.6168 31.8462 52.5376 31.4771C53.4584 31.108 54.5108 30.9402 55.6947 30.9402C56.8786 30.9402 57.9639 31.1415 58.8847 31.4771C59.8384 31.8127 60.5948 32.3161 61.2196 32.9872C61.8445 33.6248 62.3378 34.4302 62.6338 35.3362C62.9626 36.2759 63.1271 37.2826 63.1271 38.4571V48.6922H60.4961ZM60.4961 38.4571C60.4961 36.8799 60.1015 35.6383 59.2793 34.7658C58.4901 33.8933 57.2733 33.4235 55.6618 33.4235C54.0504 33.4235 52.8665 33.8597 52.0443 34.7658C51.255 35.6383 50.8275 36.8799 50.8275 38.4571V40.6719H60.4633V38.4571H60.4961ZM71.3816 48.6922V33.7926H65.9882V31.2758H79.4717V33.7926H74.0454V48.6922H71.3816ZM94.0075 48.6922L89.9296 42.484H85.8517V48.6922H83.1879V31.3093H90.4887C91.5082 31.3093 92.429 31.4771 93.1854 31.7456C93.9418 32.014 94.5666 32.4167 95.0599 32.9201C95.5532 33.4235 95.915 33.9939 96.1452 34.6986C96.3754 35.3698 96.5069 36.1081 96.5069 36.9135C96.5069 38.2222 96.2109 39.3632 95.5532 40.3028C94.9612 41.276 93.9418 41.9136 92.6263 42.2491V42.3162L97.1318 48.7258H93.9746L94.0075 48.6922ZM90.5545 39.9672C91.1793 39.9672 91.7055 39.8665 92.133 39.7323C92.5605 39.5645 92.8894 39.3632 93.1525 39.0947C93.4156 38.8262 93.6129 38.4907 93.7116 38.1215C93.8431 37.7524 93.9089 37.3497 93.9089 36.8799C93.9089 36.4101 93.8431 36.0074 93.7116 35.6383C93.58 35.2691 93.4156 34.9336 93.1525 34.6315C92.8894 34.3631 92.5605 34.1282 92.133 33.9939C91.7055 33.8597 91.1793 33.7926 90.5873 33.7926H85.8846V39.9672H90.5545ZM112.621 48.6922V43.1887H103.018V48.6922H100.453V38.4571C100.453 37.3161 100.618 36.2759 100.947 35.3362C101.275 34.3966 101.736 33.6248 102.361 32.9872C102.986 32.3496 103.742 31.8462 104.663 31.4771C105.584 31.108 106.636 30.9402 107.82 30.9402C109.004 30.9402 110.089 31.1415 111.01 31.4771C111.964 31.8127 112.72 32.3161 113.345 32.9872C113.97 33.6248 114.463 34.4302 114.759 35.3362C115.088 36.2759 115.252 37.2826 115.252 38.4571V48.6922H112.621ZM112.621 38.4571C112.621 36.8799 112.227 35.6383 111.405 34.7658C110.615 33.8933 109.398 33.4235 107.787 33.4235C106.176 33.4235 104.992 33.8597 104.169 34.7658C103.38 35.6383 102.953 36.8799 102.953 38.4571V40.6719H112.588V38.4571H112.621ZM124.362 48.6922L117.916 31.3093H120.81L125.842 45.4707H125.907L130.939 31.3093H133.767L127.322 48.6922H124.362ZM140.016 41.0746V46.1754H149.915V48.6922H137.385V31.3093H149.915V33.8261H140.016V38.6249H148.402V41.1417H140.016V41.0746ZM164.944 48.6922L160.866 42.4505H156.788V48.6586H154.124V31.2758H161.458C162.477 31.2758 163.398 31.4436 164.155 31.712C164.911 31.9805 165.536 32.3832 166.029 32.8865C166.522 33.3899 166.884 33.9604 167.114 34.6651C167.345 35.3362 167.476 36.0745 167.476 36.8799C167.476 38.1886 167.18 39.3296 166.522 40.2692C165.93 41.2424 164.911 41.88 163.595 42.2156V42.2827L168.101 48.6922H164.911H164.944ZM161.524 39.9672C162.148 39.9672 162.675 39.8665 163.102 39.7323C163.53 39.5645 163.859 39.3632 164.122 39.0947C164.385 38.8262 164.582 38.4907 164.681 38.1215C164.812 37.7524 164.878 37.3497 164.878 36.8799C164.878 36.4101 164.812 36.0074 164.681 35.6383C164.549 35.2691 164.385 34.9336 164.122 34.6315C163.859 34.3631 163.53 34.1282 163.102 33.9939C162.675 33.8261 162.148 33.7926 161.556 33.7926H156.854V39.9672H161.524ZM180.631 36.1752C180.631 35.4034 180.302 34.7658 179.71 34.2624C179.118 33.759 178.329 33.5241 177.243 33.5241C176.158 33.5241 175.303 33.759 174.711 34.296C174.119 34.8329 173.823 35.4705 173.823 36.2759C173.823 37.0812 174.053 37.4839 174.547 37.786C175.04 38.088 175.599 38.3564 176.323 38.4907C177.013 38.6585 177.802 38.7927 178.625 38.9269C179.48 39.0611 180.236 39.2625 180.927 39.5645C181.617 39.8665 182.242 40.3363 182.703 40.9739C183.196 41.578 183.426 42.484 183.426 43.625C183.426 44.766 183.262 45.2022 182.966 45.8734C182.67 46.511 182.242 47.115 181.683 47.5848C181.124 48.0546 180.466 48.4237 179.71 48.6586C178.953 48.8936 178.066 49.0278 177.112 49.0278C176.158 49.0278 175.336 48.8936 174.58 48.6586C173.823 48.4237 173.165 48.0546 172.606 47.6184C172.047 47.1821 171.62 46.6116 171.324 45.9405C171.028 45.3029 170.863 44.5311 170.831 43.7257H173.461C173.461 44.5982 173.823 45.2693 174.448 45.7727C175.04 46.3096 175.961 46.5445 177.112 46.5445C178.263 46.5445 179.249 46.3096 179.874 45.7727C180.499 45.2358 180.828 44.5646 180.828 43.7257C180.828 42.8867 180.664 42.7861 180.4 42.484C180.137 42.182 179.776 41.9471 179.315 41.7793C178.855 41.578 178.329 41.4773 177.77 41.3766C177.178 41.276 176.586 41.1753 175.994 41.0746C175.402 40.9404 174.81 40.8061 174.218 40.6048C173.626 40.4035 173.133 40.135 172.705 39.7994C172.245 39.4638 171.883 38.994 171.62 38.4236C171.357 37.8531 171.192 37.1484 171.192 36.2759C171.192 35.4034 171.357 34.7658 171.62 34.0946C171.883 33.457 172.278 32.8865 172.837 32.3832C173.363 31.9134 173.988 31.5442 174.711 31.3093C175.435 31.0744 176.257 30.9402 177.145 30.9402C178.033 30.9402 178.822 31.0744 179.545 31.3093C180.269 31.5442 180.894 31.9134 181.387 32.3496C181.88 32.7859 182.341 33.3563 182.604 33.9939C182.867 34.6315 183.064 35.3698 183.097 36.1416H180.565L180.631 36.1752ZM190.102 41.0746V46.1754H200.001V48.6922H187.471V31.3093H200.001V33.8261H190.102V38.6249H198.488V41.1417H190.102V41.0746Z" fill="#ABABAB"/>
<path d="M6.62845 50.9741C9.00776 50.9741 10.9366 49.4116 10.9366 47.4841C10.9366 45.5567 9.00776 43.9941 6.62845 43.9941C4.24913 43.9941 2.32031 45.5567 2.32031 47.4841C2.32031 49.4116 4.24913 50.9741 6.62845 50.9741Z" fill="#ABABAB"/>
<path d="M13.7645 34.8332L13.896 34.3299C14.5538 31.8466 15.8692 28.8264 19.2565 28.7593C21.6573 28.7257 24.0909 30.1016 23.8278 34.0614C23.8278 34.3634 23.6962 35.2024 23.466 36.8802C27.2151 38.1554 30.438 39.7998 33.036 41.377C33.1347 38.491 33.2004 36.3769 33.2004 36.1084C33.2004 25.7726 27.5768 22.4169 20.6707 22.2155C13.6329 22.0142 9.22615 26.6451 5.9375 34.8332C8.66708 34.5648 11.2651 34.5983 13.7316 34.8332H13.7645Z" fill="#ABABAB"/>
<path d="M39.5137 47.1152C34.0874 42.9876 19.0912 33.323 0.280049 36.6788C-0.11459 36.7459 -0.0817031 37.3164 0.312935 37.3499C1.49685 37.417 3.04252 37.5513 4.91705 37.7191L4.5553 38.7594C4.22643 39.6654 3.27272 42.4843 2.68077 44.2293C3.66736 43.3568 5.0486 42.8198 6.59427 42.8198C8.13993 42.8198 10.2118 43.6923 11.1984 45.0011C11.5601 43.5917 12.1192 41.3433 12.3165 40.5044L12.7441 38.86C15.8025 39.397 19.1898 40.1688 22.8073 41.2091C22.4127 43.6923 21.1959 50.8401 20.7026 53.6925C20.6039 54.3637 20.9986 55.0013 21.6563 55.2026L31.1934 57.753C31.8182 57.9208 32.476 57.451 32.476 56.7798C32.5746 54.1288 32.772 48.1555 32.9035 44.7997C34.9425 45.6722 37.0472 46.6454 39.1519 47.7193C39.5137 47.887 39.8097 47.3837 39.4808 47.1488L39.5137 47.1152Z" fill="#ABABAB"/>
</svg>
