<svg width="124" height="80" viewBox="0 0 124 80" fill="none" xmlns="http://www.w3.org/2000/svg">
<path d="M123.35 26.4728L120.839 39.1204H118.638L113.989 31.1995H113.949L112.376 39.1204H109.629L112.12 26.4728H114.235L118.959 34.5387H118.998L120.623 26.4728H123.35ZM97.152 26.4728L92.4462 31.681L89.5993 26.4727H87.4436L84.9531 39.1204H87.701L89.2884 31.1252H89.3276L91.8134 35.6348L96.0462 30.9825H96.0865L94.4826 39.1204H97.2319L99.7425 26.4728H97.152Z" fill="#ABABAB"/>
<path d="M82.9565 26.4727L77.6942 32.0653L78.8047 26.4727H76.0366L73.5449 39.1202H76.2928L77.4712 33.1863L81.6516 39.1202H85.0919L80.3491 32.5055L86.2383 26.4727H82.9565ZM82.7765 52.8237L83.4879 49.3004L87.7982 49.2987L88.1938 47.3434H83.8836L84.5163 44.0929H89.8155L90.2112 42.1352H82.1438L79.652 54.7827H88.3522L90.3685 52.8242H82.7765" fill="#ABABAB"/>
<path d="M71.3292 26.1602C70.5868 26.1602 69.8706 26.2144 69.1938 26.3902C65.8108 27.2692 63.3821 30.2534 63.3906 33.9523C63.3973 36.5718 65.1339 39.433 68.7743 39.433C71.5271 39.433 72.9105 38.2201 74.0175 37.5535L72.9105 35.9098C72.2087 36.3653 71.7236 36.7583 70.9729 37.0249C70.4975 37.1936 69.916 37.3351 69.1045 37.3351C67.5136 37.3351 66.2231 35.9948 66.235 33.8734C66.2492 31.2054 67.8854 28.2357 70.8944 28.2357C72.3577 28.2357 72.8318 28.7831 73.3455 29.2929L74.7301 27.687C73.939 26.8258 72.745 26.1602 71.3292 26.1602ZM70.8324 42.1352L70.4368 44.0925H74.0247L71.9191 54.7827H74.6682L76.7905 44.0925H80.1653L82.1815 42.1352H70.8324Z" fill="#ABABAB"/>
<path d="M56.7398 37.1627L57.4512 33.6382H61.7615L62.1571 31.6808H57.8469L58.4796 28.4312H63.7778L64.1733 26.4727H56.1071L53.6153 39.1202H62.5921L64.6082 37.1627H56.7398ZM65.7179 52.8237L67.8292 42.1288H65.085L62.5944 54.7824H70.3844L72.4006 52.8237H65.7179ZM61.0678 42.1349L59.3864 50.6704C59.1112 52.0698 57.8683 52.9417 56.4801 52.9417C55.0906 52.9417 54.2435 51.8763 54.4828 50.6702L56.1834 42.1349H53.4355L51.8136 50.3188C51.2166 53.3323 53.1626 55.0561 56.045 55.0561C59.6343 55.0561 61.5839 53.3983 62.194 50.3188L63.8159 42.1349H61.0678ZM35.6907 40.1774C34.9005 40.1774 34.1355 40.1929 33.4086 40.3697C29.6228 41.2947 26.864 44.5655 26.8535 48.5948C26.8438 52.084 29.3189 55.095 32.9725 55.095C35.9062 55.095 37.3624 53.921 38.3909 53.1765L37.3602 51.4609C36.3889 52.268 35.544 52.9771 33.5314 52.9771C31.3899 52.9771 29.7955 51.2686 29.7979 48.7011C29.7997 45.4527 31.6771 42.1843 35.2747 42.1843C36.5854 42.1843 37.5246 42.9642 38.205 43.651L39.6397 42.0675C38.9044 41.3514 37.3697 40.1774 35.6906 40.1774" fill="#ABABAB"/>
<path d="M36.1284 6.15452C33.3482 2.03783 27.7344 0 22.9202 0C10.4556 0 0 10.1995 0 22.5744C0 24.9448 0.443331 27.2433 1.28578 29.3293L1.27638 29.2976C1.12373 28.7749 0.980829 27.6362 0.982047 27.2196C0.982047 24.4197 2.63718 22.0918 4.99901 20.9426C5.19082 20.499 5.41727 20.0553 5.67958 19.601C7.55508 16.3492 12.0739 12.9026 17.7794 12.9014C22.8344 12.9005 27.6665 15.7155 33.2063 15.7155C33.5294 15.7155 33.8392 15.6965 34.1358 15.6565C34.1633 12.853 32.9872 10.1616 31.3141 7.94813C29.616 5.70159 26.4998 4.07687 23.7841 3.83248C24.2274 3.80542 24.6695 3.74407 25.1009 3.73942C30.7279 3.68754 35.2846 8.17942 35.2846 13.7747C35.2846 14.3503 35.2501 14.8944 35.1774 15.4218C36.798 14.8779 37.8252 13.5916 37.8979 11.6153C37.9444 10.36 37.4071 8.04844 36.1284 6.15469" fill="#ABABAB"/>
<path d="M31.066 18.8672C25.7763 18.8811 20.4709 15.7556 14.3186 15.7473C9.64963 15.7416 8.0434 17.2306 6.3357 19.7225C6.1491 19.996 5.98835 20.2859 5.85547 20.5886C6.65858 20.3135 7.50222 20.1724 8.35201 20.1708C13.6417 20.1567 18.9481 23.2823 25.0994 23.2904C29.7694 23.2961 31.3746 21.8074 33.0823 19.3154C33.2689 19.042 33.4297 18.7521 33.5625 18.4494C32.7594 18.7245 31.9158 18.8656 31.066 18.867" fill="#ABABAB"/>
<path d="M38.2374 9.90447C38.0444 9.41587 38.1459 9.7404 38.1459 9.7404C38.1459 9.7404 38.4413 11.4018 38.4413 11.8182C38.4404 14.6182 36.7849 16.9462 34.4243 18.0954C34.2232 18.5552 33.9956 19.0031 33.7427 19.437C31.867 22.6888 27.3482 26.1354 21.6438 26.1365C16.5891 26.1375 11.7556 23.3224 6.21559 23.3224C5.89271 23.3224 5.58289 23.3413 5.28611 23.3801C5.25879 26.1849 6.43491 28.8751 8.10798 31.0897C9.80611 33.3363 12.9223 34.9612 15.638 35.2054C15.1947 35.2312 14.7525 35.2938 14.3212 35.2984C8.69421 35.3491 4.13749 30.8584 4.13749 25.2634C4.13749 24.6875 4.17317 24.1424 4.24593 23.6174C2.62404 24.1602 1.59674 25.446 1.52415 27.4225C1.4789 28.6781 2.00682 30.9953 3.29382 32.8832C6.1216 37.0317 11.7425 39.1297 16.626 39.1297C29.1226 39.1297 39.5627 29.4426 39.5448 16.913C39.541 14.4553 39.0992 12.0671 38.2376 9.9043" fill="#ABABAB"/>
<path d="M106.562 26.4728H104.825L97.2308 39.1203H100.196L101.817 36.1446H106.105L106.721 39.1203H109.687L106.562 26.4728ZM102.818 34.187L104.823 30.4278H104.901L105.685 34.187H102.818ZM97.04 49.0163C98.3557 48.8698 100.306 48.1253 100.767 45.7372C101.175 43.6251 99.5569 42.135 96.5361 42.135H92.3842L89.8926 54.7825H92.6405L93.775 49.067H93.8549L97.8015 54.7825H101.361L97.04 49.0163ZM94.1099 47.3821L94.7628 44.0923H95.765C97.6812 44.0923 98.0636 44.831 97.8802 45.7372C97.649 46.8888 96.9305 47.3821 95.3302 47.3821H94.1099ZM50.6815 31.4472L50.6862 31.4059C51.3583 31.0932 53.0016 30.6613 53.3758 28.6662C53.8799 25.9771 51.7349 24.8291 48.3136 24.8291H44.0035L41.1566 39.1201H46.3762C50.8185 39.1201 52.9003 37.6784 53.3758 35.3221C53.7965 33.2372 52.1497 31.7199 50.6815 31.4472ZM46.3558 26.7866H47.6416C49.6937 26.7866 50.7708 27.2644 50.4885 28.6662C50.2584 29.813 49.4636 30.5446 47.2066 30.5446H45.6052L46.3558 26.7866ZM50.5682 34.8525C50.1726 36.8112 48.3972 37.1628 45.9412 37.1628H44.3003L45.2094 32.5032H46.8503C48.9999 32.5032 50.9734 32.8431 50.5682 34.8525ZM46.0484 41.8611C45.2404 41.8611 44.4766 41.939 43.7665 42.1562C40.6097 43.1225 38.541 46.1148 38.541 49.6133C38.541 52.2256 40.2177 55.0562 43.6436 55.0562C44.3538 55.0562 45.0295 55.0055 45.6646 54.8356C48.9667 53.9554 51.151 50.8969 51.151 47.303C51.151 44.6919 49.4744 41.8611 46.0484 41.8611ZM44.952 52.9312C44.6316 53.0018 44.2979 52.9972 43.9546 52.9972C42.6152 52.9972 41.2306 51.5789 41.2306 49.4175C41.2306 47.3502 42.3448 44.7285 44.4779 44.0653C44.8841 43.939 45.3073 43.9202 45.7374 43.9202C47.0684 43.9202 48.4614 45.3219 48.4614 47.4598C48.4614 49.6416 47.2973 52.4072 44.952 52.9312Z" fill="#ABABAB"/>
</svg>
