<svg width="85" height="80" viewBox="0 0 85 80" fill="none" xmlns="http://www.w3.org/2000/svg">
<path d="M28.1167 34.295C27.9244 35.5859 27.5582 36.8494 26.9814 38.0945C26.1391 39.9989 24.9671 41.83 23.3924 43.3681C20.426 46.3711 15.9947 48.2755 11.4627 48.2755H0V41.6835H11.4536C14.1636 41.6835 16.7638 40.6581 18.5216 38.827C19.7943 37.536 20.6824 35.9613 21.1401 34.295H28.1167ZM28.1167 29.2686C27.9244 27.9777 27.5582 26.7142 26.9814 25.469C26.1391 23.5647 24.9671 21.7336 23.3924 20.1955C20.426 17.1924 15.9947 15.2881 11.4536 15.2881H0V21.8801H11.4536C14.1636 21.8801 16.7638 22.9055 18.5216 24.7366C19.7943 26.0275 20.6824 27.6023 21.1401 29.2686H28.1167ZM42.5 37.2614L33.7473 48.2755H25.0679L38.1694 31.7864L25.077 15.2881H33.7565L42.5092 26.293L51.2527 15.2881H59.9321L46.8214 31.7864L59.923 48.2755H51.2435L42.5 37.2614ZM63.8599 34.295C64.3176 35.9613 65.2057 37.536 66.4783 38.827C68.2362 40.6581 70.8364 41.6835 73.5464 41.6835H85V48.2755H73.5464C69.0053 48.2755 64.574 46.3711 61.6168 43.3681C60.042 41.83 58.8701 39.9989 58.0278 38.0945C57.451 36.8494 57.0848 35.5859 56.8925 34.295H63.8599ZM63.8599 29.2686C64.3176 27.6023 65.2057 26.0275 66.4783 24.7366C68.2362 22.9055 70.8364 21.8801 73.5464 21.8801H85V15.2881H73.5464C69.0053 15.2881 64.574 17.1924 61.6168 20.1955C60.042 21.7336 58.8701 23.5647 58.0278 25.469C57.451 26.7142 57.0848 27.9777 56.8925 29.2686H63.8599Z" fill="#ABABAB"/>
<path d="M0 58.747H2.24457V64.6046H3.90475V58.747H6.14931V57.0757H0V58.747Z" fill="#ABABAB"/>
<path d="M8.16797 57.8164V58.6227V60.0669V61.6139V63.0576V64.6046H9.82815H13.8647V63.0576H9.82815V61.6139H13.2703V60.0669H9.82815V58.6227H13.8647V57.0757H8.16797V57.8164Z" fill="#ABABAB"/>
<path d="M46.5262 57.0256C44.3554 57.0256 42.5957 58.7462 42.5957 60.8687C42.5957 62.9913 44.3554 64.7118 46.5262 64.7118C48.697 64.7118 50.4567 62.9913 50.4567 60.8687C50.4567 58.7462 48.697 57.0256 46.5262 57.0256ZM46.5262 63.1148C45.3212 63.1148 44.3414 62.1073 44.3414 60.8687C44.3414 59.6302 45.3217 58.6227 46.5262 58.6227C47.7308 58.6227 48.711 59.6302 48.711 60.8687C48.711 62.1073 47.7308 63.1148 46.5262 63.1148Z" fill="#ABABAB"/>
<path d="M63.3602 57.0256C61.1894 57.0256 59.4297 58.7462 59.4297 60.8687C59.4297 62.9913 61.1894 64.7118 63.3602 64.7118C65.531 64.7118 67.2907 62.9913 67.2907 60.8687C67.2907 58.7462 65.531 57.0256 63.3602 57.0256ZM63.3602 63.1148C62.1552 63.1148 61.1754 62.1073 61.1754 60.8687C61.1754 59.6302 62.1556 58.6227 63.3602 58.6227C64.5647 58.6227 65.545 59.6302 65.545 60.8687C65.545 62.1073 64.5647 63.1148 63.3602 63.1148Z" fill="#ABABAB"/>
<path d="M72.9394 61.7264H74.5035V62.5928C74.4987 62.5972 74.4935 62.6016 74.4887 62.6055C74.4769 62.6156 74.4651 62.6253 74.4529 62.635C74.4376 62.6473 74.4228 62.6591 74.4075 62.671C74.3835 62.6895 74.3591 62.7075 74.3342 62.7246C74.1622 62.8454 73.9733 62.9412 73.7716 63.0076C73.7546 63.0133 73.7376 63.019 73.7206 63.0238C73.7035 63.0291 73.6865 63.0339 73.6695 63.0387C73.584 63.0625 73.4962 63.0805 73.4068 63.0932C73.3928 63.0954 73.3784 63.0972 73.3644 63.0989C73.3601 63.0994 73.3557 63.1003 73.3513 63.1007C73.3374 63.102 73.323 63.1038 73.309 63.1051C73.2741 63.1086 73.2388 63.1108 73.2034 63.1121C73.1894 63.113 73.1755 63.1139 73.1611 63.1139C73.1427 63.1143 73.124 63.1148 73.1052 63.1148C71.9002 63.1148 70.92 62.1073 70.92 60.8687C70.92 59.6302 71.8998 58.6232 73.1048 58.6227C73.1235 58.6227 73.1423 58.6227 73.1606 58.6236C73.175 58.6236 73.189 58.6245 73.203 58.6254C73.2383 58.6267 73.2737 58.6289 73.3086 58.6324C73.3225 58.6337 73.3369 58.6355 73.3509 58.6368C73.3553 58.6372 73.3596 58.6381 73.364 58.6385C73.378 58.6403 73.3924 58.642 73.4063 58.6442C73.4958 58.657 73.5835 58.675 73.6691 58.6987C73.6861 58.7036 73.7031 58.7084 73.7201 58.7137C73.7372 58.7185 73.7542 58.7242 73.7712 58.7299C73.9728 58.7963 74.1618 58.892 74.3338 59.0129C74.3586 59.03 74.3831 59.048 74.4071 59.0665C74.4223 59.0783 74.4372 59.0902 74.4525 59.1025C74.4647 59.1122 74.4765 59.1218 74.4883 59.1319C74.5258 59.1636 74.5624 59.1965 74.5978 59.2308C74.6074 59.24 74.617 59.2492 74.6266 59.2589C74.634 59.2664 74.6414 59.2739 74.6489 59.2813C74.7021 59.3362 74.7532 59.3942 74.8007 59.4544L75.9407 58.2084C75.9184 58.1856 75.8957 58.1631 75.8726 58.1407C75.8499 58.1188 75.8268 58.0968 75.8032 58.0748C75.7797 58.0533 75.7561 58.0318 75.7321 58.0107C75.7081 57.9896 75.6841 57.9689 75.6596 57.9487C75.6382 57.9307 75.6169 57.9131 75.5955 57.896C75.5785 57.8824 75.5614 57.8688 75.544 57.8552C75.5383 57.8508 75.5322 57.8464 75.5265 57.842C75.5051 57.8253 75.4838 57.809 75.4619 57.7936C75.4593 57.7914 75.4567 57.7892 75.4541 57.7875C75.4314 57.7712 75.4087 57.7545 75.3856 57.7387C75.3825 57.7365 75.3794 57.7343 75.3768 57.7326C75.3533 57.7163 75.3297 57.7001 75.3057 57.6842C75.3039 57.6829 75.3022 57.682 75.3004 57.6807C75.2799 57.6675 75.2594 57.6539 75.2389 57.6412C75.2036 57.6188 75.1673 57.5968 75.1311 57.5753C75.1119 57.5639 75.0927 57.5529 75.0731 57.5419C75.0648 57.5371 75.056 57.5322 75.0478 57.5278C75.029 57.5168 75.0102 57.5067 74.991 57.4966C74.9836 57.4922 74.9766 57.4887 74.9692 57.4852C74.9443 57.4716 74.919 57.4588 74.8937 57.4461C74.8658 57.432 74.837 57.418 74.8086 57.4048C74.7802 57.3912 74.7519 57.3784 74.7235 57.3657C74.7226 57.3653 74.7217 57.3648 74.7204 57.3644C74.6951 57.3534 74.6698 57.3424 74.6445 57.3319C74.6366 57.3284 74.6288 57.3253 74.6209 57.3222C74.5961 57.3121 74.5707 57.302 74.5459 57.2923C74.5157 57.2809 74.4861 57.2695 74.456 57.2589C74.428 57.2488 74.3997 57.2392 74.3717 57.2299C74.3652 57.2273 74.3591 57.2255 74.3525 57.2238C74.329 57.2159 74.3049 57.208 74.2809 57.2009C74.2744 57.1987 74.2679 57.1965 74.2609 57.1948C74.2342 57.1869 74.2076 57.179 74.1806 57.1715C74.1535 57.164 74.1269 57.157 74.0998 57.15C74.0841 57.1456 74.068 57.1416 74.0523 57.1381C74.0344 57.1337 74.0165 57.1298 73.9981 57.1254C73.9916 57.1236 73.985 57.1223 73.9785 57.121C73.9514 57.1148 73.9239 57.1091 73.8964 57.1038C73.8646 57.0973 73.8323 57.0911 73.8 57.0858C73.7677 57.0801 73.7354 57.0748 73.7031 57.07C73.6416 57.0608 73.5796 57.0529 73.5172 57.0467C73.4967 57.0445 73.4757 57.0423 73.4548 57.041C73.4386 57.0393 73.4229 57.0379 73.4068 57.0371C73.3073 57.0296 73.2065 57.0256 73.1048 57.0256C70.934 57.0256 69.1738 58.7462 69.1738 60.8687C69.1738 62.9913 70.934 64.7118 73.1048 64.7118C73.2065 64.7118 73.3073 64.7079 73.4068 64.7004C73.4229 64.6995 73.4386 64.6982 73.4548 64.6965C73.4757 64.6951 73.4967 64.6929 73.5172 64.6908C73.5796 64.6846 73.6416 64.6767 73.7031 64.6675C73.7354 64.6626 73.7677 64.6574 73.8 64.6516C73.8323 64.6464 73.8646 64.6402 73.8964 64.6336C73.9239 64.6284 73.9514 64.6227 73.9785 64.6165C73.985 64.6152 73.9916 64.6139 73.9981 64.6121C74.0165 64.6077 74.0344 64.6038 74.0523 64.5994C74.068 64.5958 74.0841 64.5919 74.0998 64.5875C74.1269 64.5805 74.1535 64.5734 74.1806 64.566C74.2076 64.5585 74.2342 64.5506 74.2609 64.5427C74.2679 64.5409 74.2744 64.5387 74.2809 64.5365C74.3049 64.5295 74.329 64.5216 74.3525 64.5137C74.3591 64.5119 74.3652 64.5102 74.3717 64.5075C74.3997 64.4983 74.428 64.4886 74.456 64.4785C74.4861 64.468 74.5157 64.4566 74.5459 64.4451C74.5707 64.4355 74.5961 64.4254 74.6209 64.4153C74.6288 64.4122 74.6366 64.4091 74.6445 64.4056C74.6698 64.3951 74.6951 64.3841 74.7204 64.3731C74.7217 64.3731 74.7226 64.3722 74.7235 64.3718C74.7519 64.359 74.7802 64.3463 74.8086 64.3327C74.837 64.3195 74.8658 64.3054 74.8937 64.2914C74.919 64.2786 74.9443 64.2659 74.9692 64.2523C74.9766 64.2488 74.9836 64.2452 74.991 64.2408C75.0102 64.2307 75.029 64.2206 75.0478 64.2096C75.056 64.2053 75.0648 64.2004 75.0731 64.1956C75.0927 64.1846 75.1119 64.1736 75.1311 64.1622C75.1673 64.1407 75.2036 64.1187 75.2389 64.0963C75.2594 64.0836 75.2799 64.0699 75.3004 64.0568C75.3022 64.0554 75.3039 64.0546 75.3057 64.0532C75.3297 64.0374 75.3533 64.0212 75.3768 64.0049C75.3794 64.0031 75.3825 64.001 75.3856 63.9988C75.4087 63.9829 75.4314 63.9662 75.4541 63.95C75.4567 63.9482 75.4593 63.946 75.4619 63.9438C75.4838 63.9285 75.5051 63.9122 75.5265 63.8955C75.5322 63.8911 75.5383 63.8867 75.544 63.8823C75.5614 63.8687 75.5785 63.8551 75.5955 63.8415C75.6169 63.8243 75.6382 63.8068 75.6596 63.7887C75.6841 63.7685 75.7081 63.7479 75.7321 63.7268C75.7561 63.7057 75.7797 63.6842 75.8032 63.6626C75.8268 63.6407 75.8499 63.6187 75.8726 63.5967C75.8957 63.5743 75.9184 63.5519 75.9407 63.5291C76.0184 63.4504 76.0926 63.3683 76.1628 63.2826V60.1794H72.9389V61.7264H72.9394Z" fill="#ABABAB"/>
<path d="M19.7532 58.6227C20.4367 58.6227 21.0481 58.9474 21.4492 59.4544L22.5891 58.2084C21.8738 57.4791 20.8678 57.0256 19.7532 57.0256C17.5824 57.0256 15.8223 58.7462 15.8223 60.8687C15.8223 62.9913 17.5824 64.7118 19.7532 64.7118C20.8678 64.7118 21.8738 64.2584 22.5891 63.5291L21.4492 62.283C21.0481 62.7901 20.4367 63.1148 19.7532 63.1148C18.5482 63.1148 17.568 62.1073 17.568 60.8687C17.568 59.6302 18.5482 58.6227 19.7532 58.6227Z" fill="#ABABAB"/>
<path d="M54.2594 57.0757H52.5996V63.0576V64.6046H54.2594H57.966V63.0576H54.2594V57.0757Z" fill="#ABABAB"/>
<path d="M29.3577 60.0669H26.4293V57.0757H24.7695V64.6046H26.4293V61.6139H29.3577V64.6046H31.0179V57.0757H29.3577V60.0669Z" fill="#ABABAB"/>
<path d="M38.6295 61.5352L35.4453 57.0757H33.7852V64.6046H35.4453V60.124L38.6295 64.6046H40.2897V57.0757H38.6295V61.5352Z" fill="#ABABAB"/>
<path d="M85.0008 57.1135H83.0199L81.1821 59.9303L79.3442 57.1135H77.3633L80.352 61.6948V64.6047H82.0121V61.6948L85.0008 57.1135Z" fill="#ABABAB"/>
</svg>
