<svg width="115" height="80" viewBox="0 0 115 80" fill="none" xmlns="http://www.w3.org/2000/svg">
<g clip-path="url(#clip0_2259_50066)">
<path d="M85.8999 29.7333H113.209C114.245 29.7333 115.076 28.9027 115.076 27.8667C115.076 26.8307 114.245 26 113.209 26H85.8999C84.8639 26 84.0332 26.8307 84.0332 27.8667C84.0332 28.9027 84.8639 29.7333 85.8999 29.7333Z" fill="#ABABAB"/>
<path d="M113.209 32.0669H85.8999C84.8639 32.0669 84.0332 32.8976 84.0332 33.9336C84.0332 34.9696 84.8639 35.8002 85.8999 35.8002H113.209C114.245 35.8002 115.076 34.9696 115.076 33.9336C115.076 32.8976 114.245 32.0669 113.209 32.0669Z" fill="#ABABAB"/>
<path d="M104.407 38.1333H94.7006C93.6646 38.1333 92.834 38.964 92.834 40C92.834 41.036 93.674 41.8666 94.7006 41.8666H104.407C105.443 41.8666 106.274 41.036 106.274 40C106.274 38.964 105.443 38.1333 104.407 38.1333Z" fill="#ABABAB"/>
<path d="M104.407 44.2002H94.7006C93.6646 44.2002 92.834 45.0309 92.834 46.0669C92.834 47.1029 93.674 47.9335 94.7006 47.9335H104.407C105.443 47.9335 106.274 47.1029 106.274 46.0669C106.274 45.0309 105.443 44.2002 104.407 44.2002Z" fill="#ABABAB"/>
<path d="M104.407 50.2666H94.7006C93.6646 50.2666 92.834 51.0973 92.834 52.1333C92.834 53.1693 93.674 53.9999 94.7006 53.9999H104.407C105.443 53.9999 106.274 53.1693 106.274 52.1333C106.274 51.0973 105.443 50.2666 104.407 50.2666Z" fill="#ABABAB"/>
<path d="M42.1167 41.8666H78.0965C79.1325 41.8666 79.9632 41.036 79.9632 40C79.9632 38.964 79.1325 38.1333 78.0965 38.1333H42.1167C41.0807 38.1333 40.25 38.964 40.25 40C40.25 41.036 41.0807 41.8666 42.1167 41.8666Z" fill="#ABABAB"/>
<path d="M63.7423 44.2002H56.4624C55.4264 44.2002 54.5957 45.0309 54.5957 46.0669C54.5957 47.1029 55.4357 47.9335 56.4624 47.9335H63.7423C64.7783 47.9335 65.609 47.1029 65.609 46.0669C65.609 45.0309 64.7783 44.2002 63.7423 44.2002Z" fill="#ABABAB"/>
<path d="M79.7209 47.9335C80.7569 47.9335 81.5875 47.1029 81.5875 46.0669C81.5875 45.0309 80.7569 44.2002 79.7209 44.2002H72.4409C71.4049 44.2002 70.5742 45.0309 70.5742 46.0669C70.5742 47.1029 71.4049 47.9335 72.4409 47.9335H79.7209Z" fill="#ABABAB"/>
<path d="M47.7716 44.2002H40.4917C39.4557 44.2002 38.625 45.0309 38.625 46.0669C38.625 47.1029 39.465 47.9335 40.4917 47.9335H47.7716C48.8076 47.9335 49.6383 47.1029 49.6383 46.0669C49.6383 45.0309 48.7983 44.2002 47.7716 44.2002Z" fill="#ABABAB"/>
<path d="M46.1486 50.2666H38.8686C37.8326 50.2666 37.002 51.0973 37.002 52.1333C37.002 53.1693 37.8326 53.9999 38.8686 53.9999H46.1486C47.1846 53.9999 48.0153 53.1693 48.0153 52.1333C48.0153 51.0973 47.1846 50.2666 46.1486 50.2666Z" fill="#ABABAB"/>
<path d="M81.3459 50.2666H74.0659C73.0299 50.2666 72.1992 51.0973 72.1992 52.1333C72.1992 53.1693 73.0299 53.9999 74.0659 53.9999H81.3459C82.3819 53.9999 83.2125 53.1693 83.2125 52.1333C83.2125 51.0973 82.3819 50.2666 81.3459 50.2666Z" fill="#ABABAB"/>
<path d="M45.3667 29.7333H52.6466C53.6826 29.7333 54.5133 28.9027 54.5133 27.8667C54.5133 26.8307 53.6826 26 52.6466 26H45.3667C44.3307 26 43.5 26.8307 43.5 27.8667C43.5 28.9027 44.3307 29.7333 45.3667 29.7333Z" fill="#ABABAB"/>
<path d="M67.5581 29.7333H74.838C75.874 29.7333 76.7047 28.9027 76.7047 27.8667C76.7047 26.8307 75.874 26 74.838 26H67.5581C66.5221 26 65.6914 26.8307 65.6914 27.8667C65.6914 28.9027 66.5314 29.7333 67.5581 29.7333Z" fill="#ABABAB"/>
<path d="M62.5286 50.2666H57.6753C56.6393 50.2666 55.8086 51.0973 55.8086 52.1333C55.8086 53.1693 56.6486 53.9999 57.6753 53.9999H62.5286C63.5646 53.9999 64.3952 53.1693 64.3952 52.1333C64.3952 51.0973 63.5552 50.2666 62.5286 50.2666Z" fill="#ABABAB"/>
<path d="M43.7417 35.8002H54.6616C55.6976 35.8002 56.5283 34.9696 56.5283 33.9336C56.5283 32.8976 55.6883 32.0669 54.6616 32.0669H43.7417C42.7057 32.0669 41.875 32.8976 41.875 33.9336C41.875 34.9696 42.715 35.8002 43.7417 35.8002Z" fill="#ABABAB"/>
<path d="M5.65182 47.9335H16.5718C17.6078 47.9335 18.4384 47.1029 18.4384 46.0669C18.4384 45.0309 17.6078 44.2002 16.5718 44.2002H5.65182C4.61582 44.2002 3.78516 45.0309 3.78516 46.0669C3.78516 47.1029 4.61582 47.9335 5.65182 47.9335Z" fill="#ABABAB"/>
<path d="M65.5424 35.8002H76.4624C77.4984 35.8002 78.3291 34.9696 78.3291 33.9336C78.3291 32.8976 77.4984 32.0669 76.4624 32.0669H65.5424C64.5064 32.0669 63.6758 32.8976 63.6758 33.9336C63.6758 34.9696 64.5158 35.8002 65.5424 35.8002Z" fill="#ABABAB"/>
<path d="M9.15182 29.7333H25.4851C26.5211 29.7333 27.3518 28.9027 27.3518 27.8667C27.3518 26.8307 26.5211 26 25.4851 26H9.15182C8.11582 26 7.28516 26.8307 7.28516 27.8667C7.28516 28.9027 8.11582 29.7333 9.15182 29.7333Z" fill="#ABABAB"/>
<path d="M25.4758 50.2666H9.15182C8.11582 50.2666 7.28516 51.0973 7.28516 52.1333C7.28516 53.1693 8.11582 53.9999 9.15182 53.9999H25.4758C26.5118 53.9999 27.3424 53.1693 27.3424 52.1333C27.3424 51.0973 26.5024 50.2666 25.4758 50.2666Z" fill="#ABABAB"/>
<path d="M5.64205 35.8002H12.922C13.958 35.8002 14.7887 34.9696 14.7887 33.9336C14.7887 32.8976 13.958 32.0669 12.922 32.0669H5.64205C4.60605 32.0669 3.77539 32.8976 3.77539 33.9336C3.77539 34.9696 4.60605 35.8002 5.64205 35.8002Z" fill="#ABABAB"/>
<path d="M11.298 40C11.298 38.9733 10.4674 38.1333 9.43136 38.1333H2.14205C1.10605 38.1333 0.275391 38.964 0.275391 40C0.275391 41.036 1.10605 41.8666 2.14205 41.8666H9.42203C10.458 41.8666 11.2887 41.036 11.2887 40H11.298Z" fill="#ABABAB"/>
<path d="M28.9837 44.2002H24.1303C23.0943 44.2002 22.2637 45.0309 22.2637 46.0669C22.2637 47.1029 23.1037 47.9335 24.1303 47.9335H28.9837C30.0196 47.9335 30.8503 47.1029 30.8503 46.0669C30.8503 45.0309 30.0103 44.2002 28.9837 44.2002Z" fill="#ABABAB"/>
<path d="M32.4863 38.1333H19.1303C18.0943 38.1333 17.2637 38.964 17.2637 40C17.2637 41.036 18.0943 41.8666 19.1303 41.8666H32.4863C33.5223 41.8666 34.353 41.036 34.353 40C34.353 38.964 33.5223 38.1333 32.4863 38.1333Z" fill="#ABABAB"/>
</g>
<defs>
<clipPath id="clip0_2259_50066">
<rect width="115" height="80" fill="white"/>
</clipPath>
</defs>
</svg>
