<svg width="258" height="80" viewBox="0 0 258 80" fill="none" xmlns="http://www.w3.org/2000/svg">
<path d="M25.5151 50.002C22.9877 50.002 21.5787 47.6096 21.5787 43.2809C21.5787 38.9523 22.9877 36.5599 25.5151 36.5599C28.0424 36.5599 29.4515 38.921 29.4515 43.2809C29.4515 47.6409 28.0424 50.002 25.5151 50.002ZM25.5151 34.7577C20.3664 34.7577 17.5125 38.5945 17.5125 43.2809C17.5125 47.9674 20.3664 51.8041 25.5151 51.8041C30.6637 51.8041 33.5176 47.9674 33.5176 43.2809C33.5176 38.5945 30.6637 34.7577 25.5151 34.7577ZM61.2961 34.7577C58.8671 34.7577 57.5252 35.8086 56.7692 37.1501H56.5724V35.0842H52.7031V51.4777H56.5724V40.8885C56.5724 38.4648 57.8204 37.0518 59.8199 37.0518C61.8194 37.0518 62.6067 38.3307 62.6067 40.267V51.4777H66.476V40.2312C66.476 36.855 64.7046 34.7577 61.2961 34.7577ZM75.2658 34.7577C71.6918 34.7577 69.0034 36.2647 69.0034 39.4799C69.0034 42.2032 70.8732 43.6789 72.9711 44.2021L76.2499 45.0205C77.99 45.4453 78.7773 46.0713 78.7773 47.4486C78.7773 49.1211 77.5964 50.0736 75.5298 50.0736C73.2976 50.0736 72.1525 48.9914 71.7902 46.2726L68.3145 47.2564C68.5113 50.078 71.1371 51.8131 75.1048 51.8131C79.5333 51.8131 81.9264 49.7471 81.9264 46.4693C81.9264 43.3883 79.7927 42.1093 77.5651 41.5504L74.4159 40.7633C72.8414 40.3698 72.1525 39.6499 72.1525 38.599C72.1525 37.2888 73.2663 36.5017 74.9393 36.5017C76.9075 36.5017 78.1197 37.5839 78.2852 39.6499L81.5641 38.6661C81.1704 36.3721 78.907 34.7667 75.2658 34.7667M91.5303 50.011C89.003 50.011 87.5939 47.6186 87.5939 43.2899C87.5939 38.9612 89.003 36.5688 91.5303 36.5688C94.0577 36.5688 95.4668 38.9299 95.4668 43.2899C95.4668 47.6499 94.0577 50.011 91.5303 50.011ZM91.5303 34.7667C86.3817 34.7667 83.5278 38.6035 83.5278 43.2899C83.5278 47.9763 86.3817 51.8131 91.5303 51.8131C96.679 51.8131 99.5329 47.9763 99.5329 43.2899C99.5329 38.6035 96.679 34.7667 91.5303 34.7667ZM110.421 34.7667C107.992 34.7667 106.65 35.8176 105.894 37.1591H105.697V35.0931H101.828V51.4867H105.697V40.8975C105.697 38.4738 106.945 37.0607 108.944 37.0607C110.944 37.0607 111.731 38.3396 111.731 40.2759V51.4867H115.601V40.2401C115.601 36.864 113.829 34.7667 110.421 34.7667ZM167.91 50.011C165.383 50.011 163.974 47.6186 163.974 43.2899C163.974 38.9612 165.383 36.5688 167.91 36.5688C170.437 36.5688 171.846 38.9299 171.846 43.2899C171.846 47.6499 170.437 50.011 167.91 50.011ZM167.91 34.7667C162.761 34.7667 159.907 38.6035 159.907 43.2899C159.907 47.9763 162.761 51.8131 167.91 51.8131C173.059 51.8131 175.913 47.9763 175.913 43.2899C175.913 38.6035 173.059 34.7667 167.91 34.7667ZM203.691 34.7667C201.262 34.7667 199.92 35.8176 199.164 37.1591H198.967V35.0931H195.098V51.4867H198.967V40.8975C198.967 38.4738 200.215 37.0607 202.215 37.0607C204.214 37.0607 205.002 38.3396 205.002 40.2759V51.4867H208.871V40.2401C208.871 36.864 207.1 34.7667 203.691 34.7667ZM217.661 34.7667C214.087 34.7667 211.398 36.2737 211.398 39.4889C211.398 42.2122 213.268 43.6879 215.366 44.2111L218.645 45.0294C220.385 45.4542 221.172 46.0803 221.172 47.4576C221.172 49.13 219.991 50.0825 217.925 50.0825C215.693 50.0825 214.547 49.0003 214.185 46.2815L210.709 47.2653C210.906 50.087 213.532 51.822 217.5 51.822C221.928 51.822 224.321 49.7561 224.321 46.4783C224.321 43.3972 222.188 42.1183 219.96 41.5593L216.811 40.7723C215.236 40.3788 214.547 39.6588 214.547 38.6079C214.547 37.2977 215.661 36.5107 217.334 36.5107C219.302 36.5107 220.515 37.5929 220.68 39.6588L223.959 38.675C223.565 36.381 221.302 34.7756 217.661 34.7756M233.925 50.0199C231.398 50.0199 229.989 47.6275 229.989 43.2988C229.989 38.9702 231.398 36.5778 233.925 36.5778C236.453 36.5778 237.862 38.9389 237.862 43.2988C237.862 47.6588 236.453 50.0199 233.925 50.0199ZM233.925 34.7756C228.777 34.7756 225.923 38.6124 225.923 43.2988C225.923 47.9853 228.777 51.822 233.925 51.822C239.074 51.822 241.928 47.9853 241.928 43.2988C241.928 38.6124 239.074 34.7756 233.925 34.7756ZM252.816 34.7756C250.387 34.7756 249.045 35.8265 248.289 37.168H248.092V35.1021H244.223V51.4956H248.092V40.9064C248.092 38.4827 249.34 37.0697 251.339 37.0697C253.339 37.0697 254.126 38.3486 254.126 40.2849V51.4956H257.996V40.2491C257.996 36.8729 256.224 34.7756 252.816 34.7756ZM15.2178 28.5241H11.1517V45.4721C11.1517 48.2267 10.1005 49.8634 7.60889 49.8634C5.11733 49.8634 4.06613 48.1239 4.06613 45.1412V41.9931L0 43.0082V44.4168C0 48.7097 2.13371 51.992 7.60889 51.992C13.0841 51.992 15.2178 48.7142 15.2178 44.4168V28.5241ZM39.6816 28.5241H35.8123V51.4732H39.6816V40.8841C39.6816 38.4604 40.9297 37.0473 42.9292 37.0473C44.9287 37.0473 45.716 38.3262 45.716 40.2625V51.4732H49.5853V40.2267C49.5853 36.8505 47.8139 34.7533 44.4053 34.7533C41.9764 34.7533 40.6344 35.8041 39.8785 37.1457H39.6816V28.5241ZM157.613 28.5241H153.547V45.4721C153.547 48.2267 152.495 49.8634 150.004 49.8634C147.512 49.8634 146.461 48.1239 146.461 45.1412V41.9931L142.395 43.0082V44.4168C142.395 48.7097 144.529 51.992 150.004 51.992C155.479 51.992 157.613 48.7142 157.613 44.4168V28.5241ZM182.077 28.5241H178.207V51.4732H182.077V40.8841C182.077 38.4604 183.325 37.0473 185.324 37.0473C187.324 37.0473 188.111 38.3262 188.111 40.2625V51.4732H191.98V40.2267C191.98 36.8505 190.209 34.7533 186.8 34.7533C184.371 34.7533 183.029 35.8041 182.273 37.1457H182.077V28.5241ZM128.358 49.604C125.209 49.604 123.277 47.0462 123.277 44.3273C123.277 42.6236 124.033 41.0495 125.276 40.1641L132.688 48.2625C131.31 49.0808 129.767 49.6085 128.358 49.6085M135.573 45.575L129.145 38.4917C130.295 38.0311 131.409 37.8701 132.326 37.8701C134.983 37.8701 136.62 39.4129 136.62 42.0691C136.62 43.2496 136.294 44.4615 135.569 45.575M128.255 37.5437L126.846 35.9696C125.598 34.5923 125.24 33.7382 125.24 32.7231C125.24 30.8226 126.453 29.7404 128.354 29.7404C130.255 29.7404 131.436 30.8539 131.436 32.8885C131.436 34.7577 130.519 36.5286 128.255 37.5437ZM128.452 28.0054C123.925 28.0054 121.698 30.5319 121.698 33.6756C121.698 35.3793 122.418 37.0875 124.323 39.149L124.355 39.2161C121.143 40.7589 119.667 43.2496 119.667 45.8075C119.667 49.1837 122.257 52.0054 126.26 52.0054C128.555 52.0054 131.243 51.0529 133.672 49.3491L135.64 51.4822H140.789V51.3167L136.593 46.6929C138.365 44.5956 139.38 42.3016 139.38 40.2983C139.38 37.8075 137.707 36.1351 135.086 36.1351C133.708 36.1351 132.165 36.5286 131.149 36.9221L131.082 36.7924C133.574 35.4464 134.625 34.2032 134.625 32.4637C134.625 29.973 132.393 28.0054 128.461 28.0054" fill="#ABABAB"/>
</svg>
