<svg width="166" height="80" viewBox="0 0 166 80" fill="none" xmlns="http://www.w3.org/2000/svg">
<g clip-path="url(#clip0_2259_50020)">
<path d="M166.444 53.2235C164.76 53.2287 163.074 53.2235 161.389 53.2469C161.034 53.252 160.861 53.1146 160.698 52.8113C158.908 49.5109 157.078 46.2313 155.32 42.914C154.931 42.1803 154.495 41.8588 153.669 41.9638C153.116 42.0338 152.545 42.0079 151.986 41.969C151.446 41.9301 151.284 42.1259 151.288 42.6638C151.309 45.9033 151.298 49.1428 151.298 52.3822C151.298 52.6363 151.298 52.8891 151.298 53.1911H146.672V26.766C146.798 26.7414 146.902 26.7051 147.004 26.7051C150.633 26.7336 154.264 26.6921 157.888 26.8282C159.984 26.906 162.021 27.4686 163.579 28.9931C164.253 29.6529 164.848 30.4903 165.203 31.3601C166.109 33.5755 166.022 37.4773 163.576 39.7199C162.622 40.5937 161.497 41.0901 160.259 41.3818C160.075 41.4246 159.889 41.4622 159.605 41.5244C159.846 41.9457 160.049 42.3138 160.263 42.6729C162.18 45.8774 164.096 49.0805 166.02 52.2811C166.139 52.4794 166.301 52.6506 166.444 52.8346V53.2235ZM151.297 38.0607C153.556 37.9479 155.722 37.9725 157.849 37.6951C159.874 37.4307 160.783 36.2031 160.785 34.2949C160.787 32.4464 159.845 31.3549 157.863 30.9219C157.59 30.8623 157.311 30.804 157.032 30.7975C155.285 30.7586 153.537 30.7431 151.79 30.699C151.303 30.686 151.292 30.9647 151.293 31.3212C151.3 33.1334 151.296 34.947 151.296 36.7592C151.296 37.1222 151.296 37.4851 151.296 38.0607H151.297Z" fill="#ABABAB"/>
<path d="M130.133 54C129.149 53.768 128.135 53.6241 127.188 53.287C123.025 51.8079 120.196 49.0611 119.354 44.6031C118.836 41.8601 119.636 39.3505 121.014 36.9912C122.375 34.6631 124.183 32.6862 125.961 30.6847C127.007 29.5077 128.006 28.2878 129.061 27.1186C129.261 26.8969 129.619 26.7141 129.914 26.6999C130.926 26.6493 131.943 26.6649 132.958 26.6921C133.189 26.6986 133.49 26.7893 133.632 26.9527C135.877 29.5479 138.149 32.121 140.315 34.781C141.853 36.6697 143.051 38.7853 143.452 41.2353C144.1 45.2072 142.718 48.4492 139.717 51.034C137.851 52.6402 135.647 53.5268 133.216 53.8652C133.05 53.8885 132.889 53.9546 132.726 54C131.862 54 130.997 54 130.133 54ZM131.431 31.2058C131.005 31.6777 130.646 32.0743 130.29 32.4736C128.353 34.6488 126.298 36.7268 124.782 39.2455C122.945 42.2983 123.269 45.2681 125.751 47.5133C127.108 48.7422 128.747 49.3761 130.561 49.542C132.8 49.7455 134.857 49.2244 136.662 47.8659C139.452 45.7672 139.985 42.4927 138.101 39.3297C136.305 36.3132 133.746 33.9319 131.432 31.2058H131.431Z" fill="#ABABAB"/>
<path d="M109.909 26C110.976 26.2554 112.064 26.4459 113.105 26.7817C115.045 27.4078 116.581 28.6393 117.92 30.2104C116.699 31.1087 115.52 31.976 114.347 32.8393C113.67 32.2987 113.072 31.6817 112.354 31.2759C109.653 29.7476 106.881 29.9187 104.255 31.3758C100.777 33.3047 99.4376 36.4975 99.5752 40.3384C99.6855 43.4366 100.808 46.1095 103.387 48.006C106.386 50.2097 111.303 50.6388 114.376 46.794C114.456 46.6942 114.547 46.6034 114.67 46.4673C115.82 47.4979 116.956 48.5155 118.138 49.5745C117.205 50.797 116.146 51.8171 114.791 52.4899C111.461 54.1427 107.981 54.3086 104.44 53.374C98.912 51.9144 95.2551 47.4797 94.7295 41.7423C94.4154 38.3097 94.9436 35.0547 96.7941 32.1069C99.0366 28.5356 102.385 26.7052 106.497 26.1465C106.73 26.1154 106.957 26.0493 107.186 26C108.093 26 109.002 26 109.909 26Z" fill="#ABABAB"/>
<path d="M28.28 53.2114H23.8652V31.449C23.8133 31.4374 23.7614 31.4244 23.7094 31.4127C23.6368 31.5722 23.5524 31.7264 23.4927 31.8911C21.0232 38.6617 18.5549 45.4335 16.0866 52.2054C15.7103 53.2386 15.7077 53.2489 14.602 53.2347C13.8753 53.2256 12.9786 53.4278 12.4698 53.0791C11.9871 52.7473 11.8988 51.8282 11.6549 51.1606C9.29042 44.6947 6.93115 38.2287 4.56929 31.7627C4.52647 31.6461 4.47066 31.5346 4.42135 31.4205C4.36425 31.4231 4.30845 31.4257 4.25135 31.4283C4.25135 31.6655 4.25135 31.9027 4.25135 32.14C4.25135 38.8794 4.25135 45.6189 4.25135 52.3584C4.25135 52.9443 3.96152 53.2377 3.38187 53.2386C2.26583 53.2386 1.14849 53.2386 0 53.2386V26.737C0.207636 26.7253 0.41657 26.702 0.624206 26.702C2.52537 26.6994 4.42784 26.7188 6.32901 26.6877C6.83512 26.6799 7.03367 26.8757 7.20238 27.3216C9.38385 33.0953 11.5861 38.8626 13.7831 44.6298C13.8441 44.7893 13.9129 44.9461 14.044 45.2611C14.2192 44.858 14.3515 44.5832 14.4606 44.3006C16.6459 38.6215 18.8326 32.9411 21.0024 27.2568C21.1542 26.8588 21.3281 26.6825 21.7849 26.689C23.751 26.7162 25.717 26.7124 27.6831 26.6929C28.1386 26.689 28.3293 26.7849 28.3281 27.2957C28.3125 35.7631 28.3177 44.2306 28.3164 52.698C28.3164 52.8445 28.2969 52.9923 28.2813 53.2114H28.28Z" fill="#ABABAB"/>
<path d="M74.3443 41.6066C76.6452 45.4462 78.9383 49.2703 81.3144 53.2331C80.5747 53.2331 79.9829 53.2331 79.3912 53.2331C78.2894 53.2331 77.1863 53.2538 76.0859 53.2149C75.8653 53.2072 75.5577 53.0257 75.4526 52.8351C73.5826 49.4544 71.7281 46.0658 69.8996 42.663C69.6323 42.1653 69.352 41.9086 68.7563 41.9579C68.0698 42.0149 67.3729 41.998 66.6839 41.963C66.1738 41.9371 66.0207 42.1173 66.0246 42.6267C66.0454 45.8662 66.035 49.1057 66.035 52.3451C66.035 52.6005 66.035 52.8572 66.035 53.1838C65.7573 53.2033 65.5302 53.2305 65.3044 53.2318C64.2454 53.237 63.1852 53.1955 62.1288 53.2486C61.48 53.2811 61.3152 53.0464 61.3476 52.4385C61.3943 51.5557 61.3593 50.6677 61.3593 49.7823C61.3593 42.396 61.3593 35.0097 61.3593 27.6233C61.3593 26.6952 61.3593 26.6887 62.256 26.6952C65.6677 26.7224 69.0821 26.7069 72.4925 26.8145C73.5527 26.8482 74.6389 27.11 75.6498 27.4535C79.0097 28.5943 80.65 31.1843 80.419 34.7297C80.249 37.3443 79.2536 39.4599 76.8515 40.7043C76.0989 41.0945 75.2463 41.289 74.3456 41.6053L74.3443 41.6066ZM66.1505 30.6865C66.0843 30.846 66.0532 30.8861 66.0532 30.925C66.0454 33.1249 66.048 35.3234 66.0311 37.5232C66.0285 37.9406 66.266 37.9575 66.5722 37.9549C67.6078 37.9484 68.6473 38.0067 69.6777 37.9367C70.8963 37.8538 72.1408 37.7902 73.3139 37.4856C74.8089 37.0967 75.5032 35.9326 75.5071 34.2954C75.511 32.6686 74.8362 31.6484 73.3334 31.1532C70.9793 30.3767 68.55 30.8226 66.1505 30.6878V30.6865Z" fill="#ABABAB"/>
<path d="M58.3078 53.2377C56.9712 53.2377 55.7176 53.1521 54.4822 53.2623C53.344 53.3634 52.738 53.0368 52.3837 51.8934C51.9386 50.4558 51.2599 49.0921 50.7149 47.683C50.5565 47.2734 50.3359 47.1412 49.9012 47.1438C46.4453 47.1606 42.9882 47.1619 39.5311 47.1438C39.0833 47.1412 38.8887 47.3045 38.7356 47.7051C38.088 49.398 37.4184 51.0819 36.7293 52.758C36.6488 52.9525 36.4048 53.2118 36.2309 53.2156C34.636 53.2506 33.0385 53.2364 31.332 53.2364C31.5578 52.6919 31.7447 52.224 31.9446 51.7625C35.4692 43.6476 39.0003 35.5341 42.5119 27.4141C42.739 26.8891 42.9934 26.6428 43.6033 26.6829C44.5286 26.7452 45.4604 26.7128 46.3895 26.6933C46.7607 26.6855 46.9774 26.7944 47.1318 27.1548C50.1205 34.138 53.1195 41.116 56.1186 48.094C56.7402 49.5406 57.3709 50.9847 57.9938 52.4314C58.0937 52.6634 58.1781 52.9019 58.3091 53.239L58.3078 53.2377ZM48.8409 43.0993C47.4757 39.4917 46.1482 35.9865 44.8219 32.48C44.7661 32.4865 44.7103 32.493 44.6545 32.4994C43.3048 36.0098 41.9552 39.5202 40.5796 43.098H48.8409V43.0993Z" fill="#ABABAB"/>
<path d="M131.438 36.4364V46.3427C133.459 46.3427 135.694 45.2564 135.694 42.9568C135.694 39.7354 131.438 36.4351 131.438 36.4351V36.4364Z" fill="#ABABAB"/>
</g>
<defs>
<clipPath id="clip0_2259_50020">
<rect width="166" height="80" fill="white"/>
</clipPath>
</defs>
</svg>
