<svg width="171" height="80" viewBox="0 0 171 80" fill="none" xmlns="http://www.w3.org/2000/svg">
<path d="M44.8389 42.2034C44.6002 39.2246 43.0513 37.4767 39.9135 37.4767C37.0143 37.4767 35.2285 39.3041 34.9103 42.2034H44.8389ZM49.5258 43.3149C49.5258 44.2693 49.4463 45.2617 49.287 46.0552H34.9896C35.5048 48.4392 37.531 49.9087 41.343 49.9087C41.3635 49.9087 41.3789 49.9069 41.3943 49.9069C41.4097 49.9069 41.4199 49.9051 41.4353 49.9051C41.6756 49.9051 41.9107 49.8948 42.1438 49.8846C42.2683 49.8795 42.3948 49.8692 42.5199 49.8589C42.6193 49.8487 42.7172 49.8384 42.8145 49.8333C44.4015 49.6724 45.9107 49.2459 47.2953 48.597C47.4039 48.5447 47.5155 48.494 47.6206 48.4397C47.9008 48.2988 48.1755 48.143 48.4448 47.9842H48.5658V52.0042C46.4727 53.2713 44.0199 53.9997 41.3955 53.9997V53.9894C41.2997 53.9912 41.2059 53.9997 41.108 53.9997C33.9178 53.9997 29.9864 49.9093 29.9864 43.9518C29.9864 37.5568 34.0371 33.3471 39.915 33.3471C45.793 33.3471 49.5258 37.5165 49.5258 43.3149ZM0 53.6021H4.88569L5.79845 36.4849L5.99726 31.8379H6.07669L7.11059 36.4849L11.0816 53.6021H17.1982L21.2091 36.4849L22.2014 31.8379H22.2808L22.4796 36.4849L23.434 53.6021H28.5167L26.8484 26.1984H18.7471L15.0923 42.6413L14.2988 46.8112H14.2194L13.3844 42.6413L9.73135 26.1984H1.62834L0 53.6021ZM84.0814 53.9995C79.5139 53.9995 76.931 51.8938 76.931 47.1292V37.7555H71.4506V47.7238C71.4506 49.1933 72.0073 49.79 73.1985 49.79C73.4767 49.79 73.7931 49.79 74.1509 49.7106H74.2703V53.6021C73.7933 53.7214 72.8406 53.8408 72.1266 53.8408C69.4262 53.8408 67.7561 52.8088 67.0422 50.544C65.6124 52.769 63.3494 53.9998 60.5297 53.9998C55.485 53.9998 51.3946 50.0686 51.3946 43.6339C51.3946 37.2787 55.485 33.3474 60.5297 33.3474C63.0295 33.3474 65.0972 34.2999 66.5252 36.0477V26.1987H71.4506V33.745H76.931V29.0184H81.8565V33.745H87.1398V37.7558H81.8565V46.8909C81.8565 48.8755 82.8487 49.83 84.7574 49.83C85.6305 49.83 86.2252 49.7505 87.0205 49.5517H87.1398V53.6024C86.1855 53.8411 85.034 53.9995 84.0814 53.9995ZM61.5619 49.83C64.8985 49.83 66.7638 47.2489 66.7638 43.6339C66.7638 40.0586 64.8985 37.4777 61.5619 37.4777C58.1854 37.4777 56.4375 40.0586 56.4375 43.6339C56.4375 47.2489 58.1854 49.83 61.5619 49.83ZM94.2487 43.1966C94.2487 39.9792 95.917 38.1916 99.0946 38.1916C99.6495 38.1916 100.246 38.2709 100.801 38.4318H100.88V33.8227C100.365 33.6255 99.6892 33.5066 98.9337 33.5066C96.5514 33.5066 94.9626 34.9761 94.0497 37.3584V33.7452H89.3232V53.6025H94.2486L94.2487 43.1966ZM111.407 54C105.171 54 100.96 49.4722 100.96 43.6738C100.96 37.8753 105.171 33.3474 111.407 33.3474C117.602 33.3474 121.813 37.8753 121.813 43.6738C121.813 49.4722 117.602 54 111.407 54ZM111.407 49.7506C114.941 49.7506 116.768 47.1695 116.768 43.6738C116.768 40.1781 114.941 37.597 111.407 37.597C107.951 37.597 106.005 40.1781 106.005 43.6738C106.005 47.1695 107.951 49.7506 111.407 49.7506ZM129.37 42.5223C129.37 39.464 130.919 37.4777 133.779 37.4777C136.599 37.4777 137.911 39.3448 137.911 42.5223V53.6024H142.834V42.3234C142.834 37.5571 140.373 33.3474 135.011 33.3474C132.152 33.3474 130.245 34.7773 129.172 36.9227V33.7452H124.445V53.6024H129.37V42.5223ZM151.532 28.8992C151.532 30.488 150.261 31.8382 148.595 31.8382C147.006 31.8382 145.694 30.488 145.694 28.8992C145.694 27.3105 147.006 26 148.595 26C150.261 26 151.532 27.3105 151.532 28.8992ZM154.274 53.6024C153.519 53.7612 152.646 53.8805 151.85 53.8805C148.078 53.8805 146.052 51.8942 146.052 48.2412V33.745H151.017V47.8833C151.017 49.1937 151.651 49.83 153.003 49.83C153.32 49.83 153.717 49.7889 154.155 49.7106H154.274V53.6024ZM154.75 43.6738C154.75 37.8753 158.959 33.3474 165.235 33.3474C167.023 33.3474 169.049 33.785 170.558 34.6181V38.9869H170.439C168.89 38.074 167.341 37.6367 165.593 37.6367C161.819 37.6367 159.794 40.2178 159.794 43.6738C159.794 47.1297 161.819 49.7109 165.593 49.7109C167.341 49.7109 168.89 49.2732 170.439 48.3605H170.558V52.7293C169.049 53.5644 167.023 54 165.235 54C158.959 54 154.75 49.4722 154.75 43.6738Z" fill="#ABABAB"/>
</svg>
