<svg width="66" height="80" viewBox="0 0 66 80" fill="none" xmlns="http://www.w3.org/2000/svg">
<g clip-path="url(#clip0_2259_50030)">
<path d="M46.3234 30.6053V49.3947H43.094V40.898H34.6559V49.3947H31.3397V30.6053H34.5517V38.0658H43.0072V30.6053H46.3234ZM28.0061 49.3947H24.7767V30.6053H28.0061V49.3947ZM21.5473 49.3947H18.1269L9.68875 35.6135H9.60193V49.3947H6.4767V30.6053H9.87973L18.422 44.3865H18.5262V30.6053H21.6514V49.3947H21.5473ZM57.8 39.9482L46.3234 19H3.80289C1.68468 19.0173 -0.0168349 20.727 0.000527465 22.8339C0.000527465 22.8512 0.000527465 22.8512 0.000527465 22.8684V57.1316C-0.0341973 59.2385 1.64996 60.9655 3.76817 61C3.78553 61 3.78553 61 3.80289 61H46.2366L57.8 39.9482Z" fill="#ABABAB"/>
<path d="M49.1758 60.9137L60.7565 39.9482L49.1758 19H52.0232C53.6379 19 55.5304 20.1398 56.2944 21.5559L66.4514 39.9655L56.2944 58.375C55.5304 59.7911 53.6379 60.9309 52.0232 60.9309L49.1758 60.9137Z" fill="#ABABAB"/>
</g>
<defs>
<clipPath id="clip0_2259_50030">
<rect width="66" height="80" fill="white"/>
</clipPath>
</defs>
</svg>
