<svg width="106" height="80" viewBox="0 0 106 80" fill="none" xmlns="http://www.w3.org/2000/svg">
<g clip-path="url(#clip0_2259_50132)">
<path d="M82.1885 64.6709C82.5066 64.6709 82.6152 64.7186 82.6152 65.1016V78.502C82.6151 79.2074 80.3925 79.9994 78.7881 80.0039C75.5357 80.0039 73.381 78.084 73.3809 74.1953C73.3809 71.5693 75.0903 68.4337 78.3994 68.4336C79.2147 68.4205 80.0217 68.6203 80.7324 69.0166V65.1455C80.7324 64.8015 80.7802 64.6709 81.1377 64.6709H82.1885ZM92.7705 68.4287C94.2438 68.4288 95.6295 68.9036 95.6299 69.709C95.6299 70.2664 95.181 70.458 94.8584 70.458C94.2264 70.4579 93.8993 69.6438 92.6572 69.6436C91.4626 69.6436 90.8213 70.4801 90.8213 71.29C90.8213 73.6591 96.0791 73.102 96.0791 76.6904C96.079 78.9766 94.0693 79.9996 92.1553 80.0039C90.4244 80.0039 88.7109 79.2552 88.7109 78.3799C88.711 77.8225 89.1645 77.6748 89.5264 77.6748C90.25 77.6749 90.6773 78.785 92.1768 78.7852C93.6678 78.7852 94.3749 77.7835 94.375 76.9082C94.375 75.7324 93.2231 75.2663 91.9805 74.748C90.4241 74.0861 89.1211 73.2932 89.1211 71.46C89.1211 69.4741 90.826 68.4287 92.7705 68.4287ZM15.084 68.3682C16.0691 68.3682 17.0936 68.6247 17.8652 69.1602C19.0991 69.9876 19.915 71.6346 19.915 74.1953C19.9149 76.734 19.099 78.3753 17.8652 79.207C17.0979 79.7383 16.0737 80 15.084 80C14.1073 80 13.0823 79.7383 12.3105 79.207C11.0683 78.3752 10.2618 76.7337 10.2617 74.1953C10.2617 71.6347 11.0723 69.992 12.3105 69.1602C13.0779 68.6245 14.103 68.3682 15.084 68.3682ZM34.5996 68.3682C35.5848 68.3682 36.6097 68.6246 37.377 69.1602C38.6195 69.9876 39.4297 71.6347 39.4297 74.1953C39.4296 76.7336 38.6192 78.3752 37.377 79.207C36.6097 79.7383 35.5892 79.9999 34.5996 80C33.6187 80 32.594 79.7383 31.8223 79.207C30.5885 78.3753 29.7726 76.734 29.7725 74.1953C29.7725 71.6346 30.5884 69.9919 31.8223 69.1602C32.5896 68.6247 33.6188 68.3682 34.5996 68.3682ZM60.7676 68.3682C61.7529 68.3682 62.7781 68.6245 63.5498 69.1602C64.788 69.9876 65.6035 71.6346 65.6035 74.1953C65.6034 76.7337 64.7834 78.3752 63.5498 79.207C62.7824 79.7383 61.7529 80 60.7676 80C59.791 80 58.7668 79.7383 57.9951 79.207C56.757 78.3753 55.9454 76.734 55.9453 74.1953C55.9453 71.6346 56.7569 69.9919 57.9951 69.1602C58.7624 68.6247 59.7912 68.3682 60.7676 68.3682ZM105.31 68.625C105.584 68.625 105.693 68.6688 105.693 68.8604C105.693 69.0083 105.654 69.1565 105.575 69.2871C104.66 71.0507 103.356 72.5882 101.77 73.79L101.791 73.8115L105.846 79.1641C105.933 79.2728 105.998 79.338 105.998 79.4424C105.998 79.6601 105.789 79.6778 105.715 79.6865H104.263C103.927 79.6865 103.841 79.686 103.627 79.3682L99.8203 73.9248C99.7986 73.8988 99.7765 73.8598 99.7764 73.8164C99.7764 73.7946 99.7984 73.7334 99.8594 73.6855C101.464 72.7492 103.042 70.7807 103.64 68.9473C103.753 68.6076 103.923 68.625 104.303 68.625H105.31ZM4.28809 68.3633C8.58267 68.3633 8.60449 70.6286 8.60449 71.8828V79.251C8.60449 79.4426 8.58263 79.6342 8.35156 79.6777H7.1748C6.83476 79.6777 6.69922 79.6342 6.69922 79.251V72.1221C6.69922 71.1205 6.69961 69.5226 4.20605 69.5225C2.71494 69.5225 1.90332 70.0055 1.90332 70.502V79.251C1.90331 79.6385 1.75102 79.6777 1.4502 79.6777H0.40332C0.10284 79.6777 -0.00195312 79.6381 -0.00195312 79.2725V69.7529C-0.00195312 69.3871 0.229476 69.1087 0.953125 68.8779C1.55475 68.682 2.66641 68.3633 4.28809 68.3633ZM21.8633 68.6201C22.1816 68.6201 22.2254 68.6644 22.3301 68.9648L25.2207 77.0518L27.998 68.9209C28.0634 68.7033 28.1033 68.6375 28.2559 68.6201H29.3193C29.4283 68.6201 29.5984 68.6207 29.5986 68.8379C29.5986 68.8771 29.5983 68.921 29.5068 69.1777L25.7705 79.3594C25.6659 79.6599 25.6215 79.6777 25.3643 79.6777H24.5273C24.3619 79.6603 24.3179 79.5947 24.209 79.3379L20.3418 69.1777C20.2983 69.0821 20.2675 68.9822 20.2588 68.8779C20.2588 68.6214 20.4721 68.6201 20.5596 68.6201H21.8633ZM49.9766 68.3633C54.2668 68.3633 54.2891 70.6286 54.2891 71.8828V79.251C54.2891 79.4425 54.2671 79.6341 54.0361 79.6777H52.8584C52.5143 79.6777 52.3877 79.634 52.3877 79.251V72.1221C52.3877 71.1204 52.3875 69.5225 49.8936 69.5225C48.3896 69.5226 47.583 70.0055 47.583 70.502V79.251C47.583 79.6385 47.4303 79.6777 47.1338 79.6777H46.0879C45.7871 79.6777 45.6777 79.6383 45.6777 79.2725V69.7529C45.6777 69.3871 45.9178 69.1087 46.6416 68.8779C47.2389 68.682 48.3505 68.3633 49.9766 68.3633ZM86.6143 68.6201C86.9539 68.6202 87.041 68.686 87.041 69.0254V79.2949C87.0409 79.6602 86.9321 79.6777 86.6143 79.6777H85.458C85.1403 79.6777 85.1396 79.5906 85.1396 79.2949V69.0254C85.1396 68.7468 85.1402 68.6201 85.502 68.6201H86.6143ZM99.0703 64.6055C99.3275 64.6055 99.4756 64.6053 99.4756 64.9102V79.3594C99.4756 79.6773 99.3711 79.6777 99.0703 79.6777H97.9414C97.6406 79.6777 97.5752 79.6384 97.5752 79.3379V64.9492C97.5752 64.6489 97.706 64.6055 97.9414 64.6055H99.0703ZM70.4385 68.3633C71.9121 68.3633 73.2158 68.7038 73.2158 69.4746C73.2156 70.0927 72.81 70.4365 72.3262 70.4365C71.5937 70.4365 71.3844 69.4308 70.0156 69.4307C69.3749 69.4307 68.926 69.8136 68.9258 70.3926V79.3115C68.9258 79.6556 68.7943 79.6738 68.5371 79.6738H67.4473C67.1465 79.6738 67.0156 79.6555 67.0156 79.3115V69.5791C67.0156 69.2176 67.2729 68.8991 68.001 68.7031C68.5591 68.5551 69.2831 68.3633 70.4385 68.3633ZM15.084 69.6045C14.3429 69.6045 13.8064 69.7571 13.2266 70.3057C12.6336 70.8674 12.2285 72.1659 12.2285 74.1953C12.2286 76.2027 12.6293 77.5002 13.2266 78.0576C13.8064 78.615 14.3428 78.7637 15.084 78.7637C15.8338 78.7637 16.3655 78.6149 16.9453 78.0576C17.5426 77.5002 17.9482 76.2027 17.9482 74.1953C17.9482 72.1616 17.5426 70.8674 16.9453 70.3057C16.3656 69.7528 15.8337 69.6045 15.084 69.6045ZM34.5996 69.6045C33.8541 69.6045 33.3172 69.757 32.7373 70.3057C32.14 70.8674 31.7344 72.1659 31.7344 74.1953C31.7344 76.2026 32.1401 77.5002 32.7373 78.0576C33.3172 78.615 33.8541 78.7637 34.5996 78.7637C35.3493 78.7636 35.8812 78.6149 36.4609 78.0576C37.0625 77.5002 37.4677 76.2026 37.4678 74.1953C37.4678 72.1616 37.0626 70.8674 36.4609 70.3057C35.8812 69.7528 35.3492 69.6046 34.5996 69.6045ZM60.7637 69.6045C60.0225 69.6045 59.4813 69.7569 58.9102 70.3057C58.3085 70.8675 57.9033 72.1659 57.9033 74.1953C57.9034 76.2025 58.3086 77.5001 58.9102 78.0576C59.4813 78.615 60.0181 78.7637 60.7637 78.7637C61.5135 78.7636 62.0452 78.615 62.625 78.0576C63.2223 77.5002 63.6279 76.2027 63.6279 74.1953C63.6279 72.1616 63.2223 70.8674 62.625 70.3057C62.0453 69.7528 61.5134 69.6045 60.7637 69.6045ZM78.6826 69.7314C76.7165 69.7317 75.3086 71.4602 75.3086 74.0469C75.3086 77.0082 76.7825 78.7373 78.8535 78.7373C79.8385 78.7372 80.736 78.4409 80.7363 77.8838V70.415C80.3265 70.071 79.7988 69.7314 78.6826 69.7314ZM86.1211 64.4746C86.7271 64.4615 87.2325 64.9406 87.25 65.5459C87.25 65.5764 87.2544 65.6028 87.25 65.6289C87.2325 66.2472 86.7141 66.7351 86.0908 66.7178C85.3714 66.7178 84.9395 66.2079 84.9395 65.6113C84.9395 64.9494 85.4366 64.4746 86.1211 64.4746ZM24.127 12.2197C24.127 10.7134 24.6583 10.7915 25.0332 11.8145C25.4082 12.8422 27.0084 17.3192 31.7998 18.5996C36.2772 19.7928 39.2335 18.4956 40.8555 17.3154C41.3743 16.9714 41.7541 16.6665 41.959 16.501C42.9487 15.6953 43.2883 16.1567 42.3945 17.6025C41.2261 19.4925 39.3514 20.682 37.1104 21.7969C36.6613 22.0233 36.1387 22.2316 37.1631 22.7148C38.0264 23.1199 40.1452 23.9828 42.0156 24.5098C43.0932 24.8148 50.3741 27.3494 57.3018 27.3232C62.3288 27.3058 66.8369 26.6562 69.4268 26.4385C71.3713 26.2773 75.6006 25.903 77.7021 29.6787C79.4592 32.8317 79.0881 42.6918 79.1797 44.9346C79.2451 46.5565 79.1801 59.7152 79.167 60.8691C79.1583 61.6484 79.1015 62.2402 78.5176 62.3057C77.9859 62.3623 76.4695 62.3408 76.1895 62.3408C76.0282 62.3408 75.457 62.3281 74.9688 62.3281C74.1144 62.3281 74.1309 62.7281 74.1309 62.959C74.1309 63.4467 74.3143 63.991 73.2158 64.0303C72.4574 64.052 70.0254 64.0303 69.7061 64.0303C69.1742 64.0303 68.8822 63.3776 69.3486 62.5371C73.8176 54.4761 73.4942 48.3394 70.8564 44.9121C70.6734 45.5435 70.5077 46.0618 70.377 46.7715C70.0326 48.6395 69.649 49.4629 69.2393 49.7939C64.548 53.5826 62.2941 59.1876 61.2041 62.1055C60.973 62.7152 60.5233 62.4892 60.3184 62.7549C59.9791 63.1905 60.7063 63.9828 59.3203 64.0264C58.7622 64.0438 56.0543 64.0347 55.5137 64.0391C54.8774 64.0431 54.5202 63.2597 55.1562 62.4805C56.5994 60.7211 64.8141 52.9646 64.4043 44.8906C64.3869 44.5467 64.1557 42.832 63.8115 42.5088C63.7374 42.4348 62.3677 41.2502 59.4072 43.6846C59.0719 43.9629 59.028 43.8585 58.6055 43.6191C58.1477 43.3622 54.5633 42.073 51.9473 42.8525C50.2862 43.3448 48.3336 45.3964 49.0791 48.6406C50.1299 53.2261 52.4794 57.159 53.3906 61.7881C53.5038 62.6194 52.9238 62.4102 52.6797 62.7236C52.344 63.1591 53.0592 64.0262 51.6123 64.0264C51.1617 64.0307 48.002 64.0264 47.9629 64.0264C47.2827 64.0525 46.9162 63.7473 47.3652 62.3232C47.5004 61.9008 47.6273 61.2041 47.793 59.7236C47.9456 58.3562 47.7924 56.9277 47.5352 55.3252C46.6893 50.0775 43.8337 47.499 41.4531 45.9443C39.8443 46.9677 37.2456 54.8725 36.5088 60.1855C36.4434 60.6122 36.3913 61.0392 36.3564 61.4658C36.2561 62.7934 35.4627 62.3192 35.2402 62.6934C34.9307 63.216 35.5496 64.0352 34.1064 64.0352C32.3843 64.0352 31.4595 64.0439 30.666 64.0352C29.9688 64.0261 29.8598 63.2638 30.3828 62.332C32.5671 58.4126 36.0034 52.355 35.9424 45.8184C35.938 45.0606 35.9419 42.8129 34.8955 41.5674C32.5501 38.7673 31.2336 35.4012 30.0303 33.2412C29.1976 31.752 27.981 31.4079 27.1787 31.1553C26.3765 30.9071 25.692 31.2593 24.7939 30.75C24.5454 30.6106 23.8956 29.744 23.2939 29.082C22.7925 28.5333 22.4305 27.7364 23.0234 26.9873C24.0653 25.6767 24.9247 24.8189 25.0469 23.9785C25.0774 23.7782 25.0382 23.3512 25.1123 23.1465C25.3565 22.4889 26.2415 21.4303 26.8867 20.6465C27.1959 20.2719 26.9344 19.6228 26.3721 18.9697C25.8139 18.3164 24.127 16.0127 24.127 12.2197ZM41.9033 26.4434C39.1045 25.542 39.2522 25.5683 37.8047 27.7021C36.9197 29.0087 35.7557 31.3954 35.1934 32.915C34.0558 35.989 35.0665 37.9835 35.8076 39.2812C36.2654 40.0956 37.5351 41.3111 38.9912 42.1777C41.6112 43.7148 44.1268 45.4175 46.5332 47.2725C47.1697 47.7558 47.5539 47.8864 47.5801 46.5234C47.6631 41.9218 52.1429 40.6542 52.6768 40.4795C54.4556 39.8785 57.8219 39.4781 63.7861 40.0137C66.1796 40.2053 68.4863 40.9846 70.5049 42.2822C71.0893 42.6525 72.9417 44.08 73.7178 40.5098C73.914 39.6475 74.2764 37.7788 74.3418 36.9121C74.3901 36.217 75.4961 28.0979 71.1064 28.124C70.4485 28.1285 70.4966 28.386 70.6709 28.6777C70.928 29.1348 71.1192 29.627 71.2412 30.1406C71.7251 32.0958 71.3373 33.1451 70.6572 33.8027C69.9596 34.4775 68.5868 34.5431 68.3252 33.5547C67.5012 30.5019 66.4194 28.002 64.0127 28.3242C63.516 28.394 63.4722 28.8039 63.7119 29.4004C63.9299 29.9317 64.2479 31.3641 64.3525 32.5049C64.4877 34.0465 63.803 34.7699 62.7305 35.4014C60.9033 36.4812 56.4523 37.1779 53.2568 36.3027C51.3216 35.7758 51.2598 34.313 51.2598 33.751C51.2598 33.1894 51.295 31.1302 51.2471 30.6025C51.1076 29.1567 50.9369 28.359 49.9951 28.2676C48.7315 28.1501 49.2147 28.4034 49.1318 29.6748C49.1312 29.7262 49.0349 35.1436 45.1074 35.0352C44.1446 35.0173 43.6391 34.1298 43.8174 33.3506C44.1531 31.8657 44.358 30.4021 44.3145 28.791C44.2796 27.5586 44.4102 27.2533 41.9033 26.4434ZM76.5332 32.8145C76.2063 31.9131 75.8141 31.8563 75.7529 32.5049C75.7311 32.7531 75.8188 34.2776 75.5615 36.9385C75.3959 38.5888 74.9768 39.856 75.2295 41.1318C75.478 42.4078 76.1454 46.484 76.4463 46.8633C76.7122 47.1855 77.0956 46.9503 77.0869 46.6367C77.0871 46.4044 77.4965 35.5225 76.5332 32.8145ZM53.3652 28.4902C52.0668 28.4295 52.2054 28.9996 52.3057 29.7832C52.5062 31.3334 52.4673 33.0538 52.4629 33.5068C52.4499 34.8304 53.514 35.0838 54.1768 35.2754C55.9557 35.7978 59.5437 35.649 62.0156 34.4951C63.9425 33.5937 62.7744 30.3634 62.4473 29.5791C62.1116 28.7692 61.4491 28.4594 60.416 28.5508C59.8447 28.603 58.336 28.6383 57.0371 28.6514C55.9691 28.6644 55.1134 28.573 53.3652 28.4902ZM33.4404 22.5322C30.6634 20.9123 29.2549 20.059 28.2129 20.8994C27.123 21.7791 26.2947 22.977 26.1465 23.3994C25.9941 23.8221 26.0633 24.8368 25.6885 25.2939C25.4138 25.6337 25.0038 26.2866 24.4287 26.9873C23.6355 27.9539 24.2109 28.2634 25.0566 29.2822C25.8545 30.2359 27.6636 29.2478 29.6865 30.8457C30.7068 31.6514 31.073 32.2792 32.3984 34.3564C32.8386 35.0528 33.1089 34.6433 33.4707 33.6943C33.9808 32.3748 35.7165 28.6902 37.0332 26.6738C37.4822 25.9989 38.0971 25.1843 37.2646 24.6748C36.5234 24.2219 34.9707 23.4293 33.4404 22.5322ZM46.7158 27.6016C45.6653 27.4318 45.4996 27.4759 45.5693 28.3076C45.7828 30.8245 45.0938 32.8189 45.1025 33.2021C45.1158 33.7158 45.7526 33.8503 46.2539 33.5762C47.1605 33.075 47.8453 31.3548 47.793 28.7119C47.7799 28.0676 47.8098 27.7801 46.7158 27.6016ZM69.4668 28.5859C69.1006 28.1419 68.473 27.9458 67.7451 28.085C67.0566 28.2156 66.8687 28.3815 67.4004 28.9736C68.3944 30.0711 68.9834 31.8783 69.1055 32.6621C69.232 33.437 70.2822 33.1363 70.4131 32.4092C70.6048 31.3291 70.2646 29.5439 69.4668 28.5859ZM27.7598 24.2832C26.9315 22.8766 29.9616 22.4805 30.1055 22.916C30.2483 23.3481 28.588 25.6891 27.7598 24.2832ZM35.1709 0C39.945 0.00014796 43.8125 3.86764 43.8125 8.63184C43.8123 13.3959 39.9405 17.2625 35.1709 17.2627C30.3968 17.2671 26.5246 13.4003 26.5244 8.63184C26.5244 3.86755 30.3967 0 35.1709 0ZM35.4062 1.70312C32.189 1.76017 29.6298 4.40788 29.6865 7.61719C29.7434 10.7479 32.2719 13.2735 35.4062 13.3262C38.6194 13.3828 41.2702 10.8266 41.3271 7.61719V7.41699C41.2705 4.20306 38.6239 1.64651 35.4062 1.70312Z" fill="#ABABAB"/>
</g>
<defs>
<clipPath id="clip0_2259_50132">
<rect width="106" height="80" fill="white"/>
</clipPath>
</defs>
</svg>
