<svg width="274" height="80" viewBox="0 0 274 80" fill="none" xmlns="http://www.w3.org/2000/svg">
<path d="M11.968 30.3468C9.3953 30.3468 5.07974 31.488 5.07974 39.1269C5.07974 45.2887 8.62426 49.5954 13.697 49.5954C15.6464 49.5954 20.1886 48.7122 20.1886 40.5417C20.1886 34.5401 16.807 30.3468 11.968 30.3468ZM12.5047 51.1658C4.60991 51.1658 1.01172 45.3799 1.01172 40.0012C1.01172 34.6224 4.69643 28.8342 12.7876 28.8342C19.8943 28.8342 24.3053 32.9184 24.3053 39.4917C24.3053 42.7194 23.1755 45.6581 21.1194 47.7735C18.9629 49.9891 15.9798 51.1658 12.5047 51.1658Z" fill="#ABABAB"/>
<path d="M33.632 33.8287C32.9639 33.8287 32.405 33.8602 32.1733 33.9132C32.0596 33.951 32.0091 33.9976 32.0091 34.1755V41.3294C32.0091 41.5583 32.0722 41.6164 32.1922 41.6832C32.7984 41.8743 33.62 41.8988 34.0564 41.8988C35.0168 41.8988 35.3528 41.8257 35.7652 41.5205C36.4895 41.011 37.347 39.9878 37.347 38.0214C37.347 34.9271 35.3452 33.8287 33.632 33.8287ZM45.67 50.77H43.288C41.9537 50.77 41.23 50.6432 40.5329 50.2781C39.4833 49.751 38.5898 48.7143 37.1127 46.719C36.5507 45.9938 35.99 45.1796 35.5359 44.5234C35.176 44.012 34.8962 43.6069 34.7605 43.4423C34.6405 43.3269 34.5205 43.3042 34.3689 43.3042L32.1278 43.2474C32.0457 43.2474 32.0078 43.279 32.0078 43.3609V43.7078C32.0078 45.6075 32.0078 47.7074 32.1531 48.8151C32.2352 49.4936 32.3299 49.9141 33.0485 50.0186C33.3958 50.0754 33.9288 50.0987 34.2584 50.0987C34.4921 50.0987 34.6436 50.2721 34.6436 50.4392C34.6436 50.5394 34.5805 50.7708 34.0564 50.7708C33.0965 50.7708 31.8556 50.733 31.0316 50.7078C30.6274 50.6952 30.2984 50.6826 30.1778 50.6826C29.982 50.6826 29.5968 50.6952 29.1447 50.7142C28.505 50.7394 27.7055 50.7708 27.1195 50.7708C26.6333 50.7708 26.5575 50.5596 26.5575 50.4392C26.5575 50.2721 26.6775 50.0987 27.0311 50.0987C27.3911 50.0987 27.6771 50.0735 27.8887 50.0186C28.3496 49.9209 28.4823 49.5161 28.5681 48.8151C28.6755 47.7986 28.6755 45.8989 28.6755 43.7078V39.4634C28.6755 35.8019 28.6755 35.1368 28.6755 34.3783C28.6123 33.5997 28.4292 33.3705 27.6531 33.1481C27.4637 33.0913 27.0279 33.0636 26.6844 33.0636C26.3687 33.0636 26.1855 32.9388 26.1855 32.7319C26.1855 32.4248 26.6276 32.4248 26.8107 32.4248C27.6304 32.4248 28.5214 32.4501 29.2369 32.469C29.6789 32.4816 30.0344 32.4879 30.2302 32.4879C30.6786 32.4879 31.5292 32.469 32.3488 32.4564C33.0687 32.4438 33.7501 32.4248 34.1113 32.4248C35.5972 32.4248 37.4929 32.5428 38.8828 33.4592C39.5446 33.9132 40.6693 35.1254 40.6693 36.8382C40.6693 38.6334 39.6469 40.2305 37.2498 42.1636L37.5339 42.513C39.6058 45.0556 41.2389 47.0687 42.6622 48.488C43.9542 49.7848 44.803 49.9539 45.2128 50.0362L45.2759 50.0488C45.5285 50.0993 45.6611 50.0992 45.8569 50.0992C46.0906 50.0992 46.2547 50.2727 46.2547 50.4398C46.2547 50.7714 45.8569 50.7714 45.6927 50.7714" fill="#ABABAB"/>
<path d="M57.4789 50.8272C55.6438 50.8272 54.2223 50.7957 53.0016 50.7383C52.6859 50.732 52.3765 50.7256 52.079 50.7193C51.2038 50.6941 50.4486 50.6815 49.6908 50.6815C49.5771 50.6815 49.4129 50.6878 49.2298 50.6941C48.9583 50.6985 48.6236 50.7067 48.2718 50.7067L47.9119 50.7257C47.4446 50.7446 46.9583 50.7698 46.5485 50.7698C46.0623 50.7698 45.9865 50.5561 45.9865 50.4362C45.9865 50.2717 46.1065 50.0957 46.4664 50.0957C46.8264 50.0957 47.1036 50.0705 47.3214 50.0157C47.7824 49.9179 47.9087 49.515 47.999 48.8144C48.1064 47.7978 48.1064 45.8981 48.1064 43.7048V39.4605C48.1064 35.799 48.1064 35.1338 48.1064 34.3753C48.0432 33.5967 47.8664 33.3676 47.0909 33.1451C46.9078 33.0947 46.6173 33.0625 46.2864 33.0625C45.8697 33.0625 45.7812 32.8803 45.7812 32.729C45.7812 32.4219 46.1917 32.4219 46.3812 32.4219C47.0562 32.4219 47.8468 32.4471 48.544 32.4597C49.0744 32.4723 49.5335 32.4849 49.8297 32.4849C50.0949 32.4849 50.6475 32.4723 51.2909 32.4597C52.0418 32.4471 52.8974 32.4219 53.4254 32.4219C53.6211 32.4219 54.0442 32.4219 54.0442 32.729C54.0442 32.9491 53.8674 33.0625 53.5138 33.0625C53.2675 33.0625 52.8678 33.0878 52.5628 33.1451C51.9439 33.2473 51.7494 33.5279 51.6938 34.3797C51.6307 35.1382 51.6307 35.799 51.6307 39.4605V43.7048C51.6307 46.7479 51.6307 48.2761 52.1485 48.7054C52.5526 49.0478 53.4942 49.1947 55.4101 49.1947C56.8044 49.1947 57.691 49.1506 58.2751 48.543C58.5656 48.2473 58.8182 47.582 58.8751 47.1437C58.8751 47.0126 58.9382 46.703 59.2287 46.703C59.3739 46.703 59.5381 46.8096 59.5381 47.3235C59.5381 47.5971 59.3676 49.3922 59.1655 50.113C58.9824 50.7088 58.8245 50.8248 57.5009 50.8248" fill="#ABABAB"/>
<path d="M98.9626 51.0568C98.5963 51.0568 98.2433 50.8809 97.8846 50.5252C96.4316 49.1771 93.3708 46.2586 90.6106 43.5915C88.8506 41.912 87.1355 40.1101 86.0058 38.9178C85.4438 38.3238 85.0194 37.8835 84.83 37.6966L85.1078 47.4087C85.171 49.4063 85.5246 49.8022 85.9035 49.9423C86.3518 50.0823 86.8431 50.0981 87.1797 50.0981C87.5523 50.0981 87.6849 50.2804 87.6849 50.4386C87.6849 50.7722 87.2176 50.7722 87.0389 50.7722C85.9811 50.7722 85.1034 50.7343 84.5237 50.7078C84.2143 50.6952 83.968 50.6826 83.8114 50.6826C83.7482 50.6826 83.5967 50.6953 83.382 50.7016C82.8768 50.7268 82.023 50.7728 81.1257 50.7728C80.8668 50.7728 80.4746 50.7729 80.4746 50.4393C80.4746 50.2501 80.683 50.0988 80.9482 50.0988C81.1566 50.0988 81.6681 50.0945 82.0622 49.9941C82.6494 49.8384 82.7372 49.2488 82.7688 47.1556L82.9898 32.899C82.9898 32.3674 83.1919 32.0024 83.495 32.0024C83.8171 32.0024 84.1303 32.3184 84.5313 32.7232L84.626 32.8147C84.6891 32.8588 84.7839 32.9767 84.9607 33.1615C86.0077 34.2248 89.1973 37.4592 92.2985 40.4823C93.2767 41.4432 94.7689 42.9559 95.9674 44.1638C96.7966 45.0091 97.4647 45.6786 97.656 45.861L97.3971 35.2502C97.3971 33.7487 97.1319 33.4062 96.597 33.2015C96.2497 33.0634 95.646 33.0634 95.3271 33.0634C94.9356 33.0634 94.8535 32.8812 94.8535 32.7318C94.8535 32.4247 95.2766 32.4246 95.5241 32.4246H95.5873C96.3779 32.4246 97.171 32.4499 97.8082 32.4688C98.2124 32.4814 98.5458 32.4877 98.7573 32.4877C98.8457 32.4877 99.0099 32.4814 99.2309 32.4688C99.6856 32.4562 100.371 32.4246 101.189 32.4246C101.442 32.4246 101.838 32.4247 101.838 32.7318C101.838 32.885 101.699 33.0634 101.326 33.0634C101.08 33.0634 100.884 33.0634 100.582 33.1479C99.9432 33.3415 99.7645 33.7482 99.7355 35.0543L99.4513 50.2118C99.4513 50.8348 99.1924 51.0572 98.9777 51.0572" fill="#ABABAB"/>
<path d="M109.25 33.8286C108.657 33.8286 107.923 33.8929 107.763 33.9887C107.567 34.0574 107.485 34.1376 107.485 34.398C107.485 35.2211 107.485 37.1874 107.485 39.0983V42.117C107.485 44.5817 107.485 46.4903 107.548 46.9819C107.548 47.3709 107.617 48.3856 107.813 48.6325C108.122 49.0884 109.123 49.5667 111.01 49.5667C113.45 49.5667 115.013 49.0932 116.394 47.9429C117.807 46.7817 118.493 44.8553 118.493 42.039C118.493 38.3775 116.735 36.5712 116.199 36.0997C113.906 34.0642 111.155 33.8285 109.281 33.8285M111.066 50.9704C110.384 50.9704 109.606 50.9263 108.851 50.8746C108.599 50.862 108.34 50.843 108.09 50.8304C107.031 50.7346 106.162 50.6835 105.568 50.6835C105.454 50.6835 105.302 50.6899 105.113 50.6962C104.848 50.7025 104.507 50.715 104.157 50.715L103.809 50.734C103.33 50.7529 102.845 50.7718 102.43 50.7718C101.938 50.7718 101.868 50.5606 101.868 50.4402C101.868 50.2731 101.995 50.0996 102.342 50.0996C102.708 50.0996 102.988 50.0745 103.204 50.0196C103.665 49.9219 103.797 49.517 103.881 48.816C103.994 47.7994 103.994 45.8998 103.994 43.7087V39.4644C103.994 35.8028 103.994 35.1377 103.994 34.3792C103.931 33.6005 103.748 33.3715 102.976 33.149C102.78 33.0923 102.344 33.0646 102.003 33.0646C101.687 33.0646 101.504 32.9397 101.504 32.7329C101.504 32.4258 101.946 32.4258 102.135 32.4258C102.904 32.4258 103.731 32.451 104.463 32.4636C104.993 32.4762 105.448 32.4888 105.749 32.4888C106.071 32.4888 106.584 32.4762 107.175 32.4636C107.958 32.451 108.935 32.4258 109.798 32.4258C112.897 32.4258 117.139 32.4257 119.881 35.193C120.962 36.2763 122.256 38.2228 122.256 41.3638C122.256 43.9509 121.254 46.4089 119.516 48.1151C118.656 48.9759 116.112 50.9714 111.102 50.9714" fill="#ABABAB"/>
<path d="M133.685 33.5182C131.464 33.5182 127.733 34.4725 127.733 40.8502C127.733 46.0154 130.795 49.6257 135.188 49.6257C136.886 49.6257 140.831 48.8827 140.831 42.0402C140.831 37.0195 137.891 33.5182 133.685 33.5182ZM134.165 51.0806C127.105 51.0806 123.891 46.1577 123.891 41.582C123.891 37.0107 127.185 32.0923 134.419 32.0923C140.757 32.0923 144.697 35.567 144.697 41.1571C144.697 46.9986 140.367 51.0806 134.165 51.0806Z" fill="#ABABAB"/>
<path d="M79.7448 50.7823C78.8714 50.7823 77.0534 50.7824 74.955 50.7256L74.835 50.7193C74.4182 50.6941 74.1422 50.6752 74.1422 50.4457C74.1422 50.2414 74.2559 50.143 74.5211 50.114C74.5843 50.1014 74.6411 50.0572 74.679 49.9872C74.7421 49.8983 74.7421 49.7937 74.684 49.6871L72.7612 44.8497C72.698 44.745 72.6728 44.7318 72.5781 44.7318H69.1365C69.0481 44.7318 68.9723 44.694 68.9218 44.6341C68.8586 44.5654 68.8586 44.4783 68.8586 44.3894L69.1428 43.5307C69.2059 43.3686 69.3701 43.2413 69.5406 43.2413H72.016L72.0792 43.2349C72.0792 43.2349 72.081 43.2223 72.0792 43.1971L69.7155 37.0551C69.7155 37.0173 69.7155 36.9681 69.6524 36.9372C69.6524 36.9624 69.5892 37.0192 69.5892 37.0507V37.0949L66.5329 44.8494L65.1985 48.0727C64.9333 48.6931 64.8449 49.2717 64.8449 49.5164C64.8449 49.8298 64.9523 50.1148 65.7517 50.1148H66.118C66.4274 50.1148 66.5726 50.2213 66.5726 50.4464C66.5726 50.7825 66.238 50.7825 66.099 50.7825C65.6823 50.7825 65.1745 50.7637 64.6845 50.7384C64.2046 50.7195 63.7108 50.6943 63.3192 50.6943C63.2435 50.6943 63.0666 50.7068 62.8141 50.7131C62.2647 50.7384 61.3351 50.78 60.4308 50.78C60.2414 50.78 59.9004 50.78 59.9004 50.4439C59.9004 50.2882 60.0014 50.1123 60.2667 50.1123C60.3803 50.1123 60.5066 50.1078 60.6329 50.0997C60.7655 50.0973 60.8918 50.0807 61.0055 50.0807C62.0304 49.9294 62.4516 49.32 62.9972 48.0097L69.5109 32.8788C69.7762 32.2426 69.9972 31.8689 70.3199 31.8689C70.743 31.8689 70.8756 32.1444 71.1282 32.6809C71.425 33.3304 72.5339 35.9397 73.8214 38.9627C75.152 42.0881 76.66 45.6274 77.4777 47.5004C78.3883 49.5736 79.059 49.9406 79.5402 50.0274C79.9443 50.0917 80.2089 50.1144 80.4647 50.1144C80.8246 50.1144 80.8814 50.3256 80.8814 50.446C80.8814 50.7399 80.6352 50.7821 79.7302 50.7821" fill="#ABABAB"/>
<path d="M270.287 33.1114H270.628C271.014 33.1114 271.336 32.9733 271.336 32.6133C271.336 32.3572 271.147 32.0993 270.628 32.0993C270.477 32.0993 270.376 32.1182 270.287 32.1308V33.1114ZM270.287 34.7218H269.826V31.8123C270.066 31.7807 270.3 31.7455 270.652 31.7455C271.094 31.7455 271.377 31.8343 271.559 31.9636C271.723 32.0929 271.824 32.2883 271.824 32.5664C271.824 32.9491 271.565 33.1825 271.256 33.2738V33.2927C271.515 33.3432 271.679 33.5752 271.742 34.0045C271.812 34.4604 271.887 34.6294 271.925 34.7208H271.445C271.376 34.6293 271.3 34.3652 271.243 33.9845C271.174 33.6087 270.991 33.4687 270.618 33.4687H270.29L270.287 34.7218ZM270.774 31.0026C269.626 31.0026 268.688 31.988 268.688 33.2048C268.688 34.4483 269.626 35.4204 270.787 35.4204C271.946 35.4267 272.876 34.4482 272.876 33.2181C272.876 31.988 271.946 31.0026 270.787 31.0026H270.774ZM270.774 30.5952C272.199 30.5952 273.34 31.752 273.34 33.2046C273.34 34.6794 272.199 35.8205 270.76 35.8205C269.337 35.8205 268.172 34.6794 268.172 33.2046C268.172 31.752 269.337 30.5952 270.76 30.5952H270.774Z" fill="#ABABAB"/>
<path d="M162.673 50.4711C161.561 50.4711 160.476 50.4395 159.603 50.4143C159.047 50.3954 158.571 50.3827 158.255 50.3827C157.977 50.3827 157.493 50.3954 156.927 50.4206C156.179 50.4459 155.333 50.4711 154.684 50.4711C154.261 50.4711 154.042 50.3442 154.042 50.1084C154.042 49.8057 154.428 49.8058 154.573 49.8058C155.009 49.8058 155.35 49.737 155.571 49.6904C156.057 49.5945 156.21 49.1166 156.335 48.2022C156.474 47.0254 156.474 44.7854 156.474 42.1916V37.211C156.474 32.8978 156.474 32.1236 156.411 31.2183C156.348 30.3307 156.171 29.8747 155.253 29.6833C155.013 29.6203 154.52 29.5964 154.166 29.5964C153.989 29.5964 153.604 29.5963 153.604 29.2628C153.604 28.9292 154.039 28.9292 154.279 28.9292C155.177 28.9292 156.172 28.9607 156.978 28.986C157.546 28.9986 158.041 29.0174 158.355 29.0174C158.652 29.0174 159.155 28.9985 159.736 28.9796C160.47 28.9607 161.304 28.9292 161.922 28.9292C162.25 28.9292 162.603 28.9607 162.603 29.2628C162.603 29.5963 162.212 29.5964 162.01 29.5964C161.782 29.5964 161.536 29.6215 161.203 29.6833C160.524 29.8057 160.275 30.1929 160.219 31.2183C160.156 32.1236 160.156 32.8978 160.156 37.211V42.1916C160.156 44.7854 160.156 47.0254 160.295 48.2334C160.383 49.1009 160.585 49.5902 161.335 49.6904C161.727 49.7408 162.345 49.8058 162.765 49.8058C163.207 49.8058 163.302 49.9659 163.302 50.1084C163.302 50.2421 163.22 50.4711 162.654 50.4711" fill="#ABABAB"/>
<path d="M177.372 50.4712C176.257 50.4712 175.171 50.4396 174.3 50.4144C173.745 50.3955 173.269 50.3828 172.959 50.3828C172.675 50.3828 172.18 50.3955 171.614 50.4207C170.876 50.446 170.043 50.4712 169.413 50.4712C169.255 50.4712 168.744 50.4711 168.744 50.1085C168.744 49.8058 169.13 49.8059 169.269 49.8059C169.704 49.8059 170.033 49.7428 170.278 49.6905C170.802 49.5858 170.924 48.9808 171.031 48.2023C171.176 47.0255 171.176 44.7855 171.176 42.1917V39.7003C171.176 39.6158 171.101 39.607 171.082 39.607H163.861C163.684 39.607 163.539 39.4689 163.539 39.2823V38.2501C163.539 38.0678 163.684 37.9278 163.861 37.9278H171.082C171.145 37.9278 171.176 37.8837 171.176 37.8011V37.2115C171.176 32.8983 171.176 32.1241 171.113 31.2188C171.05 30.3112 170.879 29.8774 169.957 29.6839C169.736 29.6209 169.255 29.5969 168.872 29.5969C168.689 29.5969 168.31 29.5968 168.31 29.2633C168.31 28.9297 168.746 28.9297 168.983 28.9297C169.879 28.9297 170.879 28.9612 171.674 28.9865C172.248 28.9991 172.744 29.018 173.062 29.018C173.359 29.018 173.859 28.9991 174.438 28.9802C175.174 28.9613 176.009 28.9297 176.631 28.9297C176.865 28.9297 177.305 28.9297 177.305 29.2633C177.305 29.5968 176.908 29.5969 176.712 29.5969C176.491 29.5969 176.232 29.6221 175.905 29.6839C175.23 29.8063 174.978 30.1908 174.923 31.2188C174.86 32.1241 174.86 32.8983 174.86 37.2115V42.1921C174.86 44.7859 174.86 47.026 174.999 48.2339C175.1 49.1015 175.295 49.5908 176.041 49.6909C176.439 49.7414 177.053 49.8063 177.476 49.8063C177.918 49.8063 178.006 49.9665 178.006 50.109C178.006 50.2427 177.924 50.4715 177.359 50.4715" fill="#ABABAB"/>
<path d="M190.746 50.5248C188.795 50.5248 187.329 50.4932 186.157 50.4377C185.797 50.4334 185.462 50.4252 185.143 50.4189C184.417 50.3937 183.789 50.3811 183.272 50.3811C183.159 50.3811 183.007 50.3856 182.818 50.3937C182.552 50.4 182.211 50.4125 181.853 50.4125C181.265 50.4441 180.657 50.4715 180.149 50.4715C179.688 50.4715 179.593 50.2868 179.593 50.1354C179.593 49.9734 179.713 49.8038 180.067 49.8038C180.433 49.8038 180.711 49.7785 180.925 49.7167C181.385 49.6164 181.518 49.2186 181.602 48.5178C181.716 47.499 181.716 45.6014 181.716 43.4059V39.1593C181.716 35.4955 181.716 34.8371 181.716 34.0742C181.653 33.2933 181.469 33.0664 180.695 32.8485C180.525 32.798 180.127 32.764 179.726 32.764C179.271 32.764 179.221 32.5281 179.221 32.4278C179.221 32.1277 179.663 32.1277 179.867 32.1277C180.624 32.1277 181.453 32.1403 182.186 32.1593C182.71 32.1719 183.166 32.1845 183.469 32.1845H184.67C185.737 32.1908 187.27 32.1971 188.464 32.1971C189.515 32.1971 190.121 32.1949 190.259 32.1845C190.587 32.1656 190.884 32.1132 191.093 32.0779C191.175 32.0653 191.244 32.0527 191.301 32.0464C191.364 32.0338 191.415 32.0149 191.465 31.9896C191.554 31.9644 191.636 31.9265 191.712 31.9265C191.8 31.9265 191.958 31.9644 191.958 32.2292C191.958 32.296 191.958 32.3629 191.895 32.4625C191.832 32.6763 191.775 33.0363 191.737 33.7905C191.737 33.8838 191.737 34.0686 191.674 34.2774C191.61 34.6866 191.604 35.1939 191.566 35.3874V35.4252C191.503 35.5608 191.459 35.8433 191.219 35.8433C190.941 35.8433 190.941 35.5917 190.941 35.4517C190.941 35.2758 190.941 34.8754 190.783 34.6109C190.606 34.2237 190.448 33.8924 189.206 33.7767C188.783 33.7199 185.815 33.6657 185.299 33.6657C185.236 33.6657 185.21 33.7162 185.21 33.8126V39.752C185.21 39.9254 185.273 39.9254 185.299 39.9254C187.711 39.9254 189.297 39.9065 189.659 39.8749C190.227 39.8182 190.589 39.7683 190.792 39.5325C190.862 39.4694 190.912 39.4172 190.956 39.3724C191.057 39.2721 191.139 39.1876 191.247 39.1876C191.405 39.1876 191.525 39.3364 191.525 39.5237C191.525 39.6239 191.525 39.8308 191.443 40.3246C191.443 40.5717 191.373 40.8826 191.329 41.29C191.266 41.7617 191.215 42.7292 191.215 42.8916C191.215 43.4011 191.026 43.5077 190.874 43.5077C190.609 43.5077 190.565 43.3318 190.565 43.2296C190.56 43.1521 190.565 43.065 190.565 42.9692C190.565 42.7825 190.565 42.5732 190.502 42.3644C190.388 41.9684 190.142 41.5837 189.181 41.5014C188.739 41.4446 185.942 41.3878 185.282 41.3878C185.282 41.3878 185.219 41.3878 185.219 41.5593V43.4857C185.219 43.726 185.219 44.0754 185.219 44.4623C185.219 45.3899 185.219 46.5488 185.219 47.0449C185.282 48.5954 185.917 48.9735 188.505 48.9735C189.202 48.9735 190.2 48.9421 190.831 48.6665C191.412 48.4042 191.688 47.9368 191.858 46.9447C191.921 46.7114 191.971 46.5153 192.218 46.5153C192.527 46.5153 192.527 46.987 192.527 47.1604C192.527 47.7078 192.325 49.3426 192.18 49.8387C191.997 50.5194 191.712 50.5193 190.768 50.5193" fill="#ABABAB"/>
<path d="M224.682 50.5248C222.832 50.5248 221.406 50.4932 220.207 50.4377L219.394 50.4189C218.478 50.4 217.685 50.3811 216.894 50.3811C216.781 50.3811 216.623 50.3856 216.44 50.3937C216.168 50.4 215.833 50.4125 215.482 50.4125L215.419 50.4147C214.838 50.4463 214.231 50.4715 213.734 50.4715C213.248 50.4715 213.172 50.2622 213.172 50.1354C213.172 50.0534 213.236 49.8038 213.652 49.8038C214.025 49.8038 214.292 49.7785 214.51 49.7167C214.965 49.6164 215.098 49.2186 215.19 48.5177C215.304 47.4989 215.304 45.6014 215.304 43.4059V39.1593C215.304 35.4955 215.304 34.8371 215.304 34.0741C215.24 33.2933 215.057 33.0664 214.283 32.8484C214.1 32.798 213.797 32.764 213.488 32.764C213.147 32.764 212.977 32.6504 212.977 32.4278C212.977 32.1276 213.381 32.1277 213.589 32.1277C214.248 32.1277 215.042 32.1403 215.734 32.1592C216.265 32.1719 216.728 32.1845 217.024 32.1845C217.283 32.1845 217.812 32.1719 218.429 32.1592C219.203 32.1466 220.081 32.1277 220.622 32.1277C220.837 32.1277 221.241 32.1276 221.241 32.4278C221.241 32.7639 220.843 32.764 220.704 32.764C220.451 32.764 220.051 32.7892 219.755 32.8484C219.136 32.9506 218.944 33.2287 218.889 34.0741C218.825 34.8371 218.825 35.4955 218.825 39.1593V43.4058C218.825 46.4489 218.825 47.9771 219.331 48.4042C219.735 48.7535 220.683 48.8961 222.595 48.8961C223.992 48.8961 224.876 48.8519 225.457 48.242C225.76 47.9418 226.007 47.2855 226.063 46.8428C226.063 46.7047 226.127 46.4115 226.417 46.4115C226.562 46.4115 226.726 46.518 226.726 47.0275C226.726 47.3056 226.556 49.1053 226.36 49.8148C226.171 50.4063 226.019 50.5245 224.696 50.5245" fill="#ABABAB"/>
<path d="M238.026 50.4708C237.034 50.4708 236.039 50.4393 235.237 50.4141C234.725 50.3952 234.281 50.3825 234 50.3825C233.76 50.3825 233.31 50.3952 232.788 50.4204C232.1 50.4456 231.314 50.4708 230.748 50.4708C230.255 50.4708 230.186 50.2615 230.186 50.1348C230.186 49.9721 230.306 49.8056 230.666 49.8056C231.045 49.8056 231.339 49.7741 231.517 49.7167C231.978 49.6164 232.117 49.2009 232.199 48.5176C232.313 47.4988 232.313 45.6013 232.313 43.4058V33.7604L228.684 33.8361C227.249 33.8676 226.683 34.0403 226.338 34.5412C226.161 34.7839 226.022 35.0438 225.927 35.3443C225.864 35.5265 225.801 35.7024 225.567 35.7024C225.258 35.7024 225.258 35.3468 225.258 35.2288C225.258 34.8152 225.75 32.475 225.801 32.297C225.864 32.0637 225.927 31.7856 226.161 31.7856C226.256 31.7856 226.363 31.8235 226.483 31.8701C226.66 31.9344 226.9 32.0189 227.247 32.0655C228.049 32.1614 229.04 32.181 229.727 32.181H239.838C240.504 32.181 241.068 32.1431 241.525 32.0655C241.733 32.034 241.885 32.0088 241.992 31.988C242.106 31.9691 242.169 31.9565 242.219 31.9565C242.497 31.9565 242.497 32.2566 242.497 32.5416C242.497 32.7888 242.497 33.318 242.497 33.8785C242.497 34.4927 242.497 35.1354 242.497 35.4579C242.497 35.6112 242.434 35.934 242.194 35.934C241.897 35.934 241.853 35.6894 241.834 35.3804V35.1268C241.771 34.7422 241.455 33.8433 238.965 33.8145L235.904 33.764V43.4094C235.904 46.0565 235.967 47.6404 236.043 48.5413C236.138 49.2621 236.295 49.6201 236.936 49.7203C237.271 49.7833 237.832 49.8092 238.202 49.8092C238.53 49.8092 238.682 49.9763 238.682 50.1383C238.682 50.3477 238.467 50.4744 238.12 50.4744" fill="#ABABAB"/>
<path d="M265.67 50.4712C264.689 50.4712 263.707 50.4396 262.921 50.4144C262.403 50.3955 261.996 50.3828 261.728 50.3828C261.488 50.3828 261.022 50.3955 260.486 50.4207C259.788 50.446 258.993 50.4712 258.447 50.4712C257.91 50.4712 257.835 50.2618 257.835 50.1351C257.835 49.9724 257.98 49.8059 258.302 49.8059C258.694 49.8059 258.97 49.7744 259.187 49.717C259.648 49.6168 259.78 49.2188 259.871 48.518C259.984 47.4992 259.984 45.6306 259.984 43.4617V41.6154C259.984 41.5839 259.921 41.5649 259.921 41.5649H253.77C253.593 41.5649 253.441 41.418 253.441 41.2377V40.2856C253.441 40.1078 253.593 39.9609 253.77 39.9609H259.921C259.921 39.9609 259.984 39.9608 259.984 39.8694V39.3624C259.984 35.7787 259.921 34.8623 259.921 34.1238V34.0733C259.858 33.297 259.675 33.0657 258.901 32.8476C258.711 32.7846 258.282 32.7631 257.961 32.7631C257.538 32.7631 257.456 32.5809 257.456 32.4271C257.456 32.1269 257.854 32.1269 258.075 32.1269C258.856 32.1269 259.794 32.1458 260.549 32.1584C261.08 32.171 261.545 32.1773 261.81 32.1773C262.076 32.1773 262.528 32.1647 263.058 32.1521C263.719 32.1395 264.468 32.1206 265.01 32.1206C265.231 32.1206 265.628 32.1206 265.628 32.4207C265.628 32.5474 265.559 32.7568 265.098 32.7568C264.921 32.7568 264.713 32.782 264.374 32.8413C263.78 32.9434 263.592 33.2215 263.536 34.0671C263.473 34.83 263.473 35.4906 263.473 39.1522V43.3988C263.473 45.5943 263.473 47.4918 263.593 48.5307C263.682 49.2647 263.833 49.6095 264.513 49.7096C264.854 49.7727 265.395 49.7985 265.779 49.7985C266.075 49.7985 266.252 49.9656 266.252 50.1277C266.252 50.2254 266.189 50.4637 265.665 50.4637" fill="#ABABAB"/>
<path d="M252.613 50.4709C251.634 50.4709 250.627 50.4394 249.821 50.4142C249.297 50.3952 248.843 50.3826 248.56 50.3826C248.326 50.3826 247.883 50.3953 247.373 50.4205C246.698 50.4457 245.927 50.4709 245.363 50.4709C244.871 50.4709 244.801 50.2616 244.801 50.1348C244.801 49.9722 244.921 49.8057 245.268 49.8057C245.641 49.8057 245.917 49.7742 246.133 49.7168C246.588 49.6165 246.727 49.2186 246.811 48.5177C246.924 47.4989 246.924 45.6014 246.924 43.4059V39.1594C246.924 35.4956 246.924 34.8372 246.924 34.0742C246.861 33.2979 246.678 33.0665 245.908 32.8484C245.738 32.798 245.34 32.764 244.939 32.764C244.484 32.764 244.434 32.5281 244.434 32.4279C244.434 32.1277 244.869 32.1277 245.052 32.1277C245.825 32.1277 246.726 32.1466 247.448 32.1592C247.972 32.1719 248.421 32.1845 248.704 32.1845C248.963 32.1845 249.43 32.1719 249.972 32.1592C250.671 32.1466 251.455 32.1277 252.014 32.1277C252.21 32.1277 252.608 32.1277 252.608 32.4279C252.608 32.6524 252.431 32.764 252.071 32.764C251.888 32.764 251.673 32.7892 251.378 32.8484C250.759 32.9506 250.565 33.2287 250.509 34.0742C250.446 34.8372 250.446 35.7025 250.446 39.3618V43.4615C250.446 46.053 250.509 47.6212 250.591 48.54C250.68 49.2585 250.837 49.6167 251.488 49.7168C251.823 49.7798 252.375 49.8057 252.75 49.8057C253.078 49.8057 253.223 49.9728 253.223 50.1348C253.223 50.2326 253.16 50.4709 252.636 50.4709" fill="#ABABAB"/>
<path d="M212.778 50.4709C211.909 50.4709 210.087 50.4709 207.993 50.4142L207.866 50.4078C207.456 50.3763 207.182 50.3637 207.182 50.1386C207.182 49.9318 207.296 49.8341 207.561 49.8095C207.624 49.7968 207.675 49.7527 207.713 49.6897C207.713 49.6329 207.782 49.5269 207.713 49.3781L205.79 44.5378C205.727 44.4356 205.695 44.4129 205.6 44.4129H202.145C202.057 44.4129 201.974 44.3814 201.93 44.3152C201.867 44.2509 201.867 44.1683 201.93 44.0863L202.214 43.2277C202.278 43.0833 202.398 42.9672 202.549 42.9426L202.631 42.9363H205.102L205.165 42.93C205.165 42.93 205.165 42.9174 205.165 42.8922L202.806 36.746C202.806 36.7208 202.806 36.6659 202.743 36.635C202.743 36.6665 202.68 36.7126 202.68 36.746V36.7902L199.621 44.5358L198.287 47.7657C198.021 48.3818 197.933 48.9648 197.933 49.205C197.933 49.5165 198.04 49.8078 198.842 49.8078H199.209C199.512 49.8078 199.657 49.9081 199.657 50.137C199.657 50.4731 199.322 50.4731 199.183 50.4731C198.766 50.4731 198.257 50.4478 197.767 50.4289C197.287 50.41 196.796 50.3848 196.403 50.3848C196.328 50.3848 196.145 50.3974 195.905 50.4037C195.343 50.4289 194.421 50.4725 193.516 50.4725C193.333 50.4725 192.992 50.4724 192.992 50.1363C192.992 49.9295 193.125 49.8072 193.346 49.8072C193.459 49.8072 193.592 49.8009 193.712 49.7945C193.838 49.7819 193.971 49.7819 194.085 49.7819C195.199 49.613 195.6 48.8433 196.079 47.7021L202.593 32.5756C202.858 31.9349 203.079 31.5613 203.402 31.5613C203.825 31.5613 203.957 31.8374 204.212 32.3776C204.484 32.9892 205.511 35.394 206.694 38.179C208.102 41.4824 209.692 45.2262 210.55 47.1927C211.47 49.2637 212.134 49.6307 212.62 49.7219C212.993 49.785 213.268 49.8109 213.539 49.8109C213.906 49.8109 213.963 50.0132 213.963 50.14C213.963 50.4338 213.716 50.4761 212.802 50.4761" fill="#ABABAB"/>
</svg>
