<svg width="102" height="68" viewBox="0 0 102 68" fill="none" xmlns="http://www.w3.org/2000/svg">
<g clip-path="url(#clip0_2874_51642)">
<path d="M3.60156 14.6267L15.5405 2.9707H98.3127V54.1113L86.4465 65.9858H3.60156V14.6267Z" fill="black"/>
<path d="M73.1876 34.5664C71.2135 34.5664 70.0723 35.9737 70.0723 38.0189V38.1909C70.0723 40.2831 71.3888 41.5794 73.0999 41.5794C74.9425 41.5794 76.2809 40.2831 76.2809 38.1268V37.9705C76.2809 35.8392 75.0959 34.5664 73.1876 34.5664Z" fill="white"/>
<path d="M65.5719 18.8754V18.0373C65.5719 15.9013 64.3869 14.627 62.4801 14.627C60.1225 14.627 59.3633 16.347 59.3633 18.6017C59.3633 20.7815 60.2666 22.4796 62.3909 22.4796C64.2335 22.4796 65.5719 21.1849 65.5719 19.0271V18.8754Z" fill="white"/>
<path d="M12.779 0L0 12.5702V68H88.839L101.618 55.4298V0H12.779ZM70.5793 12.8219H73.2328V14.9344C73.9561 13.5099 75.0315 12.6687 76.9618 12.6468V15.0845C74.637 15.1064 73.2328 15.8398 73.2328 18.2353V24.1052H70.5793V12.8219ZM29.6845 17.4191C25.9274 16.9218 24.1552 15.8007 24.1552 12.9095C24.1552 10.3842 26.3469 8.48436 29.6187 8.48436C32.997 8.48436 35.0149 9.99485 35.3218 12.9517H32.6464C32.3599 11.3302 31.4175 10.6328 29.6187 10.6328C27.82 10.6328 26.9261 11.4819 26.9261 12.6656C26.9261 13.9165 27.4521 14.5419 30.1729 14.9313C33.858 15.427 35.7664 16.4637 35.7664 19.5487C35.7664 22.2241 33.4635 24.3179 29.9976 24.3179C25.7191 24.3179 23.9204 22.2241 23.7013 19.3142H26.5035C26.7007 20.8685 27.3363 22.1632 29.9913 22.1632C31.7243 22.1632 32.9532 21.214 32.9532 19.7895C32.9532 18.3651 32.2284 17.8256 29.6845 17.4159V17.4191ZM37.5369 36.3595C37.5369 40.8472 34.8834 44.0418 29.3761 44.0418H24.6593V28.6148H29.4199C34.8834 28.6148 37.5369 31.678 37.5369 36.1672V36.3595ZM50.1703 38.9708H41.7684C41.856 41.1068 42.9534 42.3155 44.9275 42.3155C46.529 42.3155 47.3634 41.6243 47.5606 40.5235H50.1264C49.7539 42.894 47.8017 44.2513 44.8618 44.2513C41.4835 44.2513 39.0491 42.0716 39.0491 38.5111V38.3391C39.0491 34.8428 41.4835 32.5114 44.7522 32.5114C47.6029 32.5114 50.1703 34.1736 50.1703 38.2093V38.9708ZM47.7657 17.3565V24.1115H45.1044V17.1345C45.1044 15.4739 44.3592 14.7609 43.0693 14.7609C41.7793 14.7609 40.5457 15.624 40.5457 17.3565V24.1115H37.8938V12.8219H40.5457V14.5419C41.0952 13.4849 42.346 12.578 44.0352 12.578C45.5271 12.578 46.7106 13.2035 47.282 14.6107C48.1586 13.2035 49.7382 12.578 51.1643 12.578C53.2699 12.578 54.981 13.8524 54.981 16.9562V24.099H52.3197V17.1345C52.3197 15.4739 51.5964 14.7609 50.2845 14.7609C48.9727 14.7609 47.7657 15.624 47.7657 17.3565ZM56.5668 44.2513C53.6049 44.2513 51.8704 42.9128 51.7624 40.5173H54.2671C54.3986 41.6619 54.9919 42.3311 56.548 42.3311C57.9757 42.3311 58.6113 41.8339 58.6113 40.8847C58.6113 39.9356 57.8426 39.6119 56.1551 39.3305C53.1274 38.8614 52.0081 38.0154 52.0081 35.8998C52.0081 33.6341 54.1575 32.5114 56.3085 32.5114C58.6567 32.5114 60.5196 33.3745 60.8045 35.9217H58.3436C58.1244 34.8866 57.5311 34.4112 56.3085 34.4112C55.1673 34.4112 54.4863 34.9507 54.4863 35.7497C54.4863 36.5487 55.0358 36.8927 56.8564 37.1945C59.5553 37.6042 61.1552 38.2516 61.1552 40.6471C61.1505 42.9378 59.5052 44.2513 56.5668 44.2513ZM56.6435 18.6074C56.6435 14.8046 58.8352 12.5827 61.7986 12.5827C63.685 12.5827 64.8262 13.4239 65.4837 14.5466V12.8219H68.145V24.0802H65.4837V22.393C65.0836 23.0289 64.5298 23.5539 63.8732 23.9198C63.2166 24.2857 62.4784 24.4807 61.7266 24.4868C58.8618 24.4868 56.6435 22.4055 56.6435 18.6074ZM65.6199 44.0449H62.9586V32.7522H65.6199V44.0449ZM64.2595 30.9102C63.3829 30.9102 62.6815 30.2629 62.6815 29.4216C62.6831 29.2181 62.7254 29.017 62.8061 28.8301C62.8868 28.6433 63.0042 28.4744 63.1513 28.3336C63.2984 28.1928 63.4722 28.0829 63.6626 28.0103C63.8529 27.9378 64.0559 27.904 64.2595 27.9111C65.1378 27.9111 65.8391 28.5585 65.8391 29.4216C65.8391 30.2848 65.1378 30.8961 64.2595 30.8961V30.9102ZM78.8466 43.2115C78.8247 46.5342 76.5657 48.1964 73.0121 48.1964C69.4115 48.1964 67.7912 46.5983 67.4828 44.4436H70.1598C70.379 45.5663 71.2556 46.2137 72.9902 46.2137C75.0519 46.2137 76.1931 45.1989 76.1931 43.1708V41.4914C75.7927 42.127 75.2388 42.6518 74.5823 43.0176C73.9258 43.3835 73.1877 43.5787 72.436 43.5852C69.5633 43.5852 67.3466 41.4711 67.3466 38.2125V38.0561C67.3466 34.885 69.5383 32.5098 72.5017 32.5098C74.3803 32.5098 75.5294 33.3526 76.1884 34.4738V32.7538H78.8497L78.8466 43.2115ZM79.7092 20.9529V14.7827H78.1734V12.8219H79.7092V10.3373H82.3705V12.8219H84.8925V14.7827H82.3642V20.7246C82.3642 21.7175 82.8464 22.171 83.6792 22.171C84.1209 22.1867 84.5612 22.1133 84.9739 21.9552V24.027C84.3954 24.2254 83.7865 24.3201 83.1751 24.3069C80.8942 24.2991 79.7092 23.0904 79.7092 20.9529ZM91.5958 44.0386H88.9345V37.1758C88.9345 35.4714 88.2316 34.6943 86.652 34.6943C85.1601 34.6943 83.9532 35.6012 83.9532 37.3916V44.0386H81.2919V32.7522H83.9532V34.5426C84.5027 33.448 85.7754 32.5098 87.6618 32.5098C89.9646 32.5098 91.588 33.8264 91.588 36.9334L91.5958 44.0386Z" fill="white"/>
<path d="M29.2751 30.875H27.5781V41.7721H29.2908C32.8005 41.7721 34.4881 39.7862 34.4881 36.3775V36.2039C34.4881 32.8812 32.954 30.875 29.2751 30.875Z" fill="white"/>
<path d="M44.7525 34.4141C43.151 34.4141 42.0755 35.4711 41.8125 37.2193H47.539C47.4059 35.2772 46.3978 34.4141 44.7525 34.4141Z" fill="white"/>
</g>
<defs>
<clipPath id="clip0_2874_51642">
<rect width="101.618" height="68" fill="white"/>
</clipPath>
</defs>
</svg>
