<svg width="112" height="80" viewBox="0 0 112 80" fill="none" xmlns="http://www.w3.org/2000/svg">
<g clip-path="url(#clip0_2259_50114)">
<path d="M77.665 20.0476C84.7596 20.0476 90.5076 25.7855 90.5078 32.863C90.5078 39.9407 84.7598 45.6794 77.665 45.6794C70.5703 45.6794 64.8223 39.9407 64.8223 32.863C64.8225 25.7855 70.5705 20.0476 77.665 20.0476ZM75.707 24.7957C74.6501 24.7957 73.9025 25.4768 73.9023 26.8318V37.9998C73.9023 39.5194 74.6137 40.2301 76.1328 40.2302H83.0869V36.9099H77.5156V26.8318C77.5155 25.4567 76.7641 24.7957 75.707 24.7957Z" fill="#ABABAB"/>
<path d="M99.1436 20.011C106.238 20.011 111.986 25.7497 111.986 32.8274C111.986 39.905 106.238 45.6438 99.1436 45.6438C92.0489 45.6438 86.2969 39.905 86.2969 32.8274C86.2969 25.7497 92.0488 20.011 99.1436 20.011ZM99.0049 24.6633C96.7982 24.6634 94.4189 25.8823 94.4189 28.4045C94.4191 29.6916 95.0979 30.578 95.7852 31.2756C94.5512 31.9694 92.5939 33.4609 92.5938 35.9387C92.5938 39.1868 95.2748 40.6389 97.9277 40.6389C99.6119 40.6389 101.027 40.0412 102.646 38.6379L104.504 40.635L106.835 38.4172L104.942 36.4124L104.946 36.4084L105.437 35.8831C106.104 35.1333 106.518 34.5437 106.53 33.9182C106.542 33.1884 105.85 32.5226 105.275 32.4905C104.532 32.4505 104.231 32.7597 103.688 33.3811L102.908 34.2786L100.782 31.9368C101.518 31.5395 103.391 30.2921 103.391 28.1672C103.39 25.7976 100.854 24.6633 99.0049 24.6633ZM100.609 36.4846C99.8336 37.2064 99.1137 37.6516 97.9883 37.6516L97.749 37.6467C96.562 37.5573 95.8379 36.8033 95.8379 35.634C95.838 34.4593 96.6735 33.7412 97.5898 33.1438L100.609 36.4846ZM98.9688 27.217C99.4712 27.217 100.412 27.4819 100.412 28.4602V28.4885C100.412 28.6529 100.359 28.8135 100.259 28.9739C100.03 29.3707 99.5395 29.7556 98.8242 30.1204C98.0646 29.3786 97.7392 29.0337 97.6709 28.5325C97.6588 28.4643 97.6503 28.3919 97.6543 28.3157C97.6543 28.2877 97.6581 28.2635 97.6621 28.2395C97.7186 27.6342 98.4664 27.2171 98.9688 27.217Z" fill="#ABABAB"/>
<path d="M56.0811 20.0476C63.1756 20.0476 68.9275 25.7855 68.9277 32.863C68.9277 39.9407 63.1758 45.6794 56.0811 45.6794C48.9864 45.6793 43.2344 39.9407 43.2344 32.863C43.2346 25.7856 48.9865 20.0477 56.0811 20.0476ZM55.7812 24.7751C54.3985 24.8393 53.5507 25.9102 53.0361 27.3699L48.8594 40.2302H52.5332L53.2852 37.4343H58.8486L59.5996 40.2302H63.2979L59.1416 27.3699C58.599 25.8943 57.7028 24.8475 56.3242 24.7751H55.7812ZM58.0205 34.2947H54.1006L56.0908 28.1238L58.0205 34.2947Z" fill="#ABABAB"/>
<path d="M34.4424 20.0476C41.537 20.0476 47.3055 25.7855 47.3057 32.863C47.3057 39.9407 41.5532 45.6794 34.4424 45.6794C27.3316 45.6794 21.5957 39.9407 21.5957 32.863C21.5959 25.7855 27.3478 20.0476 34.4424 20.0476ZM32.0479 25.0437C30.5244 25.0437 29.8125 25.7536 29.8125 27.2693V38.0046C29.8126 39.5242 30.5245 40.2341 32.0479 40.2341H39.251V36.9138H33.4307V34.2986H38.9131V30.9783H33.4307V28.364H39.0576V25.0437H32.0479Z" fill="#ABABAB"/>
<path d="M12.8408 20.0476C19.9314 20.0476 25.6873 25.7855 25.6875 32.863C25.6875 39.9407 19.9355 45.6794 12.8408 45.6794C5.74618 45.6794 -0.00195312 39.9407 -0.00195312 32.863C-0.00176391 25.7856 5.75031 20.0477 12.8408 20.0476ZM7.94043 28.364H13.8008L8.10449 36.1833C7.69856 36.7687 7.3337 37.2382 7.27734 38.032C7.21303 38.8781 7.7071 40.2381 9.78125 40.2341H18.4189V36.9216H11.8477L17.5068 29.0935C17.9127 28.436 18.1738 28.043 18.1738 27.2732C18.1737 25.91 17.3623 25.0438 15.8994 25.0437H7.94043V28.364Z" fill="#ABABAB"/>
<path d="M94.1921 57.7818C94.1921 57.7818 95.2935 53.88 95.4824 53.4871C95.596 53.2477 95.7879 53.054 96.0264 52.9379C96.265 52.8217 96.5361 52.7899 96.7951 52.8478C97.0541 52.9056 97.2858 53.0496 97.4519 53.2562C97.6181 53.4627 97.7088 53.7195 97.7093 53.9843V59.875H96.214V55.3036L94.9076 59.5021C94.8031 59.8309 94.5619 59.9953 94.1921 59.9953C93.8223 59.9953 93.5811 59.8309 93.4766 59.5021L92.1702 55.3036V59.875H90.6749V53.9843C90.6754 53.7195 90.7662 53.4627 90.9323 53.2562C91.0985 53.0496 91.3301 52.9056 91.5891 52.8478C91.8482 52.7899 92.1193 52.8217 92.3578 52.9379C92.5964 53.054 92.7882 53.2477 92.9018 53.4871C93.0907 53.88 94.1921 57.7818 94.1921 57.7818ZM9.07569 58.4595L12.5889 54.2971C12.7376 54.1327 12.818 53.9161 12.818 53.7036C12.818 53.2023 12.5487 52.9377 12.0422 52.9377H7.06183V54.3532H10.5348L7.07791 58.4234C6.93722 58.5918 6.80859 58.7803 6.80859 59.053C6.80859 59.4059 6.90909 59.871 7.76125 59.871H12.8582V58.4555H9.06765L9.07569 58.4595ZM16.0297 58.5156V56.9758H18.7751V55.6725H16.0297V54.3011H19.1972V52.9377H15.3303C14.6831 52.9377 14.3696 53.2505 14.3696 53.8961V58.9166C14.3696 59.5622 14.6831 59.875 15.3303 59.875H19.2655V58.5116H16.0297V58.5156ZM29.7328 58.4595V53.6475C29.7328 53.1502 29.3991 52.8174 28.9007 52.8174C28.4022 52.8174 28.0686 53.1502 28.0686 53.6475V58.9166C28.0686 59.5622 28.3821 59.875 29.0293 59.875H32.856V58.4595H29.7287H29.7328ZM46.1812 52.9377V57.4891L43.5443 53.2505C43.3755 52.9658 43.0901 52.8174 42.7243 52.8174C42.0249 52.8174 41.6993 53.1221 41.6993 53.7758V59.875H43.3072V55.4279L45.924 59.5502C46.145 59.8951 46.338 59.9913 46.8163 59.9913C47.4595 59.9913 47.7891 59.6505 47.7891 58.9768V52.9377H46.1812ZM66.3921 53.455C65.9821 53.1181 65.3992 52.9377 64.7079 52.9377H62.3724C61.7253 52.9377 61.4117 53.2505 61.4117 53.8961V59.875H63.0759V57.3046H64.6998C65.4274 57.3046 66.0384 57.0881 66.4645 56.683C66.8745 56.2901 67.0955 55.7527 67.0955 55.1191C67.0955 54.3933 66.8584 53.8319 66.3921 53.451M64.4305 56.0013H63.0759V54.245H64.2737C65.0415 54.245 65.4314 54.5417 65.4314 55.1231C65.4314 55.6485 65.0294 56.0013 64.4305 56.0013ZM73.5351 52.8174C73.0366 52.8174 72.703 53.1502 72.703 53.6475V55.472H70.0701V53.6475C70.0701 53.1502 69.7365 52.8174 69.238 52.8174C68.7396 52.8174 68.406 53.1502 68.406 53.6475V59.875H70.0701V56.8876H72.703V59.875H74.3671V53.6475C74.3671 53.1502 74.0335 52.8174 73.5351 52.8174ZM88.8259 57.8419C88.8259 57.2645 88.7294 56.667 88.0661 56.4665C88.6611 56.2259 89.059 55.5963 89.059 54.8625C89.059 54.2851 88.8299 52.9377 86.6914 52.9377H84.151C83.5038 52.9377 83.1903 53.2505 83.1903 53.8961V59.875H84.8544V57.1562H86.2935C87.0451 57.1562 87.2743 57.5773 87.2743 58.8525C87.2743 59.1211 87.3426 59.9953 88.247 59.9953C88.44 59.9953 88.6329 59.9312 88.7776 59.8149C88.9384 59.6906 89.0309 59.5181 89.0309 59.3297C89.0309 59.1973 88.9987 59.073 88.9585 58.9247C88.8982 58.7001 88.8259 58.2951 88.8259 57.8339M86.3136 55.9091H84.8585V54.245H86.3618C87.0974 54.245 87.3989 54.4856 87.3989 55.075C87.3989 55.6645 87.0532 55.9051 86.3136 55.9051M24.8167 53.5592C24.7291 53.3403 24.5777 53.1526 24.3821 53.0204C24.1865 52.8881 23.9556 52.8174 23.7193 52.8174C23.2209 52.8174 22.8189 53.1101 22.638 53.5231L20.2343 59.875H21.9426L22.4933 58.3432H24.8489L25.3915 59.875H27.0918L24.8207 53.5592H24.8167ZM22.8712 57.1522L23.6872 54.7302L24.467 57.1522H22.8712ZM38.4434 53.5592C38.3558 53.3403 38.2044 53.1526 38.0088 53.0204C37.8132 52.8881 37.5823 52.8174 37.346 52.8174C36.8476 52.8174 36.4456 53.1101 36.2647 53.5231L33.8609 59.875H35.5693L36.12 58.3432H38.4755L39.0182 59.875H40.7185L38.4474 53.5592H38.4434ZM36.4978 57.1522L37.3138 54.7302L38.0977 57.1522H36.4978ZM79.9384 53.5592C79.8508 53.3403 79.6994 53.1526 79.5038 53.0204C79.3082 52.8881 79.0773 52.8174 78.841 52.8174C78.3426 52.8174 77.9406 53.1101 77.7597 53.5231L75.356 59.875H77.0643L77.615 58.3432H79.9705L80.5132 59.875H82.2135L79.9424 53.5592H79.9384ZM77.9929 57.1522L78.8089 54.7302L79.5887 57.1522H77.9929ZM103.252 53.5592C103.165 53.3403 103.013 53.1526 102.818 53.0204C102.622 52.8881 102.391 52.8174 102.155 52.8174C101.657 52.8174 101.255 53.1101 101.074 53.5231L98.67 59.875H100.378L100.929 58.3432H103.285L103.827 59.875H105.528L103.256 53.5592H103.252ZM101.307 57.1522L102.123 54.7302L102.903 57.1522H101.307ZM54.4617 53.6434C53.9191 53.1743 53.1553 52.9377 52.1987 52.9377H50.3376C49.6904 52.9377 49.3769 53.2505 49.3769 53.8961V59.875H52.1705C53.1875 59.875 54.0276 59.5663 54.5944 58.9768C55.1612 58.3913 55.4586 57.461 55.4586 56.4064C55.4586 55.1793 55.125 54.2129 54.4658 53.6434M53.4568 57.874C53.1875 58.3031 52.7855 58.5156 52.2549 58.5156H51.041V54.3011H52.2469C52.7373 54.3011 53.1393 54.4575 53.4206 54.8344C53.702 55.2154 53.7985 55.7487 53.7985 56.4064C53.7985 56.8033 53.7503 57.4129 53.4608 57.874" fill="#ABABAB"/>
</g>
<defs>
<clipPath id="clip0_2259_50114">
<rect width="112" height="80" fill="white"/>
</clipPath>
</defs>
</svg>
