<svg width="390" height="75" viewBox="0 0 390 75" fill="none" xmlns="http://www.w3.org/2000/svg">
<path d="M207.759 0L205.562 10.9963H219.253L221.409 0H207.759Z" fill="#25B68B"/>
<path d="M36.8959 29.3753C26.2079 29.4025 14.3598 32.9074 0 43.7952C23.8397 36.1344 38.254 37.3751 49.3788 40.4123L54.1562 32.0125C48.6075 30.4939 42.9428 29.3618 36.8959 29.3686V29.3753Z" fill="#25B68B"/>
<path d="M376.316 0L371.914 22.5959C370.494 20.1349 368.768 18.3248 366.72 17.1723C364.7 15.9927 362.236 15.4029 359.329 15.4029C356.018 15.4029 352.906 16.2232 349.999 17.8503C347.119 19.4841 344.525 21.884 342.225 25.0433C340.403 27.5584 339.004 30.3448 338.014 33.4091C337.052 36.4734 336.574 39.6191 336.574 42.8596C336.574 48.0595 337.966 52.161 340.744 55.1779C343.522 58.188 347.303 59.6998 352.08 59.6998C354.79 59.6998 357.274 59.1167 359.547 57.9642C361.827 56.7846 363.997 54.9677 366.072 52.5068L364.823 58.6083H378.507L390 0H376.316ZM71.0276 2.3728L39.0253 58.6015H53.9993L76.9039 16.4944L83.8449 58.6015H97.727L87.7147 2.3728H71.0276ZM136.984 15.4029C134.282 15.4029 131.79 15.9927 129.518 17.1723C127.238 18.3248 125.068 20.1349 123 22.5959L124.256 16.4198H110.606L99.1875 74.6484H112.837L117.199 52.5C118.591 54.9609 120.297 56.7778 122.317 57.9574C124.365 59.11 126.842 59.693 129.75 59.693C133.06 59.693 136.158 58.8795 139.039 57.2456C141.946 55.6118 144.546 53.2186 146.846 50.0526C148.669 47.5442 150.054 44.7511 151.016 41.6868C151.999 38.6225 152.497 35.4768 152.497 32.2362C152.497 27.0364 151.105 22.9349 148.327 19.9248C145.55 16.9147 141.769 15.4029 136.991 15.4029H136.984ZM186.602 15.4029C183.845 15.4029 181.203 15.9927 178.678 17.1723C176.153 18.3519 173.634 20.1621 171.13 22.5959L172.385 16.4198H158.735L150.47 58.6015H164.086L168.181 37.8496C168.966 34.0057 170.352 31.0092 172.351 28.8465C174.372 26.6635 176.788 25.5653 179.593 25.5653C181.237 25.5653 182.507 26.0059 183.387 26.8873C184.295 27.7618 184.752 29.0092 184.752 30.616C184.752 31.1922 184.657 31.9854 184.486 32.9888C184.336 33.965 184.104 35.1717 183.804 36.6022L179.518 58.6015H193.127L198.17 32.9142C198.395 31.7617 198.559 30.6905 198.662 29.7143C198.784 28.7381 198.853 27.8432 198.853 27.0432C198.853 23.3552 197.788 20.4875 195.665 18.4536C193.543 16.4198 190.526 15.4029 186.609 15.4029H186.602ZM249.003 15.4029C246.402 15.4029 243.898 16.013 241.502 17.213C239.1 18.4197 236.834 20.2095 234.711 22.5959L235.967 16.4198H222.317L214.052 58.6015H227.661L231.756 37.8496C232.486 34.0599 233.79 31.0702 235.66 28.8872C237.557 26.6771 239.755 25.5721 242.26 25.5721C243.645 25.5721 244.737 25.972 245.522 26.7788C246.307 27.5584 246.696 28.6499 246.696 30.06C246.696 30.616 246.621 31.3753 246.471 32.3583C246.32 33.3142 246.054 34.7311 245.672 36.6158L241.311 58.6151H254.995L259.09 37.8632C259.875 33.9243 261.158 30.8939 262.953 28.7855C264.775 26.65 266.987 25.5856 269.594 25.5856C270.959 25.5856 272.03 25.9856 272.815 26.7924C273.62 27.5923 274.03 28.6906 274.03 30.0736C274.03 30.9549 273.702 32.9481 273.04 36.0666L272.924 36.6293L268.638 58.6286H282.322L287.366 32.9413C287.591 31.7074 287.755 30.616 287.857 29.6601C287.987 28.677 288.048 27.816 288.048 27.0635C288.048 23.4501 286.943 20.6095 284.745 18.5486C282.568 16.4673 279.585 15.4232 275.798 15.4232C272.917 15.4232 270.14 16.1147 267.457 17.4977C264.803 18.874 262.427 20.8603 260.325 23.4501C259.895 21.0908 258.633 19.1655 256.537 17.6876C254.442 16.1825 251.924 15.4232 248.989 15.4232L249.003 15.4029ZM316.263 15.4029C311.84 15.4029 307.807 16.1825 304.169 17.7418C300.552 19.2943 297.446 21.579 294.846 24.5958C292.648 27.1042 290.963 29.8838 289.802 32.921C288.663 35.931 288.096 39.0496 288.096 42.263C288.096 47.8086 289.891 52.1068 293.481 55.144C297.092 58.1812 302.217 59.6998 308.837 59.6998C312.223 59.6998 315.546 59.3947 318.809 58.7913C322.091 58.2151 325.395 57.3202 328.705 56.1134L330.793 45.646C327.306 47.3273 323.968 48.595 320.788 49.4492C317.628 50.3035 314.618 50.7306 311.758 50.7306C308.448 50.7306 305.957 50.0526 304.292 48.6967C302.647 47.3408 301.828 45.2934 301.828 42.5613C301.828 42.4122 301.842 42.1952 301.862 41.9173C301.89 41.6122 301.896 41.3885 301.896 41.2393H333.673L334.124 39.097C334.431 37.7615 334.643 36.548 334.765 35.4429C334.916 34.3108 334.997 33.2464 334.997 32.243C334.997 27.0974 333.305 23.0026 329.92 19.9655C326.555 16.9283 322.01 15.4097 316.27 15.4097L316.263 15.4029ZM204.572 16.4198L196.307 58.6015H209.916L218.222 16.4198H204.572ZM314.782 24.3653C316.857 24.3653 318.495 24.9551 319.71 26.1347C320.924 27.3144 321.532 28.9075 321.532 30.921C321.532 31.2464 321.505 31.5854 321.457 31.938C321.429 32.2634 321.382 32.5888 321.3 32.9142H303.746C304.736 30.1007 306.148 27.9788 307.991 26.5483C309.861 25.0907 312.12 24.3585 314.782 24.3585V24.3653ZM131.449 25.1992C133.722 25.1992 135.455 25.8771 136.643 27.233C137.858 28.5618 138.458 30.5075 138.458 33.0701C138.458 37.992 137.346 42.0325 135.121 45.1985C132.896 48.3374 130.077 49.9035 126.665 49.9035C124.44 49.9035 122.693 49.2526 121.43 47.9442C120.195 46.6154 119.574 44.7985 119.574 42.4868C119.574 37.3683 120.673 33.2057 122.877 30.0194C125.102 26.8059 127.955 25.1992 131.442 25.1992H131.449ZM362.434 25.1992C364.632 25.1992 366.338 25.85 367.553 27.1584C368.788 28.4669 369.409 30.2838 369.409 32.6227C369.409 37.7683 368.31 41.9376 366.113 45.124C363.935 48.3103 361.11 49.9035 357.622 49.9035C355.343 49.9035 353.602 49.2391 352.388 47.9103C351.2 46.5544 350.613 44.5952 350.613 42.0325C350.613 37.1107 351.726 33.0837 353.95 29.9448C356.175 26.7788 359.008 25.1992 362.448 25.1992H362.434Z" fill="#1D467E"/>
<path d="M66.448 35.7141L61.6774 44.4867C73.5324 48.7103 83.9746 51.3272 105.016 38.2903C90.2945 42.6156 78.2553 39.4225 66.4549 35.7141H66.448Z" fill="#25B68B"/>
</svg>
