<svg width="256" height="49" viewBox="0 0 256 49" fill="none" xmlns="http://www.w3.org/2000/svg">
<g clip-path="url(#clip0_39_7771)">
<path d="M136.375 0L134.933 7.21805H143.92L145.335 0H136.375Z" fill="#FFF3FD"/>
<path d="M24.2188 19.2823C17.2032 19.3001 9.4259 21.6008 0 28.7476C15.6486 23.719 25.1103 24.5334 32.4127 26.527L35.5487 21.0134C31.9065 20.0165 28.1881 19.2734 24.2188 19.2778V19.2823Z" fill="#FFF3FD"/>
<path d="M247.018 0L244.128 14.8322C243.196 13.2168 242.063 12.0286 240.719 11.2721C239.393 10.4978 237.775 10.1106 235.867 10.1106C233.694 10.1106 231.651 10.6491 229.743 11.7171C227.852 12.7896 226.15 14.3649 224.64 16.4387C223.444 18.0896 222.525 19.9186 221.876 21.9301C221.244 23.9415 220.931 26.0064 220.931 28.1335C220.931 31.5467 221.844 34.239 223.668 36.2193C225.491 38.1952 227.973 39.1875 231.109 39.1875C232.888 39.1875 234.518 38.8048 236.01 38.0483C237.507 37.274 238.931 36.0814 240.293 34.466L239.473 38.4711H248.456L256 0H247.018ZM46.6231 1.55753L25.6165 38.4666H35.4456L50.4804 10.8271L55.0365 38.4666H64.1488L57.5767 1.55753H46.6231ZM89.9177 10.1106C88.1437 10.1106 86.5085 10.4978 85.0166 11.2721C83.5203 12.0286 82.0957 13.2168 80.7382 14.8322L81.5626 10.7781H72.6026L65.1076 49H74.0675L76.9303 34.4615C77.8442 36.0769 78.9642 37.2695 80.2902 38.0439C81.6342 38.8004 83.2605 39.1831 85.1689 39.1831C87.3417 39.1831 89.3757 38.6491 91.2662 37.5766C93.1747 36.5041 94.8816 34.9333 96.3913 32.8551C97.5875 31.2085 98.4969 29.3751 99.1286 27.3636C99.7737 25.3522 100.101 23.2873 100.101 21.1602C100.101 17.747 99.1868 15.0547 97.3635 13.0788C95.5401 11.103 93.0582 10.1106 89.9222 10.1106H89.9177ZM122.487 10.1106C120.677 10.1106 118.944 10.4978 117.286 11.2721C115.628 12.0464 113.975 13.2346 112.331 14.8322L113.155 10.7781H104.195L98.7702 38.4666H107.708L110.396 24.8449C110.911 22.3217 111.82 20.3547 113.133 18.9352C114.459 17.5022 116.045 16.7813 117.886 16.7813C118.966 16.7813 119.799 17.0706 120.377 17.6491C120.973 18.2231 121.273 19.042 121.273 20.0966C121.273 20.4749 121.21 20.9956 121.098 21.6542C121 22.295 120.848 23.0871 120.65 24.0261L117.837 38.4666H126.77L130.081 21.6052C130.229 20.8487 130.336 20.1456 130.403 19.5048C130.484 18.864 130.529 18.2765 130.529 17.7514C130.529 15.3306 129.83 13.4482 128.437 12.1132C127.043 10.7781 125.063 10.1106 122.492 10.1106H122.487ZM163.448 10.1106C161.741 10.1106 160.097 10.5111 158.524 11.2988C156.947 12.0909 155.46 13.2657 154.067 14.8322L154.891 10.7781H145.931L140.506 38.4666H149.439L152.127 24.8449C152.606 22.3573 153.462 20.3948 154.689 18.9619C155.935 17.5111 157.377 16.7858 159.022 16.7858C159.931 16.7858 160.648 17.0483 161.163 17.5779C161.678 18.0896 161.934 18.8061 161.934 19.7317C161.934 20.0966 161.884 20.595 161.786 21.2403C161.687 21.8678 161.512 22.7978 161.262 24.035L158.399 38.4755H167.381L170.069 24.8538C170.584 22.2683 171.427 20.2791 172.605 18.8951C173.801 17.4933 175.253 16.7947 176.964 16.7947C177.86 16.7947 178.563 17.0572 179.078 17.5868C179.607 18.1119 179.876 18.8328 179.876 19.7406C179.876 20.3191 179.661 21.6275 179.226 23.6745L179.15 24.0439L176.337 38.4844H185.319L188.63 21.623C188.778 20.8131 188.885 20.0966 188.952 19.4692C189.037 18.8239 189.078 18.2587 189.078 17.7648C189.078 15.3929 188.352 13.5283 186.91 12.1755C185.48 10.8093 183.523 10.124 181.036 10.124C179.146 10.124 177.322 10.5779 175.562 11.4857C173.819 12.3891 172.26 13.6929 170.88 15.3929C170.598 13.8442 169.769 12.5804 168.394 11.6103C167.018 10.6224 165.365 10.124 163.439 10.124L163.448 10.1106ZM207.598 10.1106C204.695 10.1106 202.047 10.6224 199.66 11.6459C197.285 12.665 195.247 14.1647 193.54 16.1449C192.097 17.7915 190.991 19.616 190.229 21.6097C189.481 23.5855 189.109 25.6325 189.109 27.7419C189.109 31.3821 190.287 34.2034 192.644 36.1971C195.014 38.1907 198.378 39.1875 202.724 39.1875C204.946 39.1875 207.128 38.9873 209.269 38.5912C211.424 38.213 213.592 37.6256 215.765 36.8334L217.136 29.9625C214.847 31.0661 212.656 31.8983 210.568 32.459C208.494 33.0197 206.518 33.3001 204.641 33.3001C202.469 33.3001 200.833 32.8551 199.74 31.965C198.661 31.075 198.123 29.7311 198.123 27.9377C198.123 27.8398 198.132 27.6974 198.145 27.5149C198.163 27.3147 198.168 27.1678 198.168 27.0699H219.027L219.322 25.6637C219.524 24.787 219.663 23.9905 219.743 23.2651C219.842 22.5219 219.896 21.8233 219.896 21.1647C219.896 17.787 218.785 15.0992 216.563 13.1055C214.354 11.1119 211.37 10.1151 207.603 10.1151L207.598 10.1106ZM134.283 10.7781L128.858 38.4666H137.791L143.243 10.7781H134.283ZM206.626 15.9936C207.988 15.9936 209.063 16.3808 209.86 17.1551C210.658 17.9294 211.057 18.9752 211.057 20.2969C211.057 20.5105 211.039 20.733 211.007 20.9644C210.989 21.178 210.958 21.3916 210.904 21.6052H199.382C200.031 19.7584 200.959 18.3655 202.168 17.4266C203.396 16.4698 204.879 15.9892 206.626 15.9892V15.9936ZM86.2845 16.541C87.7763 16.541 88.9142 16.986 89.6937 17.876C90.4912 18.7483 90.8854 20.0254 90.8854 21.7076C90.8854 24.9383 90.1552 27.5906 88.6947 29.6688C87.2342 31.7292 85.384 32.7572 83.144 32.7572C81.6835 32.7572 80.5366 32.3299 79.7078 31.4711C78.897 30.5989 78.4893 29.4062 78.4893 27.8887C78.4893 24.5289 79.2106 21.7966 80.6576 19.705C82.1181 17.5957 83.9907 16.541 86.28 16.541H86.2845ZM237.905 16.541C239.348 16.541 240.468 16.9682 241.265 17.8271C242.076 18.686 242.484 19.8786 242.484 21.4139C242.484 24.7915 241.762 27.5283 240.32 29.6198C238.891 31.7114 237.036 32.7572 234.747 32.7572C233.251 32.7572 232.108 32.321 231.311 31.4488C230.531 30.5588 230.146 29.2727 230.146 27.5906C230.146 24.3598 230.876 21.7165 232.337 19.6561C233.797 17.5779 235.656 16.541 237.914 16.541H237.905Z" fill="#FFF3FD"/>
<path d="M43.6171 23.4431L40.4856 29.2015C48.2673 31.9739 55.1217 33.6917 68.9335 25.1342C59.2702 27.9733 51.3675 25.8773 43.6216 23.4431H43.6171Z" fill="#FFF3FD"/>
</g>
<defs>
<clipPath id="clip0_39_7771">
<rect width="256" height="49" fill="white"/>
</clipPath>
</defs>
</svg>
