<svg width="92" height="84" viewBox="0 0 92 84" fill="none" xmlns="http://www.w3.org/2000/svg">
<path d="M41.4418 45.3258C64.2439 46.2749 44.9296 45.7718 49.5952 46.6409C52.5455 45.829 55.919 45.7375 59.7384 46.6637C78.6296 51.2722 90.9912 68.0135 91.9746 84.0001H0.000106707C0.000106707 69.1571 18.6397 44.3767 41.4418 45.3258Z" fill="#0688C8"/>
<path d="M62.4487 3.96387C62.4487 3.96387 68.5094 10.8251 65.1817 18.3838C61.854 25.9426 58.2748 4.64999 58.2748 4.64999L62.4487 3.96387Z" fill="#A2AEB4"/>
<path d="M42.0589 34.7822L41.8301 48.3903C41.8301 48.3903 44.2201 52.3469 52.1677 53.1245C58.0912 53.7077 60.1953 52.4041 60.1953 52.4041L59.4863 45.4971L58.7888 38.7617L44.4717 35.354L42.0703 34.7822H42.0589Z" fill="#8F3F2D"/>
<path d="M44.4609 35.354C44.4838 35.7314 42.2654 36.8978 42.4826 37.4009C45.4101 44.2507 56.3308 47.6927 59.75 48.0587L58.7894 38.7617L44.4724 35.354H44.4609Z" fill="black"/>
<path d="M59.864 4.63837C61.7279 6.15927 63.043 8.25194 63.8092 10.539C65.5931 15.7878 69.1723 28.0465 66.8281 35.571C63.7748 45.3368 54.9696 43.5071 49.7322 41.4373C44.4949 39.3675 42.1506 35.9941 42.1506 35.9941C42.1506 35.9941 37.1419 37.5379 33.9858 32.7693C30.8296 28.0008 33.0481 22.7062 35.9183 21.5627C38.7886 20.4191 42.082 22.5919 42.082 22.5919L39.6234 17.4117C39.6234 17.4117 49.5264 -3.77805 59.864 4.63837Z" fill="#8F3F2D"/>
<path d="M41.3512 29.2132C41.5227 29.2132 41.6943 29.1332 41.8086 28.9845C41.9916 28.7329 41.9459 28.3784 41.6943 28.184L36.7199 24.479C36.4683 24.2846 36.1138 24.3418 35.9194 24.5933C35.725 24.8449 35.7822 25.1994 36.0338 25.3938L41.0082 29.0989C41.1111 29.1789 41.2254 29.2132 41.3512 29.2132Z" fill="black"/>
<path d="M35.7583 29.0533C35.7583 29.0533 35.8498 29.0533 35.8955 29.0419L39.9551 28.0699C40.2639 28.0013 40.4468 27.6925 40.3782 27.3838C40.3096 27.075 40.0008 26.892 39.6921 26.9607L35.6325 27.9327C35.3238 28.0013 35.1408 28.31 35.2094 28.6188C35.2666 28.8818 35.5067 29.0533 35.7698 29.0533H35.7583Z" fill="black"/>
<path d="M63.8659 20.499C63.8659 20.499 63.9574 20.499 64.0031 20.4761C64.3119 20.3961 64.4949 20.0873 64.4148 19.7786L63.6143 16.6453C63.5343 16.3365 63.2255 16.1536 62.9168 16.2336C62.608 16.3137 62.4251 16.6224 62.5051 16.9312L63.3056 20.0645C63.3742 20.3275 63.6029 20.499 63.8545 20.499H63.8659Z" fill="black"/>
<path d="M55.2429 20.957C55.2429 20.957 55.3343 20.957 55.3801 20.9342C55.6888 20.8541 55.8718 20.5454 55.7918 20.2366L54.9913 17.1033C54.9112 16.7946 54.6025 16.6116 54.2937 16.6916C53.985 16.7717 53.802 17.0804 53.8821 17.3892L54.6825 20.5225C54.7511 20.7855 54.9798 20.957 55.2314 20.957H55.2429Z" fill="black"/>
<path d="M64.3584 13.6494C64.6443 13.6494 64.8959 13.4321 64.9302 13.1348C64.9645 12.8261 64.7358 12.5402 64.427 12.5059L61.8426 12.2314C61.5225 12.1971 61.248 12.4258 61.2137 12.7346C61.1794 13.0433 61.4081 13.3292 61.7169 13.3635L64.3012 13.638C64.3012 13.638 64.347 13.638 64.3584 13.638V13.6494Z" fill="#6C6B7C"/>
<path d="M52.6476 15.7307C52.7163 15.7307 52.7963 15.7193 52.8649 15.685L56.3756 14.2212C56.6615 14.0955 56.7987 13.7638 56.6843 13.4779C56.5585 13.1806 56.2269 13.0434 55.941 13.1692L52.4304 14.6329C52.1445 14.7587 52.0073 15.0903 52.1216 15.3762C52.2131 15.5935 52.4304 15.7307 52.6476 15.7307Z" fill="#6C6B7C"/>
<path d="M42.0708 22.6034C42.0708 22.6034 43.4773 28.2639 44.5637 27.5778C45.65 26.8917 46.6678 18.7268 45.8559 15.0675C45.0439 11.4082 44.4607 9.57854 44.4607 9.57854C44.4607 9.57854 59.3267 8.25204 63.2376 4.72995C67.1599 1.19643 58.8807 -1.07921 50.4186 0.52174C41.9564 2.12269 38.6173 5.30172 38.6173 5.30172C38.6173 5.30172 33.3113 4.51268 31.333 7.74888C29.3546 10.9851 33.8602 23.2781 33.8602 23.2781C33.8602 23.2781 35.1981 20.1905 42.0708 22.6148V22.6034Z" fill="#A2AEB4"/>
<path d="M70.4183 28.447C70.4183 28.447 66.2672 23.85 64.1517 24.5361C62.0361 25.2222 61.27 28.3212 61.27 28.3212C61.27 28.3212 58.7656 24.8449 55.9983 25.8283C53.2309 26.8003 47.296 27.1663 47.2388 28.1268C47.1816 29.0874 48.8969 29.4305 48.8969 29.4305C48.8969 29.4305 62.8595 31.0428 70.4297 28.4584L70.4183 28.447Z" fill="#A2AEB4"/>
<path d="M42.0714 22.603C42.0714 22.603 42.323 31.7856 42.14 35.9938C41.957 40.202 53.6668 46.7659 61.7516 43.1409C69.8364 39.5159 67.6179 28.9268 67.6179 28.9268L60.4137 29.59C60.4137 29.59 58.7555 28.6523 56.8687 28.2635C54.9819 27.8747 52.4661 28.9039 52.4661 28.9039L42.0714 22.603Z" fill="#A2AEB4"/>
<path d="M59.2803 31.6828C59.5662 31.6828 59.8178 31.4656 59.8521 31.1683C59.8864 30.8595 59.6577 30.5736 59.3489 30.5393C59.326 30.5393 56.8789 30.2534 55.9869 28.4695C55.8497 28.1836 55.5066 28.0807 55.2207 28.2179C54.9349 28.3552 54.8205 28.6982 54.9692 28.9841C56.147 31.3398 59.1088 31.6714 59.2346 31.6828C59.2574 31.6828 59.2803 31.6828 59.2917 31.6828H59.2803Z" fill="black"/>
<path d="M61.5216 27.3031C61.7274 27.3031 61.9333 27.1888 62.0362 26.9829C64.0488 22.9691 61.1557 18.738 61.0299 18.5665C60.8469 18.3035 60.4924 18.2463 60.2294 18.4293C59.9664 18.6122 59.9092 18.9667 60.0922 19.2298C60.115 19.2641 62.7109 23.0835 61.007 26.4798C60.8698 26.7657 60.9841 27.1087 61.2586 27.2459C61.3386 27.2917 61.4301 27.3031 61.5102 27.3031H61.5216Z" fill="black"/>
<path d="M55.884 53.7418C59.8635 53.7418 62.9396 52.9642 63.2141 52.8956C63.5228 52.8155 63.7058 52.5068 63.6257 52.198C63.5457 51.8893 63.2369 51.7063 62.9282 51.7863C62.791 51.8207 48.7827 55.3427 41.7842 47.0407C41.5784 46.8005 41.2125 46.7662 40.9838 46.9721C40.7436 47.1779 40.7093 47.5324 40.9151 47.7725C44.9976 52.6097 51.0926 53.7304 55.884 53.7304V53.7418Z" fill="#FCB35B"/>
</svg>
