<svg width="85" height="84" viewBox="0 0 85 84" fill="none" xmlns="http://www.w3.org/2000/svg">
<path d="M30.1855 7.31843C30.1855 7.31843 43.5726 -4.62762 56.1677 2.00541C68.7627 8.63844 65.1877 24.5885 65.1877 24.5885C65.1877 24.5885 80.4668 27.6465 83.9428 46.5446C87.4188 65.4427 69.5657 70.3047 69.5657 70.3047L42.4726 56.6976L30.1855 7.31843Z" fill="black"/>
<path d="M54.8575 83.9999L44.3855 48.4808C44.3855 48.4808 36.3554 47.2707 27.2584 48.2278C26.8074 48.2718 26.3674 48.4368 25.9164 48.7008C20.2184 52.0008 15.7633 71.7019 13.4863 83.9999H54.8575Z" fill="#3E5600"/>
<path d="M20.2737 30.2427C20.2737 30.2427 15.7747 25.7877 16.5887 18.4506C17.1497 13.4786 19.2507 11.7626 19.2507 11.7626C19.2507 11.7626 15.5437 5.21759 25.4988 5.07459C35.4648 4.93159 41.5808 9.48561 41.5808 9.48561C41.5808 9.48561 46.0029 6.9996 48.3349 12.1916C50.6669 17.3726 49.0609 25.3037 49.0609 25.3037L20.2737 30.2317V30.2427Z" fill="black"/>
<path d="M42.5483 37.2275L42.8563 50.4056C42.8563 50.4056 40.8213 52.9356 33.7373 53.7276C28.4573 54.3216 26.6973 51.6486 26.6973 51.6486L27.6543 40.9786L40.4033 37.7665L42.5373 37.2275H42.5483Z" fill="#FCA397"/>
<path d="M42.5153 36.4907C42.4933 36.8207 42.3833 37.2167 42.1963 37.6787C39.6553 43.8278 30.1732 46.6438 27.1152 47.0178L27.6652 40.9897L42.5153 36.5017V36.4907Z" fill="black"/>
<path d="M24.1117 13.3685C24.1117 13.3685 18.1937 28.8016 20.9657 37.1836C23.7377 45.5656 31.4157 43.8826 35.9697 42.0236C40.5238 40.1646 42.5478 37.2276 42.5478 37.2276C42.5478 37.2276 46.9368 38.4926 49.6538 34.3456C52.3708 30.1986 50.3688 25.6445 47.8498 24.6985C45.3308 23.7525 42.4708 25.6665 42.4708 25.6665L44.5718 21.1675C44.5718 21.1675 33.8687 -0.722579 24.1117 13.3685Z" fill="#FCA397"/>
<path d="M42.4813 25.6775C42.4813 25.6775 36.0573 27.3495 31.1403 20.3645C26.2232 13.3794 26.4762 10.3874 26.4762 10.3874L22.3952 18.1094C22.3952 18.1094 21.0972 12.9834 22.9892 9.57341C24.8812 6.1524 27.0702 6.7244 27.0702 6.7244L41.6013 9.50741L46.0123 20.7935L42.4923 25.6885L42.4813 25.6775Z" fill="black"/>
<path d="M25.6645 32.6191C25.4445 32.6191 25.2355 32.4871 25.1475 32.2561C23.9705 29.0441 26.0935 25.612 26.1815 25.469C26.3465 25.216 26.6765 25.139 26.9405 25.293C27.1935 25.458 27.2705 25.799 27.1165 26.052C27.0945 26.085 25.1915 29.1761 26.1815 31.8821C26.2805 32.1681 26.1375 32.4871 25.8515 32.5861C25.7855 32.6081 25.7195 32.6191 25.6645 32.6191Z" fill="black"/>
<path d="M43.4718 32.8056C43.3508 32.8056 43.2188 32.7616 43.1198 32.6736C42.8888 32.4756 42.8558 32.1346 43.0538 31.9036L46.9369 27.3386C47.1349 27.1076 47.4759 27.0746 47.7069 27.2726C47.9379 27.4706 47.9709 27.8116 47.7729 28.0536L43.8898 32.6186C43.7798 32.7506 43.6258 32.8166 43.4718 32.8166V32.8056Z" fill="black"/>
<path d="M47.7628 31.409L44.8478 31.123C44.5508 31.09 44.3198 30.826 44.3528 30.518C44.3858 30.221 44.6608 30.001 44.9578 30.023L47.8178 30.309C48.1148 30.342 48.3458 30.606 48.3128 30.914C48.2798 31.2 48.0488 31.409 47.7628 31.409Z" fill="black"/>
<path d="M22.066 20.3975C21.8129 20.3975 21.5929 20.2215 21.5269 19.9685C21.4609 19.6715 21.648 19.3745 21.934 19.3085L24.596 18.6925C24.893 18.6265 25.19 18.8135 25.256 19.0995C25.322 19.3965 25.135 19.6935 24.849 19.7595L22.187 20.3755C22.187 20.3755 22.099 20.3865 22.066 20.3865V20.3975Z" fill="black"/>
<path d="M33.3299 21.5525C33.2529 21.5525 33.1759 21.5415 33.1099 21.5085L28.5889 19.5175C28.3139 19.3965 28.1818 19.0665 28.3029 18.7915C28.4239 18.5165 28.7539 18.3845 29.0289 18.5055L33.5499 20.4965C33.8249 20.6175 33.9569 20.9475 33.8359 21.2225C33.7479 21.4315 33.5389 21.5525 33.3299 21.5525Z" fill="black"/>
<path d="M22.4192 26.6123C22.4192 26.6123 22.3312 26.6123 22.2872 26.6013C21.9902 26.5243 21.8142 26.2273 21.8802 25.9303L22.4962 23.4443L21.8032 22.6853C21.5942 22.4653 21.6162 22.1133 21.8362 21.9043C22.0672 21.6953 22.4082 21.7173 22.6172 21.9373L23.5082 22.9163C23.6292 23.0483 23.6842 23.2463 23.6402 23.4223L22.9582 26.1943C22.8922 26.4473 22.6722 26.6123 22.4192 26.6123Z" fill="black"/>
<path d="M30.5805 26.7667C30.5805 26.7667 30.4925 26.7667 30.4485 26.7557C30.1515 26.6787 29.9755 26.3817 30.0415 26.0847L30.6575 23.5987L29.6345 22.5317C29.4255 22.3117 29.4365 21.9597 29.6565 21.7507C29.8765 21.5417 30.2285 21.5527 30.4375 21.7727L31.6695 23.0597C31.8015 23.1917 31.8455 23.3897 31.8015 23.5767L31.1195 26.3487C31.0535 26.6017 30.8335 26.7667 30.5805 26.7667Z" fill="black"/>
<path d="M32.329 54.7178C27.753 54.7178 26.114 51.9568 26.048 51.8248C25.894 51.5608 25.993 51.2198 26.246 51.0768C26.51 50.9228 26.84 51.0108 26.994 51.2748C27.06 51.3848 28.677 54.0028 33.352 53.5628C37.84 53.1448 42.5041 49.9878 42.5481 49.9548C42.8011 49.7788 43.1421 49.8448 43.3181 50.0978C43.4941 50.3508 43.4281 50.6918 43.1751 50.8568C42.9771 50.9888 38.236 54.2228 33.462 54.6628C33.066 54.6958 32.692 54.7178 32.34 54.7178H32.329Z" fill="#FFBF69"/>
<path d="M30.6464 35.2366C30.4593 35.2366 30.2833 35.1486 30.1843 34.9836C30.0193 34.7306 30.0963 34.3896 30.3603 34.2246C31.2734 33.6416 32.2524 32.7176 32.2414 32.2666C32.2414 31.9586 32.4724 31.7166 32.7804 31.7056C33.0884 31.7056 33.3304 31.9476 33.3414 32.2446C33.3744 33.5646 31.3504 34.9066 30.9433 35.1596C30.8553 35.2146 30.7564 35.2476 30.6464 35.2476V35.2366Z" fill="black"/>
<path d="M21.0981 83.9999C23.7711 65.1348 27.0051 48.5468 27.2361 48.2388C26.8291 48.3818 26.3891 48.5358 25.9161 48.7008C22.0661 50.0648 16.8081 52.1768 12.9581 54.6408C12.9361 54.6408 12.9141 54.6628 12.8921 54.6848C7.39203 57.5228 0 72.7139 0 83.9999H21.0981Z" fill="#89B90A"/>
<path d="M42.912 49.2068C42.912 49.2068 43.803 70.6129 44.639 83.9999H84.8002C80.9502 68.2699 73.4151 60.3168 69.6861 57.4678C69.6751 57.4458 69.6531 57.4348 69.6421 57.4238C68.5531 56.4228 67.2771 55.5208 65.8471 54.6958C65.7811 54.6518 65.7261 54.6298 65.6821 54.5968C58.2571 50.3068 47.323 48.1838 42.791 47.4468L42.835 49.1958H42.912V49.2068Z" fill="#89B90A"/>
</svg>
