<svg width="82" height="84" viewBox="0 0 82 84" fill="none" xmlns="http://www.w3.org/2000/svg">
<path d="M25.071 14.1897C25.071 14.1897 19.951 18.4831 19.4689 22.7995L18.9867 27.1044C18.9867 27.1044 12.8451 29.0674 10.9969 36.4833C8.48285 46.5509 15.3477 50.0522 15.3477 50.0522L68.6593 55.8035C68.6593 55.8035 74.9272 50.3163 73.6644 41.4884C72.4131 32.6605 67.2473 29.8595 67.2473 29.8595C67.2473 29.8595 68.0968 24.1885 65.2383 18.4946C61.9437 11.9168 55.1821 11.8594 55.1821 11.8594L25.071 14.1897Z" fill="#705763"/>
<path d="M52.6336 29.0439C51.015 33.3947 47.9269 37.78 50.6361 41.706C53.3453 45.6321 43.7254 40.5351 43.7254 40.5351L43.1055 32.2927L52.6336 29.0554V29.0439Z" fill="#ACA0A6"/>
<path d="M81.8041 83.9745C80.174 73.3329 75.1344 60.7053 70.4966 54.8621C66.8576 50.2817 62.4379 46.195 57.3524 44.209C55.4353 43.4628 53.4149 42.9118 51.3486 42.5215C50.4417 42.3378 49.5348 42.2 48.6164 42.0852C47.7899 41.9934 46.9748 41.913 46.1483 41.8442C45.4365 41.7983 44.7248 41.7638 44.013 41.7409C42.4174 41.6835 40.8332 41.6949 39.249 41.7638C36.6201 41.8786 34.0717 42.1312 31.7528 42.4526C31.0066 42.5559 30.3063 42.6707 29.6061 42.774C27.3675 43.1528 25.393 43.5546 23.8088 43.922C23.2004 44.0483 22.6379 44.2893 22.0984 44.5763C22.1443 44.5534 22.1902 44.5189 22.2017 44.496C22.2017 44.496 18.2182 46.0113 14.0626 50.2817C9.47073 55.0113 1.07909 69.0051 0 83.9745C0 84.0319 81.8041 83.9745 81.8041 83.9745ZM21.995 44.6222C21.8114 44.7256 21.6277 44.8059 21.4555 44.9092C21.4899 44.8059 21.7884 44.7141 21.995 44.6222Z" fill="#4C2C3B"/>
<path d="M46.3082 39.2842C46.3082 39.2842 50.0505 40.5125 51.187 42.2574C52.4613 44.209 50.0735 49.3633 43.3005 53.3697C38.3527 56.297 34.1627 57.3302 34.1627 57.3302C34.1627 57.3302 29.8463 51.3608 29.0198 47.7447C28.1932 44.1171 31.2239 39.3645 31.2239 39.3645L46.2967 39.2957L46.3082 39.2842Z" fill="#FF77B7"/>
<path d="M58.4442 22.5926C54.5985 38.9511 54.7593 28.2751 54.7593 28.2751C54.7593 28.2751 18.1506 31.0991 26.4619 20.8936C26.4619 20.8936 21.9619 14.0058 21.9963 10.6308C22.0192 8.30043 26.9211 2.87055 33.8203 0.815691C34.5091 0.609057 35.2094 0.436862 35.9326 0.310586C38.4811 -0.160081 41.2477 -0.137121 44.0947 0.666455C55.8728 3.9726 59.9366 16.2329 58.4442 22.5926Z" fill="#705763"/>
<path d="M31.2009 37.906L31.2354 38.2045L32.1652 43.8066L32.877 48.2033C32.877 48.2033 32.6244 49.2709 37.7214 48.3181C44.5518 47.0094 46.423 43.7836 46.423 43.7836L45.4587 33.3945L43.4153 34.0489L31.1895 37.9175L31.2009 37.906Z" fill="#F48462"/>
<path d="M31.2363 38.2047L32.1662 43.8068C35.4608 42.9917 41.3844 40.7991 43.2096 35.243C43.3474 34.7952 43.4277 34.3935 43.4277 34.0605L31.2478 38.1129V38.2047H31.2363Z" fill="black"/>
<path d="M25.7826 11.5033C25.7826 11.5033 21.1563 26.955 24.4625 34.9104C27.7686 42.8658 35.1271 40.6617 39.4205 38.5265C43.7139 36.3912 45.4702 33.3836 45.4702 33.3836C45.4702 33.3836 49.844 34.3019 52.1744 30.0545C54.5047 25.807 52.2318 21.5366 49.7177 20.8019C47.1922 20.0672 44.5519 22.145 44.5519 22.145L46.2623 17.6105C46.2623 17.6105 34.2431 -2.91514 25.7826 11.5033Z" fill="#F48462"/>
<path d="M28.1829 29.79C27.9648 29.79 27.7582 29.6637 27.6549 29.4571C26.2658 26.4035 28.0911 22.8907 28.16 22.7415C28.3092 22.4659 28.6536 22.3511 28.9291 22.5004C29.2046 22.6496 29.3194 22.994 29.1702 23.2695C29.1587 23.304 27.5401 26.4379 28.688 28.9749C28.8143 29.2619 28.688 29.6063 28.401 29.7326C28.3207 29.767 28.2403 29.7785 28.16 29.7785L28.1829 29.79Z" fill="black"/>
<path d="M45.9985 29.044C45.8837 29.044 45.7574 29.0096 45.6656 28.9292C45.413 28.7456 45.3556 28.3782 45.5393 28.1257L48.9832 23.396C49.1669 23.1435 49.5342 23.0861 49.7868 23.2698C50.0393 23.4534 50.0967 23.8093 49.913 24.0733L46.4691 28.803C46.3543 28.9522 46.1822 29.044 46.01 29.044H45.9985Z" fill="black"/>
<path d="M50.0623 27.3794L47.2383 27.3106C46.9169 27.3106 46.6758 27.0351 46.6758 26.7251C46.6758 26.4037 46.9513 26.1856 47.2612 26.1626L50.0738 26.2315C50.3952 26.2315 50.6363 26.507 50.6363 26.8169C50.6363 27.1269 50.3722 27.3794 50.0623 27.3794Z" fill="black"/>
<path d="M44.5519 22.1446C44.5519 22.1446 37.733 19.6879 34.8286 15.3716C31.9242 11.0667 31.5454 8.75927 31.5454 8.75927C31.5454 8.75927 30.9944 11.9047 28.7559 12.9149C26.5173 13.9251 25.0709 14.1892 25.0709 14.1892L24.1295 18.6777L23.7852 8.31156C23.7852 8.31156 29.6742 4.12148 30.5237 4.01817C31.3732 3.91485 42.2904 4.45439 42.9906 5.0169C43.6909 5.5794 48.122 13.443 48.122 13.443L48.8338 17.1624L44.5519 22.156V22.1446Z" fill="#705763"/>
<path d="M45.9766 40.0186C45.9766 40.0186 38.6755 46.8949 34.4051 46.9408C30.1347 46.9752 30.7316 43.428 30.7316 43.428L31.4319 51.6245L35.2087 52.8643L44.645 49.0645L49.9371 43.141L45.9651 40.03L45.9766 40.0186Z" fill="#FF77B7"/>
<path d="M38.2612 53.2778C38.2612 53.2778 41.464 57.6516 42.1069 64.5279C42.7612 71.3927 38.7663 79.1186 38.7663 79.1186C38.7663 79.1186 32.3721 71.8749 31.5226 66.3991C30.6731 60.9233 33.6004 53.1515 33.6004 53.1515C33.6004 53.1515 30.7075 59.7409 29.9843 63.7817C29.2726 67.8111 28.2853 72.9999 28.2853 72.9999C28.2853 72.9999 24.4052 67.857 24.6348 61.7498C24.8644 55.6426 31.4193 51.6362 31.4193 51.6362L38.2382 53.2893L38.2612 53.2778Z" fill="#FF77B7"/>
<path d="M37.4347 55.2977C35.6668 55.2977 33.3939 54.6778 33.0724 54.5975C33.038 54.5975 33.015 54.5745 32.9806 54.563C32.8543 54.5056 32.751 54.4023 32.6936 54.2646C32.3033 53.3577 30.4436 48.7199 31.649 47.0553C31.8786 46.7339 32.3377 46.3665 33.1528 46.4239C33.8071 46.4813 34.3122 46.7798 34.6337 47.3079C35.5865 48.8806 34.5304 52.2212 34.0023 53.6447C35.2421 53.9431 37.3544 54.3334 38.3301 54.0579C39.3633 53.7594 39.9488 50.2122 39.5355 48.2033C39.4781 47.8933 39.6732 47.5949 39.9832 47.526C40.2817 47.4686 40.6031 47.6637 40.6605 47.9737C41.0278 49.7875 40.7868 54.5515 38.6516 55.1714C38.3072 55.2748 37.8939 55.3092 37.4347 55.3092V55.2977ZM32.9691 47.5604C32.7051 47.5604 32.6247 47.6637 32.5903 47.7211C32.1081 48.387 32.5903 50.5337 33.2217 52.3934C33.7612 50.7288 34.1515 48.7199 33.6579 47.9048C33.5316 47.6982 33.3479 47.5834 33.061 47.5604C33.0265 47.5604 32.9921 47.5604 32.9691 47.5604Z" fill="#F5147D"/>
<path d="M37.2404 64.5967C36.7468 64.5967 36.322 64.39 36.0006 63.9883C34.4738 62.0941 35.8973 55.5507 36.058 54.816C36.1154 54.5634 36.322 54.3798 36.5746 54.3683C36.8271 54.3568 37.0682 54.506 37.1485 54.7471C37.5848 55.964 39.7315 62.1171 38.4343 63.9768C38.1473 64.3786 37.734 64.5967 37.2404 64.5967ZM36.7697 57.2497C36.3909 59.6719 36.2302 62.4385 36.896 63.2765C36.9993 63.4028 37.0797 63.4143 37.2404 63.4487C37.3781 63.4487 37.447 63.4028 37.5044 63.3224C38.044 62.5418 37.5044 59.7637 36.7697 57.2497Z" fill="#F5147D"/>
<path d="M33.3591 24.1768C33.0033 24.1424 32.7852 23.9013 32.7852 23.6028C32.7852 23.5454 33.0607 20.7329 33.0607 20.7329C33.0951 20.4115 33.3821 20.1819 33.6921 20.2163C33.9905 20.2393 34.2086 20.4918 34.2086 20.7903C34.2086 20.8477 33.9331 23.6602 33.9331 23.6602C33.8987 23.9587 33.6576 24.1768 33.3591 24.1768Z" fill="black"/>
<path d="M25.0718 23.959C25.0718 23.959 25.0259 23.959 24.9914 23.959C24.7044 23.9246 24.4863 23.672 24.4863 23.385C24.4863 23.3621 24.4863 23.3391 24.4863 23.3047L24.8537 20.4922C24.8996 20.1822 25.1866 19.9526 25.4965 19.9985C25.7835 20.033 26.0016 20.2855 26.0016 20.5725C26.0016 20.5955 26.0016 20.6184 26.0016 20.6414L25.6343 23.4539C25.5999 23.7409 25.3473 23.959 25.0603 23.959H25.0718Z" fill="black"/>
<path d="M32.7511 33.9233C31.4309 33.9233 30.2026 33.2115 30.1452 33.1771C29.9615 33.0738 29.8467 32.8671 29.8582 32.649C29.8582 32.4309 29.996 32.2472 30.1911 32.1554L34.2779 30.3072C34.4616 30.2268 34.6682 30.2383 34.8289 30.3531C34.9896 30.4679 35.0929 30.6516 35.0815 30.8467C35.0815 31.1337 34.9552 33.6363 33.2332 33.8888C33.0725 33.9118 32.9118 33.9233 32.7511 33.9233ZM31.9016 32.6605C32.2689 32.7524 32.6822 32.8098 33.084 32.7524C33.4399 32.695 33.6695 32.2702 33.7957 31.7995L31.9016 32.6605Z" fill="black"/>
<path d="M24.2463 18.7121C23.9822 18.7121 23.7411 18.5284 23.6837 18.2644C23.6149 17.9544 23.81 17.6445 24.12 17.5756L26.6799 17.0016C27.0014 16.9327 27.2998 17.1279 27.3687 17.4378C27.4376 17.7478 27.2424 18.0577 26.9325 18.1266L24.3725 18.7006C24.3725 18.7006 24.2922 18.7121 24.2463 18.7121Z" fill="black"/>
<path d="M35.8626 19.2864C35.8626 19.2864 35.7593 19.2864 35.7019 19.2635L31.6611 18.1155C31.3511 18.0236 31.1789 17.7137 31.2708 17.4037C31.3626 17.0938 31.6726 16.9216 31.9825 17.0134L36.0233 18.1614C36.3333 18.2532 36.5055 18.5632 36.4137 18.8731C36.3448 19.1257 36.1152 19.2864 35.8626 19.2864Z" fill="black"/>
<path d="M33.6354 21.3641C33.5092 21.3641 33.3829 21.3182 33.2796 21.2379L32.3382 20.4802C32.0857 20.285 32.0512 19.9177 32.2464 19.6766C32.4416 19.4241 32.8089 19.3896 33.05 19.5848L33.9913 20.3424C34.2439 20.5376 34.2783 20.9049 34.0831 21.146C33.9684 21.2838 33.7962 21.3641 33.6354 21.3641Z" fill="black"/>
<path d="M25.4382 21.1577C25.3004 21.1577 25.1512 21.1003 25.0479 20.997L24.2558 20.2623C24.0262 20.0441 24.0147 19.6883 24.2328 19.4472C24.4509 19.2176 24.8183 19.2061 25.0479 19.4242L25.84 20.1589C26.0696 20.377 26.0811 20.7329 25.8629 20.974C25.7481 21.0888 25.5989 21.1577 25.4382 21.1577Z" fill="black"/>
<path d="M49.1796 20.6871C43.3824 19.2292 35.3926 15.0391 34.4512 7.19853C32.7752 6.76231 31.5469 8.75977 31.5469 8.75977C31.5469 8.75977 31.9257 11.0557 34.8301 15.3721C37.7344 19.6769 44.5533 22.1451 44.5533 22.1451C44.5533 22.1451 46.8378 20.3542 49.1796 20.6986V20.6871Z" fill="#ACA0A6"/>
</svg>
