<svg width="157" height="156" viewBox="0 0 157 156" fill="none" xmlns="http://www.w3.org/2000/svg">
<path d="M77.9658 155.81C121.025 155.81 155.962 120.968 155.999 77.9879C156.037 35.0078 121.161 0.165527 78.102 0.165527C35.043 0.165527 0.106233 35.0078 0.0686278 77.9879C0.0310222 120.968 34.9068 155.81 77.9658 155.81Z" fill="#7ED0FA"/>
<path d="M78.0312 0V155.961C121.014 155.961 155.846 121.043 155.846 77.9878C155.846 34.9325 121.014 0 78.0312 0Z" fill="#3E9AC7"/>
<path d="M84.646 10.209C84.646 13.8635 81.6781 16.8375 78.031 16.8375C74.3839 16.8375 71.416 13.8635 71.416 10.209C71.416 6.55449 74.3839 3.58057 78.031 3.58057C81.6781 3.58057 84.646 6.55449 84.646 10.209Z" fill="#00496D"/>
<path d="M84.646 146.373C84.646 150.028 81.6781 153.002 78.031 153.002C74.3839 153.002 71.416 150.028 71.416 146.373C71.416 142.719 74.3839 139.745 78.031 139.745C81.6781 139.745 84.646 142.719 84.646 146.373Z" fill="#00496D"/>
<path d="M145.984 84.9268C142.337 84.9268 139.369 81.9529 139.369 78.2984C139.369 74.6438 142.337 71.6699 145.984 71.6699C149.631 71.6699 152.599 74.6438 152.599 78.2984C152.599 81.9529 149.631 84.9268 145.984 84.9268Z" fill="#00496D"/>
<path d="M10.0955 84.9268C6.44835 84.9268 3.48047 81.9529 3.48047 78.2984C3.48047 74.6438 6.44835 71.6699 10.0955 71.6699C13.7426 71.6699 16.7104 74.6438 16.7104 78.2984C16.7104 81.9529 13.7426 84.9268 10.0955 84.9268Z" fill="#00496D"/>
<path d="M77.9766 136.526C110.364 136.526 136.644 110.318 136.674 77.989C136.704 45.6597 110.473 19.4517 78.0848 19.4517C45.6969 19.4517 19.4172 45.6597 19.3873 77.989C19.3575 110.318 45.5888 136.526 77.9766 136.526Z" fill="#D1EDFB"/>
<path d="M78.0312 19.3232V136.623C110.353 136.623 136.562 110.361 136.562 77.9731C136.562 45.5855 110.353 19.3232 78.0312 19.3232Z" fill="#A3D6F0"/>
<path d="M78.0322 113.379C58.5564 113.379 42.7129 97.5033 42.7129 77.9878C42.7129 58.4724 58.5564 42.5967 78.0322 42.5967C97.508 42.5967 113.352 58.4724 113.352 77.9878C113.352 97.5033 97.508 113.379 78.0322 113.379Z" fill="#00496D"/>
<path d="M78.0314 45.3191C96.0011 45.3191 110.619 59.9668 110.619 77.9731C110.619 95.9794 96.0011 110.627 78.0314 110.627C60.0617 110.627 45.4437 95.9794 45.4437 77.9731C45.4437 59.9668 60.0617 45.3191 78.0314 45.3191ZM78.0314 39.8447C57.02 39.8447 39.9805 56.9189 39.9805 77.9731C39.9805 99.0273 57.02 116.101 78.0314 116.101C99.0429 116.101 116.082 99.0273 116.082 77.9731C116.082 56.9189 99.0429 39.8447 78.0314 39.8447Z" fill="#086593"/>
<path d="M101.08 34.4297L71.6523 74.585L84.4246 81.3762L101.08 34.4297Z" fill="#00ABEB"/>
<path d="M54.9824 121.517L71.6528 74.585L84.425 81.3762L54.9824 121.517Z" fill="#FA503C"/>
<path d="M86.093 82.2636C83.7305 86.7171 78.2082 88.4186 73.7637 86.0513C69.3193 83.684 67.6213 78.1504 69.9838 73.6969C72.3463 69.2435 77.8686 67.542 82.313 69.9093C86.7575 72.2766 88.4555 77.8101 86.093 82.2636Z" fill="#E0D587"/>
<path d="M74.9004 39.8447L78.0307 24.043L81.1758 39.8447H74.9004Z" fill="#086593"/>
<path d="M74.9004 116.116L78.0307 131.918L81.1758 116.116H74.9004Z" fill="#086593"/>
<path d="M116.098 74.8364L131.867 77.9731L116.098 81.1246V74.8364Z" fill="#086593"/>
<path d="M39.9806 74.8364L24.2109 77.9731L39.9806 81.1246V74.8364Z" fill="#086593"/>
</svg>
