<svg width="81" height="84" viewBox="0 0 81 84" fill="none" xmlns="http://www.w3.org/2000/svg">
<path d="M46.3934 12.6581C46.3934 12.6581 60.6732 8.81516 71.3028 21.8318C81.9323 34.8485 75.3276 50.8624 58.4895 50.4022C41.6513 49.9419 37.7441 32.7397 37.7441 32.7397L46.3934 12.6581Z" fill="#8D8C9D"/>
<path d="M80.2623 83.9716C78.646 60.5288 67.7167 46.7307 62.0968 43.7976C62.0754 43.7869 62.0647 43.7655 62.0433 43.7548C62.0005 43.7334 61.9469 43.712 61.9041 43.6906C56.9801 41.175 52.6768 41.1429 50.3433 41.0144H50.279C45.2051 40.4364 39.5317 40.2972 34.8217 40.9502C31.6104 41.4105 28.6452 41.7209 25.8407 42.299C16.2066 42.2669 3.39333 52.8429 0 83.9716C0.0535225 84.0358 80.2623 83.9716 80.2623 83.9716Z" fill="#292751"/>
<path d="M28.0133 31.8294C27.4138 34.559 25.776 36.5179 24.3524 36.2075C22.9287 35.8971 22.2543 33.4351 22.8537 30.7054C23.4532 27.9758 25.091 26.0168 26.5147 26.3273C27.9384 26.6377 28.6127 29.0997 28.0133 31.8294Z" fill="#A9A8CD"/>
<path d="M24.9416 23.3621C24.9416 23.3621 20.8846 19.0482 21.8909 12.208C22.576 7.57295 24.6098 6.0422 24.6098 6.0422C24.6098 6.0422 21.3556 -0.19852 30.6793 0.00486541C40.0029 0.208251 47.6459 -0.583882 51.7992 7.43379C54.2506 12.1545 53.2765 22.4201 53.2765 22.4201L24.9524 23.3621H24.9416Z" fill="#8D8C9D"/>
<path d="M45.5506 30.6523L45.4863 42.0312C45.4863 42.0312 43.4204 45.2854 36.7515 45.7885C31.7953 46.1632 30.2324 43.6048 30.2324 43.6048L31.4956 33.6603L43.5274 31.0912L45.5506 30.6523Z" fill="#8E513E"/>
<path d="M45.5379 29.956C45.5058 30.2664 45.388 30.6304 45.2061 31.0479C42.6263 36.7213 33.6559 39.0334 30.7871 39.2689L31.5043 33.6491L45.5486 29.9453L45.5379 29.956Z" fill="black"/>
<path d="M29.1047 7.71244C29.1047 7.71244 23.0459 21.9387 25.3581 29.8815C27.6703 37.8242 34.9065 36.4968 39.2311 34.9126C43.5557 33.3283 45.5468 30.6522 45.5468 30.6522C45.5468 30.6522 49.6145 31.9902 52.2906 28.1902C54.9667 24.3901 53.254 20.0761 50.9311 19.1127C48.6083 18.1386 45.8679 19.8406 45.8679 19.8406L47.9874 15.698C47.9874 15.698 38.7066 -5.14366 29.1047 7.71244Z" fill="#8E513E"/>
<path d="M45.8706 19.8402C45.8706 19.8402 39.8011 21.1889 35.4337 14.4879C31.0662 7.78691 31.4088 4.99303 31.4088 4.99303L27.3304 12.0687C27.3304 12.0687 26.292 7.23027 28.176 4.10456C30.06 0.978846 32.0832 1.5783 32.0832 1.5783L45.5816 4.6719L49.3281 15.3764L45.8706 19.8402Z" fill="#8D8C9D"/>
<path d="M29.9296 25.7923C29.7048 25.7923 29.4907 25.6531 29.4158 25.4283C28.4203 22.3776 30.5184 19.2304 30.6147 19.0913C30.786 18.8451 31.1178 18.7809 31.3533 18.9521C31.5995 19.1127 31.6637 19.4552 31.4925 19.6907C31.4711 19.7228 29.5871 22.5381 30.422 25.0858C30.5184 25.3641 30.3578 25.6638 30.0795 25.7602C30.026 25.7816 29.9724 25.7816 29.9082 25.7816L29.9296 25.7923Z" fill="black"/>
<path d="M46.5743 26.5632C46.4459 26.5632 46.3174 26.5204 46.2104 26.4241C45.9963 26.2207 45.9749 25.8888 46.1782 25.664L49.9569 21.5214C50.1603 21.3073 50.4922 21.2859 50.717 21.4893C50.931 21.6927 50.9525 22.0245 50.7491 22.2493L46.9704 26.3919C46.8633 26.5097 46.7242 26.5632 46.5743 26.5632Z" fill="black"/>
<path d="M50.6338 25.3955C50.6338 25.3955 50.591 25.3955 50.5589 25.3955L47.8935 25.0315C47.6045 24.9887 47.3904 24.7211 47.4332 24.4321C47.476 24.143 47.7436 23.929 48.0326 23.9718L50.6981 24.3357C50.9871 24.3785 51.2012 24.6462 51.1584 24.9352C51.1262 25.2028 50.8907 25.3955 50.6338 25.3955Z" fill="black"/>
<path d="M26.9752 14.2422C26.729 14.2422 26.5042 14.0602 26.4507 13.814C26.3972 13.525 26.5792 13.2466 26.8789 13.1824L29.3837 12.7007C29.6621 12.6472 29.9511 12.8292 30.0153 13.1289C30.0688 13.4179 29.8869 13.6962 29.5871 13.7605L27.0823 14.2422C27.0823 14.2422 27.0181 14.2422 26.9752 14.2422Z" fill="black"/>
<path d="M37.4656 15.6871C37.3906 15.6871 37.305 15.6657 37.2301 15.6335L33.066 13.6211C32.7984 13.4926 32.6913 13.1715 32.8198 12.9039C32.9483 12.6363 33.2694 12.5292 33.537 12.6577L37.7011 14.6701C37.9687 14.7986 38.0757 15.1197 37.9473 15.3873C37.8509 15.58 37.6689 15.6871 37.4656 15.6871Z" fill="black"/>
<path d="M27.0945 20.0542C27.0945 20.0542 26.9982 20.0542 26.9447 20.0328C26.6557 19.9471 26.4951 19.6581 26.5807 19.3691L27.2337 17.0676L26.6128 16.3397C26.4202 16.1149 26.4523 15.7724 26.6771 15.5904C26.9019 15.3977 27.2444 15.4298 27.4371 15.6546L28.2399 16.5966C28.3577 16.7358 28.4005 16.9177 28.347 17.089L27.6084 19.6581C27.5441 19.8936 27.33 20.0435 27.0945 20.0435V20.0542Z" fill="black"/>
<path d="M34.2522 20.6C34.2522 20.6 34.1559 20.6 34.1024 20.5786C33.8133 20.4929 33.6528 20.2039 33.7384 19.9149L34.3914 17.6241L33.4815 16.5965C33.2888 16.3717 33.2995 16.0399 33.5243 15.8365C33.7491 15.6438 34.0809 15.6545 34.2843 15.8793L35.3976 17.121C35.5153 17.2602 35.5689 17.4528 35.5153 17.6241L34.7767 20.1932C34.7125 20.4287 34.4984 20.5786 34.2629 20.5786L34.2522 20.6Z" fill="black"/>
<path d="M31.9869 29.486C31.6443 29.486 31.3125 29.411 30.9914 29.2505C30.7237 29.1113 30.6274 28.7902 30.7666 28.5333C30.9057 28.2764 31.2269 28.1693 31.4838 28.3085C32.5863 28.8865 34.6095 27.131 35.2303 26.4673C35.4337 26.2532 35.7763 26.2425 35.9904 26.4459C36.2044 26.6493 36.2152 26.9918 36.0118 27.2059C35.7549 27.4735 33.7959 29.4967 31.9762 29.4967L31.9869 29.486Z" fill="black"/>
<path d="M30.5093 41.4318L24.8359 42.4273C24.8359 42.4273 24.9537 50.0275 35.6261 50.9909C46.2985 51.9543 53.4705 41.3141 53.4705 41.3141L42.2629 39.9546L30.5093 41.4318Z" fill="#8E513E"/>
<path d="M51.0937 32.4721C51.265 35.2659 50.2266 37.5995 48.7708 37.6852C47.315 37.7708 45.9983 35.5871 45.8271 32.8039C45.6558 30.01 46.6941 27.6764 48.1499 27.5908C49.6058 27.5052 50.9224 29.6889 51.0937 32.4721Z" fill="#A9A8CD"/>
<path d="M19.911 79.8824C19.7718 79.8824 19.622 79.8289 19.5256 79.7112C9.68818 69.2743 17.9521 58.6875 18.0377 58.5805C18.2197 58.3557 18.5622 58.3129 18.787 58.4949C19.0225 58.6768 19.0546 59.0194 18.8726 59.2442C18.5515 59.6509 11.1119 69.2315 20.2963 78.9726C20.4997 79.1866 20.489 79.5292 20.2749 79.7326C20.1679 79.8289 20.0394 79.8824 19.911 79.8824Z" fill="#615F90"/>
</svg>
