<svg width="78" height="84" viewBox="0 0 78 84" fill="none" xmlns="http://www.w3.org/2000/svg">
<path d="M35.6683 37.8623L34.6113 49.8493C34.6113 49.8493 36.5454 53.4814 43.7646 54.6396C49.1397 55.5055 51.1413 54.4822 51.1413 54.4822L50.9164 48.3538L50.6915 42.3715L37.8274 38.5145L35.6683 37.8623Z" fill="#FCA397"/>
<path d="M77.1397 84.0002C74.8683 66.4807 63.4323 56.113 53.4468 54.2801C53.3006 52.3684 53.2669 49.6809 52.4011 49.6809C51.5352 49.6809 49.2412 50.0632 44.9457 49.7146C40.6502 49.3661 36.5908 46.5773 34.9153 46.4311C33.341 46.3075 32.835 52.1098 32.7788 52.852C32.0928 52.8745 31.3732 52.9307 30.6647 52.9869C30.3724 52.9981 30.0463 53.0206 29.7089 53.0431C29.4953 53.0544 29.2816 53.0656 29.0567 53.0881C29.0342 53.0881 29.023 53.0881 29.0005 53.0994C28.7531 53.1218 28.4945 53.1443 28.2358 53.1781C28.0672 53.1893 27.9097 53.2118 27.7411 53.2343C25.2335 53.5267 22.2311 54.1114 19.8247 55.2921C11.0312 58.823 1.49557 74.6557 0 84.0002H77.1397Z" fill="#46467F"/>
<path d="M36.3757 26.4487C36.3757 26.4487 40.795 25.3579 42.8753 22.8053C44.9556 20.2528 45.2929 13.9669 45.2929 13.9669C45.2929 13.9669 53.2992 18.1275 55.402 17.6664C57.5048 17.2054 61.6317 7.77097 58.8542 3.70033C56.0767 -0.370308 50.4543 4.66739 50.4543 4.66739C50.4543 4.66739 49.2961 -1.1462 43.1564 0.20318C35.9372 1.79995 34.0705 9.12035 34.0705 9.12035C34.0705 9.12035 33.587 1.17024 28.5605 4.65614C23.5453 8.14205 25.3445 17.2616 25.3445 17.2616C25.3445 17.2616 21.3301 19.0046 22.1285 22.7829C22.9269 26.5611 28.3581 30.2045 28.3581 30.2045L36.3757 26.4149V26.4487Z" fill="#E16400"/>
<path d="M37.8281 38.5146C37.8281 38.8407 37.9293 39.2456 38.0868 39.6954C40.3357 45.9138 47.8248 47.8254 50.9171 48.3539L50.6922 42.3716L37.8281 38.5146Z" fill="black"/>
<path d="M55.8533 15.2716C55.8533 15.2716 61.0485 30.8345 57.7537 38.9758C54.4477 47.117 46.6888 45.0367 42.1234 42.9564C37.558 40.8761 35.6576 37.8625 35.6576 37.8625C35.6576 37.8625 31.0922 38.8858 28.5508 34.624C26.0095 30.3734 28.3034 25.9879 30.9347 25.1896C33.566 24.3912 36.3772 26.4377 36.3772 26.4377L34.4769 21.8723C34.4769 21.8723 46.655 0.821945 55.8533 15.2716Z" fill="#FCA397"/>
<path d="M35.3995 32.9708C35.2758 32.9708 35.1409 32.9258 35.0397 32.8471L29.7883 28.5066C29.5522 28.3042 29.5184 27.9556 29.7096 27.7195C29.9008 27.4833 30.2606 27.4496 30.4967 27.6407L35.7481 31.9813C35.9842 32.1837 36.018 32.5323 35.8268 32.7684C35.7143 32.9033 35.5569 32.9708 35.3882 32.9708H35.3995Z" fill="black"/>
<path d="M44.945 20.8263C44.8101 20.8263 44.6639 20.7701 44.5627 20.6689C44.3378 20.4553 44.3265 20.0954 44.5402 19.8705C46.4293 17.8802 48.6783 18.4537 49.6004 19.0384C49.859 19.2071 49.9377 19.5557 49.769 19.8143C49.6004 20.0729 49.2518 20.1516 48.9931 19.9942C48.9144 19.9492 47.0703 18.836 45.3498 20.6464C45.2374 20.7589 45.0912 20.8263 44.945 20.8263Z" fill="black"/>
<path d="M57.0334 21.2534C56.8985 21.2534 56.7523 21.1972 56.6511 21.096C55.4704 19.9715 54.0535 20.59 53.9973 20.6125C53.7162 20.7362 53.3788 20.6125 53.2551 20.3314C53.1314 20.0502 53.2551 19.7241 53.525 19.5892C53.615 19.5442 55.6728 18.6221 57.427 20.2751C57.6519 20.4888 57.6631 20.8486 57.4495 21.0735C57.337 21.186 57.1908 21.2534 57.0446 21.2534H57.0334Z" fill="black"/>
<path d="M53.9413 32.4876C53.8738 32.4876 53.7951 32.4764 53.7276 32.4426C53.4353 32.3302 53.3003 31.9928 53.424 31.7117C55.032 27.7423 52.2658 26.3029 52.1534 26.2355C51.8722 26.1005 51.7598 25.7632 51.906 25.482C52.0409 25.2009 52.3782 25.0885 52.6594 25.2234C52.6931 25.2459 56.4939 27.1688 54.481 32.1278C54.3911 32.3414 54.1774 32.4764 53.9638 32.4764L53.9413 32.4876Z" fill="black"/>
<path d="M56.4732 26.9998C56.2033 26.9998 55.9784 26.8086 55.9222 26.5387L55.3824 23.7275C55.3262 23.4239 55.5286 23.1315 55.8322 23.0753C56.1471 23.0191 56.4282 23.2215 56.4844 23.5251L57.0242 26.3363C57.0804 26.6399 56.878 26.9323 56.5744 26.9885C56.5406 26.9885 56.5069 26.9885 56.4732 26.9885V26.9998Z" fill="black"/>
<path d="M47.4869 26.5051C47.217 26.5051 46.9921 26.314 46.9359 26.0441L46.3961 23.2329C46.3399 22.9293 46.5423 22.6369 46.8459 22.5694C47.1608 22.5132 47.4419 22.7156 47.4981 23.0192L48.0379 25.8304C48.0941 26.1341 47.8917 26.4264 47.5881 26.4827C47.5543 26.4827 47.5206 26.4827 47.4869 26.4827V26.5051Z" fill="black"/>
<path d="M50.4439 37.0074C50.1853 37.0074 47.1267 36.94 46.036 34.0838C45.9235 33.7914 46.0697 33.4653 46.3621 33.3529C46.6544 33.2404 46.9805 33.3866 47.093 33.679C47.9251 35.8605 50.354 35.8605 50.4552 35.8829C50.77 35.8829 51.0174 36.1303 51.0174 36.4452C51.0174 36.76 50.77 37.0074 50.4664 37.0074H50.4552H50.4439Z" fill="black"/>
<path d="M36.3774 26.4487C36.3774 26.4487 41.1227 25.6278 42.8769 21.7483C44.6311 17.8689 44.3725 14.383 44.3725 14.383C44.3725 14.383 46.7676 17.003 50.917 16.5645C55.0663 16.1259 56.2133 11.8641 56.2133 11.8641L52.4126 7.3999C52.4126 7.3999 36.7822 10.6946 36.3886 10.2111C35.9951 9.72759 30.3164 19.8705 30.3164 19.8705L36.3886 26.4599L36.3774 26.4487Z" fill="#E16400"/>
<path d="M41.8739 55.3932C37.8932 55.3932 32.8218 53.5378 32.5744 53.4479C32.282 53.3354 32.1359 53.0206 32.2371 52.7282C32.3495 52.4358 32.6644 52.2897 32.9567 52.3909C33.0242 52.4134 39.9623 54.9434 43.6281 54.0888C43.9317 54.0214 44.2353 54.2013 44.3028 54.5049C44.3703 54.8085 44.1903 55.1121 43.8867 55.1796C43.2795 55.3258 42.5936 55.382 41.8739 55.382V55.3932Z" fill="#FFBF69"/>
<path d="M30.3056 32.8581C30.1031 32.8581 29.912 32.7457 29.8108 32.5658C29.6646 32.2959 29.7658 31.9473 30.0469 31.8011L33.0605 30.1931C33.3304 30.0469 33.679 30.1481 33.8252 30.4292C33.9714 30.6991 33.8702 31.0477 33.5891 31.1939L30.5754 32.8019C30.4855 32.8469 30.3955 32.8694 30.3056 32.8694V32.8581Z" fill="black"/>
<path d="M43.721 23.1768H49.8607C50.423 23.1768 50.8728 23.6266 50.8728 24.1888V26.9663C50.8728 28.4843 49.6471 29.71 48.129 29.71H45.4527C43.9347 29.71 42.709 28.4843 42.709 26.9663V24.1888C42.709 23.6266 43.1588 23.1768 43.721 23.1768Z" stroke="black" stroke-miterlimit="10"/>
<path d="M55.1995 23.3115H61.3392C61.9015 23.3115 62.3513 23.7613 62.3513 24.3236V27.101C62.3513 28.6191 61.1256 29.8448 59.6075 29.8448H56.9312C55.4132 29.8448 54.1875 28.6191 54.1875 27.101V24.3236C54.1875 23.7613 54.6373 23.3115 55.1995 23.3115Z" stroke="black" stroke-miterlimit="10"/>
<path d="M50.0526 26.6849C49.9064 26.6511 49.7827 26.5612 49.704 26.4263C49.5466 26.1676 49.6253 25.819 49.8839 25.6504C49.9739 25.5941 52.1666 24.2672 55.0565 25.6504C55.3377 25.7853 55.4501 26.1226 55.3264 26.4038C55.1915 26.6849 54.8541 26.7973 54.573 26.6736C52.2566 25.5604 50.5473 26.5724 50.4686 26.6062C50.3337 26.6849 50.1875 26.7074 50.0526 26.6736V26.6849Z" fill="black"/>
<path d="M32.7677 25.1443C32.509 25.1443 32.2729 24.9644 32.2167 24.7058C32.1492 24.4022 32.3404 24.0986 32.644 24.0311C37.8279 22.8616 41.4937 23.4014 43.0792 23.7612L42.8768 24.8745C41.4487 24.5484 37.8953 23.9974 32.8914 25.1219C32.8464 25.1219 32.8126 25.1331 32.7677 25.1331V25.1443Z" fill="black"/>
</svg>
