<svg width="85" height="84" viewBox="0 0 85 84" fill="none" xmlns="http://www.w3.org/2000/svg">
<path d="M57.1853 25.0958C57.1743 22.7475 55.9233 20.7612 54.4199 20.1687C53.6847 19.8724 52.9056 19.8504 52.1923 19.9492L49.4489 20.9588H49.4269C49.8768 17.8532 52.6312 15.8999 55.638 15.5926C58.6229 15.2854 60.1262 16.679 60.1701 17.2277C59.8848 11.3239 55.0345 11.4336 55.0345 11.4336C55.0345 11.4336 54.4858 4.77258 49.7232 2.04013C44.9496 -0.692318 41.5807 2.68758 41.5807 2.68758C41.5807 2.68758 32.9225 -3.29308 28.8842 2.58881C24.8459 8.47071 33.7126 15.5597 33.7126 15.5597L54.0907 28.4209C54.0907 28.4209 55.649 27.126 57.1963 25.1068" fill="black"/>
<path d="M68.6075 46.8235C60.1797 39.3065 42.3474 40.5465 42.3474 40.5465C42.3474 40.5465 24.7457 40.2941 15.6704 47.6794C6.59518 55.0647 1.52534 62.7243 0 83.8926C0.2085 84.134 84.223 83.8926 84.223 83.8926C82.7635 62.2415 77.0352 54.3405 68.6075 46.8235Z" fill="#057E3E"/>
<path d="M49.2711 31.6802L49.3809 42.9501C49.3809 42.9501 47.3837 46.2093 40.7885 46.8129C35.8833 47.2628 34.1494 46.1654 34.1494 46.1654L34.7749 40.4481L35.4004 34.8735L47.2849 32.1411L49.2821 31.6802H49.2711Z" fill="#DE5F38"/>
<path d="M47.2744 32.1421C47.2525 32.4494 47.1317 32.8115 46.9562 33.2285C44.4871 38.8799 37.6066 40.1639 34.7754 40.4492L35.4009 34.8745L47.2854 32.1421H47.2744Z" fill="black"/>
<path d="M32.637 9.21762C32.637 9.21762 26.8648 23.4066 29.2681 31.2308C31.6713 39.0551 38.8261 37.6394 43.0839 36.0044C47.3417 34.3693 49.2731 31.6807 49.2731 31.6807C49.2731 31.6807 53.3224 32.9427 55.9122 29.1348C58.502 25.338 56.7352 21.0911 54.4197 20.1694C52.1043 19.2476 49.4158 20.9704 49.4158 20.9704L51.4459 16.8334C51.4459 16.8334 41.9317 -3.66548 32.626 9.20664L32.637 9.21762Z" fill="#DE5F38"/>
<path d="M49.8976 27.1478C49.733 27.1478 49.5683 27.071 49.4586 26.9283C49.283 26.6869 49.3269 26.3357 49.5793 26.1601L54.6162 22.462C54.8577 22.2864 55.1978 22.3303 55.3844 22.5827C55.56 22.8241 55.5161 23.1753 55.2637 23.3509L50.2268 27.049C50.128 27.1258 50.0183 27.1588 49.8976 27.1588V27.1478Z" fill="black"/>
<path d="M54.5276 27.0497C54.5276 27.0497 54.4398 27.0497 54.3959 27.0387L51.038 26.2157C50.7417 26.1389 50.5661 25.8426 50.632 25.5463C50.7088 25.25 50.9941 25.0744 51.3014 25.1403L54.6593 25.9633C54.9556 26.0401 55.1312 26.3364 55.0653 26.6327C54.9995 26.8851 54.78 27.0497 54.5276 27.0497Z" fill="black"/>
<path d="M42.1279 15.1653C42.0621 15.1653 42.0072 15.1653 41.9413 15.1324C41.1074 14.8251 38.7151 14.6934 37.8591 14.6715C37.5519 14.6715 37.3214 14.4081 37.3324 14.1008C37.3324 13.7936 37.5738 13.5631 37.8921 13.5741C38.2213 13.5741 41.1622 13.6838 42.3145 14.1008C42.5998 14.1996 42.7424 14.5178 42.6437 14.8032C42.5668 15.0226 42.3474 15.1653 42.1279 15.1653Z" fill="black"/>
<path d="M31.1874 14.7481C30.924 14.7481 30.6935 14.5506 30.6496 14.2872C30.6057 13.9909 30.8033 13.7056 31.1105 13.6617C32.603 13.4313 33.0529 13.4532 33.1297 13.4532C33.437 13.4751 33.6564 13.7495 33.6235 14.0458C33.6016 14.3421 33.3382 14.5725 33.0419 14.5506C33.009 14.5506 32.603 14.5396 31.2861 14.7481C31.2532 14.7481 31.2312 14.7481 31.1983 14.7481H31.1874Z" fill="black"/>
<path d="M31.4727 12.411C31.4727 12.411 32.6688 10.1285 35.489 10.0846C38.3093 10.0407 39.9663 12.005 39.9663 12.005C39.9663 12.005 38.7811 16.7566 42.6329 19.2257C46.4846 21.7057 49.4366 20.9705 49.4366 20.9705L52.2019 19.9499L54.1992 15.8787L46.0896 7.30826L35.6536 1.93115L30.4082 6.79249L31.4946 12.411H31.4727Z" fill="black"/>
<path d="M34.0642 27.2801C33.8337 27.2801 33.6143 27.1265 33.5375 26.896C32.1328 22.331 34.4812 19.0389 34.58 18.9072C34.7555 18.6658 35.0957 18.6109 35.3481 18.7865C35.5895 18.9621 35.6444 19.3023 35.4688 19.5547C35.4469 19.5876 33.3509 22.5505 34.5909 26.5778C34.6787 26.8631 34.5141 27.1704 34.2288 27.2582C34.1739 27.2801 34.1191 27.2801 34.0642 27.2801Z" fill="black"/>
<path d="M31.2979 20.1581C31.2979 20.1581 31.2101 20.1581 31.1553 20.1361C30.859 20.0593 30.6834 19.763 30.7602 19.4667L31.4406 16.8769C31.5174 16.5807 31.8137 16.4051 32.11 16.4819C32.4063 16.5587 32.5818 16.855 32.505 17.1513L31.8247 19.7411C31.7588 19.9825 31.5394 20.1471 31.2979 20.1471V20.1581Z" fill="black"/>
<path d="M38.4298 20.2352C38.4298 20.2352 38.342 20.2352 38.2871 20.2133C37.9908 20.1365 37.8152 19.8402 37.8921 19.5439L38.5724 16.9541C38.6492 16.6578 38.9455 16.4822 39.2418 16.559C39.5381 16.6359 39.7137 16.9321 39.6369 17.2284L38.9565 19.8182C38.8907 20.0596 38.6712 20.2243 38.4298 20.2243V20.2352Z" fill="black"/>
<path d="M36.2252 29.9147C36.0935 29.9147 36.0057 29.9147 35.9838 29.9147C35.6875 29.8927 35.457 29.6184 35.479 29.3221C35.5009 29.0148 35.7972 28.8063 36.0716 28.8173C36.1813 28.8173 38.3212 28.9599 39.221 27.0066C39.3417 26.7323 39.6709 26.6116 39.9453 26.7323C40.2196 26.864 40.3403 27.1822 40.2196 27.4566C39.1881 29.7171 36.9604 29.9147 36.2252 29.9147Z" fill="black"/>
<path d="M34.7759 40.4602C34.7759 40.4602 32.4495 42.9293 31.0668 47.4724C30.2767 50.0512 30.4742 53.8591 31.012 53.8591C31.5497 53.8591 35.6099 47.5821 38.1997 47.198C40.7895 46.814 42.9513 54.3309 44.0597 54.5943C45.168 54.8577 49.4587 51.8948 50.9841 47.615C52.5094 43.3353 49.777 40.5699 49.777 40.5699C49.777 40.5699 36.411 50.7096 34.7759 40.4492V40.4602Z" fill="#D7ECDF"/>
<path d="M15.561 79.8006C15.561 79.8006 15.5171 79.8006 15.5062 79.8006C15.1989 79.7677 14.9904 79.5043 15.0123 79.1971L16.0548 69.0464C16.0878 68.7391 16.3731 68.5197 16.6584 68.5526C16.9656 68.5855 17.1742 68.8489 17.1522 69.1561L16.1097 79.3068C16.0768 79.5921 15.8463 79.8006 15.561 79.8006Z" fill="#D7ECDF"/>
<path d="M60.169 17.2393C60.3117 20.2241 58.7534 23.0444 57.1842 25.0964C57.1732 22.7481 55.9222 20.7618 54.4188 20.1693C53.6836 19.873 52.9044 19.851 52.1912 19.9498L49.4477 20.9594H49.4258C49.8757 17.8538 52.6301 15.9005 55.6369 15.5932C58.6437 15.286 60.1361 16.6906 60.169 17.2393Z" fill="#686868"/>
</svg>
