<svg width="162" height="160" viewBox="0 0 162 160" fill="none" xmlns="http://www.w3.org/2000/svg">
<path d="M40.6093 127.213L17.9629 113.204C24.552 117.272 26.6433 124.82 25.0533 137.039L47.6853 151.048C49.2753 138.829 47.184 131.295 40.5949 127.213H40.6093Z" fill="#70613B"/>
<path d="M128.544 28.8203C129.189 28.3906 129.819 27.9465 130.478 27.4595C130.507 27.4452 130.521 27.4309 130.55 27.4022C130.636 27.3449 130.722 27.259 130.808 27.2017C131.366 26.772 131.939 26.3279 132.498 25.8552C132.684 25.6977 132.87 25.5544 133.056 25.3969C133.73 24.8239 134.417 24.2366 135.119 23.6063L98.0484 0.702148C97.3465 1.33241 96.6733 1.91969 96 2.47833C95.8138 2.6359 95.6276 2.79346 95.4414 2.9367C94.8684 3.4094 94.3098 3.85344 93.7512 4.26884C93.6366 4.35479 93.5363 4.44073 93.4217 4.51235C92.7628 4.99937 92.1182 5.45774 91.4736 5.88746C91.3161 5.98773 91.1728 6.088 91.0153 6.18827C90.4853 6.53205 89.9553 6.8615 89.4253 7.16231C89.2964 7.23393 89.1531 7.31987 89.0242 7.39149C88.6661 7.59203 88.308 7.77824 87.9499 7.95013C87.7923 8.02175 87.6491 8.10769 87.4915 8.17932C86.9902 8.42282 86.4888 8.63769 86.0018 8.83822C85.4862 9.03876 84.9848 9.21065 84.4835 9.36821C84.1397 9.48281 83.7959 9.56875 83.4521 9.65469C83.137 9.72631 82.8362 9.81226 82.5354 9.86956C82.1916 9.94118 81.8622 9.98415 81.5327 10.0271C81.2319 10.0701 80.9311 10.1131 80.6446 10.1274C80.3152 10.156 79.9857 10.156 79.6563 10.156C79.3698 10.156 79.069 10.156 78.7825 10.156C78.453 10.1417 78.1236 10.0987 77.8085 10.0558C77.5077 10.0128 77.2212 9.98415 76.9347 9.92685C76.6912 9.88388 76.4477 9.82658 76.2042 9.75496C75.8747 9.68334 75.5453 9.5974 75.2301 9.48281C74.9866 9.41119 74.7431 9.32524 74.5139 9.22497C74.1558 9.09606 73.7977 8.95281 73.4539 8.79525C73.2964 8.72363 73.1388 8.65201 72.9812 8.58039C72.4513 8.32256 71.9356 8.03607 71.4199 7.72094L108.491 30.6538C109.006 30.9689 109.536 31.2554 110.052 31.5132C110.21 31.5849 110.367 31.6565 110.525 31.7281C110.725 31.814 110.926 31.9286 111.126 32.0003C111.284 32.0575 111.441 32.1005 111.599 32.1721C111.842 32.2581 112.072 32.344 112.315 32.4156C112.645 32.5159 112.988 32.6019 113.318 32.6878C113.547 32.7451 113.776 32.8024 114.02 32.8454C114.12 32.8597 114.22 32.9027 114.321 32.917C114.521 32.9456 114.722 32.9456 114.922 32.9743C115.237 33.0173 115.567 33.0459 115.882 33.0602C116.168 33.0746 116.469 33.0602 116.77 33.0602C117.099 33.0602 117.429 33.0602 117.758 33.0173C118.059 32.9886 118.36 32.96 118.661 32.917C118.99 32.874 119.32 32.8167 119.663 32.7594C119.964 32.7021 120.279 32.6162 120.58 32.5446C120.924 32.4586 121.253 32.3727 121.597 32.2581C121.726 32.2151 121.869 32.1865 121.998 32.1435C122.371 32.0146 122.743 31.8713 123.13 31.7281C123.617 31.5276 124.118 31.3127 124.62 31.0692C124.791 30.9832 124.963 30.8973 125.135 30.8114C125.465 30.6395 125.794 30.4676 126.138 30.2814C126.195 30.2527 126.238 30.2241 126.295 30.1954C126.396 30.1381 126.496 30.0665 126.596 30.0092C127.112 29.7084 127.613 29.4076 128.143 29.0638C128.301 28.9635 128.458 28.8633 128.63 28.7487L128.544 28.8203Z" fill="#70613B"/>
<path d="M8.99552 57.0388C9.06714 57.1677 9.12444 57.2966 9.18173 57.4256C9.52551 58.0988 9.82631 58.772 10.0985 59.4453C10.1414 59.5312 10.1844 59.6171 10.2131 59.7174C10.4995 60.4336 10.7431 61.1355 10.9722 61.8231C11.0152 61.9806 11.0582 62.1239 11.1155 62.2814C11.316 62.9833 11.5022 63.6709 11.6311 64.3584C11.6455 64.4444 11.6598 64.5303 11.6741 64.6019C11.7887 65.2465 11.8747 65.8768 11.932 66.5213C11.932 66.6503 11.9606 66.7649 11.9606 66.8938C12.0179 67.567 12.0179 68.2402 12.0036 68.8991C12.0036 69.0424 12.0036 69.1856 11.9892 69.3145C11.9463 69.9878 11.9033 70.661 11.7887 71.3342C11.7887 71.3342 11.7887 71.3486 11.7887 71.3629C11.6884 72.0361 11.5309 72.7237 11.3447 73.3969C11.3017 73.5401 11.273 73.6834 11.2301 73.8123C11.0439 74.4712 10.8147 75.1158 10.5712 75.7747C10.5139 75.9179 10.4422 76.0755 10.385 76.2187C10.1558 76.7631 9.89794 77.3074 9.62578 77.866C9.53983 78.0379 9.45389 78.2241 9.35362 78.396C9.00984 79.0549 8.62309 79.7281 8.19337 80.3871C8.12175 80.5016 8.03581 80.6306 7.94986 80.7452C7.59176 81.3038 7.19069 81.8624 6.78961 82.4211C6.61772 82.6503 6.44583 82.8938 6.25962 83.1229C5.84422 83.6673 5.40018 84.2116 4.94181 84.7559C4.79856 84.9278 4.66965 85.0853 4.52641 85.2572C4.08236 85.7729 3.59534 86.2886 3.12265 86.8042C2.87914 87.0621 2.64995 87.3342 2.39212 87.5921C1.63294 88.3656 0.84512 89.1534 0 89.9555L37.0707 112.888C37.9158 112.101 38.7036 111.313 39.4628 110.525C39.7207 110.253 39.9498 109.995 40.1934 109.723C40.6231 109.25 41.0814 108.792 41.4682 108.333C41.5112 108.29 41.5398 108.233 41.5828 108.19C41.726 108.033 41.8549 107.875 41.9839 107.703C42.4566 107.144 42.9006 106.6 43.316 106.041C43.4879 105.812 43.6598 105.583 43.8173 105.368C43.9749 105.168 44.1325 104.953 44.2757 104.752C44.5335 104.38 44.7627 104.022 45.0062 103.664C45.0779 103.563 45.1495 103.449 45.2211 103.349C45.5792 102.79 45.9087 102.231 46.2238 101.673C46.2954 101.558 46.3384 101.443 46.3957 101.343C46.4816 101.171 46.5676 100.999 46.6535 100.828C46.94 100.269 47.1978 99.7102 47.427 99.1516C47.4843 99.0083 47.5559 98.8651 47.6132 98.7219C47.6419 98.6502 47.6705 98.5786 47.6992 98.507C47.9283 97.9197 48.1146 97.3324 48.2865 96.7451C48.3294 96.6162 48.3581 96.473 48.401 96.3441C48.5873 95.6565 48.7448 94.9833 48.8451 94.2957C48.9597 93.6082 49.017 92.9206 49.0456 92.2474C49.0456 92.1041 49.0456 91.9752 49.06 91.832C49.0743 91.1731 49.0599 90.4998 49.017 89.8266C49.017 89.6977 48.9883 89.5831 48.9883 89.4685C48.931 88.8239 48.8451 88.1937 48.7162 87.5491C48.7162 87.4631 48.6875 87.3915 48.6732 87.3056C48.53 86.618 48.3581 85.9305 48.1575 85.2286C48.1146 85.071 48.0716 84.9278 48.0143 84.7702C47.7994 84.0683 47.5559 83.3665 47.2694 82.6646C47.2265 82.5786 47.1835 82.4784 47.1548 82.3924C46.8827 81.7335 46.5676 81.0603 46.2381 80.3871C46.1665 80.2581 46.1092 80.1149 46.0376 79.986C45.6651 79.2698 45.2641 78.5392 44.8344 77.7944C44.7341 77.6368 44.6481 77.4793 44.5479 77.3217C44.0895 76.5625 43.6025 75.789 43.0582 75.0012L6.01611 52.0684C6.5461 52.8562 7.03312 53.6154 7.50582 54.3889C7.59176 54.5464 7.69203 54.704 7.7923 54.8616C8.22202 55.6064 8.63742 56.3369 9.00984 57.0531L8.99552 57.0388Z" fill="#70613B"/>
<path d="M79.6432 38.0163C79.7864 37.5293 79.944 37.0279 80.0729 36.5266C80.1588 36.2258 80.2305 35.9393 80.3164 35.6385C80.4596 35.0942 80.6029 34.5212 80.7318 33.9483C80.7891 33.6761 80.8607 33.4183 80.918 33.1318C81.1042 32.2723 81.2904 31.3986 81.448 30.4962L44.3916 7.57764C44.2197 8.48005 44.0479 9.36815 43.8616 10.2133C43.8043 10.4854 43.7327 10.7576 43.6754 11.0297C43.5465 11.6027 43.4033 12.1613 43.26 12.7057C43.1741 13.0065 43.0881 13.3216 43.0165 13.6081C42.8733 14.1094 42.7444 14.5821 42.5868 15.0548C42.5009 15.3556 42.4006 15.6421 42.3003 15.9429C42.1428 16.4156 41.9852 16.8596 41.8133 17.318C41.713 17.5758 41.6271 17.848 41.5268 18.0915C41.3263 18.6072 41.1114 19.0942 40.8966 19.5812C40.8249 19.7531 40.7533 19.925 40.6817 20.0969C40.3952 20.7415 40.0801 21.3574 39.765 21.9447C39.722 22.0163 39.6933 22.0736 39.6504 22.1452C39.235 22.8757 38.8052 23.5776 38.3612 24.2365C38.2753 24.3654 38.1893 24.5087 38.089 24.6376C37.6736 25.2106 37.2582 25.7549 36.8142 26.2706C36.7283 26.3708 36.6423 26.4568 36.5564 26.557C36.2126 26.9438 35.8402 27.3162 35.4677 27.6743C35.3245 27.8176 35.1813 27.9465 35.0237 28.0897C34.6513 28.4192 34.2788 28.7343 33.8921 29.0351C33.7632 29.1354 33.6343 29.25 33.491 29.3359C32.8894 29.7799 32.2735 30.181 31.6289 30.5535C31.5 30.6251 31.3567 30.6967 31.2278 30.7683C30.5116 31.1551 29.7668 31.5275 28.9933 31.8426C28.3057 32.1291 27.5608 32.344 26.816 32.5588C26.4436 32.6734 26.0568 32.788 25.6557 32.8883C25.0685 33.0315 24.4382 33.1604 23.8079 33.275C23.4212 33.3466 23.0344 33.4326 22.6334 33.4756C21.9172 33.5758 21.1723 33.6474 20.4131 33.7191C20.055 33.7477 19.7113 33.7907 19.3532 33.8193C18.2072 33.8766 17.0327 33.9196 15.8008 33.9053L52.8715 56.8381C54.1034 56.8381 55.2779 56.8238 56.4095 56.7522C56.782 56.7235 57.1257 56.6806 57.4982 56.6519C58.243 56.5946 58.9879 56.523 59.6897 56.4227C60.1051 56.3654 60.4919 56.2795 60.8786 56.2079C61.5089 56.0933 62.1248 55.9787 62.7121 55.8211C63.1132 55.7208 63.4856 55.6063 63.8724 55.4917C64.1875 55.3914 64.5313 55.3198 64.8464 55.2195C65.2618 55.0763 65.6629 54.933 66.0496 54.7755C66.8231 54.4603 67.568 54.1022 68.2842 53.7012C68.3701 53.6582 68.4561 53.6295 68.542 53.5866C68.5993 53.5579 68.6423 53.5149 68.6996 53.4863C69.3442 53.1139 69.9601 52.7128 70.5617 52.2687C70.6047 52.2401 70.6477 52.2114 70.6906 52.1828C70.7909 52.1112 70.8768 52.0252 70.9771 51.9393C71.3639 51.6385 71.7363 51.3234 72.0944 50.9939C72.1803 50.9223 72.2663 50.8507 72.3522 50.779C72.4238 50.7217 72.4811 50.6501 72.5384 50.5785C72.9109 50.2204 73.269 49.848 73.6271 49.4612C73.6987 49.3896 73.7703 49.318 73.8419 49.232C73.8562 49.2177 73.8706 49.1891 73.8992 49.1747C74.3433 48.6591 74.773 48.1148 75.1741 47.5418C75.217 47.4845 75.2457 47.4559 75.2887 47.3986C75.3459 47.3269 75.3889 47.2267 75.4462 47.1407C75.8903 46.4818 76.32 45.7943 76.7354 45.0637C76.764 45.0064 76.7927 44.9635 76.8213 44.9062C76.8213 44.8775 76.85 44.8632 76.8643 44.8345C77.1794 44.2473 77.4946 43.6313 77.781 42.9867C77.8527 42.8435 77.91 42.6716 77.9816 42.5284C78.2108 42.027 78.4256 41.5114 78.6262 40.9957C78.6548 40.9241 78.6835 40.8525 78.7121 40.7808C78.7837 40.6089 78.8267 40.4371 78.8983 40.2652C79.0702 39.8068 79.2421 39.3341 79.3997 38.8471C79.4856 38.5749 79.5859 38.2885 79.6718 38.002L79.6432 38.0163Z" fill="#70613B"/>
<path d="M90.6848 152.609L68.0527 138.6C70.7457 140.262 73.4099 142.725 76.1315 145.991L98.7635 160C96.042 156.734 93.3777 154.285 90.6848 152.609Z" fill="#70613B"/>
<path d="M134.716 35.6956C133.728 35.6669 132.782 35.6096 131.866 35.538C131.622 35.5237 131.393 35.495 131.149 35.4807C130.347 35.4091 129.574 35.3088 128.829 35.1942C128.729 35.1942 128.614 35.1656 128.514 35.1513C127.611 35.008 126.766 34.8075 125.95 34.607C125.778 34.564 125.592 34.521 125.42 34.4637C124.632 34.2345 123.858 33.991 123.142 33.7045C122.827 33.5756 122.526 33.4324 122.211 33.2891C122.054 33.2175 121.896 33.1602 121.753 33.0743C121.323 32.8594 120.893 32.6302 120.492 32.3724C120.492 32.3724 120.464 32.3724 120.449 32.3438L143.081 46.3527C143.081 46.3527 143.11 46.3527 143.124 46.3813C143.525 46.6249 143.941 46.854 144.385 47.0832C144.542 47.1548 144.7 47.2265 144.872 47.2981C145.144 47.427 145.416 47.5559 145.688 47.6705C145.717 47.6705 145.746 47.6848 145.774 47.6992C146.49 47.9856 147.25 48.2292 148.052 48.4583C148.224 48.5156 148.41 48.5586 148.596 48.6016C149.412 48.8164 150.272 49.0026 151.174 49.1459C151.189 49.1459 151.203 49.1459 151.232 49.1459C151.303 49.1459 151.389 49.1602 151.475 49.1745C152.22 49.2891 153.008 49.3894 153.81 49.461C154.053 49.4897 154.297 49.504 154.541 49.5326C155.457 49.6043 156.403 49.6616 157.391 49.6902L134.759 35.6813L134.716 35.6956Z" fill="#70613B"/>
<path d="M142.224 103.148C142.497 102.259 142.74 101.357 142.955 100.455C142.998 100.283 143.027 100.111 143.07 99.9246C143.256 99.0652 143.428 98.2058 143.585 97.3463C143.6 97.246 143.628 97.1314 143.643 97.0312C143.786 96.1001 143.9 95.1691 143.986 94.238C144.001 94.0375 144.029 93.8226 144.044 93.6221C144.115 92.691 144.172 91.7599 144.187 90.8289C144.187 90.7143 144.187 90.5853 144.187 90.4708C144.187 89.597 144.172 88.7375 144.115 87.8638C144.115 87.6919 144.115 87.5343 144.087 87.3624C144.029 86.4457 143.929 85.5146 143.8 84.5979C143.771 84.3973 143.743 84.2111 143.714 84.0106C143.571 83.0652 143.399 82.1198 143.184 81.1888C141.05 71.8781 135.764 64.6874 128.774 60.3616C116.427 52.7125 104.065 45.0778 91.7034 37.4287C98.6936 41.7546 103.979 48.9309 106.128 58.2559C106.343 59.187 106.515 60.1324 106.658 61.0778C106.686 61.264 106.715 61.4645 106.744 61.665C106.873 62.5818 106.973 63.5128 107.03 64.4296C107.03 64.6015 107.045 64.759 107.059 64.9309C107.102 65.8047 107.13 66.6641 107.13 67.5379C107.13 67.6525 107.13 67.7814 107.13 67.896C107.13 68.8271 107.059 69.7581 106.987 70.6892C106.973 70.8897 106.944 71.1046 106.93 71.3051C106.844 72.2362 106.729 73.1673 106.586 74.0983C106.572 74.2129 106.543 74.3132 106.529 74.4135C106.386 75.2729 106.214 76.1324 106.013 76.9918C105.97 77.1637 105.942 77.3499 105.899 77.5218C105.684 78.4242 105.44 79.3266 105.168 80.2147C105.111 80.4009 105.053 80.6015 104.996 80.7877C104.71 81.6615 104.423 82.5352 104.094 83.409C104.094 83.452 104.065 83.4949 104.051 83.5379C103.707 84.4403 103.32 85.3427 102.919 86.2308C102.833 86.417 102.747 86.5889 102.676 86.7751C102.275 87.6346 101.845 88.4797 101.386 89.3248C101.286 89.511 101.172 89.6973 101.071 89.8835C100.771 90.4278 100.455 90.9578 100.14 91.4878C100.011 91.7026 99.8825 91.9032 99.7535 92.118C99.3381 92.7769 98.9084 93.4358 98.4644 94.0804C98.4357 94.1234 98.4071 94.1664 98.3641 94.2237C97.9344 94.8253 97.4903 95.4126 97.0463 95.9998C96.8887 96.2004 96.7312 96.4009 96.5736 96.6015C96.2442 97.0169 95.9147 97.4179 95.5709 97.819C95.399 98.0339 95.2128 98.2344 95.0266 98.4493C94.6972 98.8217 94.3534 99.1941 94.0096 99.5665C93.8377 99.7528 93.6658 99.939 93.4796 100.125C93.0356 100.584 92.5915 101.028 92.1188 101.457C92.0329 101.543 91.9469 101.629 91.861 101.701C91.3024 102.231 90.7151 102.732 90.1278 103.234C89.9559 103.377 89.7697 103.52 89.5978 103.663C89.1681 104.021 88.7383 104.365 88.2943 104.695C88.0938 104.852 87.8932 104.995 87.6784 105.153C87.1054 105.583 86.5181 105.998 85.9165 106.385C85.8019 106.456 85.6873 106.542 85.5727 106.614C84.8708 107.072 84.1546 107.502 83.4241 107.917C83.2236 108.032 83.023 108.147 82.8225 108.247C82.2925 108.548 81.7482 108.82 81.2039 109.092C80.989 109.192 80.7742 109.307 80.5593 109.407C79.8288 109.751 79.0696 110.095 78.3247 110.396C77.6085 110.682 76.9067 110.94 76.2048 111.183C75.9469 111.269 75.6891 111.341 75.4313 111.427C74.9729 111.57 74.5289 111.713 74.0705 111.842C73.7697 111.928 73.4689 111.986 73.1824 112.071C72.767 112.172 72.3516 112.286 71.9505 112.372C71.6354 112.444 71.3203 112.487 71.0195 112.544C70.6184 112.616 70.2316 112.702 69.8449 112.759C69.5298 112.802 69.2146 112.845 68.8852 112.888C68.4984 112.931 68.126 112.988 67.7392 113.017C67.4241 113.045 67.0947 113.074 66.7795 113.088C66.4071 113.117 66.0347 113.146 65.6479 113.146C65.3328 113.146 65.0177 113.16 64.7025 113.16C64.3301 113.16 63.9577 113.16 63.5853 113.16C63.2701 113.16 62.9693 113.131 62.6542 113.117C62.2818 113.103 61.9237 113.074 61.5512 113.045C61.2504 113.017 60.9353 112.988 60.6345 112.96C60.2764 112.917 59.904 112.874 59.5459 112.816C59.2307 112.773 58.9156 112.716 58.6148 112.673C58.3427 112.616 58.0705 112.573 57.7983 112.516C57.4689 112.444 57.1394 112.372 56.81 112.301C56.5378 112.243 56.2657 112.172 56.0078 112.1C55.6784 112.014 55.3632 111.914 55.0338 111.814C54.776 111.742 54.5038 111.656 54.246 111.57C53.9165 111.47 53.6014 111.341 53.2863 111.226C53.0284 111.126 52.7849 111.04 52.5271 110.94C52.3122 110.854 52.0974 110.768 51.8825 110.668C51.3525 110.439 50.8225 110.209 50.3068 109.951C50.1063 109.851 49.9058 109.765 49.7196 109.651C49.0463 109.307 48.3874 108.934 47.7285 108.533L84.7992 131.466C85.4438 131.867 86.117 132.24 86.7903 132.584C86.9765 132.684 87.177 132.784 87.3776 132.87C87.8932 133.128 88.4232 133.371 88.9532 133.586C89.0821 133.644 89.1967 133.701 89.3256 133.758C89.4116 133.801 89.5118 133.815 89.5978 133.858C89.8413 133.959 90.0848 134.045 90.3426 134.131C90.6721 134.245 91.0015 134.374 91.3167 134.474C91.5745 134.56 91.8323 134.632 92.0902 134.718C92.4196 134.818 92.7491 134.918 93.0929 135.004C93.3507 135.076 93.6228 135.133 93.8807 135.205C94.2245 135.291 94.5539 135.362 94.8977 135.434C95.1698 135.491 95.4277 135.534 95.6998 135.592C95.8431 135.62 95.9863 135.649 96.1439 135.678C96.3158 135.706 96.4877 135.72 96.6596 135.749C97.0177 135.806 97.3758 135.849 97.7339 135.892C98.0347 135.935 98.3355 135.964 98.6506 135.978C99.023 136.007 99.3811 136.036 99.7535 136.05C100.054 136.05 100.369 136.079 100.67 136.093C101.043 136.093 101.429 136.093 101.802 136.093C102.103 136.093 102.418 136.093 102.719 136.079C103.105 136.079 103.492 136.036 103.879 136.007C104.18 135.993 104.48 135.964 104.796 135.935C105.197 135.892 105.598 135.849 105.999 135.792C106.3 135.749 106.6 135.721 106.901 135.678C107.317 135.606 107.732 135.534 108.147 135.448C108.434 135.391 108.72 135.348 109.007 135.276C109.451 135.176 109.895 135.062 110.353 134.947C110.611 134.875 110.883 134.818 111.141 134.746C111.657 134.603 112.187 134.431 112.703 134.274C112.874 134.216 113.046 134.173 113.218 134.116C113.233 134.116 113.247 134.116 113.261 134.102C113.977 133.858 114.694 133.601 115.41 133.314C116.169 133.013 116.914 132.669 117.659 132.326C117.873 132.225 118.074 132.125 118.289 132.011C118.833 131.738 119.378 131.452 119.922 131.165C120.051 131.094 120.18 131.037 120.323 130.965C120.323 130.965 120.452 130.879 120.523 130.85C121.254 130.435 121.985 129.991 122.701 129.533C122.801 129.461 122.901 129.389 123.002 129.332C123.617 128.917 124.219 128.501 124.821 128.057C124.921 127.986 125.007 127.928 125.107 127.857C125.207 127.785 125.293 127.699 125.394 127.627C125.852 127.284 126.296 126.926 126.74 126.553C126.912 126.424 127.07 126.295 127.227 126.152C127.814 125.651 128.402 125.135 128.96 124.605L128.989 124.576C129.061 124.505 129.132 124.433 129.218 124.362C129.677 123.932 130.135 123.473 130.579 123.029C130.751 122.843 130.923 122.657 131.109 122.485C131.453 122.113 131.797 121.74 132.126 121.368C132.212 121.268 132.312 121.167 132.412 121.053C132.498 120.952 132.584 120.838 132.67 120.738C133.014 120.336 133.358 119.921 133.687 119.506C133.831 119.319 133.988 119.133 134.146 118.947C134.604 118.345 135.062 117.729 135.506 117.114C135.506 117.114 135.521 117.085 135.535 117.071C135.993 116.412 136.438 115.753 136.853 115.065C136.982 114.865 137.111 114.664 137.225 114.449C137.555 113.919 137.87 113.375 138.171 112.831C138.242 112.702 138.328 112.587 138.386 112.458C138.414 112.401 138.443 112.344 138.472 112.301C138.93 111.456 139.36 110.61 139.761 109.737C139.847 109.565 139.918 109.393 140.004 109.207C140.405 108.319 140.792 107.416 141.15 106.514C141.15 106.514 141.15 106.514 141.15 106.485C141.15 106.456 141.179 106.428 141.179 106.399C141.508 105.525 141.809 104.652 142.081 103.778C142.138 103.592 142.21 103.391 142.267 103.205L142.224 103.148Z" fill="#70613B"/>
<path d="M157.349 49.6901C158.581 52.7984 159.598 56.0499 160.386 59.4877C161.102 62.596 161.575 65.733 161.89 68.8843C147.767 82.8933 146.091 93.8082 156.246 107.301C153.754 113.661 150.517 119.763 146.635 125.436C141.478 125.565 137.138 126.324 133.486 127.799C124.705 131.352 119.935 139.072 117.657 152.365C114.664 154.055 111.584 155.574 108.375 156.863C105.152 158.166 101.944 159.198 98.7496 160C91.0719 150.804 83.8239 147.939 75.1579 151.448C71.5482 152.909 67.7094 155.459 63.4838 159.112C57.8114 157.235 52.4972 154.542 47.6986 151.047C50.0908 132.641 44.1463 124.863 27.029 123.531C25.926 120.652 24.995 117.658 24.2645 114.492C23.4623 111.011 22.9466 107.488 22.6602 103.964C36.4972 90.8861 38.2304 80.0857 28.6619 66.0768C31.2116 59.7026 34.5062 53.6005 38.431 47.9282C43.6163 47.9998 47.9708 47.3409 51.6234 45.8655C59.9744 42.4994 64.6297 34.8073 67.0505 21.5862C70.0299 19.9103 73.0952 18.4063 76.2895 17.1171C79.4551 15.8423 82.6494 14.8109 85.8007 14.0088C93.1776 23.3194 100.225 26.2845 108.648 22.8754C112.343 21.3857 116.311 18.6641 120.694 14.7107C126.295 16.5012 131.537 19.1225 136.307 22.4743C133.901 41.511 139.903 49.2174 157.349 49.7044V49.6901ZM100.927 124.376C121.038 116.254 133.5 92.9201 128.759 72.2648C124.017 51.6238 103.849 41.468 83.7523 49.5898C63.627 57.7259 51.1794 81.0598 55.9206 101.701C60.6619 122.342 80.8159 132.512 100.941 124.376" fill="#CEC8B8"/>
<path d="M125.665 16.5874C126.668 17.0171 127.656 17.4611 128.63 17.9482C129.003 18.1344 129.375 18.3063 129.747 18.5068C131.008 19.1657 136.308 22.4746 136.322 22.4746L122.8 13.9947C114.005 8.55158 119.649 12.0467 110.854 6.6035C109.636 5.84433 108.39 5.15677 107.115 4.49786C106.743 4.31165 106.37 4.12544 106.012 3.95355C105.038 3.46653 104.036 3.02248 103.033 2.59276C102.804 2.49249 102.575 2.36358 102.331 2.27763C102.202 2.22034 102.073 2.19169 101.944 2.13439C100.669 1.61873 99.3803 1.14603 98.0625 0.716309L120.709 14.7253C122.027 15.1406 123.316 15.6277 124.591 16.1433C124.963 16.2866 125.321 16.4585 125.694 16.616L125.665 16.5874Z" fill="#A49777"/>
<path d="M22.6457 103.95L0.0136719 89.9551C0.300153 93.4788 0.81582 97.0025 1.61797 100.483C2.3485 103.635 3.27956 106.643 4.38251 109.522L27.0145 123.531C25.9116 120.652 24.9805 117.658 24.25 114.492C23.4479 111.011 22.9322 107.488 22.6457 103.964V103.95Z" fill="#A49777"/>
<path d="M82.2772 14.9973C82.5636 14.9114 82.8501 14.8254 83.1366 14.7395C84.0247 14.4816 84.8985 14.2381 85.7865 14.0089L63.1402 0C62.2521 0.229185 61.3783 0.472694 60.4902 0.730528C60.2181 0.816472 59.9316 0.902417 59.6451 0.988361C59.0292 1.17457 58.4132 1.37511 57.7973 1.57565C57.6541 1.61862 57.4965 1.66159 57.3533 1.71889C57.2243 1.76186 57.0954 1.81916 56.9522 1.86213C55.8349 2.24888 54.732 2.64995 53.6147 3.10832C50.4204 4.39749 47.3407 5.90152 44.3613 7.57743L66.9934 21.5864C69.9728 19.9105 73.0381 18.4064 76.2324 17.1173C77.3353 16.6732 78.4526 16.2578 79.5556 15.8711C79.8421 15.7708 80.1285 15.6705 80.4007 15.5703C81.0166 15.3697 81.6182 15.1692 82.2199 14.983L82.2772 14.9973Z" fill="#A49777"/>
<path d="M33.217 56.3936C33.747 55.4195 34.3057 54.4742 34.8643 53.5288C35.1508 53.0561 35.4086 52.5691 35.6951 52.0964C36.5689 50.6783 37.4713 49.2888 38.4167 47.9137L15.7846 33.9048C14.8393 35.2656 13.9368 36.6693 13.0631 38.0874C12.7623 38.5601 12.5044 39.0471 12.2179 39.5341C11.7166 40.3793 11.2153 41.2101 10.7426 42.0552C10.6853 42.1555 10.6423 42.27 10.5707 42.3846C9.99772 43.4303 9.46773 44.5046 8.93774 45.5789C8.6799 46.1089 8.39342 46.6246 8.14991 47.1546C7.39074 48.7732 6.67453 50.4061 6.01562 52.0534L28.6477 66.0623C29.3066 64.4151 30.0228 62.7821 30.7819 61.1635C31.0398 60.6335 31.3119 60.1178 31.5698 59.5878C32.0998 58.5135 32.6298 57.4392 33.2027 56.3936H33.217Z" fill="#A49777"/>
</svg>
