<svg width="82" height="84" viewBox="0 0 82 84" fill="none" xmlns="http://www.w3.org/2000/svg">
<g clip-path="url(#clip0_2669_75047)">
<path d="M55.0954 22.2107C54.3515 18.8886 51.8446 16.6263 49.4906 17.1461L48.2678 17.3295C48.1149 17.3397 47.9722 17.3601 47.8194 17.4008C45.4654 17.9307 44.1712 21.049 44.9151 24.3711C45.659 27.6932 48.1659 29.9555 50.5199 29.4358L51.7427 29.2523C51.8956 29.2421 52.0382 29.2218 52.1911 29.181C54.5451 28.6511 55.8393 25.5328 55.0954 22.2107Z" fill="#323043"/>
<path d="M81.68 83.9998C81.68 63.7498 60.45 42.7898 45.76 42.1598C44.53 42.1098 43.99 41.5698 42.84 41.4298C38.66 40.9698 35.55 40.8498 35.55 40.8498C35.55 40.8498 34.04 40.7998 31.72 40.9498C28.22 41.1798 22.9 41.8698 18.14 43.9298C9.79 46.7098 0 60.2498 0 83.9998H81.68Z" fill="#323043"/>
<path d="M50.5597 14.0001L29.3697 30.0401C29.3697 30.0401 17.8297 18.4501 22.5197 11.8301C25.4297 7.71012 31.3297 5.73012 35.3597 4.82012C35.8197 4.72012 36.2497 4.63012 36.6597 4.56012C38.3997 4.22012 39.5597 4.12012 39.5597 4.12012V4.19012C40.3097 3.92012 47.6497 -1.39988 51.6797 0.36012C57.2097 2.77012 50.5597 14.0001 50.5597 14.0001Z" fill="black"/>
<path d="M31.5691 32.5498L30.8691 43.9298C30.8691 43.9298 32.7191 47.3298 39.3491 48.2798C44.2891 48.9898 46.0991 47.9698 46.0991 47.9698L45.7591 42.1598L45.4191 36.4998L33.5591 33.1198L31.5691 32.5498Z" fill="#FDD3AA"/>
<path d="M33.5605 33.1201C33.5605 33.4301 33.6705 33.8101 33.8205 34.2401C36.0205 40.0801 42.9105 41.7401 45.7605 42.1701L45.4205 36.5101L33.5605 33.1301V33.1201Z" fill="black"/>
<path d="M49.55 10.7101C49.55 10.7101 54.65 25.3501 51.81 33.1301C48.97 40.9201 41.82 39.1001 37.6 37.2301C33.38 35.3601 31.57 32.5401 31.57 32.5401C31.57 32.5401 27.41 33.6001 24.99 29.6301C22.57 25.6501 24.57 21.4601 26.96 20.6401C29.35 19.8201 31.97 21.7101 31.97 21.7101L30.13 17.4301C30.13 17.4301 40.81 -2.78992 49.55 10.7001V10.7101Z" fill="#FDD3AA"/>
<path d="M31.2 27.9298C31.08 27.9298 30.95 27.8898 30.85 27.8098L25.95 23.8098C25.71 23.6198 25.68 23.2698 25.87 23.0398C26.06 22.7998 26.41 22.7698 26.64 22.9598L31.54 26.9598C31.78 27.1498 31.81 27.4998 31.62 27.7298C31.51 27.8598 31.35 27.9298 31.19 27.9298H31.2Z" fill="black"/>
<path d="M26.5292 27.58C26.2692 27.58 26.0392 27.4 25.9892 27.13C25.9292 26.83 26.1292 26.54 26.4292 26.49L29.8592 25.83C30.1492 25.77 30.4492 25.97 30.4992 26.27C30.5592 26.57 30.3592 26.86 30.0592 26.91L26.6292 27.57C26.6292 27.57 26.5592 27.58 26.5192 27.58H26.5292Z" fill="black"/>
<path d="M39.6899 16.8298C39.5599 16.8298 39.4299 16.7898 39.3299 16.6898C39.0999 16.4898 39.0799 16.1398 39.2799 15.9098C40.9899 13.9598 43.0799 14.4598 43.9499 15.0098C44.2099 15.1698 44.2899 15.5098 44.1299 15.7698C43.9699 16.0298 43.6299 16.0998 43.3699 15.9498C43.1899 15.8398 41.5899 14.9498 40.1099 16.6398C39.9999 16.7598 39.8499 16.8298 39.6999 16.8298H39.6899Z" fill="black"/>
<path d="M50.7506 16.3702C50.6206 16.3702 50.4806 16.3202 50.3706 16.2202C49.2906 15.2002 48.0306 15.8002 47.9806 15.8302C47.7106 15.9602 47.3806 15.8502 47.2406 15.5802C47.1006 15.3102 47.2106 14.9802 47.4806 14.8402C47.5606 14.8002 49.4506 13.8602 51.1206 15.4102C51.3406 15.6202 51.3506 15.9702 51.1506 16.1902C51.0406 16.3102 50.9006 16.3602 50.7506 16.3602V16.3702Z" fill="black"/>
<path d="M48.1691 27.0802C48.1091 27.0802 48.0391 27.0702 47.9791 27.0502C47.6891 26.9502 47.5491 26.6302 47.6491 26.3402C49.0991 22.3902 47.2091 20.1002 47.1291 20.0002C46.9291 19.7702 46.9591 19.4202 47.1891 19.2302C47.4191 19.0302 47.7591 19.0602 47.9591 19.2902C48.0591 19.4002 50.3491 22.1402 48.6791 26.7202C48.5991 26.9402 48.3891 27.0802 48.1591 27.0802H48.1691Z" fill="black"/>
<path d="M50.3598 21.8302C50.1098 21.8302 49.8798 21.6502 49.8198 21.3902L49.2698 18.7402C49.2698 18.7402 49.2598 18.6602 49.2598 18.6302C49.2598 18.3802 49.4398 18.1502 49.6998 18.0902C49.9898 18.0302 50.2898 18.2202 50.3498 18.5202L50.8998 21.1702C50.8998 21.1702 50.9098 21.2502 50.9098 21.2802C50.9098 21.5402 50.7298 21.7602 50.4698 21.8202C50.4298 21.8202 50.3898 21.8302 50.3598 21.8302Z" fill="black"/>
<path d="M42.0503 22.0299C41.8003 22.0299 41.5703 21.8499 41.5103 21.5899L40.9603 18.9399C40.9003 18.6399 41.0903 18.3499 41.3903 18.2899C41.6803 18.2299 41.9803 18.4199 42.0403 18.7199L42.5903 21.3699C42.6503 21.6699 42.4603 21.9599 42.1603 22.0199C42.1203 22.0199 42.0803 22.0299 42.0503 22.0299Z" fill="black"/>
<path d="M50.5495 14.0002C50.5495 14.0002 49.4495 11.6402 46.6195 11.4402C43.7795 11.2502 41.9995 13.1402 41.9995 13.1402C41.9995 13.1402 42.9495 18.0002 38.9395 20.3002C34.9195 22.6002 31.9795 21.7102 31.9795 21.7102L29.2395 20.5402L27.4395 16.3202L36.0795 8.0902L46.9095 3.2002L51.9595 8.3802L50.5695 14.0002H50.5495Z" fill="black"/>
<path d="M45.0299 31.44C44.5899 31.44 41.9599 31.33 40.9399 28.75C40.8299 28.47 40.9699 28.15 41.2499 28.04C41.5299 27.93 41.8499 28.07 41.9599 28.35C42.7699 30.4 45.0099 30.35 45.0499 30.35C45.3599 30.35 45.6099 30.58 45.6199 30.88C45.6199 31.18 45.3899 31.44 45.0899 31.45C45.0899 31.45 45.0599 31.45 45.0299 31.45V31.44Z" fill="black"/>
<path d="M42.9909 49.16C35.5409 49.16 29.8709 44 29.5909 43.74C29.3709 43.53 29.3509 43.19 29.5609 42.96C29.7709 42.74 30.1109 42.72 30.3409 42.93C30.4109 43 37.8409 49.75 46.4809 47.63C46.7709 47.56 47.0709 47.74 47.1409 48.03C47.2109 48.32 47.0309 48.62 46.7409 48.69C45.4509 49 44.2009 49.14 42.9909 49.14V49.16Z" fill="white"/>
<path d="M35.5396 26.3697C35.9676 29.7427 34.3881 32.7285 32.0035 33.0343C29.6189 33.34 27.3261 30.8535 26.8981 27.4703C26.4701 24.087 28.0496 21.1114 30.4342 20.8057C32.8188 20.5 35.1116 22.9865 35.5396 26.3697Z" fill="#323043"/>
<path d="M33.8892 26.7056C34.3172 30.0787 32.7377 33.0645 30.3531 33.3702C27.9686 33.6759 25.6757 31.1894 25.2477 27.8062C24.8197 24.423 26.3992 21.4474 28.7838 21.1416C31.1684 20.8359 33.4612 23.3224 33.8892 26.6954V26.7056Z" fill="white"/>
<path d="M28.8398 7C28.8398 7 25.7575 7.84238 25.248 9.76838C24.7384 11.6944 27.7242 23.8414 27.7242 23.8414L31.4947 22.9854L28.8398 7Z" fill="white"/>
<path d="M32.3559 29.8806C32.5756 29.7134 32.8893 29.756 33.0565 29.9757C33.9806 31.1902 37.0529 33.7892 41.6941 34.0299C41.9698 34.0442 42.182 34.2789 42.1679 34.5545C42.1536 34.8301 41.9189 35.0423 41.6434 35.0283C36.6645 34.7702 33.3349 31.9927 32.2608 30.5812C32.0936 30.3615 32.1361 30.0479 32.3559 29.8806Z" fill="white"/>
<circle cx="42.1635" cy="34.5963" r="1.5" transform="rotate(7.73041 42.1635 34.5963)" fill="#323043"/>
</g>
<defs>
<clipPath id="clip0_2669_75047">
<rect width="81.68" height="84" fill="white"/>
</clipPath>
</defs>
</svg>
