<svg width="202" height="237" viewBox="0 0 202 237" fill="none" xmlns="http://www.w3.org/2000/svg">
<path d="M86.5868 201.781C83.769 207.994 72.649 209.026 61.7493 204.082C50.8497 199.139 44.2999 190.094 47.1181 183.88L55.4132 165.591L94.8819 183.492L86.5868 201.781Z" fill="#D10464"/>
<path d="M61.7497 204.084C56.8935 201.881 52.9037 198.864 50.2179 195.645L50.0234 196.074C48.2044 200.084 52.4332 205.923 59.4682 209.114C66.5032 212.305 73.6821 211.639 75.501 207.629L75.6952 207.201C71.5045 207.3 66.6068 206.287 61.7497 204.084Z" fill="#9F004A"/>
<path d="M72.5037 180.355C57.7469 173.662 48.878 161.415 52.6943 153C56.5105 144.586 71.5654 143.194 86.3222 149.887C101.079 156.58 109.948 168.827 106.133 177.238C102.319 185.648 87.2604 187.048 72.5037 180.355Z" fill="#CE2172"/>
<path d="M72.5082 180.356C58.3243 173.923 49.5864 162.36 52.3173 154.001L48.4269 162.421C44.6106 170.835 53.4795 183.082 68.2363 189.775C82.993 196.468 98.0496 195.072 101.866 186.658L106.137 177.24C102.321 185.654 87.2645 187.05 72.5078 180.357L72.5082 180.356Z" fill="#F5147D"/>
<path d="M75.1463 174.54C66.0247 170.402 60.5408 162.831 62.9 157.63C65.2591 152.428 74.5664 151.567 83.6889 155.705C92.8115 159.842 98.294 167.414 95.9357 172.613C93.5774 177.813 84.2689 178.677 75.1463 174.54Z" fill="#F5147D"/>
<path d="M66.6507 159.329L77.4706 135.473C77.3275 135.348 77.1865 135.222 77.0484 135.093L76.8882 134.942C75.0928 133.226 73.2329 130.722 72.3737 128.22L72.3735 128.219C71.1628 124.69 71.767 120.344 74.95 117.722L74.9501 117.722C76.1941 116.698 77.5756 116.244 78.9484 116.309C80.2985 116.372 81.5268 116.929 82.5219 117.73C84.4738 119.301 85.7723 122.008 85.4409 124.692C85.4231 124.836 85.3836 124.976 85.3236 125.109L81.0301 134.575C83.6492 136.286 86.8215 137.218 89.8038 136.865C88.862 134.139 88.9072 131.062 90.367 128.362L90.367 128.362C91.3872 126.476 93.1972 125.179 95.1163 125.193C96.101 125.201 97.0612 125.564 97.8214 126.313C98.5688 127.05 99.0411 128.078 99.246 129.298L99.2557 129.358C99.4494 130.621 99.0844 132.058 98.6289 133.225C98.1521 134.446 97.4668 135.645 96.7781 136.449C95.9819 137.378 95.0174 138.084 93.9773 138.603C94.0863 138.741 94.1992 138.876 94.3165 139.007L94.3164 139.007C95.9031 140.785 98.1561 142.267 100.504 143.177L104.71 133.904C105.111 133.019 105.68 132.371 106.377 131.961C107.064 131.557 107.773 131.446 108.366 131.458C108.952 131.469 109.46 131.6 109.809 131.717C109.987 131.778 110.134 131.838 110.241 131.886C110.295 131.91 110.34 131.931 110.374 131.948C110.376 131.949 110.378 131.95 110.38 131.951C111.705 132.533 112.76 133.674 113.497 134.844C114.25 136.041 114.781 137.441 114.932 138.715L114.932 138.716C115.225 141.182 114.076 143.009 112.554 144.246C111.082 145.443 109.195 146.159 107.658 146.575L107.658 146.575C105.808 147.077 103.926 147.064 102.111 146.66C102.1 146.658 102.09 146.655 102.08 146.653L91.2658 170.496C90.9383 171.218 90.0877 171.537 89.3657 171.21C88.6438 170.883 88.324 170.032 88.6514 169.31L99.3169 145.794C96.6213 144.724 94.0459 143.015 92.1746 140.918L92.1744 140.918C91.7954 140.494 91.4467 140.039 91.1312 139.56C90.8145 139.623 90.4982 139.673 90.1845 139.711L90.1845 139.711C86.5711 140.15 82.8818 139.103 79.833 137.215L69.265 160.515C68.9376 161.237 68.087 161.557 67.365 161.229C66.6431 160.902 66.3232 160.051 66.6507 159.329ZM80.7224 119.967C80.108 119.472 79.4465 119.206 78.814 119.176C78.2044 119.147 77.5108 119.332 76.775 119.938C74.7325 121.621 74.167 124.6 75.0888 127.287L75.1207 127.379C75.783 129.238 77.2265 131.252 78.7196 132.719L82.6113 124.139C82.7201 122.605 81.9362 120.943 80.7224 119.967ZM95.8056 128.357C95.6017 128.156 95.3675 128.066 95.0953 128.064C94.5004 128.06 93.5458 128.519 92.8922 129.728C91.8402 131.674 91.8066 134 92.573 136.094C93.3606 135.718 94.0544 135.216 94.5982 134.581L94.639 134.533C95.0634 134.021 95.5779 133.146 95.9549 132.18C96.358 131.148 96.4997 130.277 96.4151 129.774L96.415 129.773C96.2838 128.992 96.0223 128.571 95.8056 128.357ZM103.298 143.966C104.521 144.165 105.734 144.123 106.906 143.805C108.275 143.433 109.72 142.85 110.744 142.018C111.718 141.226 112.228 140.295 112.082 139.055L112.072 138.98C111.966 138.204 111.613 137.241 111.067 136.374C110.496 135.466 109.82 134.833 109.205 134.57C109.168 134.554 109.131 134.536 109.096 134.518L109.096 134.518C109.096 134.518 109.096 134.518 109.097 134.518C109.098 134.519 109.098 134.519 109.099 134.519C109.1 134.52 109.101 134.521 109.103 134.521C109.105 134.522 109.106 134.523 109.107 134.524C109.103 134.522 109.091 134.516 109.073 134.508C109.035 134.491 108.972 134.465 108.891 134.437C108.722 134.38 108.514 134.332 108.31 134.328C108.114 134.324 107.958 134.362 107.831 134.436C107.713 134.505 107.516 134.666 107.324 135.089L103.298 143.966Z" fill="#87003F"/>
<path opacity="0.3" d="M174.574 113.41C189.47 80.5672 174.921 41.8673 142.078 26.9714C109.235 12.0755 70.535 26.6244 55.6391 59.4673C47.2971 77.8601 48.1947 98.0865 56.3634 114.943L56.1573 114.85C56.1573 114.85 64.4945 131.063 54.4824 153.138C50.892 161.059 59.2413 172.588 73.1317 178.888C87.022 185.188 101.197 183.875 104.79 175.955L104.796 175.958C114.808 153.884 132.498 149.474 132.498 149.474L132.359 149.411C150.422 144.452 166.231 131.802 174.573 113.41L174.574 113.41Z" fill="#FF8AC4"/>
<path opacity="0.5" d="M164.112 61.5823C170.623 75.2201 169.123 89.5112 160.76 93.5041C152.398 97.496 140.341 89.6782 133.83 76.0404C127.319 62.4036 128.82 48.1106 137.183 44.1177C145.545 40.1258 157.603 47.9449 164.112 61.5823Z" fill="white"/>
<path opacity="0.3" d="M171.352 119.597C165.751 126.43 158.98 132.041 150.206 134.967C138.598 138.838 125.48 138.415 113.914 134.613C100.176 130.095 89.3011 120.826 82.2247 108.251C71.7481 89.6323 71.6872 67.451 82.7278 49.0379C89.9019 37.0741 100.443 27.5894 112.666 21.1902C88.7396 22.103 66.2041 36.1772 55.6407 59.4676C47.2987 77.8604 48.1963 98.0868 56.365 114.944L56.159 114.85C56.159 114.85 64.4961 131.063 54.484 153.138C50.8936 161.059 59.243 172.589 73.1333 178.889C87.0236 185.189 101.199 183.875 104.792 175.955L104.798 175.958C114.809 153.884 132.5 149.475 132.5 149.475L132.361 149.412C148.319 145.03 162.507 134.639 171.352 119.597Z" fill="#FF8AC4"/>
</svg>
