<svg width="109" height="160" viewBox="0 0 109 160" fill="none" xmlns="http://www.w3.org/2000/svg">
<g clip-path="url(#clip0_2710_75429)">
<path d="M60.6905 18.6632L53.1375 21.9133H38.1037L30.4141 18.6632L43.7849 0.909699C44.7015 -0.307028 46.5353 -0.303392 47.446 0.917699L60.6905 18.6632Z" fill="#89B90A"/>
<path d="M48.7446 2.65806L47.446 0.917699C46.5353 -0.303392 44.7007 -0.307028 43.7849 0.909699L30.4141 18.6632L38.1037 21.9133H44.3801L36.6905 18.6632L48.7446 2.65806Z" fill="#557500"/>
<path d="M0 109.523L30.4138 18.6631H60.691L91.2413 109.523L76.9525 116.023H14.1735L0 109.523Z" fill="#6D7067"/>
<path d="M36.6917 18.6631H30.4138L0 109.523L14.1735 116.023H18.8804L6.27863 109.523L36.6917 18.6631Z" fill="#5D5F59"/>
<path d="M15.1355 96.5496L37.2776 30.2558C37.5763 29.3619 38.4162 28.7583 39.362 28.7583H40.5524L45.6216 32.0085L50.6908 28.7583H51.7571C52.7021 28.7583 53.5413 29.3598 53.8407 30.2528L76.0828 96.5467C76.5583 97.9634 75.4993 99.4274 73.9992 99.4274H50.6915L45.6223 96.1772L40.5531 99.4274H17.2199C15.7212 99.4274 14.6623 97.9656 15.1355 96.5496Z" fill="#444541"/>
<path d="M50.687 36.4189L47.4232 38.8567L50.687 41.2945V46.5135L47.4232 48.9513L50.687 51.3891V56.608L47.4232 59.0458L50.687 61.4836V66.7055L47.4232 69.1433L50.687 71.5811V76.8029L47.4232 79.2407L50.687 81.6785V99.4284H40.5508V81.6785L43.8146 79.2407L40.5508 76.8029V71.5811L43.8146 69.0902L40.5508 66.7055V61.4836L43.8146 59.0458L40.5508 56.608V51.3891L43.8146 48.9513L40.5508 46.5135V41.2945L43.8146 38.8567L40.5508 36.4189V28.7593H50.687V36.4189Z" fill="#F7F7F7"/>
<path d="M20.2751 146.654H10.1367V157.813C10.1367 159.021 11.1205 160 12.3335 160H18.0783C19.2914 160 20.2751 159.022 20.2751 157.813V146.654Z" fill="#6D7067"/>
<path d="M14.8437 157.812V146.654H10.1367V157.812C10.1367 159.02 11.1205 160 12.3335 160H17.0405C15.8274 160 14.8437 159.021 14.8437 157.812Z" fill="#444541"/>
<path d="M81.1025 146.654H70.9648V157.813C70.9648 159.021 71.9479 160 73.1617 160H78.9064C80.1195 160 81.1033 159.022 81.1033 157.813V146.654H81.1025Z" fill="#6D7067"/>
<path d="M75.6718 157.812V146.654H70.9648V157.812C70.9648 159.02 71.9479 160 73.1617 160H77.8686C76.6556 160 75.6718 159.021 75.6718 157.812Z" fill="#444541"/>
<path d="M89.0445 149.905H2.19683C0.983752 149.905 0 148.926 0 147.717V109.523H91.2413V147.717C91.2413 148.925 90.2583 149.905 89.0445 149.905Z" fill="#89B90A"/>
<path d="M6.27644 147.717V109.523H0V147.717C0 148.925 0.983021 149.905 2.19683 149.905H8.47327C7.26019 149.905 6.27644 148.926 6.27644 147.717Z" fill="#557500"/>
<path d="M108.286 40.4719L49.0846 99.4253H42.3027L104.824 37.0254C105.778 36.0755 107.328 36.0755 108.285 37.0254C109.239 37.9788 109.239 39.5221 108.285 40.4719H108.286Z" fill="#C8CAC3"/>
<path d="M105.148 47.6239C105.148 51.8057 101.744 55.1955 97.5449 55.1955C93.3455 55.1955 89.9414 51.8057 89.9414 47.6239C89.9414 43.4421 93.3455 40.0522 97.5449 40.0522C101.744 40.0522 105.148 43.4421 105.148 47.6239Z" fill="#9EA197"/>
<path d="M40.5508 76.7983H50.6877V81.6733H40.5508V76.7983Z" fill="#E8E8E8"/>
<path d="M40.5508 66.7041H50.6877V71.579H40.5508V66.7041Z" fill="#E8E8E8"/>
<path d="M40.5508 56.6055H50.6877V61.4804H40.5508V56.6055Z" fill="#E8E8E8"/>
<path d="M40.5508 46.5112H50.6877V51.3861H40.5508V46.5112Z" fill="#E8E8E8"/>
<path d="M40.5508 36.4194H50.6877V41.2943H40.5508V36.4194Z" fill="#E8E8E8"/>
</g>
<defs>
<clipPath id="clip0_2710_75429">
<rect width="109" height="160" fill="white"/>
</clipPath>
</defs>
</svg>
