<svg width="137" height="160" viewBox="0 0 137 160" fill="none" xmlns="http://www.w3.org/2000/svg">
<path d="M81.1949 147.925H9.3686L0 160H90.5635L81.1949 147.925Z" fill="#454260"/>
<g style="mix-blend-mode:multiply" opacity="0.46">
<path d="M90.5651 159.999H66.8901L57.5215 147.926H81.1965L90.5651 159.999Z" fill="#6B669E"/>
</g>
<g style="mix-blend-mode:screen" opacity="0.34">
<path d="M33.6662 147.926L24.2976 159.999H11.2773L20.6459 147.926H33.6662Z" fill="#454260"/>
</g>
<path d="M69.2241 139.874H21.3399L15.0938 147.924H75.4703L69.2241 139.874Z" fill="#B6B4CC"/>
<g style="mix-blend-mode:multiply" opacity="0.52">
<path d="M75.4716 147.926H55.6797L50.1289 140.772H69.9209L75.4716 147.926Z" fill="#A19FB7"/>
</g>
<path d="M52.7952 113.526V139.876H37.7676V113.526L39.9879 104.227H50.5737L52.7952 113.526Z" fill="#B6B4CC"/>
<g style="mix-blend-mode:screen" opacity="0.77">
<path d="M43.4995 110.081L42.6761 113.526V139.875H40.0645V113.526L41.0688 109.314C41.8601 109.64 42.6724 109.895 43.4983 110.081H43.4995Z" fill="#B8B6CE"/>
</g>
<g style="mix-blend-mode:multiply" opacity="0.52">
<path d="M52.7967 113.526V139.876H48.6946V113.526L48.4571 112.532L47.9598 110.452C44.894 110.634 41.7703 109.925 39.0195 108.298L39.9906 104.227H50.5764L51.886 109.715L52.3537 111.671L52.7967 113.526Z" fill="#827FA0"/>
</g>
<path d="M59.1413 103.066C66.7263 95.4814 66.7264 83.1836 59.1413 75.5986C51.5563 68.0135 39.2585 68.0135 31.6734 75.5986C24.0884 83.1836 24.0884 95.4814 31.6734 103.066C39.2585 110.652 51.5562 110.652 59.1413 103.066Z" fill="#454260"/>
<g style="mix-blend-mode:multiply" opacity="0.46">
<path d="M59.9744 102.176C52.8827 110.221 40.6095 110.996 32.5628 103.902C31.1252 102.634 29.9178 101.198 28.9492 99.6533C36.5504 103.186 45.8686 101.482 51.6926 94.8755C57.519 88.2662 58.0396 78.8078 53.5818 71.71C55.2359 72.4767 56.8126 73.4946 58.2501 74.7623C66.2968 81.8564 67.0673 94.1296 59.9744 102.176Z" fill="#6B669E"/>
</g>
<path d="M22.9111 0.00634766C-12.3332 71.957 69.8882 144.437 136.849 100.447L22.9111 0.00634766Z" fill="#DAD7F7"/>
<path d="M38.433 88.5807C36.9253 87.8521 35.4644 87.0558 34.0539 86.1844L34.0515 86.1819C32.2767 84.1598 30.6041 82.0515 29.0386 79.8619C20.1746 64.1007 21.0484 40.0515 37.4816 12.8491L46.3592 20.6743C29.6096 48.3974 29.0226 72.8404 38.433 88.5807Z" fill="#E9E8FA"/>
<g style="mix-blend-mode:multiply">
<path d="M136.852 100.447C102.082 123.287 63.1956 114.727 38.7796 91.1432C38.5273 90.9007 38.2774 90.6558 38.0288 90.4084C37.843 90.2251 37.6584 90.0404 37.4725 89.8521C37.2288 89.6084 36.9925 89.3635 36.7525 89.1149C36.467 88.822 36.1876 88.5266 35.9082 88.2275C35.8639 88.1807 35.8196 88.1327 35.7728 88.0835C35.5304 87.8251 35.2879 87.5617 35.0504 87.2995C34.7168 86.9315 34.3821 86.5598 34.0547 86.1844C35.4651 87.0558 36.9261 87.8521 38.4338 88.5807C57.0774 97.5752 82.926 95.3955 108.939 75.8398L136.853 100.447H136.852Z" fill="#D1CDF9"/>
</g>
<path d="M136.854 100.447C119.031 94.0318 102.332 85.2515 87.1493 74.4503C86.1992 73.7759 85.2515 73.0928 84.3149 72.3974C74.6423 65.2688 65.6109 57.3082 57.3266 48.6055C56.5192 47.7636 55.7229 46.9095 54.9315 46.0491C42.3112 32.3409 31.5063 16.875 22.9082 0C44.1192 7.63199 63.7377 18.6178 81.1075 32.3729C82.0687 33.1384 83.0226 33.9052 83.969 34.6867C87.6847 37.7341 91.2896 40.9119 94.7813 44.2178C95.6724 45.0571 96.5561 45.9051 97.4336 46.7642C113.256 62.2694 126.619 80.358 136.853 100.445L136.854 100.447Z" fill="#6B669E"/>
<g style="mix-blend-mode:multiply" opacity="0.46">
<path d="M50.1421 40.6609C39.5624 28.3298 30.4006 14.7015 22.9102 0C35.1994 4.42338 46.9557 9.97168 58.0473 16.5317C53.976 24.8886 51.4049 32.9895 50.1409 40.6596L50.1421 40.6609Z" fill="#6B669E"/>
</g>
<path d="M112.68 23.9984C113.863 19.6984 111.336 15.2537 107.036 14.0709C102.736 12.8881 98.2913 15.4151 97.1085 19.7151C95.9257 24.0151 98.4527 28.4598 102.753 29.6426C107.053 30.8254 111.497 28.2984 112.68 23.9984Z" fill="#A29FBF"/>
<path d="M97.4369 46.7655L108.003 18.3262L81.1108 32.3741L54.9336 46.0504C55.7237 46.9107 56.5213 47.7649 57.3287 48.6067L83.9723 34.688L101.783 25.3822L94.7846 44.2191L84.3169 72.3975C85.2535 73.0928 86.2 73.7759 87.1514 74.4504L97.4369 46.7655Z" fill="#A29FBF"/>
</svg>
