<svg width="197" height="160" viewBox="0 0 197 160" fill="none" xmlns="http://www.w3.org/2000/svg">
<path d="M128.102 154.403H69.0312V160H128.102V154.403Z" fill="#3A1F16"/>
<path d="M80.9542 146.865H116.181C120.342 146.865 123.72 150.243 123.72 154.403H73.416C73.416 150.243 76.7939 146.865 80.9542 146.865Z" fill="#5C3D2D"/>
<path d="M101.569 97.9974V73.8823C101.569 71.896 101.103 69.9235 100.124 68.1957C99.9928 67.9657 99.881 67.7037 99.7894 67.4188C100.452 67.0092 100.893 66.2763 100.893 65.4408C100.893 64.6565 100.505 63.9639 99.9103 63.5425C99.9754 63.384 100.046 63.2356 100.124 63.0981C101.104 61.3712 101.569 59.3987 101.569 57.4124V14.603H95.565V57.4124C95.565 59.3978 96.0304 61.3693 97.0107 63.0972C97.0885 63.2347 97.16 63.384 97.225 63.5425C96.6305 63.9639 96.2429 64.6565 96.2429 65.4399C96.2429 66.2754 96.6836 67.0083 97.346 67.4178C97.2544 67.7037 97.1417 67.9648 97.0116 68.1957C96.0322 69.9235 95.5659 71.8951 95.5659 73.8813V97.9984C94.2759 98.0066 93.2324 99.0547 93.2324 100.346V139.328H103.905V100.346C103.905 99.0547 102.861 98.0066 101.571 97.9984L101.569 97.9974Z" fill="#915732"/>
<path d="M22.0977 41.6826L22.8333 44.6766L98.2452 27.724L172.921 7.77825L172.185 4.78516L96.773 21.7378L22.0977 41.6826Z" fill="#915732"/>
<path d="M104.658 24.7308C104.658 28.0949 101.931 30.8214 98.5672 30.8214C96.9932 30.8214 95.5585 30.2241 94.4775 29.2447C93.248 28.1297 92.4766 26.5209 92.4766 24.7308C92.4766 21.3666 95.2031 18.6401 98.5672 18.6401C99.8159 18.6401 100.978 19.0158 101.944 19.6607C103.579 20.7537 104.658 22.6154 104.658 24.7308Z" fill="#A96B48"/>
<path d="M47.5635 108.213L25.1433 43.0882L2.72298 108.213L1.54297 107.807L25.1433 39.2559L48.7426 107.807L47.5635 108.213Z" fill="#A3A3AF"/>
<path d="M0.000106812 108.257H50.2891V103.492H0.000106812V108.257Z" fill="#B6B6BA"/>
<path d="M40.1389 114.675H10.1493C6.60746 114.675 3.73164 111.799 3.73164 108.258H46.5566C46.5566 111.799 43.6808 114.675 40.1389 114.675Z" fill="#75738D"/>
<path d="M28.3966 43.3677C28.8213 41.5683 27.7069 39.7653 25.9074 39.3406C24.108 38.9159 22.305 40.0303 21.8803 41.8298C21.4556 43.6292 22.57 45.4322 24.3695 45.8569C26.1689 46.2816 27.9719 45.1671 28.3966 43.3677Z" fill="#A96B48"/>
<path d="M193.859 72.4434L171.439 7.31814L149.019 72.4434L147.84 72.0375L171.439 3.48584L195.039 72.0375L193.859 72.4434Z" fill="#A3A3AF"/>
<path d="M146.293 72.4868H196.582V67.7219H146.293V72.4868Z" fill="#B6B6BA"/>
<path d="M156.443 78.9045H186.433C189.977 78.9045 192.85 76.0314 192.85 72.4868H150.025C150.025 76.0314 152.898 78.9045 156.443 78.9045Z" fill="#75738D"/>
<path d="M173.805 9.19966C175.112 7.89232 175.112 5.77271 173.805 4.46537C172.497 3.15803 170.378 3.15803 169.07 4.46537C167.763 5.77271 167.763 7.89233 169.07 9.19967C170.378 10.507 172.497 10.507 173.805 9.19966Z" fill="#A96B48"/>
<path d="M104.285 15.6315H92.8477L88.2129 0H108.92L104.285 15.6315Z" fill="#915732"/>
<path d="M105.489 138.079H91.6445V147.472H105.489V138.079Z" fill="#734933"/>
<path d="M108.92 0C105.812 7.63711 100.591 12.9948 92.8477 15.6315H104.285L108.92 0Z" fill="#68402B"/>
<path d="M104.659 24.7307C104.659 28.0949 101.932 30.8214 98.5683 30.8214C96.9943 30.8214 95.5596 30.224 94.4785 29.2447C100.643 29.4783 103.415 26.5475 101.944 19.6616C103.58 20.7537 104.658 22.6162 104.658 24.7307H104.659Z" fill="#68402B"/>
</svg>
