<svg width="89" height="84" viewBox="0 0 89 84" fill="none" xmlns="http://www.w3.org/2000/svg">
<path d="M55.1495 83.9998L52.6622 49.8051C52.6622 49.8051 50.3108 40.6712 50.3004 40.6399C50.3004 40.6085 50.2899 40.5772 50.2795 40.5458C50.2795 40.5458 41.5218 40.0755 41.5113 40.0755L35.9516 39.7725L26.9326 83.9998H55.1495Z" fill="#EEF2FF"/>
<path d="M38.0997 56.7456C33.7583 54.8549 32.0917 48.177 35.4512 41.1835C35.6074 40.8584 36.0489 40.8161 36.2909 41.0835C40.927 46.205 47.9056 44.9818 51.8642 41.8577C52.0985 41.6727 52.4449 41.7148 52.5972 41.9715C55.5869 47.0105 52.8481 54.899 47.4636 56.7987C47.1405 56.9127 46.8242 56.6438 46.84 56.3016C47.0914 50.8577 44.806 47.6321 42.4617 47.0379C42.3539 47.0105 42.24 47.0259 42.1432 47.0806C39.412 48.6216 38.7586 53.866 38.7654 56.2636C38.7664 56.6176 38.4243 56.887 38.0997 56.7456Z" fill="#8EA9FF"/>
<path d="M50.373 33.3662L50.9373 42.8032C50.9373 42.8032 47.3841 45.7189 43.4337 45.9175C38.1039 46.1892 36.0869 42.1344 36.0869 42.1344L36.1287 32.5093L50.373 33.3767V33.3662Z" fill="#FDD3AA"/>
<path d="M31.0908 17.8889C31.0908 17.8889 27.3703 7.08289 30.5787 2.32783C33.4526 -1.91515 47.5506 0.331747 52.567 3.59236C57.5833 6.84252 57.7505 11.1169 57.7505 11.1169C57.7505 11.1169 60.2064 11.7648 60.7812 13.8758C61.356 15.9869 59.5271 19.467 59.5271 19.467C59.5271 19.467 57.0398 16.3108 53.4762 18.3174C49.9125 20.3344 31.0908 17.8784 31.0908 17.8784V17.8889Z" fill="black"/>
<path d="M50.0382 34.7353C50.0382 34.7353 48.3975 41.2042 42.2838 40.4936C37.3511 39.9292 35.7939 33.3662 35.7939 33.3662L50.0487 34.7248L50.0382 34.7353Z" fill="black"/>
<path d="M32.6276 11.8588C32.6276 11.8588 30.2867 26.6779 35.303 33.5649C40.3298 40.4519 46.4748 38.1736 49.1919 35.9372C52.8601 32.9169 53.4872 28.8829 53.4872 28.8829C53.4872 28.8829 58.6916 29.7399 60.2697 25.4656C61.9313 20.9718 58.5871 17.5126 55.9953 17.3872C53.4036 17.2618 53.1214 17.7425 53.1214 17.7425L53.7171 12.9875C53.7171 12.9875 37.414 -3.95311 32.6172 11.8692L32.6276 11.8588Z" fill="#FDD3AA"/>
<path d="M35.3555 18.6725C35.3555 18.6725 27.4025 15.5896 27.0054 21.6823C26.5351 28.7366 34.9374 28.5171 34.9374 28.5171L35.3555 18.6725Z" fill="#FDD3AA"/>
<path d="M54.4076 18.1609C54.4076 18.1609 51.7113 19.394 45.8066 15.3705C39.8916 11.347 41.4069 6.30979 41.4069 6.30979C41.4069 6.30979 33.6839 11.5142 32.1267 17.7428C30.5696 23.9819 29.096 3.31044 38.0627 3.41495C47.0294 3.51945 60.6257 8.90156 54.418 18.1609H54.4076Z" fill="black"/>
<path d="M54.2287 25.309C54.1032 25.309 53.9883 25.2672 53.8942 25.1836C53.6748 24.9954 53.6434 24.661 53.8315 24.452L57.2175 20.4808C57.4057 20.2613 57.7401 20.2404 57.9595 20.418C58.179 20.6062 58.2104 20.9406 58.0223 21.16L54.6362 25.1209C54.5317 25.2463 54.3854 25.309 54.2391 25.309H54.2287Z" fill="black"/>
<path d="M57.9602 24.1066C57.9602 24.1066 57.9288 24.1066 57.9079 24.1066L55.4207 23.8558C55.128 23.8244 54.919 23.5736 54.9504 23.281C54.9817 22.9884 55.2534 22.7794 55.5252 22.8107L58.0124 23.0615C58.305 23.0929 58.5141 23.3437 58.4827 23.6363C58.4514 23.9081 58.2319 24.1066 57.9602 24.1066Z" fill="black"/>
<path d="M46.256 20.4491C45.9739 20.4491 45.7335 20.2192 45.7335 19.937L45.7021 17.4602C45.7021 17.1676 45.9321 16.9377 46.2142 16.9272C46.5068 16.9272 46.7368 17.1572 46.7472 17.4393L46.7786 19.9161C46.7786 20.2088 46.5487 20.4387 46.2665 20.4491H46.256Z" fill="black"/>
<path d="M37.0489 20.9198C36.7563 20.9198 36.5264 20.6795 36.5264 20.3868L36.5577 17.91C36.5577 17.6279 36.7981 17.3979 37.0803 17.3979C37.3729 17.3979 37.6028 17.6383 37.6028 17.9309L37.5714 20.4077C37.5714 20.6899 37.3311 20.9198 37.0489 20.9198Z" fill="black"/>
<path d="M31.7077 25.058C31.5405 25.058 31.3838 24.9848 31.2793 24.8385L28.3949 20.8359C28.2277 20.606 28.2799 20.2716 28.5098 20.1043C28.7397 19.9371 29.0742 19.9894 29.2414 20.2193L32.1258 24.2219C32.293 24.4518 32.2407 24.7863 32.0108 24.9535C31.9168 25.0162 31.8122 25.0475 31.7077 25.0475V25.058Z" fill="black"/>
<path d="M28.3956 23.9607C28.1343 23.9607 27.9148 23.7725 27.8835 23.5113C27.8417 23.2291 28.0402 22.9574 28.3329 22.926L30.6216 22.6125C30.9037 22.5603 31.1754 22.7693 31.2068 23.0619C31.2486 23.3441 31.05 23.6158 30.7574 23.6471L28.4687 23.9607C28.4687 23.9607 28.4269 23.9607 28.3956 23.9607Z" fill="black"/>
<path d="M41.7515 27.9842C41.5843 27.9842 41.4276 27.911 41.3231 27.7647C39.2329 24.8176 40.8737 20.9822 40.9468 20.815C41.0618 20.5537 41.3649 20.4283 41.6366 20.5433C41.8979 20.6582 42.0233 20.9718 41.9083 21.233C41.8979 21.2644 40.4348 24.6922 42.18 27.1586C42.3472 27.3885 42.295 27.7229 42.0546 27.8901C41.9606 27.9528 41.8561 27.9842 41.7515 27.9842Z" fill="black"/>
<path d="M45.2316 31.0147C44.406 31.0147 43.6431 30.5654 43.5282 30.5026C43.3818 30.4086 43.2878 30.2518 43.2773 30.0846C43.2773 29.907 43.3505 29.7502 43.4864 29.6457L46.3498 27.5138C46.5066 27.3988 46.7156 27.3779 46.8828 27.4615C47.0605 27.5451 47.1754 27.7123 47.1859 27.9109C47.2591 29.374 46.9246 30.3459 46.1826 30.7848C45.8796 30.9625 45.5556 31.0356 45.2316 31.0356V31.0147ZM44.8554 29.9174C45.1376 29.9801 45.4302 30.001 45.6496 29.8652C45.8691 29.7293 46.0259 29.4262 46.099 28.9873L44.8554 29.9174Z" fill="black"/>
<path d="M35.5856 16.0182C35.3974 16.0182 35.2198 15.9242 35.1257 15.7465C34.9899 15.4957 35.0839 15.1717 35.3347 15.0358L37.4458 13.8967C37.6966 13.7609 38.0101 13.8549 38.1564 14.1057C38.2923 14.3565 38.1982 14.6805 37.9474 14.8164L35.8364 15.9555C35.7528 15.9973 35.6692 16.0182 35.5856 16.0182Z" fill="black"/>
<path d="M47.071 15.7985C47.0083 15.7985 46.9456 15.788 46.8829 15.7671L43.7268 14.5339C43.455 14.4294 43.3296 14.1264 43.4341 13.8546C43.5386 13.5829 43.8417 13.4471 44.1134 13.562L47.2695 14.7952C47.5413 14.8997 47.6667 15.2028 47.5622 15.4745C47.4786 15.6835 47.28 15.8089 47.071 15.8089V15.7985Z" fill="black"/>
<path d="M35.9406 39.7934C24.9255 41.2669 5.29395 56 0 83.9998H31.2169C33.84 70.9573 35.951 39.7725 35.951 39.7725L35.9406 39.7934Z" fill="#2D58D2"/>
<path d="M53.4043 83.9997H88.5878C88.5878 40.274 50.708 38.9468 50.708 38.9468C50.7603 39.2498 51.0947 45.4471 51.5127 47.9971C52.1293 51.6966 52.7668 80.112 53.3938 83.9997H53.4043Z" fill="#2D58D2"/>
</svg>
