<svg width="120" height="160" viewBox="0 0 120 160" fill="none" xmlns="http://www.w3.org/2000/svg">
<path d="M104.631 15.6313C89.0932 15.6313 74.816 10.261 63.5409 1.27762C61.402 -0.425872 58.3999 -0.425872 56.261 1.27762C44.9858 10.261 30.7086 15.6313 15.171 15.6313C12.2453 15.6313 9.37302 15.4326 6.55424 15.0583C3.08615 14.6 0 17.2889 0 20.7952V107.719C0 117.115 4.43824 125.961 11.9626 131.591L42.0754 154.08C52.6477 161.971 67.1541 161.971 77.7265 154.08L107.839 131.591C115.371 125.968 119.802 117.123 119.802 107.719V20.7952C119.802 17.2966 116.723 14.6 113.248 15.0583C110.429 15.4326 107.549 15.6313 104.631 15.6313Z" fill="#DCCBBD"/>
<path d="M59.9049 0.00195312C58.6216 0.00195312 57.3306 0.429675 56.2688 1.2776C44.9937 10.261 30.7165 15.6312 15.1788 15.6312C12.2531 15.6312 9.38081 15.4326 6.56203 15.0583C3.09394 14.6 0.0078125 17.2889 0.0078125 20.7952V107.719C0.0078125 117.115 4.44605 125.961 11.9704 131.591L42.0832 154.08C47.3694 158.029 53.641 160 59.9049 160V0.00959955V0.00195312Z" fill="#C8AC94"/>
<path d="M59.9051 6.19727C47.0563 16.3724 31.5951 21.7425 15.179 21.7425C12.1692 21.7425 9.12125 21.5516 6.11914 21.1696V107.727C6.11914 115.159 9.67124 122.248 15.6296 126.694L45.7424 149.183C54.0842 155.417 65.7336 155.417 74.0753 149.183L104.188 126.694C110.147 122.248 113.699 115.152 113.699 107.727V21.1696C110.697 21.5516 107.649 21.7425 104.639 21.7425C88.2227 21.7425 72.7615 16.3647 59.9127 6.19727H59.9051Z" fill="#D5772D"/>
<path d="M59.9051 6.19727C47.0563 16.3724 31.5951 21.7425 15.179 21.7425C12.1692 21.7425 9.12125 21.5516 6.11914 21.1696V107.727C6.11914 115.159 9.67124 122.248 15.6296 126.694L45.7424 149.183C49.9133 152.3 54.9092 153.858 59.9127 153.858V6.20491L59.9051 6.19727Z" fill="#B55000"/>
<path d="M81.8463 63.5796H38.3263C30.638 63.5796 24.3477 69.8699 24.3477 77.5583V87.6698C24.3477 107.7 40.2724 124.19 60.0863 125.11C79.9002 124.191 95.8249 107.701 95.8249 87.6698V77.5583C95.8249 69.8699 89.5346 63.5796 81.8463 63.5796Z" fill="#FF892B"/>
<path d="M45.9082 63.7075V57.0158C45.9082 49.2978 52.2231 42.9829 59.941 42.9829H60.2322C67.9502 42.9829 74.265 49.2978 74.265 57.0158V63.7075H81.558V56.5305C81.558 44.8427 71.9951 35.2798 60.3073 35.2798H59.866C48.1782 35.2798 38.6152 44.8427 38.6152 56.5305V63.7075H45.9082Z" fill="#FFB478"/>
<path d="M59.9463 42.9834H59.9414C52.2235 42.9834 45.9083 49.2977 45.9082 57.0156V63.5801H59.9463V125.101C40.1976 124.11 24.3477 107.653 24.3477 87.6699V77.5586C24.3477 69.8703 30.6379 63.5802 38.3262 63.5801H38.6152V56.5303C38.6154 44.8426 48.1785 35.2803 59.8662 35.2803H59.9463V42.9834Z" fill="#EB6800"/>
<path d="M66.8668 101.422L64.3563 90.406C65.4576 89.3098 66.1395 87.7923 66.1395 86.1159C66.1395 82.7723 63.4287 80.0615 60.0851 80.0615C56.7415 80.0615 54.0308 82.7723 54.0308 86.1159C54.0308 87.7928 54.7127 89.3098 55.8139 90.406L53.3034 101.422C52.9489 102.976 54.1309 104.457 55.725 104.457H64.4442C66.0388 104.457 67.2203 102.976 66.8658 101.422H66.8668Z" fill="#B55000"/>
<path d="M62.5931 88.3077C63.9777 86.9232 63.9777 84.6784 62.5931 83.2938C61.2086 81.9093 58.9638 81.9093 57.5792 83.2938C56.1947 84.6784 56.1947 86.9232 57.5792 88.3077C58.9638 89.6923 61.2086 89.6923 62.5931 88.3077Z" fill="#FFA65F"/>
</svg>
