<svg width="85" height="84" viewBox="0 0 85 84" fill="none" xmlns="http://www.w3.org/2000/svg">
<path d="M20.2635 83.9998C19.6377 83.7301 26.7375 49.7417 31.744 47.2384C40.0739 43.0735 48.3714 47.7779 48.3714 47.7779L58.6758 83.9998H20.2527H20.2635Z" fill="#F1E4C2"/>
<path d="M47.0117 38.3047L46.5693 49.5263C46.5693 49.5263 44.4221 52.6769 37.8402 52.9467C32.9416 53.1517 31.485 50.5837 31.485 50.5837L33.0495 40.8188L45.0048 38.6715L47.0117 38.3047Z" fill="#FBC7C7"/>
<path d="M37.1058 53.4859C42.5871 53.4859 46.957 50.3137 47.1512 50.1734C47.3886 50.0008 47.4426 49.6555 47.2699 49.4181C47.0865 49.1807 46.752 49.1268 46.5146 49.2994C46.4715 49.3318 42.231 52.3961 37.1058 52.3961C37.0626 52.3961 37.0195 52.3961 36.9763 52.3961C32.2395 52.353 31.4842 49.7094 31.4626 49.6015C31.3871 49.321 31.0958 49.1484 30.8044 49.2131C30.5131 49.2886 30.3405 49.58 30.416 49.8605C30.4484 50.0008 31.3547 53.4212 36.9655 53.4751C37.0087 53.4751 37.0626 53.4751 37.1058 53.4751V53.4859Z" fill="white"/>
<path d="M26.9326 30.4492L49.7858 28.1402L50.8648 28.0323L53.7673 27.7409C53.7673 27.7409 55.7526 20.544 53.9399 15.613C52.1272 10.6928 47.8867 12.6997 47.8867 12.6997C47.8867 12.6997 45.9985 11.0812 42.5565 9.65697C41.402 9.18221 40.0964 8.73982 38.629 8.38375C37.0536 7.99531 35.2949 7.71477 33.3635 7.60687C24.1704 7.09974 27.17 13.3579 27.17 13.3579C27.17 13.3579 25.1307 14.8038 24.2999 19.3464C23.0698 26.0577 26.9326 30.4492 26.9326 30.4492Z" fill="#E56445"/>
<path d="M12.8509 56.8306C16.6813 53.4857 26.5002 49.0402 31.7441 47.2383C31.7441 47.2383 23.1769 82.2301 23.2524 83.9997H6.7927e-05C2.23359 67.8363 9.02048 60.1647 12.8617 56.8306H12.8509Z" fill="#E6A600"/>
<path d="M41.2507 13.3365C41.2507 13.3365 50.638 -7.63921 61.3632 3.02128C70.3297 11.9338 56.4214 25.6694 48.3721 21.7527C40.3336 17.8359 41.2399 13.3365 41.2399 13.3365H41.2507Z" fill="#E56445"/>
<path d="M47.0234 37.6138C46.9803 37.9159 46.8508 38.272 46.6566 38.682C43.9267 44.1849 35.0034 46.1702 32.1657 46.3213L33.0504 40.8076L47.0126 37.6138H47.0234Z" fill="black"/>
<path d="M31.5491 15.138C31.5491 15.138 25.1075 28.9707 27.1253 36.8798C29.143 44.7888 36.3291 43.7206 40.6451 42.2963C44.9611 40.8829 47.0112 38.3041 47.0112 38.3041C47.0112 38.3041 50.9819 39.7499 53.7441 36.1029C56.5063 32.4451 54.9634 28.1399 52.6975 27.1041C50.4424 26.0682 47.6801 27.6544 47.6801 27.6544L49.9029 23.6405C49.9029 23.6405 41.4327 2.7835 31.5491 15.138Z" fill="#FBC7C7"/>
<path d="M47.6806 27.6545C47.6806 27.6545 41.649 28.7875 37.5704 22.033C33.4918 15.2892 33.9126 12.5378 33.9126 12.5378L29.6505 19.3894C29.6505 19.3894 28.7873 14.5879 30.7403 11.5667C32.6933 8.5455 34.6787 9.20369 34.6787 9.20369L47.8856 12.6996L51.2305 23.3709L47.6806 27.6545Z" fill="#E56445"/>
<path d="M31.7876 33.0064C31.7876 33.0064 31.8847 33.0064 31.9386 32.9848C32.23 32.8985 32.3918 32.6072 32.3055 32.3159C31.561 29.7694 33.514 27.0612 33.5355 27.0396C33.7082 26.8022 33.6542 26.4569 33.4169 26.2843C33.1795 26.1116 32.8342 26.1656 32.6616 26.403C32.5644 26.5325 30.3849 29.5752 31.2697 32.618C31.3344 32.8554 31.5502 33.0064 31.7876 33.0064Z" fill="black"/>
<path d="M48.177 34.3121C48.3173 34.3121 48.4576 34.2582 48.5655 34.1503L52.4283 30.1904C52.6333 29.9746 52.6333 29.6401 52.4283 29.4243C52.2125 29.2193 51.878 29.2193 51.6622 29.4243L47.7994 33.3842C47.5944 33.6 47.5944 33.9345 47.7994 34.1503C47.9073 34.2474 48.0368 34.3013 48.177 34.3013V34.3121Z" fill="black"/>
<path d="M52.2127 33.2979C52.4716 33.2979 52.6982 33.1145 52.7414 32.8447C52.7953 32.5534 52.5903 32.2728 52.299 32.2189L49.677 31.7765C49.3857 31.7333 49.1051 31.9276 49.0512 32.2189C48.9972 32.5102 49.2023 32.7908 49.4936 32.8447L52.1155 33.2871C52.1155 33.2871 52.1803 33.2871 52.2019 33.2871L52.2127 33.2979Z" fill="black"/>
<path d="M29.2514 21.5259C29.2514 21.5259 29.3054 21.5259 29.3377 21.5259L31.8302 21.1267C32.1216 21.0835 32.3266 20.803 32.2726 20.5117C32.2295 20.2203 31.9489 20.0153 31.6576 20.0585L29.1651 20.4577C28.8738 20.5009 28.6688 20.7814 28.7119 21.0727C28.7551 21.3425 28.9817 21.5259 29.2406 21.5259H29.2514Z" fill="#913620"/>
<path d="M39.5552 23.2956C39.7494 23.2956 39.9328 23.1877 40.0299 23.0042C40.1702 22.7453 40.0623 22.4108 39.8033 22.2813L35.7571 20.1665C35.4982 20.0262 35.1637 20.1233 35.0234 20.3931C34.8831 20.652 34.991 20.9865 35.25 21.116L39.2962 23.2308C39.3717 23.274 39.4581 23.2956 39.5444 23.2956H39.5552Z" fill="#913620"/>
<path d="M29.1765 27.2663C29.4031 27.2663 29.6189 27.1261 29.6944 26.8887L30.5037 24.3746C30.5576 24.202 30.5252 24.0185 30.4173 23.8783L29.6513 22.918C29.4678 22.6806 29.1226 22.6482 28.896 22.8316C28.6586 23.0151 28.6262 23.3604 28.8096 23.5869L29.3923 24.3207L28.6694 26.5542C28.5831 26.8347 28.7341 27.1368 29.0147 27.234C29.0686 27.2555 29.1226 27.2555 29.1765 27.2555V27.2663Z" fill="black"/>
<path d="M37.2042 28.043C37.4308 28.043 37.6466 27.9027 37.7221 27.6653L38.5314 25.1513C38.5853 24.9786 38.5529 24.7844 38.4342 24.6441L37.3768 23.3817C37.1826 23.1551 36.8481 23.1228 36.6215 23.317C36.3949 23.5112 36.3626 23.8457 36.5568 24.0723L37.42 25.1081L36.6971 27.3416C36.6107 27.6222 36.7618 27.9243 37.0423 28.0214C37.0963 28.043 37.1502 28.043 37.2042 28.043Z" fill="black"/>
<path d="M33.7629 36.7182C35.5432 36.7182 37.4854 34.8407 37.7444 34.5817C37.9602 34.3767 37.9602 34.0315 37.7444 33.8157C37.5286 33.5999 37.1941 33.5999 36.9783 33.8157C36.3417 34.4415 34.3024 36.1031 33.2342 35.5097C32.9752 35.3586 32.6515 35.4557 32.5005 35.7147C32.3494 35.9736 32.4465 36.3081 32.7055 36.4484C33.04 36.6426 33.396 36.7182 33.7629 36.7182Z" fill="black"/>
<path d="M46.6877 46.7202C51.2627 47.4539 62.4842 49.6227 70.0804 54.0142C70.0804 54.0142 70.1667 54.0574 70.3285 54.1653C71.6557 54.953 72.875 55.8054 73.9216 56.7333C76.1551 58.4273 82.8557 68.9152 84.1289 83.924C84.1289 83.924 50.2592 83.8485 49.4176 83.9995C48.4789 63.0346 46.882 48.5221 46.882 48.5221L46.623 48.5006L46.6877 46.7202Z" fill="#E6A600"/>
</svg>
