<svg width="162" height="103" viewBox="0 0 162 103" fill="none" xmlns="http://www.w3.org/2000/svg">
<path d="M10.0668 87.7359C11.0733 84.2716 13.371 81.4133 16.5321 79.6744L99.1666 35.7375C101.632 34.4204 103.206 31.8882 103.264 29.0793C103.318 26.5553 103.484 24.8548 103.804 23.7591C105.781 16.9777 110.515 11.2422 116.814 8.00917C123.195 4.75079 130.452 4.27347 137.223 6.69196C138.06 6.99022 138.683 7.70153 138.873 8.57144C139.078 9.4534 138.808 10.4997 138.127 11.1329L126.071 22.3024C127.001 27.0383 130.212 30.8804 134.633 32.6522L148.104 20.1808C148.722 19.599 149.586 19.3674 150.406 19.5401C151.227 19.7267 151.915 20.287 152.235 21.068C154.49 26.4481 154.901 32.1789 153.439 37.6247C151.774 43.7665 147.539 48.9932 141.428 52.3569C133.598 56.6659 124.914 56.7974 116.313 52.7373C114.003 51.6446 111.329 51.7389 109.151 52.9742L27.3935 99.3793C24.2444 101.102 20.504 101.513 17.0854 100.528C11.6225 98.9412 8.48144 93.2127 10.0547 87.7517L10.0668 87.7359Z" fill="#757E9A"/>
<path d="M10.046 85.8051C11.0525 82.3409 13.3502 79.4826 16.5113 77.7436L99.1458 33.8067C101.611 32.4897 103.185 29.9575 103.243 27.1486C103.297 24.6246 103.464 22.9241 103.783 21.8284C105.76 15.047 110.495 9.31145 116.794 6.07845C123.174 2.82008 130.432 2.34275 137.202 4.76124C138.039 5.05951 138.662 5.77082 138.852 6.64072C139.057 7.52268 138.788 8.56895 138.106 9.20214L126.05 20.3717C126.98 25.1076 130.191 28.9497 134.612 30.7215L148.084 18.25C148.701 17.6682 149.565 17.4367 150.385 17.6093C151.207 17.7959 151.894 18.3562 152.214 19.1373C154.469 24.5174 154.88 30.2482 153.419 35.6939C151.753 41.8358 147.518 47.0625 141.407 50.4262C133.577 54.7352 124.894 54.8667 116.293 50.8066C113.983 49.7139 111.308 49.8082 109.13 51.0435L27.3867 97.4467C24.2375 99.1698 20.4972 99.5801 17.0786 98.5958C11.6156 97.0085 8.47461 91.2801 10.0479 85.8191L10.046 85.8051Z" fill="#B0BDE2"/>
<path d="M101.504 47.8743L40.7481 83.1276L36.337 74.7571L97.7437 40.8369L101.504 47.8743Z" fill="#EEF2FF"/>
</svg>
