<svg width="126" height="120" viewBox="0 0 126 120" fill="none" xmlns="http://www.w3.org/2000/svg">
<g clip-path="url(#clip0_2143_14404)">
<path d="M56.6229 0V95.6075L126 84.2523V87.1963L114.647 92.0327C110.272 100.909 96.5365 116.61 88.2196 119.992L11.5628 120.003L11.2853 119.86L0 104.582L52.4182 96.3084L52.4014 18.314C49.1582 16.5757 45.0601 17.515 41.8141 18.9C39.025 20.0916 36.7236 22.0738 33.8532 23.1336C27.5911 25.4411 21.8811 23.4533 18.3632 17.8766C19.2602 18.2103 20.0843 18.8523 20.9897 19.1748C28.5946 21.886 33.8448 13.214 38.1224 8.61869C41.7103 4.76636 47.154 2.73084 52.421 3.50467V0H56.6257H56.6229Z" fill="#EDDDFF"/>
<path d="M111.562 81.4481C111.208 81.521 111.217 81.1285 110.939 80.8818C99.4661 70.5949 76.147 81.4005 64.7972 87.7341C64.2926 88.0145 60.884 90.1509 60.6878 89.9995C62.7313 84.1453 64.1861 77.9631 65.1504 71.8229C67.4265 57.3164 67.9423 37.4799 61.1868 24.1061C60.6121 22.9678 59.8385 21.9023 59.2891 20.75C65.9941 21.0836 72.5758 22.8668 78.8043 25.2696C93.8683 31.0846 110.011 42.2379 113.602 59.0154C115.222 66.5799 114.112 74.2397 111.564 81.4509L111.562 81.4481Z" fill="#DDC1FF"/>
<path d="M15.2773 97.5666C27.1457 76.3732 38.0414 54.5349 46.2546 31.6115L49.0549 23.2676C47.9112 29.8255 46.9694 36.448 46.5349 43.104C45.6603 56.4863 46.0191 70.5134 47.0955 83.8956C47.3029 86.4947 47.6589 89.0882 47.8748 91.6844L15.2773 97.5639V97.5666Z" fill="#EDDDFF"/>
</g>
<defs>
<clipPath id="clip0_2143_14404">
<rect width="126" height="120" fill="white"/>
</clipPath>
</defs>
</svg>
