<svg width="98" height="120" viewBox="0 0 98 120" fill="none" xmlns="http://www.w3.org/2000/svg">
<path d="M6.88902 116.681C5.5486 117.779 4.12333 118.885 2.60916 120L0 116.458C1.45727 115.384 2.82259 114.324 4.1011 113.277L6.88902 116.681ZM21.3735 100.289C19.7474 103.234 17.5945 106.21 14.8351 109.233L11.5848 106.267C14.1433 103.464 16.0832 100.766 17.5208 98.1616L21.3735 100.289ZM24.8807 78.3917C25.5549 82.0358 25.7279 85.7895 25.1093 89.6629L20.7642 88.9693C21.2906 85.6724 21.1528 82.4304 20.5536 79.1918L24.8807 78.3917ZM17.2965 58.1002C18.8102 61.3003 20.3571 64.5672 21.6837 67.8691L17.6007 69.5097C16.3316 66.351 14.8426 63.204 13.3183 59.9815L17.2965 58.1002ZM10.0465 38.883C10.6584 42.115 11.713 45.3276 13.0157 48.5711L8.93269 50.2109C7.56631 46.8089 6.40575 43.3084 5.7228 39.7012L10.0465 38.883ZM12.733 19.8737C12.0275 21.2478 11.4032 22.7287 10.8724 24.3212C10.3343 25.9356 9.96476 27.523 9.74054 29.0883L5.38505 28.4644C5.64645 26.6396 6.07546 24.7947 6.69737 22.9289C7.297 21.1301 8.00789 19.4422 8.81839 17.8636L12.733 19.8737ZM72.5289 17.8155C73.2458 19.584 73.7161 21.4585 73.898 23.4222L69.5167 23.8279C69.3758 22.306 69.0115 20.8508 68.451 19.4681L72.5289 17.8155ZM26.3856 7.13043C23.482 8.38897 20.7857 10.0991 18.424 12.2998L15.4247 9.08043C18.1804 6.51268 21.3072 4.53566 24.6358 3.09293L26.3856 7.13043ZM56.4485 3.15825C59.939 4.58635 63.1452 6.47907 65.8384 8.78909L62.9732 12.1296C60.6823 10.1647 57.8945 8.50436 54.7821 7.23099L56.4485 3.15825ZM35.1627 0.294699C38.7714 -0.136329 42.4307 -0.0861012 45.9818 0.390093L45.3974 4.75159C42.1963 4.32231 38.9095 4.27884 35.6852 4.66393L35.1627 0.294699Z" fill="#EDDDFF"/>
<path d="M54.9756 26.5712L68.5403 32.3865L59.8831 42.5918L68.6674 49.5692L75.3353 37.0124L83.5767 46.7546L91.2778 36.7817L79.2893 30.7857L88.0237 23.3969L78.3868 15.4116L72.4426 26.7799L61.3847 17.115L54.9756 26.5712Z" fill="#DDC1FF"/>
</svg>
