<svg width="333" height="40" viewBox="0 0 333 40" fill="none" xmlns="http://www.w3.org/2000/svg">
<path d="M33.9054 22.9201C33.6735 24.4768 33.2319 26.0004 32.5364 27.5019C31.5206 29.7983 30.1074 32.0064 28.2085 33.8612C24.6314 37.4825 19.2878 39.7789 13.8227 39.7789H0V31.8298H13.8117C17.0797 31.8298 20.2152 30.5932 22.3349 28.3851C23.8696 26.8284 24.9405 24.9294 25.4925 22.9201H33.9054ZM33.9054 16.8588C33.6735 15.3021 33.2319 13.7785 32.5364 12.277C31.5206 9.98061 30.1074 7.77251 28.2085 5.91771C24.6314 2.29642 19.2878 0 13.8117 0H0V7.94916H13.8117C17.0797 7.94916 20.2152 9.1857 22.3349 11.3938C23.8696 12.9505 24.9405 14.8495 25.4925 16.8588H33.9054ZM51.25 26.4972L40.6953 39.7789H30.2289L46.0278 19.895L30.2399 0H40.7063L51.261 13.2707L61.8047 0H72.2711L56.4611 19.895L72.2601 39.7789H61.7937L51.25 26.4972ZM77.0075 22.9201C77.5595 24.9294 78.6304 26.8284 80.1651 28.3851C82.2848 30.5932 85.4203 31.8298 88.6883 31.8298H102.5V39.7789H88.6883C83.2122 39.7789 77.8686 37.4825 74.3026 33.8612C72.4036 32.0064 70.9904 29.7983 69.9747 27.5019C69.2791 26.0004 68.8375 24.4768 68.6057 22.9201H77.0075ZM77.0075 16.8588C77.5595 14.8495 78.6304 12.9505 80.1651 11.3938C82.2848 9.1857 85.4203 7.94916 88.6883 7.94916H102.5V0H88.6883C83.2122 0 77.8686 2.29642 74.3026 5.91771C72.4036 7.77251 70.9904 9.98061 69.9747 12.277C69.2791 13.7785 68.8375 15.3021 68.6057 16.8588H77.0075Z" fill="#5F249F"/>
<path d="M320.237 37.3894C317.904 37.3894 315.83 37.0653 314.015 36.4172C312.2 35.769 310.466 34.6996 308.814 33.2088C308.457 32.9496 308.182 32.6417 307.987 32.2852C307.825 31.8963 307.744 31.5075 307.744 31.1186C307.744 30.5028 307.971 29.9519 308.425 29.4658C308.878 28.9797 309.446 28.7366 310.126 28.7366C310.645 28.7366 311.131 28.9149 311.584 29.2713C312.816 30.4056 314.096 31.2644 315.425 31.8477C316.786 32.4311 318.374 32.7227 320.189 32.7227C321.485 32.7227 322.668 32.5121 323.737 32.0908C324.839 31.6695 325.714 31.1024 326.362 30.3894C327.01 29.6764 327.334 28.8501 327.334 27.9102C327.334 26.7436 326.994 25.7876 326.314 25.0422C325.665 24.2644 324.709 23.6325 323.446 23.1463C322.214 22.6278 320.723 22.1903 318.973 21.8338C317.353 21.5422 315.895 21.1371 314.598 20.6186C313.334 20.1001 312.249 19.4519 311.341 18.6741C310.434 17.8639 309.737 16.9079 309.251 15.8061C308.765 14.7042 308.522 13.4241 308.522 11.9658C308.522 9.98894 309.04 8.28755 310.077 6.86163C311.115 5.4357 312.524 4.33385 314.307 3.55607C316.089 2.77829 318.098 2.3894 320.334 2.3894C322.376 2.3894 324.288 2.71348 326.071 3.36163C327.853 3.97737 329.295 4.81996 330.397 5.88941C331.175 6.56996 331.564 7.29913 331.564 8.0769C331.564 8.66024 331.321 9.21116 330.834 9.72968C330.381 10.2158 329.846 10.4588 329.23 10.4588C328.777 10.4588 328.388 10.3292 328.064 10.07C327.545 9.51903 326.848 9.03292 325.973 8.61163C325.098 8.15792 324.159 7.78524 323.154 7.49357C322.182 7.2019 321.242 7.05607 320.334 7.05607C318.876 7.05607 317.628 7.26672 316.591 7.68802C315.554 8.0769 314.76 8.62783 314.209 9.34079C313.659 10.0213 313.383 10.8315 313.383 11.7713C313.383 12.8732 313.691 13.7806 314.307 14.4936C314.955 15.2065 315.846 15.7899 316.98 16.2436C318.115 16.6649 319.411 17.0538 320.869 17.4102C322.652 17.7991 324.24 18.2366 325.633 18.7227C327.059 19.2088 328.258 19.8408 329.23 20.6186C330.202 21.3639 330.948 22.3038 331.466 23.438C331.985 24.5723 332.244 25.982 332.244 27.6672C332.244 29.6116 331.693 31.313 330.591 32.7713C329.49 34.2297 328.031 35.3639 326.216 36.1741C324.434 36.9843 322.441 37.3894 320.237 37.3894Z" fill="#0F0F0F"/>
<path d="M285.403 34.4239C285.371 35.1368 285.095 35.7364 284.577 36.2225C284.09 36.6762 283.507 36.903 282.827 36.903C282.081 36.903 281.466 36.6762 280.979 36.2225C280.526 35.7364 280.299 35.1368 280.299 34.4239V5.35441C280.299 4.64145 280.542 4.05812 281.028 3.60441C281.514 3.1183 282.146 2.87524 282.924 2.87524C283.572 2.87524 284.139 3.1183 284.625 3.60441C285.144 4.05812 285.403 4.64145 285.403 5.35441V34.4239Z" fill="#0F0F0F"/>
<path d="M245.784 37.3894C243.451 37.3894 241.377 37.0653 239.562 36.4172C237.747 35.769 236.013 34.6996 234.36 33.2088C234.004 32.9496 233.729 32.6417 233.534 32.2852C233.372 31.8963 233.291 31.5075 233.291 31.1186C233.291 30.5028 233.518 29.9519 233.972 29.4658C234.425 28.9797 234.992 28.7366 235.673 28.7366C236.191 28.7366 236.678 28.9149 237.131 29.2713C238.363 30.4056 239.643 31.2644 240.972 31.8477C242.333 32.4311 243.921 32.7227 245.735 32.7227C247.032 32.7227 248.215 32.5121 249.284 32.0908C250.386 31.6695 251.261 31.1024 251.909 30.3894C252.557 29.6764 252.881 28.8501 252.881 27.9102C252.881 26.7436 252.541 25.7876 251.86 25.0422C251.212 24.2644 250.256 23.6325 248.992 23.1463C247.761 22.6278 246.27 22.1903 244.52 21.8338C242.9 21.5422 241.441 21.1371 240.145 20.6186C238.881 20.1001 237.796 19.4519 236.888 18.6741C235.981 17.8639 235.284 16.9079 234.798 15.8061C234.312 14.7042 234.069 13.4241 234.069 11.9658C234.069 9.98894 234.587 8.28755 235.624 6.86163C236.661 5.4357 238.071 4.33385 239.854 3.55607C241.636 2.77829 243.645 2.3894 245.881 2.3894C247.923 2.3894 249.835 2.71348 251.617 3.36163C253.4 3.97737 254.842 4.81996 255.944 5.88941C256.722 6.56996 257.11 7.29913 257.11 8.0769C257.11 8.66024 256.867 9.21116 256.381 9.72968C255.928 10.2158 255.393 10.4588 254.777 10.4588C254.323 10.4588 253.935 10.3292 253.61 10.07C253.092 9.51903 252.395 9.03292 251.52 8.61163C250.645 8.15792 249.705 7.78524 248.701 7.49357C247.729 7.2019 246.789 7.05607 245.881 7.05607C244.423 7.05607 243.175 7.26672 242.138 7.68802C241.101 8.0769 240.307 8.62783 239.756 9.34079C239.205 10.0213 238.93 10.8315 238.93 11.7713C238.93 12.8732 239.238 13.7806 239.854 14.4936C240.502 15.2065 241.393 15.7899 242.527 16.2436C243.661 16.6649 244.958 17.0538 246.416 17.4102C248.198 17.7991 249.786 18.2366 251.18 18.7227C252.606 19.2088 253.805 19.8408 254.777 20.6186C255.749 21.3639 256.495 22.3038 257.013 23.438C257.532 24.5723 257.791 25.982 257.791 27.6672C257.791 29.6116 257.24 31.313 256.138 32.7713C255.036 34.2297 253.578 35.3639 251.763 36.1741C249.981 36.9843 247.988 37.3894 245.784 37.3894Z" fill="#0F0F0F"/>
<path d="M199.771 9.19502L188.834 35.445C188.64 35.9635 188.348 36.3686 187.959 36.6603C187.57 36.952 187.133 37.0978 186.646 37.0978C185.934 37.0978 185.399 36.9034 185.042 36.5145C184.686 36.0932 184.491 35.5746 184.459 34.9589C184.459 34.7321 184.508 34.4728 184.605 34.1811L196.952 4.33391C197.179 3.78298 197.503 3.36169 197.924 3.07002C198.378 2.77835 198.864 2.64872 199.383 2.68113C199.869 2.68113 200.322 2.82696 200.744 3.11863C201.165 3.4103 201.473 3.81539 201.667 4.33391L213.869 33.7436C213.998 34.0677 214.063 34.3918 214.063 34.7159C214.063 35.4288 213.82 36.0121 213.334 36.4659C212.88 36.8871 212.362 37.0978 211.778 37.0978C211.292 37.0978 210.839 36.952 210.417 36.6603C210.028 36.3362 209.737 35.9311 209.542 35.445L198.508 9.34085L199.771 9.19502ZM190.778 28.5422L192.966 23.8756H206.723L207.549 28.5422H190.778Z" fill="#0F0F0F"/>
<path d="M165.361 19.8894C165.361 22.3524 164.956 24.6533 164.146 26.7922C163.336 28.8987 162.185 30.7459 160.694 32.3338C159.236 33.9218 157.502 35.1695 155.493 36.0769C153.484 36.9519 151.28 37.3894 148.882 37.3894C146.516 37.3894 144.329 36.9519 142.319 36.0769C140.31 35.1695 138.56 33.9218 137.069 32.3338C135.611 30.7459 134.477 28.8987 133.667 26.7922C132.889 24.6533 132.5 22.3524 132.5 19.8894C132.5 17.4264 132.889 15.1417 133.667 13.0352C134.477 10.8963 135.611 9.03292 137.069 7.44496C138.56 5.857 140.31 4.62552 142.319 3.75052C144.329 2.84311 146.516 2.3894 148.882 2.3894C151.28 2.3894 153.484 2.84311 155.493 3.75052C157.502 4.62552 159.236 5.857 160.694 7.44496C162.185 9.03292 163.336 10.8963 164.146 13.0352C164.956 15.1417 165.361 17.4264 165.361 19.8894ZM160.111 19.8894C160.111 17.4913 159.625 15.3362 158.653 13.4241C157.713 11.5121 156.4 10.0051 154.715 8.90329C153.03 7.80144 151.086 7.25052 148.882 7.25052C146.711 7.25052 144.782 7.80144 143.097 8.90329C141.412 10.0051 140.1 11.5121 139.16 13.4241C138.22 15.3038 137.75 17.4588 137.75 19.8894C137.75 22.2876 138.22 24.4426 139.16 26.3547C140.1 28.2667 141.412 29.7737 143.097 30.8755C144.782 31.9774 146.711 32.5283 148.882 32.5283C151.086 32.5283 153.03 31.9774 154.715 30.8755C156.4 29.7737 157.713 28.2667 158.653 26.3547C159.625 24.4426 160.111 22.2876 160.111 19.8894Z" fill="#0F0F0F"/>
</svg>
