<svg width="73" height="94" viewBox="0 0 73 94" fill="none" xmlns="http://www.w3.org/2000/svg">
<g clip-path="url(#clip0_2122_20204)">
<path d="M22.996 26.6205C22.8998 25.4528 17.3241 19.8598 17.3241 19.8598L15.7786 19.7926L13.7725 26.9292L22.3096 33.8056C21.4746 31.4173 23.0923 27.7882 22.996 26.6205Z" fill="#9F6ED3"/>
<path d="M58.6911 38.8714C58.6911 38.8714 60.9398 29.9764 59.9803 28.025C59.0209 26.0735 54.5159 21.5039 54.5159 21.5039L51.5761 21.3848L52.4833 38.2778L58.6911 38.8714Z" fill="#9F6ED3"/>
<path d="M5.11954 71.9764C4.28084 71.7074 0.301189 66.401 0.301189 66.401L65.8782 38.7482L71.7782 45.5752C76.267 54.4169 64.7169 61.8147 57.0877 59.8611C57.0877 59.8611 56.591 72.6138 54.9427 74.6346C53.2944 76.6553 5.95823 72.2454 5.11954 71.9764Z" fill="#9F6ED3"/>
<path d="M22.0728 30.6153C20.5732 30.1915 19.2768 29.4049 18.3168 28.294C16.938 26.6986 16.3104 24.5193 16.549 22.1585C16.6333 21.3145 16.8402 20.4883 17.1406 19.6816L23.1034 26.5813C22.563 27.7777 22.2138 29.0347 22.0847 30.3373C22.0755 30.4306 22.08 30.522 22.0728 30.6153Z" fill="#9F6ED3"/>
<path d="M5.05445 19.2539C5.47236 18.0967 17.2552 19.1444 17.4225 19.8101C17.5897 20.4758 17.1356 21.0801 17.0702 21.7322C16.7279 25.1143 17.8085 28.4462 20.1111 31.1118C22.07 33.3785 24.6409 34.8352 27.4656 35.3299C27.4767 35.332 27.4877 35.3342 27.4994 35.3359C28.0079 35.4233 28.5218 35.4911 29.0444 35.5146C32.2124 35.6574 35.2921 34.5816 37.7159 32.487C40.1193 30.41 41.6155 27.5528 41.9288 24.4432C42.0483 23.2559 40.8568 21.5192 41.7597 20.9041C42.6626 20.289 53.6475 19.9423 54.4929 21.4776C55.3382 23.013 53.1948 34.4147 53.1948 34.4147C53.1369 34.9833 53.4717 35.7144 54.0371 36.2529C54.6017 36.7905 55.279 37.0248 55.7397 36.8408C57.1517 36.2796 58.5984 36.028 60.0398 36.0938C61.5148 36.1608 62.8676 36.5424 64.0182 37.1957C64.0356 37.2075 64.0509 37.2193 64.0702 37.2311C64.0918 37.2442 64.1083 37.2467 64.1288 37.2574C64.6888 37.5865 65.1916 37.99 65.6408 38.4482L66.2193 39.1176C67.4019 40.6751 67.9366 42.7056 67.7161 44.9018C67.4503 47.5371 66.1469 49.9867 64.0475 51.801C61.9265 53.634 59.2766 54.5775 56.5848 54.4564C55.2203 54.3944 53.9489 54.0562 52.8037 53.4483C52.7979 53.445 52.7916 53.4437 52.7851 53.4409C52.668 53.3799 52.552 53.333 52.4389 53.3002C52.4064 53.2898 52.3757 53.2862 52.3435 53.2772C52.2612 53.2564 52.1825 53.2457 52.1055 53.2404C52.0696 53.2379 52.0374 53.2373 52.0049 53.2387C51.931 53.2406 51.8614 53.2522 51.7934 53.2692C51.7698 53.2762 51.7438 53.2803 51.721 53.2883C51.6355 53.3204 51.5551 53.3597 51.4862 53.4193L51.4856 53.4198C51.4856 53.4198 51.4844 53.4208 51.4832 53.4218C51.4153 53.4839 51.363 53.5592 51.3194 53.6387C51.3073 53.6625 51.2997 53.6892 51.2882 53.7125C51.2594 53.7842 51.2378 53.8597 51.2253 53.9409C51.223 53.9595 51.215 53.9715 51.2119 53.9892C51.2119 53.9892 50.8011 67.1595 49.7476 68.5119C48.6941 69.8644 1.48991 70.447 0.311637 66.2911C-0.866635 62.1351 4.63654 20.411 5.05445 19.2539Z" fill="#E8DFF2"/>
</g>
<defs>
<clipPath id="clip0_2122_20204">
<rect width="73" height="94" fill="white"/>
</clipPath>
</defs>
</svg>
