<svg width="48" height="48" viewBox="0 0 48 48" fill="none" xmlns="http://www.w3.org/2000/svg">
<g clip-path="url(#clip0_2135_23413)">
<path d="M11.2929 18.5711C10.5791 18.578 6.86659 15.4127 6.86659 15.4127L6.73714 14.4501L10.9506 12.7854L15.6115 17.729C14.1149 17.344 12.0066 18.5642 11.2929 18.5711Z" fill="#0C87CA"/>
<path d="M20.8296 40.1356C20.8296 40.1356 15.5707 42.0308 14.3307 41.54C13.0908 41.0492 10.0532 38.4907 10.0532 38.4907L9.80651 36.6629L20.1013 36.2946L20.8296 40.1356Z" fill="#0C87CA"/>
<path d="M37.7407 4.91322C37.5281 4.40509 34.0775 2.21687 34.0775 2.21687L21.2117 44.6414L25.6973 47.9431C31.3196 50.2533 35.1168 42.6412 33.4811 37.9916C33.4811 37.9916 41.1773 36.9763 42.3039 35.8366C43.4304 34.6969 37.9534 5.42136 37.7407 4.91322Z" fill="#0C87CA"/>
<path d="M13.6632 17.754C13.3171 16.8416 12.763 16.0759 12.0323 15.538C10.9829 14.7656 9.62415 14.4942 8.20688 14.7734C7.70012 14.8726 7.21146 15.0473 6.74023 15.2793L11.2786 18.6198C11.9718 18.2165 12.7132 17.9292 13.4954 17.7768C13.5514 17.7659 13.6071 17.7636 13.6632 17.754Z" fill="#0C87CA"/>
<path d="M5.76207 7.76186C5.08531 8.08653 6.42155 15.3822 6.83512 15.4498C7.2487 15.5174 7.58814 15.2007 7.97962 15.1239C10.01 14.7236 12.0946 15.2141 13.8478 16.504C15.3388 17.6014 16.375 19.1255 16.843 20.8611C16.845 20.8679 16.8469 20.8746 16.8486 20.8818C16.9319 21.1943 17.0036 21.5113 17.0489 21.8362C17.3239 23.8054 16.8549 25.7867 15.729 27.415C14.6126 29.0294 12.9692 30.1209 11.1023 30.488C10.3895 30.6281 9.26561 29.9804 8.94636 30.5778C8.62711 31.1752 9.07037 38.0498 10.0516 38.4926C11.0329 38.9355 17.8188 36.9686 17.8188 36.9686C18.1601 36.9011 18.6233 37.0697 18.9835 37.3928C19.343 37.7155 19.5254 38.1253 19.4412 38.4229C19.1849 39.3351 19.1184 40.2519 19.2441 41.1478C19.3724 42.0646 19.6843 42.8878 20.1489 43.5698C20.1571 43.58 20.1652 43.5889 20.1734 43.6003C20.1827 43.6131 20.1852 43.6232 20.1929 43.6354C20.4257 43.9667 20.7003 44.2583 21.0049 44.5133L21.4452 44.8374C22.4599 45.4895 23.7229 45.7111 25.0415 45.4523C26.6236 45.141 28.0313 44.1925 29.0065 42.7821C29.9918 41.3573 30.4062 39.6515 30.1727 37.9783C30.0539 37.1301 29.7732 36.3553 29.3364 35.6742C29.3341 35.6707 29.3329 35.6669 29.3309 35.663C29.2869 35.5933 29.2515 35.5235 29.2249 35.4547C29.2167 35.435 29.2127 35.4161 29.2053 35.3964C29.1878 35.3462 29.1767 35.2977 29.1689 35.2499C29.1652 35.2277 29.1629 35.2076 29.1618 35.1873C29.1586 35.141 29.1615 35.097 29.1677 35.0536C29.1706 35.0385 29.1715 35.022 29.175 35.0074C29.1894 34.9522 29.2085 34.8999 29.2405 34.8535L29.2408 34.8532C29.2408 34.8532 29.2413 34.8524 29.2418 34.8516C29.2754 34.8058 29.318 34.769 29.3636 34.7374C29.3773 34.7285 29.393 34.7223 29.4065 34.7139C29.4483 34.6919 29.4928 34.6743 29.5412 34.6619C29.5524 34.6595 29.5592 34.6538 29.5697 34.6509C29.5697 34.6509 37.531 33.6678 38.2884 32.9357C39.0458 32.2036 36.5908 2.71228 34.0007 2.20629C31.4107 1.7003 6.43884 7.4372 5.76207 7.76186Z" fill="#20B0FE"/>
<path d="M27.0591 17.489C27.6553 17.3759 28.0369 16.7136 27.9114 16.0096C27.786 15.3057 27.201 14.8267 26.6049 14.9398C26.0087 15.0529 25.6271 15.7152 25.7525 16.4191C25.878 17.1231 26.4629 17.6021 27.0591 17.489Z" fill="#444444"/>
<path d="M25.612 22.2401C27.1223 21.9536 28.089 20.2757 27.7712 18.4924C27.4535 16.7091 25.9715 15.4956 24.4612 15.7821C22.9509 16.0685 21.9842 17.7465 22.302 19.5298C22.6197 21.3131 24.1017 22.5266 25.612 22.2401Z" fill="#444444"/>
<path d="M25.173 22.5276C26.4003 22.2948 27.1858 20.9313 26.9276 19.4821C26.6694 18.0329 25.4651 17.0469 24.2378 17.2797C23.0105 17.5125 22.225 18.876 22.4832 20.3251C22.7414 21.7743 23.9457 22.7603 25.173 22.5276Z" fill="#9E616A"/>
<path d="M23.287 16.7939C23.6877 16.5384 24.145 16.4169 24.6111 16.4423C25.0771 16.4678 25.5348 16.6391 25.9362 16.9384C26.3377 17.2377 26.6681 17.654 26.8931 18.1437C27.118 18.6335 27.2292 19.1788 27.2149 19.7225C26.0545 19.981 24.8364 20.1557 23.6076 19.5515L23.3246 18.6979L23.1445 19.5197C22.7669 19.6729 22.3886 19.7983 22.0152 19.439C22.0053 18.8951 22.1175 18.3646 22.3407 17.9004C22.5638 17.4363 22.8902 17.0547 23.287 16.7939Z" fill="#444444"/>
<path d="M27.8939 12.7891C28.6607 12.4338 29.6158 12.6925 30.2445 13.3776C30.8732 14.0626 31.1647 15.1265 31.0324 16.0877C30.8974 17.0683 30.3741 17.8842 29.8912 18.6833C29.4084 19.4825 28.9357 20.3621 28.9262 21.3622C28.9194 22.0825 29.1573 22.7903 29.5879 23.3305C30.0185 23.8706 30.6065 24.1989 31.223 24.2435C30.4958 24.5568 29.7368 24.8751 28.9503 24.7769C28.1638 24.6787 27.3448 24.03 27.2256 23.113C27.1396 22.4522 27.4208 21.8334 27.656 21.2427C28.0392 20.2801 28.3193 19.2613 28.4905 18.2084C28.5721 17.7059 28.6273 17.1754 28.4904 16.6771C28.3812 16.3073 28.1748 15.9826 27.9019 15.7511C27.6289 15.5195 27.3037 15.3933 26.9742 15.391L26.717 15.0996C26.611 14.1205 27.127 13.1443 27.8939 12.7891Z" fill="#444444"/>
<path d="M31.1622 26.5672C30.7097 24.8627 29.9086 25.085 29.9086 25.085L27.6729 24.9969L26.4038 23.3313L24.0233 23.6704L23.4928 25.5701L21.8111 26.1527L21.8148 26.1818C21.6463 26.2296 21.0573 26.5065 21.1986 28.0179C21.2115 28.1569 21.2255 28.3273 21.2397 28.524L31.1816 26.6382C31.1749 26.6131 31.1685 26.5897 31.1622 26.5672Z" fill="#444444"/>
</g>
<defs>
<clipPath id="clip0_2135_23413">
<rect width="48" height="48" fill="white"/>
</clipPath>
</defs>
</svg>
