<svg width="18" height="18" viewBox="0 0 18 18" fill="none" xmlns="http://www.w3.org/2000/svg">
<path d="M7.19695 14.4432C7.19695 14.4432 7.19695 14.4337 7.19801 14.4285C7.20538 14.3663 7.21381 14.3041 7.22646 14.242C7.22856 14.2325 7.23067 14.222 7.23278 14.2125C7.24542 14.1503 7.25912 14.0881 7.27703 14.026C7.28125 14.0123 7.28335 13.9986 7.28441 13.9838C7.28651 13.9543 7.2823 13.9238 7.27282 13.8922C7.24964 13.8121 7.19379 13.7278 7.11266 13.6551C7.08 13.6256 7.04523 13.6003 7.0094 13.5782C6.90193 13.5128 6.78497 13.4833 6.69225 13.5012C6.69225 13.5012 4.24566 14.2104 3.89163 14.0502C3.87372 14.0418 3.8558 14.026 3.83894 14.006H3.83789C3.99489 14.1977 4.99059 14.9732 5.43418 15.1492C5.71972 15.2619 6.59321 15.0248 7.18958 14.8383C7.18115 14.7066 7.18326 14.5739 7.19801 14.4411L7.19695 14.4432Z" fill="#53686F" stroke="#53686F" stroke-width="0.75" stroke-linejoin="round"/>
<path d="M5.71232 6.54011C5.57745 6.38839 5.42678 6.2472 5.2582 6.12286C4.626 5.6582 3.81258 5.40322 3.22253 5.64661C3.10346 5.69613 2.93066 5.90792 2.73047 5.74355C2.73047 5.74355 4.07915 6.87202 4.3373 6.86885C4.567 6.86675 5.19708 6.51693 5.71338 6.54011H5.71232Z" fill="#53686F" stroke="#53686F" stroke-width="0.75" stroke-linejoin="round"/>
<path d="M13.5133 2.18542C13.4363 2.00208 12.193 1.21289 12.193 1.21289L12.1909 1.21816C13.115 1.58589 13.9821 12.0266 13.7113 12.2879C13.4384 12.5524 10.5683 12.9064 10.5683 12.9064C10.5641 12.9074 10.562 12.9096 10.5577 12.9106C10.5398 12.9148 10.524 12.9211 10.5093 12.9296C10.504 12.9327 10.4987 12.9348 10.4935 12.938C10.4766 12.9496 10.4619 12.9622 10.4492 12.9791C10.4376 12.996 10.4313 13.0149 10.426 13.0349C10.425 13.0402 10.4239 13.0465 10.4239 13.0518C10.4218 13.0676 10.4208 13.0834 10.4218 13.1003C10.4218 13.1076 10.4229 13.115 10.4239 13.1224C10.4271 13.1393 10.4303 13.1572 10.4366 13.1751C10.4397 13.1825 10.4408 13.1888 10.4439 13.1961C10.4534 13.2214 10.4661 13.2457 10.4819 13.271C10.4819 13.272 10.4829 13.2741 10.484 13.2752C10.641 13.5207 10.7421 13.7999 10.7853 14.1055C10.8696 14.7092 10.72 15.3235 10.3649 15.8377C10.013 16.3466 9.86654 16.4477 9.29546 16.5605C8.84028 16.65 8.40512 16.5784 8.04688 16.3666L9.53043 17.4593C11.5577 18.2916 12.566 15.7881 11.976 14.1118C11.976 14.1118 14.7502 13.7462 15.157 13.3352C15.5626 12.9243 13.5881 2.36981 13.5122 2.18647L13.5133 2.18542Z" fill="#53686F" stroke="#53686F" stroke-width="0.75" stroke-linejoin="round"/>
<path d="M2.34362 2.97241C1.92954 3.09148 2.53012 5.58022 2.73032 5.74459C2.93051 5.90896 3.10331 5.69717 3.22237 5.64765C3.81348 5.40426 4.6269 5.65924 5.25804 6.12391C5.79541 6.52008 6.16946 7.06904 6.33804 7.69491C6.33804 7.69702 6.3391 7.70018 6.34015 7.70229C6.37071 7.81503 6.39599 7.92882 6.41285 8.04683C6.5119 8.757 6.44552 9.43345 6.03986 10.0214C5.63736 10.603 4.96618 11.0434 4.52996 11.1088C4.09375 11.1741 3.60696 10.9834 3.49106 11.1983C3.37621 11.4133 3.53531 13.8925 3.88934 14.0516C4.24337 14.2118 6.68996 13.5027 6.68996 13.5027C6.81324 13.4784 6.97972 13.5396 7.11037 13.6555C7.23997 13.7714 7.3053 13.9199 7.2758 14.0263C7.18308 14.3551 7.1599 14.6859 7.2052 15.0084C7.25157 15.3392 7.36431 15.6353 7.53184 15.8818C7.535 15.885 7.53816 15.8892 7.54027 15.8924C7.54343 15.8966 7.54448 15.9008 7.54764 15.905C7.63194 16.0241 7.73098 16.1294 7.84056 16.2211L7.99966 16.3381C8.36528 16.573 8.82046 16.6531 9.29672 16.5593C9.86675 16.4466 10.0143 16.3454 10.3662 15.8365C10.7213 15.3223 10.8709 14.7081 10.7866 14.1043C10.7434 13.7988 10.6422 13.5195 10.4852 13.274C10.4852 13.273 10.4842 13.2709 10.4831 13.2698C10.4673 13.2445 10.4547 13.2192 10.4452 13.195C10.442 13.1876 10.441 13.1813 10.4378 13.1739C10.4315 13.156 10.4273 13.1381 10.4252 13.1213C10.4241 13.1128 10.4231 13.1054 10.4231 13.0991C10.422 13.0823 10.4231 13.0665 10.4252 13.0507C10.4252 13.0454 10.4262 13.0391 10.4273 13.0338C10.4326 13.0138 10.4389 12.9948 10.4505 12.978C10.4621 12.9611 10.4779 12.9485 10.4947 12.9369C10.5 12.9337 10.5053 12.9316 10.5105 12.9284C10.5253 12.92 10.5421 12.9137 10.559 12.9095C10.5632 12.9095 10.5653 12.9063 10.5695 12.9053C10.5695 12.9053 13.4397 12.5512 13.7126 12.2868C13.9855 12.0233 13.1004 1.38982 12.1669 1.20754C11.2302 1.02736 2.60388 2.8976 2.34362 2.97241Z" stroke="#53686F" stroke-width="0.75" stroke-linejoin="round"/>
</svg>
