<svg width="18" height="20" viewBox="0 0 18 20" fill="none" xmlns="http://www.w3.org/2000/svg">
<path d="M7.19695 15.4422C7.19695 15.4422 7.19695 15.4328 7.19801 15.4275C7.20538 15.3653 7.21381 15.3032 7.22646 15.241C7.22856 15.2315 7.23067 15.221 7.23278 15.2115C7.24542 15.1493 7.25912 15.0872 7.27703 15.025C7.28125 15.0113 7.28335 14.9976 7.28441 14.9828C7.28651 14.9533 7.2823 14.9228 7.27282 14.8912C7.24964 14.8111 7.19379 14.7268 7.11266 14.6541C7.08 14.6246 7.04523 14.5993 7.0094 14.5772C6.90193 14.5119 6.78497 14.4824 6.69225 14.5003C6.69225 14.5003 4.24566 15.2094 3.89163 15.0492C3.87372 15.0408 3.8558 15.025 3.83894 15.005H3.83789C3.99489 15.1967 4.99059 15.9722 5.43418 16.1482C5.71972 16.2609 6.59321 16.0239 7.18958 15.8374C7.18115 15.7057 7.18326 15.5729 7.19801 15.4401L7.19695 15.4422Z" fill="#310A5C" stroke="#310A5C" stroke-width="0.585366" stroke-linejoin="round"/>
<path d="M5.71232 7.54109C5.57745 7.38936 5.42678 7.24817 5.2582 7.12384C4.626 6.65918 3.81258 6.40419 3.22253 6.64759C3.10346 6.69711 2.93066 6.90889 2.73047 6.74452C2.73047 6.74452 4.07915 7.87299 4.3373 7.86983C4.567 7.86772 5.19708 7.51791 5.71338 7.54109H5.71232Z" fill="#310A5C" stroke="#310A5C" stroke-width="0.585366" stroke-linejoin="round"/>
<path d="M13.5133 3.18542C13.4363 3.00208 12.193 2.21289 12.193 2.21289L12.1909 2.21816C13.115 2.58589 13.9821 13.0266 13.7113 13.2879C13.4384 13.5524 10.5683 13.9064 10.5683 13.9064C10.5641 13.9074 10.562 13.9096 10.5577 13.9106C10.5398 13.9148 10.524 13.9211 10.5093 13.9296C10.504 13.9327 10.4987 13.9348 10.4935 13.938C10.4766 13.9496 10.4619 13.9622 10.4492 13.9791C10.4376 13.996 10.4313 14.0149 10.426 14.0349C10.425 14.0402 10.4239 14.0465 10.4239 14.0518C10.4218 14.0676 10.4208 14.0834 10.4218 14.1003C10.4218 14.1076 10.4229 14.115 10.4239 14.1224C10.4271 14.1393 10.4303 14.1572 10.4366 14.1751C10.4397 14.1825 10.4408 14.1888 10.4439 14.1961C10.4534 14.2214 10.4661 14.2457 10.4819 14.271C10.4819 14.272 10.4829 14.2741 10.484 14.2752C10.641 14.5207 10.7421 14.7999 10.7853 15.1055C10.8696 15.7092 10.72 16.3235 10.3649 16.8377C10.013 17.3466 9.86654 17.4477 9.29546 17.5605C8.84028 17.65 8.40512 17.5784 8.04688 17.3666L9.53043 18.4593C11.5577 19.2916 12.566 16.7881 11.976 15.1118C11.976 15.1118 14.7502 14.7462 15.157 14.3352C15.5626 13.9243 13.5881 3.36981 13.5122 3.18647L13.5133 3.18542Z" fill="#310A5C" stroke="#310A5C" stroke-width="0.585366" stroke-linejoin="round"/>
<path d="M2.34362 3.97241C1.92954 4.09148 2.53012 6.58022 2.73032 6.74459C2.93051 6.90896 3.10331 6.69717 3.22237 6.64765C3.81348 6.40426 4.6269 6.65924 5.25804 7.12391C5.79541 7.52008 6.16946 8.06904 6.33804 8.69491C6.33804 8.69702 6.3391 8.70018 6.34015 8.70229C6.37071 8.81503 6.39599 8.92882 6.41285 9.04683C6.5119 9.757 6.44552 10.4334 6.03986 11.0214C5.63736 11.603 4.96618 12.0434 4.52996 12.1088C4.09375 12.1741 3.60696 11.9834 3.49106 12.1983C3.37621 12.4133 3.53531 14.8925 3.88934 15.0516C4.24337 15.2118 6.68996 14.5027 6.68996 14.5027C6.81324 14.4784 6.97972 14.5396 7.11037 14.6555C7.23997 14.7714 7.3053 14.9199 7.2758 15.0263C7.18308 15.3551 7.1599 15.6859 7.2052 16.0084C7.25157 16.3392 7.36431 16.6353 7.53184 16.8818C7.535 16.885 7.53816 16.8892 7.54027 16.8924C7.54343 16.8966 7.54448 16.9008 7.54764 16.905C7.63194 17.0241 7.73098 17.1294 7.84056 17.2211L7.99966 17.3381C8.36528 17.573 8.82046 17.6531 9.29672 17.5593C9.86675 17.4466 10.0143 17.3454 10.3662 16.8365C10.7213 16.3223 10.8709 15.7081 10.7866 15.1043C10.7434 14.7988 10.6422 14.5195 10.4852 14.274C10.4852 14.273 10.4842 14.2709 10.4831 14.2698C10.4673 14.2445 10.4547 14.2192 10.4452 14.195C10.442 14.1876 10.441 14.1813 10.4378 14.1739C10.4315 14.156 10.4273 14.1381 10.4252 14.1213C10.4241 14.1128 10.4231 14.1054 10.4231 14.0991C10.422 14.0823 10.4231 14.0665 10.4252 14.0507C10.4252 14.0454 10.4262 14.0391 10.4273 14.0338C10.4326 14.0138 10.4389 13.9948 10.4505 13.978C10.4621 13.9611 10.4779 13.9485 10.4947 13.9369C10.5 13.9337 10.5053 13.9316 10.5105 13.9284C10.5253 13.92 10.5421 13.9137 10.559 13.9095C10.5632 13.9095 10.5653 13.9063 10.5695 13.9053C10.5695 13.9053 13.4397 13.5512 13.7126 13.2868C13.9855 13.0233 13.1004 2.38982 12.1669 2.20754C11.2302 2.02736 2.60388 3.8976 2.34362 3.97241Z" stroke="#310A5C" stroke-width="0.585366" stroke-linejoin="round"/>
</svg>
