<svg width="284" height="284" viewBox="0 0 284 284" fill="none" xmlns="http://www.w3.org/2000/svg">
<g clip-path="url(#clip0_2138_25771)">
<path d="M226.894 257.125C225.636 257.754 224.321 258.383 222.949 258.898C221.52 259.469 220.033 260.041 218.49 260.499C217.747 260.727 217.003 260.956 216.26 261.185C211.972 262.442 207.284 263.3 202.253 263.757C200.996 263.872 199.738 263.986 198.48 264.043C196.879 264.1 195.164 264.157 193.506 264.157C191.162 264.157 188.875 264.157 186.531 264.157C185.903 264.157 185.274 264.157 184.588 264.157C167.494 264.272 149.942 264.786 132.963 264.672C132.448 264.672 131.876 264.672 131.362 264.672H130.733C130.161 264.672 129.589 264.672 129.018 264.672C119.813 264.615 110.723 264.329 102.09 263.757C101.633 263.7 101.176 263.7 100.718 263.643C100.032 263.586 99.4034 263.529 98.7745 263.471C98.0885 263.414 97.4596 263.357 96.8307 263.3C54.1814 259.698 28.4008 249.417 17.7066 208.473C9.41685 114.313 28.4008 70.8616 28.4008 70.8616C28.3436 66.0021 17.1921 7.51855 118.613 7.51855C125.302 7.51855 131.705 7.57573 137.936 7.74724C141.252 7.80441 144.511 7.91875 147.713 8.09026C152.515 8.31894 157.203 8.54763 161.719 8.89065C163.606 9.00499 165.493 9.1765 167.322 9.34801C235.927 15.4653 255.842 25.3998 255.842 87.8872C255.842 150.889 271.43 234.886 226.894 257.125Z" fill="#CDEEF7"/>
<path d="M177.209 119.961C174.98 119.982 163.383 110.399 163.383 110.399L162.979 107.485L176.14 102.445L190.699 117.412C186.024 116.246 179.439 119.94 177.209 119.961Z" fill="#0C87CA"/>
<path d="M207 185.249C207 185.249 190.573 190.987 186.7 189.501C182.827 188.015 173.339 180.27 173.339 180.27L172.568 174.736L204.725 173.621L207 185.249Z" fill="#0C87CA"/>
<path d="M259.823 78.6133C259.159 77.0749 248.381 70.45 248.381 70.45L208.193 198.892L222.204 208.887C239.766 215.882 251.627 192.836 246.518 178.759C246.518 178.759 270.557 175.685 274.076 172.235C277.595 168.784 260.487 80.1517 259.823 78.6133Z" fill="#0C87CA"/>
<path d="M187.258 119.168C186.161 116.366 184.406 114.014 182.091 112.363C178.766 109.991 174.461 109.158 169.971 110.015C168.365 110.319 166.817 110.856 165.324 111.568L179.703 121.826C181.899 120.588 184.248 119.706 186.726 119.238C186.903 119.204 187.08 119.197 187.258 119.168Z" fill="#0C87CA"/>
<path d="M162.227 88.4809C160.083 89.4779 164.317 111.881 165.627 112.089C166.937 112.296 168.013 111.324 169.253 111.088C175.686 109.859 182.29 111.365 187.845 115.326C192.568 118.696 195.851 123.376 197.334 128.706C197.34 128.727 197.347 128.747 197.352 128.769C197.616 129.729 197.843 130.702 197.986 131.7C198.858 137.747 197.372 143.831 193.805 148.831C190.268 153.789 185.061 157.141 179.146 158.268C176.888 158.698 173.327 156.709 172.316 158.544C171.304 160.378 172.709 181.488 175.818 182.848C178.926 184.208 200.425 178.168 200.425 178.168C201.507 177.961 202.975 178.479 204.116 179.471C205.255 180.462 205.832 181.72 205.566 182.634C204.754 185.435 204.543 188.251 204.941 191.002C205.348 193.817 206.336 196.345 207.808 198.439C207.834 198.47 207.859 198.498 207.886 198.533C207.915 198.572 207.923 198.603 207.947 198.641C208.685 199.658 209.555 200.553 210.52 201.337L211.915 202.332C215.13 204.334 219.131 205.015 223.309 204.22C228.321 203.264 232.781 200.351 235.871 196.02C238.992 191.645 240.305 186.407 239.565 181.269C239.189 178.664 238.3 176.285 236.916 174.194C236.908 174.183 236.905 174.171 236.898 174.159C236.759 173.945 236.647 173.731 236.563 173.52C236.537 173.459 236.524 173.401 236.501 173.341C236.445 173.186 236.41 173.037 236.385 172.891C236.373 172.822 236.366 172.761 236.363 172.698C236.352 172.556 236.362 172.421 236.381 172.288C236.39 172.241 236.393 172.191 236.404 172.146C236.45 171.976 236.51 171.816 236.612 171.673L236.613 171.672C236.613 171.672 236.614 171.67 236.616 171.667C236.723 171.527 236.857 171.414 237.002 171.317C237.045 171.29 237.095 171.271 237.138 171.245C237.27 171.177 237.411 171.123 237.565 171.085C237.6 171.078 237.622 171.06 237.655 171.051C237.655 171.051 262.878 168.032 265.278 165.784C267.677 163.536 259.899 72.9748 251.693 71.421C243.488 69.8672 164.372 87.4839 162.227 88.4809Z" fill="#20B0FE"/>
<path d="M232.864 113.999C235.377 113.537 236.985 110.831 236.457 107.955C235.928 105.078 233.462 103.121 230.949 103.583C228.436 104.045 226.827 106.752 227.356 109.628C227.885 112.504 230.351 114.461 232.864 113.999Z" fill="#444444"/>
<path d="M226.765 133.415C233.132 132.245 237.207 125.389 235.867 118.103C234.528 110.817 228.281 105.859 221.914 107.029C215.548 108.2 211.473 115.055 212.812 122.341C214.152 129.628 220.399 134.585 226.765 133.415Z" fill="#444444"/>
<path d="M224.911 134.585C230.084 133.633 233.396 128.063 232.307 122.142C231.219 116.221 226.142 112.192 220.969 113.143C215.796 114.094 212.484 119.665 213.573 125.586C214.661 131.507 219.737 135.536 224.911 134.585Z" fill="#9E616A"/>
<path d="M216.953 111.161C218.642 110.117 220.57 109.621 222.534 109.725C224.499 109.828 226.428 110.528 228.12 111.751C229.813 112.974 231.206 114.675 232.154 116.676C233.102 118.677 233.571 120.905 233.511 123.126C228.619 124.182 223.484 124.896 218.305 122.428L217.111 118.94L216.352 122.298C214.76 122.924 213.166 123.436 211.592 121.968C211.55 119.746 212.023 117.578 212.964 115.682C213.904 113.785 215.28 112.227 216.953 111.161Z" fill="#444444"/>
<path d="M236.382 94.7911C239.614 93.3397 243.64 94.3964 246.29 97.1955C248.941 99.9946 250.169 104.341 249.612 108.268C249.043 112.275 246.837 115.608 244.801 118.873C242.766 122.139 240.773 125.732 240.733 129.818C240.704 132.762 241.708 135.654 243.523 137.86C245.338 140.067 247.816 141.409 250.415 141.591C247.35 142.871 244.15 144.171 240.835 143.77C237.519 143.369 234.067 140.719 233.564 136.972C233.202 134.272 234.387 131.744 235.379 129.33C236.994 125.397 238.175 121.235 238.896 116.933C239.241 114.88 239.473 112.712 238.896 110.676C238.436 109.165 237.566 107.839 236.415 106.893C235.265 105.947 233.894 105.431 232.505 105.422L231.42 104.231C230.974 100.231 233.149 96.2425 236.382 94.7911Z" fill="#444444"/>
<path d="M250.163 151.089C248.256 144.125 244.879 145.033 244.879 145.033L235.455 144.673L230.105 137.868L220.07 139.253L217.834 147.015L210.745 149.395L210.761 149.514C210.05 149.709 207.567 150.841 208.163 157.016C208.217 157.584 208.276 158.28 208.336 159.084L250.245 151.379C250.217 151.276 250.19 151.181 250.163 151.089Z" fill="#444444"/>
<path d="M141.876 276.211C156.312 276.211 168.015 264.508 168.015 250.072C168.015 235.636 156.312 223.933 141.876 223.933C127.439 223.933 115.736 235.636 115.736 250.072C115.736 264.508 127.439 276.211 141.876 276.211Z" fill="#E6E6E6"/>
<path d="M141.489 270.115C152.557 270.115 161.53 261.142 161.53 250.074C161.53 239.006 152.557 230.034 141.489 230.034C130.422 230.034 121.449 239.006 121.449 250.074C121.449 261.142 130.422 270.115 141.489 270.115Z" fill="white"/>
<path d="M78.716 269.221C89.7839 269.221 98.7562 260.249 98.7562 249.181C98.7562 238.113 89.7839 229.141 78.716 229.141C67.6481 229.141 58.6758 238.113 58.6758 249.181C58.6758 260.249 67.6481 269.221 78.716 269.221Z" fill="white"/>
<path d="M203.614 270.115C214.682 270.115 223.655 261.142 223.655 250.074C223.655 239.006 214.682 230.034 203.614 230.034C192.547 230.034 183.574 239.006 183.574 250.074C183.574 261.142 192.547 270.115 203.614 270.115Z" fill="white"/>
<path d="M154.565 250.205C154.754 249.909 154.854 249.564 154.853 249.213C154.852 248.861 154.75 248.518 154.559 248.222C153.095 245.934 151.166 243.98 148.896 242.487C146.596 240.957 143.903 240.124 141.14 240.087C139.747 240.089 138.363 240.316 137.043 240.759C137.006 240.772 136.973 240.793 136.946 240.822C136.92 240.851 136.902 240.886 136.893 240.924C136.884 240.962 136.885 241.001 136.895 241.039C136.906 241.076 136.926 241.11 136.954 241.138L139.649 243.833C139.677 243.861 139.712 243.881 139.751 243.891C139.789 243.902 139.83 243.902 139.868 243.892C141.279 243.549 142.769 243.78 144.01 244.535C145.251 245.289 146.141 246.506 146.485 247.917L146.491 247.944C146.957 250.126 148.02 252.135 149.562 253.748L150.421 254.607C150.462 254.648 150.516 254.671 150.573 254.674C150.63 254.676 150.686 254.657 150.73 254.62C152.222 253.348 153.515 251.86 154.565 250.205Z" fill="#0C87CA"/>
<path d="M143.858 254.302C143.139 254.302 142.427 254.161 141.762 253.886C141.098 253.61 140.494 253.207 139.985 252.698C139.477 252.19 139.073 251.586 138.798 250.922C138.523 250.257 138.381 249.545 138.381 248.826C138.381 248.821 138.381 248.816 138.381 248.812C138.393 248.333 138.31 247.857 138.136 247.411C137.963 246.965 137.703 246.557 137.371 246.212L134.662 243.502C134.621 243.462 134.567 243.438 134.509 243.436C134.452 243.434 134.396 243.453 134.352 243.491C132.887 244.76 131.591 246.211 130.493 247.809C130.286 248.105 130.173 248.456 130.166 248.817C130.16 249.178 130.261 249.533 130.456 249.836C131.897 252.127 133.808 254.084 136.063 255.578C138.367 257.115 141.071 257.94 143.84 257.953C145.247 257.95 146.645 257.727 147.984 257.295C148.021 257.283 148.055 257.261 148.081 257.233C148.108 257.204 148.127 257.169 148.136 257.131C148.145 257.093 148.145 257.053 148.134 257.015C148.123 256.978 148.103 256.943 148.076 256.916L145.367 254.208C145.339 254.18 145.304 254.16 145.266 254.15C145.228 254.139 145.188 254.139 145.149 254.148C144.727 254.251 144.293 254.302 143.858 254.302Z" fill="#0C87CA"/>
<path d="M79.0984 275.318C93.5348 275.318 105.238 263.615 105.238 249.178C105.238 234.742 93.5348 223.039 79.0984 223.039C64.662 223.039 52.959 234.742 52.959 249.178C52.959 263.615 64.662 275.318 79.0984 275.318Z" fill="#E6E6E6"/>
<path d="M79.0988 269.219C90.1667 269.219 99.139 260.247 99.139 249.179C99.139 238.111 90.1667 229.139 79.0988 229.139C68.0309 229.139 59.0586 238.111 59.0586 249.179C59.0586 260.247 68.0309 269.219 79.0988 269.219Z" fill="white"/>
<path d="M86.7994 261.957C85.6858 261.957 84.1215 261.554 81.7791 260.246C78.8677 258.69 76.2092 256.701 73.8942 254.348C71.4982 252.066 69.4974 249.402 67.9731 246.465C65.8714 242.643 66.2296 240.639 66.6301 239.783C67.0925 238.847 67.8195 238.067 68.721 237.54C69.2378 237.201 69.7848 236.911 70.3549 236.673C70.4119 236.648 70.465 236.625 70.5124 236.604C70.701 236.497 70.9103 236.431 71.1262 236.412C71.3421 236.392 71.5597 236.418 71.7646 236.489C72.2199 236.709 72.6251 237.019 72.9547 237.402C74.1412 238.734 75.1422 240.22 75.9304 241.82C76.2544 242.373 76.4536 242.99 76.514 243.629C76.4667 244.26 76.2108 244.859 75.7866 245.329C75.7119 245.431 75.6377 245.529 75.5658 245.624C75.1317 246.194 75.0364 246.359 75.0992 246.653C75.2264 247.245 77.1543 247.759 78.7134 249.315C80.2726 250.871 81.0038 253.007 81.5977 253.133C81.9046 253.199 82.0729 253.099 82.6617 252.65C82.7461 252.585 82.8328 252.519 82.9235 252.452C83.3953 252.007 84.0037 251.735 84.6498 251.68H84.6533C85.3009 251.746 85.9236 251.965 86.4708 252.317C88.0525 253.119 89.5304 254.111 90.8716 255.271C91.2554 255.6 91.5671 256.004 91.7873 256.459C91.8579 256.664 91.8842 256.882 91.8646 257.098C91.8449 257.315 91.7797 257.524 91.6732 257.714C91.652 257.761 91.6287 257.813 91.6041 257.87C91.364 258.44 91.072 258.985 90.7318 259.501C90.2033 260.401 89.4222 261.127 88.4852 261.588C87.9585 261.837 87.3821 261.963 86.7994 261.957Z" fill="#0C87CA"/>
<path d="M229.268 47.0861H57.158C57.0913 47.084 57.0278 47.0443 56.9811 46.9756C56.9344 46.9068 56.9082 46.8145 56.9082 46.7183C56.9082 46.6222 56.9344 46.5298 56.9811 46.4611C57.0278 46.3924 57.0913 46.3527 57.158 46.3506H229.268C229.335 46.3527 229.399 46.3924 229.445 46.4611C229.492 46.5298 229.518 46.6222 229.518 46.7183C229.518 46.8145 229.492 46.9068 229.445 46.9756C229.399 47.0443 229.335 47.084 229.268 47.0861Z" fill="#CACACA"/>
<path d="M60.8653 41.9372C63.0507 41.9372 64.8224 40.1261 64.8224 37.892C64.8224 35.6578 63.0507 33.8467 60.8653 33.8467C58.6799 33.8467 56.9082 35.6578 56.9082 37.892C56.9082 40.1261 58.6799 41.9372 60.8653 41.9372Z" fill="#444444"/>
<path d="M74.5372 41.9372C76.7226 41.9372 78.4942 40.1261 78.4942 37.892C78.4942 35.6578 76.7226 33.8467 74.5372 33.8467C72.3517 33.8467 70.5801 35.6578 70.5801 37.892C70.5801 40.1261 72.3517 41.9372 74.5372 41.9372Z" fill="#444444"/>
<path d="M88.2051 41.9372C90.3906 41.9372 92.1622 40.1261 92.1622 37.892C92.1622 35.6578 90.3906 33.8467 88.2051 33.8467C86.0197 33.8467 84.248 35.6578 84.248 37.892C84.248 40.1261 86.0197 41.9372 88.2051 41.9372Z" fill="#444444"/>
<path d="M228.8 36.3206H219.087C218.894 36.3164 218.711 36.237 218.577 36.0996C218.443 35.9621 218.367 35.7774 218.367 35.5851C218.367 35.3928 218.443 35.2081 218.577 35.0706C218.711 34.9332 218.894 34.8538 219.087 34.8496H228.8C228.992 34.8538 229.175 34.9332 229.309 35.0706C229.444 35.2081 229.519 35.3928 229.519 35.5851C229.519 35.7774 229.444 35.9621 229.309 36.0996C229.175 36.237 228.992 36.3164 228.8 36.3206Z" fill="#444444"/>
<path d="M228.8 39.0784H219.087C218.894 39.0742 218.711 38.9949 218.577 38.8574C218.443 38.7199 218.367 38.5352 218.367 38.3429C218.367 38.1506 218.443 37.9659 218.577 37.8285C218.711 37.691 218.894 37.6116 219.087 37.6074H228.8C228.992 37.6116 229.175 37.691 229.309 37.8285C229.444 37.9659 229.519 38.1506 229.519 38.3429C229.519 38.5352 229.444 38.7199 229.309 38.8574C229.175 38.9949 228.992 39.0742 228.8 39.0784Z" fill="#444444"/>
<path d="M228.8 41.8372H219.087C218.894 41.833 218.711 41.7536 218.577 41.6162C218.443 41.4787 218.367 41.294 218.367 41.1017C218.367 40.9094 218.443 40.7247 218.577 40.5873C218.711 40.4498 218.894 40.3704 219.087 40.3662H228.8C228.992 40.3704 229.175 40.4498 229.309 40.5873C229.444 40.7247 229.519 40.9094 229.519 41.1017C229.519 41.294 229.444 41.4787 229.309 41.6162C229.175 41.7536 228.992 41.833 228.8 41.8372Z" fill="#444444"/>
<path d="M204.001 276.211C218.437 276.211 230.14 264.508 230.14 250.072C230.14 235.636 218.437 223.933 204.001 223.933C189.564 223.933 177.861 235.636 177.861 250.072C177.861 264.508 189.564 276.211 204.001 276.211Z" fill="#E6E6E6"/>
<path d="M203.999 270.112C215.067 270.112 224.039 261.139 224.039 250.071C224.039 239.004 215.067 230.031 203.999 230.031C192.931 230.031 183.959 239.004 183.959 250.071C183.959 261.139 192.931 270.112 203.999 270.112Z" fill="white"/>
<path d="M211.301 246.329C211.059 246.329 210.826 246.425 210.655 246.596C210.484 246.768 210.388 247 210.388 247.242V249.068C210.388 252.596 207.527 255.074 203.998 255.074C200.47 255.074 197.609 252.596 197.609 249.068V247.242C197.609 247 197.513 246.768 197.341 246.596C197.17 246.425 196.938 246.329 196.696 246.329C196.454 246.329 196.222 246.425 196.051 246.596C195.879 246.768 195.783 247 195.783 247.242V249.068C195.786 251.087 196.532 253.035 197.878 254.54C199.225 256.045 201.079 257.002 203.086 257.228V260.934C203.086 261.176 203.182 261.408 203.353 261.579C203.524 261.75 203.756 261.847 203.998 261.847C204.24 261.847 204.473 261.75 204.644 261.579C204.815 261.408 204.911 261.176 204.911 260.934V257.228C206.918 257.002 208.772 256.045 210.118 254.54C211.465 253.035 212.211 251.087 212.214 249.068V247.242C212.214 247 212.117 246.768 211.946 246.596C211.775 246.425 211.543 246.329 211.301 246.329Z" fill="#0C87CA"/>
<path d="M203.928 253.23C202.799 253.274 201.682 252.762 200.675 251.739C200.313 251.451 199.996 250.971 199.759 250.351C199.522 249.732 199.372 248.995 199.326 248.219V241.353C199.316 238.63 201.361 236.414 203.892 236.404C203.904 236.404 203.916 236.404 203.928 236.404C206.442 236.374 208.502 238.543 208.53 241.247C208.53 241.282 208.53 241.317 208.53 241.353V248.219C208.542 250.968 206.484 253.21 203.928 253.23Z" fill="#0C87CA"/>
<path d="M152.266 259.346C152.146 259.346 152.028 259.323 151.917 259.277C151.806 259.231 151.706 259.164 151.621 259.079L131.54 238.997C131.376 238.825 131.286 238.595 131.289 238.357C131.292 238.119 131.388 237.892 131.556 237.723C131.725 237.555 131.952 237.459 132.19 237.456C132.428 237.453 132.658 237.543 132.83 237.707L152.912 257.788C153.039 257.916 153.126 258.078 153.161 258.255C153.196 258.432 153.178 258.616 153.109 258.783C153.04 258.949 152.923 259.092 152.773 259.192C152.623 259.293 152.447 259.346 152.266 259.346Z" fill="#0C87CA"/>
<path d="M121.327 88.3971C121.359 88.2332 121.395 88.0703 121.434 87.9084C121.653 87.0262 121.142 86.4657 120.605 86.9831L120.541 87.0441C120.46 86.5449 120.077 86.3311 119.678 86.7184L119.075 87.3034C119.081 87.2834 119.087 87.2601 119.09 87.2391C119.309 86.357 118.798 85.7965 118.261 86.3138L109.916 92.8533L112.881 94.1905C113.841 94.6235 114.968 94.4325 115.732 93.7072L121.327 88.3938L121.327 88.3971Z" fill="#AF2A44"/>
<path d="M110.058 75.7428C110.508 74.4543 111.2 73.2706 112.066 72.4326C112.739 71.7809 113.433 71.4236 114.082 71.3349C113.709 71.023 113.277 70.8564 112.811 70.835C112.448 70.6303 112.043 70.5436 111.616 70.5766C110.643 69.8661 109.308 70.0583 108.038 71.286C107.17 72.1273 106.476 73.3067 106.029 74.5961C105.877 75.0253 105.594 75.2473 105.375 75.2064L105.371 75.2197L107.715 75.889L109.399 76.3697L109.403 76.3564C109.624 76.4016 109.908 76.1796 110.06 75.7471L110.058 75.7428Z" fill="#AF2A44"/>
<path d="M129.767 61.085C129.835 61.1369 129.893 61.2254 129.927 61.3579L130.415 71.7097L124.411 80.3628C123.877 80.8811 123.78 82.029 124.268 82.2261C125.005 82.5231 125.594 83.2789 125.888 84.4449C126.541 87.0582 125.454 90.7288 123.464 92.53C122.584 93.328 121.666 93.5996 120.879 93.4002L120.875 93.4135L123.973 94.298L124.9 94.5626L124.904 94.5493C125.691 94.7487 126.608 94.4771 127.492 93.68C129.481 91.8788 130.569 88.2082 129.916 85.5949C129.622 84.4256 129.033 83.6732 128.296 83.3761C127.808 83.179 127.904 82.0311 128.438 81.5128L135.635 74.5481C136.3 73.9039 136.572 72.9536 136.347 72.0551L134.158 63.3194C134.031 62.8127 133.659 62.4037 133.166 62.2317C132.108 61.8627 130.302 61.2376 129.767 61.085Z" fill="#AF2A44"/>
<path d="M124.21 43.1153L127.809 52.9C127.949 53.4592 127.54 54.2223 127.127 54.18C126.333 54.0939 125.433 54.4537 124.566 55.2916C122.493 57.2996 121.418 61.266 122.275 63.9483C122.722 65.349 123.716 66.0728 124.833 66.0131C125.179 66.256 125.572 66.3935 125.987 66.4182C126.393 66.6387 126.848 66.7253 127.324 66.6738C126.883 66.3242 126.526 65.7932 126.303 65.0983C125.446 62.416 126.521 58.4496 128.594 56.4417C129.462 55.6003 130.36 55.2439 131.154 55.33C131.567 55.3756 131.976 54.6125 131.837 54.05L129.631 45.4977C129.37 44.4825 128.522 43.7249 127.484 43.5781L124.21 43.1153Z" fill="#AF2A44"/>
<path d="M105.102 74.8758C105.242 75.435 105.8 75.2624 106.034 74.5937C106.485 73.3052 107.176 72.1215 108.043 71.2835C110.116 69.2755 112.375 70.0177 112.932 72.9897C113.391 75.414 112.375 78.9069 110.687 80.7147C109.753 81.7137 108.771 82.1473 107.909 82.0565C107.493 82.0132 107.078 82.7711 107.219 83.3379L109.429 92.1589C109.671 93.1269 110.871 93.4694 111.588 92.7753L118.257 86.3199C118.794 85.8025 119.301 86.3621 119.085 87.2452C118.741 88.6399 118.695 90.0907 119.039 91.2962C119.701 93.6128 121.664 94.1659 123.463 92.5376C125.452 90.7363 126.54 87.0657 125.887 84.4524C125.593 83.2831 125.004 82.5307 124.267 82.2336C123.778 82.0365 123.875 80.8886 124.409 80.3703L131.068 73.9261C132.066 72.9598 132.473 71.5343 132.135 70.1866L129.926 61.3654C129.784 60.8019 129.226 60.9854 128.991 61.6575C128.503 63.0508 127.729 64.3226 126.756 65.1663C125.001 66.6918 122.972 66.1449 122.273 63.955C121.417 61.2726 122.491 57.3063 124.565 55.2983C125.432 54.457 126.331 54.1005 127.125 54.1866C127.538 54.2323 127.947 53.4691 127.808 52.9067L125.596 44.0804C125.353 43.1126 124.154 42.7702 123.437 43.464L103.959 62.3106C102.96 63.277 102.553 64.7028 102.89 66.0509L105.102 74.8758Z" fill="#E44A69"/>
<path d="M173.616 72.7342C173.747 72.7233 173.878 72.7151 174.009 72.7096C174.723 72.6851 175.036 72.1782 174.529 71.8839L174.469 71.8485C174.829 71.6795 174.908 71.3443 174.529 71.1263L173.957 70.7966C173.973 70.7966 173.992 70.7966 174.009 70.7939C174.723 70.7693 175.036 70.2625 174.529 69.9682L168.098 64.9092L167.681 67.2898C167.495 68.3548 167.989 69.4238 168.921 69.9719L173.619 72.7342H173.616Z" fill="#D89A36"/>
<path d="M180.749 61.4874C181.82 61.5501 182.863 61.8171 183.684 62.2913C184.321 62.6592 184.741 63.1061 184.948 63.5776C185.103 63.2288 185.136 62.8663 185.052 62.5093C185.128 62.1905 185.106 61.8662 184.989 61.5501C185.316 60.6617 184.883 59.6943 183.681 58.9994C182.858 58.5252 181.817 58.2554 180.746 58.1954C180.389 58.1736 180.16 58.0074 180.144 57.833H180.133V59.7488V61.125H180.144C180.157 61.3021 180.386 61.4683 180.746 61.4901L180.749 61.4874Z" fill="#D89A36"/>
<path d="M196.078 73.2186C196.053 73.2813 195.999 73.344 195.906 73.3985L188.188 76.001L180.354 73.3304C179.847 73.0388 178.959 73.2132 178.915 73.6247C178.85 74.246 178.405 74.8537 177.588 75.3279C175.754 76.3852 172.745 76.3552 170.955 75.2407C170.162 74.7474 169.758 74.1125 169.739 73.4748H169.729V76.0064V76.764H169.739C169.758 77.4017 170.162 78.0366 170.955 78.5326C172.745 79.6472 175.754 79.6772 177.588 78.6198C178.408 78.1457 178.85 77.5379 178.915 76.9166C178.959 76.5051 179.847 76.3307 180.354 76.6223L186.892 80.3975C187.694 80.8607 188.683 80.8607 189.485 80.3976L195.182 77.1087C195.634 76.8476 195.925 76.3774 195.955 75.8559C196.006 74.9653 196.078 73.6273 196.078 73.2186Z" fill="#D89A36"/>
<path d="M208.216 65.2236L201.84 69.9729C201.448 70.1991 200.783 70.0547 200.726 69.7331C200.62 69.1145 200.154 68.5123 199.333 68.0381C197.368 66.9044 194.139 66.948 192.297 68.1743C191.335 68.8148 191.003 69.7222 191.289 70.5534C191.18 70.8668 191.161 71.1938 191.231 71.5126C191.152 71.8669 191.185 72.2293 191.327 72.5781C191.496 72.1694 191.82 71.7851 192.297 71.4663C194.139 70.24 197.368 70.1964 199.333 71.33C200.156 71.8042 200.62 72.4065 200.726 73.0251C200.78 73.3466 201.445 73.4911 201.84 73.2649L206.871 70.2311C207.623 69.7773 208.095 68.9732 208.123 68.0949L208.216 65.2236Z" fill="#D89A36"/>
<path d="M180.335 57.555C179.943 57.7812 180.194 58.1654 180.749 58.1981C181.82 58.2608 182.864 58.5278 183.684 59.002C185.649 60.1357 185.576 62.0024 183.45 63.0652C181.717 63.9345 178.858 63.9209 177.128 63.0352C176.171 62.5447 175.632 61.8961 175.515 61.2257C175.457 60.9014 174.795 60.7515 174.397 60.9805L168.624 64.3134C167.76 64.8123 167.76 66.0597 168.624 66.5586L174.525 69.9652C175.032 70.2595 174.719 70.7636 174.005 70.7909C172.877 70.8318 171.77 71.1097 170.934 71.6302C169.326 72.6304 169.331 74.2327 170.95 75.241C172.74 76.3556 175.749 76.3856 177.583 75.3282C178.403 74.8541 178.845 74.2464 178.91 73.625C178.954 73.2135 179.842 73.0391 180.349 73.3307L186.239 76.7317C187.442 77.4264 188.925 77.4265 190.128 76.7318L195.901 73.3988C196.296 73.1699 196.037 72.7884 195.479 72.7557C194.321 72.6876 193.192 72.3769 192.345 71.8237C190.813 70.8263 190.789 69.1749 192.293 68.1748C194.135 66.9485 197.365 66.9049 199.329 68.0385C200.152 68.5127 200.616 69.1149 200.722 69.7336C200.776 70.0551 201.441 70.1995 201.836 69.9734L207.613 66.6375C208.477 66.1386 208.477 64.8915 207.613 64.3925L190 54.22C188.797 53.5249 187.314 53.5249 186.111 54.2198L180.335 57.555Z" fill="#F5DC46"/>
<path d="M38.1006 226.248C38.4216 225.807 38.6709 225.317 38.8393 224.798L46.7445 200.433C47.3081 198.696 46.3445 196.833 44.6011 196.289L43.0558 195.807C42.2562 195.557 41.4136 195.985 41.0212 196.725C39.847 198.943 38.1583 200.203 36.268 200.272C34.6602 200.33 33.1349 199.512 31.8848 197.96C31.8798 197.954 31.8747 197.948 31.8699 197.942C31.6455 197.661 31.4266 197.366 31.2216 197.039C29.9784 195.056 29.2374 192.412 29.135 189.595C29.0335 186.802 29.573 184.141 30.6531 182.102C30.8595 181.713 31.0823 181.353 31.3206 181.023C31.7724 180.397 32.1926 179.737 32.4081 178.996L32.5622 178.466C33.0979 176.624 32.2294 174.664 30.5051 173.823C28.5959 172.893 26.2926 173.643 25.2973 175.519L22.5861 180.631C22.3888 181.004 21.9817 181.217 21.5624 181.165C21.1433 181.114 20.7992 180.81 20.6973 180.401C20.3838 179.148 19.9381 178.056 19.3719 177.154C18.7929 176.231 20.5855 176.587 19.9025 176.221C19.5005 176.061 19.7669 175.674 20.1985 175.707C20.9966 175.768 21.305 175.678 21.2984 175.674C20.9618 175.503 16.7094 174.911 16.3645 174.888L15.8898 174.905C14.8463 175.052 13.8639 175.9 13.1005 177.339C12.1851 179.067 11.7305 181.362 11.8195 183.802C11.909 186.266 12.5397 188.552 13.5959 190.237C14.1319 191.091 14.739 191.721 15.4025 192.11C15.406 192.112 15.4086 192.115 15.4124 192.118C15.48 192.158 15.5414 192.206 15.5966 192.261C15.6128 192.276 15.6256 192.293 15.6411 192.309C15.6799 192.35 15.7136 192.396 15.7447 192.443C15.7592 192.465 15.7713 192.485 15.7831 192.507C15.81 192.557 15.8315 192.609 15.8507 192.663C15.8568 192.683 15.865 192.702 15.8707 192.722C15.8903 192.797 15.9055 192.872 15.9081 192.952L15.9082 192.955C15.9097 193.036 15.9006 193.115 15.8862 193.19C15.8815 193.212 15.8741 193.232 15.8694 193.254C15.8525 193.315 15.8315 193.374 15.8052 193.43C15.7989 193.442 15.7971 193.454 15.7916 193.467L12.1546 200.331C11.2843 201.974 11.3598 203.956 12.3524 205.528L28.54 231.158C29.0371 231.945 29.8245 232.504 30.7314 232.715C32.1145 233.035 33.5553 232.498 34.3904 231.35L38.1006 226.248Z" fill="#D89A36"/>
<path d="M49.614 204.867C50.0477 204.049 50.0118 203.061 49.5199 202.276L46.255 197.068C45.9309 196.551 45.1391 196.626 44.8532 197.166C43.679 199.383 41.9903 200.643 40.1 200.712C38.4922 200.771 36.9669 199.952 35.7168 198.401C35.7118 198.395 35.7067 198.389 35.7019 198.382C35.4775 198.102 35.2586 197.806 35.0536 197.479C33.8104 195.496 33.0694 192.852 32.967 190.035C32.8655 187.242 33.405 184.581 34.4851 182.543C34.5457 182.428 34.6078 182.317 34.6712 182.207C35.2774 181.163 35.4571 179.841 34.8156 178.818L33.2978 176.397C32.238 174.707 29.7459 174.797 28.811 176.56L26.4181 181.071C26.2208 181.444 25.8137 181.657 25.3944 181.606C24.9753 181.554 24.6312 181.25 24.5293 180.841C24.2158 179.589 23.7701 178.496 23.2039 177.595C22.6249 176.671 21.9703 176.014 21.2873 175.648C21.2764 175.644 21.2659 175.641 21.2542 175.635C21.2411 175.629 21.2338 175.62 21.2221 175.613C20.8855 175.441 20.5414 175.351 20.1965 175.328L19.7218 175.345C18.6783 175.492 17.6959 176.341 16.9325 177.78C16.0171 179.507 15.5625 181.802 15.6515 184.242C15.741 186.707 16.3717 188.993 17.4279 190.678C17.9639 191.531 18.571 192.162 19.2344 192.55C19.238 192.552 19.2406 192.555 19.2444 192.558C19.312 192.598 19.3734 192.646 19.4286 192.701C19.4448 192.716 19.4576 192.734 19.4731 192.75C19.5119 192.791 19.5456 192.836 19.5767 192.883C19.5912 192.905 19.6033 192.926 19.6151 192.948C19.642 192.997 19.6635 193.049 19.6827 193.104C19.6888 193.123 19.697 193.142 19.7027 193.162C19.7223 193.237 19.7375 193.312 19.7401 193.393L19.7402 193.396C19.7417 193.477 19.7326 193.555 19.7182 193.63C19.7135 193.652 19.7061 193.673 19.7014 193.694C19.6845 193.755 19.6635 193.814 19.6372 193.87C19.6309 193.883 19.6291 193.895 19.6236 193.908L15.2802 202.105C14.8466 202.923 14.8825 203.911 15.3743 204.695L31.5925 230.572C32.6525 232.263 35.1457 232.173 36.0802 230.409L49.614 204.867Z" fill="#F5DC46"/>
<path d="M167.293 206.511C167.355 206.203 167.389 205.889 167.394 205.573L167.735 185.48C167.761 183.961 166.546 182.712 165.028 182.694L163.672 182.679C162.975 182.671 162.405 183.213 162.269 183.897C161.862 185.946 160.817 187.354 159.326 187.861C158.057 188.292 156.645 188.003 155.278 187.064C155.272 187.06 155.267 187.057 155.261 187.053C155.016 186.883 154.77 186.699 154.529 186.488C153.064 185.203 151.841 183.271 151.087 181.049C150.339 178.846 150.134 176.595 150.508 174.711C150.58 174.352 150.672 174.011 150.783 173.691C150.994 173.084 151.171 172.457 151.166 171.815L151.162 171.355C151.15 169.759 149.989 168.403 148.413 168.144C146.668 167.858 145.01 169.006 144.665 170.74L143.723 175.464C143.655 175.809 143.381 176.076 143.034 176.135C142.688 176.194 142.341 176.034 142.162 175.732C141.613 174.808 140.996 174.043 140.329 173.459C139.647 172.861 141.162 172.717 140.53 172.589C140.171 172.557 140.291 172.185 140.643 172.108C141.294 171.966 141.519 171.821 141.513 171.819C141.203 171.763 137.67 172.306 137.39 172.37L137.015 172.497C136.218 172.863 135.637 173.775 135.372 175.105C135.055 176.701 135.24 178.64 135.894 180.564C136.554 182.509 137.603 184.181 138.848 185.273C139.479 185.826 140.114 186.183 140.736 186.335C140.739 186.335 140.742 186.337 140.745 186.339C140.809 186.355 140.869 186.378 140.926 186.409C140.943 186.417 140.957 186.428 140.974 186.437C141.014 186.46 141.052 186.488 141.088 186.519C141.105 186.533 141.12 186.546 141.134 186.561C141.167 186.594 141.197 186.63 141.225 186.669C141.235 186.683 141.246 186.697 141.255 186.711C141.289 186.766 141.319 186.822 141.34 186.886L141.341 186.888C141.361 186.952 141.373 187.017 141.379 187.081C141.381 187.099 141.38 187.117 141.381 187.136C141.382 187.188 141.38 187.24 141.372 187.291C141.37 187.303 141.372 187.313 141.37 187.324L140.199 193.214C139.841 195.015 140.462 196.872 141.832 198.094L160.678 214.915C161.043 215.24 161.552 215.35 162.019 215.202C162.165 215.156 162.303 215.086 162.427 214.994L164.535 213.432C165.565 212.668 166.276 211.549 166.53 210.292L167.293 206.511Z" fill="#AF2A44"/>
<path d="M171.018 188.584C171.199 187.676 170.881 186.74 170.185 186.129L166.525 182.92C166.143 182.585 165.53 182.835 165.431 183.333C165.024 185.382 163.978 186.79 162.487 187.297C161.219 187.728 159.807 187.439 158.439 186.5C158.434 186.496 158.428 186.493 158.423 186.489C158.177 186.319 157.932 186.135 157.69 185.924C156.225 184.639 155.003 182.707 154.249 180.485C153.501 178.282 153.295 176.031 153.67 174.147C153.903 172.978 153.7 171.673 152.804 170.887L151.821 170.025C150.32 168.71 147.959 169.511 147.569 171.468L146.885 174.9C146.817 175.245 146.543 175.512 146.196 175.571C145.85 175.63 145.503 175.47 145.323 175.168C144.774 174.244 144.158 173.479 143.491 172.895C142.809 172.297 142.13 171.929 141.498 171.801C141.488 171.8 141.479 171.8 141.468 171.798C141.456 171.796 141.448 171.791 141.437 171.788C141.128 171.732 140.832 171.742 140.551 171.806L140.177 171.933C139.38 172.299 138.799 173.211 138.534 174.541C138.216 176.137 138.402 178.076 139.056 180C139.716 181.945 140.765 183.617 142.009 184.709C142.641 185.262 143.275 185.619 143.897 185.771C143.901 185.771 143.903 185.773 143.907 185.775C143.971 185.791 144.031 185.814 144.088 185.845C144.105 185.853 144.119 185.864 144.135 185.873C144.176 185.896 144.214 185.924 144.25 185.955C144.267 185.969 144.281 185.982 144.296 185.997C144.329 186.03 144.359 186.066 144.387 186.105C144.396 186.119 144.408 186.133 144.417 186.147C144.45 186.202 144.48 186.258 144.502 186.322L144.503 186.324C144.523 186.388 144.535 186.453 144.541 186.517C144.543 186.535 144.541 186.553 144.543 186.572C144.544 186.624 144.541 186.676 144.534 186.727C144.532 186.739 144.533 186.749 144.532 186.76L143.074 194.089C142.894 194.997 143.211 195.933 143.908 196.544L162.268 212.646C163.769 213.962 166.131 213.16 166.52 211.203L171.018 188.584Z" fill="#E44A69"/>
<path d="M149.203 193.228C149.405 192.78 149.294 192.253 148.883 191.925C148.354 191.504 147.539 191.562 147.056 192.054C146.574 192.547 146.612 193.284 147.141 193.705C147.552 194.033 148.146 194.067 148.613 193.83L150.23 195.118L152.706 194.752L157.144 198.287L157.048 200.549L158.664 201.837C158.461 202.284 158.573 202.812 158.984 203.14C159.513 203.561 160.328 203.503 160.81 203.011C161.293 202.518 161.255 201.781 160.726 201.36C160.315 201.032 159.721 200.998 159.253 201.234L157.931 200.181L158.027 197.919L153.002 193.915L150.525 194.282L149.203 193.228ZM160.164 202.496C160.003 202.66 159.75 202.678 159.574 202.537C159.397 202.397 159.386 202.168 159.547 202.004C159.707 201.84 159.96 201.822 160.136 201.962C160.313 202.103 160.324 202.331 160.164 202.496ZM147.703 192.569C147.864 192.405 148.117 192.387 148.293 192.528C148.469 192.668 148.481 192.897 148.32 193.061C148.159 193.225 147.907 193.243 147.73 193.103C147.554 192.962 147.556 192.72 147.703 192.569Z" fill="#AF2A44"/>
<path d="M164.399 195.978L162.783 194.69L160.306 195.056L155.869 191.521L155.965 189.259L154.348 187.971C154.551 187.524 154.44 186.996 154.028 186.669C153.499 186.247 152.685 186.305 152.202 186.798C151.72 187.29 151.757 188.027 152.286 188.448C152.698 188.776 153.292 188.811 153.759 188.574L155.081 189.627L154.985 191.89L160.025 195.904L162.502 195.538L163.824 196.592C163.622 197.039 163.733 197.567 164.144 197.894C164.673 198.316 165.488 198.258 165.971 197.765C166.453 197.273 166.415 196.536 165.886 196.115C165.46 195.775 164.866 195.741 164.399 195.978L164.399 195.978ZM152.849 187.313C153.009 187.148 153.262 187.13 153.439 187.271C153.615 187.411 153.627 187.64 153.466 187.804C153.305 187.968 153.052 187.986 152.876 187.846C152.7 187.705 152.688 187.477 152.849 187.313ZM165.309 197.239C165.149 197.403 164.896 197.421 164.719 197.28C164.543 197.14 164.531 196.911 164.692 196.747C164.853 196.583 165.106 196.565 165.282 196.705C165.458 196.846 165.457 197.088 165.309 197.239Z" fill="#AF2A44"/>
<path d="M161.776 192.084C161.628 192.235 161.525 192.421 161.478 192.602L160.402 192.793L158.345 191.154L158.421 190.168C158.615 190.103 158.807 189.987 158.954 189.837C159.437 189.344 159.399 188.607 158.87 188.186C158.341 187.765 157.526 187.822 157.044 188.315C156.562 188.808 156.599 189.544 157.128 189.966C157.26 190.071 157.405 190.137 157.548 190.178L157.447 191.511L160.121 193.641L161.574 193.386C161.637 193.509 161.742 193.641 161.86 193.735C162.389 194.156 163.203 194.099 163.686 193.606C164.168 193.113 164.131 192.377 163.602 191.955C163.073 191.534 162.245 191.605 161.776 192.084L161.776 192.084ZM157.691 188.83C157.851 188.666 158.104 188.648 158.28 188.788C158.457 188.929 158.468 189.157 158.308 189.322C158.147 189.486 157.894 189.504 157.718 189.363C157.541 189.223 157.53 188.994 157.691 188.83ZM163.039 193.091C162.878 193.255 162.626 193.273 162.449 193.133C162.273 192.992 162.261 192.764 162.422 192.599C162.583 192.435 162.836 192.417 163.012 192.558C163.188 192.698 163.187 192.94 163.039 193.091Z" fill="#AF2A44"/>
<path d="M155.884 199.841C155.751 199.736 155.607 199.669 155.464 199.628L155.565 198.296L152.891 196.166L151.438 196.421C151.375 196.298 151.27 196.166 151.152 196.072C150.623 195.65 149.808 195.708 149.326 196.201C148.844 196.694 148.881 197.43 149.41 197.852C149.939 198.273 150.754 198.215 151.236 197.723C151.384 197.572 151.487 197.386 151.534 197.205L152.61 197.014L154.667 198.653L154.59 199.639C154.396 199.704 154.205 199.819 154.058 199.97C153.575 200.463 153.613 201.199 154.142 201.621C154.671 202.042 155.485 201.985 155.968 201.492C156.45 200.999 156.413 200.262 155.884 199.841L155.884 199.841ZM150 197.249C149.823 197.109 149.812 196.88 149.973 196.716C150.133 196.552 150.386 196.534 150.563 196.674C150.739 196.815 150.75 197.043 150.59 197.208C150.442 197.358 150.161 197.378 150 197.249ZM155.321 200.977C155.16 201.141 154.908 201.159 154.731 201.018C154.555 200.878 154.543 200.649 154.704 200.485C154.865 200.321 155.118 200.303 155.294 200.443C155.47 200.584 155.482 200.812 155.321 200.977Z" fill="#AF2A44"/>
<path d="M153.82 191.182C153.291 190.761 152.476 190.818 151.994 191.311C151.512 191.804 151.549 192.541 152.078 192.962C152.49 193.29 153.083 193.324 153.551 193.087L158.855 197.313C158.653 197.761 158.764 198.288 159.175 198.616C159.704 199.037 160.519 198.979 161.001 198.487C161.484 197.994 161.446 197.257 160.917 196.836C160.506 196.508 159.912 196.474 159.445 196.711L154.14 192.485C154.343 192.037 154.231 191.51 153.82 191.182ZM152.655 191.838C152.816 191.674 153.069 191.656 153.245 191.796C153.421 191.937 153.433 192.165 153.272 192.33C153.112 192.494 152.859 192.512 152.682 192.371C152.506 192.231 152.508 191.989 152.655 191.838ZM160.355 197.972C160.194 198.136 159.941 198.154 159.765 198.013C159.589 197.873 159.577 197.644 159.738 197.48C159.899 197.316 160.151 197.298 160.328 197.438C160.504 197.579 160.516 197.807 160.355 197.972Z" fill="#AF2A44"/>
<path d="M15.4832 129.345C15.4832 129.988 15.6028 130.625 15.8359 131.225L20.1713 142.37C21.0394 144.602 23.3225 145.949 25.6955 145.629L30.8373 144.937C33.0362 144.641 34.6191 142.732 34.8618 140.527C35.5743 134.02 38.4556 129.341 42.9716 127.354C46.8128 125.665 51.2984 126.182 55.822 128.74C55.8398 128.75 55.8579 128.759 55.8759 128.771C56.6897 129.234 57.5046 129.74 58.3162 130.335C63.2384 133.947 67.579 139.643 70.5379 146.373C73.4717 153.046 74.7249 160.017 74.0679 165.998C73.904 167.486 73.6251 168.881 73.234 170.176C72.8419 171.474 72.7853 172.871 73.2731 174.136L77.217 184.361C78.0574 186.54 80.2505 187.889 82.574 187.655L88.123 187.096C90.5576 186.851 92.4897 184.938 92.7578 182.505L95.0403 161.803C95.1595 160.708 95.9416 159.8 97.0078 159.522C98.073 159.243 99.1996 159.648 99.8406 160.543C101.806 163.278 103.937 165.497 106.178 167.138C108.47 168.818 103.782 169.681 105.789 169.91C106.918 169.912 106.645 171.106 105.567 171.441C103.573 172.061 102.911 172.575 102.931 172.578C103.912 172.67 114.791 170.014 115.649 169.738L116.783 169.239C119.172 167.879 120.737 164.877 121.203 160.654C121.76 155.585 120.653 149.584 118.09 143.755C115.5 137.866 111.772 132.932 107.59 129.863C105.469 128.309 103.391 127.366 101.409 127.062C101.398 127.061 101.389 127.055 101.377 127.053C101.174 127.02 100.979 126.963 100.793 126.883C100.739 126.862 100.691 126.832 100.638 126.808C100.504 126.745 100.379 126.668 100.258 126.584C100.202 126.544 100.153 126.506 100.103 126.465C99.9905 126.37 99.888 126.265 99.7895 126.152C99.7556 126.11 99.7174 126.071 99.6847 126.029C99.5651 125.867 99.4556 125.698 99.372 125.506L99.3689 125.499C99.2874 125.304 99.234 125.105 99.1964 124.909C99.1865 124.851 99.185 124.794 99.1756 124.738C99.1579 124.573 99.1523 124.411 99.162 124.249C99.1653 124.213 99.1578 124.182 99.159 124.146L101.899 99.1898C102.102 97.3486 101.306 95.5393 99.8129 94.4435L27.4487 41.3412C26.1663 40.4001 24.5229 40.0998 22.9905 40.5264L19.2779 41.5599C17.035 42.1842 15.4832 44.227 15.4832 46.5551L15.4832 129.345Z" fill="#0C87CA"/>
<path d="M5.9356 131.451C5.8345 132.372 6.23224 133.277 6.97901 133.824L21.8466 144.733C23.13 145.675 24.9767 144.73 25.1509 143.148C25.8633 136.641 28.7447 131.962 33.2606 129.975C37.1019 128.286 41.5875 128.803 46.111 131.361C46.1288 131.371 46.1469 131.38 46.1649 131.392C46.9787 131.855 47.7937 132.361 48.6052 132.957C53.5274 136.568 57.8681 142.264 60.8269 148.994C63.7608 155.668 65.014 162.638 64.357 168.619C64.191 170.126 63.9071 171.538 63.508 172.847C63.1558 174.002 63.491 175.29 64.4646 176.004L78.9684 186.643C80.5772 187.823 82.8602 186.82 83.0788 184.837L85.3294 164.424C85.4485 163.329 86.2307 162.421 87.2968 162.143C88.3621 161.864 89.4886 162.269 90.1297 163.164C92.0949 165.899 94.2265 168.118 96.4669 169.759C98.7587 171.439 100.979 172.404 102.986 172.632C103.016 172.632 103.045 172.63 103.078 172.632C103.117 172.635 103.143 172.65 103.178 172.656C104.159 172.748 105.08 172.635 105.938 172.359L107.072 171.86C109.461 170.501 111.026 167.498 111.492 163.275C112.049 158.206 110.942 152.205 108.379 146.376C105.79 140.487 102.061 135.553 97.8792 132.485C95.7583 130.93 93.68 129.987 91.6977 129.683C91.6873 129.682 91.6777 129.676 91.666 129.674C91.4633 129.641 91.2683 129.584 91.0819 129.504C91.0281 129.484 90.98 129.453 90.9272 129.429C90.7934 129.367 90.6681 129.289 90.5475 129.205C90.4911 129.165 90.4419 129.128 90.3924 129.086C90.2795 128.992 90.1771 128.886 90.0785 128.773C90.0446 128.731 90.0065 128.693 89.9738 128.65C89.8541 128.488 89.7447 128.319 89.6611 128.127L89.6579 128.12C89.5765 127.925 89.5231 127.727 89.4855 127.53C89.4756 127.472 89.474 127.415 89.4646 127.359C89.4469 127.194 89.4413 127.032 89.4511 126.871C89.4543 126.834 89.4469 126.803 89.4481 126.767L92.3519 100.323C92.453 99.4026 92.0553 98.498 91.3086 97.95L19.3273 45.1288C17.7182 43.948 15.4342 44.952 15.2164 46.936L5.9356 131.451Z" fill="#20B0FE"/>
<path d="M57.0315 102.149C60.8577 104.305 65.0626 102.355 66.4233 97.7943C67.7841 93.2336 65.7854 87.789 61.9592 85.6335C58.133 83.4779 53.9281 85.4276 52.5674 89.9883C51.2066 94.549 53.2053 99.9936 57.0315 102.149Z" fill="#FFB8B8"/>
<path d="M54.1373 81.5925C54.4726 80.6737 55.2883 79.9998 57.1111 80.4344C57.1111 80.4344 61.2845 77.678 64.4986 82.1672C64.4986 82.1672 66.5041 82.8444 67.2082 85.9711C67.2082 85.9711 68.889 85.7771 68.9587 87.8386C68.9587 87.8386 69.5345 92.288 67.8599 95.552C66.1852 98.8161 65.744 99.0926 65.744 99.0926C65.744 99.0926 68.7318 92.0727 64.1732 90.108C59.6147 88.1434 56.6196 84.2995 54.4161 87.7798C52.5864 90.6697 52.1706 92.4717 52.1706 92.4717C52.1706 92.4717 50.4001 87.563 52.1284 85.4569C53.0124 84.3797 53.6201 83.0095 54.1373 81.5925Z" fill="#444444"/>
<path d="M30.3909 117.679L68.7114 139.268C69.4949 135.639 70.1009 132.953 70.3625 132.076C71.516 128.21 70.1208 122.495 70.1208 122.495L69.3575 121.334L62.3041 113.914L61.1995 109.579C61.0841 109.124 60.8876 108.698 60.6254 108.335C60.3632 107.971 60.0425 107.68 59.6884 107.484L53.1854 103.889C52.6131 103.572 51.9873 103.522 51.4306 103.749L46.0893 105.927L39.1984 105.961L39.192 105.944L39.1142 105.964L38.0161 106.222L37.3093 106.389C37.3093 106.389 35.2047 107.668 32.1379 113.331C31.6766 114.182 31.0768 115.705 30.3909 117.679Z" fill="#CDEEF7"/>
<path d="M192.683 65.1206C192.739 65.1495 192.779 65.1865 192.792 65.2255C192.806 65.2643 192.793 65.3134 192.721 65.3505L192.37 65.5297C192.771 65.8061 192.914 66.1457 192.659 66.392L193.209 66.6775C193.265 66.7063 193.304 66.743 193.318 66.782C193.331 66.8207 193.319 66.8703 193.247 66.9074C193.174 66.9444 193.078 66.9499 193.003 66.9429C192.927 66.9358 192.856 66.9153 192.801 66.8864L192.282 66.6175L191.741 66.894L192.26 67.1629C192.315 67.1918 192.354 67.2288 192.367 67.2678C192.38 67.3066 192.369 67.3562 192.296 67.3932C192.224 67.4302 192.128 67.4358 192.052 67.4287C191.977 67.4216 191.906 67.4011 191.85 67.3723L191.332 67.1034L190.791 67.3799L191.309 67.6488C191.365 67.6776 191.404 67.7143 191.418 67.7532C191.431 67.792 191.419 67.8416 191.347 67.8787C191.274 67.9157 191.178 67.9212 191.103 67.9142C191.027 67.9071 190.956 67.8865 190.901 67.8577L190.382 67.5888L189.841 67.8653L190.36 68.1342C190.416 68.1631 190.456 68.2 190.469 68.2391C190.482 68.2779 190.469 68.3275 190.397 68.3645C190.324 68.4014 190.228 68.4075 190.153 68.4005C190.077 68.3934 190.006 68.3725 189.95 68.3436L189.401 68.0585C188.921 68.1882 188.262 68.1112 187.728 67.903L187.378 68.0821C187.305 68.1191 187.21 68.125 187.134 68.1181C187.059 68.111 186.986 68.0905 186.931 68.0616C186.875 68.0327 186.836 67.9957 186.823 67.9567C186.81 67.9179 186.822 67.8687 186.895 67.8317L187.224 67.6632L186.357 67.2132L186.027 67.3817C185.955 67.4187 185.859 67.4246 185.784 67.4176C185.708 67.4106 185.636 67.3904 185.581 67.3616C185.525 67.3327 185.486 67.2953 185.473 67.2562C185.46 67.2174 185.472 67.1683 185.544 67.1312L185.874 66.9628L185.007 66.5132L184.677 66.6817C184.605 66.7187 184.508 66.7242 184.433 66.7172C184.357 66.7101 184.286 66.69 184.23 66.6611C184.174 66.6322 184.135 66.5948 184.122 66.5557C184.109 66.517 184.121 66.4677 184.193 66.4308L184.523 66.2623L183.656 65.8127L183.327 65.9812C183.254 66.0183 183.157 66.0242 183.082 66.0171C183.006 66.01 182.935 65.9894 182.879 65.9607C182.824 65.9318 182.784 65.8948 182.77 65.8557C182.757 65.8169 182.77 65.7674 182.843 65.7303L183.193 65.5512C182.793 65.2748 182.649 64.9355 182.904 64.6893L182.354 64.4038C182.298 64.375 182.259 64.3383 182.245 64.2993C182.235 64.2702 182.24 64.235 182.273 64.2037L182.316 64.1739L182.375 64.1517C182.436 64.1348 182.505 64.1327 182.561 64.138C182.636 64.1451 182.708 64.1656 182.763 64.1944L183.281 64.4633L183.822 64.1868L183.304 63.9179C183.248 63.8891 183.209 63.8525 183.196 63.8135C183.186 63.7844 183.19 63.7496 183.223 63.7183L183.266 63.688L183.325 63.6663C183.386 63.6493 183.454 63.6473 183.51 63.6525C183.586 63.6597 183.657 63.6802 183.713 63.709L184.231 63.9779L184.772 63.7014L184.253 63.4325C184.198 63.4037 184.159 63.367 184.145 63.328C184.135 63.2989 184.14 63.2638 184.173 63.2324L184.216 63.2026L184.275 63.1804C184.336 63.1636 184.404 63.1619 184.46 63.1671C184.536 63.1742 184.606 63.1947 184.662 63.2236L185.181 63.4924L185.722 63.2155L185.204 62.9466C185.148 62.9178 185.109 62.8812 185.096 62.8422C185.086 62.8131 185.09 62.7783 185.123 62.747L185.166 62.7167L185.225 62.695C185.286 62.678 185.354 62.676 185.41 62.6812C185.486 62.6884 185.557 62.7089 185.613 62.7377L186.162 63.0228C186.642 62.893 187.302 62.9696 187.836 63.1779L188.186 62.9987C188.258 62.9618 188.354 62.9557 188.429 62.9628C188.505 62.9698 188.577 62.9908 188.632 63.0197C188.688 63.0485 188.727 63.0852 188.74 63.1242C188.754 63.1629 188.742 63.2125 188.67 63.2496L188.339 63.4185L189.206 63.8681L189.537 63.6992C189.609 63.6623 189.705 63.6562 189.78 63.6632C189.856 63.6703 189.927 63.6913 189.983 63.7201C190.038 63.749 190.078 63.7857 190.091 63.8246C190.104 63.8633 190.092 63.9125 190.02 63.9496L189.689 64.1185L190.557 64.5685L190.887 64.3996C190.96 64.3627 191.055 64.3567 191.131 64.3637C191.206 64.3708 191.277 64.3914 191.333 64.4202C191.388 64.449 191.429 64.486 191.442 64.5251C191.455 64.5638 191.442 64.613 191.37 64.6501L191.04 64.819L191.908 65.269L192.238 65.1001C192.31 65.0632 192.406 65.0571 192.481 65.0641C192.557 65.0712 192.628 65.0918 192.683 65.1206ZM187.689 63.502C187.52 63.4147 187.331 63.3537 187.147 63.3193L186.966 63.2938C186.729 63.2717 186.534 63.298 186.409 63.3615L183.559 64.8186C183.435 64.8823 183.383 64.9824 183.424 65.1048L183.472 65.1979C183.538 65.2929 183.654 65.391 183.823 65.4784L187.874 67.5793C188.098 67.6956 188.36 67.7653 188.597 67.7875L188.767 67.7951C188.927 67.794 189.06 67.7675 189.153 67.7198L192.004 66.2627C192.097 66.2149 192.149 66.1465 192.152 66.0637L192.139 65.9765C192.098 65.8543 191.964 65.7193 191.74 65.6029L187.689 63.502Z" fill="#D89A36" stroke="#D89A36" stroke-width="0.259259"/>
<path d="M189.924 65.401C190.119 65.5025 190.246 65.6255 190.287 65.745C190.327 65.8642 190.282 65.9884 190.111 66.0758L188.805 66.7434C188.634 66.8307 188.393 66.853 188.161 66.8314C187.93 66.8098 187.692 66.7436 187.496 66.6422L185.639 65.6791C185.444 65.5778 185.318 65.4551 185.277 65.3356C185.237 65.2164 185.281 65.0918 185.452 65.0044L186.758 64.3367C186.929 64.2495 187.171 64.2276 187.402 64.2492C187.634 64.2709 187.871 64.3367 188.067 64.438L189.924 65.401ZM187.657 64.6474C187.573 64.6037 187.478 64.5792 187.397 64.5715C187.316 64.5642 187.268 64.5743 187.242 64.5876L185.936 65.2553L185.904 65.2847C185.898 65.298 185.896 65.315 185.903 65.3361C185.917 65.3777 185.964 65.4265 186.048 65.4702L187.905 66.4332C187.989 66.4769 188.084 66.5014 188.165 66.5091L188.22 66.5115C188.236 66.5114 188.251 66.5101 188.264 66.5085L188.322 66.493L189.628 65.8253C189.654 65.8121 189.674 65.7868 189.66 65.745C189.646 65.7032 189.599 65.6543 189.514 65.6104L187.657 64.6474Z" fill="#D89A36" stroke="#D89A36" stroke-width="0.259259"/>
<path d="M23.4221 196.788C23.528 196.716 23.6535 196.759 23.7408 196.813L26.2453 198.372C26.3409 198.431 26.4281 198.525 26.495 198.624C26.562 198.723 26.6166 198.838 26.6364 198.949C26.6545 199.05 26.6471 199.182 26.5411 199.254C26.4352 199.326 26.3098 199.284 26.2224 199.229L24.9 198.406L32.0195 208.915L32.0466 204.164L30.5684 201.981L30.3719 202.115C30.2635 202.188 30.1345 202.14 30.0532 202.09C29.9617 202.033 29.8726 201.94 29.8035 201.838L28.408 199.778C28.339 199.676 28.2862 199.559 28.2672 199.453C28.2503 199.359 28.2534 199.221 28.3619 199.147L29.2779 198.527C29.3864 198.453 29.5159 198.502 29.5972 198.552C29.6885 198.609 29.7773 198.702 29.8463 198.803L31.2419 200.864C31.3117 200.967 31.364 201.082 31.3832 201.189C31.4002 201.284 31.397 201.42 31.288 201.494L31.0915 201.627L32.7242 204.037L32.7524 204.084L32.753 204.085L32.7681 204.109L32.7738 204.119L32.6572 204.177L32.773 204.12L32.7898 204.153L32.8074 204.19L32.8121 204.198L32.8137 204.204L32.8386 204.269L32.8413 204.276L32.8427 204.284L32.8486 204.308L32.8592 204.348L32.8604 204.357L32.862 204.366L32.8635 204.384L32.8633 204.385L32.8679 204.427L32.8677 204.428L32.8679 204.431L32.8686 204.442L32.8672 204.442L32.8356 210.12L35.0066 213.325C35.3637 213.267 35.7929 213.428 36.213 213.718C36.6786 214.04 37.1636 214.537 37.5811 215.153C38.0388 215.829 38.3345 216.529 38.4396 217.117C38.4922 217.411 38.4985 217.683 38.4482 217.913C38.3977 218.144 38.2885 218.341 38.1059 218.464C37.9233 218.588 37.7007 218.616 37.4675 218.577C37.2351 218.539 36.9839 218.432 36.7304 218.274C36.2233 217.959 35.6839 217.424 35.2259 216.748C34.8085 216.132 34.5256 215.497 34.3997 214.945C34.2862 214.448 34.2964 213.989 34.483 213.679L33.5015 212.23L28.2459 210.197L28.2367 210.193L28.2361 210.193L28.2323 210.191L28.1983 210.173L28.1964 210.172L28.1766 210.162L28.169 210.158L28.1622 210.153L28.1336 210.134L28.133 210.133L28.1072 210.114L28.1009 210.11L28.0963 210.105L28.0693 210.08L28.0687 210.08L28.0423 210.056L28.0327 210.047L28.0322 210.047L28.0084 210.02L28.0079 210.019L27.9806 209.99L27.9737 209.981L27.9559 209.957L27.9554 209.956L27.9245 209.915L26.1938 207.361C25.9837 207.349 25.7519 207.24 25.5313 207.076C25.2783 206.888 25.0203 206.615 24.7966 206.285C24.5316 205.894 24.3584 205.487 24.2965 205.141C24.2657 204.969 24.2619 204.805 24.2927 204.664C24.3237 204.522 24.3918 204.395 24.5111 204.314L24.6056 204.266C24.7027 204.228 24.8096 204.223 24.9169 204.241C25.0592 204.265 25.21 204.329 25.3589 204.422C25.6569 204.607 25.9706 204.919 26.2357 205.31L26.3904 205.56C26.5327 205.809 26.6366 206.057 26.6972 206.286C26.7676 206.552 26.783 206.807 26.7161 207.007L28.2891 209.329L32.6893 211.031L24.3769 198.76L24.6515 200.294C24.6696 200.395 24.662 200.527 24.5562 200.599C24.4503 200.671 24.3249 200.628 24.2375 200.574C24.142 200.515 24.0539 200.421 23.987 200.323C23.9201 200.224 23.8663 200.108 23.8465 199.997L23.3269 197.093C23.3089 196.992 23.3164 196.86 23.4221 196.788ZM35.3162 214.345C35.2455 214.393 35.1916 214.475 35.1642 214.601C35.1435 214.696 35.139 214.811 35.1524 214.944L35.1716 215.082C35.2403 215.465 35.4354 215.932 35.7488 216.395C36.0623 216.858 36.4237 217.212 36.7539 217.418C36.9192 217.52 37.0701 217.582 37.1978 217.603C37.3243 217.624 37.4201 217.604 37.4908 217.557C37.5616 217.508 37.6159 217.427 37.6433 217.301C37.6709 217.175 37.6701 217.012 37.636 216.82C37.5758 216.485 37.419 216.085 37.1709 215.681L37.0586 215.508L36.9392 215.339C36.696 215.012 36.4313 214.75 36.1789 214.568L36.0537 214.484C35.8884 214.382 35.7375 214.32 35.6097 214.299C35.4831 214.278 35.3869 214.297 35.3162 214.345ZM25.1257 205.221C25.1183 205.227 25.1059 205.241 25.0982 205.277C25.0901 205.314 25.0899 205.368 25.1023 205.438C25.1272 205.577 25.1999 205.754 25.3197 205.931C25.44 206.108 25.5776 206.242 25.6977 206.317C25.7577 206.354 25.8079 206.374 25.8458 206.38C25.882 206.386 25.8986 206.378 25.9061 206.374C25.9134 206.368 25.9269 206.356 25.9347 206.32C25.9429 206.282 25.9438 206.228 25.9313 206.158C25.9064 206.019 25.8326 205.842 25.7126 205.665C25.5925 205.488 25.4559 205.354 25.336 205.279C25.2761 205.242 25.225 205.223 25.1871 205.216C25.1507 205.21 25.1331 205.217 25.1257 205.221ZM30.0186 201.03L30.4123 200.764L29.6313 199.611L29.2375 199.878L30.0186 201.03Z" fill="#D89A36" stroke="#D89A36" stroke-width="0.259259"/>
<path fill-rule="evenodd" clip-rule="evenodd" d="M116.485 63.7346L117.062 70.8277C117.101 71.3008 117.294 71.7169 117.495 71.7565C117.695 71.7962 117.826 71.4439 117.788 70.9718L117.21 63.8787C117.172 63.4056 116.978 62.9895 116.778 62.9499C116.578 62.9103 116.447 63.2625 116.485 63.7346Z" fill="#AF2A44"/>
<path fill-rule="evenodd" clip-rule="evenodd" d="M117.87 65.0781L118.83 66.2867L118.561 68.2705C118.506 68.6761 118.62 69.2052 118.817 69.4524C119.013 69.6995 119.217 69.571 119.272 69.1654L119.641 66.4466C119.696 66.0411 119.582 65.513 119.386 65.2659L118.07 63.6092C117.873 63.3621 117.669 63.4906 117.614 63.8962C117.559 64.3018 117.673 64.8309 117.87 65.0781Z" fill="#AF2A44"/>
<path fill-rule="evenodd" clip-rule="evenodd" d="M115.006 65.539L114.636 68.2578C114.581 68.6634 114.696 69.1914 114.892 69.4385L116.208 71.0952C116.404 71.3423 116.608 71.2138 116.664 70.8082C116.719 70.4026 116.604 69.8735 116.408 69.6263L115.447 68.4177L115.717 66.4339C115.772 66.0283 115.657 65.4992 115.461 65.252C115.265 65.0049 115.061 65.1334 115.006 65.539Z" fill="#AF2A44"/>
<path fill-rule="evenodd" clip-rule="evenodd" d="M120.177 60.5461C120.014 59.7909 119.697 59.2097 119.364 59.0536C118.495 58.6471 116.057 57.5075 115.294 57.1515C115.038 57.0319 114.803 57.1796 114.654 57.5546L112.285 63.5145C112.091 64.0025 112.072 64.7956 112.236 65.5508L113.016 69.1543L113.125 69.6107C115.813 79.7067 119.961 81.0157 119.961 81.0157C120.054 81.0446 120.138 80.9916 120.197 80.8669C120.197 80.8669 122.851 75.2718 121.046 64.6189C121.02 64.4609 120.99 64.3053 120.956 64.1504C120.839 63.6038 120.41 61.6222 120.177 60.5461L120.177 60.5461ZM119.534 60.9519C119.766 62.0257 120.194 64.0018 120.311 64.5518L120.366 64.8385C121.797 73.2816 120.128 78.2042 119.713 79.2503C119 78.9152 115.856 77.0254 113.726 69.0246L113.659 68.7485L112.88 65.145C112.856 65.0369 112.859 64.9238 112.887 64.8531L115.256 58.8932C115.277 58.8394 115.31 58.8183 115.347 58.8358L119.417 60.7379C119.465 60.7609 119.51 60.8438 119.534 60.9518L119.534 60.9519Z" fill="#AF2A44"/>
</g>
<defs>
<clipPath id="clip0_2138_25771">
<rect width="284" height="284" fill="white"/>
</clipPath>
</defs>
</svg>
