<svg width="1041" height="100" viewBox="0 0 1041 100" fill="none" xmlns="http://www.w3.org/2000/svg">
<path d="M0 0H1030.27C1035.79 0 1040.27 4.47715 1040.27 10V90C1040.27 95.5228 1035.79 100 1030.27 100H0V0Z" fill="#6B3F9B"/>
<path d="M367.817 3.37889C367.447 3.83702 367.354 90.6182 367.817 91.7186C368.28 92.8189 369.945 92.5438 370.406 91.7186C370.869 90.8933 370.869 3.92906 370.406 3.37889C369.943 2.82873 368.187 2.92077 367.817 3.37889Z" fill="#5F249F"/>
<path d="M389.606 45.2988C391.512 38.614 392.218 32.175 392.218 32.175C394.031 30.5999 397.239 22.4636 395.984 20.1009C394.729 17.7382 378.828 13.9328 376.874 13.1452C374.921 12.3577 376.037 9.0764 375.339 8.28885C374.688 7.55346 363.581 7.55346 362.929 8.28885C362.231 9.0764 363.347 12.3577 361.394 13.1452C359.441 13.9328 343.54 17.7382 342.284 20.1009C341.029 22.4636 344.236 30.5999 346.05 32.175C346.05 32.175 346.823 39.0645 349.257 45.2988C352.257 52.9759 351.017 58.4226 350.04 61.7039C349.064 64.9851 348.935 66.375 348.309 69.375C347.605 72.75 347.159 75.7983 347.199 77.2119C347.386 83.8075 383.31 83.5485 390.337 79.6084C392.246 78.538 392.183 75.0518 391.597 73.3124C388.144 63.0762 386.803 55.1288 389.606 45.2988Z" fill="#BA91E8"/>
<path d="M349.426 69.3809C349.426 69.3809 350.034 69.6576 351.163 70.0602" stroke="white" stroke-width="0.406196" stroke-miterlimit="10" stroke-linecap="round"/>
<path d="M392.235 33.7251C392.235 33.7251 391.914 39.2299 390.685 45.375C390.31 47.25 389.935 48.75 389.56 50.25C386.071 51.818 377.376 53.0238 374.533 53.2039C373.851 53.2475 373.277 52.7331 373.286 52.0891C373.373 45.816 373.298 33.246 373.273 29.4743C373.27 28.8504 373.7 28.303 374.331 28.1135C380.391 26.2901 381.492 16.0826 381.685 12.75C384.493 13.5458 387.481 14.6034 390.511 15.7146C389.323 19.4498 389.958 29.831 392.235 33.7251Z" fill="#FAF6FF"/>
<path d="M366.846 78.3897C356.847 78.3123 351.119 76.5804 346.869 74.7746C346.302 74.5337 346 73.3334 346.058 72.75C347.072 62.4987 348.911 59.5295 350.243 53.6401C350.414 52.8812 351.219 52.4116 352.02 52.5956C355.541 53.4041 360.656 53.9124 366.883 54.175C367.66 54.2077 368.273 54.8105 368.274 55.5415L368.316 77.0148C368.318 77.7773 367.656 78.3946 366.846 78.3885V78.3897Z" fill="#56179B"/>
<rect x="358.406" y="89.8447" width="21.4471" height="6.90533" rx="2.43718" fill="#5F249F"/>
<path d="M418.136 56V44.096H422.824C426.264 44.096 428.232 46.496 428.232 50.112C428.232 53.664 426.296 56 422.696 56H418.136ZM420.36 54.112H422.552C424.904 54.112 425.96 52.608 425.96 50.112C425.96 47.632 424.952 45.984 422.616 45.984H420.36V54.112ZM435.725 56C435.581 55.808 435.469 55.472 435.437 54.896H435.405C434.845 55.648 434.077 56.208 432.717 56.208C431.053 56.208 429.805 55.344 429.805 53.68C429.805 51.744 431.277 51.28 433.309 51.04C434.717 50.864 435.421 50.64 435.421 49.872C435.421 49.136 434.909 48.64 433.885 48.64C432.749 48.64 432.189 49.168 432.141 50.016H430.221C430.285 48.56 431.437 47.232 433.869 47.232C434.845 47.232 435.597 47.376 436.157 47.728C436.957 48.208 437.373 49.024 437.373 50.16V54.656C437.373 55.36 437.501 55.728 437.693 55.856V56H435.725ZM433.309 54.816C434.701 54.816 435.469 53.856 435.469 52.896V51.632C435.069 51.888 434.429 52.064 433.805 52.192C432.557 52.432 431.837 52.688 431.837 53.632C431.837 54.544 432.525 54.816 433.309 54.816ZM439.063 48.848V47.456H440.375V44.736H442.375V47.456H444.087V48.848H442.375V53.632C442.375 54.256 442.711 54.432 443.287 54.432C443.495 54.432 443.783 54.4 443.943 54.368H444.039V55.952C443.703 56.016 443.239 56.08 442.695 56.08C441.319 56.08 440.375 55.584 440.375 54.08V48.848H439.063ZM451.607 56C451.463 55.808 451.351 55.472 451.319 54.896H451.287C450.727 55.648 449.959 56.208 448.599 56.208C446.935 56.208 445.687 55.344 445.687 53.68C445.687 51.744 447.159 51.28 449.191 51.04C450.599 50.864 451.303 50.64 451.303 49.872C451.303 49.136 450.791 48.64 449.767 48.64C448.631 48.64 448.071 49.168 448.023 50.016H446.103C446.167 48.56 447.319 47.232 449.751 47.232C450.727 47.232 451.479 47.376 452.039 47.728C452.839 48.208 453.255 49.024 453.255 50.16V54.656C453.255 55.36 453.383 55.728 453.575 55.856V56H451.607ZM449.191 54.816C450.583 54.816 451.351 53.856 451.351 52.896V51.632C450.951 51.888 450.311 52.064 449.687 52.192C448.439 52.432 447.719 52.688 447.719 53.632C447.719 54.544 448.407 54.816 449.191 54.816ZM455.39 52.512V50.72H459.87V52.512H455.39ZM465.264 56.272C463.008 56.272 461.552 54.528 461.552 51.744C461.552 49.024 463.088 47.232 465.264 47.232C466.448 47.232 467.328 47.792 467.888 48.688H467.92C467.888 48.224 467.856 47.552 467.856 46.912V44.096H469.888V56H467.92V54.752H467.888C467.36 55.744 466.432 56.272 465.264 56.272ZM465.68 54.608C467.184 54.608 467.936 53.424 467.936 51.744C467.936 50.032 467.184 48.816 465.68 48.816C464.304 48.816 463.616 50.048 463.616 51.728C463.616 53.44 464.304 54.608 465.68 54.608ZM474.198 47.456V48.992H474.246C474.79 47.888 475.606 47.328 476.694 47.328C476.934 47.328 477.094 47.344 477.238 47.408V49.232H477.174C476.982 49.184 476.822 49.168 476.614 49.168C475.27 49.152 474.262 50.064 474.262 51.712V56H472.23V47.456H474.198ZM479.022 46.064V44.096H481.102V46.064H479.022ZM479.054 56V47.456H481.086V56H479.054ZM485.521 56L482.561 47.456H484.689L485.937 51.44C486.305 52.592 486.657 54.304 486.657 54.304H486.705C486.705 54.304 487.041 52.592 487.409 51.44L488.705 47.456H490.769L487.745 56H485.521ZM495.949 56.256C493.229 56.256 491.597 54.272 491.597 51.744C491.597 49.2 493.309 47.232 495.837 47.232C497.085 47.232 498.061 47.664 498.781 48.432C499.613 49.312 500.013 50.656 499.997 52.24H493.613C493.757 53.712 494.541 54.704 495.965 54.704C496.941 54.704 497.581 54.288 497.853 53.584H499.837C499.421 55.12 498.045 56.256 495.949 56.256ZM495.837 48.704C494.509 48.704 493.821 49.616 493.645 50.96H497.901C497.821 49.552 497.069 48.704 495.837 48.704ZM503.884 47.456V48.704H503.932C504.492 47.76 505.388 47.232 506.588 47.232C508.428 47.232 509.532 48.368 509.532 50.208V56H507.5V50.544C507.5 49.536 506.908 48.912 505.868 48.912C504.732 48.912 503.932 49.776 503.932 50.992V56H501.9V47.456H503.884ZM511.674 58.704V57.712C512.282 57.536 512.698 57.072 512.698 56.096V56H511.658V53.776H513.882V55.984C513.882 57.728 512.986 58.56 511.674 58.704ZM524.014 56.272C521.582 56.272 520.174 55.104 520.046 53.376H521.998C522.158 54.4 522.942 54.832 524.03 54.832C525.15 54.832 525.678 54.352 525.678 53.664C525.678 52.816 524.814 52.656 523.47 52.4C521.87 52.08 520.35 51.712 520.35 49.776C520.35 48.16 521.726 47.232 523.726 47.232C525.998 47.232 527.134 48.256 527.342 49.744H525.406C525.262 49.008 524.718 48.608 523.71 48.608C522.766 48.608 522.27 49.04 522.27 49.632C522.27 50.384 523.15 50.528 524.446 50.768C526.062 51.072 527.662 51.456 527.662 53.536C527.662 55.328 526.126 56.272 524.014 56.272ZM528.824 48.848V47.456H530.136V44.736H532.136V47.456H533.848V48.848H532.136V53.632C532.136 54.256 532.472 54.432 533.048 54.432C533.256 54.432 533.544 54.4 533.704 54.368H533.8V55.952C533.464 56.016 533 56.08 532.456 56.08C531.08 56.08 530.136 55.584 530.136 54.08V48.848H528.824ZM537.721 47.456V48.992H537.769C538.313 47.888 539.129 47.328 540.217 47.328C540.457 47.328 540.617 47.344 540.761 47.408V49.232H540.697C540.505 49.184 540.345 49.168 540.137 49.168C538.793 49.152 537.785 50.064 537.785 51.712V56H535.753V47.456H537.721ZM547.878 56C547.734 55.808 547.622 55.472 547.59 54.896H547.558C546.998 55.648 546.23 56.208 544.87 56.208C543.206 56.208 541.958 55.344 541.958 53.68C541.958 51.744 543.43 51.28 545.462 51.04C546.87 50.864 547.574 50.64 547.574 49.872C547.574 49.136 547.062 48.64 546.038 48.64C544.902 48.64 544.342 49.168 544.294 50.016H542.374C542.438 48.56 543.59 47.232 546.022 47.232C546.998 47.232 547.75 47.376 548.31 47.728C549.11 48.208 549.526 49.024 549.526 50.16V54.656C549.526 55.36 549.654 55.728 549.846 55.856V56H547.878ZM545.462 54.816C546.854 54.816 547.622 53.856 547.622 52.896V51.632C547.222 51.888 546.582 52.064 545.958 52.192C544.71 52.432 543.99 52.688 543.99 53.632C543.99 54.544 544.678 54.816 545.462 54.816ZM551.217 48.848V47.456H552.529V44.736H554.529V47.456H556.241V48.848H554.529V53.632C554.529 54.256 554.865 54.432 555.441 54.432C555.649 54.432 555.937 54.4 556.097 54.368H556.193V55.952C555.857 56.016 555.393 56.08 554.849 56.08C553.473 56.08 552.529 55.584 552.529 54.08V48.848H551.217ZM562.066 56.256C559.346 56.256 557.714 54.272 557.714 51.744C557.714 49.2 559.426 47.232 561.954 47.232C563.202 47.232 564.178 47.664 564.898 48.432C565.73 49.312 566.13 50.656 566.114 52.24H559.73C559.874 53.712 560.658 54.704 562.082 54.704C563.058 54.704 563.698 54.288 563.97 53.584H565.954C565.538 55.12 564.162 56.256 562.066 56.256ZM561.954 48.704C560.626 48.704 559.938 49.616 559.762 50.96H564.018C563.938 49.552 563.186 48.704 561.954 48.704ZM571.809 58.976C569.521 58.976 568.113 58.048 567.905 56.432H569.857C570.001 57.136 570.657 57.488 571.777 57.488C573.137 57.488 573.841 56.848 573.841 55.616V55.408C573.841 54.944 573.857 54.512 573.873 54.224H573.825C573.297 55.072 572.545 55.536 571.409 55.536C569.329 55.536 567.681 53.968 567.681 51.424C567.681 48.864 569.249 47.232 571.297 47.232C572.497 47.232 573.313 47.648 573.825 48.56H573.857V47.456H575.825V55.44C575.825 56.64 575.425 57.52 574.753 58.112C574.049 58.704 573.009 58.976 571.809 58.976ZM571.777 53.968C573.329 53.968 573.921 52.848 573.921 51.36C573.921 49.84 573.217 48.816 571.761 48.816C570.433 48.816 569.697 49.824 569.697 51.392C569.697 52.96 570.449 53.968 571.777 53.968ZM578.152 46.064V44.096H580.232V46.064H578.152ZM578.184 56V47.456H580.216V56H578.184ZM586.443 56.256C583.803 56.256 582.107 54.272 582.107 51.744C582.107 49.2 583.787 47.232 586.411 47.232C588.587 47.232 589.963 48.464 590.267 50.304H588.283C588.091 49.376 587.451 48.784 586.427 48.784C584.939 48.784 584.171 50.016 584.171 51.744C584.171 53.424 584.939 54.672 586.427 54.672C587.547 54.672 588.219 54.016 588.331 52.896H590.315C590.187 54.88 588.731 56.256 586.443 56.256ZM599.935 56.272C597.679 56.272 596.223 54.528 596.223 51.744C596.223 49.024 597.759 47.232 599.935 47.232C601.119 47.232 601.999 47.792 602.559 48.688H602.591C602.559 48.224 602.527 47.552 602.527 46.912V44.096H604.559V56H602.591V54.752H602.559C602.031 55.744 601.103 56.272 599.935 56.272ZM600.351 54.608C601.855 54.608 602.607 53.424 602.607 51.744C602.607 50.032 601.855 48.816 600.351 48.816C598.975 48.816 598.287 50.048 598.287 51.728C598.287 53.44 598.975 54.608 600.351 54.608ZM610.821 56.256C608.101 56.256 606.469 54.272 606.469 51.744C606.469 49.2 608.181 47.232 610.709 47.232C611.957 47.232 612.933 47.664 613.653 48.432C614.485 49.312 614.885 50.656 614.869 52.24H608.485C608.629 53.712 609.413 54.704 610.837 54.704C611.813 54.704 612.453 54.288 612.725 53.584H614.709C614.293 55.12 612.917 56.256 610.821 56.256ZM610.709 48.704C609.381 48.704 608.693 49.616 608.517 50.96H612.773C612.693 49.552 611.941 48.704 610.709 48.704ZM620.676 56.256C618.036 56.256 616.34 54.272 616.34 51.744C616.34 49.2 618.02 47.232 620.644 47.232C622.82 47.232 624.196 48.464 624.5 50.304H622.516C622.324 49.376 621.684 48.784 620.66 48.784C619.172 48.784 618.404 50.016 618.404 51.744C618.404 53.424 619.172 54.672 620.66 54.672C621.78 54.672 622.452 54.016 622.564 52.896H624.548C624.42 54.88 622.964 56.256 620.676 56.256ZM626.329 46.064V44.096H628.409V46.064H626.329ZM626.361 56V47.456H628.393V56H626.361ZM634.14 56.272C631.708 56.272 630.3 55.104 630.172 53.376H632.124C632.284 54.4 633.068 54.832 634.156 54.832C635.276 54.832 635.804 54.352 635.804 53.664C635.804 52.816 634.94 52.656 633.596 52.4C631.996 52.08 630.476 51.712 630.476 49.776C630.476 48.16 631.852 47.232 633.852 47.232C636.124 47.232 637.26 48.256 637.468 49.744H635.532C635.388 49.008 634.844 48.608 633.836 48.608C632.892 48.608 632.396 49.04 632.396 49.632C632.396 50.384 633.276 50.528 634.572 50.768C636.188 51.072 637.788 51.456 637.788 53.536C637.788 55.328 636.252 56.272 634.14 56.272ZM639.664 46.064V44.096H641.744V46.064H639.664ZM639.696 56V47.456H641.728V56H639.696ZM647.987 56.256C645.331 56.256 643.619 54.272 643.619 51.744C643.619 49.2 645.331 47.232 647.987 47.232C650.643 47.232 652.323 49.2 652.323 51.744C652.323 54.272 650.643 56.256 647.987 56.256ZM647.971 54.72C649.459 54.72 650.259 53.456 650.259 51.744C650.259 50.016 649.459 48.736 647.971 48.736C646.467 48.736 645.683 50.016 645.683 51.744C645.683 53.456 646.467 54.72 647.971 54.72ZM656.218 47.456V48.704H656.266C656.826 47.76 657.722 47.232 658.922 47.232C660.762 47.232 661.866 48.368 661.866 50.208V56H659.834V50.544C659.834 49.536 659.242 48.912 658.202 48.912C657.066 48.912 656.266 49.776 656.266 50.992V56H654.234V47.456H656.218ZM667.56 56.272C665.128 56.272 663.72 55.104 663.592 53.376H665.544C665.704 54.4 666.488 54.832 667.576 54.832C668.696 54.832 669.224 54.352 669.224 53.664C669.224 52.816 668.36 52.656 667.016 52.4C665.416 52.08 663.896 51.712 663.896 49.776C663.896 48.16 665.272 47.232 667.272 47.232C669.544 47.232 670.68 48.256 670.888 49.744H668.952C668.808 49.008 668.264 48.608 667.256 48.608C666.312 48.608 665.816 49.04 665.816 49.632C665.816 50.384 666.696 50.528 667.992 50.768C669.608 51.072 671.208 51.456 671.208 53.536C671.208 55.328 669.672 56.272 667.56 56.272ZM683.659 56C683.515 55.808 683.403 55.472 683.371 54.896H683.339C682.779 55.648 682.011 56.208 680.651 56.208C678.987 56.208 677.739 55.344 677.739 53.68C677.739 51.744 679.211 51.28 681.243 51.04C682.651 50.864 683.355 50.64 683.355 49.872C683.355 49.136 682.843 48.64 681.819 48.64C680.683 48.64 680.123 49.168 680.075 50.016H678.155C678.219 48.56 679.371 47.232 681.803 47.232C682.779 47.232 683.531 47.376 684.091 47.728C684.891 48.208 685.307 49.024 685.307 50.16V54.656C685.307 55.36 685.435 55.728 685.627 55.856V56H683.659ZM681.243 54.816C682.635 54.816 683.403 53.856 683.403 52.896V51.632C683.003 51.888 682.363 52.064 681.739 52.192C680.491 52.432 679.771 52.688 679.771 53.632C679.771 54.544 680.459 54.816 681.243 54.816ZM689.649 47.456V48.704H689.697C690.257 47.76 691.153 47.232 692.353 47.232C694.193 47.232 695.297 48.368 695.297 50.208V56H693.265V50.544C693.265 49.536 692.673 48.912 691.633 48.912C690.497 48.912 689.697 49.776 689.697 50.992V56H687.665V47.456H689.649ZM700.847 56.272C698.591 56.272 697.135 54.528 697.135 51.744C697.135 49.024 698.671 47.232 700.847 47.232C702.031 47.232 702.911 47.792 703.471 48.688H703.503C703.471 48.224 703.439 47.552 703.439 46.912V44.096H705.471V56H703.503V54.752H703.471C702.943 55.744 702.015 56.272 700.847 56.272ZM701.263 54.608C702.767 54.608 703.519 53.424 703.519 51.744C703.519 50.032 702.767 48.816 701.263 48.816C699.887 48.816 699.199 50.048 699.199 51.728C699.199 53.44 699.887 54.608 701.263 54.608ZM711.812 48.864V47.456H713.124V46.512C713.124 45.648 713.332 45.056 713.78 44.656C714.276 44.224 715.044 44.048 716.02 44.064C716.292 44.064 716.612 44.08 716.932 44.112V45.632C715.588 45.568 715.156 45.712 715.156 46.64V47.456H716.916V48.864H715.156V56H713.124V48.864H711.812ZM722.584 56.256C719.928 56.256 718.216 54.272 718.216 51.744C718.216 49.2 719.928 47.232 722.584 47.232C725.24 47.232 726.92 49.2 726.92 51.744C726.92 54.272 725.24 56.256 722.584 56.256ZM722.568 54.72C724.056 54.72 724.856 53.456 724.856 51.744C724.856 50.016 724.056 48.736 722.568 48.736C721.064 48.736 720.28 50.016 720.28 51.744C720.28 53.456 721.064 54.72 722.568 54.72ZM730.799 47.456V48.992H730.847C731.391 47.888 732.207 47.328 733.295 47.328C733.535 47.328 733.695 47.344 733.839 47.408V49.232H733.775C733.583 49.184 733.423 49.168 733.215 49.168C731.871 49.152 730.863 50.064 730.863 51.712V56H728.831V47.456H730.799ZM739.34 56.256C736.62 56.256 734.988 54.272 734.988 51.744C734.988 49.2 736.7 47.232 739.228 47.232C740.476 47.232 741.452 47.664 742.172 48.432C743.004 49.312 743.404 50.656 743.388 52.24H737.004C737.148 53.712 737.932 54.704 739.356 54.704C740.332 54.704 740.972 54.288 741.244 53.584H743.228C742.812 55.12 741.436 56.256 739.34 56.256ZM739.228 48.704C737.9 48.704 737.212 49.616 737.036 50.96H741.292C741.212 49.552 740.46 48.704 739.228 48.704ZM748.715 56.272C746.283 56.272 744.875 55.104 744.747 53.376H746.699C746.859 54.4 747.643 54.832 748.731 54.832C749.851 54.832 750.379 54.352 750.379 53.664C750.379 52.816 749.515 52.656 748.171 52.4C746.571 52.08 745.051 51.712 745.051 49.776C745.051 48.16 746.427 47.232 748.427 47.232C750.699 47.232 751.835 48.256 752.043 49.744H750.107C749.963 49.008 749.419 48.608 748.411 48.608C747.467 48.608 746.971 49.04 746.971 49.632C746.971 50.384 747.851 50.528 749.147 50.768C750.763 51.072 752.363 51.456 752.363 53.536C752.363 55.328 750.827 56.272 748.715 56.272ZM758.269 56.256C755.549 56.256 753.917 54.272 753.917 51.744C753.917 49.2 755.629 47.232 758.157 47.232C759.405 47.232 760.381 47.664 761.101 48.432C761.933 49.312 762.333 50.656 762.317 52.24H755.933C756.077 53.712 756.861 54.704 758.285 54.704C759.261 54.704 759.901 54.288 760.173 53.584H762.157C761.741 55.12 760.365 56.256 758.269 56.256ZM758.157 48.704C756.829 48.704 756.141 49.616 755.965 50.96H760.221C760.141 49.552 759.389 48.704 758.157 48.704ZM768.14 56.256C765.42 56.256 763.788 54.272 763.788 51.744C763.788 49.2 765.5 47.232 768.028 47.232C769.276 47.232 770.252 47.664 770.972 48.432C771.804 49.312 772.204 50.656 772.188 52.24H765.804C765.948 53.712 766.732 54.704 768.156 54.704C769.132 54.704 769.772 54.288 770.044 53.584H772.028C771.612 55.12 770.236 56.256 768.14 56.256ZM768.028 48.704C766.7 48.704 766.012 49.616 765.836 50.96H770.092C770.012 49.552 769.26 48.704 768.028 48.704ZM778.089 48.864V47.456H779.401V46.512C779.401 45.648 779.609 45.056 780.057 44.656C780.553 44.224 781.321 44.048 782.297 44.064C782.569 44.064 782.889 44.08 783.209 44.112V45.632C781.865 45.568 781.433 45.712 781.433 46.64V47.456H783.193V48.864H781.433V56H779.401V48.864H778.089ZM792.554 56H790.586V54.784H790.554C789.93 55.712 789.178 56.224 787.978 56.224C786.106 56.224 785.018 55.056 785.018 53.216V47.456H787.05V52.928C787.05 53.936 787.626 54.528 788.65 54.528C789.802 54.528 790.538 53.648 790.538 52.464V47.456H792.554V56ZM794.378 48.848V47.456H795.69V44.736H797.69V47.456H799.402V48.848H797.69V53.632C797.69 54.256 798.026 54.432 798.602 54.432C798.81 54.432 799.098 54.4 799.258 54.368H799.354V55.952C799.018 56.016 798.554 56.08 798.01 56.08C796.634 56.08 795.69 55.584 795.69 54.08V48.848H794.378ZM808.779 56H806.811V54.784H806.779C806.155 55.712 805.403 56.224 804.203 56.224C802.331 56.224 801.243 55.056 801.243 53.216V47.456H803.275V52.928C803.275 53.936 803.851 54.528 804.875 54.528C806.027 54.528 806.763 53.648 806.763 52.464V47.456H808.779V56ZM813.084 47.456V48.992H813.132C813.676 47.888 814.492 47.328 815.58 47.328C815.82 47.328 815.98 47.344 816.124 47.408V49.232H816.06C815.868 49.184 815.708 49.168 815.5 49.168C814.156 49.152 813.148 50.064 813.148 51.712V56H811.116V47.456H813.084ZM821.625 56.256C818.905 56.256 817.273 54.272 817.273 51.744C817.273 49.2 818.985 47.232 821.513 47.232C822.761 47.232 823.737 47.664 824.457 48.432C825.289 49.312 825.689 50.656 825.673 52.24H819.289C819.433 53.712 820.217 54.704 821.641 54.704C822.617 54.704 823.257 54.288 823.529 53.584H825.513C825.097 55.12 823.721 56.256 821.625 56.256ZM821.513 48.704C820.185 48.704 819.497 49.616 819.321 50.96H823.577C823.497 49.552 822.745 48.704 821.513 48.704ZM835.526 56.272C833.094 56.272 831.686 55.104 831.558 53.376H833.51C833.67 54.4 834.454 54.832 835.542 54.832C836.662 54.832 837.19 54.352 837.19 53.664C837.19 52.816 836.326 52.656 834.982 52.4C833.382 52.08 831.862 51.712 831.862 49.776C831.862 48.16 833.238 47.232 835.238 47.232C837.51 47.232 838.646 48.256 838.854 49.744H836.918C836.774 49.008 836.23 48.608 835.222 48.608C834.278 48.608 833.782 49.04 833.782 49.632C833.782 50.384 834.662 50.528 835.958 50.768C837.574 51.072 839.174 51.456 839.174 53.536C839.174 55.328 837.638 56.272 835.526 56.272ZM845.081 56.256C842.361 56.256 840.729 54.272 840.729 51.744C840.729 49.2 842.441 47.232 844.969 47.232C846.217 47.232 847.193 47.664 847.913 48.432C848.745 49.312 849.145 50.656 849.129 52.24H842.745C842.889 53.712 843.673 54.704 845.097 54.704C846.073 54.704 846.713 54.288 846.985 53.584H848.969C848.553 55.12 847.177 56.256 845.081 56.256ZM844.969 48.704C843.641 48.704 842.953 49.616 842.777 50.96H847.033C846.953 49.552 846.201 48.704 844.969 48.704ZM852.999 47.456V48.992H853.047C853.591 47.888 854.407 47.328 855.495 47.328C855.735 47.328 855.895 47.344 856.039 47.408V49.232H855.975C855.783 49.184 855.623 49.168 855.415 49.168C854.071 49.152 853.063 50.064 853.063 51.712V56H851.031V47.456H852.999ZM860.123 56L857.163 47.456H859.291L860.539 51.44C860.907 52.592 861.259 54.304 861.259 54.304H861.307C861.307 54.304 861.643 52.592 862.011 51.44L863.307 47.456H865.371L862.347 56H860.123ZM866.834 46.064V44.096H868.914V46.064H866.834ZM866.866 56V47.456H868.898V56H866.866ZM875.125 56.256C872.485 56.256 870.789 54.272 870.789 51.744C870.789 49.2 872.469 47.232 875.093 47.232C877.269 47.232 878.645 48.464 878.949 50.304H876.965C876.773 49.376 876.133 48.784 875.109 48.784C873.621 48.784 872.853 50.016 872.853 51.744C872.853 53.424 873.621 54.672 875.109 54.672C876.229 54.672 876.901 54.016 877.013 52.896H878.997C878.869 54.88 877.413 56.256 875.125 56.256ZM884.731 56.256C882.011 56.256 880.379 54.272 880.379 51.744C880.379 49.2 882.091 47.232 884.619 47.232C885.867 47.232 886.843 47.664 887.563 48.432C888.395 49.312 888.795 50.656 888.779 52.24H882.395C882.539 53.712 883.323 54.704 884.747 54.704C885.723 54.704 886.363 54.288 886.635 53.584H888.619C888.203 55.12 886.827 56.256 884.731 56.256ZM884.619 48.704C883.291 48.704 882.603 49.616 882.427 50.96H886.683C886.603 49.552 885.851 48.704 884.619 48.704ZM897.192 47.456V48.704H897.24C897.8 47.76 898.696 47.232 899.896 47.232C901.736 47.232 902.84 48.368 902.84 50.208V56H900.808V50.544C900.808 49.536 900.216 48.912 899.176 48.912C898.04 48.912 897.24 49.776 897.24 50.992V56H895.208V47.456H897.192ZM909.03 56.256C906.31 56.256 904.678 54.272 904.678 51.744C904.678 49.2 906.39 47.232 908.918 47.232C910.166 47.232 911.142 47.664 911.862 48.432C912.694 49.312 913.094 50.656 913.078 52.24H906.694C906.838 53.712 907.622 54.704 909.046 54.704C910.022 54.704 910.662 54.288 910.934 53.584H912.918C912.502 55.12 911.126 56.256 909.03 56.256ZM908.918 48.704C907.59 48.704 906.902 49.616 906.726 50.96H910.982C910.902 49.552 910.15 48.704 908.918 48.704ZM918.9 56.256C916.18 56.256 914.548 54.272 914.548 51.744C914.548 49.2 916.26 47.232 918.788 47.232C920.036 47.232 921.012 47.664 921.732 48.432C922.564 49.312 922.964 50.656 922.948 52.24H916.564C916.708 53.712 917.492 54.704 918.916 54.704C919.892 54.704 920.532 54.288 920.804 53.584H922.788C922.372 55.12 920.996 56.256 918.9 56.256ZM918.788 48.704C917.46 48.704 916.772 49.616 916.596 50.96H920.852C920.772 49.552 920.02 48.704 918.788 48.704ZM928.131 56.272C925.875 56.272 924.419 54.528 924.419 51.744C924.419 49.024 925.955 47.232 928.131 47.232C929.315 47.232 930.195 47.792 930.755 48.688H930.787C930.755 48.224 930.723 47.552 930.723 46.912V44.096H932.755V56H930.787V54.752H930.755C930.227 55.744 929.299 56.272 928.131 56.272ZM928.547 54.608C930.051 54.608 930.803 53.424 930.803 51.744C930.803 50.032 930.051 48.816 928.547 48.816C927.171 48.816 926.483 50.048 926.483 51.728C926.483 53.44 927.171 54.608 928.547 54.608ZM938.521 56.272C936.089 56.272 934.681 55.104 934.553 53.376H936.505C936.665 54.4 937.449 54.832 938.537 54.832C939.657 54.832 940.185 54.352 940.185 53.664C940.185 52.816 939.321 52.656 937.977 52.4C936.377 52.08 934.857 51.712 934.857 49.776C934.857 48.16 936.233 47.232 938.233 47.232C940.505 47.232 941.641 48.256 941.849 49.744H939.913C939.769 49.008 939.225 48.608 938.217 48.608C937.273 48.608 936.777 49.04 936.777 49.632C936.777 50.384 937.657 50.528 938.953 50.768C940.569 51.072 942.169 51.456 942.169 53.536C942.169 55.328 940.633 56.272 938.521 56.272Z" fill="white"/>
<path d="M984.388 56.272C981.956 56.272 980.388 54.944 980.148 53.28H982.644C982.788 53.808 983.316 54.384 984.324 54.384C985.092 54.384 985.668 54.096 986.068 53.456C986.404 52.928 986.596 52.144 986.66 51.072H986.628C985.972 51.904 985.108 52.416 983.908 52.416C981.636 52.416 979.796 50.816 979.796 48.4C979.796 46.016 981.7 44.368 984.308 44.368C985.62 44.368 986.724 44.768 987.508 45.472C988.596 46.448 989.108 48.032 989.108 50.24C989.108 52.192 988.74 53.872 987.78 54.912C986.996 55.792 985.892 56.272 984.388 56.272ZM984.356 50.48C985.604 50.48 986.484 49.616 986.484 48.4C986.484 47.184 985.588 46.304 984.372 46.304C983.108 46.304 982.26 47.2 982.26 48.384C982.26 49.568 983.076 50.48 984.356 50.48ZM996.408 56V53.424H991.064V51.104L996.424 44.48H998.92V51.504H1000.62V53.424H998.92V56H996.408ZM992.808 51.6C992.808 51.6 993.8 51.504 994.44 51.504H996.408V48.752C996.408 48.08 996.488 47.008 996.488 47.008H996.456C996.456 47.008 995.816 48 995.336 48.592L994.12 50.112C993.656 50.688 992.808 51.568 992.808 51.568V51.6ZM1004.34 51.008C1002.61 51.008 1001.35 49.712 1001.35 47.68C1001.35 45.664 1002.61 44.368 1004.34 44.368C1006.1 44.368 1007.32 45.648 1007.32 47.68C1007.32 49.712 1006.07 51.008 1004.34 51.008ZM1004.44 56L1010.64 44.608H1012.15L1005.94 56H1004.44ZM1012.24 56.288C1010.52 56.288 1009.25 54.976 1009.25 52.944C1009.25 50.928 1010.53 49.616 1012.24 49.616C1014.02 49.616 1015.25 50.928 1015.25 52.944C1015.25 54.976 1014 56.288 1012.24 56.288ZM1004.34 49.632C1005.08 49.632 1005.41 48.832 1005.41 47.68C1005.41 46.56 1005.08 45.712 1004.34 45.712C1003.6 45.712 1003.28 46.528 1003.28 47.68C1003.28 48.816 1003.6 49.632 1004.34 49.632ZM1012.26 54.896C1013 54.896 1013.32 54.08 1013.32 52.944C1013.32 51.808 1012.96 50.96 1012.26 50.96C1011.51 50.96 1011.19 51.808 1011.19 52.944C1011.19 54.08 1011.51 54.896 1012.26 54.896Z" fill="white"/>
</svg>
