<svg width="73" height="94" viewBox="0 0 73 94" fill="none" xmlns="http://www.w3.org/2000/svg">
<path d="M40.8552 86.6352C36.6857 86.6352 32.747 85.0268 29.7642 82.106C26.6848 79.0897 24.9883 75.0533 24.9883 70.7372V61.3243C24.9883 60.4467 25.7012 59.7324 26.577 59.7324C27.4529 59.7324 28.1658 60.4467 28.1658 61.3243V70.7372C28.1658 74.1881 29.5225 77.4162 31.9843 79.8275C34.3689 82.1641 37.5201 83.4501 40.8579 83.4501C40.9546 83.4501 41.0513 83.4501 41.148 83.4473L41.5708 83.4376C44.9003 83.3587 48.0142 81.9994 50.3407 79.6102C52.6672 77.221 53.9493 74.0677 53.9493 70.7289V57.3917C53.9493 56.5141 54.6622 55.7998 55.5381 55.7998C56.4139 55.7998 57.1268 56.5141 57.1268 57.3917V70.7289C57.1268 74.9024 55.5242 78.8461 52.6161 81.8333C49.7066 84.8219 45.8107 86.5231 41.6468 86.6214L41.2323 86.6311C41.1066 86.6339 40.9823 86.6352 40.8579 86.6352H40.8552Z" fill="#BA91E8"/>
<path d="M55.5781 56.0488C56.3843 56.0488 57.041 56.7007 57.041 57.5088V70.8115C57.041 74.9406 55.4474 78.8443 52.5547 81.7988C49.6619 84.7549 45.7858 86.4378 41.6455 86.5352L41.2295 86.5439C41.1047 86.5468 40.9809 86.5488 40.8574 86.5488H40.8564C36.7038 86.5488 32.8004 84.9643 29.8262 82.0674C26.7642 79.0844 25.0762 75.0885 25.0762 70.8193V61.4316C25.0762 60.6236 25.7329 59.9717 26.5391 59.9717C27.3453 59.9717 28.002 60.6235 28.002 61.4316V70.8193C28.002 74.2956 29.3744 77.547 31.8701 79.9775C34.3656 82.4091 37.6647 83.7016 41.1523 83.625L41.5762 83.6152L41.8916 83.6035C45.146 83.4487 48.1784 82.0903 50.4609 79.7578C52.8184 77.35 54.1152 74.1736 54.1152 70.8115V57.5088C54.1152 56.7007 54.772 56.0489 55.5781 56.0488Z" fill="#BA91E8" stroke="#BA91E8" stroke-width="1.125"/>
<path d="M45.3863 38.4332C44.4602 38.4332 43.7076 37.6864 43.7076 36.7674V17.0583C43.7076 14.5735 41.6709 12.5523 39.1669 12.5523C38.2409 12.5523 37.4883 11.8055 37.4883 10.8865C37.4883 9.96754 38.2409 9.2207 39.1669 9.2207C43.5216 9.2207 47.0649 12.7369 47.0649 17.0583V36.7674C47.0649 37.6864 46.3123 38.4332 45.3863 38.4332Z" fill="#FAF6FF"/>
<path d="M45.2863 36.8163C44.7598 36.8163 44.3339 36.383 44.3339 35.8472V16.1893C44.3339 13.3302 42.0483 11.0028 39.2375 11.0028C38.711 11.0028 38.2852 10.5695 38.2852 10.0336C38.2852 9.49782 38.711 9.06445 39.2375 9.06445C43.0972 9.06445 46.2386 12.26 46.2386 16.1893V35.8472C46.2386 36.383 45.8128 36.8163 45.2863 36.8163Z" fill="#FAF6FF"/>
<path d="M8.13652 38.4342C7.22616 38.4342 6.48633 37.6874 6.48633 36.7684V17.0593C6.48633 12.7379 9.9696 9.22168 14.2505 9.22168C15.1608 9.22168 15.9006 9.96851 15.9006 10.8875C15.9006 11.8064 15.1608 12.5533 14.2505 12.5533C11.7889 12.5533 9.7867 14.5744 9.7867 17.0593V36.7684C9.7867 37.6874 9.04687 38.4342 8.13652 38.4342Z" fill="#FAF6FF"/>
<path d="M8.08897 36.8163C7.55171 36.8163 7.11719 36.383 7.11719 35.8472V16.1893C7.11719 12.2614 10.3213 9.06445 14.2612 9.06445C14.7985 9.06445 15.233 9.49782 15.233 10.0336C15.233 10.5695 14.7985 11.0028 14.2612 11.0028C11.3944 11.0028 9.06076 13.3289 9.06076 16.1893V35.8472C9.06076 36.383 8.62623 36.8163 8.08897 36.8163Z" fill="#FAF6FF"/>
<path d="M19.0162 55.0801L14.0935 52.6262C9.10096 50.1405 6 45.1566 6 39.6183V36.7759C6 35.6326 6.9388 34.7021 8.09242 34.7021C9.24604 34.7021 10.1848 35.6326 10.1848 36.7759V39.6183C10.1848 43.5778 12.4028 47.1432 15.9725 48.9211L21.2426 51.5478C22.272 52.0607 22.6891 53.3105 22.1716 54.3322C21.8131 55.0372 21.0961 55.4755 20.301 55.4755L19.0162 55.0787V55.0801Z" fill="#BA91E8"/>
<path d="M8.18262 34.79C9.25602 34.7902 10.1181 35.6675 10.1182 36.7383V39.5879C10.1182 43.6106 12.3297 47.2265 15.8877 49.0312L21.0771 51.665C22.0325 52.1499 22.4133 53.3199 21.9365 54.2783L21.9355 54.2793C21.7946 54.5613 21.5314 54.7361 21.3311 54.8408C21.1127 54.955 20.8648 55.0392 20.6367 55.0986C20.4066 55.1586 20.1751 55.1988 19.9795 55.2168C19.8824 55.2257 19.784 55.2303 19.6934 55.2266C19.6297 55.2239 19.4783 55.215 19.3359 55.1426L14.1465 52.5098C9.27163 50.0389 6.24609 45.0851 6.24609 39.5879V36.7383C6.24619 35.6674 7.10905 34.79 8.18262 34.79Z" fill="#BA91E8" stroke="#BA91E8" stroke-width="1.125"/>
<path d="M32.753 55.6374C31.9617 55.6374 31.2494 55.2002 30.8946 54.4969C30.6452 54.0046 30.6036 53.4433 30.7782 52.9192C30.9528 52.3938 31.3215 51.9691 31.8176 51.7208L37.483 48.8868C41.0294 47.1134 43.2329 43.5567 43.2329 39.6071V36.7717C43.2329 35.6312 44.1655 34.7031 45.3116 34.7031C46.4577 34.7031 47.3904 35.6312 47.3904 36.7717V39.6071C47.3904 45.1316 44.3097 50.1046 39.3511 52.5841L33.6857 55.4181C33.3947 55.5629 33.0732 55.6388 32.753 55.6388V55.6374Z" fill="#BA91E8"/>
<path d="M45.3594 34.7881C46.4333 34.7883 47.3008 35.6626 47.3008 36.7354V39.582C47.3008 44.9046 44.4492 49.7183 39.8232 52.2578L39.3701 52.4961L33.7324 55.3418L33.7305 55.3428C33.4539 55.4815 33.1563 55.5508 32.8604 55.5508C32.1504 55.5507 31.464 55.1572 31.124 54.4766L31.125 54.4756C30.6454 53.5172 31.029 52.3469 31.9863 51.8633L37.625 49.0176C41.1984 47.2137 43.417 43.5997 43.417 39.582V36.7354C43.417 35.6624 44.2853 34.7881 45.3594 34.7881Z" fill="#BA91E8" stroke="#BA91E8" stroke-width="1.125"/>
<path d="M26.709 58.5564C25.743 58.5564 24.7799 58.3286 23.9226 57.8965L20.1456 55.9912C18.9595 55.3933 18.4807 53.9381 19.0765 52.748C19.4879 51.9265 20.3121 51.417 21.2285 51.417C21.6014 51.417 21.9743 51.5067 22.3086 51.6752L26.0857 53.5805C26.2769 53.6772 26.4929 53.7282 26.7103 53.7282C26.9277 53.7282 27.1438 53.6772 27.335 53.5805L30.7502 51.8574C31.0845 51.689 31.4574 51.5992 31.8303 51.5992C32.7467 51.5992 33.5709 52.1087 33.9823 52.9302C34.2713 53.5059 34.3194 54.1618 34.1172 54.7748C33.9149 55.3878 33.487 55.8848 32.9132 56.1748L29.498 57.8979C28.6394 58.33 27.6763 58.5578 26.7103 58.5578H26.709V58.5564Z" fill="#FAF6FF"/>
<path d="M26.7109 57.9089C25.8545 57.9089 24.9994 57.71 24.2191 57.3137L20.4214 55.3809C19.5677 54.9467 19.2246 53.8949 19.6535 53.0307C20.0824 52.1666 21.1228 51.8193 21.9751 52.2534L25.7728 54.1862C26.3608 54.4859 27.0623 54.4859 27.6503 54.1862L31.0842 52.4383C31.9378 52.0041 32.9768 52.3529 33.4057 53.2156C33.8346 54.0784 33.4901 55.1316 32.6379 55.5658L29.204 57.3137C28.4237 57.71 27.5673 57.9089 26.7122 57.9089H26.7109Z" fill="#FAF6FF"/>
<path d="M26.5333 64.4026C25.2354 64.4026 24.1797 63.3274 24.1797 62.0057V55.2767C24.1797 53.955 25.2354 52.8799 26.5333 52.8799C27.8311 52.8799 28.8868 53.955 28.8868 55.2767V62.0057C28.8868 63.3274 27.8311 64.4026 26.5333 64.4026Z" fill="#FAF6FF"/>
<path d="M26.5285 63.7537C25.5878 63.7537 24.8242 62.9813 24.8242 62.0296V55.2534C24.8242 54.3017 25.5878 53.5293 26.5285 53.5293C27.4693 53.5293 28.2329 54.3017 28.2329 55.2534V62.0296C28.2329 62.9813 27.4693 63.7537 26.5285 63.7537Z" fill="#FAF6FF"/>
<path d="M15.9727 13.1943C14.5402 13.1943 13.375 12.0297 13.375 10.597C13.375 9.16416 14.5402 8.00098 15.9727 8.00098C16.0743 8.00098 16.1787 8.00654 16.2804 8.01904L19.9027 8.44707C20.9927 8.57632 21.8154 9.50047 21.8154 10.597C21.8154 11.4752 21.2878 12.2438 20.5166 12.5801V12.6732L19.9027 12.7482L16.2804 13.1762C16.1773 13.1888 16.0743 13.1943 15.9713 13.1943H15.9727Z" fill="#BA91E8"/>
<path d="M16.3604 8.10254L19.9463 8.52246C20.9582 8.64102 21.7295 9.49263 21.7295 10.5137C21.7294 11.5141 20.9886 12.3484 20.0068 12.4932C19.9869 12.4977 19.967 12.5044 19.9463 12.5068L16.3604 12.9268C14.9111 13.0959 13.625 11.9763 13.625 10.5146C13.6251 9.05312 14.9111 7.93343 16.3604 8.10254Z" fill="#BA91E8" stroke="#BA91E8" stroke-width="1.125" stroke-linejoin="round"/>
<path d="M19.9487 12.0582C19.5509 12.0582 19.308 11.9017 19.1758 11.7693C18.8633 11.4591 18.886 11.066 18.9031 10.7491C18.9073 10.6755 18.9116 10.5966 18.9116 10.5164C18.9116 10.4362 18.9073 10.3573 18.9031 10.2837C18.886 9.9668 18.8633 9.57367 19.1773 9.26344C19.3094 9.1324 19.5523 8.97461 19.9501 8.97461C20.7997 8.97461 21.4916 9.66593 21.4916 10.5164C21.4916 11.3668 20.7997 12.0582 19.9501 12.0582H19.9487Z" fill="#BA91E8"/>
<path d="M20.8454 10.5166C20.8454 10.0232 20.4344 9.62402 19.9276 9.62402C19.4209 9.62402 19.5668 10.0259 19.5668 10.5166C19.5668 11.0074 19.4193 11.4092 19.9276 11.4092C20.4359 11.4092 20.8454 11.0087 20.8454 10.5166Z" fill="#BA91E8"/>
<path d="M36.9115 13.1919C36.8085 13.1919 36.7055 13.1864 36.6025 13.1739L32.367 12.6737V12.5779C31.5959 12.2416 31.0684 11.4733 31.0684 10.5953C31.0684 9.49909 31.891 8.57518 32.9808 8.44598L36.6025 8.01806C36.7055 8.00556 36.8085 8 36.9115 8C38.3438 8 39.5088 9.16426 39.5088 10.5967C39.5088 11.2941 39.236 11.9485 38.7405 12.4389C38.2491 12.9252 37.6005 13.1933 36.9115 13.1933V13.1919Z" fill="#BA91E8"/>
<path d="M36.5254 8.10352C37.9746 7.93441 39.2607 9.05409 39.2607 10.5156C39.2607 11.9772 37.9747 13.0968 36.5254 12.9277L32.9395 12.5078C32.9181 12.5053 32.8975 12.4989 32.877 12.4941C31.8961 12.3485 31.1564 11.5144 31.1562 10.5146C31.1562 9.4936 31.9276 8.642 32.9395 8.52344L36.5254 8.10352Z" fill="#BA91E8" stroke="#BA91E8" stroke-width="1.125" stroke-linejoin="round"/>
<path d="M32.9337 12.0582C32.0843 12.0582 31.3926 11.3668 31.3926 10.5164C31.3926 9.66593 32.0843 8.97461 32.9337 8.97461C33.3314 8.97461 33.5728 9.13106 33.7064 9.26344C34.0188 9.57367 33.9975 9.96814 33.9805 10.2837C33.9762 10.3573 33.972 10.4348 33.972 10.5164C33.972 10.5979 33.9762 10.6755 33.9805 10.7491C33.999 11.0646 34.0203 11.4591 33.7078 11.7693C33.5757 11.9017 33.3328 12.0582 32.9351 12.0582H32.9337Z" fill="#BA91E8"/>
<path d="M32.2051 10.5147C32.2051 10.0212 32.5647 9.62207 33.0082 9.62207C33.4516 9.62207 33.3239 10.0239 33.3239 10.5147C33.3239 11.0054 33.4529 11.4073 33.0082 11.4073C32.5634 11.4073 32.2051 11.0068 32.2051 10.5147Z" fill="#BA91E8"/>
<path d="M55.5029 68.1351C61.8671 68.1351 67.0274 63.012 67.0274 56.6935C67.0274 50.3751 61.8685 45.252 55.5029 45.252C49.1374 45.252 43.9785 50.3751 43.9785 56.6935C43.9785 63.012 49.1387 68.1351 55.5029 68.1351Z" fill="#BA91E8"/>
<path d="M55.5029 66.0005C60.6874 66.0005 64.8906 61.8324 64.8906 56.6912C64.8906 51.5499 60.6874 47.3818 55.5029 47.3818C50.3184 47.3818 46.1152 51.5499 46.1152 56.6912C46.1152 61.8324 50.3184 66.0005 55.5029 66.0005Z" fill="#FAF6FF"/>
</svg>
