<svg width="48" height="48" viewBox="0 0 48 48" fill="none" xmlns="http://www.w3.org/2000/svg">
<g clip-path="url(#clip0_2135_23534)">
<path d="M26.559 48C24.0861 48 21.7501 47.0459 19.981 45.3133C18.1546 43.5241 17.1484 41.1298 17.1484 38.5696V32.986C17.1484 32.4654 17.5712 32.0418 18.0907 32.0418C18.6102 32.0418 19.033 32.4654 19.033 32.986V38.5696C19.033 40.6166 19.8376 42.5314 21.2978 43.9618C22.712 45.3478 24.581 46.1106 26.5606 46.1106C26.618 46.1106 26.6753 46.1106 26.7327 46.109L26.9834 46.1032C28.9581 46.0564 30.805 45.2501 32.1848 43.8329C33.5646 42.4156 34.325 40.5451 34.325 38.5646V30.6533C34.325 30.1327 34.7478 29.709 35.2673 29.709C35.7868 29.709 36.2096 30.1327 36.2096 30.6533V38.5646C36.2096 41.0403 35.2591 43.3796 33.5343 45.1516C31.8087 46.9243 29.4981 47.9335 27.0285 47.9918L26.7827 47.9975C26.7081 47.9992 26.6344 48 26.5606 48H26.559Z" fill="#444444"/>
<path d="M26.5587 47.614C24.1826 47.614 21.9511 46.7083 20.2495 45.0506C18.4978 43.3439 17.5332 41.0598 17.5332 38.6176V33.0485C17.5332 32.7545 17.7723 32.5162 18.0673 32.5162C18.3622 32.5162 18.6013 32.7545 18.6013 33.0485V38.6176C18.6013 40.7698 19.4517 42.7845 20.9964 44.289C22.541 45.7943 24.5844 46.5944 26.742 46.5469L26.9934 46.5412C29.0811 46.492 31.035 45.6436 32.4933 44.153C33.9525 42.6625 34.7561 40.6945 34.7561 38.6126V30.7218C34.7561 30.4278 34.9952 30.1895 35.2902 30.1895C35.5851 30.1895 35.8242 30.4278 35.8242 30.7218V38.6126C35.8242 40.9746 34.913 43.2063 33.2583 44.8967C31.6035 46.5879 29.3876 47.5502 27.0189 47.6059L26.7724 47.6116C26.7009 47.6132 26.6302 47.614 26.5596 47.614H26.5587Z" fill="#444444"/>
<path d="M29.2448 19.4084C28.6956 19.4084 28.2492 18.9654 28.2492 18.4203V6.72918C28.2492 5.25524 27.0412 4.05632 25.5561 4.05632C25.0069 4.05632 24.5605 3.61331 24.5605 3.0682C24.5605 2.52309 25.0069 2.08008 25.5561 2.08008C28.1389 2.08008 30.2404 4.16583 30.2404 6.72918V18.4203C30.2404 18.9654 29.794 19.4084 29.2448 19.4084Z" fill="#CCCCCC"/>
<path d="M29.1933 19.0225C28.8811 19.0225 28.6285 18.7654 28.6285 18.4475V6.7869C28.6285 5.09094 27.2729 3.71035 25.6058 3.71035C25.2936 3.71035 25.041 3.45329 25.041 3.13545C25.041 2.81761 25.2936 2.56055 25.6058 2.56055C27.895 2.56055 29.7582 4.45608 29.7582 6.7869V18.4475C29.7582 18.7654 29.5056 19.0225 29.1933 19.0225Z" fill="#CCCCCC"/>
<path d="M7.15254 19.4084C6.61262 19.4084 6.17383 18.9654 6.17383 18.4203V6.72918C6.17383 4.16583 8.23973 2.08008 10.7787 2.08008C11.3186 2.08008 11.7574 2.52309 11.7574 3.0682C11.7574 3.61331 11.3186 4.05632 10.7787 4.05632C9.31877 4.05632 8.13126 5.25524 8.13126 6.72918V18.4203C8.13126 18.9654 7.69247 19.4084 7.15254 19.4084Z" fill="#CCCCCC"/>
<path d="M7.133 19.0225C6.81436 19.0225 6.55664 18.7654 6.55664 18.4475V6.7869C6.55664 4.4569 8.45698 2.56055 10.7937 2.56055C11.1123 2.56055 11.3701 2.81761 11.3701 3.13545C11.3701 3.45329 11.1123 3.71035 10.7937 3.71035C9.09344 3.71035 7.70936 5.09012 7.70936 6.7869V18.4475C7.70936 18.7654 7.45164 19.0225 7.133 19.0225Z" fill="#CCCCCC"/>
<path d="M13.6046 29.2812L10.6849 27.8256C7.72393 26.3511 5.88477 23.3947 5.88477 20.1095V18.4235C5.88477 17.7453 6.44156 17.1934 7.12576 17.1934C7.80997 17.1934 8.36676 17.7453 8.36676 18.4235V20.1095C8.36676 22.4582 9.68222 24.5732 11.7994 25.6278L14.925 27.1859C15.5356 27.4902 15.783 28.2315 15.476 28.8375C15.2634 29.2558 14.8382 29.5157 14.3666 29.5157L13.6046 29.2804V29.2812Z" fill="#444444"/>
<path d="M13.9462 29.0202L10.8682 27.4582C8.08999 26.0499 6.36523 23.2268 6.36523 20.0905V18.4002C6.36523 17.9464 6.73023 17.5781 7.17995 17.5781C7.62968 17.5781 7.99467 17.9464 7.99467 18.4002V20.0905C7.99467 22.6012 9.37562 24.862 11.599 25.9899L14.677 27.5519C15.0786 27.7558 15.2408 28.2499 15.0387 28.656C14.8953 28.9429 14.0635 29.0802 13.9462 29.0202Z" fill="#444444"/>
<path d="M21.7519 29.6112C21.2826 29.6112 20.8601 29.3519 20.6497 28.9347C20.5017 28.6426 20.4771 28.3097 20.5806 27.9988C20.6842 27.6871 20.9028 27.4352 21.1971 27.2879L24.5572 25.6069C26.6605 24.5549 27.9674 22.4452 27.9674 20.1023V18.4204C27.9674 17.7439 28.5206 17.1934 29.2003 17.1934C29.8801 17.1934 30.4332 17.7439 30.4332 18.4204V20.1023C30.4332 23.3794 28.6061 26.3292 25.6652 27.8L22.3051 29.4811C22.1325 29.567 21.9418 29.612 21.7519 29.612V29.6112Z" fill="#444444"/>
<path d="M21.8186 29.2266C21.5192 29.2266 21.2304 29.0607 21.0873 28.774C20.8844 28.3691 21.0472 27.8746 21.4505 27.6708L24.7944 25.9828C27.0267 24.8559 28.4132 22.597 28.4132 20.0884V18.3995C28.4132 17.9461 28.7797 17.5781 29.2312 17.5781C29.6828 17.5781 30.0492 17.9461 30.0492 18.3995V20.0884C30.0492 23.2221 28.3175 26.0436 25.529 27.4507L22.185 29.1387C22.0673 29.1979 21.9421 29.2266 21.8186 29.2266Z" fill="#444444"/>
<path d="M18.1689 31.3444C17.5961 31.3444 17.0248 31.2092 16.5164 30.9529L14.2763 29.8227C13.5728 29.4681 13.2888 28.6048 13.6422 27.8989C13.8862 27.4116 14.375 27.1094 14.9185 27.1094C15.1397 27.1094 15.3608 27.1626 15.5591 27.2625L17.7993 28.3927C17.9127 28.4501 18.0408 28.4804 18.1698 28.4804C18.2987 28.4804 18.4268 28.4501 18.5403 28.3927L20.5658 27.3706C20.7641 27.2707 20.9852 27.2175 21.2064 27.2175C21.7499 27.2175 22.2387 27.5197 22.4827 28.007C22.6541 28.3485 22.6826 28.7375 22.5627 29.1012C22.4427 29.4648 22.1889 29.7596 21.8486 29.9316L19.8231 30.9537C19.3139 31.2101 18.7426 31.3452 18.1698 31.3452H18.1689V31.3444Z" fill="#CCCCCC"/>
<path d="M18.1702 30.9598C17.6623 30.9598 17.1552 30.8418 16.6924 30.6067L14.44 29.4602C13.9337 29.2027 13.7302 28.5788 13.9846 28.0662C14.2389 27.5536 14.856 27.3475 15.3615 27.6051L17.6139 28.7516C17.9626 28.9294 18.3787 28.9294 18.7274 28.7516L20.764 27.7147C21.2703 27.4572 21.8866 27.6641 22.1409 28.1758C22.3953 28.6876 22.191 29.3123 21.6855 29.5699L19.6489 30.6067C19.1861 30.8418 18.6782 30.9598 18.1711 30.9598H18.1702Z" fill="#CCCCCC"/>
<path d="M18.0619 34.8116C17.2922 34.8116 16.666 34.1739 16.666 33.3899V29.3983C16.666 28.6143 17.2922 27.9766 18.0619 27.9766C18.8316 27.9766 19.4578 28.6143 19.4578 29.3983V33.3899C19.4578 34.1739 18.8316 34.8116 18.0619 34.8116Z" fill="#CCCCCC"/>
<path d="M18.0636 34.4262C17.5056 34.4262 17.0527 33.9681 17.0527 33.4036V29.384C17.0527 28.8195 17.5056 28.3613 18.0636 28.3613C18.6215 28.3613 19.0744 28.8195 19.0744 29.384V33.4036C19.0744 33.9681 18.6215 34.4262 18.0636 34.4262Z" fill="#CCCCCC"/>
<path d="M11.8532 4.67825C11.0036 4.67825 10.3125 3.98744 10.3125 3.13754C10.3125 2.28764 11.0036 1.59766 11.8532 1.59766C11.9134 1.59766 11.9754 1.60095 12.0356 1.60837L14.184 1.86227C14.8305 1.93894 15.3185 2.48713 15.3185 3.13754C15.3185 3.65853 15.0055 4.11439 14.5481 4.31389V4.36912L14.184 4.41363L12.0356 4.66753C11.9745 4.67495 11.9134 4.67825 11.8524 4.67825H11.8532Z" fill="#444444"/>
<path d="M14.1718 3.93967L12.0448 4.18882C11.3794 4.26647 10.7949 3.75282 10.7949 3.08951C10.7949 2.4262 11.3794 1.91255 12.0448 1.9902L14.1718 2.23934C14.6067 2.29031 14.9345 2.65512 14.9345 3.0887C14.9345 3.52228 14.6067 3.88709 14.1718 3.93806V3.93967Z" fill="#444444"/>
<path d="M14.2112 4.00293C13.9752 4.00293 13.8311 3.91013 13.7528 3.8316C13.5674 3.64758 13.5809 3.41438 13.591 3.22639C13.5935 3.18277 13.5961 3.13597 13.5961 3.08838C13.5961 3.04079 13.5935 2.99399 13.591 2.95036C13.5809 2.76238 13.5674 2.52918 13.7536 2.34516C13.832 2.26742 13.9761 2.17383 14.212 2.17383C14.7159 2.17383 15.1262 2.58391 15.1262 3.08838C15.1262 3.59285 14.7159 4.00293 14.212 4.00293H14.2112Z" fill="#444444"/>
<path d="M14.7409 3.09002C14.7409 2.79731 14.4971 2.56055 14.1965 2.56055C13.896 2.56055 13.9825 2.79893 13.9825 3.09002C13.9825 3.38111 13.895 3.6195 14.1965 3.6195C14.498 3.6195 14.7409 3.38192 14.7409 3.09002Z" fill="#444444"/>
<path d="M24.2722 4.67742C24.2111 4.67742 24.15 4.67413 24.0889 4.66671L21.5769 4.37002V4.31316C21.1195 4.11372 20.8066 3.65798 20.8066 3.13713C20.8066 2.48689 21.2945 1.93885 21.9409 1.8622L24.0889 1.60837C24.15 1.60095 24.2111 1.59766 24.2722 1.59766C25.1216 1.59766 25.8126 2.28828 25.8126 3.13795C25.8126 3.55166 25.6508 3.93983 25.3569 4.23075C25.0655 4.51919 24.6808 4.67825 24.2722 4.67825V4.67742Z" fill="#444444"/>
<path d="M21.956 3.93967L24.083 4.18882C24.7484 4.26647 25.3329 3.75282 25.3329 3.08951C25.3329 2.4262 24.7484 1.91255 24.083 1.9902L21.956 2.23934C21.5212 2.29031 21.1934 2.65512 21.1934 3.0887C21.1934 3.52228 21.5212 3.88709 21.956 3.93806V3.93967Z" fill="#444444"/>
<path d="M21.914 4.00293C21.4103 4.00293 21 3.59285 21 3.08838C21 2.58391 21.4103 2.17383 21.914 2.17383C22.1499 2.17383 22.2931 2.26663 22.3723 2.34516C22.5576 2.52918 22.545 2.76317 22.5349 2.95036C22.5324 2.99399 22.5298 3.03999 22.5298 3.08838C22.5298 3.13676 22.5324 3.18277 22.5349 3.22639C22.5458 3.41359 22.5585 3.64758 22.3731 3.8316C22.2948 3.91013 22.1507 4.00293 21.9149 4.00293H21.914Z" fill="#444444"/>
<path d="M21.4785 3.09002C21.4785 2.79731 21.6918 2.56055 21.9548 2.56055C22.2178 2.56055 22.1421 2.79893 22.1421 3.09002C22.1421 3.38111 22.2186 3.6195 21.9548 3.6195C21.691 3.6195 21.4785 3.38192 21.4785 3.09002Z" fill="#444444"/>
<path d="M35.2472 37.025C39.0217 37.025 42.0822 33.9861 42.0822 30.2381C42.0822 26.4901 39.0226 23.4512 35.2472 23.4512C31.4718 23.4512 28.4121 26.4901 28.4121 30.2381C28.4121 33.9861 31.4726 37.025 35.2472 37.025Z" fill="#444444"/>
<path d="M35.2474 36.0625C38.4905 36.0625 41.1198 33.4548 41.1198 30.2383C41.1198 27.0218 38.4905 24.4141 35.2474 24.4141C32.0043 24.4141 29.375 27.0218 29.375 30.2383C29.375 33.4548 32.0043 36.0625 35.2474 36.0625Z" fill="#CCCCCC"/>
<path d="M35.2459 34.8101C37.7979 34.8101 39.8668 32.7412 39.8668 30.1892C39.8668 27.6373 37.7979 25.5684 35.2459 25.5684C32.6939 25.5684 30.625 27.6373 30.625 30.1892C30.625 32.7412 32.6939 34.8101 35.2459 34.8101Z" fill="#EDF0F1"/>
</g>
<defs>
<clipPath id="clip0_2135_23534">
<rect width="48" height="48" fill="white"/>
</clipPath>
</defs>
</svg>
