<svg width="18" height="18" viewBox="0 0 18 18" fill="none" xmlns="http://www.w3.org/2000/svg">
<path d="M11.0664 6.12402C11.5617 6.13385 11.9628 6.53608 11.9629 7.03516V7.625C11.9627 8.95622 11.2199 10.156 10.0273 10.7529L8.90527 11.3145C8.74991 11.3922 8.56076 11.3529 8.44922 11.2197C8.33775 11.0866 8.33287 10.8942 8.43652 10.7549C8.45587 10.7289 8.4655 10.7082 8.4707 10.6924C8.49075 10.6315 8.48639 10.5693 8.45801 10.5127L8.45703 10.5117C8.41817 10.434 8.34349 10.3864 8.25684 10.3838C8.08509 10.3788 7.93849 10.2576 7.90137 10.0898C7.86427 9.92212 7.94607 9.75082 8.09961 9.67383L9.20605 9.11914C9.77908 8.83259 10.1327 8.26088 10.1328 7.62402V7.03418C10.1329 6.52897 10.5442 6.12115 11.0479 6.12109C11.0541 6.12109 11.0603 6.12372 11.0664 6.12402Z" fill="#53686F" stroke="#53686F" stroke-width="0.75" stroke-linejoin="round"/>
<path d="M3.31641 6.12109C3.8211 6.12113 4.2343 6.52908 4.23438 7.03516V7.62598C4.23454 8.26358 4.59078 8.83803 5.16895 9.12598L6.18945 9.63379C6.34285 9.71021 6.42478 9.88129 6.38867 10.0488C6.35254 10.2163 6.20737 10.3383 6.03613 10.3447C5.95014 10.3481 5.87526 10.396 5.83691 10.4727L5.83496 10.4746C5.79561 10.5554 5.80729 10.6503 5.85938 10.7197C5.96381 10.8587 5.95892 11.0519 5.84766 11.1855C5.73649 11.3189 5.54804 11.3584 5.39258 11.2812L4.34766 10.7598H4.34668C3.14741 10.1615 2.3986 8.96088 2.39844 7.62598V7.03516L2.40332 6.94141C2.45066 6.47962 2.84325 6.12109 3.31641 6.12109Z" fill="#53686F" stroke="#53686F" stroke-width="0.75" stroke-linejoin="round"/>
<path d="M9.42578 0.625C9.72559 0.625 9.99254 0.755915 10.1777 0.957031C10.2814 1.06974 10.3062 1.23384 10.2402 1.37207C10.1743 1.51033 10.0308 1.59472 9.87793 1.58496C9.82353 1.58149 9.80011 1.57912 9.77148 1.5791C9.72512 1.5791 9.68945 1.61763 9.68945 1.6582C9.68954 1.6887 9.70963 1.71793 9.73926 1.73047L9.77148 1.7373C9.82507 1.73737 9.87224 1.74274 9.91016 1.74707C10.0554 1.76367 10.1777 1.86316 10.2236 2.00195C10.2693 2.14054 10.2305 2.29276 10.124 2.39258C9.94313 2.5619 9.69777 2.6709 9.4248 2.6709C9.38095 2.67089 9.34126 2.66767 9.30762 2.66406L9.30566 2.66309H9.2998C9.29587 2.66264 9.28969 2.66197 9.28223 2.66113C9.26722 2.65944 9.24545 2.65631 9.21875 2.65332C9.1649 2.64729 9.09014 2.63992 9.00781 2.63086C8.84233 2.61264 8.64693 2.59137 8.52148 2.5791C7.94302 2.52235 7.72852 2.00274 7.72852 1.64746C7.72868 1.17409 8.08275 0.777573 8.55176 0.72168L9.30469 0.631836H9.30762C9.3426 0.627952 9.38367 0.625009 9.42578 0.625Z" fill="#53686F" stroke="#53686F" stroke-width="0.75" stroke-linejoin="round"/>
<path d="M13.1639 13.9657C13.0164 13.9657 12.8725 13.9499 12.7333 13.9202V14.0873C12.7333 14.7518 12.4781 15.3801 12.0141 15.8561C11.551 16.3322 10.9311 16.6032 10.2675 16.6181L10.1794 16.6199C10.1608 16.6199 10.1228 16.6199 10.1218 16.6199C9.45737 16.6199 8.82909 16.3638 8.35487 15.8988C7.86487 15.4181 7.59481 14.775 7.59481 14.0882V12.6738C7.4853 12.8 7.32568 12.8808 7.14657 12.8808C6.9786 12.8808 6.82733 12.8093 6.71875 12.6961V14.0891C6.71875 15.0144 7.08254 15.8803 7.74329 16.5281C8.38271 17.1545 9.22814 17.4997 10.1218 17.4997C10.1488 17.4997 10.1747 17.4997 10.2026 17.4997L10.2889 17.4979C11.1816 17.4765 12.0178 17.1118 12.6414 16.4705C13.2651 15.8292 13.6085 14.9838 13.6085 14.0882V13.9174C13.4646 13.949 13.3161 13.9666 13.163 13.9666L13.1639 13.9657Z" fill="#53686F" stroke="#53686F" stroke-width="0.75" stroke-linejoin="round"/>
<path d="M13.1626 13.9636C12.0249 13.9636 11.0996 13.0438 11.0996 11.9144C11.0996 10.7849 12.0249 9.86523 13.1626 9.86523C14.3004 9.86523 15.2256 10.7849 15.2256 11.9144C15.2256 13.0438 14.3004 13.9636 13.1626 13.9636Z" stroke="#53686F" stroke-width="0.75" stroke-linejoin="round"/>
<path d="M9.77344 0.828125C10.9422 0.828363 11.8964 1.77337 11.8965 2.93945V6.78125C11.8965 6.953 11.7798 7.10346 11.6133 7.14551C11.4469 7.18746 11.273 7.11093 11.1914 6.95996C11.1616 6.90458 11.1061 6.87109 11.0469 6.87109C10.9942 6.87119 10.9453 6.89656 10.9131 6.94141C10.8182 7.07387 10.6483 7.1299 10.4932 7.08008C10.3384 7.03018 10.2336 6.88625 10.2334 6.72363V2.93945C10.2334 2.69338 10.0297 2.48656 9.77344 2.48633C9.76599 2.48633 9.75831 2.48383 9.75098 2.4834C9.3045 2.4717 8.94156 2.10841 8.94141 1.65723C8.94141 1.1985 9.31681 0.828125 9.77344 0.828125Z" fill="white" stroke="#53686F" stroke-width="0.75" stroke-linejoin="round"/>
<path d="M5.08789 0.631836H5.09082L5.82324 0.719727C5.82939 0.720144 5.83565 0.719003 5.8418 0.719727C6.31133 0.775514 6.6658 1.17338 6.66602 1.64551C6.66602 2.00072 6.45129 2.51926 5.87305 2.57617C5.7462 2.589 5.55009 2.61083 5.38477 2.62891C5.30231 2.63792 5.22769 2.64639 5.17383 2.65234C5.14705 2.6553 5.12536 2.65751 5.11035 2.65918C5.10283 2.66001 5.09672 2.66069 5.09277 2.66113C5.09116 2.66131 5.08983 2.66103 5.08887 2.66113L5.08691 2.66211C5.05295 2.66588 5.01343 2.66892 4.96973 2.66895C4.69558 2.66895 4.44745 2.55884 4.26562 2.38574C4.15845 2.28368 4.12137 2.12871 4.1709 1.98926C4.22058 1.84972 4.34744 1.75159 4.49512 1.74023C4.51682 1.73856 4.55579 1.73633 4.59668 1.73633C4.63556 1.73607 4.67179 1.70203 4.67188 1.65723C4.67188 1.61234 4.63561 1.57839 4.59668 1.57812C4.57396 1.57812 4.57845 1.57955 4.51465 1.58301C4.36208 1.59126 4.21917 1.5065 4.1543 1.36816C4.08951 1.22999 4.11515 1.06611 4.21875 0.954102C4.40436 0.753981 4.67198 0.625 4.96973 0.625C5.01179 0.625021 5.05296 0.627954 5.08789 0.631836Z" fill="#53686F" stroke="#53686F" stroke-width="0.75" stroke-linejoin="round"/>
<path d="M4.5957 0.830078C5.05397 0.83015 5.42188 1.20499 5.42188 1.65918C5.42172 2.11325 5.05388 2.48723 4.5957 2.4873C4.35568 2.4873 4.15241 2.68712 4.15234 2.94043V6.75684C4.1523 6.9245 4.04022 7.07144 3.87891 7.11719C3.71766 7.16276 3.54598 7.09577 3.45801 6.95312C3.42715 6.90329 3.37489 6.87327 3.31836 6.87207C3.3172 6.87208 3.31561 6.87305 3.31445 6.87305C3.25952 6.87319 3.2097 6.89941 3.17871 6.94238C3.08354 7.07433 2.91459 7.13007 2.75977 7.08008C2.60504 7.0301 2.50013 6.88621 2.5 6.72363V2.94141C2.50004 1.77974 3.43702 0.830078 4.5957 0.830078Z" fill="white" stroke="#53686F" stroke-width="0.75" stroke-linejoin="round"/>
<path d="M6.0459 9.5918C6.19789 9.59181 6.35096 9.62785 6.48828 9.69727L6.4873 9.69824L7.18359 10.0479L7.80371 9.73535V9.73438C7.94102 9.66496 8.09411 9.62892 8.24609 9.62891C8.61916 9.62891 8.9575 9.83794 9.125 10.1709C9.24296 10.4053 9.26307 10.6741 9.18066 10.9229C9.09858 11.1716 8.92313 11.374 8.68848 11.4922L8.11816 11.7812V12.2734C8.11795 12.8033 7.69653 13.2434 7.16406 13.2529C7.15821 13.2532 7.1524 13.2549 7.14648 13.2549C6.60444 13.2549 6.17505 12.8097 6.1748 12.2744V11.7441L5.60352 11.4561H5.60254C5.11955 11.2115 4.9244 10.62 5.16699 10.1348L5.2373 10.0156C5.419 9.75236 5.71814 9.5918 6.0459 9.5918Z" fill="white" stroke="#53686F" stroke-width="0.75" stroke-linejoin="round"/>
</svg>
