<svg width="18" height="20" viewBox="0 0 18 20" fill="none" xmlns="http://www.w3.org/2000/svg">
<path d="M5.36711 0.740209L4.51365 0.639057C4.4852 0.635896 4.45464 0.633789 4.42619 0.633789C4.21335 0.633789 4.02159 0.725457 3.88672 0.870862C3.9257 0.868755 3.96364 0.86454 4.00262 0.86454C4.285 0.86454 4.5147 1.09635 4.5147 1.37978C4.5147 1.66321 4.285 1.89502 4.00262 1.89502C3.97523 1.89502 3.94783 1.89713 3.92044 1.89923C4.05214 2.02462 4.23021 2.10259 4.42619 2.10259C4.45569 2.10259 4.48414 2.10048 4.51259 2.09732C4.51259 2.09732 5.11844 2.02989 5.41031 2.00038C5.76539 1.96561 5.9266 1.64741 5.9266 1.36714C5.9266 1.04682 5.68637 0.776033 5.36711 0.738101V0.740209Z" fill="#310A5C" stroke="#310A5C" stroke-width="0.468293" stroke-linejoin="round"/>
<path d="M11.3247 6.87305C10.9865 6.87305 10.7115 7.147 10.7115 7.48417V8.15324C10.7115 9.03832 10.2184 9.83488 9.42393 10.2321L8.16797 10.8611C8.4219 10.8685 8.64949 11.0118 8.76434 11.2415C8.84758 11.4069 8.86128 11.5945 8.80333 11.7705C8.78015 11.841 8.74432 11.9043 8.70112 11.9622L9.975 11.3248C11.1856 10.7189 11.938 9.50403 11.938 8.1543V7.48522C11.938 7.14805 11.663 6.8741 11.3247 6.8741V6.87305Z" fill="#310A5C" stroke="#310A5C" stroke-width="0.468293" stroke-linejoin="round"/>
<path d="M5.0294 11.1963C5.14319 10.9687 5.36868 10.8254 5.6205 10.8159L4.46148 10.2385C3.66175 9.84023 3.16442 9.04155 3.16442 8.15437V7.48425C3.16442 7.14707 2.88836 6.87207 2.54803 6.87207C2.2077 6.87207 1.93164 7.14707 1.93164 7.48425V8.15437C1.93164 9.50727 2.68922 10.7242 3.90831 11.3322L5.09472 11.9233C4.94194 11.72 4.90717 11.4386 5.02834 11.1963H5.0294Z" fill="#310A5C" stroke="#310A5C" stroke-width="0.468293" stroke-linejoin="round"/>
<path d="M2.54826 6.8732C2.77058 6.8732 2.96446 6.99226 3.07298 7.16822V2.83558C3.07298 2.31718 3.49023 1.89571 4.00231 1.89571C4.28469 1.89571 4.51439 1.66391 4.51439 1.38047C4.51439 1.09704 4.28469 0.865234 4.00231 0.865234C2.92547 0.865234 2.04883 1.74925 2.04883 2.83663V7.13029C2.16052 6.9754 2.3428 6.87425 2.54826 6.87425V6.8732Z" stroke="#310A5C" stroke-width="0.585366" stroke-linejoin="round"/>
<path d="M9.8778 1.89607C9.59225 1.89607 9.3594 1.66427 9.3594 1.38083C9.3594 1.0974 9.59225 0.865594 9.8778 0.865594C9.92837 0.865594 9.97684 0.869809 10.0264 0.87297C9.8915 0.726511 9.69973 0.633789 9.48584 0.633789C9.45739 0.633789 9.42683 0.635896 9.39838 0.639057L8.54387 0.740209C8.22461 0.77814 7.98438 1.04788 7.98438 1.36924C7.98438 1.64952 8.14559 1.96772 8.50067 2.00249C8.79148 2.03094 9.39733 2.09943 9.39733 2.09943C9.42683 2.10259 9.45528 2.1047 9.48478 2.1047C9.67971 2.1047 9.85567 2.02778 9.98738 1.9045C9.9505 1.90029 9.91468 1.89713 9.87675 1.89713L9.8778 1.89607Z" fill="#310A5C" stroke="#310A5C" stroke-width="0.468293" stroke-linejoin="round"/>
<path d="M9.87777 1.89677C10.4004 1.89677 10.8261 2.31823 10.8261 2.83663V7.13239C10.9378 6.97645 11.119 6.87425 11.3245 6.87425C11.5584 6.87425 11.7596 7.00701 11.8629 7.19878V2.83663C11.8629 1.75031 10.9725 0.865234 9.87777 0.865234C9.59223 0.865234 9.35938 1.09704 9.35938 1.38047C9.35938 1.66391 9.59223 1.89571 9.87777 1.89571V1.89677Z" stroke="#310A5C" stroke-width="0.585366" stroke-linejoin="round"/>
<path d="M13.7278 15.3544C13.5603 15.3544 13.397 15.3365 13.2389 15.3028V15.4924C13.2389 16.2468 12.9492 16.9602 12.4223 17.5007C11.8966 18.0412 11.1927 18.3489 10.4393 18.3657L10.3392 18.3679C10.3182 18.3679 10.275 18.3679 10.2739 18.3679C9.5195 18.3679 8.80618 18.077 8.26776 17.5492C7.71143 17.0034 7.40481 16.2732 7.40481 15.4935V13.8877C7.28048 14.031 7.09925 14.1227 6.89589 14.1227C6.70518 14.1227 6.53343 14.0415 6.41016 13.913V15.4945C6.41016 16.545 6.82319 17.5281 7.57339 18.2635C8.29936 18.9748 9.25925 19.3667 10.2739 19.3667C10.3045 19.3667 10.334 19.3667 10.3656 19.3667L10.4636 19.3646C11.4772 19.3404 12.4265 18.9263 13.1346 18.1982C13.8427 17.4701 14.2325 16.5103 14.2325 15.4935V15.2996C14.0692 15.3354 13.9006 15.3554 13.7268 15.3554L13.7278 15.3544Z" fill="#310A5C" stroke="#310A5C" stroke-width="0.468293" stroke-linejoin="round"/>
<path d="M13.7271 15.3532C12.4353 15.3532 11.3848 14.309 11.3848 13.0267C11.3848 11.7444 12.4353 10.7002 13.7271 10.7002C15.0188 10.7002 16.0693 11.7444 16.0693 13.0267C16.0693 14.309 15.0188 15.3532 13.7271 15.3532Z" stroke="#310A5C" stroke-width="0.585366" stroke-linejoin="round"/>
<path d="M6.8954 14.1219C6.52135 14.1219 6.21789 13.8132 6.21789 13.4338V12.5709L5.33493 12.1252C4.99565 11.9535 4.85762 11.5373 5.02831 11.1959C5.14632 10.9609 5.38234 10.8145 5.64576 10.8145C5.75218 10.8145 5.85965 10.8397 5.95553 10.8882L6.84588 11.3371C6.87433 11.3508 6.90594 11.3592 6.93754 11.3592C6.96915 11.3592 7.00182 11.3518 7.02921 11.3371L7.83421 10.9304C7.93009 10.8819 8.03756 10.8566 8.14398 10.8566C8.40634 10.8566 8.64342 11.0031 8.76143 11.238C8.84467 11.4034 8.85836 11.591 8.80041 11.7659C8.74246 11.9419 8.62023 12.0841 8.45481 12.1674L7.64982 12.5741C7.62558 12.5867 7.59924 12.5983 7.5729 12.6099V13.4328C7.5729 13.8121 7.26839 14.1208 6.8954 14.1208V14.1219Z" stroke="#310A5C" stroke-width="0.585366" stroke-linejoin="round"/>
</svg>
