<svg width="284" height="284" viewBox="0 0 284 284" fill="none" xmlns="http://www.w3.org/2000/svg">
<g opacity="0.9" clip-path="url(#clip0_2138_26029)">
<path d="M79.4978 251.651C159.952 288.756 209.162 264.493 252.933 205.149C301.802 138.892 271.082 96.1969 202.982 41.4916C134.882 -13.2137 38.2827 -3.61394 16.4298 91.7877C-6.6877 192.712 12.9896 220.979 79.4978 251.651Z" fill="#CDEEF7"/>
<rect x="200.955" y="64.097" width="78.8198" height="39.821" rx="3.94869" fill="white"/>
<rect x="200.955" y="64.097" width="78.8198" height="39.821" rx="3.94869" stroke="#CDEEF7" stroke-width="1.2963"/>
<path d="M213.388 71.4152C213.28 71.5811 213.15 71.6821 212.999 71.7182C212.854 71.7542 212.714 71.7434 212.577 71.6857C212.44 71.628 212.324 71.5342 212.23 71.4044C212.144 71.2673 212.108 71.1122 212.122 70.9391C212.129 70.8237 212.158 70.6975 212.209 70.5604C212.259 70.4233 212.321 70.2935 212.393 70.1709C212.472 70.041 212.555 69.922 212.642 69.8138C212.735 69.6984 212.829 69.601 212.923 69.5217C213.096 69.3846 213.291 69.2656 213.507 69.1646C213.731 69.0636 213.962 68.9879 214.2 68.9374C214.445 68.8869 214.687 68.8652 214.925 68.8724C215.17 68.8797 215.397 68.9157 215.606 68.9806C216.183 69.161 216.631 69.4459 216.948 69.8354C217.265 70.225 217.424 70.7299 217.424 71.3503C217.424 71.646 217.395 71.9129 217.338 72.151C217.287 72.3818 217.193 72.6054 217.056 72.8218C216.926 73.0382 216.75 73.2582 216.526 73.4818C216.31 73.7055 216.039 73.9507 215.715 74.2176C215.606 74.3114 215.495 74.4052 215.379 74.4989C215.264 74.5927 215.148 74.6865 215.033 74.7803C214.997 74.8091 214.928 74.8524 214.827 74.9101C214.726 74.9678 214.636 75.0255 214.557 75.0832C214.477 75.1409 214.431 75.195 214.416 75.2455C214.402 75.296 214.459 75.3249 214.589 75.3321C214.748 75.3465 214.874 75.3501 214.968 75.3429C215.062 75.3357 215.188 75.3321 215.347 75.3321C215.534 75.3321 215.718 75.3285 215.898 75.3213C216.079 75.3141 216.259 75.3177 216.439 75.3321C216.512 75.3393 216.591 75.3429 216.678 75.3429C216.764 75.3357 216.851 75.3357 216.937 75.3429C217.024 75.3429 217.107 75.3537 217.186 75.3754C217.265 75.3898 217.334 75.4223 217.392 75.4728C217.449 75.5233 217.493 75.5918 217.522 75.6783C217.55 75.7649 217.565 75.8587 217.565 75.9597C217.572 76.0534 217.565 76.1472 217.543 76.241C217.522 76.3276 217.485 76.3961 217.435 76.4466C217.341 76.5548 217.226 76.6089 217.089 76.6089C216.952 76.6017 216.822 76.5981 216.699 76.5981H212.815C212.743 76.5981 212.663 76.6017 212.577 76.6089C212.497 76.6161 212.425 76.6089 212.36 76.5872C212.23 76.5512 212.166 76.4826 212.166 76.3817C212.173 76.2807 212.176 76.1761 212.176 76.0679C212.176 75.8875 212.22 75.7216 212.306 75.5701C212.393 75.4114 212.501 75.2672 212.631 75.1373C212.768 75.0003 212.912 74.874 213.064 74.7586C213.215 74.6432 213.356 74.5314 213.486 74.4232C213.673 74.2573 213.875 74.0914 214.092 73.9255C214.308 73.7596 214.513 73.5937 214.708 73.4277C214.961 73.2186 215.174 73.0274 215.347 72.8543C215.527 72.6812 215.671 72.5189 215.779 72.3674C215.888 72.2159 215.967 72.068 216.018 71.9237C216.068 71.7723 216.093 71.6136 216.093 71.4477C216.093 71.0798 215.981 70.7984 215.758 70.6037C215.534 70.4017 215.249 70.3007 214.903 70.3007C214.651 70.3007 214.413 70.3548 214.189 70.463C213.972 70.5712 213.792 70.7299 213.648 70.9391C213.605 71.0185 213.561 71.1014 213.518 71.188C213.482 71.2673 213.439 71.3431 213.388 71.4152Z" fill="black"/>
<path d="M210.414 69.7059C210.688 69.9583 210.89 70.2613 211.02 70.6148C211.149 70.961 211.2 71.3073 211.171 71.6535C211.142 71.9853 211.038 72.2919 210.857 72.5732C210.677 72.8473 210.403 73.0565 210.035 73.2008C209.746 73.3234 209.461 73.41 209.18 73.4605C208.899 73.511 208.589 73.5507 208.25 73.5795C208.098 73.5939 207.968 73.6048 207.86 73.612C207.759 73.612 207.64 73.6156 207.503 73.6228C207.474 73.6228 207.424 73.6228 207.352 73.6228C207.287 73.6228 207.24 73.6264 207.211 73.6336V75.8734C207.189 76.0104 207.16 76.1511 207.124 76.2954C207.095 76.4396 207.013 76.5515 206.875 76.6308C206.796 76.6741 206.699 76.6993 206.583 76.7065C206.468 76.7138 206.363 76.7101 206.27 76.6957C206.169 76.6813 206.082 76.656 206.01 76.62C205.945 76.5767 205.891 76.5046 205.848 76.4036C205.819 76.3387 205.79 76.2665 205.761 76.1872C205.739 76.1006 205.729 75.996 205.729 75.8734V69.8898C205.729 69.8393 205.732 69.7924 205.739 69.7492C205.747 69.7059 205.754 69.6626 205.761 69.6193C205.775 69.5832 205.786 69.5436 205.793 69.5003C205.801 69.457 205.811 69.4173 205.826 69.3813C205.84 69.3452 205.855 69.3127 205.869 69.2839C205.891 69.255 205.916 69.2298 205.945 69.2081C205.981 69.1721 206.035 69.1396 206.107 69.1108C206.187 69.0819 206.302 69.0675 206.453 69.0675H206.475C206.699 69.0531 206.948 69.0422 207.222 69.035C207.496 69.0206 207.723 69.0242 207.903 69.0458C208.004 69.0603 208.098 69.0711 208.185 69.0783C208.271 69.0783 208.354 69.0819 208.434 69.0891C208.52 69.0963 208.607 69.1036 208.693 69.1108C208.78 69.118 208.866 69.1288 208.953 69.1432C209.025 69.1577 209.09 69.1685 209.148 69.1757C209.213 69.1829 209.278 69.1937 209.342 69.2081C209.4 69.2226 209.461 69.237 209.526 69.2514C209.599 69.2659 209.663 69.2911 209.721 69.3272C209.873 69.3704 209.999 69.4246 210.1 69.4895C210.201 69.5544 210.305 69.6265 210.414 69.7059ZM209.764 71.4912C209.772 71.3181 209.736 71.1666 209.656 71.0368C209.584 70.9069 209.48 70.7987 209.342 70.7122C209.205 70.6256 209.05 70.5571 208.877 70.5066C208.704 70.4561 208.531 70.42 208.358 70.3984C208.315 70.3984 208.253 70.3984 208.174 70.3984C208.102 70.3912 208.022 70.3875 207.936 70.3875C207.849 70.3803 207.766 70.3767 207.687 70.3767C207.615 70.3695 207.557 70.3659 207.514 70.3659C207.478 70.3587 207.434 70.3551 207.384 70.3551C207.334 70.3551 207.276 70.3551 207.211 70.3551C207.218 70.5787 207.222 70.7951 207.222 71.0043C207.222 71.2063 207.222 71.4263 207.222 71.6643C207.214 71.7942 207.211 71.924 207.211 72.0539C207.211 72.1837 207.211 72.3099 207.211 72.4326L207.882 72.4217C208.055 72.4217 208.246 72.4109 208.455 72.3893C208.664 72.3676 208.863 72.3244 209.05 72.2594C209.238 72.1945 209.397 72.1007 209.526 71.9781C209.663 71.8555 209.743 71.6932 209.764 71.4912Z" fill="black"/>
<rect x="205.729" y="78.7725" width="55.284" height="1.65027" fill="#CCCCCC"/>
<g clip-path="url(#clip1_2138_26029)">
<path d="M208.479 82.486H208.342V82.2109H208.067V82.486H206.692V82.2109H206.416V82.486H206.279C206.128 82.486 206.004 82.6098 206.004 82.761V84.9614C206.004 85.1127 206.128 85.2364 206.279 85.2364H208.479C208.631 85.2364 208.754 85.1127 208.754 84.9614V82.761C208.754 82.6098 208.631 82.486 208.479 82.486ZM208.479 84.9614H206.279V83.4486H208.479V84.9614ZM208.479 83.1736H206.279V82.761H208.479V83.1736Z" fill="#999CA4"/>
</g>
<rect x="210.68" y="82.8984" width="20.6284" height="1.65027" fill="#CCCCCC"/>
<mask id="mask0_2138_26029" style="mask-type:alpha" maskUnits="userSpaceOnUse" x="234" y="81" width="6" height="6">
<rect x="234.133" y="81.5977" width="4.95081" height="4.95081" fill="#D9D9D9"/>
</mask>
<g mask="url(#mask0_2138_26029)">
<path d="M237.502 84.5198C237.502 84.7582 237.419 84.9611 237.251 85.1284C237.084 85.2957 236.881 85.3794 236.643 85.3794C236.404 85.3794 236.202 85.2957 236.034 85.1284C235.867 84.9611 235.783 84.7582 235.783 84.5198V83.2478C235.783 83.0759 235.843 82.9297 235.964 82.8094C236.084 82.6891 236.23 82.6289 236.402 82.6289C236.574 82.6289 236.72 82.6891 236.84 82.8094C236.961 82.9297 237.021 83.0759 237.021 83.2478V84.4511C237.021 84.5565 236.984 84.6459 236.911 84.7192C236.838 84.7926 236.748 84.8293 236.643 84.8293C236.537 84.8293 236.448 84.7926 236.375 84.7192C236.301 84.6459 236.265 84.5565 236.265 84.4511V83.179H236.54V84.4511C236.54 84.4809 236.549 84.5055 236.569 84.525C236.588 84.5445 236.613 84.5542 236.643 84.5542C236.673 84.5542 236.697 84.5445 236.717 84.525C236.736 84.5055 236.746 84.4809 236.746 84.4511V83.2478C236.744 83.1515 236.71 83.0701 236.644 83.0037C236.579 82.9372 236.498 82.904 236.402 82.904C236.306 82.904 236.224 82.9372 236.158 83.0037C236.091 83.0701 236.058 83.1515 236.058 83.2478V84.5198C236.056 84.6826 236.112 84.8207 236.227 84.9341C236.341 85.0476 236.48 85.1043 236.643 85.1043C236.803 85.1043 236.94 85.0476 237.052 84.9341C237.164 84.8207 237.223 84.6826 237.227 84.5198V83.179H237.502V84.5198Z" fill="#999CA4"/>
</g>
<rect x="240.383" y="83.3105" width="20.6284" height="1.65027" fill="#CCCCCC"/>
<path d="M274.279 84.5484C274.08 84.5484 273.91 84.4777 273.769 84.3363C273.627 84.1949 273.557 84.025 273.557 83.8264C273.557 83.6279 273.627 83.4579 273.769 83.3165C273.91 83.1751 274.08 83.1044 274.279 83.1044C274.477 83.1044 274.647 83.1751 274.789 83.3165C274.93 83.4579 275.001 83.6279 275.001 83.8264C275.001 84.025 274.93 84.1949 274.789 84.3363C274.647 84.4777 274.477 84.5484 274.279 84.5484ZM274.279 82.3824C274.08 82.3824 273.91 82.3117 273.769 82.1703C273.627 82.0289 273.557 81.859 273.557 81.6604C273.557 81.4619 273.627 81.2919 273.769 81.1505C273.91 81.0091 274.08 80.9384 274.279 80.9384C274.477 80.9384 274.647 81.0091 274.789 81.1505C274.93 81.2919 275.001 81.4619 275.001 81.6604C275.001 81.859 274.93 82.0289 274.789 82.1703C274.647 82.3117 274.477 82.3824 274.279 82.3824ZM274.279 80.2164C274.08 80.2164 273.91 80.1458 273.769 80.0044C273.627 79.863 273.557 79.693 273.557 79.4945C273.557 79.2959 273.627 79.1259 273.769 78.9845C273.91 78.8432 274.08 78.7725 274.279 78.7725C274.477 78.7725 274.647 78.8432 274.789 78.9845C274.93 79.1259 275.001 79.2959 275.001 79.4945C275.001 79.693 274.93 79.863 274.789 80.0044C274.647 80.1458 274.477 80.2164 274.279 80.2164Z" fill="#CCCCCC"/>
<rect x="205.729" y="88.2617" width="69.2722" height="1.65027" fill="#EDF0F1"/>
<rect x="205.729" y="91.9746" width="69.2722" height="1.65027" fill="#EDF0F1"/>
<rect x="205.729" y="95.6875" width="69.2722" height="1.65027" fill="#EDF0F1"/>
<path d="M68.2793 34.0027V227.137C68.2793 229.15 69.7007 230.885 71.6773 231.283L121.359 241.304L134.882 113.425L121.776 23.2959L71.9661 29.8084C69.8573 30.0846 68.2793 31.8784 68.2793 34.0027Z" fill="#444444"/>
<path d="M207.115 26.648L123.383 23.3C120.088 23.168 117.41 25.6256 117.41 28.7882V236.389C117.41 239.552 120.088 241.963 123.383 241.774L207.115 236.986C210.16 236.811 212.622 234.215 212.622 231.186V32.3534C212.622 29.3238 210.16 26.7697 207.115 26.648Z" fill="#282727"/>
<path d="M123.174 142.928V32.8747C123.174 30.6268 125.073 28.8751 127.411 28.9631L203.366 31.814C205.544 31.8954 207.307 33.7164 207.307 35.8801V145.383C207.307 147.547 205.544 149.253 203.366 149.193L127.411 147.114C125.073 147.05 123.174 145.175 123.174 142.927V142.928Z" fill="#20B0FE"/>
<path d="M131.072 34.5034C131.072 35.5399 130.198 36.3506 129.12 36.3132C128.04 36.2757 127.164 35.4041 127.164 34.3658C127.164 33.3275 128.04 32.5167 129.12 32.5561C130.198 32.5944 131.072 33.467 131.072 34.5034Z" fill="#E44A69"/>
<path d="M137.24 34.7194C137.24 35.7531 136.371 36.561 135.298 36.5245C134.225 36.488 133.354 35.6182 133.354 34.5828C133.354 33.5473 134.225 32.7393 135.298 32.7777C136.371 32.8161 137.24 33.6858 137.24 34.7194Z" fill="#F5DC46"/>
<path d="M143.375 34.9355C143.375 35.9663 142.51 36.7724 141.444 36.7359C140.376 36.6994 139.51 35.8324 139.51 34.7998C139.51 33.7671 140.376 32.961 141.444 32.9994C142.511 33.0377 143.375 33.9047 143.375 34.9355Z" fill="#57CF85"/>
<path d="M203.002 56.7051C203.002 58.3125 201.674 59.6024 200.067 59.5557L149.996 58.1034C148.454 58.0586 147.227 56.7956 147.227 55.2527V36.1642C147.227 34.549 148.567 33.2562 150.181 33.3142L200.252 35.1146C201.786 35.1697 203.002 36.4294 203.002 37.9646V56.7051Z" fill="#282727"/>
<rect x="201.604" y="64.7451" width="77.5235" height="38.5247" rx="3.30054" fill="white"/>
<path d="M213.388 71.4152C213.28 71.5811 213.15 71.6821 212.999 71.7182C212.854 71.7542 212.714 71.7434 212.577 71.6857C212.44 71.628 212.324 71.5342 212.23 71.4044C212.144 71.2673 212.108 71.1122 212.122 70.9391C212.129 70.8237 212.158 70.6975 212.209 70.5604C212.259 70.4233 212.321 70.2935 212.393 70.1709C212.472 70.041 212.555 69.922 212.642 69.8138C212.735 69.6984 212.829 69.601 212.923 69.5217C213.096 69.3846 213.291 69.2656 213.507 69.1646C213.731 69.0636 213.962 68.9879 214.2 68.9374C214.445 68.8869 214.687 68.8652 214.925 68.8724C215.17 68.8797 215.397 68.9157 215.606 68.9806C216.183 69.161 216.631 69.4459 216.948 69.8354C217.265 70.225 217.424 70.7299 217.424 71.3503C217.424 71.646 217.395 71.9129 217.338 72.151C217.287 72.3818 217.193 72.6054 217.056 72.8218C216.926 73.0382 216.75 73.2582 216.526 73.4818C216.31 73.7055 216.039 73.9507 215.715 74.2176C215.606 74.3114 215.495 74.4052 215.379 74.4989C215.264 74.5927 215.148 74.6865 215.033 74.7803C214.997 74.8091 214.928 74.8524 214.827 74.9101C214.726 74.9678 214.636 75.0255 214.557 75.0832C214.477 75.1409 214.431 75.195 214.416 75.2455C214.402 75.296 214.459 75.3249 214.589 75.3321C214.748 75.3465 214.874 75.3501 214.968 75.3429C215.062 75.3357 215.188 75.3321 215.347 75.3321C215.534 75.3321 215.718 75.3285 215.898 75.3213C216.079 75.3141 216.259 75.3177 216.439 75.3321C216.512 75.3393 216.591 75.3429 216.678 75.3429C216.764 75.3357 216.851 75.3357 216.937 75.3429C217.024 75.3429 217.107 75.3537 217.186 75.3754C217.265 75.3898 217.334 75.4223 217.392 75.4728C217.449 75.5233 217.493 75.5918 217.522 75.6783C217.55 75.7649 217.565 75.8587 217.565 75.9597C217.572 76.0534 217.565 76.1472 217.543 76.241C217.522 76.3276 217.485 76.3961 217.435 76.4466C217.341 76.5548 217.226 76.6089 217.089 76.6089C216.952 76.6017 216.822 76.5981 216.699 76.5981H212.815C212.743 76.5981 212.663 76.6017 212.577 76.6089C212.497 76.6161 212.425 76.6089 212.36 76.5872C212.23 76.5512 212.166 76.4826 212.166 76.3817C212.173 76.2807 212.176 76.1761 212.176 76.0679C212.176 75.8875 212.22 75.7216 212.306 75.5701C212.393 75.4114 212.501 75.2672 212.631 75.1373C212.768 75.0003 212.912 74.874 213.064 74.7586C213.215 74.6432 213.356 74.5314 213.486 74.4232C213.673 74.2573 213.875 74.0914 214.092 73.9255C214.308 73.7596 214.513 73.5937 214.708 73.4277C214.961 73.2186 215.174 73.0274 215.347 72.8543C215.527 72.6812 215.671 72.5189 215.779 72.3674C215.888 72.2159 215.967 72.068 216.018 71.9237C216.068 71.7723 216.093 71.6136 216.093 71.4477C216.093 71.0798 215.981 70.7984 215.758 70.6037C215.534 70.4017 215.249 70.3007 214.903 70.3007C214.651 70.3007 214.413 70.3548 214.189 70.463C213.972 70.5712 213.792 70.7299 213.648 70.9391C213.605 71.0185 213.561 71.1014 213.518 71.188C213.482 71.2673 213.439 71.3431 213.388 71.4152Z" fill="black"/>
<path d="M210.414 69.7059C210.688 69.9583 210.89 70.2613 211.02 70.6148C211.149 70.961 211.2 71.3073 211.171 71.6535C211.142 71.9853 211.038 72.2919 210.857 72.5732C210.677 72.8473 210.403 73.0565 210.035 73.2008C209.746 73.3234 209.461 73.41 209.18 73.4605C208.899 73.511 208.589 73.5507 208.25 73.5795C208.098 73.5939 207.968 73.6048 207.86 73.612C207.759 73.612 207.64 73.6156 207.503 73.6228C207.474 73.6228 207.424 73.6228 207.352 73.6228C207.287 73.6228 207.24 73.6264 207.211 73.6336V75.8734C207.189 76.0104 207.16 76.1511 207.124 76.2954C207.095 76.4396 207.013 76.5515 206.875 76.6308C206.796 76.6741 206.699 76.6993 206.583 76.7065C206.468 76.7138 206.363 76.7101 206.27 76.6957C206.169 76.6813 206.082 76.656 206.01 76.62C205.945 76.5767 205.891 76.5046 205.848 76.4036C205.819 76.3387 205.79 76.2665 205.761 76.1872C205.739 76.1006 205.729 75.996 205.729 75.8734V69.8898C205.729 69.8393 205.732 69.7924 205.739 69.7492C205.747 69.7059 205.754 69.6626 205.761 69.6193C205.775 69.5832 205.786 69.5436 205.793 69.5003C205.801 69.457 205.811 69.4173 205.826 69.3813C205.84 69.3452 205.855 69.3127 205.869 69.2839C205.891 69.255 205.916 69.2298 205.945 69.2081C205.981 69.1721 206.035 69.1396 206.107 69.1108C206.187 69.0819 206.302 69.0675 206.453 69.0675H206.475C206.699 69.0531 206.948 69.0422 207.222 69.035C207.496 69.0206 207.723 69.0242 207.903 69.0458C208.004 69.0603 208.098 69.0711 208.185 69.0783C208.271 69.0783 208.354 69.0819 208.434 69.0891C208.52 69.0963 208.607 69.1036 208.693 69.1108C208.78 69.118 208.866 69.1288 208.953 69.1432C209.025 69.1577 209.09 69.1685 209.148 69.1757C209.213 69.1829 209.278 69.1937 209.342 69.2081C209.4 69.2226 209.461 69.237 209.526 69.2514C209.599 69.2659 209.663 69.2911 209.721 69.3272C209.873 69.3704 209.999 69.4246 210.1 69.4895C210.201 69.5544 210.305 69.6265 210.414 69.7059ZM209.764 71.4912C209.772 71.3181 209.736 71.1666 209.656 71.0368C209.584 70.9069 209.48 70.7987 209.342 70.7122C209.205 70.6256 209.05 70.5571 208.877 70.5066C208.704 70.4561 208.531 70.42 208.358 70.3984C208.315 70.3984 208.253 70.3984 208.174 70.3984C208.102 70.3912 208.022 70.3875 207.936 70.3875C207.849 70.3803 207.766 70.3767 207.687 70.3767C207.615 70.3695 207.557 70.3659 207.514 70.3659C207.478 70.3587 207.434 70.3551 207.384 70.3551C207.334 70.3551 207.276 70.3551 207.211 70.3551C207.218 70.5787 207.222 70.7951 207.222 71.0043C207.222 71.2063 207.222 71.4263 207.222 71.6643C207.214 71.7942 207.211 71.924 207.211 72.0539C207.211 72.1837 207.211 72.3099 207.211 72.4326L207.882 72.4217C208.055 72.4217 208.246 72.4109 208.455 72.3893C208.664 72.3676 208.863 72.3244 209.05 72.2594C209.238 72.1945 209.397 72.1007 209.526 71.9781C209.663 71.8555 209.743 71.6932 209.764 71.4912Z" fill="black"/>
<rect x="205.729" y="78.7725" width="55.284" height="1.65027" fill="#CCCCCC"/>
<g clip-path="url(#clip2_2138_26029)">
<path d="M208.479 82.486H208.342V82.2109H208.067V82.486H206.692V82.2109H206.416V82.486H206.279C206.128 82.486 206.004 82.6098 206.004 82.761V84.9614C206.004 85.1127 206.128 85.2364 206.279 85.2364H208.479C208.631 85.2364 208.754 85.1127 208.754 84.9614V82.761C208.754 82.6098 208.631 82.486 208.479 82.486ZM208.479 84.9614H206.279V83.4486H208.479V84.9614ZM208.479 83.1736H206.279V82.761H208.479V83.1736Z" fill="#999CA4"/>
</g>
<rect x="210.68" y="82.8984" width="20.6284" height="1.65027" fill="#CCCCCC"/>
<mask id="mask1_2138_26029" style="mask-type:alpha" maskUnits="userSpaceOnUse" x="234" y="81" width="6" height="6">
<rect x="234.133" y="81.5977" width="4.95081" height="4.95081" fill="#D9D9D9"/>
</mask>
<g mask="url(#mask1_2138_26029)">
<path d="M237.502 84.5198C237.502 84.7582 237.419 84.9611 237.251 85.1284C237.084 85.2957 236.881 85.3794 236.643 85.3794C236.404 85.3794 236.202 85.2957 236.034 85.1284C235.867 84.9611 235.783 84.7582 235.783 84.5198V83.2478C235.783 83.0759 235.843 82.9297 235.964 82.8094C236.084 82.6891 236.23 82.6289 236.402 82.6289C236.574 82.6289 236.72 82.6891 236.84 82.8094C236.961 82.9297 237.021 83.0759 237.021 83.2478V84.4511C237.021 84.5565 236.984 84.6459 236.911 84.7192C236.838 84.7926 236.748 84.8293 236.643 84.8293C236.537 84.8293 236.448 84.7926 236.375 84.7192C236.301 84.6459 236.265 84.5565 236.265 84.4511V83.179H236.54V84.4511C236.54 84.4809 236.549 84.5055 236.569 84.525C236.588 84.5445 236.613 84.5542 236.643 84.5542C236.673 84.5542 236.697 84.5445 236.717 84.525C236.736 84.5055 236.746 84.4809 236.746 84.4511V83.2478C236.744 83.1515 236.71 83.0701 236.644 83.0037C236.579 82.9372 236.498 82.904 236.402 82.904C236.306 82.904 236.224 82.9372 236.158 83.0037C236.091 83.0701 236.058 83.1515 236.058 83.2478V84.5198C236.056 84.6826 236.112 84.8207 236.227 84.9341C236.341 85.0476 236.48 85.1043 236.643 85.1043C236.803 85.1043 236.94 85.0476 237.052 84.9341C237.164 84.8207 237.223 84.6826 237.227 84.5198V83.179H237.502V84.5198Z" fill="#999CA4"/>
</g>
<rect x="240.383" y="83.3105" width="20.6284" height="1.65027" fill="#CCCCCC"/>
<path d="M274.279 84.5484C274.08 84.5484 273.91 84.4777 273.769 84.3363C273.627 84.1949 273.557 84.025 273.557 83.8264C273.557 83.6279 273.627 83.4579 273.769 83.3165C273.91 83.1751 274.08 83.1044 274.279 83.1044C274.477 83.1044 274.647 83.1751 274.789 83.3165C274.93 83.4579 275.001 83.6279 275.001 83.8264C275.001 84.025 274.93 84.1949 274.789 84.3363C274.647 84.4777 274.477 84.5484 274.279 84.5484ZM274.279 82.3824C274.08 82.3824 273.91 82.3117 273.769 82.1703C273.627 82.0289 273.557 81.859 273.557 81.6604C273.557 81.4619 273.627 81.2919 273.769 81.1505C273.91 81.0091 274.08 80.9384 274.279 80.9384C274.477 80.9384 274.647 81.0091 274.789 81.1505C274.93 81.2919 275.001 81.4619 275.001 81.6604C275.001 81.859 274.93 82.0289 274.789 82.1703C274.647 82.3117 274.477 82.3824 274.279 82.3824ZM274.279 80.2164C274.08 80.2164 273.91 80.1458 273.769 80.0044C273.627 79.863 273.557 79.693 273.557 79.4945C273.557 79.2959 273.627 79.1259 273.769 78.9845C273.91 78.8432 274.08 78.7725 274.279 78.7725C274.477 78.7725 274.647 78.8432 274.789 78.9845C274.93 79.1259 275.001 79.2959 275.001 79.4945C275.001 79.693 274.93 79.863 274.789 80.0044C274.647 80.1458 274.477 80.2164 274.279 80.2164Z" fill="#CCCCCC"/>
<rect x="205.729" y="88.2617" width="69.2722" height="1.65027" fill="#EDF0F1"/>
<rect x="205.729" y="91.9746" width="69.2722" height="1.65027" fill="#EDF0F1"/>
<rect x="205.729" y="95.6875" width="69.2722" height="1.65027" fill="#EDF0F1"/>
<rect x="201.604" y="64.7451" width="77.5235" height="38.5247" rx="3.30054" fill="white"/>
<path d="M213.388 71.4152C213.28 71.5811 213.15 71.6821 212.999 71.7182C212.854 71.7542 212.714 71.7434 212.577 71.6857C212.44 71.628 212.324 71.5342 212.23 71.4044C212.144 71.2673 212.108 71.1122 212.122 70.9391C212.129 70.8237 212.158 70.6975 212.209 70.5604C212.259 70.4233 212.321 70.2935 212.393 70.1709C212.472 70.041 212.555 69.922 212.642 69.8138C212.735 69.6984 212.829 69.601 212.923 69.5217C213.096 69.3846 213.291 69.2656 213.507 69.1646C213.731 69.0636 213.962 68.9879 214.2 68.9374C214.445 68.8869 214.687 68.8652 214.925 68.8724C215.17 68.8797 215.397 68.9157 215.606 68.9806C216.183 69.161 216.631 69.4459 216.948 69.8354C217.265 70.225 217.424 70.7299 217.424 71.3503C217.424 71.646 217.395 71.9129 217.338 72.151C217.287 72.3818 217.193 72.6054 217.056 72.8218C216.926 73.0382 216.75 73.2582 216.526 73.4818C216.31 73.7055 216.039 73.9507 215.715 74.2176C215.606 74.3114 215.495 74.4052 215.379 74.4989C215.264 74.5927 215.148 74.6865 215.033 74.7803C214.997 74.8091 214.928 74.8524 214.827 74.9101C214.726 74.9678 214.636 75.0255 214.557 75.0832C214.477 75.1409 214.431 75.195 214.416 75.2455C214.402 75.296 214.459 75.3249 214.589 75.3321C214.748 75.3465 214.874 75.3501 214.968 75.3429C215.062 75.3357 215.188 75.3321 215.347 75.3321C215.534 75.3321 215.718 75.3285 215.898 75.3213C216.079 75.3141 216.259 75.3177 216.439 75.3321C216.512 75.3393 216.591 75.3429 216.678 75.3429C216.764 75.3357 216.851 75.3357 216.937 75.3429C217.024 75.3429 217.107 75.3537 217.186 75.3754C217.265 75.3898 217.334 75.4223 217.392 75.4728C217.449 75.5233 217.493 75.5918 217.522 75.6783C217.55 75.7649 217.565 75.8587 217.565 75.9597C217.572 76.0534 217.565 76.1472 217.543 76.241C217.522 76.3276 217.485 76.3961 217.435 76.4466C217.341 76.5548 217.226 76.6089 217.089 76.6089C216.952 76.6017 216.822 76.5981 216.699 76.5981H212.815C212.743 76.5981 212.663 76.6017 212.577 76.6089C212.497 76.6161 212.425 76.6089 212.36 76.5872C212.23 76.5512 212.166 76.4826 212.166 76.3817C212.173 76.2807 212.176 76.1761 212.176 76.0679C212.176 75.8875 212.22 75.7216 212.306 75.5701C212.393 75.4114 212.501 75.2672 212.631 75.1373C212.768 75.0003 212.912 74.874 213.064 74.7586C213.215 74.6432 213.356 74.5314 213.486 74.4232C213.673 74.2573 213.875 74.0914 214.092 73.9255C214.308 73.7596 214.513 73.5937 214.708 73.4277C214.961 73.2186 215.174 73.0274 215.347 72.8543C215.527 72.6812 215.671 72.5189 215.779 72.3674C215.888 72.2159 215.967 72.068 216.018 71.9237C216.068 71.7723 216.093 71.6136 216.093 71.4477C216.093 71.0798 215.981 70.7984 215.758 70.6037C215.534 70.4017 215.249 70.3007 214.903 70.3007C214.651 70.3007 214.413 70.3548 214.189 70.463C213.972 70.5712 213.792 70.7299 213.648 70.9391C213.605 71.0185 213.561 71.1014 213.518 71.188C213.482 71.2673 213.439 71.3431 213.388 71.4152Z" fill="black"/>
<path d="M210.414 69.7059C210.688 69.9583 210.89 70.2613 211.02 70.6148C211.149 70.961 211.2 71.3073 211.171 71.6535C211.142 71.9853 211.038 72.2919 210.857 72.5732C210.677 72.8473 210.403 73.0565 210.035 73.2008C209.746 73.3234 209.461 73.41 209.18 73.4605C208.899 73.511 208.589 73.5507 208.25 73.5795C208.098 73.5939 207.968 73.6048 207.86 73.612C207.759 73.612 207.64 73.6156 207.503 73.6228C207.474 73.6228 207.424 73.6228 207.352 73.6228C207.287 73.6228 207.24 73.6264 207.211 73.6336V75.8734C207.189 76.0104 207.16 76.1511 207.124 76.2954C207.095 76.4396 207.013 76.5515 206.875 76.6308C206.796 76.6741 206.699 76.6993 206.583 76.7065C206.468 76.7138 206.363 76.7101 206.27 76.6957C206.169 76.6813 206.082 76.656 206.01 76.62C205.945 76.5767 205.891 76.5046 205.848 76.4036C205.819 76.3387 205.79 76.2665 205.761 76.1872C205.739 76.1006 205.729 75.996 205.729 75.8734V69.8898C205.729 69.8393 205.732 69.7924 205.739 69.7492C205.747 69.7059 205.754 69.6626 205.761 69.6193C205.775 69.5832 205.786 69.5436 205.793 69.5003C205.801 69.457 205.811 69.4173 205.826 69.3813C205.84 69.3452 205.855 69.3127 205.869 69.2839C205.891 69.255 205.916 69.2298 205.945 69.2081C205.981 69.1721 206.035 69.1396 206.107 69.1108C206.187 69.0819 206.302 69.0675 206.453 69.0675H206.475C206.699 69.0531 206.948 69.0422 207.222 69.035C207.496 69.0206 207.723 69.0242 207.903 69.0458C208.004 69.0603 208.098 69.0711 208.185 69.0783C208.271 69.0783 208.354 69.0819 208.434 69.0891C208.52 69.0963 208.607 69.1036 208.693 69.1108C208.78 69.118 208.866 69.1288 208.953 69.1432C209.025 69.1577 209.09 69.1685 209.148 69.1757C209.213 69.1829 209.278 69.1937 209.342 69.2081C209.4 69.2226 209.461 69.237 209.526 69.2514C209.599 69.2659 209.663 69.2911 209.721 69.3272C209.873 69.3704 209.999 69.4246 210.1 69.4895C210.201 69.5544 210.305 69.6265 210.414 69.7059ZM209.764 71.4912C209.772 71.3181 209.736 71.1666 209.656 71.0368C209.584 70.9069 209.48 70.7987 209.342 70.7122C209.205 70.6256 209.05 70.5571 208.877 70.5066C208.704 70.4561 208.531 70.42 208.358 70.3984C208.315 70.3984 208.253 70.3984 208.174 70.3984C208.102 70.3912 208.022 70.3875 207.936 70.3875C207.849 70.3803 207.766 70.3767 207.687 70.3767C207.615 70.3695 207.557 70.3659 207.514 70.3659C207.478 70.3587 207.434 70.3551 207.384 70.3551C207.334 70.3551 207.276 70.3551 207.211 70.3551C207.218 70.5787 207.222 70.7951 207.222 71.0043C207.222 71.2063 207.222 71.4263 207.222 71.6643C207.214 71.7942 207.211 71.924 207.211 72.0539C207.211 72.1837 207.211 72.3099 207.211 72.4326L207.882 72.4217C208.055 72.4217 208.246 72.4109 208.455 72.3893C208.664 72.3676 208.863 72.3244 209.05 72.2594C209.238 72.1945 209.397 72.1007 209.526 71.9781C209.663 71.8555 209.743 71.6932 209.764 71.4912Z" fill="black"/>
<g clip-path="url(#clip3_2138_26029)">
<path d="M208.479 79.1852H208.342V78.9102H208.067V79.1852H206.692V78.9102H206.416V79.1852H206.279C206.128 79.1852 206.004 79.309 206.004 79.4602V81.6606C206.004 81.8119 206.128 81.9357 206.279 81.9357H208.479C208.631 81.9357 208.754 81.8119 208.754 81.6606V79.4602C208.754 79.309 208.631 79.1852 208.479 79.1852ZM208.479 81.6606H206.279V80.1479H208.479V81.6606ZM208.479 79.8728H206.279V79.4602H208.479V79.8728Z" fill="#999CA4"/>
</g>
<rect x="210.68" y="79.5977" width="20.6284" height="1.65027" fill="#CCCCCC"/>
<mask id="mask2_2138_26029" style="mask-type:alpha" maskUnits="userSpaceOnUse" x="234" y="78" width="6" height="6">
<rect x="234.133" y="78.2969" width="4.95081" height="4.95081" fill="#D9D9D9"/>
</mask>
<g mask="url(#mask2_2138_26029)">
<path d="M237.502 81.2191C237.502 81.4574 237.419 81.6603 237.251 81.8276C237.084 81.9949 236.881 82.0786 236.643 82.0786C236.404 82.0786 236.202 81.9949 236.034 81.8276C235.867 81.6603 235.783 81.4574 235.783 81.2191V79.947C235.783 79.7751 235.843 79.629 235.964 79.5086C236.084 79.3883 236.23 79.3281 236.402 79.3281C236.574 79.3281 236.72 79.3883 236.84 79.5086C236.961 79.629 237.021 79.7751 237.021 79.947V81.1503C237.021 81.2557 236.984 81.3451 236.911 81.4185C236.838 81.4918 236.748 81.5285 236.643 81.5285C236.537 81.5285 236.448 81.4918 236.375 81.4185C236.301 81.3451 236.265 81.2557 236.265 81.1503V79.8782H236.54V81.1503C236.54 81.1801 236.549 81.2047 236.569 81.2242C236.588 81.2437 236.613 81.2534 236.643 81.2534C236.673 81.2534 236.697 81.2437 236.717 81.2242C236.736 81.2047 236.746 81.1801 236.746 81.1503V79.947C236.744 79.8507 236.71 79.7693 236.644 79.7029C236.579 79.6364 236.498 79.6032 236.402 79.6032C236.306 79.6032 236.224 79.6364 236.158 79.7029C236.091 79.7693 236.058 79.8507 236.058 79.947V81.2191C236.056 81.3818 236.112 81.5199 236.227 81.6333C236.341 81.7468 236.48 81.8035 236.643 81.8035C236.803 81.8035 236.94 81.7468 237.052 81.6333C237.164 81.5199 237.223 81.3818 237.227 81.2191V79.8782H237.502V81.2191Z" fill="#999CA4"/>
</g>
<rect x="240.383" y="80.0098" width="20.6284" height="1.65027" fill="#CCCCCC"/>
<path d="M274.481 82.9206C274.339 82.9206 274.217 82.8698 274.115 82.7683C274.014 82.6668 273.963 82.5447 273.963 82.4021C273.963 82.2595 274.014 82.1374 274.115 82.0359C274.217 81.9343 274.339 81.8836 274.481 81.8836C274.624 81.8836 274.746 81.9343 274.848 82.0359C274.949 82.1374 275 82.2595 275 82.4021C275 82.5447 274.949 82.6668 274.848 82.7683C274.746 82.8698 274.624 82.9206 274.481 82.9206ZM274.481 81.3651C274.339 81.3651 274.217 81.3143 274.115 81.2127C274.014 81.1112 273.963 80.9891 273.963 80.8465C273.963 80.7039 274.014 80.5819 274.115 80.4803C274.217 80.3788 274.339 80.328 274.481 80.328C274.624 80.328 274.746 80.3788 274.848 80.4803C274.949 80.5819 275 80.7039 275 80.8465C275 80.9891 274.949 81.1112 274.848 81.2127C274.746 81.3143 274.624 81.3651 274.481 81.3651ZM274.481 79.8095C274.339 79.8095 274.217 79.7587 274.115 79.6572C274.014 79.5556 273.963 79.4336 273.963 79.291C273.963 79.1484 274.014 79.0263 274.115 78.9248C274.217 78.8232 274.339 78.7725 274.481 78.7725C274.624 78.7725 274.746 78.8232 274.848 78.9248C274.949 79.0263 275 79.1484 275 79.291C275 79.4336 274.949 79.5556 274.848 79.6572C274.746 79.7587 274.624 79.8095 274.481 79.8095Z" fill="#CCCCCC"/>
<rect x="205.729" y="84.9834" width="69.2722" height="14.1605" fill="#EDF0F1"/>
<path d="M144.075 102.594L30.4669 102.333C27.047 102.333 25.0628 105.464 25.3712 107.778L44.3546 250.114C44.7897 253.375 47.8866 254.301 51.5202 254.088L164.153 246.061C166.38 245.905 167.929 243.97 167.616 241.738L148.665 106.542C148.356 104.344 146.303 102.576 144.075 102.594Z" fill="#CCCCCC"/>
<path d="M145.918 101.275L30.8528 102.28C28.3924 102.301 26.6465 104.211 26.9578 106.546L46.1241 250.144C46.441 252.516 48.696 254.3 51.1573 254.126L166.192 246.025C168.425 245.867 169.975 243.914 169.659 241.661L150.523 105.256C150.212 103.037 148.152 101.255 145.919 101.275H145.918Z" fill="#EDF0F1"/>
<path opacity="0.74" d="M50.8922 252.159C49.5635 252.252 48.3427 251.285 48.1721 250.005L29.0058 106.526C28.8371 105.265 29.7822 104.23 31.1108 104.218L146.176 103.122C147.383 103.111 148.5 104.077 148.668 105.276L167.804 241.789C167.975 243.006 167.134 244.066 165.927 244.149L50.8912 252.158L50.8922 252.159Z" fill="white"/>
<path d="M153.06 233.486L59.5759 239.816C58.2632 239.906 57.1089 238.957 56.942 237.653L41.3857 116.353C41.1972 114.88 42.3337 113.572 43.8189 113.551L137.318 112.303C138.576 112.286 139.649 113.212 139.816 114.459L155.357 230.675C155.548 232.099 154.495 233.388 153.061 233.485L153.06 233.486Z" fill="#444444"/>
<g style="mix-blend-mode:multiply" opacity="0.3">
<path d="M98.9879 114.973L60.3751 117.367L60.0507 108.662C59.9625 107.533 60.6376 106.565 61.67 106.341L67.9681 104.976C68.7126 104.815 69.2995 104.268 69.533 103.519L70.0262 101.938L87.2919 102.005L98.9889 114.973H98.9879Z" fill="#CCCCCC"/>
</g>
<path d="M119.613 107.868C119.279 106.862 118.351 106.195 117.301 106.205L110.813 106.271C107.885 106.3 105.438 104.089 105.138 101.137L104.443 94.2988C104.314 93.034 103.264 92.0814 102.004 92.0861L99.9009 92.0945C98.3013 92.1011 97.0552 90.7819 97.057 89.1655C97.0608 86.3397 94.7992 84.0557 91.9844 84.0576C89.1574 84.0595 86.8433 86.3659 86.8143 89.2115C86.8096 89.6343 86.7252 90.0572 86.5452 90.4416C86.0426 91.5151 84.9934 92.1555 83.8823 92.1602L81.7604 92.1686C80.4777 92.1742 79.3919 93.1456 79.2419 94.4244L78.4309 101.348C78.0802 104.338 75.5373 106.625 72.5219 106.656L65.7859 106.724C64.6879 106.735 63.7062 107.438 63.3415 108.475L60.4348 116.741C60.1976 117.416 60.6955 118.109 61.4118 118.098L121.316 117.216C121.996 117.206 122.479 116.517 122.264 115.865L119.613 107.869V107.868ZM91.9413 89.9728C91.1115 89.9756 90.4439 89.3006 90.4504 88.4652C90.4561 87.6298 91.134 86.9519 91.9638 86.95C92.7927 86.9482 93.4593 87.6232 93.4528 88.4577C93.4462 89.2921 92.7702 89.97 91.9413 89.9728Z" fill="#444444"/>
<path d="M120.003 108.251C119.669 107.245 118.741 106.576 117.69 106.587L111.199 106.651C108.27 106.68 105.821 104.469 105.52 101.516L104.826 94.6756C104.697 93.4108 103.647 92.4573 102.386 92.462L100.282 92.4704C98.6814 92.477 97.4352 91.1578 97.4371 89.5405C97.4399 86.7137 95.1774 84.4298 92.3617 84.4316C89.5338 84.4335 87.2178 86.74 87.1887 89.5865C87.1841 90.0093 87.0997 90.4321 86.9196 90.8166C86.4171 91.8901 85.3679 92.5304 84.2558 92.5351L82.133 92.5436C80.8494 92.5483 79.7636 93.5205 79.6136 94.8003L78.8016 101.724C78.4509 104.716 75.9071 107.003 72.8898 107.033L66.151 107.1C65.053 107.112 64.0704 107.815 63.7056 108.852L60.798 117.118C60.5608 117.794 61.0596 118.487 61.775 118.476L121.706 117.599C122.387 117.589 122.871 116.9 122.654 116.248L120.002 108.251H120.003ZM92.3186 90.3478C91.4887 90.3506 90.8202 89.6755 90.8268 88.8401C90.8324 88.0048 91.5112 87.3269 92.3411 87.325C93.1699 87.3231 93.8375 87.9982 93.831 88.8326C93.8244 89.6671 93.1484 90.345 92.3186 90.3478Z" fill="#CCCCCC"/>
<path d="M53.9382 128.792L52.2218 128.819L51.4441 123.027L50.0764 123.053L49.8887 121.444L53.0264 121.391V121.632L53.9114 128.497L53.9382 128.792Z" fill="#E44A69"/>
<path d="M51.3354 132.918C52.1757 132.275 53.0965 132.23 54.0977 132.784C55.1168 133.374 55.7246 134.42 55.9213 135.922C56.118 137.424 55.7783 138.496 54.9022 139.14C54.0619 139.766 53.1322 139.766 52.1131 139.14C51.1477 138.55 50.5756 137.531 50.3968 136.083C50.2001 134.617 50.513 133.562 51.3354 132.918ZM53.749 134.474C53.4987 134.17 53.2037 134.018 52.864 134.018C52.5601 134.018 52.3277 134.17 52.1668 134.474C51.988 134.795 51.9433 135.305 52.0327 136.002C52.1221 136.682 52.3098 137.191 52.5959 137.531C52.8283 137.853 53.1143 138.005 53.454 137.987C53.7759 137.987 54.0083 137.844 54.1513 137.558C54.3301 137.218 54.3748 136.708 54.2854 136.029C54.196 135.332 54.0172 134.813 53.749 134.474Z" fill="#20B0FE"/>
<path d="M56.6323 150.944L55.1037 150.971L54.46 146.063L53.3069 146.09L53.1191 144.669L55.5864 144.615V144.857H55.8546L56.6323 150.944Z" fill="#2AF578"/>
<path d="M57.955 161.964L56.5337 161.991L55.9437 157.646H54.9246L54.7637 156.305L56.9896 156.278H57.2309L57.9282 161.669L57.955 161.964Z" fill="#20B0FE"/>
<path d="M56.3495 167.921C56.9752 167.439 57.6546 167.403 58.3876 167.814C59.1385 168.243 59.5855 168.994 59.7285 170.067C59.8716 171.175 59.6123 171.962 58.9508 172.427C58.3429 172.874 57.6636 172.874 56.9126 172.427L56.7786 172.346V172.319C56.1528 171.89 55.7773 171.184 55.6522 170.201C55.5092 169.146 55.7416 168.386 56.3495 167.921ZM58.039 169.101C57.8781 168.905 57.6904 168.815 57.4758 168.833C57.297 168.833 57.1629 168.922 57.0736 169.101C56.9484 169.316 56.9216 169.656 56.9931 170.12C57.0467 170.585 57.1629 170.934 57.3417 171.166C57.5026 171.363 57.6904 171.461 57.9049 171.461C58.0837 171.461 58.2178 171.372 58.3072 171.193C58.4323 170.961 58.4592 170.612 58.3876 170.147C58.334 169.682 58.2178 169.334 58.039 169.101Z" fill="#20B0FE"/>
<path d="M60.5839 183.943L59.3771 183.97L58.9748 180.805L58.2239 180.832L58.0898 179.706L59.7794 179.679V179.92H60.0476L60.5303 183.648L60.5839 183.943Z" fill="#20B0FE"/>
<path d="M61.8613 194.895L60.8154 194.921L60.4668 192.427H59.8768L59.7695 191.435L61.4054 191.408L61.8077 194.6L61.8613 194.895Z" fill="#2AF578"/>
<path d="M61.4946 203.155C61.8343 202.905 62.2008 202.887 62.5941 203.102C62.9874 203.334 63.2199 203.727 63.2914 204.282C63.3629 204.836 63.2288 205.247 62.8891 205.515C62.5315 205.766 62.1561 205.766 61.7627 205.515C61.4052 205.283 61.1906 204.898 61.1191 204.362C61.0476 203.826 61.1727 203.423 61.4946 203.155ZM62.0309 203.906C61.9058 204.139 61.9415 204.398 62.1382 204.684C62.2097 204.773 62.2723 204.818 62.3259 204.818C62.3259 204.818 62.3438 204.791 62.3796 204.738C62.5047 204.505 62.46 204.246 62.2455 203.96C62.1918 203.87 62.1382 203.826 62.0846 203.826C62.0846 203.826 62.0667 203.853 62.0309 203.906Z" fill="#20B0FE"/>
<path d="M64.386 216.755H63.6351L63.501 215.683H63.2328L63.1523 214.958L64.1714 214.932L64.3592 216.433L64.386 216.755Z" fill="#20B0FE"/>
<path d="M65.6897 227.093C65.7254 227.29 65.6718 227.442 65.5288 227.549C65.3857 227.656 65.2338 227.656 65.0729 227.549C64.8941 227.442 64.8047 227.308 64.8047 227.147C64.8047 226.986 64.8583 226.852 64.9656 226.744C65.1086 226.619 65.2606 226.592 65.4215 226.664C65.5824 226.736 65.6718 226.879 65.6897 227.093ZM65.1801 227.174H65.207C65.2606 227.191 65.3053 227.182 65.341 227.147C65.341 227.147 65.341 227.138 65.341 227.12V227.093C65.3053 227.075 65.2606 227.084 65.207 227.12C65.1891 227.138 65.1801 227.147 65.1801 227.147V227.174Z" fill="#20B0FE"/>
<path d="M61.0853 121.178C61.9792 120.463 62.9625 120.41 64.0353 121.018C65.1259 121.661 65.7785 122.788 65.993 124.397C66.2075 126.006 65.841 127.15 64.8935 127.829C63.9995 128.509 63.0072 128.509 61.9166 127.829C60.8797 127.204 60.2629 126.113 60.0662 124.558C59.8516 122.984 60.1913 121.858 61.0853 121.178ZM63.6866 122.814C63.4185 122.475 63.0966 122.305 62.7212 122.305C62.3636 122.305 62.1044 122.466 61.9435 122.788C61.7468 123.163 61.7021 123.717 61.8094 124.45C61.8988 125.201 62.0954 125.764 62.3994 126.14C62.6676 126.48 62.9804 126.64 63.338 126.623C63.6956 126.623 63.9548 126.462 64.1157 126.14C64.3124 125.782 64.3571 125.228 64.2498 124.477C64.1604 123.726 63.9727 123.172 63.6866 122.814Z" fill="#20B0FE"/>
<path d="M66.6675 139.714L65.8362 133.358H66.158L65.7825 132.956L65.7557 132.822H65.6485L65.1657 132.339L65.2194 132.822L63.1544 132.875H62.8594L63.0471 134.404L64.3076 134.377L65.0048 139.741L66.6675 139.714Z" fill="#20B0FE"/>
<path d="M67.9956 150.779L66.467 150.806L65.8233 145.898L64.6701 145.925L64.4824 144.504L66.9497 144.45V144.692H67.2179L67.9956 150.779Z" fill="#E44A69"/>
<path d="M69.3183 161.798L67.8969 161.825L67.307 157.48H66.2879L66.127 156.139L68.3529 156.112H68.5942L69.2915 161.503L69.3183 161.798Z" fill="#20B0FE"/>
<path d="M70.6488 172.809L69.3079 172.836L68.8252 169.054H67.9402L67.7793 167.821L69.737 167.794V168.035H70.0052L70.5952 172.514L70.6488 172.809Z" fill="#F08237"/>
<path d="M71.9453 183.775L70.7384 183.802L70.3362 180.637L69.5853 180.664L69.4512 179.538L71.1407 179.511V179.752H71.4089L71.8916 183.48L71.9453 183.775Z" fill="#2AF578"/>
<path d="M71.1204 191.234C71.5673 190.877 72.0501 190.85 72.5686 191.154C73.087 191.458 73.391 191.976 73.4804 192.709C73.5876 193.46 73.4089 194.005 72.944 194.345C72.5149 194.667 72.0322 194.667 71.4958 194.345C71.0131 194.041 70.727 193.532 70.6377 192.817C70.5304 192.084 70.6913 191.556 71.1204 191.234ZM72.2199 192.146C72.1305 192.039 72.0322 191.985 71.9249 191.985C71.8355 191.985 71.773 192.03 71.7372 192.119C71.6657 192.244 71.6478 192.45 71.6836 192.736C71.7193 193.04 71.7908 193.255 71.8981 193.38C71.9875 193.487 72.0858 193.541 72.1931 193.541C72.2825 193.541 72.354 193.496 72.4076 193.407C72.4613 193.281 72.4702 193.076 72.4345 192.79C72.3987 192.486 72.3272 192.271 72.2199 192.146Z" fill="#20B0FE"/>
<path d="M74.4908 205.644L73.579 205.671L73.3377 203.901H72.9354L72.8281 203.042L73.9008 203.016H74.1422L74.4372 205.349L74.4908 205.644Z" fill="#E44A69"/>
<path d="M74.601 214.75C74.8334 214.571 75.0926 214.562 75.3787 214.723C75.6469 214.866 75.8078 215.125 75.8614 215.5C75.9151 215.894 75.8167 216.18 75.5664 216.359C75.3161 216.537 75.0479 216.537 74.7619 216.359C74.5116 216.198 74.3596 215.938 74.306 215.581C74.2702 215.205 74.3686 214.928 74.601 214.75ZM75.1373 215.688C75.0658 215.581 75.039 215.492 75.0569 215.42C75.1284 215.509 75.1552 215.599 75.1373 215.688Z" fill="#F08237"/>
<path d="M77.051 226.925C77.0868 227.122 77.0331 227.274 76.8901 227.381C76.7471 227.488 76.5951 227.488 76.4342 227.381C76.2554 227.292 76.166 227.158 76.166 226.979C76.166 226.818 76.2197 226.684 76.3269 226.576C76.47 226.451 76.6219 226.425 76.7828 226.496C76.9437 226.568 77.0331 226.711 77.051 226.925ZM76.5415 227.006H76.5683C76.6219 227.023 76.6666 227.015 76.7024 226.979C76.7024 226.979 76.7024 226.97 76.7024 226.952V226.925C76.6666 226.907 76.6219 226.916 76.5683 226.952C76.5504 226.97 76.5415 226.979 76.5415 226.979C76.5415 226.979 76.5415 226.979 76.5415 227.006Z" fill="#20B0FE"/>
<path d="M72.4466 120.906C73.3405 120.191 74.3239 120.137 75.3966 120.745C76.4872 121.389 77.1398 122.515 77.3543 124.124C77.5689 125.733 77.2024 126.878 76.2548 127.557C75.3608 128.236 74.3686 128.236 73.278 127.557C72.241 126.931 71.6242 125.841 71.4275 124.285C71.213 122.712 71.5527 121.585 72.4466 120.906ZM75.048 122.542C74.7798 122.202 74.458 122.032 74.0825 122.032C73.7249 122.032 73.4657 122.193 73.3048 122.515C73.1081 122.891 73.0634 123.445 73.1707 124.178C73.2601 124.929 73.4568 125.492 73.7607 125.867C74.0289 126.207 74.3418 126.368 74.6993 126.35C75.0569 126.35 75.3161 126.189 75.4771 125.867C75.6737 125.51 75.7184 124.956 75.6111 124.205C75.5218 123.454 75.334 122.9 75.048 122.542Z" fill="#20B0FE"/>
<path d="M74.06 132.48C74.9003 131.836 75.8211 131.791 76.8223 132.346C77.8414 132.936 78.4492 133.982 78.6459 135.483C78.8426 136.985 78.5029 138.058 77.6268 138.701C76.7865 139.327 75.8568 139.327 74.8377 138.701C73.8723 138.111 73.3002 137.092 73.1214 135.644C72.9247 134.178 73.2376 133.123 74.06 132.48ZM76.4736 134.035C76.2233 133.731 75.9283 133.579 75.5886 133.579C75.2847 133.579 75.0523 133.731 74.8914 134.035C74.7126 134.357 74.6679 134.867 74.7573 135.564C74.8467 136.243 75.0344 136.753 75.3205 137.092C75.5529 137.414 75.839 137.566 76.1786 137.548C76.5005 137.548 76.7329 137.405 76.8759 137.119C77.0547 136.78 77.0994 136.27 77.01 135.591C76.9206 134.893 76.7418 134.375 76.4736 134.035Z" fill="#2AF578"/>
<path d="M75.7066 144.128C76.4933 143.52 77.3425 143.475 78.2543 143.994C79.2019 144.548 79.7651 145.504 79.9439 146.863C80.1227 148.24 79.8009 149.223 78.9784 149.813C78.2097 150.385 77.3604 150.385 76.4307 149.813C75.5368 149.277 75.0094 148.347 74.8484 147.024C74.6697 145.665 74.9557 144.7 75.7066 144.128ZM77.9057 145.576C77.6912 145.29 77.4319 145.156 77.128 145.174C76.8419 145.174 76.6363 145.299 76.5112 145.549C76.3503 145.853 76.3145 146.318 76.4039 146.944C76.4754 147.569 76.6363 148.034 76.8866 148.338C77.1012 148.606 77.3604 148.741 77.6644 148.741C77.9325 148.723 78.1381 148.589 78.2812 148.338C78.4242 148.034 78.46 147.578 78.3884 146.971C78.299 146.345 78.1381 145.88 77.9057 145.576Z" fill="#20B0FE"/>
<path d="M80.6796 161.525L79.2583 161.552L78.6683 157.208H77.6492L77.4883 155.867L79.7142 155.84H79.9555L80.6528 161.23L80.6796 161.525Z" fill="#20B0FE"/>
<path d="M82.0121 172.54L81.4221 168.061H81.7439L81.3685 167.659L81.3417 167.525H81.2344L80.7517 167.042L80.8053 167.525L79.4376 167.552H79.1426L79.3035 168.785H80.1885L80.6712 172.567L82.0121 172.54Z" fill="#20B0FE"/>
<path d="M83.3085 183.503L82.1017 183.53L81.6995 180.366L80.9485 180.392L80.8145 179.266L82.504 179.239V179.481H82.7722L83.2549 183.208L83.3085 183.503Z" fill="#20B0FE"/>
<path d="M84.586 194.455L83.54 194.482L83.1914 191.988H82.6014L82.4941 190.996L84.13 190.969L84.5323 194.16L84.586 194.455Z" fill="#20B0FE"/>
<path d="M84.2172 202.717C84.5569 202.467 84.9234 202.449 85.3168 202.663C85.7101 202.896 85.9425 203.289 86.014 203.843C86.0856 204.397 85.9515 204.809 85.6118 205.077C85.2542 205.327 84.8787 205.327 84.4854 205.077C84.1278 204.844 83.9133 204.46 83.8418 203.924C83.7703 203.387 83.8954 202.985 84.2172 202.717ZM84.7536 203.468C84.6284 203.7 84.6642 203.959 84.8609 204.245C84.9324 204.335 84.9949 204.38 85.0486 204.38C85.0486 204.38 85.0665 204.353 85.1022 204.299C85.2274 204.067 85.1827 203.807 84.9681 203.521C84.9145 203.432 84.8609 203.387 84.8072 203.387C84.8072 203.387 84.7893 203.414 84.7536 203.468Z" fill="#20B0FE"/>
<path d="M87.1106 216.317H86.3597L86.2256 215.244H85.9574L85.877 214.52L86.896 214.493L87.0838 215.995L87.1106 216.317Z" fill="#20B0FE"/>
<path d="M88.4123 226.654C88.4481 226.85 88.3945 227.002 88.2514 227.11C88.1084 227.217 87.9564 227.217 87.7955 227.11C87.6167 227.002 87.5273 226.868 87.5273 226.707C87.5273 226.546 87.581 226.412 87.6883 226.305C87.8313 226.18 87.9833 226.153 88.1442 226.225C88.3051 226.296 88.3945 226.439 88.4123 226.654ZM87.9028 226.734H87.9296C87.9833 226.752 88.0279 226.743 88.0637 226.707C88.0637 226.707 88.0637 226.698 88.0637 226.68V226.654C88.0279 226.636 87.9833 226.645 87.9296 226.68C87.9117 226.698 87.9028 226.707 87.9028 226.707C87.9028 226.707 87.9028 226.707 87.9028 226.734Z" fill="#20B0FE"/>
<path d="M83.8099 120.642C84.7038 119.927 85.6872 119.874 86.7599 120.481C87.8505 121.125 88.5031 122.251 88.7176 123.861C88.9322 125.47 88.5656 126.614 87.6181 127.293C86.7241 127.973 85.7319 127.973 84.6413 127.293C83.6043 126.667 82.9875 125.577 82.7908 124.021C82.5763 122.448 82.916 121.322 83.8099 120.642ZM86.4112 122.278C86.1431 121.939 85.8212 121.769 85.4458 121.769C85.0882 121.769 84.829 121.93 84.6681 122.251C84.4714 122.627 84.4267 123.181 84.534 123.914C84.6234 124.665 84.82 125.228 85.124 125.604C85.3922 125.943 85.705 126.104 86.0626 126.086C86.4202 126.086 86.6794 125.926 86.8403 125.604C87.037 125.246 87.0817 124.692 86.9744 123.941C86.885 123.19 86.6973 122.636 86.4112 122.278Z" fill="#20B0FE"/>
<path d="M85.4213 132.215C86.2616 131.571 87.1824 131.527 88.1836 132.081C89.2027 132.671 89.8106 133.717 90.0072 135.219C90.2039 136.72 89.8642 137.793 88.9882 138.437C88.1479 139.063 87.2182 139.063 86.1991 138.437C85.2336 137.847 84.6615 136.828 84.4827 135.38C84.286 133.914 84.5989 132.859 85.4213 132.215ZM87.835 133.77C87.5847 133.467 87.2897 133.315 86.95 133.315C86.646 133.315 86.4136 133.467 86.2527 133.77C86.0739 134.092 86.0292 134.602 86.1186 135.299C86.208 135.979 86.3957 136.488 86.6818 136.828C86.9142 137.15 87.2003 137.302 87.54 137.284C87.8618 137.284 88.0942 137.141 88.2372 136.855C88.416 136.515 88.4607 136.005 88.3713 135.326C88.2819 134.629 88.1032 134.11 87.835 133.77Z" fill="#20B0FE"/>
<path d="M87.068 143.865C87.8546 143.257 88.7039 143.213 89.6157 143.731C90.5633 144.285 91.1264 145.242 91.3052 146.601C91.484 147.977 91.1622 148.961 90.3398 149.551C89.571 150.123 88.7217 150.123 87.792 149.551C86.8981 149.014 86.3707 148.085 86.2098 146.761C86.031 145.403 86.317 144.437 87.068 143.865ZM89.267 145.313C89.0525 145.027 88.7933 144.893 88.4893 144.911C88.2033 144.911 87.9977 145.036 87.8725 145.286C87.7116 145.59 87.6758 146.055 87.7652 146.681C87.8367 147.307 87.9977 147.772 88.248 148.076C88.4625 148.344 88.7217 148.478 89.0257 148.478C89.2939 148.46 89.4995 148.326 89.6425 148.076C89.7855 147.772 89.8213 147.316 89.7498 146.708C89.6604 146.082 89.4995 145.617 89.267 145.313Z" fill="#F08237"/>
<path d="M88.7637 155.52C89.461 154.984 90.2208 154.948 91.0433 155.413C91.9015 155.895 92.411 156.754 92.5719 157.987C92.7328 159.221 92.4468 160.106 91.7137 160.642C90.9986 161.161 90.2208 161.161 89.3805 160.642L88.576 160.159H88.7905C88.3615 159.659 88.0843 158.979 87.9592 158.121C87.8162 156.923 88.0843 156.056 88.7637 155.52ZM90.6946 156.861C90.5158 156.628 90.2924 156.512 90.0242 156.512C89.7918 156.512 89.6219 156.619 89.5146 156.834C89.3716 157.102 89.3359 157.504 89.4074 158.041C89.4789 158.595 89.6219 159.006 89.8365 159.274C90.0331 159.507 90.2566 159.623 90.5069 159.623C90.7393 159.605 90.9092 159.489 91.0165 159.274C91.1595 159.024 91.1952 158.622 91.1237 158.068C91.0522 157.513 90.9092 157.111 90.6946 156.861Z" fill="#E44A69"/>
<path d="M90.4374 167.219C91.0631 166.736 91.7425 166.701 92.4755 167.112C93.2264 167.541 93.6734 168.292 93.8164 169.365C93.9595 170.455 93.7002 171.242 93.0387 171.725C92.4308 172.172 91.7514 172.172 91.0005 171.725L90.8664 171.644V171.617C90.2407 171.188 89.8652 170.482 89.7401 169.499C89.5971 168.444 89.8295 167.684 90.4374 167.219ZM92.1269 168.399C91.966 168.202 91.7872 168.113 91.5905 168.131C91.3939 168.131 91.2508 168.22 91.1614 168.399C91.0363 168.614 91.0095 168.953 91.081 169.418C91.1346 169.883 91.2508 170.232 91.4296 170.464C91.5905 170.661 91.7783 170.759 91.9928 170.759C92.1716 170.759 92.3057 170.67 92.3951 170.491C92.5202 170.259 92.547 169.91 92.4755 169.445C92.4219 168.98 92.3057 168.632 92.1269 168.399Z" fill="#20B0FE"/>
<path d="M92.1324 178.959C92.6687 178.53 93.2498 178.495 93.8755 178.852C94.5192 179.228 94.9036 179.871 95.0287 180.783C95.136 181.713 94.9125 182.374 94.3583 182.768C93.8219 183.161 93.2408 183.161 92.6151 182.768C92.0072 182.41 91.6496 181.784 91.5424 180.89C91.4172 179.996 91.6139 179.353 92.1324 178.959ZM93.5269 180.005C93.4196 179.862 93.2855 179.791 93.1246 179.791C92.9816 179.791 92.8743 179.853 92.8028 179.979C92.7134 180.157 92.6866 180.434 92.7224 180.81C92.776 181.203 92.8743 181.489 93.0174 181.668C93.1425 181.829 93.2855 181.901 93.4464 181.883C93.5895 181.883 93.6968 181.82 93.7683 181.695C93.8577 181.516 93.8755 181.239 93.8219 180.864C93.7683 180.47 93.6699 180.184 93.5269 180.005Z" fill="#E44A69"/>
<path d="M93.845 190.699C94.292 190.342 94.7747 190.315 95.2932 190.619C95.8116 190.923 96.1156 191.441 96.205 192.174C96.3123 192.943 96.1335 193.488 95.6686 193.81C95.2395 194.132 94.7568 194.132 94.2204 193.81C93.7377 193.506 93.4517 192.997 93.3623 192.281C93.255 191.548 93.4159 191.021 93.845 190.699ZM94.9445 191.611C94.8551 191.504 94.7568 191.45 94.6495 191.45C94.5601 191.45 94.4976 191.495 94.4618 191.584C94.3903 191.709 94.3724 191.915 94.4082 192.201C94.4439 192.505 94.5154 192.719 94.6227 192.845C94.7121 192.952 94.8104 193.005 94.9177 193.005C95.0071 193.005 95.0786 192.961 95.1323 192.871C95.1859 192.746 95.1948 192.541 95.1591 192.255C95.1233 191.968 95.0518 191.754 94.9445 191.611Z" fill="#20B0FE"/>
<path d="M97.2155 205.109L96.3036 205.135L96.0623 203.365H95.66L95.5527 202.507L96.6255 202.48H96.8668L97.1618 204.814L97.2155 205.109Z" fill="#20B0FE"/>
<path d="M97.3275 214.215C97.56 214.037 97.8192 214.028 98.1053 214.189C98.3734 214.332 98.5344 214.591 98.588 214.966C98.6416 215.36 98.5433 215.646 98.293 215.824C98.0427 216.003 97.7745 216.003 97.4885 215.824C97.2381 215.664 97.0862 215.404 97.0325 215.047C96.9968 214.671 97.0951 214.394 97.3275 214.215ZM97.8371 215.154C97.7834 215.047 97.7656 214.957 97.7834 214.886C97.8371 214.975 97.855 215.065 97.8371 215.154Z" fill="#20B0FE"/>
<path d="M99.7459 226.97H99.1291L99.1023 226.622H99.0219L98.9414 226.005H99.3973H99.6387L99.7191 226.675L99.7459 226.97Z" fill="#20B0FE"/>
<path d="M98.3015 127.818L96.5851 127.845L95.8074 122.052L94.4397 122.079L94.252 120.47L97.3897 120.416V120.657L98.2747 127.523L98.3015 127.818Z" fill="#2AF578"/>
<path d="M95.7006 131.945C96.5409 131.301 97.4617 131.256 98.4629 131.81C99.482 132.4 100.09 133.446 100.287 134.948C100.483 136.45 100.144 137.523 99.2675 138.166C98.4271 138.792 97.4975 138.792 96.4784 138.166C95.5129 137.576 94.9408 136.557 94.762 135.109C94.5653 133.643 94.8782 132.588 95.7006 131.945ZM98.1143 133.5C97.864 133.196 97.569 133.044 97.2293 133.044C96.9253 133.044 96.6929 133.196 96.532 133.5C96.3532 133.822 96.3085 134.331 96.3979 135.029C96.4873 135.708 96.675 136.218 96.9611 136.557C97.1935 136.879 97.4796 137.031 97.8193 137.013C98.1411 137.013 98.3735 136.87 98.5165 136.584C98.6953 136.244 98.74 135.735 98.6506 135.055C98.5612 134.358 98.3825 133.84 98.1143 133.5Z" fill="#20B0FE"/>
<path d="M97.3473 143.594C98.1339 142.986 98.9832 142.941 99.895 143.46C100.843 144.014 101.406 144.97 101.585 146.329C101.763 147.724 101.441 148.716 100.619 149.306C99.8503 149.878 99.001 149.869 98.0713 149.279C97.1774 148.743 96.65 147.813 96.4891 146.49C96.3103 145.131 96.5963 144.166 97.3473 143.594ZM99.5463 145.042C99.3318 144.756 99.0726 144.622 98.7686 144.64C98.4826 144.64 98.2769 144.765 98.1518 145.015C97.9909 145.319 97.9551 145.784 98.0445 146.41C98.116 147.035 98.2769 147.5 98.5273 147.804C98.7418 148.072 99.001 148.206 99.305 148.206C99.5732 148.188 99.7788 148.054 99.9218 147.804C100.065 147.5 100.101 147.044 100.029 146.436C99.9397 145.811 99.7788 145.346 99.5463 145.042Z" fill="#20B0FE"/>
<path d="M102.318 160.991L100.897 161.018L100.307 156.673H99.2879L99.127 155.332L101.353 155.306H101.594L102.291 160.696L102.318 160.991Z" fill="#20B0FE"/>
<path d="M100.713 166.949C101.339 166.466 102.018 166.43 102.751 166.841C103.502 167.27 103.949 168.021 104.092 169.094C104.235 170.185 103.976 170.971 103.314 171.454C102.706 171.901 102.027 171.901 101.276 171.454L101.142 171.374V171.347C100.516 170.918 100.141 170.211 100.015 169.228C99.8724 168.173 100.105 167.413 100.713 166.949ZM102.402 168.129C102.241 167.932 102.054 167.843 101.839 167.86C101.66 167.86 101.526 167.95 101.437 168.129C101.312 168.343 101.285 168.683 101.356 169.148C101.41 169.613 101.526 169.961 101.705 170.194C101.866 170.39 102.054 170.489 102.268 170.489C102.447 170.489 102.581 170.399 102.67 170.22C102.796 169.988 102.822 169.639 102.751 169.175C102.697 168.71 102.581 168.361 102.402 168.129Z" fill="#20B0FE"/>
<path d="M102.412 178.688C102.948 178.259 103.529 178.223 104.155 178.581C104.798 178.956 105.183 179.6 105.308 180.512C105.415 181.441 105.192 182.103 104.638 182.496C104.119 182.872 103.556 182.889 102.948 182.55L102.894 182.496C102.287 182.139 101.929 181.513 101.822 180.619C101.697 179.725 101.893 179.081 102.412 178.688ZM103.806 179.734C103.699 179.591 103.565 179.519 103.404 179.519C103.261 179.519 103.154 179.582 103.082 179.707C102.993 179.886 102.966 180.163 103.002 180.538C103.055 180.932 103.154 181.218 103.297 181.397C103.422 181.558 103.565 181.629 103.726 181.611C103.869 181.611 103.976 181.549 104.048 181.423C104.137 181.245 104.155 180.968 104.101 180.592C104.048 180.199 103.949 179.913 103.806 179.734Z" fill="#20B0FE"/>
<path d="M106.227 193.921L105.181 193.948L104.832 191.454H104.242L104.135 190.461L105.771 190.435L106.173 193.626L106.227 193.921Z" fill="#2AF578"/>
<path d="M107.493 204.837L106.581 204.864L106.34 203.094H105.937L105.83 202.236L106.903 202.209H107.144L107.439 204.542L107.493 204.837Z" fill="#20B0FE"/>
<path d="M107.815 213.959H108.297H108.539L108.753 215.783H108.002L107.868 214.71H107.6L107.52 213.986L107.815 213.959Z" fill="#20B0FE"/>
<path d="M110.055 226.12C110.091 226.317 110.037 226.469 109.894 226.576C109.751 226.684 109.599 226.684 109.438 226.576C109.259 226.469 109.17 226.335 109.17 226.174C109.17 226.013 109.224 225.879 109.331 225.772C109.474 225.647 109.626 225.62 109.787 225.691C109.948 225.763 110.037 225.906 110.055 226.12ZM109.545 226.201H109.572C109.626 226.219 109.671 226.21 109.706 226.174C109.706 226.174 109.706 226.165 109.706 226.147V226.12C109.671 226.103 109.626 226.112 109.572 226.147C109.554 226.165 109.545 226.174 109.545 226.174V226.201Z" fill="#20B0FE"/>
<path d="M105.449 120.213C106.343 119.498 107.326 119.444 108.399 120.052C109.489 120.695 110.142 121.822 110.356 123.431C110.571 125.04 110.204 126.184 109.257 126.864C108.363 127.543 107.371 127.543 106.28 126.864C105.243 126.238 104.626 125.147 104.429 123.592C104.215 122.018 104.555 120.892 105.449 120.213ZM108.05 121.849C107.782 121.509 107.46 121.339 107.084 121.339C106.727 121.339 106.468 121.5 106.307 121.822C106.11 122.197 106.065 122.751 106.173 123.484C106.262 124.235 106.459 124.799 106.763 125.174C107.031 125.514 107.344 125.675 107.701 125.657C108.059 125.657 108.318 125.496 108.479 125.174C108.676 124.816 108.72 124.262 108.613 123.511C108.524 122.76 108.336 122.206 108.05 121.849Z" fill="#20B0FE"/>
<path d="M111.033 138.75L110.201 132.394H110.523L110.148 131.992L110.121 131.858H110.014L109.531 131.375L109.585 131.858L107.52 131.911H107.225L107.412 133.44L108.673 133.413L109.37 138.777L111.033 138.75Z" fill="#20B0FE"/>
<path d="M112.359 149.811L110.83 149.838L110.187 144.931L109.033 144.957L108.846 143.536L111.313 143.482V143.724H111.581L112.359 149.811Z" fill="#20B0FE"/>
<path d="M110.402 155.09C111.1 154.554 111.86 154.518 112.682 154.983C113.54 155.466 114.05 156.324 114.211 157.557C114.371 158.791 114.085 159.676 113.352 160.212C112.637 160.731 111.86 160.731 111.019 160.212L110.215 159.73H110.429C110 159.229 109.723 158.55 109.598 157.692C109.455 156.494 109.723 155.627 110.402 155.09ZM112.333 156.431C112.155 156.199 111.931 156.082 111.663 156.082C111.43 156.082 111.261 156.19 111.153 156.404C111.01 156.672 110.975 157.075 111.046 157.611C111.118 158.165 111.261 158.577 111.475 158.845C111.672 159.077 111.895 159.193 112.146 159.193C112.378 159.175 112.548 159.059 112.655 158.845C112.798 158.594 112.834 158.192 112.762 157.638C112.691 157.084 112.548 156.681 112.333 156.431Z" fill="#20B0FE"/>
<path d="M115.016 171.846L114.426 167.368H114.748L114.372 166.965L114.346 166.831H114.238L113.756 166.349L113.809 166.831L112.441 166.858H112.146L112.307 168.092H113.192L113.675 171.873L115.016 171.846Z" fill="#20B0FE"/>
<path d="M113.773 178.53C114.309 178.101 114.89 178.065 115.516 178.423C116.16 178.798 116.544 179.442 116.669 180.353C116.777 181.283 116.553 181.945 115.999 182.338C115.463 182.731 114.881 182.731 114.256 182.338C113.648 181.98 113.29 181.355 113.183 180.461C113.058 179.567 113.255 178.923 113.773 178.53ZM115.168 179.576C115.06 179.433 114.926 179.361 114.765 179.361C114.622 179.361 114.515 179.424 114.443 179.549C114.354 179.728 114.327 180.005 114.363 180.38C114.417 180.774 114.515 181.06 114.658 181.238C114.783 181.399 114.926 181.471 115.087 181.453C115.23 181.453 115.337 181.39 115.409 181.265C115.498 181.086 115.516 180.809 115.463 180.434C115.409 180.041 115.311 179.754 115.168 179.576Z" fill="#20B0FE"/>
<path d="M115.484 190.268C115.931 189.911 116.413 189.884 116.932 190.188C117.45 190.492 117.754 191.01 117.844 191.743C117.951 192.494 117.772 193.04 117.307 193.379C116.878 193.701 116.395 193.701 115.859 193.379C115.376 193.075 115.09 192.566 115.001 191.851C114.894 191.118 115.055 190.59 115.484 190.268ZM116.583 191.18C116.494 191.073 116.395 191.019 116.288 191.019C116.199 191.019 116.136 191.064 116.1 191.153C116.029 191.279 116.011 191.484 116.047 191.77C116.083 192.074 116.154 192.289 116.261 192.414C116.351 192.521 116.449 192.575 116.556 192.575C116.646 192.575 116.717 192.53 116.771 192.441C116.825 192.316 116.834 192.11 116.798 191.824C116.762 191.52 116.69 191.305 116.583 191.18Z" fill="#20B0FE"/>
<path d="M117.221 202.022C117.561 201.771 117.927 201.753 118.321 201.968C118.714 202.2 118.946 202.594 119.018 203.148C119.089 203.702 118.955 204.113 118.616 204.381C118.258 204.632 117.883 204.632 117.489 204.381C117.132 204.149 116.917 203.765 116.846 203.228C116.774 202.692 116.899 202.29 117.221 202.022ZM117.757 202.772C117.632 203.005 117.668 203.264 117.865 203.55C117.936 203.64 117.999 203.684 118.052 203.684C118.052 203.684 118.07 203.657 118.106 203.604C118.231 203.371 118.187 203.112 117.972 202.826C117.918 202.737 117.865 202.692 117.811 202.692C117.811 202.692 117.793 202.719 117.757 202.772Z" fill="#20B0FE"/>
<path d="M120.113 215.623H119.362L119.228 214.551H118.959L118.879 213.827L119.898 213.8L120.086 215.302L120.113 215.623Z" fill="#20B0FE"/>
<path d="M121.385 226.54H120.768L120.741 226.191H120.661L120.58 225.574H121.036H121.277L121.358 226.245L121.385 226.54Z" fill="#20B0FE"/>
<path d="M116.747 119.942C117.641 119.227 118.625 119.173 119.697 119.781C120.788 120.425 121.441 121.551 121.655 123.16C121.87 124.769 121.503 125.914 120.556 126.593C119.662 127.272 118.669 127.272 117.579 126.593C116.542 125.967 115.925 124.877 115.728 123.321C115.514 121.748 115.853 120.622 116.747 119.942ZM119.349 121.578C119.081 121.238 118.759 121.069 118.383 121.069C118.026 121.069 117.766 121.229 117.606 121.551C117.409 121.927 117.364 122.481 117.471 123.214C117.561 123.965 117.758 124.528 118.061 124.904C118.33 125.243 118.643 125.404 119 125.386C119.358 125.386 119.617 125.225 119.778 124.904C119.975 124.546 120.019 123.992 119.912 123.241C119.823 122.49 119.635 121.936 119.349 121.578Z" fill="#2AF578"/>
<path d="M118.361 131.515C119.201 130.871 120.122 130.827 121.123 131.381C122.142 131.971 122.75 133.017 122.947 134.518C123.143 136.02 122.804 137.093 121.928 137.737C121.087 138.362 120.158 138.362 119.139 137.737C118.173 137.147 117.601 136.128 117.422 134.679C117.225 133.213 117.538 132.158 118.361 131.515ZM120.774 133.07C120.524 132.766 120.229 132.614 119.889 132.614C119.585 132.614 119.353 132.766 119.192 133.07C119.013 133.392 118.969 133.902 119.058 134.599C119.147 135.278 119.335 135.788 119.621 136.128C119.854 136.449 120.14 136.601 120.479 136.583C120.801 136.583 121.034 136.44 121.177 136.154C121.355 135.815 121.4 135.305 121.311 134.626C121.221 133.928 121.043 133.41 120.774 133.07Z" fill="#20B0FE"/>
<path d="M123.66 149.541L122.131 149.568L121.487 144.66L120.334 144.687L120.146 143.266L122.614 143.212V143.453H122.882L123.633 149.246L123.66 149.541Z" fill="#20B0FE"/>
<path d="M121.701 154.82C122.399 154.283 123.158 154.248 123.981 154.712C124.839 155.195 125.348 156.053 125.509 157.287C125.67 158.521 125.384 159.406 124.651 159.942C123.936 160.46 123.158 160.46 122.318 159.942L121.514 159.459H121.728C121.299 158.959 121.022 158.279 120.897 157.421C120.754 156.223 121.022 155.356 121.701 154.82ZM123.632 156.161C123.453 155.928 123.23 155.812 122.962 155.812C122.729 155.812 122.559 155.919 122.452 156.134C122.309 156.402 122.273 156.804 122.345 157.341C122.416 157.895 122.559 158.306 122.774 158.574C122.971 158.807 123.194 158.923 123.444 158.923C123.677 158.905 123.847 158.789 123.954 158.574C124.097 158.324 124.133 157.922 124.061 157.367C123.99 156.813 123.847 156.411 123.632 156.161Z" fill="#E44A69"/>
<path d="M123.375 166.518C124.001 166.035 124.68 165.999 125.413 166.411C126.164 166.84 126.611 167.591 126.754 168.663C126.897 169.754 126.638 170.541 125.976 171.023C125.368 171.47 124.689 171.47 123.938 171.023L123.804 170.943V170.916C123.178 170.487 122.803 169.781 122.678 168.798C122.535 167.743 122.767 166.983 123.375 166.518ZM125.064 167.698C124.903 167.501 124.716 167.412 124.501 167.43C124.322 167.43 124.188 167.519 124.099 167.698C123.974 167.913 123.947 168.252 124.018 168.717C124.072 169.182 124.188 169.531 124.367 169.763C124.528 169.96 124.716 170.058 124.93 170.058C125.109 170.058 125.243 169.969 125.333 169.79C125.458 169.557 125.485 169.209 125.413 168.744C125.359 168.279 125.243 167.93 125.064 167.698Z" fill="#20B0FE"/>
<path d="M127.605 182.538L126.399 182.565L125.996 179.401L125.245 179.428L125.111 178.301L126.801 178.274V178.516H127.069L127.552 182.243L127.605 182.538Z" fill="#F08237"/>
<path d="M126.784 189.996C127.231 189.638 127.714 189.612 128.233 189.916C128.751 190.219 129.055 190.738 129.144 191.471C129.252 192.222 129.073 192.767 128.608 193.107C128.179 193.429 127.696 193.429 127.16 193.107L126.355 192.597H126.65C126.472 192.329 126.355 191.989 126.302 191.578C126.194 190.845 126.355 190.318 126.784 189.996ZM127.884 190.908C127.795 190.801 127.696 190.747 127.589 190.747C127.5 190.747 127.437 190.792 127.401 190.881C127.33 191.006 127.312 191.212 127.348 191.498C127.383 191.802 127.455 192.016 127.562 192.141C127.652 192.249 127.75 192.302 127.857 192.302C127.947 192.302 128.018 192.258 128.072 192.168C128.125 192.043 128.134 191.837 128.099 191.551C128.063 191.247 127.991 191.033 127.884 190.908Z" fill="#2AF578"/>
<path d="M128.518 201.752C128.858 201.502 129.224 201.484 129.618 201.698C130.011 201.931 130.243 202.324 130.315 202.878C130.386 203.433 130.252 203.844 129.913 204.112C129.555 204.362 129.18 204.362 128.786 204.112C128.429 203.88 128.214 203.495 128.143 202.959C128.071 202.422 128.196 202.02 128.518 201.752ZM129.054 202.503C128.929 202.735 128.965 202.995 129.162 203.281C129.233 203.37 129.296 203.415 129.349 203.415C129.349 203.415 129.367 203.388 129.403 203.334C129.528 203.102 129.483 202.843 129.269 202.557C129.215 202.467 129.162 202.422 129.108 202.422C129.108 202.422 129.09 202.449 129.054 202.503Z" fill="#20B0FE"/>
<path d="M130.477 213.527H130.959H131.201L131.415 215.351H130.664L130.53 214.278H130.262L130.182 213.554L130.477 213.527Z" fill="#20B0FE"/>
<path d="M132.713 225.689C132.749 225.885 132.695 226.037 132.552 226.145C132.409 226.252 132.257 226.252 132.096 226.145C131.918 226.037 131.828 225.903 131.828 225.742C131.828 225.582 131.882 225.447 131.989 225.34C132.132 225.215 132.284 225.188 132.445 225.26C132.606 225.331 132.695 225.474 132.713 225.689ZM132.204 225.769H132.23C132.284 225.787 132.329 225.778 132.364 225.742C132.364 225.742 132.364 225.733 132.364 225.716V225.689C132.329 225.671 132.284 225.68 132.23 225.716C132.213 225.733 132.204 225.742 132.204 225.742V225.769Z" fill="#20B0FE"/>
<path d="M128.109 119.67C129.003 118.955 129.986 118.901 131.059 119.509C132.149 120.152 132.802 121.279 133.016 122.888C133.231 124.497 132.864 125.641 131.917 126.321C131.023 127 130.031 127 128.94 126.321C127.903 125.695 127.286 124.604 127.09 123.049C126.875 121.475 127.215 120.349 128.109 119.67ZM130.71 121.306C130.442 120.966 130.12 120.796 129.745 120.796C129.387 120.796 129.128 120.957 128.967 121.279C128.77 121.654 128.726 122.208 128.833 122.942C128.922 123.692 129.119 124.256 129.423 124.631C129.691 124.971 130.004 125.132 130.361 125.114C130.719 125.114 130.978 124.953 131.139 124.631C131.336 124.273 131.381 123.719 131.273 122.968C131.184 122.217 130.996 121.663 130.71 121.306Z" fill="#E44A69"/>
<path d="M133.691 138.208L132.86 131.852H133.181L132.806 131.45L132.779 131.316H132.672L132.189 130.833L132.243 131.316L130.178 131.369H129.883L130.071 132.898L131.331 132.871L132.028 138.235L133.691 138.208Z" fill="#20B0FE"/>
<path d="M135.023 149.27L133.494 149.296L132.851 144.389L131.697 144.415L131.51 142.994L133.977 142.94V143.182H134.245L134.996 148.975L135.023 149.27Z" fill="#2AF578"/>
<path d="M133.063 154.548C133.76 154.012 134.52 153.976 135.342 154.441C136.2 154.924 136.71 155.782 136.871 157.015C137.032 158.249 136.746 159.134 136.013 159.67C135.297 160.189 134.52 160.189 133.679 159.67L132.875 159.188H133.089C132.66 158.687 132.383 158.008 132.258 157.15C132.115 155.952 132.383 155.085 133.063 154.548ZM134.993 155.889C134.815 155.657 134.591 155.54 134.323 155.54C134.091 155.54 133.921 155.648 133.813 155.862C133.67 156.13 133.635 156.533 133.706 157.069C133.778 157.623 133.921 158.035 134.135 158.303C134.332 158.535 134.555 158.651 134.806 158.651C135.038 158.633 135.208 158.517 135.315 158.303C135.458 158.052 135.494 157.65 135.423 157.096C135.351 156.542 135.208 156.139 134.993 155.889Z" fill="#20B0FE"/>
<path d="M134.736 166.246C135.362 165.763 136.041 165.727 136.774 166.138C137.525 166.567 137.972 167.318 138.115 168.391C138.258 169.499 137.999 170.286 137.338 170.751C136.73 171.198 136.05 171.198 135.299 170.751L135.165 170.67V170.644C134.54 170.215 134.164 169.508 134.039 168.525C133.896 167.47 134.128 166.71 134.736 166.246ZM136.426 167.425C136.265 167.229 136.077 167.139 135.863 167.157C135.684 167.157 135.55 167.247 135.46 167.425C135.335 167.64 135.308 167.98 135.38 168.445C135.433 168.909 135.55 169.258 135.728 169.49C135.889 169.687 136.077 169.785 136.292 169.785C136.47 169.785 136.605 169.696 136.694 169.517C136.819 169.285 136.846 168.936 136.774 168.471C136.721 168.007 136.605 167.658 136.426 167.425Z" fill="#20B0FE"/>
<path d="M136.431 177.985C136.968 177.556 137.549 177.52 138.174 177.878C138.818 178.253 139.202 178.897 139.328 179.808C139.435 180.738 139.211 181.4 138.657 181.793C138.121 182.186 137.54 182.186 136.914 181.793C136.306 181.435 135.948 180.81 135.841 179.916C135.716 179.022 135.913 178.378 136.431 177.985ZM137.826 179.031C137.718 178.888 137.584 178.816 137.423 178.816C137.28 178.816 137.173 178.879 137.102 179.004C137.012 179.183 136.985 179.46 137.021 179.835C137.075 180.229 137.173 180.515 137.316 180.693C137.441 180.854 137.584 180.926 137.745 180.908C137.888 180.908 137.996 180.845 138.067 180.72C138.156 180.542 138.174 180.264 138.121 179.889C138.067 179.496 137.969 179.21 137.826 179.031Z" fill="#20B0FE"/>
<path d="M138.146 189.725C138.593 189.368 139.075 189.341 139.594 189.645C140.112 189.949 140.416 190.467 140.506 191.2C140.613 191.951 140.434 192.497 139.969 192.836C139.54 193.158 139.058 193.158 138.521 192.836C138.038 192.532 137.752 192.023 137.663 191.308C137.556 190.575 137.717 190.047 138.146 189.725ZM139.245 190.637C139.156 190.53 139.058 190.476 138.95 190.476C138.861 190.476 138.798 190.521 138.763 190.61C138.691 190.736 138.673 190.941 138.709 191.227C138.745 191.531 138.816 191.746 138.923 191.871C139.013 191.978 139.111 192.032 139.218 192.032C139.308 192.032 139.379 191.987 139.433 191.898C139.487 191.773 139.496 191.567 139.46 191.281C139.424 190.977 139.353 190.762 139.245 190.637Z" fill="#F08237"/>
<path d="M141.514 204.136L140.602 204.163L140.361 202.393H139.959L139.852 201.535L140.924 201.508H141.166L141.461 203.841L141.514 204.136Z" fill="#20B0FE"/>
<path d="M141.628 213.24C141.861 213.061 142.12 213.052 142.406 213.213C142.674 213.356 142.835 213.615 142.889 213.991C142.942 214.384 142.844 214.67 142.594 214.849C142.343 215.028 142.075 215.028 141.789 214.849C141.539 214.688 141.387 214.429 141.333 214.071C141.298 213.696 141.396 213.419 141.628 213.24ZM142.165 214.178C142.093 214.071 142.066 213.982 142.084 213.91C142.156 214 142.183 214.089 142.165 214.178Z" fill="#20B0FE"/>
<path d="M144.074 225.418C144.11 225.615 144.057 225.767 143.914 225.874C143.771 225.981 143.619 225.981 143.458 225.874C143.279 225.767 143.189 225.633 143.189 225.472C143.189 225.311 143.243 225.177 143.35 225.07C143.493 224.945 143.645 224.918 143.806 224.989C143.967 225.061 144.057 225.204 144.074 225.418ZM143.565 225.499H143.592C143.645 225.517 143.69 225.508 143.726 225.472C143.726 225.472 143.726 225.463 143.726 225.445V225.418C143.69 225.4 143.645 225.409 143.592 225.445C143.574 225.463 143.565 225.472 143.565 225.472V225.499Z" fill="#20B0FE"/>
<g style="mix-blend-mode:multiply" opacity="0.3">
<path d="M210.001 115.849L207.454 115.696C205.28 115.638 200.335 117.308 200.371 119.427L200.383 120.182C200.055 123.423 204.971 124.05 207.145 124.088L210.14 124.189C211.738 124.217 213.09 123.295 213.656 121.956C213.813 120.779 213.813 120.182 213.813 118.876C213.391 117.189 211.839 115.897 210.001 115.848V115.849Z" fill="#444444"/>
<path d="M193.92 213.548C192.857 213.48 191.741 213.83 190.858 214.61L193.29 213.919C192.658 214.478 191.953 214.918 191.208 215.24C190.557 214.871 189.773 214.686 188.932 214.754C188.036 214.826 187.213 215.17 186.549 215.696C185.679 215.499 184.846 215.139 184.101 214.61L180.018 211.714C179.072 211.042 177.885 210.849 176.766 211.084L165.193 204.011C155.507 198.093 149.522 187.852 149.336 176.711C149.32 175.741 148.779 174.902 147.966 174.409L147.285 133.482C147.178 127.059 152.283 121.839 158.91 121.119C159.593 122.562 161.138 123.592 162.913 123.624L164.589 123.734C166.923 123.776 173.379 122.041 173.343 119.859L173.329 119.081C173.293 116.9 167.912 115.082 165.578 115.019L162.767 114.851C160.726 114.797 159.033 116.077 158.62 117.843C150.126 118.617 143.523 125.249 143.659 133.456L144.342 174.534C143.538 175.084 143.02 175.965 143.036 176.943C143.142 183.369 144.93 189.713 148.19 195.259C151.428 200.77 156.101 205.462 161.67 208.825L173.329 215.867C173.499 216.749 173.997 217.559 174.802 218.121L178.931 221.006C180.211 221.9 181.608 222.562 183.069 222.998L193.246 222.57C195.121 221.863 196.897 220.81 198.458 219.413L195.983 220.1C196.731 219.429 197.179 218.564 197.312 217.678L195.074 214.754L193.92 213.548Z" fill="#444444"/>
<path d="M189.088 219.248C189.11 222.376 189.452 227.114 190.386 231.151C190.854 233.177 191.453 234.939 192.181 236.218C192.612 236.976 193.038 237.476 193.439 237.787L189.752 237.99C189.693 237.893 189.636 237.795 189.58 237.697C188.647 236.058 187.969 233.979 187.471 231.826C186.471 227.506 186.119 222.533 186.096 219.269L189.088 219.248Z" fill="#444444"/>
<path d="M189.3 233.384C187.085 233.465 185.134 231.783 184.954 229.624L184.029 218.543C183.849 216.384 185.51 214.605 187.729 214.569C189.937 214.532 191.866 216.237 192.044 218.376L192.961 229.364C193.139 231.503 191.505 233.303 189.3 233.384Z" fill="#444444"/>
</g>
<path d="M94.5703 274.788C88.1588 274.788 81.9461 273.601 77.1641 271.384C72.6485 269.291 70.3138 266.642 70.5904 263.925C70.8661 261.214 73.5683 259.234 78.6222 258.041C102.844 252.324 180.552 250.675 208.878 250.95C219.473 251.049 225.753 250.108 229.154 249.299C233.881 248.173 234.967 246.883 234.999 246.599C234.977 246.39 234.236 245.386 231.008 244.368C227.662 243.314 222.888 242.635 217.201 242.404C212.624 242.218 208.656 239.711 205.727 235.156C203.596 231.843 202.762 228.608 202.727 228.471L205.843 227.682C205.872 227.793 208.806 238.85 217.332 239.197C223.453 239.446 228.608 240.206 232.238 241.393C236.257 242.707 238.266 244.486 238.211 246.682C238.148 249.157 235.425 251.071 230.116 252.368C224.973 253.626 217.619 254.247 208.846 254.159C180.636 253.883 103.313 255.511 79.361 261.164C75.3836 262.103 73.873 263.413 73.7877 264.249C73.693 265.184 75.1323 266.904 78.5171 268.473C89.4846 273.556 111.599 273.82 126.426 258.488L128.739 260.717C119.444 270.327 108.459 273.463 100.881 274.4C98.785 274.659 96.6669 274.786 94.5703 274.786V274.788Z" fill="#444444"/>
<path d="M166.304 122.919L164.615 122.808C162.233 122.766 160.028 120.937 159.699 118.722L159.582 117.932C159.253 115.716 160.929 113.973 163.312 114.036L166.145 114.203C168.487 114.266 174.108 116.084 174.432 118.266L174.547 119.044C174.87 121.225 168.643 122.96 166.304 122.919Z" fill="#444444"/>
<path d="M198.482 220.026L175.22 206.983C169.397 203.718 164.274 199.167 160.434 193.825C156.571 188.449 154.03 182.304 153.105 176.077L146.655 132.64C145.396 124.158 151.558 117.356 160.412 116.969C161.116 116.938 161.726 117.451 161.83 118.147L161.91 118.686C162.028 119.478 161.446 120.197 160.647 120.264C153.914 120.824 149.312 126.122 150.284 132.666L156.711 175.944C158.425 187.489 166.032 198.095 176.881 204.215L200.057 217.292L198.483 220.026H198.482Z" fill="#CCCCCC"/>
<path d="M199.681 221.428C199.09 221.479 198.468 221.357 197.9 221.039L174.607 208.009C168.595 204.646 163.303 199.953 159.337 194.442C155.346 188.896 152.721 182.553 151.768 176.126C151.531 174.53 152.749 173.187 154.485 173.128C156.214 173.069 157.802 174.308 158.038 175.894C159.692 187.035 167.028 197.276 177.494 203.194L200.639 216.283C202.048 217.08 202.58 218.785 201.83 220.094C201.379 220.882 200.566 221.349 199.682 221.427L199.681 221.428Z" fill="#444444"/>
<path d="M208.126 219.2L205.824 216.814L223.56 201.073C231.349 194.16 234.986 183.745 233.407 173.109L227.485 133.231C226.525 126.766 220.404 121.397 213.754 121.263L213.295 118.175C221.663 118.372 229.339 125.135 230.544 133.254L236.445 172.996C237.291 178.693 236.78 184.458 234.959 189.689C233.128 194.951 229.962 199.704 225.777 203.44L208.126 219.2Z" fill="#CCCCCC"/>
<path d="M207.384 220.755C206.513 220.831 205.594 220.517 204.927 219.829C203.816 218.681 203.834 216.933 204.968 215.93L222.735 200.196C230.278 193.517 233.803 183.443 232.274 173.15C232.057 171.685 233.069 170.456 234.532 170.407C235.99 170.357 237.343 171.498 237.56 172.955C238.431 178.82 237.906 184.755 236.034 190.143C234.151 195.563 230.895 200.46 226.59 204.312L208.97 220.078C208.521 220.48 207.962 220.704 207.382 220.755H207.384Z" fill="#444444"/>
<path d="M209.216 123.545L212.224 123.646C214.366 123.684 215.844 122.022 215.535 119.934L215.424 119.189C215.114 117.101 213.131 115.363 210.985 115.305L208.418 115.152C206.235 115.094 201.511 116.764 201.825 118.883L201.938 119.638C202.036 122.879 207.036 123.506 209.216 123.544V123.545Z" fill="#444444"/>
<path d="M203.77 222.76C200.315 223.068 196.665 222.235 193.473 220.192L188.964 217.307C187.011 216.058 186.413 213.599 187.631 211.825C188.845 210.056 191.4 209.646 193.333 210.9L197.798 213.797C200.76 215.718 204.586 215.418 206.896 213.105L210.403 209.593C211.871 208.122 214.365 208.167 215.974 209.685C217.577 211.198 217.702 213.61 216.252 215.082L212.79 218.598C210.377 221.048 207.167 222.456 203.77 222.758V222.76Z" fill="#CCCCCC"/>
<path d="M205.422 232.614C203.217 232.836 201.163 231.282 200.845 229.14L199.211 218.14C198.894 215.998 200.437 214.116 202.649 213.938C204.85 213.76 206.884 215.337 207.199 217.461L208.818 228.367C209.133 230.49 207.617 232.392 205.422 232.614Z" fill="#CCCCCC"/>
<path d="M205.827 119.2C206.073 120.399 205.579 121.513 204.724 121.687C203.87 121.861 202.979 121.03 202.733 119.832C202.487 118.633 202.981 117.519 203.836 117.345C204.69 117.171 205.581 118.002 205.827 119.2Z" fill="#444444"/>
<path d="M153.957 251.844C156.592 266.039 147.163 278.893 132.604 280.591C117.712 282.328 103.162 271.778 100.416 256.992C97.6706 242.205 107.861 229.277 122.864 228.14C137.532 227.027 151.321 237.651 153.957 251.845V251.844Z" fill="#282727"/>
<path d="M154.192 252.123C156.768 266.2 147.549 278.948 133.314 280.631C118.754 282.353 104.528 271.891 101.844 257.227C99.1591 242.563 109.122 229.743 123.792 228.614C138.133 227.512 151.615 238.047 154.192 252.122V252.123Z" fill="#444444"/>
<path d="M151.931 252.343C154.281 265.178 145.861 276.784 132.887 278.294C119.644 279.835 106.727 270.31 104.288 256.988C101.85 243.667 110.887 232 124.22 230.951C137.282 229.923 149.582 239.509 151.931 252.343Z" fill="#CCCCCC"/>
<path d="M146.243 252.899C148.021 262.611 141.623 271.36 131.817 272.455C121.859 273.568 112.188 266.386 110.36 256.397C108.531 246.409 115.279 237.625 125.289 236.791C135.145 235.97 144.465 243.186 146.244 252.898L146.243 252.899Z" fill="#EDF0F1"/>
</g>
<defs>
<clipPath id="clip0_2138_26029">
<rect width="284" height="284" fill="white"/>
</clipPath>
<clipPath id="clip1_2138_26029">
<rect width="3.30054" height="3.30054" fill="white" transform="translate(205.729 82.0732)"/>
</clipPath>
<clipPath id="clip2_2138_26029">
<rect width="3.30054" height="3.30054" fill="white" transform="translate(205.729 82.0732)"/>
</clipPath>
<clipPath id="clip3_2138_26029">
<rect width="3.30054" height="3.30054" fill="white" transform="translate(205.729 78.7725)"/>
</clipPath>
</defs>
</svg>
