<svg width="125" height="120" viewBox="0 0 125 120" fill="none" xmlns="http://www.w3.org/2000/svg">
<path d="M18.2479 95.8676L31.9593 54.7052H32.0233C32.1725 53.5424 32.3076 50.91 31.0992 47.6784C29.0095 42.0925 31.7247 37.106 31.7247 37.106C31.0068 33.5462 29.8127 30.1005 29.0166 26.555C28.9313 26.184 28.8531 25.7845 28.9952 25.435C29.1516 25.0426 29.5497 24.8072 29.9406 24.6502C32.2223 23.7514 34.4684 24.9427 35.6626 26.9117C36.3663 28.0674 36.8212 29.3372 37.1837 30.6356C37.3543 31.2491 38.0935 33.1253 38.0864 34.0313L41.7186 12.0804C42.0385 10.1328 43.6449 8.76313 45.2798 9.03422C46.0972 9.16976 46.7796 9.69053 47.206 10.4253C47.4833 10.889 47.6396 11.4455 47.6965 12.0304C47.7534 11.8949 47.7889 11.8093 47.7889 11.8093C62.1116 10.4182 55.4443 44.2113 55.4443 44.2113L53.4611 53.9633L46.6232 111.662C46.4028 113.488 45.8768 115.079 45.1092 116.456C43.8368 118.71 41.0864 119.812 41.0864 119.812H0L18.2479 95.8676Z" fill="#EDDDFF"/>
<path d="M44.6679 41.1166H44.6821C44.9736 41.1095 45.2081 40.8598 45.201 40.5673C44.9664 33.5119 38.6047 32.8485 38.5408 32.8413C38.2493 32.8199 37.9864 33.0339 37.965 33.3264C37.9366 33.6189 38.1498 33.8829 38.4484 33.9114C38.6758 33.9328 43.9429 34.5106 44.1419 40.603C44.149 40.8955 44.3907 41.1237 44.675 41.1237L44.6679 41.1166Z" fill="#DDC1FF"/>
<path d="M45.9478 28.525C46.1255 28.525 46.3032 28.4394 46.4028 28.2753C49.9355 22.5753 48.3788 12.1599 48.3148 11.7247C48.2722 11.4322 47.995 11.2325 47.7035 11.2753C47.4121 11.3181 47.2131 11.5963 47.2557 11.8888C47.2699 11.9958 48.8124 22.3542 45.4929 27.7117C45.3366 27.9614 45.4147 28.2896 45.6635 28.4465C45.7488 28.5036 45.8483 28.525 45.9478 28.525Z" fill="#DDC1FF"/>
<path d="M50.0775 29.0378C50.305 29.0378 50.5111 28.8951 50.5893 28.6668C54.0438 17.6664 51.5631 12.1733 51.4565 11.9451C51.3285 11.6811 51.0158 11.5598 50.7457 11.6882C50.4827 11.8166 50.3689 12.1305 50.4898 12.4016C50.5111 12.4516 52.8852 17.7948 49.5657 28.3529C49.4804 28.6383 49.6297 28.9379 49.914 29.0235C49.9709 29.0378 50.0207 29.0521 50.0775 29.0521V29.0378Z" fill="#DDC1FF"/>
<path d="M53.7307 29.3373C53.944 29.3373 54.143 29.2089 54.2283 28.9949C56.51 23.138 54.8538 15.4334 54.7827 15.1052C54.7187 14.8127 54.4344 14.6344 54.1501 14.6986C53.8658 14.7628 53.681 15.0482 53.7449 15.3335C53.7591 15.412 55.394 23.0524 53.2331 28.6025C53.1265 28.8807 53.2616 29.1875 53.5388 29.2945C53.6028 29.323 53.6667 29.3302 53.7307 29.3302V29.3373Z" fill="#DDC1FF"/>
<path d="M64.8904 3.97338C64.8904 3.97338 64.926 4.04472 64.9828 4.17313C65.0184 3.63095 65.1605 3.12445 65.4022 2.69642C65.7861 2.0187 66.3973 1.52646 67.1437 1.39092C68.6364 1.1127 70.1291 2.33972 70.4631 4.11606L74.1735 24.1551C74.1522 23.3276 74.7919 21.594 74.9412 21.0305C75.2468 19.8391 75.652 18.662 76.2704 17.5991C77.3295 15.7728 79.3624 14.6456 81.4664 15.4304C81.8289 15.5659 82.1985 15.7799 82.3478 16.1295C82.4828 16.4505 82.4189 16.8143 82.3478 17.1568C81.6796 20.4169 80.649 23.5915 80.0519 26.8731C80.0519 26.8731 82.625 31.3888 80.8124 36.5395C79.3908 40.5844 80.2012 43.5806 80.2012 43.5806L80.1017 43.602C80.1017 43.602 93.0664 82.5233 95.5332 87.6679C98 92.8125 115.5 107.312 125 119.766L82.7361 119.813C81.5 117.812 79.9666 115.133 77.2726 113.072C74.202 110.725 70.9323 108.199 69.2121 104.618C67.2716 100.573 67.5915 95.7862 67.0229 91.4346C66.6106 88.2885 66.2552 85.1282 65.8713 81.9751C65.0397 75.1194 64.2081 68.2709 63.3693 61.4153C62.822 56.9281 62.2747 52.4337 61.7345 47.9465L61.6278 47.9751L58.4506 33.7715C58.4506 33.7715 51.7477 2.9461 64.8904 3.96625V3.97338Z" fill="#DDC1FF"/>
</svg>
