<svg width="320" height="481" viewBox="0 0 320 481" fill="none" xmlns="http://www.w3.org/2000/svg">
<path d="M33.1426 465L33.1426 -1.3411e-05" stroke="#CACACA"/>
<path d="M25.6343 480V477.984H21.7583V477.084L25.8263 471.696H26.6183V477.18H27.9743V477.984H26.6183V480H25.6343ZM22.7303 477.144V477.18H25.6343V473.328H25.6103L22.7303 477.144ZM29.1312 480V478.812H30.2952V480H29.1312ZM31.55 480C31.646 477.804 33.194 477 34.634 476.172C35.714 475.548 36.374 475.128 36.374 474.132C36.374 473.124 35.678 472.44 34.586 472.44C34.01 472.44 33.578 472.632 33.278 472.956C32.954 473.304 32.81 473.76 32.81 474.6H31.754C31.754 473.544 32.03 472.872 32.534 472.368C33.062 471.852 33.83 471.6 34.67 471.6C36.338 471.6 37.418 472.656 37.418 474.12C37.418 475.704 36.338 476.232 35.018 476.964C34.13 477.456 32.99 478.128 32.762 479.04H37.25V480H31.55ZM41.506 480.18C39.802 480.18 38.554 479.148 38.482 477.624H39.478C39.61 478.644 40.33 479.292 41.494 479.292C42.67 479.292 43.426 478.5 43.426 477.3C43.426 476.064 42.574 475.344 41.494 475.344C40.606 475.344 39.994 475.704 39.646 476.196H38.674L39.586 471.78H43.966V472.68H40.294L39.754 475.152H39.778C40.246 474.708 40.87 474.456 41.662 474.456C43.126 474.456 44.458 475.5 44.458 477.324C44.458 479.076 43.21 480.18 41.506 480.18Z" fill="#757575"/>
<path d="M75.4277 465L75.4277 -1.3411e-05" stroke="#CACACA"/>
<path d="M67.4332 480V477.984H63.5572V477.084L67.6252 471.696H68.4172V477.18H69.7732V477.984H68.4172V480H67.4332ZM64.5292 477.144V477.18H67.4332V473.328H67.4092L64.5292 477.144ZM70.93 480V478.812H72.094V480H70.93ZM76.4689 480.18C74.6569 480.18 73.2289 479.16 73.1929 477.288H74.1889C74.2249 478.608 75.0769 479.34 76.4329 479.34C77.5729 479.34 78.3769 478.776 78.3769 477.612C78.3769 476.568 77.5969 476.016 76.2169 476.016H75.7009V475.236H76.2049C77.4889 475.236 78.1369 474.696 78.1369 473.82C78.1369 472.92 77.3329 472.38 76.3489 472.38C75.1609 472.38 74.4529 473.148 74.4529 474.288H73.4689C73.4809 472.668 74.5729 471.588 76.3849 471.588C77.9089 471.588 79.1209 472.416 79.1209 473.844C79.1209 474.768 78.5569 475.308 77.7649 475.572V475.608C78.9169 475.908 79.4209 476.64 79.4209 477.708C79.4209 479.28 78.1369 480.18 76.4689 480.18ZM83.8889 480.18C81.8609 480.18 80.6969 478.5 80.6969 475.884C80.6969 473.22 81.9569 471.588 83.9009 471.588C85.8449 471.588 87.0809 473.196 87.0809 475.884C87.0809 478.5 85.9409 480.18 83.8889 480.18ZM83.9009 479.304C85.3649 479.304 86.0369 478.008 86.0369 475.884C86.0369 473.796 85.3289 472.452 83.9009 472.452C82.4489 472.452 81.7409 473.76 81.7409 475.884C81.7409 477.972 82.4489 479.304 83.9009 479.304Z" fill="#757575"/>
<path d="M117.715 465L117.715 -1.3411e-05" stroke="#CACACA"/>
<path d="M110.125 480V477.984H106.249V477.084L110.317 471.696H111.109V477.18H112.465V477.984H111.109V480H110.125ZM107.221 477.144V477.18H110.125V473.328H110.101L107.221 477.144ZM113.621 480V478.812H114.785V480H113.621ZM119.16 480.18C117.348 480.18 115.92 479.16 115.884 477.288H116.88C116.916 478.608 117.768 479.34 119.124 479.34C120.264 479.34 121.068 478.776 121.068 477.612C121.068 476.568 120.288 476.016 118.908 476.016H118.392V475.236H118.896C120.18 475.236 120.828 474.696 120.828 473.82C120.828 472.92 120.024 472.38 119.04 472.38C117.852 472.38 117.144 473.148 117.144 474.288H116.16C116.172 472.668 117.264 471.588 119.076 471.588C120.6 471.588 121.812 472.416 121.812 473.844C121.812 474.768 121.248 475.308 120.456 475.572V475.608C121.608 475.908 122.112 476.64 122.112 477.708C122.112 479.28 120.828 480.18 119.16 480.18ZM126.16 480.18C124.456 480.18 123.208 479.148 123.136 477.624H124.132C124.264 478.644 124.984 479.292 126.148 479.292C127.324 479.292 128.08 478.5 128.08 477.3C128.08 476.064 127.228 475.344 126.148 475.344C125.26 475.344 124.648 475.704 124.3 476.196H123.328L124.24 471.78H128.62V472.68H124.948L124.408 475.152H124.432C124.9 474.708 125.524 474.456 126.316 474.456C127.78 474.456 129.112 475.5 129.112 477.324C129.112 479.076 127.864 480.18 126.16 480.18Z" fill="#757575"/>
<path d="M160 465L160 -1.3411e-05" stroke="#CACACA"/>
<path d="M152.205 480V477.984H148.329V477.084L152.397 471.696H153.189V477.18H154.545V477.984H153.189V480H152.205ZM149.301 477.144V477.18H152.205V473.328H152.181L149.301 477.144ZM155.702 480V478.812H156.866V480H155.702ZM161.573 480V477.984H157.697V477.084L161.765 471.696H162.557V477.18H163.913V477.984H162.557V480H161.573ZM158.669 477.144V477.18H161.573V473.328H161.549L158.669 477.144ZM168.262 480.18C166.234 480.18 165.07 478.5 165.07 475.884C165.07 473.22 166.33 471.588 168.274 471.588C170.218 471.588 171.454 473.196 171.454 475.884C171.454 478.5 170.314 480.18 168.262 480.18ZM168.274 479.304C169.738 479.304 170.41 478.008 170.41 475.884C170.41 473.796 169.702 472.452 168.274 472.452C166.822 472.452 166.114 473.76 166.114 475.884C166.114 477.972 166.822 479.304 168.274 479.304Z" fill="#757575"/>
<path d="M202.285 465L202.285 -1.3411e-05" stroke="#CACACA"/>
<path d="M194.894 480V477.984H191.018V477.084L195.086 471.696H195.878V477.18H197.234V477.984H195.878V480H194.894ZM191.99 477.144V477.18H194.894V473.328H194.87L191.99 477.144ZM198.391 480V478.812H199.555V480H198.391ZM204.263 480V477.984H200.387V477.084L204.455 471.696H205.247V477.18H206.603V477.984H205.247V480H204.263ZM201.359 477.144V477.18H204.263V473.328H204.239L201.359 477.144ZM210.531 480.18C208.827 480.18 207.579 479.148 207.507 477.624H208.503C208.635 478.644 209.355 479.292 210.519 479.292C211.695 479.292 212.451 478.5 212.451 477.3C212.451 476.064 211.599 475.344 210.519 475.344C209.631 475.344 209.019 475.704 208.671 476.196H207.699L208.611 471.78H212.991V472.68H209.319L208.779 475.152H208.803C209.271 474.708 209.895 474.456 210.687 474.456C212.151 474.456 213.483 475.5 213.483 477.324C213.483 479.076 212.235 480.18 210.531 480.18Z" fill="#757575"/>
<path d="M244.57 465L244.57 -1.3411e-05" stroke="#CACACA"/>
<path d="M236.675 480V477.984H232.799V477.084L236.867 471.696H237.659V477.18H239.015V477.984H237.659V480H236.675ZM233.771 477.144V477.18H236.675V473.328H236.651L233.771 477.144ZM240.172 480V478.812H241.336V480H240.172ZM245.519 480.18C243.815 480.18 242.567 479.148 242.495 477.624H243.491C243.623 478.644 244.343 479.292 245.507 479.292C246.683 479.292 247.439 478.5 247.439 477.3C247.439 476.064 246.587 475.344 245.507 475.344C244.619 475.344 244.007 475.704 243.659 476.196H242.687L243.599 471.78H247.979V472.68H244.307L243.767 475.152H243.791C244.259 474.708 244.883 474.456 245.675 474.456C247.139 474.456 248.471 475.5 248.471 477.324C248.471 479.076 247.223 480.18 245.519 480.18ZM252.932 480.18C250.904 480.18 249.74 478.5 249.74 475.884C249.74 473.22 251 471.588 252.944 471.588C254.888 471.588 256.124 473.196 256.124 475.884C256.124 478.5 254.984 480.18 252.932 480.18ZM252.944 479.304C254.408 479.304 255.08 478.008 255.08 475.884C255.08 473.796 254.372 472.452 252.944 472.452C251.492 472.452 250.784 473.76 250.784 475.884C250.784 477.972 251.492 479.304 252.944 479.304Z" fill="#757575"/>
<path d="M286.857 465L286.857 -1.3411e-05" stroke="#CACACA"/>
<path d="M279.367 480V477.984H275.491V477.084L279.559 471.696H280.351V477.18H281.707V477.984H280.351V480H279.367ZM276.463 477.144V477.18H279.367V473.328H279.343L276.463 477.144ZM282.864 480V478.812H284.028V480H282.864ZM288.21 480.18C286.506 480.18 285.258 479.148 285.186 477.624H286.182C286.314 478.644 287.034 479.292 288.198 479.292C289.374 479.292 290.13 478.5 290.13 477.3C290.13 476.064 289.278 475.344 288.198 475.344C287.31 475.344 286.698 475.704 286.35 476.196H285.378L286.29 471.78H290.67V472.68H286.998L286.458 475.152H286.482C286.95 474.708 287.574 474.456 288.366 474.456C289.83 474.456 291.162 475.5 291.162 477.324C291.162 479.076 289.914 480.18 288.21 480.18ZM295.203 480.18C293.499 480.18 292.251 479.148 292.179 477.624H293.175C293.307 478.644 294.027 479.292 295.191 479.292C296.367 479.292 297.123 478.5 297.123 477.3C297.123 476.064 296.271 475.344 295.191 475.344C294.303 475.344 293.691 475.704 293.343 476.196H292.371L293.283 471.78H297.663V472.68H293.991L293.451 475.152H293.475C293.943 474.708 294.567 474.456 295.359 474.456C296.823 474.456 298.155 475.5 298.155 477.324C298.155 479.076 296.907 480.18 295.203 480.18Z" fill="#757575"/>
<path d="M249 0L249 465" stroke="#D9D1FF" stroke-width="2" stroke-dasharray="8 8"/>
<path d="M71 0L71 465" stroke="#5F249F" stroke-width="2" stroke-dasharray="8 8"/>
<rect x="58" y="41" width="211" height="2" fill="#D0CCD4"/>
<rect x="268" y="16" width="52" height="52" rx="26" fill="#AB99FF"/>
<path d="M286.127 21.9366L284.278 21.7175C284.217 21.7106 284.15 21.7061 284.089 21.7061C283.628 21.7061 283.212 21.9047 282.92 22.2197C283.004 22.2151 283.087 22.206 283.171 22.206C283.783 22.206 284.281 22.7083 284.281 23.3224C284.281 23.9365 283.783 24.4387 283.171 24.4387C283.112 24.4387 283.052 24.4433 282.993 24.4478C283.278 24.7195 283.664 24.8885 284.089 24.8885C284.153 24.8885 284.214 24.8839 284.276 24.877C284.276 24.877 285.589 24.7309 286.221 24.667C286.99 24.5917 287.34 23.9022 287.34 23.295C287.34 22.601 286.819 22.0142 286.127 21.9321V21.9366Z" fill="#100022" stroke="#100022" stroke-width="1.01463" stroke-linejoin="round"/>
<path d="M299.037 35.2256C298.304 35.2256 297.708 35.8191 297.708 36.5497V37.9993C297.708 39.917 296.64 41.6429 294.919 42.5036L292.197 43.8665C292.747 43.8824 293.241 44.1929 293.489 44.6906C293.67 45.049 293.699 45.4554 293.574 45.8366C293.524 45.9896 293.446 46.1266 293.352 46.2521L296.112 44.871C298.736 43.5583 300.366 40.9261 300.366 38.0016V36.552C300.366 35.8214 299.77 35.2279 299.037 35.2279V35.2256Z" fill="#100022" stroke="#100022" stroke-width="1.01463" stroke-linejoin="round"/>
<path d="M285.395 44.5908C285.642 44.0977 286.131 43.7872 286.676 43.7667L284.165 42.5156C282.432 41.6527 281.355 39.9222 281.355 38V36.5481C281.355 35.8175 280.756 35.2217 280.019 35.2217C279.282 35.2217 278.684 35.8175 278.684 36.5481V38C278.684 40.9313 280.325 43.5681 282.966 44.8853L285.537 46.166C285.206 45.7254 285.131 45.1159 285.393 44.5908H285.395Z" fill="#100022" stroke="#100022" stroke-width="1.01463" stroke-linejoin="round"/>
<path d="M280.02 35.2253C280.501 35.2253 280.921 35.4832 281.157 35.8645V26.4771C281.157 25.3539 282.061 24.4407 283.17 24.4407C283.782 24.4407 284.28 23.9385 284.28 23.3244C284.28 22.7103 283.782 22.208 283.17 22.208C280.837 22.208 278.938 24.1234 278.938 26.4794V35.7823C279.179 35.4467 279.574 35.2275 280.02 35.2275V35.2253Z" stroke="#100022" stroke-width="1.26829" stroke-linejoin="round"/>
<path d="M295.901 24.441C295.283 24.441 294.778 23.9388 294.778 23.3246C294.778 22.7105 295.283 22.2083 295.901 22.2083C296.011 22.2083 296.116 22.2174 296.223 22.2243C295.931 21.907 295.515 21.7061 295.052 21.7061C294.99 21.7061 294.924 21.7106 294.863 21.7175L293.011 21.9366C292.319 22.0188 291.799 22.6032 291.799 23.2995C291.799 23.9068 292.148 24.5962 292.917 24.6716C293.548 24.7332 294.86 24.8816 294.86 24.8816C294.924 24.8885 294.986 24.893 295.05 24.893C295.472 24.893 295.853 24.7264 296.139 24.4593C296.059 24.4501 295.981 24.4433 295.899 24.4433L295.901 24.441Z" fill="#100022" stroke="#100022" stroke-width="1.01463" stroke-linejoin="round"/>
<path d="M295.901 24.442C297.033 24.442 297.955 25.3552 297.955 26.4784V35.7859C298.197 35.448 298.59 35.2266 299.035 35.2266C299.542 35.2266 299.978 35.5142 300.202 35.9297V26.4784C300.202 24.1247 298.273 22.207 295.901 22.207C295.282 22.207 294.777 22.7093 294.777 23.3234C294.777 23.9375 295.282 24.4397 295.901 24.4397V24.442Z" stroke="#100022" stroke-width="1.26829" stroke-linejoin="round"/>
<path d="M304.244 53.6007C303.881 53.6007 303.527 53.5619 303.184 53.4888V53.8997C303.184 55.5343 302.557 57.0799 301.415 58.251C300.276 59.4221 298.751 60.0888 297.119 60.1253L296.902 60.1299C296.856 60.1299 296.762 60.1299 296.76 60.1299C295.126 60.1299 293.58 59.4998 292.413 58.356C291.208 57.1735 290.544 55.5914 290.544 53.902V50.4229C290.274 50.7333 289.882 50.9319 289.441 50.9319C289.028 50.9319 288.656 50.7562 288.389 50.4776V53.9043C288.389 56.1804 289.284 58.3104 290.909 59.9038C292.482 61.4448 294.562 62.2941 296.76 62.2941C296.826 62.2941 296.89 62.2941 296.959 62.2941L297.171 62.2895C299.367 62.237 301.424 61.3398 302.958 59.7623C304.492 58.1848 305.337 56.1051 305.337 53.902V53.482C304.983 53.5596 304.618 53.603 304.241 53.603L304.244 53.6007Z" fill="#100022" stroke="#100022" stroke-width="1.01463" stroke-linejoin="round"/>
<path d="M304.241 53.599C301.442 53.599 299.166 51.3366 299.166 48.5583C299.166 45.78 301.442 43.5176 304.241 43.5176C307.04 43.5176 309.316 45.78 309.316 48.5583C309.316 51.3366 307.04 53.599 304.241 53.599Z" stroke="#100022" stroke-width="1.26829" stroke-linejoin="round"/>
<path d="M289.438 50.9308C288.628 50.9308 287.97 50.2619 287.97 49.44V47.5703L286.057 46.6046C285.322 46.2325 285.023 45.3307 285.393 44.5911C285.649 44.082 286.16 43.7646 286.731 43.7646C286.961 43.7646 287.194 43.8194 287.402 43.9245L289.331 44.897C289.393 44.9267 289.461 44.9449 289.53 44.9449C289.598 44.9449 289.669 44.9289 289.728 44.897L291.472 44.0158C291.68 43.9108 291.913 43.856 292.144 43.856C292.712 43.856 293.226 44.1733 293.481 44.6824C293.662 45.0408 293.691 45.4472 293.566 45.8261C293.44 46.2074 293.176 46.5156 292.817 46.6959L291.073 47.5771C291.02 47.6045 290.963 47.6296 290.906 47.6548V49.4377C290.906 50.2596 290.247 50.9285 289.438 50.9285V50.9308Z" stroke="#100022" stroke-width="1.26829" stroke-linejoin="round"/>
<circle cx="64" cy="42" r="6" fill="#5F249F"/>
<rect x="27" y="117.167" width="193" height="2" fill="#D0CCD4"/>
<rect x="219" y="92.167" width="52" height="52" rx="26" fill="#D9D1FF"/>
<path d="M245.024 129.977C242.33 129.977 239.812 129.237 237.654 127.952C236.257 130.313 236.18 133.048 236.18 133.842C236.18 135.326 240.141 136.527 245.026 136.527C249.911 136.527 253.872 135.324 253.872 133.842C253.872 133.045 253.795 130.313 252.398 127.952C250.24 129.237 247.72 129.977 245.028 129.977H245.024Z" fill="#310A5C" stroke="#310A5C" stroke-width="1.26829" stroke-linejoin="round"/>
<path d="M245.024 129.976C252.994 129.976 259.455 123.515 259.455 115.546C259.455 107.576 252.994 101.115 245.024 101.115C237.054 101.115 230.594 107.576 230.594 115.546C230.594 123.515 237.054 129.976 245.024 129.976Z" stroke="#310A5C" stroke-width="1.26829" stroke-linejoin="round"/>
<path d="M230.545 105.829C232.481 104.977 233.951 103.329 234.581 101.311L235.049 99.8066L235.517 101.311C236.145 103.329 237.617 104.977 239.553 105.829C237.617 106.681 236.147 108.329 235.517 110.347L235.049 111.851L234.581 110.347C233.953 108.329 232.481 106.681 230.545 105.829Z" fill="#310A5C" stroke="#310A5C" stroke-width="1.26829" stroke-linejoin="round"/>
<path d="M239.9 110.726C240.601 110.418 241.133 109.822 241.359 109.091L241.528 108.548L241.697 109.091C241.925 109.822 242.457 110.418 243.156 110.726C242.455 111.034 241.923 111.63 241.697 112.36L241.528 112.904L241.359 112.36C241.131 111.63 240.599 111.034 239.9 110.726Z" fill="#310A5C" stroke="#310A5C" stroke-width="1.26829" stroke-linejoin="round"/>
<circle cx="33" cy="118.167" r="6" fill="#5F249F"/>
<rect x="62" y="193.333" width="181" height="2" fill="#D0CCD4"/>
<rect x="242" y="168.333" width="52" height="52" rx="26" fill="#D9D1FF"/>
<path d="M258.17 193.771L261.872 191.705L258.974 186.509L254.359 189.082L253.896 189.342C253.685 189.458 253.609 189.727 253.728 189.937L256.201 194.368C256.319 194.579 256.586 194.655 256.796 194.539L257.521 194.133L257.564 194.111L258.175 193.771H258.17Z" stroke="#310A5C" stroke-width="1.26829" stroke-linejoin="round"/>
<path d="M280.972 182.129C281.429 181.874 280.943 180.135 279.889 178.246C278.835 176.355 277.611 175.03 277.154 175.285L280.974 182.129H280.972Z" stroke="#310A5C" stroke-width="1.26829" stroke-linejoin="round"/>
<path d="M253.864 190.188L248.652 193.095C248.437 193.215 248.482 193.538 248.721 193.594L254.22 194.898C254.419 194.945 254.63 194.916 254.809 194.818L256.06 194.12L253.866 190.188H253.864Z" stroke="#310A5C" stroke-width="1.26829" stroke-linejoin="round"/>
<path d="M280.975 182.139L277.148 175.279C277.03 175.069 276.764 174.993 276.553 175.109L276.027 175.402L270.493 178.486L269.193 179.211C268.982 179.33 268.906 179.596 269.025 179.807L272.852 186.666C272.97 186.876 273.237 186.952 273.447 186.836L274.226 186.402L279.507 183.457L280.808 182.734C281.018 182.615 281.094 182.349 280.975 182.139Z" stroke="#310A5C" stroke-width="1.26829" stroke-linejoin="round"/>
<path d="M279.895 213.505L271.782 196.327C271.769 196.3 271.744 196.284 271.715 196.284H264.726C264.697 196.284 264.672 196.3 264.659 196.327L256.547 213.505C256.533 213.537 256.54 213.561 256.551 213.577C256.56 213.59 256.578 213.61 256.614 213.61H259.279C259.308 213.61 259.333 213.595 259.346 213.568L266.317 198.809C266.429 198.571 266.783 198.652 266.783 198.914V213.537C266.783 213.577 266.816 213.61 266.857 213.61H269.589C269.629 213.61 269.663 213.577 269.663 213.537V198.912C269.663 198.65 270.017 198.571 270.129 198.806L277.1 213.568C277.111 213.592 277.138 213.61 277.167 213.61H279.832C279.868 213.61 279.886 213.588 279.895 213.577C279.904 213.561 279.913 213.537 279.899 213.505H279.895Z" fill="#310A5C"/>
<path d="M272.657 186.332L269.209 180.15L263.95 183.084L259.075 185.803C258.865 185.92 258.789 186.188 258.908 186.399L261.931 191.817C262.05 192.027 262.316 192.103 262.526 191.987L264.599 190.83L272.66 186.334L272.657 186.332Z" stroke="#310A5C" stroke-width="1.26829" stroke-linejoin="round"/>
<path d="M268.217 191.285C268.338 191.285 268.454 191.296 268.57 191.312L267.422 189.253L265.562 190.291L266.487 191.947C266.948 191.538 267.552 191.287 268.217 191.287V191.285Z" fill="#310A5C" stroke="#310A5C" stroke-width="1.26829" stroke-linejoin="round"/>
<path d="M270.794 194.289C270.814 194.159 270.828 194.03 270.828 193.895C270.828 192.454 269.659 191.288 268.22 191.288C266.781 191.288 265.613 192.456 265.613 193.895C265.613 194.03 265.627 194.162 265.647 194.289H270.796H270.794Z" stroke="#310A5C" stroke-width="1.26829" stroke-linejoin="round"/>
<path d="M271.235 194.289H265.208C265.032 194.289 264.891 194.432 264.891 194.607V195.965C264.891 196.142 265.034 196.283 265.208 196.283H271.235C271.412 196.283 271.553 196.14 271.553 195.965V194.607C271.553 194.43 271.41 194.289 271.235 194.289Z" stroke="#310A5C" stroke-width="1.26829" stroke-linejoin="round"/>
<circle cx="68" cy="194.333" r="6" fill="#5F249F"/>
<rect x="37" y="268.5" width="180" height="2" fill="#D0CCD4"/>
<rect x="216" y="243.5" width="52" height="52" rx="26" fill="#D9D1FF"/>
<path d="M243.649 250.975C243.636 250.103 243.622 249.598 243.606 249.573C243.46 249.336 240.389 249.377 240.273 249.573C240.259 249.596 240.248 250.101 240.236 250.977C240.531 250.97 243.353 250.97 243.649 250.975Z" stroke="#310A5C" stroke-width="1.26829" stroke-linejoin="round"/>
<path d="M248.253 286.446H243.644C243.653 285.96 243.66 285.328 243.667 284.574C243.354 284.577 240.526 284.579 240.213 284.574C240.22 285.325 240.227 285.958 240.233 286.446H235.547C234.764 286.446 234.129 286.855 234.129 287.359V288.677C234.129 289.181 234.764 289.59 235.547 289.59H248.253C249.036 289.59 249.671 289.181 249.671 288.677V287.359C249.671 286.855 249.036 286.446 248.253 286.446Z" stroke="#310A5C" stroke-width="1.26829" stroke-linejoin="round"/>
<path d="M234.676 281.529C234.454 281.428 234.32 281.2 234.342 280.96C234.737 276.723 235.589 274.676 236.107 272.24C236.173 271.927 236.486 271.733 236.799 271.808C238.169 272.142 240.486 272.26 241.913 272.338C242.214 272.352 242.454 272.6 242.454 272.902L242.403 281.748C242.403 282.063 242.191 282.317 241.83 282.317C239.518 282.317 236.477 282.045 234.676 281.529Z" fill="#310A5C" stroke="#310A5C" stroke-width="1.26829" stroke-linejoin="round"/>
<path d="M250.323 272.191C249.962 270.901 249.478 268.449 250.613 265.739C251.622 263.331 251.8 260.578 251.8 260.578C252.471 259.959 253.658 256.758 253.195 255.829C252.731 254.9 246.846 253.405 246.122 253.094C245.399 252.784 245.812 251.494 245.554 251.183C245.314 250.893 238.687 250.893 238.445 251.183C238.187 251.494 238.6 252.784 237.876 253.094C237.153 253.405 231.27 254.9 230.804 255.829C230.34 256.758 231.528 259.957 232.199 260.578C232.199 260.578 232.484 263.287 233.386 265.739C234.495 268.757 234.036 270.901 233.676 272.191C233.315 273.481 232.87 274.823 232.354 277.455C231.838 280.087 231.815 281.391 231.993 282.617C232.365 285.201 251.661 285.254 252.005 282.617C252.078 282.067 252.161 280.087 251.645 277.455C251.129 274.823 250.684 273.481 250.323 272.191Z" stroke="#310A5C" stroke-width="1.26829" stroke-linejoin="round"/>
<path d="M244.173 268.389C244.168 268.663 244.399 268.882 244.673 268.864C246.508 268.864 248.72 268.709 250.015 267.873C250.019 267.843 250.026 267.814 250.031 267.782C250.042 267.709 250.058 267.633 250.072 267.56C250.09 267.469 250.106 267.378 250.127 267.284C250.143 267.211 250.163 267.138 250.182 267.063C250.204 266.967 250.227 266.873 250.255 266.775C250.275 266.7 250.303 266.624 250.325 266.549C250.355 266.453 250.385 266.357 250.417 266.259C250.446 266.174 250.481 266.09 250.515 266.006C250.549 265.919 250.579 265.832 250.615 265.745C251.624 263.337 251.802 260.584 251.802 260.584C250.889 258.928 250.926 256.404 251.403 254.817C251.398 254.817 251.394 254.812 251.389 254.812C250.508 254.472 249.444 254.13 248.497 253.84C248.389 256.207 246.785 258.702 244.591 259.403C244.337 259.483 244.166 259.716 244.166 259.981C244.175 261.584 244.207 265.722 244.171 268.389H244.173Z" fill="#310A5C" stroke="#310A5C" stroke-width="1.26829" stroke-linejoin="round"/>
<circle cx="43" cy="269.5" r="6" fill="#5F249F"/>
<rect x="71" y="344.668" width="169" height="2" fill="#D0CCD4"/>
<rect x="239" y="319.668" width="52" height="52" rx="26" fill="#D9D1FF"/>
<path d="M261.098 357.462C261.098 357.462 261.098 357.442 261.101 357.43C261.117 357.296 261.135 357.161 261.162 357.026C261.167 357.006 261.171 356.983 261.176 356.962C261.203 356.828 261.233 356.693 261.272 356.558C261.281 356.529 261.285 356.499 261.288 356.467C261.292 356.403 261.283 356.337 261.263 356.268C261.212 356.095 261.091 355.912 260.916 355.755C260.845 355.691 260.77 355.636 260.692 355.588C260.459 355.446 260.206 355.383 260.005 355.421C260.005 355.421 254.704 356.958 253.937 356.611C253.898 356.592 253.859 356.558 253.823 356.515H253.82C254.16 356.93 256.318 358.611 257.279 358.992C257.898 359.236 259.79 358.722 261.082 358.318C261.064 358.033 261.069 357.745 261.101 357.458L261.098 357.462Z" fill="#310A5C" stroke="#310A5C" stroke-width="1.26829" stroke-linejoin="round"/>
<path d="M257.883 340.34C257.59 340.012 257.264 339.706 256.899 339.436C255.529 338.43 253.766 337.877 252.488 338.405C252.23 338.512 251.856 338.971 251.422 338.615C251.422 338.615 254.344 341.06 254.903 341.053C255.401 341.048 256.766 340.29 257.885 340.34H257.883Z" fill="#310A5C" stroke="#310A5C" stroke-width="1.26829" stroke-linejoin="round"/>
<path d="M274.781 330.904C274.615 330.507 271.921 328.797 271.921 328.797L271.916 328.808C273.918 329.605 275.797 352.227 275.211 352.793C274.619 353.366 268.401 354.133 268.401 354.133C268.391 354.135 268.387 354.14 268.378 354.142C268.339 354.151 268.305 354.165 268.273 354.183C268.261 354.19 268.25 354.194 268.238 354.201C268.202 354.226 268.17 354.254 268.143 354.29C268.117 354.327 268.104 354.368 268.092 354.411C268.09 354.423 268.088 354.436 268.088 354.448C268.083 354.482 268.081 354.516 268.083 354.553C268.083 354.569 268.085 354.585 268.088 354.601C268.095 354.637 268.101 354.676 268.115 354.715C268.122 354.731 268.124 354.745 268.131 354.761C268.152 354.815 268.179 354.868 268.213 354.923C268.213 354.925 268.216 354.93 268.218 354.932C268.558 355.464 268.777 356.069 268.871 356.731C269.053 358.039 268.729 359.37 267.96 360.484C267.197 361.587 266.88 361.806 265.643 362.05C264.657 362.244 263.714 362.089 262.938 361.63L266.152 363.997C270.544 365.801 272.729 360.377 271.451 356.744C271.451 356.744 277.461 355.952 278.343 355.062C279.222 354.172 274.943 331.304 274.779 330.906L274.781 330.904Z" fill="#310A5C" stroke="#310A5C" stroke-width="1.26829" stroke-linejoin="round"/>
<path d="M250.58 332.608C249.683 332.866 250.984 338.258 251.418 338.615C251.852 338.971 252.226 338.512 252.484 338.405C253.765 337.877 255.527 338.43 256.895 339.436C258.059 340.295 258.869 341.484 259.235 342.84C259.235 342.845 259.237 342.852 259.239 342.856C259.305 343.101 259.36 343.347 259.397 343.603C259.611 345.141 259.468 346.607 258.589 347.881C257.717 349.141 256.262 350.095 255.317 350.237C254.372 350.378 253.317 349.965 253.066 350.431C252.817 350.897 253.162 356.268 253.929 356.613C254.696 356.96 259.997 355.424 259.997 355.424C260.264 355.371 260.625 355.504 260.908 355.755C261.189 356.006 261.33 356.328 261.267 356.558C261.066 357.271 261.015 357.987 261.114 358.686C261.214 359.403 261.458 360.044 261.821 360.579C261.828 360.585 261.835 360.595 261.84 360.601C261.846 360.611 261.849 360.62 261.856 360.629C262.038 360.887 262.253 361.115 262.49 361.314L262.835 361.567C263.627 362.076 264.613 362.25 265.645 362.047C266.88 361.802 267.2 361.583 267.962 360.48C268.732 359.366 269.056 358.035 268.873 356.727C268.78 356.065 268.56 355.46 268.22 354.928C268.22 354.926 268.218 354.922 268.216 354.919C268.181 354.864 268.154 354.81 268.134 354.757C268.127 354.741 268.124 354.727 268.118 354.711C268.104 354.673 268.095 354.634 268.09 354.597C268.088 354.579 268.086 354.563 268.086 354.549C268.083 354.513 268.086 354.479 268.09 354.444C268.09 354.433 268.092 354.419 268.095 354.408C268.106 354.364 268.12 354.323 268.145 354.287C268.17 354.25 268.204 354.223 268.241 354.198C268.252 354.191 268.264 354.186 268.275 354.18C268.307 354.161 268.344 354.148 268.38 354.138C268.389 354.138 268.394 354.132 268.403 354.129C268.403 354.129 274.622 353.362 275.213 352.789C275.804 352.219 273.887 329.179 271.864 328.784C269.834 328.394 251.144 332.446 250.58 332.608Z" stroke="#310A5C" stroke-width="1.26829" stroke-linejoin="round"/>
<circle cx="77" cy="345.668" r="6" fill="#5F249F"/>
<rect x="96" y="420.834" width="83" height="2" fill="#D0CCD4"/>
<rect x="178" y="395.834" width="52" height="52" rx="26" fill="#D9D1FF"/>
<path d="M199.734 428.276V420.72C199.734 418.364 201.645 416.453 204.001 416.453C206.357 416.453 208.268 418.364 208.268 420.72V428.276H199.737H199.734Z" fill="#310A5C" stroke="#310A5C" stroke-width="1.26829" stroke-linejoin="round"/>
<path d="M194.866 409.634H213.139C213.187 409.634 213.232 409.639 213.278 409.641V407.986C213.278 405.717 211.438 403.877 209.169 403.877H198.834C196.565 403.877 194.725 405.717 194.725 407.986V409.641C194.773 409.641 194.818 409.634 194.864 409.634H194.866Z" stroke="#310A5C" stroke-width="1.26829" stroke-linejoin="round"/>
<path d="M194.866 434.034H213.139C213.187 434.034 213.232 434.03 213.278 434.027V435.682C213.278 437.952 211.438 439.792 209.169 439.792H198.834C196.565 439.792 194.725 437.952 194.725 435.682V434.027C194.773 434.027 194.818 434.034 194.864 434.034H194.866Z" stroke="#310A5C" stroke-width="1.26829" stroke-linejoin="round"/>
<path d="M191.808 415.391H216.195C216.571 415.391 216.927 415.475 217.247 415.624V413.74C217.247 411.471 215.407 409.631 213.138 409.631H194.865C192.596 409.631 190.756 411.471 190.756 413.74V415.624C191.075 415.475 191.432 415.391 191.808 415.391Z" stroke="#310A5C" stroke-width="1.26829" stroke-linejoin="round"/>
<path d="M216.195 428.278H191.808C191.432 428.278 191.075 428.193 190.756 428.045V429.928C190.756 432.198 192.596 434.038 194.865 434.038H213.138C215.407 434.038 217.247 432.198 217.247 429.928V428.045C216.927 428.193 216.571 428.278 216.195 428.278Z" stroke="#310A5C" stroke-width="1.26829" stroke-linejoin="round"/>
<path d="M216.192 428.276H191.805C190.42 428.276 189.299 427.153 189.299 425.77V423.884C189.299 423.035 189.721 422.288 190.367 421.834C190.776 422.122 191.271 422.291 191.808 422.291H216.194C216.73 422.291 217.226 422.122 217.635 421.834C218.278 422.288 218.703 423.037 218.703 423.884V425.77C218.703 427.153 217.58 428.276 216.196 428.276H216.192Z" stroke="#310A5C" stroke-width="1.26829" stroke-linejoin="round"/>
<path d="M216.192 415.391H191.805C190.421 415.391 189.299 416.513 189.299 417.897V419.783C189.299 421.167 190.421 422.29 191.805 422.29H216.192C217.576 422.29 218.698 421.167 218.698 419.783V417.897C218.698 416.513 217.576 415.391 216.192 415.391Z" stroke="#310A5C" stroke-width="1.26829" stroke-linejoin="round"/>
<circle cx="102" cy="421.834" r="6" fill="#5F249F"/>
</svg>
