<svg width="1208" height="420" viewBox="0 0 1208 420" fill="none" xmlns="http://www.w3.org/2000/svg">
<path d="M4.188 49V46.984H0.312V46.084L4.38 40.696H5.172V46.18H6.528V46.984H5.172V49H4.188ZM1.284 46.144V46.18H4.188V42.328H4.164L1.284 46.144ZM7.68488 49V47.812H8.84888V49H7.68488ZM13.0317 49.18C11.3277 49.18 10.0797 48.148 10.0077 46.624H11.0037C11.1357 47.644 11.8557 48.292 13.0197 48.292C14.1957 48.292 14.9517 47.5 14.9517 46.3C14.9517 45.064 14.0997 44.344 13.0197 44.344C12.1317 44.344 11.5197 44.704 11.1717 45.196H10.1997L11.1117 40.78H15.4917V41.68H11.8197L11.2797 44.152H11.3037C11.7717 43.708 12.3957 43.456 13.1877 43.456C14.6517 43.456 15.9837 44.5 15.9837 46.324C15.9837 48.076 14.7357 49.18 13.0317 49.18ZM20.0245 49.18C18.3205 49.18 17.0725 48.148 17.0005 46.624H17.9965C18.1285 47.644 18.8485 48.292 20.0125 48.292C21.1885 48.292 21.9445 47.5 21.9445 46.3C21.9445 45.064 21.0925 44.344 20.0125 44.344C19.1245 44.344 18.5125 44.704 18.1645 45.196H17.1925L18.1045 40.78H22.4845V41.68H18.8125L18.2725 44.152H18.2965C18.7645 43.708 19.3885 43.456 20.1805 43.456C21.6445 43.456 22.9765 44.5 22.9765 46.324C22.9765 48.076 21.7285 49.18 20.0245 49.18Z" fill="#757575"/>
<path d="M32 44.5H1208" stroke="#CACACA"/>
<path d="M4.188 110.5V108.484H0.312V107.584L4.38 102.196H5.172V107.68H6.528V108.484H5.172V110.5H4.188ZM1.284 107.644V107.68H4.188V103.828H4.164L1.284 107.644ZM7.68488 110.5V109.312H8.84888V110.5H7.68488ZM13.0317 110.68C11.3277 110.68 10.0797 109.648 10.0077 108.124H11.0037C11.1357 109.144 11.8557 109.792 13.0197 109.792C14.1957 109.792 14.9517 109 14.9517 107.8C14.9517 106.564 14.0997 105.844 13.0197 105.844C12.1317 105.844 11.5197 106.204 11.1717 106.696H10.1997L11.1117 102.28H15.4917V103.18H11.8197L11.2797 105.652H11.3037C11.7717 105.208 12.3957 104.956 13.1877 104.956C14.6517 104.956 15.9837 106 15.9837 107.824C15.9837 109.576 14.7357 110.68 13.0317 110.68ZM20.4445 110.68C18.4165 110.68 17.2525 109 17.2525 106.384C17.2525 103.72 18.5125 102.088 20.4565 102.088C22.4005 102.088 23.6365 103.696 23.6365 106.384C23.6365 109 22.4965 110.68 20.4445 110.68ZM20.4565 109.804C21.9205 109.804 22.5925 108.508 22.5925 106.384C22.5925 104.296 21.8845 102.952 20.4565 102.952C19.0045 102.952 18.2965 104.26 18.2965 106.384C18.2965 108.472 19.0045 109.804 20.4565 109.804Z" fill="#757575"/>
<path d="M33 106H1208" stroke="#CACACA"/>
<path d="M4.188 172V169.984H0.312V169.084L4.38 163.696H5.172V169.18H6.528V169.984H5.172V172H4.188ZM1.284 169.144V169.18H4.188V165.328H4.164L1.284 169.144ZM7.68488 172V170.812H8.84888V172H7.68488ZM13.5564 172V169.984H9.68044V169.084L13.7484 163.696H14.5404V169.18H15.8964V169.984H14.5404V172H13.5564ZM10.6524 169.144V169.18H13.5564V165.328H13.5324L10.6524 169.144ZM19.8253 172.18C18.1213 172.18 16.8733 171.148 16.8013 169.624H17.7973C17.9293 170.644 18.6493 171.292 19.8133 171.292C20.9893 171.292 21.7453 170.5 21.7453 169.3C21.7453 168.064 20.8933 167.344 19.8133 167.344C18.9253 167.344 18.3133 167.704 17.9653 168.196H16.9933L17.9053 163.78H22.2853V164.68H18.6133L18.0733 167.152H18.0973C18.5653 166.708 19.1893 166.456 19.9813 166.456C21.4453 166.456 22.7773 167.5 22.7773 169.324C22.7773 171.076 21.5293 172.18 19.8253 172.18Z" fill="#757575"/>
<path d="M32 167.5H1208" stroke="#CACACA"/>
<path d="M4.188 233.5V231.484H0.312V230.584L4.38 225.196H5.172V230.68H6.528V231.484H5.172V233.5H4.188ZM1.284 230.644V230.68H4.188V226.828H4.164L1.284 230.644ZM7.68488 233.5V232.312H8.84888V233.5H7.68488ZM13.5564 233.5V231.484H9.68044V230.584L13.7484 225.196H14.5404V230.68H15.8964V231.484H14.5404V233.5H13.5564ZM10.6524 230.644V230.68H13.5564V226.828H13.5324L10.6524 230.644ZM20.2453 233.68C18.2173 233.68 17.0533 232 17.0533 229.384C17.0533 226.72 18.3133 225.088 20.2573 225.088C22.2013 225.088 23.4373 226.696 23.4373 229.384C23.4373 232 22.2973 233.68 20.2453 233.68ZM20.2573 232.804C21.7213 232.804 22.3933 231.508 22.3933 229.384C22.3933 227.296 21.6853 225.952 20.2573 225.952C18.8053 225.952 18.0973 227.26 18.0973 229.384C18.0973 231.472 18.8053 232.804 20.2573 232.804Z" fill="#757575"/>
<path d="M32 229H1208" stroke="#CACACA"/>
<path d="M4.188 295V292.984H0.312V292.084L4.38 286.696H5.172V292.18H6.528V292.984H5.172V295H4.188ZM1.284 292.144V292.18H4.188V288.328H4.164L1.284 292.144ZM7.68488 295V293.812H8.84888V295H7.68488ZM13.2237 295.18C11.4117 295.18 9.98372 294.16 9.94772 292.288H10.9437C10.9797 293.608 11.8317 294.34 13.1877 294.34C14.3277 294.34 15.1317 293.776 15.1317 292.612C15.1317 291.568 14.3517 291.016 12.9717 291.016H12.4557V290.236H12.9597C14.2437 290.236 14.8917 289.696 14.8917 288.82C14.8917 287.92 14.0877 287.38 13.1037 287.38C11.9157 287.38 11.2077 288.148 11.2077 289.288H10.2237C10.2357 287.668 11.3277 286.588 13.1397 286.588C14.6637 286.588 15.8757 287.416 15.8757 288.844C15.8757 289.768 15.3117 290.308 14.5197 290.572V290.608C15.6717 290.908 16.1757 291.64 16.1757 292.708C16.1757 294.28 14.8917 295.18 13.2237 295.18ZM20.2237 295.18C18.5197 295.18 17.2717 294.148 17.1997 292.624H18.1957C18.3277 293.644 19.0477 294.292 20.2118 294.292C21.3878 294.292 22.1438 293.5 22.1438 292.3C22.1438 291.064 21.2918 290.344 20.2118 290.344C19.3237 290.344 18.7117 290.704 18.3637 291.196H17.3917L18.3037 286.78H22.6838V287.68H19.0118L18.4718 290.152H18.4958C18.9637 289.708 19.5878 289.456 20.3798 289.456C21.8438 289.456 23.1758 290.5 23.1758 292.324C23.1758 294.076 21.9278 295.18 20.2237 295.18Z" fill="#757575"/>
<path d="M32 290.5H1208" stroke="#CACACA"/>
<path d="M4.188 356.501V354.485H0.312V353.585L4.38 348.197H5.172V353.681H6.528V354.485H5.172V356.501H4.188ZM1.284 353.645V353.681H4.188V349.829H4.164L1.284 353.645ZM7.68488 356.501V355.313H8.84888V356.501H7.68488ZM13.2237 356.681C11.4117 356.681 9.98372 355.661 9.94772 353.789H10.9437C10.9797 355.109 11.8317 355.841 13.1877 355.841C14.3277 355.841 15.1317 355.277 15.1317 354.113C15.1317 353.069 14.3517 352.517 12.9717 352.517H12.4557V351.737H12.9597C14.2437 351.737 14.8917 351.197 14.8917 350.321C14.8917 349.421 14.0877 348.881 13.1037 348.881C11.9157 348.881 11.2077 349.649 11.2077 350.789H10.2237C10.2357 349.169 11.3277 348.089 13.1397 348.089C14.6637 348.089 15.8757 348.917 15.8757 350.345C15.8757 351.269 15.3117 351.809 14.5197 352.073V352.109C15.6717 352.409 16.1757 353.141 16.1757 354.209C16.1757 355.781 14.8917 356.681 13.2237 356.681ZM20.6437 356.681C18.6157 356.681 17.4517 355.001 17.4517 352.385C17.4517 349.721 18.7117 348.089 20.6558 348.089C22.5998 348.089 23.8358 349.697 23.8358 352.385C23.8358 355.001 22.6958 356.681 20.6437 356.681ZM20.6558 355.805C22.1198 355.805 22.7918 354.509 22.7918 352.385C22.7918 350.297 22.0838 348.953 20.6558 348.953C19.2038 348.953 18.4958 350.261 18.4958 352.385C18.4958 354.473 19.2038 355.805 20.6558 355.805Z" fill="#757575"/>
<path d="M33 352.001H1208" stroke="#CACACA"/>
<path d="M4.188 418.001V415.985H0.312V415.085L4.38 409.697H5.172V415.181H6.528V415.985H5.172V418.001H4.188ZM1.284 415.145V415.181H4.188V411.329H4.164L1.284 415.145ZM7.68488 418.001V416.813H8.84888V418.001H7.68488ZM10.1037 418.001C10.1997 415.805 11.7477 415.001 13.1877 414.173C14.2677 413.549 14.9277 413.129 14.9277 412.133C14.9277 411.125 14.2317 410.441 13.1397 410.441C12.5637 410.441 12.1317 410.633 11.8317 410.957C11.5077 411.305 11.3637 411.761 11.3637 412.601H10.3077C10.3077 411.545 10.5837 410.873 11.0877 410.369C11.6157 409.853 12.3837 409.601 13.2237 409.601C14.8917 409.601 15.9717 410.657 15.9717 412.121C15.9717 413.705 14.8917 414.233 13.5717 414.965C12.6837 415.457 11.5437 416.129 11.3157 417.041H15.8037V418.001H10.1037ZM20.0597 418.181C18.3557 418.181 17.1077 417.149 17.0357 415.625H18.0317C18.1637 416.645 18.8837 417.293 20.0477 417.293C21.2237 417.293 21.9797 416.501 21.9797 415.301C21.9797 414.065 21.1277 413.345 20.0477 413.345C19.1597 413.345 18.5477 413.705 18.1997 414.197H17.2277L18.1397 409.781H22.5197V410.681H18.8477L18.3077 413.153H18.3317C18.7997 412.709 19.4237 412.457 20.2157 412.457C21.6797 412.457 23.0117 413.501 23.0117 415.325C23.0117 417.077 21.7637 418.181 20.0597 418.181Z" fill="#757575"/>
<path d="M32 413.501H1208" stroke="#CACACA"/>
<path d="M33 101H1208" stroke="#D9D1FF" stroke-width="2" stroke-dasharray="8 8"/>
<path d="M33 360H1208" stroke="#5F249F" stroke-width="2" stroke-dasharray="8 8"/>
<path d="M120.666 51V378" stroke="#D0CCD4" stroke-width="3"/>
<rect x="94.666" width="52" height="52" rx="26" fill="#AB99FF"/>
<path d="M112.793 5.93663L110.944 5.71747C110.883 5.71062 110.816 5.70605 110.755 5.70605C110.294 5.70605 109.878 5.90467 109.586 6.21971C109.67 6.21515 109.753 6.20602 109.837 6.20602C110.449 6.20602 110.947 6.70826 110.947 7.32237C110.947 7.93647 110.449 8.43872 109.837 8.43872C109.778 8.43872 109.718 8.44328 109.659 8.44785C109.944 8.71952 110.33 8.88845 110.755 8.88845C110.819 8.88845 110.88 8.88389 110.942 8.87704C110.942 8.87704 112.255 8.73093 112.887 8.66701C113.656 8.59167 114.006 7.90223 114.006 7.29497C114.006 6.60096 113.485 6.01425 112.793 5.93206V5.93663Z" fill="#100022" stroke="#100022" stroke-width="1.01463" stroke-linejoin="round"/>
<path d="M125.703 19.2256C124.97 19.2256 124.374 19.8191 124.374 20.5497V21.9993C124.374 23.917 123.306 25.6429 121.585 26.5036L118.863 27.8665C119.413 27.8824 119.907 28.1929 120.155 28.6906C120.336 29.049 120.365 29.4554 120.24 29.8366C120.19 29.9896 120.112 30.1266 120.018 30.2521L122.779 28.871C125.402 27.5583 127.032 24.9261 127.032 22.0016V20.552C127.032 19.8214 126.436 19.2279 125.703 19.2279V19.2256Z" fill="#100022" stroke="#100022" stroke-width="1.01463" stroke-linejoin="round"/>
<path d="M112.063 28.5908C112.31 28.0977 112.798 27.7872 113.344 27.7667L110.833 26.5156C109.1 25.6527 108.023 23.9222 108.023 22V20.5481C108.023 19.8175 107.424 19.2217 106.687 19.2217C105.95 19.2217 105.352 19.8175 105.352 20.5481V22C105.352 24.9313 106.993 27.5681 109.634 28.8853L112.205 30.166C111.874 29.7254 111.799 29.1159 112.061 28.5908H112.063Z" fill="#100022" stroke="#100022" stroke-width="1.01463" stroke-linejoin="round"/>
<path d="M106.688 19.2253C107.169 19.2253 107.589 19.4832 107.824 19.8645V10.4771C107.824 9.35388 108.729 8.44071 109.838 8.44071C110.45 8.44071 110.948 7.93847 110.948 7.32436C110.948 6.71025 110.45 6.20801 109.838 6.20801C107.505 6.20801 105.605 8.12338 105.605 10.4794V19.7823C105.847 19.4467 106.242 19.2275 106.688 19.2275V19.2253Z" stroke="#100022" stroke-width="1.26829" stroke-linejoin="round"/>
<path d="M122.567 8.441C121.949 8.441 121.444 7.93876 121.444 7.32465C121.444 6.71054 121.949 6.2083 122.567 6.2083C122.677 6.2083 122.782 6.21743 122.889 6.22428C122.597 5.90695 122.181 5.70605 121.718 5.70605C121.656 5.70605 121.59 5.71062 121.529 5.71747L119.677 5.93663C118.985 6.01882 118.465 6.60324 118.465 7.29954C118.465 7.9068 118.814 8.59624 119.583 8.67158C120.214 8.73322 121.526 8.88161 121.526 8.88161C121.59 8.88845 121.652 8.89302 121.716 8.89302C122.138 8.89302 122.519 8.72637 122.805 8.45926C122.725 8.45013 122.647 8.44328 122.565 8.44328L122.567 8.441Z" fill="#100022" stroke="#100022" stroke-width="1.01463" stroke-linejoin="round"/>
<path d="M122.567 8.44202C123.699 8.44202 124.621 9.35519 124.621 10.4784V19.7859C124.863 19.448 125.256 19.2266 125.701 19.2266C126.208 19.2266 126.644 19.5142 126.868 19.9297V10.4784C126.868 8.12469 124.939 6.20703 122.567 6.20703C121.948 6.20703 121.443 6.70928 121.443 7.32338C121.443 7.93749 121.948 8.43973 122.567 8.43973V8.44202Z" stroke="#100022" stroke-width="1.26829" stroke-linejoin="round"/>
<path d="M130.91 37.6007C130.547 37.6007 130.193 37.5619 129.85 37.4888V37.8997C129.85 39.5343 129.223 41.0799 128.081 42.251C126.942 43.4221 125.417 44.0888 123.785 44.1253L123.568 44.1299C123.522 44.1299 123.428 44.1299 123.426 44.1299C121.792 44.1299 120.246 43.4998 119.079 42.356C117.874 41.1735 117.21 39.5914 117.21 37.902V34.4229C116.94 34.7333 116.548 34.9319 116.107 34.9319C115.694 34.9319 115.322 34.7562 115.055 34.4776V37.9043C115.055 40.1804 115.95 42.3104 117.575 43.9038C119.148 45.4448 121.228 46.2941 123.426 46.2941C123.492 46.2941 123.556 46.2941 123.625 46.2941L123.837 46.2895C126.033 46.237 128.09 45.3398 129.624 43.7623C131.158 42.1848 132.003 40.1051 132.003 37.902V37.482C131.649 37.5596 131.284 37.603 130.907 37.603L130.91 37.6007Z" fill="#100022" stroke="#100022" stroke-width="1.01463" stroke-linejoin="round"/>
<path d="M130.907 37.599C128.108 37.599 125.832 35.3366 125.832 32.5583C125.832 29.78 128.108 27.5176 130.907 27.5176C133.706 27.5176 135.982 29.78 135.982 32.5583C135.982 35.3366 133.706 37.599 130.907 37.599Z" stroke="#100022" stroke-width="1.26829" stroke-linejoin="round"/>
<path d="M116.106 34.9308C115.296 34.9308 114.638 34.2619 114.638 33.44V31.5703L112.725 30.6046C111.99 30.2325 111.691 29.3307 112.061 28.5911C112.317 28.082 112.828 27.7646 113.399 27.7646C113.629 27.7646 113.862 27.8194 114.07 27.9245L115.999 28.897C116.061 28.9267 116.129 28.9449 116.198 28.9449C116.266 28.9449 116.337 28.9289 116.396 28.897L118.14 28.0158C118.348 27.9108 118.581 27.856 118.812 27.856C119.38 27.856 119.894 28.1733 120.149 28.6824C120.33 29.0408 120.359 29.4472 120.234 29.8261C120.108 30.2074 119.844 30.5156 119.485 30.6959L117.741 31.5771C117.688 31.6045 117.631 31.6296 117.574 31.6548V33.4377C117.574 34.2596 116.915 34.9285 116.106 34.9285V34.9308Z" stroke="#100022" stroke-width="1.26829" stroke-linejoin="round"/>
<circle cx="120.666" cy="372" r="6" fill="#5F249F"/>
<path d="M321.168 126V420" stroke="#D0CCD4" stroke-width="3"/>
<rect x="295.168" y="75" width="52" height="52" rx="26" fill="#D9D1FF"/>
<path d="M321.192 112.81C318.498 112.81 315.98 112.07 313.822 110.785C312.425 113.146 312.348 115.881 312.348 116.675C312.348 118.159 316.309 119.36 321.194 119.36C326.079 119.36 330.04 118.157 330.04 116.675C330.04 115.878 329.963 113.146 328.566 110.785C326.408 112.07 323.888 112.81 321.196 112.81H321.192Z" fill="#310A5C" stroke="#310A5C" stroke-width="1.26829" stroke-linejoin="round"/>
<path d="M321.192 112.809C329.162 112.809 335.622 106.348 335.622 98.3786C335.622 90.4089 329.162 83.9482 321.192 83.9482C313.222 83.9482 306.762 90.4089 306.762 98.3786C306.762 106.348 313.222 112.809 321.192 112.809Z" stroke="#310A5C" stroke-width="1.26829" stroke-linejoin="round"/>
<path d="M306.713 88.662C308.649 87.8105 310.119 86.1622 310.749 84.1441L311.217 82.6396L311.685 84.1441C312.313 86.1622 313.785 87.8105 315.721 88.662C313.785 89.5135 312.315 91.1618 311.685 93.1799L311.217 94.6844L310.749 93.1799C310.121 91.1618 308.649 89.5135 306.713 88.662Z" fill="#310A5C" stroke="#310A5C" stroke-width="1.26829" stroke-linejoin="round"/>
<path d="M316.068 93.5588C316.769 93.2506 317.301 92.6547 317.527 91.9242L317.696 91.3809L317.865 91.9242C318.093 92.6547 318.625 93.2506 319.324 93.5588C318.623 93.867 318.091 94.4628 317.865 95.1933L317.696 95.7367L317.527 95.1933C317.299 94.4628 316.767 93.867 316.068 93.5588Z" fill="#310A5C" stroke="#310A5C" stroke-width="1.26829" stroke-linejoin="round"/>
<circle cx="321.168" cy="414" r="6" fill="#5F249F"/>
<path d="M520.332 96V371" stroke="#D0CCD4" stroke-width="3"/>
<rect x="494.332" y="45" width="52" height="52" rx="26" fill="#D9D1FF"/>
<path d="M510.502 70.4379L514.204 68.3723L511.306 63.1758L506.691 65.7494L506.228 66.009C506.017 66.1254 505.941 66.3939 506.06 66.6043L508.533 71.0355C508.651 71.2458 508.918 71.3219 509.128 71.2055L509.853 70.8005L509.896 70.7781L510.507 70.4379H510.502Z" stroke="#310A5C" stroke-width="1.26829" stroke-linejoin="round"/>
<path d="M533.304 58.796C533.761 58.5409 533.275 56.802 532.221 54.9132C531.167 53.0221 529.943 51.6972 529.486 51.9524L533.306 58.796H533.304Z" stroke="#310A5C" stroke-width="1.26829" stroke-linejoin="round"/>
<path d="M506.196 66.8555L500.984 69.7626C500.769 69.8834 500.814 70.2057 501.053 70.2616L506.552 71.5663C506.751 71.6133 506.962 71.5843 507.141 71.4858L508.392 70.7875L506.198 66.8555H506.196Z" stroke="#310A5C" stroke-width="1.26829" stroke-linejoin="round"/>
<path d="M533.307 58.8066L529.481 51.9472C529.362 51.7369 529.096 51.6608 528.885 51.7772L528.359 52.0703L522.825 55.1542L521.525 55.8793C521.314 55.9979 521.238 56.2642 521.357 56.4746L525.184 63.3339C525.302 63.5443 525.569 63.6204 525.779 63.504L526.558 63.0698L531.839 60.1247L533.14 59.4018C533.35 59.2832 533.426 59.0169 533.307 58.8066Z" stroke="#310A5C" stroke-width="1.26829" stroke-linejoin="round"/>
<path d="M532.227 90.1722L524.114 72.9937C524.101 72.9668 524.076 72.9512 524.047 72.9512H517.058C517.029 72.9512 517.004 72.9668 516.991 72.9937L508.879 90.1722C508.865 90.2035 508.872 90.2281 508.883 90.2438C508.892 90.2572 508.91 90.2774 508.946 90.2774H511.611C511.64 90.2774 511.665 90.2617 511.678 90.2348L518.649 75.4756C518.761 75.2384 519.115 75.3189 519.115 75.5808V90.2035C519.115 90.2438 519.148 90.2774 519.189 90.2774H521.921C521.962 90.2774 521.995 90.2438 521.995 90.2035V75.5785C521.995 75.3167 522.349 75.2384 522.461 75.4733L529.432 90.2348C529.443 90.2595 529.47 90.2774 529.499 90.2774H532.164C532.2 90.2774 532.218 90.255 532.227 90.2438C532.236 90.2281 532.245 90.2035 532.231 90.1722H532.227Z" fill="#310A5C"/>
<path d="M524.989 62.9986L521.541 56.8174L516.282 59.7513L511.407 62.4704C511.197 62.5868 511.121 62.8554 511.24 63.0657L514.263 68.4838C514.382 68.6942 514.648 68.7703 514.858 68.6539L516.931 67.4969L524.992 63.0008L524.989 62.9986Z" stroke="#310A5C" stroke-width="1.26829" stroke-linejoin="round"/>
<path d="M520.549 67.952C520.67 67.952 520.786 67.9632 520.902 67.9788L519.754 65.9199L517.895 66.9583L518.819 68.6144C519.28 68.2049 519.884 67.9542 520.549 67.9542V67.952Z" fill="#310A5C" stroke="#310A5C" stroke-width="1.26829" stroke-linejoin="round"/>
<path d="M523.126 70.9562C523.146 70.8264 523.16 70.6966 523.16 70.5623C523.16 69.121 521.991 67.9551 520.553 67.9551C519.114 67.9551 517.945 69.1233 517.945 70.5623C517.945 70.6966 517.959 70.8286 517.979 70.9562H523.128H523.126Z" stroke="#310A5C" stroke-width="1.26829" stroke-linejoin="round"/>
<path d="M523.567 70.9551H517.54C517.364 70.9551 517.223 71.0983 517.223 71.2729V72.6313C517.223 72.8081 517.366 72.9491 517.54 72.9491H523.567C523.744 72.9491 523.885 72.8059 523.885 72.6313V71.2729C523.885 71.0961 523.742 70.9551 523.567 70.9551Z" stroke="#310A5C" stroke-width="1.26829" stroke-linejoin="round"/>
<circle cx="520.332" cy="365.5" r="6" fill="#5F249F"/>
<path d="M720.5 133V407" stroke="#D0CCD4" stroke-width="3"/>
<rect x="694.5" y="82" width="52" height="52" rx="26" fill="#D9D1FF"/>
<path d="M722.145 89.4749C722.132 88.6028 722.118 88.0983 722.102 88.0732C721.956 87.8358 718.885 87.8768 718.769 88.0732C718.755 88.096 718.744 88.6005 718.732 89.4772C719.027 89.4703 721.849 89.4703 722.145 89.4749Z" stroke="#310A5C" stroke-width="1.26829" stroke-linejoin="round"/>
<path d="M726.749 124.946H722.14C722.149 124.46 722.156 123.828 722.163 123.074C721.85 123.077 719.022 123.079 718.709 123.074C718.716 123.825 718.723 124.458 718.73 124.946H714.043C713.26 124.946 712.625 125.355 712.625 125.859V127.177C712.625 127.681 713.26 128.09 714.043 128.09H726.749C727.533 128.09 728.167 127.681 728.167 127.177V125.859C728.167 125.355 727.533 124.946 726.749 124.946Z" stroke="#310A5C" stroke-width="1.26829" stroke-linejoin="round"/>
<path d="M713.174 120.029C712.952 119.928 712.818 119.7 712.84 119.46C713.235 115.223 714.087 113.176 714.605 110.74C714.671 110.427 714.984 110.233 715.297 110.308C716.667 110.642 718.984 110.76 720.411 110.838C720.712 110.852 720.952 111.1 720.952 111.402L720.901 120.248C720.901 120.563 720.689 120.817 720.328 120.817C718.016 120.817 714.975 120.545 713.174 120.029Z" fill="#310A5C" stroke="#310A5C" stroke-width="1.26829" stroke-linejoin="round"/>
<path d="M728.823 110.691C728.462 109.401 727.978 106.949 729.113 104.239C730.122 101.831 730.3 99.0775 730.3 99.0775C730.971 98.4588 732.158 95.2582 731.695 94.329C731.231 93.3999 725.346 91.9046 724.622 91.5941C723.899 91.2836 724.312 89.9937 724.054 89.6833C723.814 89.3933 717.187 89.3933 716.945 89.6833C716.687 89.9937 717.1 91.2836 716.376 91.5941C715.653 91.9046 709.77 93.3999 709.304 94.329C708.84 95.2582 710.028 98.4566 710.699 99.0775C710.699 99.0775 710.984 101.787 711.886 104.239C712.995 107.257 712.536 109.401 712.176 110.691C711.815 111.981 711.37 113.323 710.854 115.955C710.338 118.587 710.315 119.891 710.493 121.117C710.865 123.701 730.161 123.754 730.505 121.117C730.578 120.567 730.661 118.587 730.145 115.955C729.629 113.323 729.184 111.981 728.823 110.691Z" stroke="#310A5C" stroke-width="1.26829" stroke-linejoin="round"/>
<path d="M722.671 106.889C722.666 107.163 722.897 107.382 723.171 107.364C725.006 107.364 727.219 107.209 728.513 106.373C728.517 106.343 728.524 106.314 728.529 106.282C728.54 106.209 728.556 106.133 728.57 106.06C728.588 105.969 728.604 105.878 728.625 105.784C728.641 105.711 728.661 105.638 728.68 105.563C728.702 105.467 728.725 105.373 728.753 105.275C728.773 105.2 728.801 105.124 728.823 105.049C728.853 104.953 728.883 104.857 728.915 104.759C728.944 104.674 728.979 104.59 729.013 104.506C729.047 104.419 729.077 104.332 729.113 104.245C730.122 101.837 730.3 99.0836 730.3 99.0836C729.387 97.4285 729.424 94.9036 729.901 93.3169C729.896 93.3169 729.892 93.3124 729.887 93.3124C729.006 92.9722 727.942 92.6298 726.995 92.3398C726.887 94.7072 725.283 97.2025 723.089 97.9033C722.835 97.9832 722.664 98.2161 722.664 98.4809C722.673 100.084 722.705 104.222 722.669 106.889H722.671Z" fill="#310A5C" stroke="#310A5C" stroke-width="1.26829" stroke-linejoin="round"/>
<circle cx="720.5" cy="401" r="6" fill="#5F249F"/>
<path d="M920.334 102V360" stroke="#D0CCD4" stroke-width="3"/>
<rect x="894.334" y="51" width="52" height="52" rx="26" fill="#D9D1FF"/>
<path d="M916.432 88.7933C916.432 88.7933 916.432 88.7728 916.435 88.7614C916.451 88.6267 916.469 88.492 916.496 88.3573C916.501 88.3367 916.505 88.3139 916.51 88.2934C916.537 88.1587 916.567 88.024 916.606 87.8893C916.615 87.8596 916.619 87.8299 916.622 87.798C916.626 87.734 916.617 87.6678 916.597 87.5993C916.546 87.4258 916.425 87.2432 916.25 87.0857C916.179 87.0218 916.104 86.967 916.026 86.919C915.793 86.7775 915.54 86.7136 915.339 86.7524C915.339 86.7524 910.038 88.2888 909.271 87.9418C909.232 87.9235 909.193 87.8893 909.157 87.8459H909.154C909.494 88.2614 911.652 89.9416 912.613 90.3229C913.232 90.5672 915.124 90.0535 916.416 89.6494C916.398 89.3641 916.403 89.0764 916.435 88.7888L916.432 88.7933Z" fill="#310A5C" stroke="#310A5C" stroke-width="1.26829" stroke-linejoin="round"/>
<path d="M913.218 71.6725C912.926 71.3438 912.6 71.0379 912.235 70.7685C910.865 69.7617 909.102 69.2092 907.824 69.7366C907.566 69.8439 907.192 70.3028 906.758 69.9466C906.758 69.9466 909.68 72.3916 910.239 72.3848C910.737 72.3802 912.102 71.6223 913.221 71.6725H913.218Z" fill="#310A5C" stroke="#310A5C" stroke-width="1.26829" stroke-linejoin="round"/>
<path d="M930.115 62.2351C929.949 61.8378 927.255 60.1279 927.255 60.1279L927.25 60.1393C929.252 60.9361 931.131 83.5576 930.544 84.1238C929.953 84.6968 923.735 85.4639 923.735 85.4639C923.725 85.4661 923.721 85.4707 923.712 85.473C923.673 85.4821 923.639 85.4958 923.607 85.5141C923.595 85.5209 923.584 85.5255 923.572 85.5323C923.536 85.5575 923.504 85.5848 923.477 85.6214C923.451 85.6579 923.438 85.699 923.426 85.7424C923.424 85.7538 923.422 85.7675 923.422 85.7789C923.417 85.8131 923.415 85.8474 923.417 85.8839C923.417 85.8999 923.419 85.9159 923.422 85.9319C923.429 85.9684 923.435 86.0072 923.449 86.046C923.456 86.062 923.458 86.0757 923.465 86.0917C923.486 86.1464 923.513 86.199 923.547 86.2537C923.547 86.256 923.55 86.2606 923.552 86.2629C923.892 86.7948 924.111 87.3998 924.205 88.0618C924.387 89.3699 924.063 90.7009 923.294 91.815C922.531 92.9176 922.214 93.1368 920.977 93.381C919.991 93.5751 919.048 93.4199 918.271 92.961L921.486 95.3284C925.878 97.1319 928.063 91.7077 926.785 88.0755C926.785 88.0755 932.795 87.2833 933.677 86.393C934.556 85.5027 930.277 62.6346 930.113 62.2374L930.115 62.2351Z" fill="#310A5C" stroke="#310A5C" stroke-width="1.26829" stroke-linejoin="round"/>
<path d="M905.914 63.9402C905.017 64.1982 906.318 69.5905 906.752 69.9466C907.186 70.3027 907.56 69.8439 907.818 69.7366C909.099 69.2092 910.861 69.7617 912.229 70.7685C913.393 71.6268 914.203 72.8162 914.569 74.1723C914.569 74.1769 914.571 74.1837 914.573 74.1883C914.639 74.4326 914.694 74.6791 914.731 74.9348C914.945 76.4735 914.802 77.9391 913.923 79.213C913.051 80.4732 911.596 81.4274 910.651 81.569C909.706 81.7105 908.651 81.2973 908.4 81.763C908.151 82.2288 908.496 87.6005 909.263 87.9452C910.03 88.2922 915.331 86.7558 915.331 86.7558C915.598 86.7033 915.959 86.8357 916.242 87.0868C916.523 87.3379 916.664 87.6598 916.6 87.8904C916.4 88.6027 916.349 89.3195 916.448 90.0181C916.548 90.7349 916.792 91.3764 917.155 91.9106C917.162 91.9175 917.169 91.9266 917.174 91.9335C917.18 91.9426 917.183 91.9517 917.189 91.9609C917.372 92.2188 917.587 92.4471 917.824 92.6457L918.169 92.8992C918.961 93.4082 919.947 93.5817 920.979 93.3786C922.214 93.1343 922.534 92.9151 923.296 91.8125C924.066 90.6984 924.39 89.3675 924.207 88.0594C924.114 87.3973 923.894 86.7923 923.554 86.2604C923.554 86.2581 923.552 86.2536 923.55 86.2513C923.515 86.1965 923.488 86.1417 923.468 86.0892C923.461 86.0732 923.458 86.0595 923.452 86.0435C923.438 86.0047 923.429 85.9659 923.424 85.9294C923.422 85.9111 923.42 85.8951 923.42 85.8814C923.417 85.8449 923.42 85.8107 923.424 85.7764C923.424 85.765 923.426 85.7513 923.429 85.7399C923.44 85.6965 923.454 85.6554 923.479 85.6189C923.504 85.5824 923.538 85.555 923.575 85.5299C923.586 85.523 923.598 85.5185 923.609 85.5116C923.641 85.4933 923.678 85.4796 923.714 85.4705C923.723 85.4705 923.728 85.4637 923.737 85.4614C923.737 85.4614 929.956 84.6943 930.547 84.1213C931.138 83.5506 929.221 60.5113 927.198 60.1163C925.168 59.7259 906.478 63.7781 905.914 63.9402Z" stroke="#310A5C" stroke-width="1.26829" stroke-linejoin="round"/>
<circle cx="920.334" cy="354" r="6" fill="#5F249F"/>
<path d="M1120.5 191V320" stroke="#D0CCD4" stroke-width="3"/>
<rect x="1094.5" y="140" width="52" height="52" rx="26" fill="#D9D1FF"/>
<path d="M1116.23 172.442V164.886C1116.23 162.53 1118.15 160.619 1120.5 160.619C1122.86 160.619 1124.77 162.53 1124.77 164.886V172.442H1116.24H1116.23Z" fill="#310A5C" stroke="#310A5C" stroke-width="1.26829" stroke-linejoin="round"/>
<path d="M1111.37 153.801H1129.64C1129.69 153.801 1129.73 153.805 1129.78 153.807V152.152C1129.78 149.883 1127.94 148.043 1125.67 148.043H1115.33C1113.06 148.043 1111.22 149.883 1111.22 152.152V153.807C1111.27 153.807 1111.32 153.801 1111.36 153.801H1111.37Z" stroke="#310A5C" stroke-width="1.26829" stroke-linejoin="round"/>
<path d="M1111.37 178.2H1129.64C1129.69 178.2 1129.73 178.196 1129.78 178.193V179.848C1129.78 182.118 1127.94 183.958 1125.67 183.958H1115.33C1113.06 183.958 1111.22 182.118 1111.22 179.848V178.193C1111.27 178.193 1111.32 178.2 1111.36 178.2H1111.37Z" stroke="#310A5C" stroke-width="1.26829" stroke-linejoin="round"/>
<path d="M1108.31 159.558H1132.69C1133.07 159.558 1133.43 159.642 1133.75 159.791V157.907C1133.75 155.638 1131.91 153.798 1129.64 153.798H1111.37C1109.1 153.798 1107.26 155.638 1107.26 157.907V159.791C1107.58 159.642 1107.93 159.558 1108.31 159.558Z" stroke="#310A5C" stroke-width="1.26829" stroke-linejoin="round"/>
<path d="M1132.69 172.443H1108.31C1107.93 172.443 1107.58 172.358 1107.26 172.21V174.093C1107.26 176.363 1109.1 178.203 1111.37 178.203H1129.64C1131.91 178.203 1133.75 176.363 1133.75 174.093V172.21C1133.43 172.358 1133.07 172.443 1132.69 172.443Z" stroke="#310A5C" stroke-width="1.26829" stroke-linejoin="round"/>
<path d="M1132.69 172.442H1108.31C1106.92 172.442 1105.8 171.319 1105.8 169.936V168.05C1105.8 167.201 1106.22 166.454 1106.87 166C1107.28 166.288 1107.77 166.457 1108.31 166.457H1132.69C1133.23 166.457 1133.73 166.288 1134.13 166C1134.78 166.454 1135.2 167.203 1135.2 168.05V169.936C1135.2 171.319 1134.08 172.442 1132.7 172.442H1132.69Z" stroke="#310A5C" stroke-width="1.26829" stroke-linejoin="round"/>
<path d="M1132.69 159.557H1108.31C1106.92 159.557 1105.8 160.679 1105.8 162.063V163.949C1105.8 165.333 1106.92 166.456 1108.31 166.456H1132.69C1134.08 166.456 1135.2 165.333 1135.2 163.949V162.063C1135.2 160.679 1134.08 159.557 1132.69 159.557Z" stroke="#310A5C" stroke-width="1.26829" stroke-linejoin="round"/>
<circle cx="1120.5" cy="314" r="6" fill="#5F249F"/>
</svg>
