<svg width="24" height="24" viewBox="0 0 24 24" fill="none" xmlns="http://www.w3.org/2000/svg">
<path d="M12 24C18.6281 24 24 18.6281 24 12C24 5.37188 18.6281 0 12 0C5.37188 0 0 5.37188 0 12C0 18.6281 5.37188 24 12 24ZM7.46719 18.2203C7.34531 18.6141 6.92344 18.8391 6.52969 18.7125C6.13594 18.5859 5.91094 18.1688 6.0375 17.775C6.80625 15.2859 9.20156 13.5 12 13.5C14.7984 13.5 17.1937 15.2859 17.9672 17.7797C18.0891 18.1734 17.8687 18.5953 17.475 18.7172C17.0812 18.8391 16.6594 18.6187 16.5375 18.225C15.9609 16.3781 14.1609 15 12 15C9.83906 15 8.03906 16.3781 7.46719 18.2203ZM9.76875 9.75C9.76875 10.5797 9.09844 11.25 8.26875 11.25C7.43906 11.25 6.76875 10.5797 6.76875 9.75C6.76875 8.92031 7.43906 8.25 8.26875 8.25C9.09844 8.25 9.76875 8.92031 9.76875 9.75ZM15.7687 11.25C14.9391 11.25 14.2687 10.5797 14.2687 9.75C14.2687 8.92031 14.9391 8.25 15.7687 8.25C16.5984 8.25 17.2687 8.92031 17.2687 9.75C17.2687 10.5797 16.5984 11.25 15.7687 11.25Z" fill="#EC5266"/>
</svg>
