<svg width="304" height="304" viewBox="0 0 304 304" fill="none" xmlns="http://www.w3.org/2000/svg">
<path d="M151.51 1.50977C189.662 1.50977 226.38 16.0476 254.192 42.1645C282.003 68.2814 298.818 104.014 301.214 142.091L151.51 151.51L151.51 1.50977Z" fill="#B482EB" stroke="#F6F7F8" stroke-width="3.02013"/>
<path d="M301.214 142.091C303.304 175.315 294.283 208.29 275.572 235.822C256.861 263.355 229.522 283.881 197.862 294.168L151.51 151.51L301.214 142.091Z" fill="#E3CAFF" stroke="#F6F7F8" stroke-width="3.02013"/>
<path d="M197.862 294.168C172.314 302.469 145.005 303.757 118.788 297.897C92.5718 292.037 68.4102 279.244 48.8276 260.855L151.51 151.51L197.862 294.168Z" fill="#EDEDED" stroke="#F6F7F8" stroke-width="3.02013"/>
<path d="M48.8277 260.855C30.4097 243.559 16.6589 221.892 8.85128 197.862C1.0437 173.833 -0.567676 148.221 4.16669 123.403L151.51 151.51L48.8277 260.855Z" fill="#EDEDED" stroke="#F6F7F8" stroke-width="3.02013"/>
<path d="M4.18142 123.325C8.33018 101.639 17.2156 81.135 30.2033 63.2786C43.191 45.4221 59.9607 30.6532 79.3153 20.0261L151.51 151.51L4.18142 123.325Z" fill="#EDEDED" stroke="#F6F7F8" stroke-width="3.02013"/>
<path d="M151.51 1.50977C126.244 1.50977 101.387 7.89184 79.2467 20.0638L151.51 151.51L151.51 1.50977Z" fill="#EDEDED" stroke="#F6F7F8" stroke-width="3.02013"/>
<mask id="path-7-outside-1_2122_19367" maskUnits="userSpaceOnUse" x="112.258" y="33.7373" width="31" height="18" fill="black">
<rect fill="white" x="112.258" y="33.7373" width="31" height="18"/>
<path d="M119.298 50.0373C116.198 50.0373 113.718 48.5373 113.718 45.7773C113.718 44.0773 114.718 42.7573 116.218 42.1773V42.1173C114.998 41.5573 114.298 40.7173 114.298 39.3973C114.298 37.0773 116.318 35.7573 119.278 35.7573C122.238 35.7573 124.158 37.0573 124.158 39.3573C124.158 40.6373 123.438 41.5373 122.258 42.0973V42.1573C123.778 42.6973 124.738 43.9973 124.738 45.6573C124.738 48.4773 122.398 50.0373 119.298 50.0373ZM119.238 47.8373C120.838 47.8373 121.938 46.9773 121.938 45.6773C121.938 44.2773 120.958 43.3573 119.278 43.3573C117.598 43.3573 116.538 44.2773 116.538 45.6773C116.538 47.0173 117.578 47.8373 119.238 47.8373ZM119.238 41.4573C120.658 41.4573 121.498 40.6973 121.498 39.6173C121.498 38.5373 120.658 37.8173 119.238 37.8173C117.798 37.8173 116.958 38.5373 116.958 39.6173C116.958 40.6973 117.798 41.4573 119.238 41.4573ZM129.691 43.7173C127.651 43.7173 126.171 42.1573 126.171 39.7373C126.171 37.2973 127.671 35.7373 129.691 35.7373C131.751 35.7373 133.191 37.2773 133.191 39.7373C133.191 42.1573 131.751 43.7173 129.691 43.7173ZM138.651 50.0573C136.611 50.0573 135.131 48.4973 135.131 46.0773C135.131 43.6373 136.631 42.0773 138.651 42.0773C140.711 42.0773 142.151 43.6173 142.151 46.0773C142.151 48.4973 140.711 50.0573 138.651 50.0573ZM129.811 49.7373L136.831 36.0173H138.531L131.511 49.7373H129.811ZM138.651 48.5173C139.591 48.5173 140.031 47.5173 140.031 46.0773C140.031 44.6373 139.571 43.5973 138.651 43.5973C137.711 43.5973 137.271 44.6173 137.271 46.0773C137.271 47.4973 137.711 48.5173 138.651 48.5173ZM129.691 42.1773C130.631 42.1773 131.071 41.1773 131.071 39.7373C131.071 38.2973 130.611 37.2573 129.691 37.2573C128.751 37.2573 128.311 38.2773 128.311 39.7373C128.311 41.1573 128.751 42.1773 129.691 42.1773Z"/>
</mask>
<path d="M119.298 50.0373C116.198 50.0373 113.718 48.5373 113.718 45.7773C113.718 44.0773 114.718 42.7573 116.218 42.1773V42.1173C114.998 41.5573 114.298 40.7173 114.298 39.3973C114.298 37.0773 116.318 35.7573 119.278 35.7573C122.238 35.7573 124.158 37.0573 124.158 39.3573C124.158 40.6373 123.438 41.5373 122.258 42.0973V42.1573C123.778 42.6973 124.738 43.9973 124.738 45.6573C124.738 48.4773 122.398 50.0373 119.298 50.0373ZM119.238 47.8373C120.838 47.8373 121.938 46.9773 121.938 45.6773C121.938 44.2773 120.958 43.3573 119.278 43.3573C117.598 43.3573 116.538 44.2773 116.538 45.6773C116.538 47.0173 117.578 47.8373 119.238 47.8373ZM119.238 41.4573C120.658 41.4573 121.498 40.6973 121.498 39.6173C121.498 38.5373 120.658 37.8173 119.238 37.8173C117.798 37.8173 116.958 38.5373 116.958 39.6173C116.958 40.6973 117.798 41.4573 119.238 41.4573ZM129.691 43.7173C127.651 43.7173 126.171 42.1573 126.171 39.7373C126.171 37.2973 127.671 35.7373 129.691 35.7373C131.751 35.7373 133.191 37.2773 133.191 39.7373C133.191 42.1573 131.751 43.7173 129.691 43.7173ZM138.651 50.0573C136.611 50.0573 135.131 48.4973 135.131 46.0773C135.131 43.6373 136.631 42.0773 138.651 42.0773C140.711 42.0773 142.151 43.6173 142.151 46.0773C142.151 48.4973 140.711 50.0573 138.651 50.0573ZM129.811 49.7373L136.831 36.0173H138.531L131.511 49.7373H129.811ZM138.651 48.5173C139.591 48.5173 140.031 47.5173 140.031 46.0773C140.031 44.6373 139.571 43.5973 138.651 43.5973C137.711 43.5973 137.271 44.6173 137.271 46.0773C137.271 47.4973 137.711 48.5173 138.651 48.5173ZM129.691 42.1773C130.631 42.1773 131.071 41.1773 131.071 39.7373C131.071 38.2973 130.611 37.2573 129.691 37.2573C128.751 37.2573 128.311 38.2773 128.311 39.7373C128.311 41.1573 128.751 42.1773 129.691 42.1773Z" fill="black"/>
<path d="M116.218 42.1773L116.581 43.1163L117.225 42.8674V42.1773H116.218ZM116.218 42.1173H117.225V41.4717L116.638 41.2024L116.218 42.1173ZM122.258 42.0973L121.826 41.1878L121.251 41.4607V42.0973H122.258ZM122.258 42.1573H121.251V42.868L121.921 43.1059L122.258 42.1573ZM119.298 50.0373V49.0306C117.895 49.0306 116.722 48.6891 115.931 48.1232C115.171 47.5805 114.725 46.8125 114.725 45.7773H113.718H112.711C112.711 47.5021 113.504 48.8641 114.76 49.7614C115.983 50.6355 117.601 51.044 119.298 51.044V50.0373ZM113.718 45.7773H114.725C114.725 44.5212 115.442 43.5566 116.581 43.1163L116.218 42.1773L115.855 41.2383C113.994 41.958 112.711 43.6334 112.711 45.7773H113.718ZM116.218 42.1773H117.225V42.1173H116.218H115.211V42.1773H116.218ZM116.218 42.1173L116.638 41.2024C116.13 40.9692 115.808 40.7127 115.611 40.4456C115.424 40.1919 115.305 39.8666 115.305 39.3973H114.298H113.291C113.291 40.248 113.521 41.0027 113.99 41.639C114.448 42.262 115.086 42.7054 115.798 43.0322L116.218 42.1173ZM114.298 39.3973H115.305C115.305 38.5716 115.645 37.9645 116.26 37.5287C116.912 37.0667 117.93 36.764 119.278 36.764V35.7573V34.7506C117.665 34.7506 116.194 35.1079 115.096 35.8859C113.961 36.6901 113.291 37.903 113.291 39.3973H114.298ZM119.278 35.7573V36.764C120.628 36.764 121.617 37.063 122.239 37.5116C122.823 37.9321 123.151 38.5262 123.151 39.3573H124.158H125.165C125.165 37.8884 124.533 36.6825 123.416 35.8781C122.339 35.1016 120.887 34.7506 119.278 34.7506V35.7573ZM124.158 39.3573H123.151C123.151 40.1578 122.745 40.7517 121.826 41.1878L122.258 42.0973L122.689 43.0068C124.13 42.3229 125.165 41.1168 125.165 39.3573H124.158ZM122.258 42.0973H121.251V42.1573H122.258H123.265V42.0973H122.258ZM122.258 42.1573L121.921 43.1059C123.05 43.5072 123.731 44.435 123.731 45.6573H124.738H125.745C125.745 43.5596 124.505 41.8874 122.595 41.2087L122.258 42.1573ZM124.738 45.6573H123.731C123.731 46.755 123.291 47.5535 122.569 48.1046C121.818 48.6783 120.692 49.0306 119.298 49.0306V50.0373V51.044C121.003 51.044 122.598 50.6164 123.791 49.705C125.014 48.7711 125.745 47.3796 125.745 45.6573H124.738ZM119.238 47.8373V48.844C120.209 48.844 121.122 48.5832 121.814 48.0329C122.526 47.4673 122.945 46.6388 122.945 45.6773H121.938H120.931C120.931 46.0158 120.8 46.2673 120.561 46.4567C120.304 46.6614 119.866 46.8306 119.238 46.8306V47.8373ZM121.938 45.6773H122.945C122.945 44.7301 122.605 43.8615 121.907 43.2403C121.222 42.6305 120.296 42.3506 119.278 42.3506V43.3573V44.364C119.94 44.364 120.344 44.5441 120.568 44.7443C120.781 44.9331 120.931 45.2245 120.931 45.6773H121.938ZM119.278 43.3573V42.3506C118.261 42.3506 117.324 42.6297 116.625 43.2262C115.909 43.8365 115.531 44.7047 115.531 45.6773H116.538H117.545C117.545 45.2499 117.697 44.9581 117.931 44.7584C118.181 44.5449 118.615 44.364 119.278 44.364V43.3573ZM116.538 45.6773H115.531C115.531 46.6334 115.915 47.4712 116.638 48.0471C117.334 48.602 118.254 48.844 119.238 48.844V47.8373V46.8306C118.561 46.8306 118.131 46.6626 117.893 46.4725C117.68 46.3034 117.545 46.0612 117.545 45.6773H116.538ZM119.238 41.4573V42.464C120.12 42.464 120.935 42.2273 121.547 41.7136C122.176 41.1864 122.505 40.4375 122.505 39.6173H121.498H120.491C120.491 39.8771 120.4 40.0482 120.253 40.171C120.091 40.3073 119.775 40.4506 119.238 40.4506V41.4573ZM121.498 39.6173H122.505C122.505 38.7937 122.173 38.0492 121.535 37.5311C120.92 37.0308 120.108 36.8106 119.238 36.8106V37.8173V38.824C119.788 38.824 120.106 38.9638 120.265 39.0935C120.403 39.2054 120.491 39.361 120.491 39.6173H121.498ZM119.238 37.8173V36.8106C118.361 36.8106 117.544 37.0293 116.925 37.5291C116.283 38.0475 115.951 38.7932 115.951 39.6173H116.958H117.965C117.965 39.3614 118.052 39.2071 118.19 39.0955C118.352 38.9653 118.675 38.824 119.238 38.824V37.8173ZM116.958 39.6173H115.951C115.951 40.438 116.28 41.1881 116.913 41.7157C117.529 42.229 118.348 42.464 119.238 42.464V41.4573V40.4506C118.687 40.4506 118.366 40.3056 118.202 40.1689C118.055 40.0465 117.965 39.8766 117.965 39.6173H116.958ZM129.811 49.7373L128.915 49.2787L128.165 50.744H129.811V49.7373ZM136.831 36.0173V35.0106H136.216L135.935 35.5587L136.831 36.0173ZM138.531 36.0173L139.428 36.4759L140.177 35.0106H138.531V36.0173ZM131.511 49.7373V50.744H132.127L132.408 50.1959L131.511 49.7373ZM129.691 43.7173V42.7106C128.941 42.7106 128.338 42.4304 127.914 41.9603C127.483 41.4834 127.178 40.7427 127.178 39.7373H126.171H125.165C125.165 41.1519 125.599 42.4012 126.419 43.3093C127.245 44.2242 128.402 44.724 129.691 44.724V43.7173ZM126.171 39.7373H127.178C127.178 38.7235 127.487 37.9773 127.921 37.4969C128.349 37.0227 128.953 36.744 129.691 36.744V35.7373V34.7306C128.409 34.7306 127.253 35.232 126.427 36.1477C125.605 37.0573 125.165 38.3111 125.165 39.7373H126.171ZM129.691 35.7373V36.744C130.457 36.744 131.05 37.0225 131.463 37.4848C131.883 37.9566 132.185 38.7011 132.185 39.7373H133.191H134.198C134.198 38.3135 133.78 37.058 132.965 36.1448C132.143 35.2221 130.986 34.7306 129.691 34.7306V35.7373ZM133.191 39.7373H132.185C132.185 40.7499 131.885 41.4907 131.463 41.9648C131.048 42.4297 130.453 42.7106 129.691 42.7106V43.7173V44.724C130.99 44.724 132.145 44.2249 132.965 43.3048C133.778 42.3939 134.198 41.1448 134.198 39.7373H133.191ZM138.651 50.0573V49.0506C137.901 49.0506 137.298 48.7704 136.874 48.3003C136.443 47.8234 136.138 47.0827 136.138 46.0773H135.131H134.125C134.125 47.4919 134.559 48.7412 135.379 49.6493C136.205 50.5642 137.362 51.064 138.651 51.064V50.0573ZM135.131 46.0773H136.138C136.138 45.0635 136.447 44.3173 136.881 43.8369C137.309 43.3627 137.913 43.084 138.651 43.084V42.0773V41.0706C137.369 41.0706 136.213 41.572 135.387 42.4877C134.565 43.3973 134.125 44.6511 134.125 46.0773H135.131ZM138.651 42.0773V43.084C139.417 43.084 140.01 43.3625 140.423 43.8248C140.843 44.2966 141.145 45.0411 141.145 46.0773H142.151H143.158C143.158 44.6535 142.74 43.398 141.925 42.4848C141.103 41.5621 139.946 41.0706 138.651 41.0706V42.0773ZM142.151 46.0773H141.145C141.145 47.0899 140.845 47.8307 140.423 48.3048C140.008 48.7697 139.413 49.0506 138.651 49.0506V50.0573V51.064C139.95 51.064 141.105 50.5649 141.925 49.6448C142.738 48.7339 143.158 47.4847 143.158 46.0773H142.151ZM129.811 49.7373L130.708 50.1959L137.728 36.4759L136.831 36.0173L135.935 35.5587L128.915 49.2787L129.811 49.7373ZM136.831 36.0173V37.024H138.531V36.0173V35.0106H136.831V36.0173ZM138.531 36.0173L137.635 35.5587L130.615 49.2787L131.511 49.7373L132.408 50.1959L139.428 36.4759L138.531 36.0173ZM131.511 49.7373V48.7306H129.811V49.7373V50.744H131.511V49.7373ZM138.651 48.5173V49.524C139.567 49.524 140.219 48.9981 140.584 48.3081C140.92 47.6717 141.038 46.8741 141.038 46.0773H140.031H139.025C139.025 46.7205 138.922 47.1429 138.804 47.3665C138.75 47.4685 138.709 47.4981 138.703 47.5023C138.7 47.5045 138.698 47.5053 138.695 47.5061C138.692 47.5071 138.679 47.5106 138.651 47.5106V48.5173ZM140.031 46.0773H141.038C141.038 45.2734 140.913 44.4713 140.579 43.8309C140.223 43.1513 139.58 42.5906 138.651 42.5906V43.5973V44.604C138.68 44.604 138.68 44.6083 138.68 44.6087C138.69 44.6155 138.736 44.6518 138.794 44.7637C138.92 45.0033 139.025 45.4412 139.025 46.0773H140.031ZM138.651 43.5973V42.5906C137.726 42.5906 137.076 43.1324 136.716 43.8254C136.382 44.467 136.265 45.2718 136.265 46.0773H137.271H138.278C138.278 45.4228 138.381 44.9876 138.502 44.7543C138.558 44.6472 138.6 44.6154 138.607 44.6109C138.61 44.6086 138.611 44.6083 138.613 44.6079C138.615 44.6073 138.626 44.604 138.651 44.604V43.5973ZM137.271 46.0773H136.265C136.265 46.8663 136.383 47.6617 136.718 48.2985C137.079 48.9845 137.728 49.524 138.651 49.524V48.5173V47.5106C138.626 47.5106 138.614 47.5073 138.612 47.5066C138.61 47.506 138.609 47.5055 138.605 47.503C138.597 47.4979 138.555 47.466 138.5 47.3611C138.38 47.1329 138.278 46.7083 138.278 46.0773H137.271ZM129.691 42.1773V43.184C130.607 43.184 131.259 42.6581 131.624 41.9681C131.96 41.3317 132.078 40.5341 132.078 39.7373H131.071H130.065C130.065 40.3805 129.962 40.8029 129.844 41.0265C129.79 41.1285 129.749 41.1581 129.743 41.1623C129.74 41.1645 129.738 41.1653 129.735 41.1661C129.732 41.1671 129.719 41.1706 129.691 41.1706V42.1773ZM131.071 39.7373H132.078C132.078 38.9334 131.953 38.1313 131.619 37.4909C131.263 36.8113 130.62 36.2506 129.691 36.2506V37.2573V38.264C129.72 38.264 129.72 38.2683 129.72 38.2687C129.73 38.2755 129.776 38.3118 129.834 38.4237C129.96 38.6633 130.065 39.1012 130.065 39.7373H131.071ZM129.691 37.2573V36.2506C128.766 36.2506 128.116 36.7924 127.756 37.4854C127.422 38.127 127.305 38.9318 127.305 39.7373H128.311H129.318C129.318 39.0828 129.421 38.6476 129.542 38.4143C129.598 38.3072 129.64 38.2754 129.647 38.2709C129.65 38.2686 129.651 38.2683 129.653 38.2679C129.655 38.2673 129.666 38.264 129.691 38.264V37.2573ZM128.311 39.7373H127.305C127.305 40.5263 127.423 41.3217 127.758 41.9585C128.119 42.6445 128.768 43.184 129.691 43.184V42.1773V41.1706C129.666 41.1706 129.654 41.1673 129.652 41.1666C129.65 41.166 129.649 41.1655 129.645 41.163C129.637 41.1579 129.595 41.126 129.54 41.0211C129.42 40.7929 129.318 40.3683 129.318 39.7373H128.311Z" fill="#F6F7F8" mask="url(#path-7-outside-1_2122_19367)"/>
<mask id="path-9-outside-2_2122_19367" maskUnits="userSpaceOnUse" x="46.8184" y="83.0664" width="39" height="18" fill="black">
<rect fill="white" x="46.8184" y="83.0664" width="39" height="18"/>
<path d="M51.4584 99.0664V89.5064H48.3584V87.7064C50.0384 87.6464 51.5384 87.0264 51.8184 85.2664H54.1984V99.0664H51.4584ZM63.0504 99.0664V96.0864H56.7304V93.1464L62.9504 85.2064H65.7104V93.9064H67.7904V96.0864H65.7104V99.0664H63.0504ZM58.9304 93.8464V93.9064H63.0504V88.5864H63.0104L58.9304 93.8464ZM72.1371 93.0464C70.0971 93.0464 68.6171 91.4864 68.6171 89.0664C68.6171 86.6264 70.1171 85.0664 72.1371 85.0664C74.1971 85.0664 75.6371 86.6064 75.6371 89.0664C75.6371 91.4864 74.1971 93.0464 72.1371 93.0464ZM81.0971 99.3864C79.0571 99.3864 77.5771 97.8264 77.5771 95.4064C77.5771 92.9664 79.0771 91.4064 81.0971 91.4064C83.1571 91.4064 84.5971 92.9464 84.5971 95.4064C84.5971 97.8264 83.1571 99.3864 81.0971 99.3864ZM72.2571 99.0664L79.2771 85.3464H80.9771L73.9571 99.0664H72.2571ZM81.0971 97.8464C82.0371 97.8464 82.4771 96.8464 82.4771 95.4064C82.4771 93.9664 82.0171 92.9264 81.0971 92.9264C80.1571 92.9264 79.7171 93.9464 79.7171 95.4064C79.7171 96.8264 80.1571 97.8464 81.0971 97.8464ZM72.1371 91.5064C73.0771 91.5064 73.5171 90.5064 73.5171 89.0664C73.5171 87.6264 73.0571 86.5864 72.1371 86.5864C71.1971 86.5864 70.7571 87.6064 70.7571 89.0664C70.7571 90.4864 71.1971 91.5064 72.1371 91.5064Z"/>
</mask>
<path d="M51.4584 99.0664V89.5064H48.3584V87.7064C50.0384 87.6464 51.5384 87.0264 51.8184 85.2664H54.1984V99.0664H51.4584ZM63.0504 99.0664V96.0864H56.7304V93.1464L62.9504 85.2064H65.7104V93.9064H67.7904V96.0864H65.7104V99.0664H63.0504ZM58.9304 93.8464V93.9064H63.0504V88.5864H63.0104L58.9304 93.8464ZM72.1371 93.0464C70.0971 93.0464 68.6171 91.4864 68.6171 89.0664C68.6171 86.6264 70.1171 85.0664 72.1371 85.0664C74.1971 85.0664 75.6371 86.6064 75.6371 89.0664C75.6371 91.4864 74.1971 93.0464 72.1371 93.0464ZM81.0971 99.3864C79.0571 99.3864 77.5771 97.8264 77.5771 95.4064C77.5771 92.9664 79.0771 91.4064 81.0971 91.4064C83.1571 91.4064 84.5971 92.9464 84.5971 95.4064C84.5971 97.8264 83.1571 99.3864 81.0971 99.3864ZM72.2571 99.0664L79.2771 85.3464H80.9771L73.9571 99.0664H72.2571ZM81.0971 97.8464C82.0371 97.8464 82.4771 96.8464 82.4771 95.4064C82.4771 93.9664 82.0171 92.9264 81.0971 92.9264C80.1571 92.9264 79.7171 93.9464 79.7171 95.4064C79.7171 96.8264 80.1571 97.8464 81.0971 97.8464ZM72.1371 91.5064C73.0771 91.5064 73.5171 90.5064 73.5171 89.0664C73.5171 87.6264 73.0571 86.5864 72.1371 86.5864C71.1971 86.5864 70.7571 87.6064 70.7571 89.0664C70.7571 90.4864 71.1971 91.5064 72.1371 91.5064Z" fill="black"/>
<path d="M51.4584 99.0664H50.4516V100.073H51.4584V99.0664ZM51.4584 89.5064H52.4651V88.4997H51.4584V89.5064ZM48.3584 89.5064H47.3516V90.5131H48.3584V89.5064ZM48.3584 87.7064L48.3224 86.7003L47.3516 86.735V87.7064H48.3584ZM51.8184 85.2664V84.2597H50.9591L50.8242 85.1082L51.8184 85.2664ZM54.1984 85.2664H55.2051V84.2597H54.1984V85.2664ZM54.1984 99.0664V100.073H55.2051V99.0664H54.1984ZM51.4584 99.0664H52.4651V89.5064H51.4584H50.4516V99.0664H51.4584ZM51.4584 89.5064V88.4997H48.3584V89.5064V90.5131H51.4584V89.5064ZM48.3584 89.5064H49.3651V87.7064H48.3584H47.3516V89.5064H48.3584ZM48.3584 87.7064L48.3943 88.7125C49.3289 88.6791 50.3177 88.4892 51.1419 87.9807C52.006 87.4476 52.6255 86.6004 52.8126 85.4246L51.8184 85.2664L50.8242 85.1082C50.7312 85.6924 50.4607 86.0352 50.0848 86.2671C49.669 86.5236 49.0678 86.6737 48.3224 86.7003L48.3584 87.7064ZM51.8184 85.2664V86.2731H54.1984V85.2664V84.2597H51.8184V85.2664ZM54.1984 85.2664H53.1916V99.0664H54.1984H55.2051V85.2664H54.1984ZM54.1984 99.0664V98.0597H51.4584V99.0664V100.073H54.1984V99.0664ZM63.0504 99.0664H62.0437V100.073H63.0504V99.0664ZM63.0504 96.0864H64.0571V95.0797H63.0504V96.0864ZM56.7304 96.0864H55.7237V97.0931H56.7304V96.0864ZM56.7304 93.1464L55.9379 92.5256L55.7237 92.799V93.1464H56.7304ZM62.9504 85.2064V84.1997H62.4602L62.1579 84.5856L62.9504 85.2064ZM65.7104 85.2064H66.7171V84.1997H65.7104V85.2064ZM65.7104 93.9064H64.7037V94.9131H65.7104V93.9064ZM67.7904 93.9064H68.7971V92.8997H67.7904V93.9064ZM67.7904 96.0864V97.0931H68.7971V96.0864H67.7904ZM65.7104 96.0864V95.0797H64.7037V96.0864H65.7104ZM65.7104 99.0664V100.073H66.7171V99.0664H65.7104ZM58.9304 93.8464L58.1349 93.2294L57.9237 93.5017V93.8464H58.9304ZM58.9304 93.9064H57.9237V94.9131H58.9304V93.9064ZM63.0504 93.9064V94.9131H64.0571V93.9064H63.0504ZM63.0504 88.5864H64.0571V87.5797H63.0504V88.5864ZM63.0104 88.5864V87.5797H62.5172L62.2149 87.9694L63.0104 88.5864ZM63.0504 99.0664H64.0571V96.0864H63.0504H62.0437V99.0664H63.0504ZM63.0504 96.0864V95.0797H56.7304V96.0864V97.0931H63.0504V96.0864ZM56.7304 96.0864H57.7371V93.1464H56.7304H55.7237V96.0864H56.7304ZM56.7304 93.1464L57.5229 93.7672L63.7429 85.8272L62.9504 85.2064L62.1579 84.5856L55.9379 92.5256L56.7304 93.1464ZM62.9504 85.2064V86.2131H65.7104V85.2064V84.1997H62.9504V85.2064ZM65.7104 85.2064H64.7037V93.9064H65.7104H66.7171V85.2064H65.7104ZM65.7104 93.9064V94.9131H67.7904V93.9064V92.8997H65.7104V93.9064ZM67.7904 93.9064H66.7837V96.0864H67.7904H68.7971V93.9064H67.7904ZM67.7904 96.0864V95.0797H65.7104V96.0864V97.0931H67.7904V96.0864ZM65.7104 96.0864H64.7037V99.0664H65.7104H66.7171V96.0864H65.7104ZM65.7104 99.0664V98.0597H63.0504V99.0664V100.073H65.7104V99.0664ZM58.9304 93.8464H57.9237V93.9064H58.9304H59.9371V93.8464H58.9304ZM58.9304 93.9064V94.9131H63.0504V93.9064V92.8997H58.9304V93.9064ZM63.0504 93.9064H64.0571V88.5864H63.0504H62.0437V93.9064H63.0504ZM63.0504 88.5864V87.5797H63.0104V88.5864V89.5931H63.0504V88.5864ZM63.0104 88.5864L62.2149 87.9694L58.1349 93.2294L58.9304 93.8464L59.7259 94.4634L63.8059 89.2034L63.0104 88.5864ZM72.2571 99.0664L71.3609 98.6078L70.6112 100.073H72.2571V99.0664ZM79.2771 85.3464V84.3397H78.6614L78.3809 84.8878L79.2771 85.3464ZM80.9771 85.3464L81.8733 85.805L82.623 84.3397H80.9771V85.3464ZM73.9571 99.0664V100.073H74.5729L74.8533 99.525L73.9571 99.0664ZM72.1371 93.0464V92.0397C71.387 92.0397 70.7837 91.7595 70.3595 91.2894C69.929 90.8125 69.6238 90.0718 69.6238 89.0664H68.6171H67.6104C67.6104 90.481 68.0452 91.7303 68.8648 92.6384C69.6905 93.5533 70.8473 94.0531 72.1371 94.0531V93.0464ZM68.6171 89.0664H69.6238C69.6238 88.0526 69.9331 87.3064 70.3668 86.826C70.7951 86.3518 71.3992 86.0731 72.1371 86.0731V85.0664V84.0597C70.855 84.0597 69.6992 84.5611 68.8724 85.4768C68.0511 86.3864 67.6104 87.6402 67.6104 89.0664H68.6171ZM72.1371 85.0664V86.0731C72.9022 86.0731 73.496 86.3516 73.9082 86.8139C74.3289 87.2857 74.6304 88.0302 74.6304 89.0664H75.6371H76.6438C76.6438 87.6426 76.2253 86.3871 75.411 85.4739C74.5882 84.5512 73.432 84.0597 72.1371 84.0597V85.0664ZM75.6371 89.0664H74.6304C74.6304 90.079 74.331 90.8198 73.9082 91.2939C73.4936 91.7589 72.8985 92.0397 72.1371 92.0397V93.0464V94.0531C73.4357 94.0531 74.5906 93.554 75.411 92.6339C76.2232 91.723 76.6438 90.4739 76.6438 89.0664H75.6371ZM81.0971 99.3864V98.3797C80.347 98.3797 79.7437 98.0995 79.3195 97.6294C78.889 97.1525 78.5838 96.4118 78.5838 95.4064H77.5771H76.5704C76.5704 96.821 77.0052 98.0703 77.8248 98.9784C78.6505 99.8933 79.8073 100.393 81.0971 100.393V99.3864ZM77.5771 95.4064H78.5838C78.5838 94.3926 78.8931 93.6464 79.3268 93.166C79.7551 92.6918 80.3592 92.4131 81.0971 92.4131V91.4064V90.3997C79.815 90.3997 78.6592 90.9011 77.8324 91.8168C77.0111 92.7264 76.5704 93.9802 76.5704 95.4064H77.5771ZM81.0971 91.4064V92.4131C81.8622 92.4131 82.456 92.6916 82.8682 93.1539C83.2889 93.6257 83.5904 94.3702 83.5904 95.4064H84.5971H85.6038C85.6038 93.9826 85.1853 92.7271 84.371 91.8139C83.5482 90.8912 82.392 90.3997 81.0971 90.3997V91.4064ZM84.5971 95.4064H83.5904C83.5904 96.419 83.291 97.1598 82.8682 97.6339C82.4536 98.0989 81.8585 98.3797 81.0971 98.3797V99.3864V100.393C82.3957 100.393 83.5506 99.894 84.371 98.9739C85.1832 98.063 85.6038 96.8139 85.6038 95.4064H84.5971ZM72.2571 99.0664L73.1533 99.525L80.1733 85.805L79.2771 85.3464L78.3809 84.8878L71.3609 98.6078L72.2571 99.0664ZM79.2771 85.3464V86.3531H80.9771V85.3464V84.3397H79.2771V85.3464ZM80.9771 85.3464L80.0809 84.8878L73.0609 98.6078L73.9571 99.0664L74.8533 99.525L81.8733 85.805L80.9771 85.3464ZM73.9571 99.0664V98.0597H72.2571V99.0664V100.073H73.9571V99.0664ZM81.0971 97.8464V98.8531C82.0129 98.8531 82.6644 98.3272 83.0295 97.6372C83.3662 97.0008 83.4838 96.2032 83.4838 95.4064H82.4771H81.4704C81.4704 96.0496 81.3681 96.472 81.2498 96.6956C81.1958 96.7976 81.1551 96.8272 81.1488 96.8314C81.1455 96.8336 81.1438 96.8344 81.1409 96.8352C81.1376 96.8362 81.1245 96.8397 81.0971 96.8397V97.8464ZM82.4771 95.4064H83.4838C83.4838 94.6025 83.359 93.8004 83.0243 93.16C82.669 92.4804 82.0259 91.9197 81.0971 91.9197V92.9264V93.9331C81.1255 93.9331 81.1254 93.9374 81.126 93.9378C81.1357 93.9446 81.1815 93.9809 81.2399 94.0928C81.3652 94.3324 81.4704 94.7703 81.4704 95.4064H82.4771ZM81.0971 92.9264V91.9197C80.1713 91.9197 79.5218 92.4615 79.1614 93.1545C78.8278 93.7961 78.7104 94.6009 78.7104 95.4064H79.7171H80.7238C80.7238 94.7519 80.8265 94.3167 80.9478 94.0834C81.0035 93.9763 81.046 93.9445 81.0526 93.94C81.0559 93.9377 81.057 93.9374 81.0585 93.937C81.0603 93.9364 81.0716 93.9331 81.0971 93.9331V92.9264ZM79.7171 95.4064H78.7104C78.7104 96.1954 78.8287 96.9908 79.1636 97.6276C79.5245 98.3136 80.1733 98.8531 81.0971 98.8531V97.8464V96.8397C81.0716 96.8397 81.06 96.8364 81.0578 96.8357C81.0558 96.8351 81.0543 96.8346 81.0506 96.8321C81.0431 96.827 81.0007 96.7951 80.9456 96.6902C80.8255 96.462 80.7238 96.0374 80.7238 95.4064H79.7171ZM72.1371 91.5064V92.5131C73.0529 92.5131 73.7044 91.9872 74.0695 91.2972C74.4062 90.6608 74.5238 89.8632 74.5238 89.0664H73.5171H72.5104C72.5104 89.7096 72.4081 90.132 72.2898 90.3556C72.2358 90.4576 72.1951 90.4872 72.1888 90.4914C72.1855 90.4936 72.1838 90.4944 72.1808 90.4952C72.1776 90.4962 72.1645 90.4997 72.1371 90.4997V91.5064ZM73.5171 89.0664H74.5238C74.5238 88.2625 74.399 87.4604 74.0643 86.82C73.709 86.1404 73.0659 85.5797 72.1371 85.5797V86.5864V87.5931C72.1655 87.5931 72.1654 87.5974 72.166 87.5978C72.1757 87.6046 72.2215 87.6409 72.2799 87.7528C72.4052 87.9924 72.5104 88.4303 72.5104 89.0664H73.5171ZM72.1371 86.5864V85.5797C71.2113 85.5797 70.5618 86.1215 70.2014 86.8145C69.8678 87.4561 69.7504 88.2609 69.7504 89.0664H70.7571H71.7638C71.7638 88.4119 71.8665 87.9767 71.9878 87.7434C72.0435 87.6363 72.086 87.6045 72.0926 87.6C72.0959 87.5977 72.097 87.5974 72.0985 87.597C72.1003 87.5964 72.1116 87.5931 72.1371 87.5931V86.5864ZM70.7571 89.0664H69.7504C69.7504 89.8554 69.8687 90.6508 70.2036 91.2876C70.5645 91.9736 71.2133 92.5131 72.1371 92.5131V91.5064V90.4997C72.1116 90.4997 72.1 90.4964 72.0978 90.4957C72.0958 90.4951 72.0943 90.4946 72.0906 90.4921C72.0831 90.487 72.0407 90.4551 71.9856 90.3502C71.8655 90.122 71.7638 89.6974 71.7638 89.0664H70.7571Z" fill="#F6F7F8" mask="url(#path-9-outside-2_2122_19367)"/>
<mask id="path-11-outside-3_2122_19367" maskUnits="userSpaceOnUse" x="35.7441" y="174.677" width="40" height="18" fill="black">
<rect fill="white" x="35.7441" y="174.677" width="40" height="18"/>
<path d="M40.3841 190.677V181.117H37.2841V179.317C38.9641 179.257 40.4641 178.637 40.7441 176.877H43.1241V190.677H40.3841ZM51.4762 190.977C47.5562 190.977 45.8362 187.757 45.7962 184.037C45.7762 181.617 46.2562 179.657 47.4762 178.277C48.3562 177.277 49.5562 176.697 51.4162 176.697C54.1562 176.697 55.7962 178.197 56.1362 180.237H53.5162C53.3162 179.397 52.7162 178.777 51.5162 178.777C49.5162 178.777 48.5562 180.277 48.5562 182.697H48.5962C49.3162 181.857 50.2162 181.277 51.8162 181.277C54.3562 181.277 56.5762 183.257 56.5762 186.177C56.5762 188.997 54.3362 190.977 51.4762 190.977ZM51.3762 188.837C52.8562 188.837 53.9762 187.697 53.9762 186.217C53.9762 184.657 52.8762 183.477 51.3962 183.477C49.7162 183.477 48.7362 184.617 48.7362 186.197C48.7362 187.737 49.8362 188.837 51.3762 188.837ZM61.5512 184.657C59.5112 184.657 58.0312 183.097 58.0312 180.677C58.0312 178.237 59.5312 176.677 61.5512 176.677C63.6112 176.677 65.0512 178.217 65.0512 180.677C65.0512 183.097 63.6112 184.657 61.5512 184.657ZM70.5112 190.997C68.4712 190.997 66.9912 189.437 66.9912 187.017C66.9912 184.577 68.4912 183.017 70.5112 183.017C72.5712 183.017 74.0112 184.557 74.0112 187.017C74.0112 189.437 72.5712 190.997 70.5112 190.997ZM61.6712 190.677L68.6912 176.957H70.3912L63.3712 190.677H61.6712ZM70.5112 189.457C71.4512 189.457 71.8912 188.457 71.8912 187.017C71.8912 185.577 71.4312 184.537 70.5112 184.537C69.5712 184.537 69.1312 185.557 69.1312 187.017C69.1312 188.437 69.5712 189.457 70.5112 189.457ZM61.5512 183.117C62.4912 183.117 62.9312 182.117 62.9312 180.677C62.9312 179.237 62.4712 178.197 61.5512 178.197C60.6112 178.197 60.1712 179.217 60.1712 180.677C60.1712 182.097 60.6112 183.117 61.5512 183.117Z"/>
</mask>
<path d="M40.3841 190.677V181.117H37.2841V179.317C38.9641 179.257 40.4641 178.637 40.7441 176.877H43.1241V190.677H40.3841ZM51.4762 190.977C47.5562 190.977 45.8362 187.757 45.7962 184.037C45.7762 181.617 46.2562 179.657 47.4762 178.277C48.3562 177.277 49.5562 176.697 51.4162 176.697C54.1562 176.697 55.7962 178.197 56.1362 180.237H53.5162C53.3162 179.397 52.7162 178.777 51.5162 178.777C49.5162 178.777 48.5562 180.277 48.5562 182.697H48.5962C49.3162 181.857 50.2162 181.277 51.8162 181.277C54.3562 181.277 56.5762 183.257 56.5762 186.177C56.5762 188.997 54.3362 190.977 51.4762 190.977ZM51.3762 188.837C52.8562 188.837 53.9762 187.697 53.9762 186.217C53.9762 184.657 52.8762 183.477 51.3962 183.477C49.7162 183.477 48.7362 184.617 48.7362 186.197C48.7362 187.737 49.8362 188.837 51.3762 188.837ZM61.5512 184.657C59.5112 184.657 58.0312 183.097 58.0312 180.677C58.0312 178.237 59.5312 176.677 61.5512 176.677C63.6112 176.677 65.0512 178.217 65.0512 180.677C65.0512 183.097 63.6112 184.657 61.5512 184.657ZM70.5112 190.997C68.4712 190.997 66.9912 189.437 66.9912 187.017C66.9912 184.577 68.4912 183.017 70.5112 183.017C72.5712 183.017 74.0112 184.557 74.0112 187.017C74.0112 189.437 72.5712 190.997 70.5112 190.997ZM61.6712 190.677L68.6912 176.957H70.3912L63.3712 190.677H61.6712ZM70.5112 189.457C71.4512 189.457 71.8912 188.457 71.8912 187.017C71.8912 185.577 71.4312 184.537 70.5112 184.537C69.5712 184.537 69.1312 185.557 69.1312 187.017C69.1312 188.437 69.5712 189.457 70.5112 189.457ZM61.5512 183.117C62.4912 183.117 62.9312 182.117 62.9312 180.677C62.9312 179.237 62.4712 178.197 61.5512 178.197C60.6112 178.197 60.1712 179.217 60.1712 180.677C60.1712 182.097 60.6112 183.117 61.5512 183.117Z" fill="black"/>
<path d="M40.3841 190.677H39.3774V191.683H40.3841V190.677ZM40.3841 181.117H41.3909V180.11H40.3841V181.117ZM37.2841 181.117H36.2774V182.123H37.2841V181.117ZM37.2841 179.317L37.2482 178.311L36.2774 178.345V179.317H37.2841ZM40.7441 176.877V175.87H39.8849L39.7499 176.719L40.7441 176.877ZM43.1241 176.877H44.1309V175.87H43.1241V176.877ZM43.1241 190.677V191.683H44.1309V190.677H43.1241ZM40.3841 190.677H41.3909V181.117H40.3841H39.3774V190.677H40.3841ZM40.3841 181.117V180.11H37.2841V181.117V182.123H40.3841V181.117ZM37.2841 181.117H38.2909V179.317H37.2841H36.2774V181.117H37.2841ZM37.2841 179.317L37.3201 180.323C38.2547 180.289 39.2435 180.1 40.0677 179.591C40.9318 179.058 41.5513 178.211 41.7383 177.035L40.7441 176.877L39.7499 176.719C39.657 177.303 39.3865 177.646 39.0106 177.877C38.5948 178.134 37.9936 178.284 37.2482 178.311L37.2841 179.317ZM40.7441 176.877V177.883H43.1241V176.877V175.87H40.7441V176.877ZM43.1241 176.877H42.1174V190.677H43.1241H44.1309V176.877H43.1241ZM43.1241 190.677V189.67H40.3841V190.677V191.683H43.1241V190.677ZM45.7962 184.037L44.7895 184.045L44.7895 184.048L45.7962 184.037ZM47.4762 178.277L48.2304 178.944L48.2319 178.942L47.4762 178.277ZM56.1362 180.237V181.243H57.3246L57.1292 180.071L56.1362 180.237ZM53.5162 180.237L52.5368 180.47L52.721 181.243H53.5162V180.237ZM48.5562 182.697H47.5495V183.703H48.5562V182.697ZM48.5962 182.697V183.703H49.0592L49.3605 183.352L48.5962 182.697ZM51.4762 190.977V189.97C49.8332 189.97 48.7277 189.315 47.9949 188.309C47.2316 187.261 46.8214 185.753 46.8028 184.026L45.7962 184.037L44.7895 184.048C44.8109 186.04 45.2807 188.002 46.3674 189.494C47.4847 191.028 49.1991 191.983 51.4762 191.983V190.977ZM45.7962 184.037L46.8028 184.028C46.7838 181.721 47.2469 180.056 48.2304 178.944L47.4762 178.277L46.7219 177.61C45.2655 179.257 44.7686 181.512 44.7895 184.045L45.7962 184.037ZM47.4762 178.277L48.2319 178.942C48.8955 178.188 49.8049 177.703 51.4162 177.703V176.697V175.69C49.3074 175.69 47.8168 176.366 46.7204 177.612L47.4762 178.277ZM51.4162 176.697V177.703C52.6009 177.703 53.464 178.026 54.0509 178.491C54.6352 178.954 55.0109 179.609 55.1432 180.402L56.1362 180.237L57.1292 180.071C56.9214 178.825 56.3071 177.71 55.3014 176.913C54.2984 176.118 52.9715 175.69 51.4162 175.69V176.697ZM56.1362 180.237V179.23H53.5162V180.237V181.243H56.1362V180.237ZM53.5162 180.237L54.4955 180.004C54.3558 179.417 54.0575 178.836 53.5201 178.406C52.98 177.974 52.2931 177.77 51.5162 177.77V178.777V179.783C51.9393 179.783 52.1524 179.89 52.2623 179.978C52.3748 180.068 52.4765 180.217 52.5368 180.47L53.5162 180.237ZM51.5162 178.777V177.77C50.2306 177.77 49.1707 178.271 48.4704 179.239C47.8073 180.156 47.5495 181.378 47.5495 182.697H48.5562H49.5629C49.5629 181.596 49.7851 180.857 50.1019 180.419C50.3817 180.032 50.8017 179.783 51.5162 179.783V178.777ZM48.5562 182.697V183.703H48.5962V182.697V181.69H48.5562V182.697ZM48.5962 182.697L49.3605 183.352C49.6585 183.004 49.9585 182.751 50.3158 182.577C50.6718 182.405 51.142 182.283 51.8162 182.283V181.277V180.27C50.8903 180.27 50.1105 180.439 49.4365 180.766C48.7638 181.093 48.2539 181.549 47.8318 182.042L48.5962 182.697ZM51.8162 181.277V182.283C53.8139 182.283 55.5695 183.826 55.5695 186.177H56.5762H57.5829C57.5829 182.687 54.8984 180.27 51.8162 180.27V181.277ZM56.5762 186.177H55.5695C55.5695 188.367 53.8569 189.97 51.4762 189.97V190.977V191.983C54.8154 191.983 57.5829 189.626 57.5829 186.177H56.5762ZM51.3762 188.837V189.843C53.4223 189.843 54.9829 188.243 54.9829 186.217H53.9762H52.9695C52.9695 187.151 52.2901 187.83 51.3762 187.83V188.837ZM53.9762 186.217H54.9829C54.9829 184.162 53.4911 182.47 51.3962 182.47V183.477V184.483C52.2612 184.483 52.9695 185.152 52.9695 186.217H53.9762ZM51.3962 183.477V182.47C50.3181 182.47 49.3743 182.843 48.7038 183.554C48.0409 184.257 47.7295 185.2 47.7295 186.197H48.7362H49.7429C49.7429 185.613 49.9214 185.197 50.1686 184.935C50.4081 184.681 50.7942 184.483 51.3962 184.483V183.477ZM48.7362 186.197H47.7295C47.7295 188.293 49.2802 189.843 51.3762 189.843V188.837V187.83C50.3922 187.83 49.7429 187.181 49.7429 186.197H48.7362ZM61.6712 190.677L60.775 190.218L60.0252 191.683H61.6712V190.677ZM68.6912 176.957V175.95H68.0754L67.795 176.498L68.6912 176.957ZM70.3912 176.957L71.2874 177.415L72.0371 175.95H70.3912V176.957ZM63.3712 190.677V191.683H63.9869L64.2674 191.135L63.3712 190.677ZM61.5512 184.657V183.65C60.801 183.65 60.1978 183.37 59.7735 182.9C59.3431 182.423 59.0379 181.682 59.0379 180.677H58.0312H57.0245C57.0245 182.091 57.4593 183.341 58.2788 184.249C59.1046 185.164 60.2613 185.663 61.5512 185.663V184.657ZM58.0312 180.677H59.0379C59.0379 179.663 59.3472 178.917 59.7809 178.436C60.2091 177.962 60.8132 177.683 61.5512 177.683V176.677V175.67C60.2691 175.67 59.1132 176.171 58.2865 177.087C57.4651 177.997 57.0245 179.251 57.0245 180.677H58.0312ZM61.5512 176.677V177.683C62.3163 177.683 62.9101 177.962 63.3223 178.424C63.743 178.896 64.0445 179.641 64.0445 180.677H65.0512H66.0579C66.0579 179.253 65.6393 177.997 64.8251 177.084C64.0023 176.162 62.846 175.67 61.5512 175.67V176.677ZM65.0512 180.677H64.0445C64.0445 181.689 63.745 182.43 63.3223 182.904C62.9077 183.369 62.3125 183.65 61.5512 183.65V184.657V185.663C62.8498 185.663 64.0046 185.164 64.8251 184.244C65.6373 183.333 66.0579 182.084 66.0579 180.677H65.0512ZM70.5112 190.997V189.99C69.761 189.99 69.1578 189.71 68.7335 189.24C68.3031 188.763 67.9979 188.022 67.9979 187.017H66.9912H65.9845C65.9845 188.431 66.4193 189.681 67.2388 190.589C68.0646 191.504 69.2213 192.003 70.5112 192.003V190.997ZM66.9912 187.017H67.9979C67.9979 186.003 68.3072 185.257 68.7409 184.776C69.1691 184.302 69.7732 184.023 70.5112 184.023V183.017V182.01C69.2291 182.01 68.0732 182.511 67.2465 183.427C66.4251 184.337 65.9845 185.591 65.9845 187.017H66.9912ZM70.5112 183.017V184.023C71.2763 184.023 71.8701 184.302 72.2823 184.764C72.703 185.236 73.0045 185.981 73.0045 187.017H74.0112H75.0179C75.0179 185.593 74.5993 184.337 73.785 183.424C72.9623 182.502 71.806 182.01 70.5112 182.01V183.017ZM74.0112 187.017H73.0045C73.0045 188.029 72.705 188.77 72.2823 189.244C71.8677 189.709 71.2725 189.99 70.5112 189.99V190.997V192.003C71.8098 192.003 72.9646 191.504 73.785 190.584C74.5973 189.673 75.0179 188.424 75.0179 187.017H74.0112ZM61.6712 190.677L62.5674 191.135L69.5874 177.415L68.6912 176.957L67.795 176.498L60.775 190.218L61.6712 190.677ZM68.6912 176.957V177.963H70.3912V176.957V175.95H68.6912V176.957ZM70.3912 176.957L69.495 176.498L62.475 190.218L63.3712 190.677L64.2674 191.135L71.2874 177.415L70.3912 176.957ZM63.3712 190.677V189.67H61.6712V190.677V191.683H63.3712V190.677ZM70.5112 189.457V190.463C71.4269 190.463 72.0785 189.938 72.4435 189.248C72.7802 188.611 72.8979 187.814 72.8979 187.017H71.8912H70.8845C70.8845 187.66 70.7821 188.082 70.6638 188.306C70.6099 188.408 70.5691 188.438 70.5629 188.442C70.5595 188.444 70.5578 188.445 70.5549 188.446C70.5516 188.447 70.5385 188.45 70.5112 188.45V189.457ZM71.8912 187.017H72.8979C72.8979 186.213 72.7731 185.411 72.4383 184.77C72.0831 184.091 71.4399 183.53 70.5112 183.53V184.537V185.543C70.5396 185.543 70.5395 185.548 70.54 185.548C70.5497 185.555 70.5955 185.591 70.654 185.703C70.7793 185.943 70.8845 186.381 70.8845 187.017H71.8912ZM70.5112 184.537V183.53C69.5853 183.53 68.9358 184.072 68.5755 184.765C68.2418 185.406 68.1245 186.211 68.1245 187.017H69.1312H70.1379C70.1379 186.362 70.2405 185.927 70.3618 185.694C70.4175 185.587 70.46 185.555 70.4667 185.55C70.47 185.548 70.4711 185.548 70.4725 185.547C70.4743 185.547 70.4857 185.543 70.5112 185.543V184.537ZM69.1312 187.017H68.1245C68.1245 187.806 68.2428 188.601 68.5777 189.238C68.9386 189.924 69.5873 190.463 70.5112 190.463V189.457V188.45C70.4857 188.45 70.4741 188.447 70.4718 188.446C70.4699 188.445 70.4684 188.445 70.4647 188.442C70.4571 188.437 70.4148 188.405 70.3596 188.301C70.2396 188.072 70.1379 187.648 70.1379 187.017H69.1312ZM61.5512 183.117V184.123C62.4669 184.123 63.1185 183.598 63.4835 182.908C63.8202 182.271 63.9379 181.474 63.9379 180.677H62.9312H61.9245C61.9245 181.32 61.8221 181.742 61.7038 181.966C61.6499 182.068 61.6091 182.098 61.6029 182.102C61.5995 182.104 61.5978 182.105 61.5949 182.106C61.5916 182.107 61.5785 182.11 61.5512 182.11V183.117ZM62.9312 180.677H63.9379C63.9379 179.873 63.8131 179.071 63.4783 178.43C63.1231 177.751 62.4799 177.19 61.5512 177.19V178.197V179.203C61.5796 179.203 61.5795 179.208 61.58 179.208C61.5897 179.215 61.6355 179.251 61.694 179.363C61.8193 179.603 61.9245 180.041 61.9245 180.677H62.9312ZM61.5512 178.197V177.19C60.6253 177.19 59.9758 177.732 59.6155 178.425C59.2818 179.066 59.1645 179.871 59.1645 180.677H60.1712H61.1779C61.1779 180.022 61.2805 179.587 61.4018 179.354C61.4575 179.247 61.5 179.215 61.5067 179.21C61.51 179.208 61.5111 179.208 61.5125 179.207C61.5143 179.207 61.5257 179.203 61.5512 179.203V178.197ZM60.1712 180.677H59.1645C59.1645 181.466 59.2828 182.261 59.6177 182.898C59.9786 183.584 60.6273 184.123 61.5512 184.123V183.117V182.11C61.5257 182.11 61.5141 182.107 61.5118 182.106C61.5099 182.105 61.5084 182.105 61.5047 182.102C61.4971 182.097 61.4548 182.065 61.3996 181.961C61.2796 181.732 61.1779 181.308 61.1779 180.677H60.1712Z" fill="#F6F7F8" mask="url(#path-11-outside-3_2122_19367)"/>
<mask id="path-13-outside-4_2122_19367" maskUnits="userSpaceOnUse" x="112.258" y="233.066" width="39" height="18" fill="black">
<rect fill="white" x="112.258" y="233.066" width="39" height="18"/>
<path d="M116.898 249.066V239.506H113.798V237.706C115.478 237.646 116.978 237.026 117.258 235.266H119.638V249.066H116.898ZM123.93 249.066C124.11 244.026 126.79 239.886 128.87 237.746V237.706H122.07V235.366H131.83V237.606C129.37 240.106 127.09 244.086 126.89 249.066H123.93ZM137.186 243.046C135.146 243.046 133.666 241.486 133.666 239.066C133.666 236.626 135.166 235.066 137.186 235.066C139.246 235.066 140.686 236.606 140.686 239.066C140.686 241.486 139.246 243.046 137.186 243.046ZM146.146 249.386C144.106 249.386 142.626 247.826 142.626 245.406C142.626 242.966 144.126 241.406 146.146 241.406C148.206 241.406 149.646 242.946 149.646 245.406C149.646 247.826 148.206 249.386 146.146 249.386ZM137.306 249.066L144.326 235.346H146.026L139.006 249.066H137.306ZM146.146 247.846C147.086 247.846 147.526 246.846 147.526 245.406C147.526 243.966 147.066 242.926 146.146 242.926C145.206 242.926 144.766 243.946 144.766 245.406C144.766 246.826 145.206 247.846 146.146 247.846ZM137.186 241.506C138.126 241.506 138.566 240.506 138.566 239.066C138.566 237.626 138.106 236.586 137.186 236.586C136.246 236.586 135.806 237.606 135.806 239.066C135.806 240.486 136.246 241.506 137.186 241.506Z"/>
</mask>
<path d="M116.898 249.066V239.506H113.798V237.706C115.478 237.646 116.978 237.026 117.258 235.266H119.638V249.066H116.898ZM123.93 249.066C124.11 244.026 126.79 239.886 128.87 237.746V237.706H122.07V235.366H131.83V237.606C129.37 240.106 127.09 244.086 126.89 249.066H123.93ZM137.186 243.046C135.146 243.046 133.666 241.486 133.666 239.066C133.666 236.626 135.166 235.066 137.186 235.066C139.246 235.066 140.686 236.606 140.686 239.066C140.686 241.486 139.246 243.046 137.186 243.046ZM146.146 249.386C144.106 249.386 142.626 247.826 142.626 245.406C142.626 242.966 144.126 241.406 146.146 241.406C148.206 241.406 149.646 242.946 149.646 245.406C149.646 247.826 148.206 249.386 146.146 249.386ZM137.306 249.066L144.326 235.346H146.026L139.006 249.066H137.306ZM146.146 247.846C147.086 247.846 147.526 246.846 147.526 245.406C147.526 243.966 147.066 242.926 146.146 242.926C145.206 242.926 144.766 243.946 144.766 245.406C144.766 246.826 145.206 247.846 146.146 247.846ZM137.186 241.506C138.126 241.506 138.566 240.506 138.566 239.066C138.566 237.626 138.106 236.586 137.186 236.586C136.246 236.586 135.806 237.606 135.806 239.066C135.806 240.486 136.246 241.506 137.186 241.506Z" fill="black"/>
<path d="M116.898 249.066H115.891V250.073H116.898V249.066ZM116.898 239.506H117.905V238.5H116.898V239.506ZM113.798 239.506H112.791V240.513H113.798V239.506ZM113.798 237.706L113.762 236.7L112.791 236.735V237.706H113.798ZM117.258 235.266V234.26H116.399L116.264 235.108L117.258 235.266ZM119.638 235.266H120.645V234.26H119.638V235.266ZM119.638 249.066V250.073H120.645V249.066H119.638ZM116.898 249.066H117.905V239.506H116.898H115.891V249.066H116.898ZM116.898 239.506V238.5H113.798V239.506V240.513H116.898V239.506ZM113.798 239.506H114.805V237.706H113.798H112.791V239.506H113.798ZM113.798 237.706L113.834 238.712C114.768 238.679 115.757 238.489 116.581 237.981C117.445 237.448 118.065 236.6 118.252 235.425L117.258 235.266L116.264 235.108C116.171 235.692 115.9 236.035 115.524 236.267C115.108 236.524 114.507 236.674 113.762 236.7L113.798 237.706ZM117.258 235.266V236.273H119.638V235.266V234.26H117.258V235.266ZM119.638 235.266H118.631V249.066H119.638H120.645V235.266H119.638ZM119.638 249.066V248.06H116.898V249.066V250.073H119.638V249.066ZM123.93 249.066L122.924 249.03L122.887 250.073H123.93V249.066ZM128.87 237.746L129.592 238.448L129.877 238.155V237.746H128.87ZM128.87 237.706H129.877V236.7H128.87V237.706ZM122.07 237.706H121.063V238.713H122.07V237.706ZM122.07 235.366V234.36H121.063V235.366H122.07ZM131.83 235.366H132.837V234.36H131.83V235.366ZM131.83 237.606L132.547 238.312L132.837 238.019V237.606H131.83ZM126.89 249.066V250.073H127.857L127.896 249.107L126.89 249.066ZM123.93 249.066L124.936 249.102C125.104 244.385 127.627 240.469 129.592 238.448L128.87 237.746L128.148 237.045C125.952 239.304 123.115 243.668 122.924 249.03L123.93 249.066ZM128.87 237.746H129.877V237.706H128.87H127.863V237.746H128.87ZM128.87 237.706V236.7H122.07V237.706V238.713H128.87V237.706ZM122.07 237.706H123.077V235.366H122.07H121.063V237.706H122.07ZM122.07 235.366V236.373H131.83V235.366V234.36H122.07V235.366ZM131.83 235.366H130.823V237.606H131.83H132.837V235.366H131.83ZM131.83 237.606L131.112 236.9C128.507 239.548 126.096 243.756 125.884 249.026L126.89 249.066L127.896 249.107C128.084 244.417 130.233 240.665 132.547 238.312L131.83 237.606ZM126.89 249.066V248.06H123.93V249.066V250.073H126.89V249.066ZM137.306 249.066L136.41 248.608L135.66 250.073H137.306V249.066ZM144.326 235.346V234.34H143.71L143.43 234.888L144.326 235.346ZM146.026 235.346L146.922 235.805L147.672 234.34H146.026V235.346ZM139.006 249.066V250.073H139.622L139.902 249.525L139.006 249.066ZM137.186 243.046V242.04C136.436 242.04 135.833 241.759 135.408 241.289C134.978 240.812 134.673 240.072 134.673 239.066H133.666H132.659C132.659 240.481 133.094 241.73 133.914 242.638C134.739 243.553 135.896 244.053 137.186 244.053V243.046ZM133.666 239.066H134.673C134.673 238.053 134.982 237.306 135.416 236.826C135.844 236.352 136.448 236.073 137.186 236.073V235.066V234.06C135.904 234.06 134.748 234.561 133.921 235.477C133.1 236.386 132.659 237.64 132.659 239.066H133.666ZM137.186 235.066V236.073C137.951 236.073 138.545 236.352 138.957 236.814C139.378 237.286 139.679 238.03 139.679 239.066H140.686H141.693C141.693 237.643 141.274 236.387 140.46 235.474C139.637 234.551 138.481 234.06 137.186 234.06V235.066ZM140.686 239.066H139.679C139.679 240.079 139.38 240.82 138.957 241.294C138.542 241.759 137.947 242.04 137.186 242.04V243.046V244.053C138.485 244.053 139.639 243.554 140.46 242.634C141.272 241.723 141.693 240.474 141.693 239.066H140.686ZM146.146 249.386V248.38C145.396 248.38 144.793 248.099 144.368 247.629C143.938 247.152 143.633 246.412 143.633 245.406H142.626H141.619C141.619 246.821 142.054 248.07 142.874 248.978C143.699 249.893 144.856 250.393 146.146 250.393V249.386ZM142.626 245.406H143.633C143.633 244.393 143.942 243.646 144.376 243.166C144.804 242.692 145.408 242.413 146.146 242.413V241.406V240.4C144.864 240.4 143.708 240.901 142.881 241.817C142.06 242.726 141.619 243.98 141.619 245.406H142.626ZM146.146 241.406V242.413C146.911 242.413 147.505 242.692 147.917 243.154C148.338 243.626 148.639 244.37 148.639 245.406H149.646H150.653C150.653 243.983 150.234 242.727 149.42 241.814C148.597 240.891 147.441 240.4 146.146 240.4V241.406ZM149.646 245.406H148.639C148.639 246.419 148.34 247.16 147.917 247.634C147.502 248.099 146.907 248.38 146.146 248.38V249.386V250.393C147.445 250.393 148.599 249.894 149.42 248.974C150.232 248.063 150.653 246.814 150.653 245.406H149.646ZM137.306 249.066L138.202 249.525L145.222 235.805L144.326 235.346L143.43 234.888L136.41 248.608L137.306 249.066ZM144.326 235.346V236.353H146.026V235.346V234.34H144.326V235.346ZM146.026 235.346L145.13 234.888L138.11 248.608L139.006 249.066L139.902 249.525L146.922 235.805L146.026 235.346ZM139.006 249.066V248.06H137.306V249.066V250.073H139.006V249.066ZM146.146 247.846V248.853C147.062 248.853 147.713 248.327 148.078 247.637C148.415 247.001 148.533 246.203 148.533 245.406H147.526H146.519C146.519 246.05 146.417 246.472 146.299 246.696C146.245 246.798 146.204 246.827 146.198 246.831C146.194 246.834 146.193 246.834 146.19 246.835C146.186 246.836 146.173 246.84 146.146 246.84V247.846ZM147.526 245.406H148.533C148.533 244.603 148.408 243.8 148.073 243.16C147.718 242.48 147.075 241.92 146.146 241.92V242.926V243.933C146.174 243.933 146.174 243.937 146.175 243.938C146.185 243.945 146.23 243.981 146.289 244.093C146.414 244.332 146.519 244.77 146.519 245.406H147.526ZM146.146 242.926V241.92C145.22 241.92 144.571 242.462 144.21 243.154C143.877 243.796 143.759 244.601 143.759 245.406H144.766H145.773C145.773 244.752 145.875 244.317 145.997 244.083C146.052 243.976 146.095 243.945 146.101 243.94C146.105 243.938 146.106 243.937 146.107 243.937C146.109 243.936 146.12 243.933 146.146 243.933V242.926ZM144.766 245.406H143.759C143.759 246.195 143.878 246.991 144.212 247.628C144.573 248.314 145.222 248.853 146.146 248.853V247.846V246.84C146.12 246.84 146.109 246.836 146.107 246.836C146.105 246.835 146.103 246.835 146.099 246.832C146.092 246.827 146.05 246.795 145.994 246.69C145.874 246.462 145.773 246.037 145.773 245.406H144.766ZM137.186 241.506V242.513C138.102 242.513 138.753 241.987 139.118 241.297C139.455 240.661 139.573 239.863 139.573 239.066H138.566H137.559C137.559 239.71 137.457 240.132 137.339 240.356C137.285 240.458 137.244 240.487 137.238 240.491C137.234 240.494 137.233 240.494 137.23 240.495C137.226 240.496 137.213 240.5 137.186 240.5V241.506ZM138.566 239.066H139.573C139.573 238.263 139.448 237.46 139.113 236.82C138.758 236.14 138.115 235.58 137.186 235.58V236.586V237.593C137.214 237.593 137.214 237.597 137.215 237.598C137.225 237.605 137.27 237.641 137.329 237.753C137.454 237.992 137.559 238.43 137.559 239.066H138.566ZM137.186 236.586V235.58C136.26 235.58 135.611 236.122 135.25 236.814C134.917 237.456 134.799 238.261 134.799 239.066H135.806H136.813C136.813 238.412 136.915 237.977 137.037 237.743C137.092 237.636 137.135 237.605 137.141 237.6C137.145 237.598 137.146 237.597 137.147 237.597C137.149 237.596 137.16 237.593 137.186 237.593V236.586ZM135.806 239.066H134.799C134.799 239.855 134.918 240.651 135.252 241.288C135.613 241.974 136.262 242.513 137.186 242.513V241.506V240.5C137.16 240.5 137.149 240.496 137.147 240.496C137.145 240.495 137.143 240.495 137.139 240.492C137.132 240.487 137.09 240.455 137.034 240.35C136.914 240.122 136.813 239.697 136.813 239.066H135.806Z" fill="#F6F7F8" mask="url(#path-13-outside-4_2122_19367)"/>
<mask id="mask0_2122_19367" style="mask-type:alpha" maskUnits="userSpaceOnUse" x="150" y="0" width="153" height="154">
<path d="M151.51 1.50977C189.662 1.50977 226.38 16.0476 254.192 42.1645C282.003 68.2814 298.818 104.014 301.214 142.091L151.51 151.51V1.50977Z" fill="#BA91E8" stroke="#F6F7F8" stroke-width="3.02013"/>
</mask>
<g mask="url(#mask0_2122_19367)">
<path d="M211.856 102.605C211.327 102.489 210.86 102.652 210.536 102.961C210.257 103.227 210.091 103.592 210.056 103.961C208.241 107.73 206.426 111.5 204.611 115.269L203.971 116.598L203.99 116.588C203.435 117.807 202.922 119.104 202.688 120.41C202.364 122.226 202.573 124.091 203.934 125.816C205.882 128.287 209.133 129.38 211.84 130.227C215.11 131.25 218.486 131.86 221.871 132.228C225.395 132.61 228.94 132.705 232.468 132.677C236.096 132.647 239.784 132.587 243.421 132.106C246.876 131.65 250.226 130.729 253.428 129.35C256.201 128.155 259.215 126.596 259.823 123.035C260.357 119.91 259.348 116.734 258.333 113.966C257.149 110.737 255.582 107.665 253.657 104.814C253.513 104.6 253.33 104.442 253.127 104.332C252.805 104.119 252.4 104.049 251.969 104.17H251.968C249.101 104.978 246.201 105.332 243.204 105.526C237.924 105.869 232.728 106.016 227.491 105.434C222.235 104.85 217.046 103.747 211.856 102.605Z" fill="#5F249F" stroke="#DEC8F5"/>
<path d="M264.838 34.8154C252.58 22.7862 233.859 18.4697 217.409 22.7627C200.459 27.1865 189.677 41.9518 186.939 58.2979H186.936L186.869 58.7197C185.737 65.849 186.129 73.2775 188.209 80.29C192.113 93.454 201.776 104.463 214.123 110.353C242.162 123.726 274.767 105.522 278.689 74.7598L278.777 74.0303C280.377 59.7561 275.086 44.8723 264.838 34.8154Z" fill="url(#paint0_linear_2122_19367)" stroke="#DEC8F5"/>
<path d="M213.633 30.5361C214.369 30.3536 215.109 30.3261 215.793 30.6514C216.323 30.9039 216.741 31.3692 216.854 31.9414L216.874 32.0576C216.945 32.6428 216.673 33.1847 216.276 33.6152C215.845 34.0826 215.286 34.4338 214.722 34.7344C213.996 35.1211 213.264 35.4995 212.55 35.9121C209.827 37.484 207.364 39.416 205.216 41.7168C203.16 43.9192 201.406 46.392 199.913 49.0059C198.282 51.8606 196.969 54.8867 195.864 57.9795C194.722 61.1745 193.799 64.4421 192.956 67.7256C192.933 67.8153 192.846 67.8582 192.755 67.8467C192.71 67.841 192.671 67.822 192.645 67.7949C192.619 67.769 192.603 67.7327 192.607 67.6826L192.677 66.8984L192.678 66.8887L192.675 66.8789L192.67 66.8438L192.628 65.666C192.618 65.2733 192.613 64.8801 192.613 64.4873C192.612 61.2524 192.926 58.0119 193.604 54.8486C194.28 51.6976 195.326 48.6221 196.772 45.7422C198.038 43.2225 199.626 40.8638 201.491 38.751C203.341 36.6558 205.473 34.8023 207.83 33.3018C209.005 32.5537 210.237 31.8948 211.515 31.3398C212.169 31.0554 212.895 30.7189 213.633 30.5361Z" fill="#EEDEFF" stroke="#F6F7F8" stroke-width="0.124285"/>
<path d="M192.943 72.9561C193.225 72.7534 193.598 72.7654 193.908 72.9258C194.276 73.1162 194.517 73.4566 194.699 73.8486C194.791 74.0456 194.866 74.2519 194.935 74.4561L195.133 75.0508C196.457 78.7827 197.724 82.6449 197.538 86.6338C197.533 86.7389 197.45 86.8168 197.35 86.8145L197.306 86.8076C196.461 86.5959 195.986 85.8174 195.658 85.0537C195.256 84.1189 194.908 83.1565 194.597 82.1816L194.594 82.1768L194.276 81.3828C193.969 80.5851 193.693 79.7757 193.453 78.9561C193.187 78.0459 192.963 77.1233 192.782 76.1934C192.69 75.7167 192.609 75.2373 192.539 74.7568C192.489 74.4132 192.461 74.0835 192.516 73.7461C192.565 73.4383 192.692 73.136 192.942 72.9551L192.943 72.9561Z" fill="#EEDEFF" stroke="#F6F7F8" stroke-width="0.124285"/>
<mask id="path-20-outside-5_2122_19367" maskUnits="userSpaceOnUse" x="207.352" y="101.125" width="50" height="15" fill="black">
<rect fill="white" x="207.352" y="101.125" width="50" height="15"/>
<path d="M211.802 103.15C211.083 102.992 210.611 103.586 210.602 104.148L209.229 106.995C210.893 108.053 212.622 109.014 214.408 109.865C228.299 116.486 243.323 115.278 255.352 108.604C254.709 107.42 254.009 106.266 253.253 105.147C253.143 104.985 253.007 104.872 252.861 104.803C252.665 104.673 252.411 104.622 252.115 104.705C249.204 105.525 246.268 105.881 243.258 106.076C237.973 106.418 232.748 106.568 227.473 105.982C222.192 105.396 216.985 104.29 211.802 103.15Z"/>
</mask>
<path d="M211.802 103.15C211.083 102.992 210.611 103.586 210.602 104.148L209.229 106.995C210.893 108.053 212.622 109.014 214.408 109.865C228.299 116.486 243.323 115.278 255.352 108.604C254.709 107.42 254.009 106.266 253.253 105.147C253.143 104.985 253.007 104.872 252.861 104.803C252.665 104.673 252.411 104.622 252.115 104.705C249.204 105.525 246.268 105.881 243.258 106.076C237.973 106.418 232.748 106.568 227.473 105.982C222.192 105.396 216.985 104.29 211.802 103.15Z" fill="#8847CD"/>
<path d="M211.802 103.15L211.587 104.127L211.587 104.127L211.802 103.15ZM210.602 104.148L211.601 104.165L211.598 104.384L211.502 104.583L210.602 104.148ZM209.229 106.995L208.693 107.839L207.943 107.362L208.329 106.561L209.229 106.995ZM214.408 109.865L213.978 110.768L213.978 110.768L214.408 109.865ZM255.352 108.604L256.23 108.126L256.703 108.997L255.837 109.478L255.352 108.604ZM253.253 105.147L252.424 105.707L252.424 105.707L253.253 105.147ZM252.861 104.803L252.431 105.706L252.368 105.676L252.31 105.637L252.861 104.803ZM252.115 104.705L251.844 103.742L251.845 103.742L252.115 104.705ZM243.258 106.076L243.322 107.074L243.322 107.074L243.258 106.076ZM227.473 105.982L227.583 104.989L227.583 104.989L227.473 105.982ZM211.802 103.15L211.587 104.127C211.573 104.124 211.568 104.125 211.571 104.124C211.574 104.124 211.581 104.124 211.591 104.121C211.6 104.118 211.608 104.115 211.615 104.111C211.621 104.107 211.624 104.104 211.625 104.104C211.625 104.103 211.624 104.105 211.621 104.109C211.618 104.114 211.614 104.12 211.611 104.128C211.607 104.135 211.605 104.143 211.603 104.15C211.602 104.158 211.601 104.163 211.601 104.165L210.602 104.148L209.602 104.132C209.61 103.594 209.835 103.047 210.246 102.655C210.684 102.238 211.317 102.02 212.016 102.174L211.802 103.15ZM210.602 104.148L211.502 104.583L210.13 107.429L209.229 106.995L208.329 106.561L209.701 103.714L210.602 104.148ZM209.229 106.995L209.766 106.151C211.396 107.188 213.09 108.129 214.838 108.963L214.408 109.865L213.978 110.768C212.154 109.899 210.389 108.919 208.693 107.839L209.229 106.995ZM214.408 109.865L214.838 108.963C228.419 115.436 243.103 114.257 254.866 107.729L255.352 108.604L255.837 109.478C243.543 116.3 228.178 117.536 213.978 110.768L214.408 109.865ZM255.352 108.604L254.473 109.081C253.845 107.925 253.162 106.799 252.424 105.707L253.253 105.147L254.081 104.587C254.856 105.733 255.572 106.914 256.23 108.126L255.352 108.604ZM253.253 105.147L252.424 105.707C252.417 105.696 252.413 105.693 252.416 105.696C252.418 105.698 252.424 105.702 252.431 105.706L252.861 104.803L253.291 103.9C253.603 104.048 253.875 104.281 254.082 104.588L253.253 105.147ZM252.861 104.803L252.31 105.637C252.329 105.65 252.354 105.66 252.378 105.663C252.403 105.667 252.408 105.661 252.386 105.668L252.115 104.705L251.845 103.742C252.41 103.583 252.965 103.673 253.412 103.968L252.861 104.803ZM252.115 104.705L252.386 105.668C249.38 106.514 246.367 106.877 243.322 107.074L243.258 106.076L243.193 105.078C246.17 104.885 249.028 104.535 251.844 103.742L252.115 104.705ZM243.258 106.076L243.322 107.074C238.019 107.418 232.725 107.572 227.362 106.976L227.473 105.982L227.583 104.989C232.771 105.564 237.928 105.419 243.193 105.078L243.258 106.076ZM227.473 105.982L227.362 106.976C222.023 106.384 216.768 105.266 211.587 104.127L211.802 103.15L212.016 102.174C217.202 103.313 222.362 104.409 227.583 104.989L227.473 105.982Z" fill="#DEC8F5" mask="url(#path-20-outside-5_2122_19367)"/>
</g>
<mask id="mask1_2122_19367" style="mask-type:alpha" maskUnits="userSpaceOnUse" x="149" y="140" width="155" height="157">
<path d="M301.214 142.091C303.304 175.315 294.283 208.29 275.572 235.822C256.861 263.355 229.522 283.881 197.862 294.168L151.51 151.51L301.214 142.091Z" fill="#BA91E8" stroke="#F6F7F8" stroke-width="3.02013"/>
</mask>
<g mask="url(#mask1_2122_19367)">
<path d="M266.457 181.578C266.711 179.999 274.885 172.976 274.885 172.976L276.995 173.047L278.974 182.968L266.636 191.426C268.023 188.264 266.204 183.157 266.457 181.578Z" fill="#8847CD" stroke="#EFE0FF"/>
<path d="M216.609 194.495C216.609 194.495 214.484 182.156 215.995 179.602C217.506 177.048 224.115 171.305 224.115 171.305L228.128 171.452L225.117 194.34L216.609 194.495Z" fill="#8847CD"/>
<path d="M224.297 171.374L224.115 171.305M224.115 171.305C224.115 171.305 217.506 177.048 215.995 179.602C214.484 182.156 216.609 194.495 216.609 194.495L225.117 194.34L228.128 171.452L224.115 171.305Z" stroke="#EFE0FF"/>
<path d="M286.012 245.168C287.181 244.89 293.154 238.089 293.154 238.089L206.841 193.571L198.096 202.239C191.059 213.796 205.996 225.076 216.581 223.22C216.581 223.22 215.916 240.623 217.946 243.545C219.976 246.468 284.843 245.446 286.012 245.168Z" fill="#8847CD" stroke="#EFE0FF"/>
<path d="M291.174 173.635C291.181 173.679 291.189 173.739 291.198 173.813C291.216 173.963 291.237 174.164 291.26 174.417C291.306 174.923 291.361 175.621 291.423 176.486C291.546 178.216 291.695 180.608 291.856 183.451C292.177 189.139 292.543 196.629 292.831 204.24C293.119 211.853 293.328 219.584 293.339 225.754C293.345 228.84 293.3 231.53 293.191 233.617C293.137 234.661 293.066 235.549 292.979 236.257C292.891 236.975 292.789 237.475 292.683 237.763C292.628 237.911 292.42 238.14 291.867 238.388C291.336 238.626 290.585 238.838 289.625 239.019C287.711 239.38 285.062 239.6 281.91 239.704C275.61 239.911 267.376 239.649 259.154 239.154C250.934 238.658 242.738 237.929 236.52 237.203C233.41 236.839 230.801 236.478 228.933 236.147C227.997 235.981 227.258 235.826 226.738 235.684C226.477 235.612 226.285 235.548 226.155 235.493C226.109 235.473 226.077 235.455 226.055 235.443C226.02 235.376 225.971 235.262 225.923 235.083C225.865 234.87 225.811 234.598 225.762 234.27C225.664 233.615 225.592 232.77 225.54 231.798C225.437 229.855 225.419 227.439 225.441 225.075C225.464 222.714 225.526 220.412 225.583 218.7C225.612 217.844 225.64 217.136 225.66 216.642C225.67 216.395 225.678 216.201 225.683 216.07C225.686 216.004 225.689 215.954 225.69 215.92C225.691 215.903 225.691 215.891 225.691 215.882C225.691 215.878 225.693 215.874 225.693 215.872L225.693 215.87L225.694 215.834L225.69 215.799L225.677 215.717C225.675 215.707 225.673 215.699 225.672 215.693L225.673 215.694C225.659 215.56 225.633 215.433 225.595 215.312L225.59 215.294L225.585 215.283C225.585 215.28 225.583 215.277 225.58 215.266C225.575 215.251 225.564 215.21 225.546 215.167L225.542 215.159L225.54 215.152L225.486 215.042C225.427 214.93 225.35 214.813 225.248 214.704L225.235 214.69C225.088 214.543 224.925 214.451 224.786 214.386L224.775 214.382C224.733 214.363 224.695 214.351 224.678 214.345C224.666 214.341 224.662 214.341 224.657 214.339L224.656 214.338L224.635 214.331C224.577 214.312 224.516 214.294 224.451 214.279L224.252 214.245L224.06 214.233C223.931 214.232 223.793 214.24 223.643 214.265L223.632 214.268C223.632 214.268 223.63 214.268 223.625 214.269C223.617 214.27 223.611 214.271 223.597 214.273L223.495 214.29C223.321 214.326 223.146 214.383 222.971 214.454L222.969 214.455C222.96 214.458 222.926 214.467 222.885 214.485L222.884 214.484C221.334 215.16 219.643 215.474 217.849 215.417C214.308 215.303 210.922 213.798 208.315 211.167C205.734 208.564 204.275 205.214 204.194 201.736C204.127 198.84 205.031 196.264 206.706 194.375L207.536 193.553C208.157 193.011 208.837 192.546 209.579 192.182C209.605 192.174 209.643 192.162 209.687 192.14C209.714 192.126 209.738 192.113 209.754 192.104C209.761 192.1 209.765 192.096 209.768 192.094C211.321 191.368 213.115 191.009 215.048 191.071L215.049 191.07C216.942 191.13 218.814 191.606 220.616 192.488L220.616 192.487C221.061 192.705 221.58 192.704 222.07 192.576C222.565 192.447 223.071 192.18 223.53 191.806C224.429 191.073 225.077 189.98 225.053 188.994L225.053 188.972L225.05 188.952L225.051 188.951L225.05 188.949C225.05 188.947 225.05 188.944 225.049 188.941C225.049 188.934 225.048 188.922 225.046 188.907C225.043 188.878 225.038 188.834 225.031 188.776C225.019 188.661 225.002 188.491 224.98 188.275C224.936 187.842 224.874 187.221 224.803 186.469C224.663 184.966 224.49 182.941 224.358 180.855C224.226 178.768 224.135 176.627 224.158 174.89C224.17 174.02 224.209 173.262 224.284 172.667C224.363 172.044 224.472 171.686 224.566 171.542C224.587 171.512 224.644 171.45 224.784 171.375C224.921 171.301 225.11 171.229 225.355 171.162C225.845 171.029 226.504 170.936 227.289 170.88C228.857 170.768 230.854 170.811 232.862 170.947C234.867 171.083 236.865 171.309 238.43 171.559C239.213 171.684 239.881 171.813 240.384 171.938C240.635 172.001 240.838 172.061 240.99 172.116C241.065 172.143 241.123 172.166 241.165 172.187C241.199 172.204 241.215 172.214 241.219 172.217C241.359 172.329 241.427 172.477 241.423 172.733C241.42 173.014 241.328 173.368 241.18 173.803C241.047 174.191 240.837 174.724 240.695 175.166C240.545 175.633 240.419 176.143 240.43 176.635C240.533 181.029 242.321 185.195 245.461 188.362C248.627 191.557 252.825 193.398 257.279 193.541C258.021 193.565 258.749 193.526 259.463 193.459L259.463 193.458C259.487 193.456 259.509 193.454 259.521 193.452C263.529 193.063 267.283 191.301 270.265 188.346C273.771 184.868 275.649 180.317 275.535 175.537C275.523 175.021 275.355 174.49 275.265 174.107C275.18 173.749 275.144 173.463 275.196 173.198C275.293 173.166 275.44 173.128 275.642 173.091C276.087 173.009 276.723 172.937 277.497 172.879C279.042 172.763 281.087 172.707 283.14 172.729C285.196 172.751 287.244 172.852 288.798 173.045C289.578 173.141 290.213 173.26 290.657 173.395C290.88 173.464 291.032 173.529 291.124 173.585C291.146 173.598 291.16 173.61 291.171 173.619C291.172 173.624 291.173 173.629 291.174 173.635Z" fill="#BA91E8" stroke="#EFE0FF"/>
</g>
<path d="M151.51 1.50977C189.662 1.50977 226.38 16.0476 254.192 42.1645C282.003 68.2814 298.818 104.014 301.214 142.091L151.51 151.51L151.51 1.50977Z" stroke="#F6F7F8" stroke-width="3.02013"/>
<path d="M301.214 142.091C303.304 175.315 294.283 208.29 275.572 235.822C256.861 263.355 229.522 283.881 197.862 294.168L151.51 151.51L301.214 142.091Z" stroke="#F6F7F8" stroke-width="3.02013"/>
<path d="M197.862 294.168C172.314 302.469 145.005 303.757 118.788 297.897C92.5718 292.037 68.4102 279.244 48.8276 260.855L151.51 151.51L197.862 294.168Z" stroke="#F6F7F8" stroke-width="3.02013"/>
<path d="M48.8277 260.855C30.4097 243.559 16.6589 221.892 8.85128 197.862C1.0437 173.833 -0.567676 148.221 4.16669 123.403L151.51 151.51L48.8277 260.855Z" stroke="#F6F7F8" stroke-width="3.02013"/>
<path d="M4.18142 123.325C8.33018 101.639 17.2156 81.135 30.2033 63.2786C43.191 45.4221 59.9607 30.6532 79.3153 20.0261L151.51 151.51L4.18142 123.325Z" stroke="#F6F7F8" stroke-width="3.02013"/>
<path d="M151.51 1.50977C126.244 1.50977 101.387 7.89184 79.2467 20.0638L151.51 151.51L151.51 1.50977Z" stroke="#F6F7F8" stroke-width="3.02013"/>
<defs>
<linearGradient id="paint0_linear_2122_19367" x1="232.653" y1="21.6426" x2="232.653" y2="114.3" gradientUnits="userSpaceOnUse">
<stop stop-color="#E9D5FF"/>
<stop offset="1" stop-color="#BC90EE"/>
</linearGradient>
</defs>
</svg>
