<svg width="900" height="868" viewBox="0 0 900 868" fill="none" xmlns="http://www.w3.org/2000/svg">
<path d="M0 10.4961C0 4.97327 4.47715 0.496094 10 0.496094H450V867.049H10C4.47715 867.049 0 862.572 0 857.049V10.4961Z" fill="#F7F7F7"/>
<path d="M900 442.25C900 436.727 895.523 432.25 890 432.25H450V867.047H890C895.523 867.047 900 862.57 900 857.047V442.25Z" fill="#F7F7F7"/>
<rect x="106.42" y="127.477" width="77.9138" height="75.0943" rx="37.5472" fill="#F9EBC3"/>
<path d="M132.41 164.189L137.882 161.135L133.598 153.453L126.776 157.258L126.091 157.642C125.78 157.814 125.667 158.211 125.843 158.522L129.498 165.073C129.674 165.384 130.068 165.496 130.379 165.324L131.45 164.725L131.513 164.692L132.417 164.189H132.41Z" stroke="#E7D1A7" stroke-width="1.875" stroke-linejoin="round"/>
<path d="M166.119 146.982C166.794 146.605 166.076 144.034 164.518 141.242C162.959 138.446 161.15 136.488 160.475 136.865L166.122 146.982H166.119Z" stroke="#E7D1A7" stroke-width="1.875" stroke-linejoin="round"/>
<path d="M126.041 158.896L118.335 163.194C118.018 163.373 118.084 163.849 118.438 163.932L126.567 165.861C126.861 165.93 127.172 165.887 127.437 165.742L129.286 164.71L126.044 158.896H126.041Z" stroke="#E7D1A7" stroke-width="1.875" stroke-linejoin="round"/>
<path d="M166.125 146.996L160.468 136.855C160.292 136.544 159.899 136.432 159.588 136.604L158.81 137.037L150.628 141.597L148.706 142.669C148.395 142.844 148.282 143.238 148.458 143.549L154.115 153.689C154.291 154 154.684 154.113 154.995 153.941L156.147 153.299L163.955 148.945L165.877 147.876C166.188 147.701 166.3 147.307 166.125 146.996Z" stroke="#E7D1A7" stroke-width="1.875" stroke-linejoin="round"/>
<path d="M164.525 193.367L152.531 167.971C152.511 167.931 152.475 167.908 152.432 167.908H142.1C142.057 167.908 142.02 167.931 142 167.971L130.007 193.367C129.987 193.413 129.997 193.45 130.014 193.473C130.027 193.493 130.053 193.523 130.106 193.523H134.047C134.09 193.523 134.126 193.499 134.146 193.46L144.452 171.64C144.617 171.289 145.14 171.409 145.14 171.796V193.413C145.14 193.473 145.19 193.523 145.249 193.523H149.289C149.349 193.523 149.398 193.473 149.398 193.413V171.792C149.398 171.405 149.921 171.289 150.086 171.637L160.392 193.46C160.409 193.496 160.448 193.523 160.491 193.523H164.432C164.485 193.523 164.511 193.49 164.525 193.473C164.538 193.45 164.551 193.413 164.531 193.367H164.525Z" fill="#E7D1A7"/>
<path d="M153.834 153.193L148.736 144.055L140.961 148.392L133.755 152.412C133.444 152.584 133.331 152.981 133.507 153.292L137.976 161.302C138.152 161.613 138.545 161.725 138.856 161.553L141.92 159.843L153.837 153.196L153.834 153.193Z" stroke="#E7D1A7" stroke-width="1.875" stroke-linejoin="round"/>
<path d="M147.262 160.518C147.44 160.518 147.612 160.534 147.784 160.557L146.087 157.514L143.338 159.049L144.704 161.497C145.386 160.892 146.279 160.521 147.262 160.521V160.518Z" fill="#E7D1A7" stroke="#E7D1A7" stroke-width="1.875" stroke-linejoin="round"/>
<path d="M151.071 164.956C151.101 164.764 151.121 164.572 151.121 164.374C151.121 162.243 149.394 160.52 147.266 160.52C145.139 160.52 143.412 162.247 143.412 164.374C143.412 164.572 143.432 164.768 143.462 164.956H151.075H151.071Z" stroke="#E7D1A7" stroke-width="1.875" stroke-linejoin="round"/>
<path d="M151.719 164.957H142.81C142.548 164.957 142.34 165.169 142.34 165.427V167.435C142.34 167.696 142.552 167.905 142.81 167.905H151.719C151.981 167.905 152.189 167.693 152.189 167.435V165.427C152.189 165.165 151.977 164.957 151.719 164.957Z" stroke="#E7D1A7" stroke-width="1.875" stroke-linejoin="round"/>
<rect x="343.582" y="45.4219" width="77.9138" height="75.0943" rx="37.5472" fill="#DEF3FA"/>
<path d="M369.576 82.1345L375.048 79.0808L370.764 71.3984L363.942 75.2032L363.257 75.587C362.946 75.759 362.833 76.1561 363.009 76.4671L366.665 83.0179C366.84 83.3289 367.234 83.4414 367.545 83.2693L368.617 82.6705L368.679 82.6374L369.583 82.1345H369.576Z" stroke="#AECED8" stroke-width="1.875" stroke-linejoin="round"/>
<path d="M403.281 64.9276C403.956 64.5504 403.238 61.9797 401.68 59.1873C400.121 56.3916 398.312 54.433 397.637 54.8102L403.284 64.9276H403.281Z" stroke="#AECED8" stroke-width="1.875" stroke-linejoin="round"/>
<path d="M363.203 76.8418L355.497 81.1395C355.18 81.3182 355.246 81.7946 355.6 81.8773L363.729 83.8062C364.023 83.8757 364.334 83.8327 364.599 83.6871L366.449 82.6548L363.206 76.8418H363.203Z" stroke="#AECED8" stroke-width="1.875" stroke-linejoin="round"/>
<path d="M403.287 64.9413L397.63 54.8008C397.454 54.4898 397.061 54.3773 396.75 54.5493L395.972 54.9827L387.79 59.5419L385.868 60.6138C385.557 60.7892 385.445 61.1829 385.62 61.4939L391.277 71.6344C391.453 71.9454 391.847 72.0579 392.158 71.8859L393.309 71.244L401.117 66.89L403.039 65.8214C403.35 65.646 403.463 65.2523 403.287 64.9413Z" stroke="#AECED8" stroke-width="1.875" stroke-linejoin="round"/>
<path d="M401.687 111.312L389.693 85.9164C389.674 85.8767 389.637 85.8535 389.594 85.8535H379.262C379.219 85.8535 379.182 85.8767 379.162 85.9164L367.169 111.312C367.149 111.359 367.159 111.395 367.176 111.418C367.189 111.438 367.216 111.468 367.268 111.468H371.209C371.252 111.468 371.288 111.445 371.308 111.405L381.614 89.5855C381.779 89.2348 382.302 89.3539 382.302 89.741V111.359C382.302 111.418 382.352 111.468 382.411 111.468H386.451C386.511 111.468 386.56 111.418 386.56 111.359V89.7377C386.56 89.3506 387.083 89.2348 387.248 89.5822L397.554 111.405C397.571 111.441 397.611 111.468 397.654 111.468H401.594C401.647 111.468 401.673 111.435 401.687 111.418C401.7 111.395 401.713 111.359 401.693 111.312H401.687Z" fill="#AECED8"/>
<path d="M390.996 71.1381L385.898 62L378.123 66.3374L370.917 70.3573C370.606 70.5293 370.493 70.9263 370.669 71.2373L375.139 79.2472C375.314 79.5582 375.708 79.6707 376.019 79.4987L379.082 77.7882L390.999 71.1414L390.996 71.1381Z" stroke="#AECED8" stroke-width="1.875" stroke-linejoin="round"/>
<path d="M384.424 78.4631C384.603 78.4631 384.775 78.4797 384.947 78.5028L383.249 75.459L380.5 76.9941L381.866 79.4424C382.548 78.837 383.441 78.4664 384.424 78.4664V78.4631Z" fill="#AECED8" stroke="#AECED8" stroke-width="1.875" stroke-linejoin="round"/>
<path d="M388.233 82.9015C388.263 82.7097 388.283 82.5178 388.283 82.3193C388.283 80.1886 386.556 78.4648 384.429 78.4648C382.301 78.4648 380.574 80.1919 380.574 82.3193C380.574 82.5178 380.594 82.713 380.624 82.9015H388.237H388.233Z" stroke="#AECED8" stroke-width="1.875" stroke-linejoin="round"/>
<path d="M388.882 82.9023H379.972C379.71 82.9023 379.502 83.1141 379.502 83.3722V85.3804C379.502 85.6418 379.714 85.8502 379.972 85.8502H388.882C389.143 85.8502 389.351 85.6385 389.351 85.3804V83.3722C389.351 83.1108 389.14 82.9023 388.882 82.9023Z" stroke="#AECED8" stroke-width="1.875" stroke-linejoin="round"/>
<rect x="98.8203" y="307.699" width="77.9138" height="75.0943" rx="37.5472" fill="#E3F7ED"/>
<path d="M124.814 344.412L130.286 341.358L126.002 333.676L119.18 337.481L118.495 337.864C118.184 338.036 118.072 338.433 118.247 338.744L121.903 345.295C122.078 345.606 122.472 345.719 122.783 345.547L123.855 344.948L123.918 344.915L124.821 344.412H124.814Z" stroke="#C5DCD0" stroke-width="1.875" stroke-linejoin="round"/>
<path d="M158.519 327.205C159.194 326.828 158.476 324.257 156.918 321.465C155.36 318.669 153.55 316.71 152.875 317.088L158.523 327.205H158.519Z" stroke="#C5DCD0" stroke-width="1.875" stroke-linejoin="round"/>
<path d="M118.441 339.119L110.736 343.417C110.418 343.596 110.484 344.072 110.838 344.155L118.967 346.084C119.262 346.153 119.573 346.11 119.837 345.964L121.687 344.932L118.445 339.119H118.441Z" stroke="#C5DCD0" stroke-width="1.875" stroke-linejoin="round"/>
<path d="M158.526 327.219L152.868 317.078C152.693 316.767 152.299 316.655 151.988 316.827L151.21 317.26L143.029 321.819L141.106 322.891C140.795 323.067 140.683 323.46 140.858 323.771L146.516 333.912C146.691 334.223 147.085 334.335 147.396 334.163L148.547 333.521L156.355 329.167L158.277 328.099C158.588 327.923 158.701 327.53 158.526 327.219Z" stroke="#C5DCD0" stroke-width="1.875" stroke-linejoin="round"/>
<path d="M156.925 373.59L144.932 348.194C144.912 348.154 144.875 348.131 144.832 348.131H134.5C134.457 348.131 134.421 348.154 134.401 348.194L122.407 373.59C122.388 373.636 122.398 373.673 122.414 373.696C122.427 373.716 122.454 373.745 122.507 373.745H126.447C126.49 373.745 126.527 373.722 126.546 373.682L136.852 351.863C137.018 351.512 137.541 351.631 137.541 352.018V373.636C137.541 373.696 137.59 373.745 137.65 373.745H141.689C141.749 373.745 141.799 373.696 141.799 373.636V352.015C141.799 351.628 142.321 351.512 142.487 351.86L152.793 373.682C152.809 373.719 152.849 373.745 152.892 373.745H156.832C156.885 373.745 156.912 373.712 156.925 373.696C156.938 373.673 156.951 373.636 156.932 373.59H156.925Z" fill="#C5DCD0"/>
<path d="M146.234 333.415L141.136 324.277L133.361 328.615L126.155 332.635C125.844 332.807 125.732 333.204 125.907 333.515L130.377 341.525C130.552 341.836 130.946 341.948 131.257 341.776L134.321 340.066L146.238 333.419L146.234 333.415Z" stroke="#C5DCD0" stroke-width="1.875" stroke-linejoin="round"/>
<path d="M139.662 340.74C139.841 340.74 140.013 340.757 140.185 340.78L138.488 337.736L135.738 339.271L137.105 341.72C137.786 341.114 138.68 340.744 139.662 340.744V340.74Z" fill="#C5DCD0" stroke="#C5DCD0" stroke-width="1.875" stroke-linejoin="round"/>
<path d="M143.472 345.179C143.501 344.987 143.521 344.795 143.521 344.597C143.521 342.466 141.794 340.742 139.667 340.742C137.54 340.742 135.812 342.469 135.812 344.597C135.812 344.795 135.832 344.99 135.862 345.179H143.475H143.472Z" stroke="#C5DCD0" stroke-width="1.875" stroke-linejoin="round"/>
<path d="M144.12 345.18H135.21C134.949 345.18 134.74 345.391 134.74 345.649V347.658C134.74 347.919 134.952 348.128 135.21 348.128H144.12C144.381 348.128 144.59 347.916 144.59 347.658V345.649C144.59 345.388 144.378 345.18 144.12 345.18Z" stroke="#C5DCD0" stroke-width="1.875" stroke-linejoin="round"/>
<rect x="115.543" y="458.625" width="77.9138" height="75.0943" rx="37.5472" fill="#F9EBC3"/>
<path d="M154.532 513.634C150.549 513.634 146.827 512.541 143.637 510.641C141.572 514.13 141.457 518.174 141.457 519.348C141.457 521.542 147.313 523.317 154.535 523.317C161.758 523.317 167.613 521.538 167.613 519.348C167.613 518.17 167.499 514.13 165.433 510.641C162.244 512.541 158.518 513.634 154.539 513.634H154.532Z" fill="#E7D1A7" stroke="#E7D1A7" stroke-width="1.875" stroke-linejoin="round"/>
<path d="M154.533 513.634C166.315 513.634 175.866 504.082 175.866 492.3C175.866 480.518 166.315 470.967 154.533 470.967C142.75 470.967 133.199 480.518 133.199 492.3C133.199 504.082 142.75 513.634 154.533 513.634Z" stroke="#E7D1A7" stroke-width="1.875" stroke-linejoin="round"/>
<path d="M133.135 477.933C135.997 476.674 138.17 474.237 139.102 471.253L139.794 469.029L140.486 471.253C141.414 474.237 143.591 476.674 146.453 477.933C143.591 479.191 141.417 481.628 140.486 484.612L139.794 486.836L139.102 484.612C138.174 481.628 135.997 479.191 133.135 477.933Z" fill="#E7D1A7" stroke="#E7D1A7" stroke-width="1.875" stroke-linejoin="round"/>
<path d="M146.965 485.175C148.001 484.719 148.787 483.838 149.121 482.758L149.371 481.955L149.621 482.758C149.958 483.838 150.745 484.719 151.778 485.175C150.741 485.63 149.955 486.511 149.621 487.591L149.371 488.395L149.121 487.591C148.784 486.511 147.998 485.63 146.965 485.175Z" fill="#E7D1A7" stroke="#E7D1A7" stroke-width="1.875" stroke-linejoin="round"/>
<rect x="261.486" y="147.992" width="77.9138" height="75.0943" rx="37.5472" fill="#E3F7ED"/>
<path d="M300.475 203.001C296.493 203.001 292.77 201.908 289.581 200.008C287.515 203.498 287.4 207.541 287.4 208.715C287.4 210.909 293.256 212.684 300.479 212.684C307.701 212.684 313.557 210.906 313.557 208.715C313.557 207.537 313.442 203.498 311.376 200.008C308.187 201.908 304.461 203.001 300.482 203.001H300.475Z" fill="#C5DCD0" stroke="#C5DCD0" stroke-width="1.875" stroke-linejoin="round"/>
<path d="M300.476 203.001C312.258 203.001 321.809 193.449 321.809 181.667C321.809 169.885 312.258 160.334 300.476 160.334C288.694 160.334 279.143 169.885 279.143 181.667C279.143 193.449 288.694 203.001 300.476 203.001Z" stroke="#C5DCD0" stroke-width="1.875" stroke-linejoin="round"/>
<path d="M279.078 167.3C281.94 166.041 284.114 163.604 285.045 160.621L285.737 158.396L286.429 160.621C287.357 163.604 289.534 166.041 292.396 167.3C289.534 168.559 287.36 170.995 286.429 173.979L285.737 176.203L285.045 173.979C284.117 170.995 281.94 168.559 279.078 167.3Z" fill="#C5DCD0" stroke="#C5DCD0" stroke-width="1.875" stroke-linejoin="round"/>
<path d="M292.908 174.542C293.944 174.086 294.731 173.206 295.065 172.126L295.315 171.322L295.564 172.126C295.902 173.206 296.688 174.086 297.721 174.542C296.685 174.998 295.898 175.879 295.564 176.959L295.315 177.762L295.065 176.959C294.727 175.879 293.941 174.998 292.908 174.542Z" fill="#C5DCD0" stroke="#C5DCD0" stroke-width="1.875" stroke-linejoin="round"/>
<rect x="21.2832" y="319.422" width="77.9138" height="75.0943" rx="37.5472" fill="#DEF3FA"/>
<path d="M60.272 374.431C56.2895 374.431 52.5669 373.338 49.3775 371.438C47.312 374.927 47.1973 378.971 47.1973 380.145C47.1973 382.339 53.0529 384.114 60.2754 384.114C67.4979 384.114 73.3535 382.335 73.3535 380.145C73.3535 378.967 73.2388 374.927 71.1733 371.438C67.9839 373.338 64.2579 374.431 60.2788 374.431H60.272Z" fill="#AECED8" stroke="#AECED8" stroke-width="1.875" stroke-linejoin="round"/>
<path d="M60.2728 374.43C72.0549 374.43 81.6062 364.879 81.6062 353.097C81.6062 341.315 72.0549 331.764 60.2728 331.764C48.4907 331.764 38.9395 341.315 38.9395 353.097C38.9395 364.879 48.4907 374.43 60.2728 374.43Z" stroke="#AECED8" stroke-width="1.875" stroke-linejoin="round"/>
<path d="M38.875 338.729C41.737 337.471 43.9105 335.034 44.842 332.05L45.5339 329.826L46.2257 332.05C47.1539 335.034 49.3307 337.471 52.1927 338.729C49.3307 339.988 47.1572 342.425 46.2257 345.409L45.5339 347.633L44.842 345.409C43.9139 342.425 41.737 339.988 38.875 338.729Z" fill="#AECED8" stroke="#AECED8" stroke-width="1.875" stroke-linejoin="round"/>
<path d="M52.7051 345.972C53.7412 345.516 54.5276 344.635 54.8617 343.555L55.1115 342.752L55.3612 343.555C55.6987 344.635 56.4851 345.516 57.5178 345.972C56.4817 346.427 55.6953 347.308 55.3612 348.388L55.1115 349.191L54.8617 348.388C54.5242 347.308 53.7378 346.427 52.7051 345.972Z" fill="#AECED8" stroke="#AECED8" stroke-width="1.875" stroke-linejoin="round"/>
<rect x="170.271" width="77.9138" height="75.0943" rx="37.5472" fill="#F9EBC3"/>
<path d="M211.661 10.159C211.641 8.86971 211.62 8.12383 211.597 8.08671C211.381 7.73571 206.841 7.79646 206.669 8.08671C206.649 8.12046 206.632 8.86633 206.615 10.1623C207.051 10.1522 211.222 10.1522 211.661 10.159Z" stroke="#E7D1A7" stroke-width="1.875" stroke-linejoin="round"/>
<path d="M218.469 62.6015H211.655C211.668 61.8826 211.679 60.9477 211.689 59.834C211.226 59.8374 207.045 59.8407 206.582 59.834C206.592 60.9444 206.603 61.8792 206.613 62.6015H199.684C198.526 62.6015 197.588 63.2056 197.588 63.9515V65.8989C197.588 66.6447 198.526 67.2489 199.684 67.2489H218.469C219.627 67.2489 220.565 66.6447 220.565 65.8989V63.9515C220.565 63.2056 219.627 62.6015 218.469 62.6015Z" stroke="#E7D1A7" stroke-width="1.875" stroke-linejoin="round"/>
<path d="M198.395 55.3323C198.068 55.1838 197.868 54.8463 197.902 54.4919C198.486 48.2279 199.745 45.2005 200.511 41.5994C200.609 41.137 201.071 40.8501 201.534 40.9615C203.559 41.4543 206.984 41.6298 209.094 41.7445C209.539 41.7648 209.894 42.1326 209.894 42.5781L209.819 55.6563C209.819 56.122 209.505 56.4966 208.972 56.4966C205.553 56.4966 201.058 56.095 198.395 55.3323Z" fill="#E7D1A7" stroke="#E7D1A7" stroke-width="1.875" stroke-linejoin="round"/>
<path d="M221.534 41.5267C221.001 39.6198 220.286 35.995 221.963 31.9889C223.455 28.4283 223.718 24.358 223.718 24.358C224.71 23.4434 226.465 18.7117 225.78 17.338C225.095 15.9644 216.394 13.7538 215.324 13.2948C214.254 12.8358 214.865 10.9289 214.484 10.4699C214.13 10.0413 204.332 10.0413 203.974 10.4699C203.593 10.9289 204.204 12.8358 203.134 13.2948C202.064 13.7538 193.367 15.9644 192.678 17.338C191.993 18.7117 193.748 23.44 194.74 24.358C194.74 24.358 195.162 28.3642 196.495 31.9889C198.135 36.4507 197.457 39.6198 196.924 41.5267C196.391 43.4335 195.732 45.418 194.97 49.3094C194.207 53.2008 194.173 55.1279 194.436 56.9403C194.987 60.7608 223.512 60.8384 224.022 56.9403C224.13 56.1269 224.251 53.2008 223.488 49.3094C222.726 45.418 222.068 43.4335 221.534 41.5267Z" stroke="#E7D1A7" stroke-width="1.875" stroke-linejoin="round"/>
<path d="M212.434 35.9015C212.427 36.3065 212.768 36.6305 213.173 36.6035C215.887 36.6035 219.157 36.374 221.071 35.1387C221.077 35.0948 221.087 35.051 221.094 35.0037C221.111 34.8957 221.135 34.7843 221.155 34.6763C221.182 34.5413 221.206 34.4063 221.236 34.268C221.26 34.16 221.29 34.052 221.317 33.9406C221.351 33.7988 221.384 33.6605 221.425 33.5153C221.455 33.404 221.496 33.2926 221.53 33.1812C221.573 33.0395 221.617 32.8977 221.665 32.7526C221.708 32.6277 221.759 32.5028 221.81 32.378C221.86 32.2497 221.904 32.1215 221.958 31.9932C223.45 28.4326 223.713 24.3623 223.713 24.3623C222.363 21.9155 222.417 18.1827 223.123 15.8371C223.116 15.8371 223.109 15.8303 223.102 15.8303C221.8 15.3275 220.227 14.8212 218.826 14.3926C218.668 17.8925 216.295 21.5813 213.052 22.6175C212.677 22.7356 212.424 23.0798 212.424 23.4713C212.437 25.8406 212.485 31.9595 212.431 35.9015H212.434Z" fill="#E7D1A7" stroke="#E7D1A7" stroke-width="1.875" stroke-linejoin="round"/>
<rect x="136.824" y="666.689" width="77.9138" height="75.0943" rx="37.5472" fill="#E3F7ED"/>
<path d="M178.214 676.848C178.193 675.559 178.173 674.813 178.149 674.776C177.933 674.425 173.394 674.486 173.222 674.776C173.202 674.81 173.185 675.556 173.168 676.852C173.603 676.842 177.775 676.842 178.214 676.848Z" stroke="#C5DCD0" stroke-width="1.875" stroke-linejoin="round"/>
<path d="M185.022 729.291H178.208C178.221 728.572 178.231 727.637 178.241 726.523C177.779 726.527 173.597 726.53 173.135 726.523C173.145 727.634 173.155 728.569 173.165 729.291H166.236C165.079 729.291 164.141 729.895 164.141 730.641V732.588C164.141 733.334 165.079 733.938 166.236 733.938H185.022C186.179 733.938 187.118 733.334 187.118 732.588V730.641C187.118 729.895 186.179 729.291 185.022 729.291Z" stroke="#C5DCD0" stroke-width="1.875" stroke-linejoin="round"/>
<path d="M164.946 722.018C164.618 721.869 164.419 721.532 164.453 721.177C165.037 714.913 166.296 711.886 167.062 708.285C167.16 707.823 167.622 707.536 168.084 707.647C170.109 708.14 173.535 708.315 175.644 708.43C176.09 708.45 176.444 708.818 176.444 709.264L176.37 722.342C176.37 722.808 176.056 723.182 175.523 723.182C172.104 723.182 167.609 722.781 164.946 722.018Z" fill="#C5DCD0" stroke="#C5DCD0" stroke-width="1.875" stroke-linejoin="round"/>
<path d="M188.087 708.214C187.554 706.307 186.838 702.683 188.516 698.676C190.007 695.116 190.271 691.046 190.271 691.046C191.263 690.131 193.018 685.399 192.333 684.026C191.648 682.652 182.947 680.441 181.877 679.982C180.807 679.523 181.418 677.616 181.037 677.157C180.682 676.729 170.885 676.729 170.527 677.157C170.146 677.616 170.756 679.523 169.687 679.982C168.617 680.441 159.919 682.652 159.231 684.026C158.546 685.399 160.301 690.128 161.293 691.046C161.293 691.046 161.715 695.052 163.048 698.676C164.688 703.138 164.01 706.307 163.477 708.214C162.943 710.121 162.285 712.106 161.522 715.997C160.76 719.888 160.726 721.815 160.989 723.628C161.539 727.448 190.065 727.526 190.574 723.628C190.682 722.814 190.804 719.888 190.041 715.997C189.278 712.106 188.62 710.121 188.087 708.214Z" stroke="#C5DCD0" stroke-width="1.875" stroke-linejoin="round"/>
<path d="M178.987 702.589C178.98 702.994 179.321 703.318 179.726 703.291C182.439 703.291 185.71 703.061 187.623 701.826C187.63 701.782 187.64 701.738 187.647 701.691C187.664 701.583 187.687 701.472 187.708 701.364C187.735 701.229 187.758 701.094 187.789 700.955C187.812 700.847 187.843 700.739 187.87 700.628C187.903 700.486 187.937 700.348 187.978 700.203C188.008 700.091 188.049 699.98 188.082 699.869C188.126 699.727 188.17 699.585 188.217 699.44C188.261 699.315 188.312 699.19 188.362 699.065C188.413 698.937 188.457 698.809 188.511 698.681C190.003 695.12 190.266 691.05 190.266 691.05C188.916 688.603 188.97 684.87 189.675 682.525C189.669 682.525 189.662 682.518 189.655 682.518C188.352 682.015 186.78 681.509 185.379 681.08C185.22 684.58 182.848 688.269 179.604 689.305C179.23 689.423 178.977 689.767 178.977 690.159C178.99 692.528 179.037 698.647 178.983 702.589H178.987Z" fill="#C5DCD0" stroke="#C5DCD0" stroke-width="1.875" stroke-linejoin="round"/>
<rect x="68.4121" y="660.822" width="77.9138" height="75.0943" rx="37.5472" fill="#DEF3FA"/>
<path d="M109.801 670.981C109.781 669.692 109.761 668.946 109.737 668.909C109.521 668.558 104.982 668.619 104.81 668.909C104.79 668.943 104.773 669.689 104.756 670.985C105.191 670.974 109.363 670.974 109.801 670.981Z" stroke="#AECED8" stroke-width="1.875" stroke-linejoin="round"/>
<path d="M116.61 723.424H109.796C109.809 722.705 109.819 721.77 109.829 720.656C109.367 720.66 105.185 720.663 104.723 720.656C104.733 721.767 104.743 722.702 104.753 723.424H97.8244C96.6668 723.424 95.7285 724.028 95.7285 724.774V726.721C95.7285 727.467 96.6668 728.071 97.8244 728.071H116.61C117.767 728.071 118.706 727.467 118.706 726.721V724.774C118.706 724.028 117.767 723.424 116.61 723.424Z" stroke="#AECED8" stroke-width="1.875" stroke-linejoin="round"/>
<path d="M96.5355 716.155C96.2082 716.006 96.009 715.669 96.0428 715.314C96.6266 709.05 97.8855 706.023 98.6516 702.422C98.7495 701.959 99.2119 701.672 99.6743 701.784C101.699 702.277 105.125 702.452 107.234 702.567C107.68 702.587 108.034 702.955 108.034 703.4L107.96 716.479C107.96 716.944 107.646 717.319 107.113 717.319C103.694 717.319 99.1984 716.917 96.5355 716.155Z" fill="#AECED8" stroke="#AECED8" stroke-width="1.875" stroke-linejoin="round"/>
<path d="M119.675 702.349C119.142 700.442 118.426 696.817 120.104 692.811C121.595 689.251 121.859 685.18 121.859 685.18C122.851 684.266 124.606 679.534 123.921 678.16C123.236 676.787 114.535 674.576 113.465 674.117C112.395 673.658 113.006 671.751 112.625 671.292C112.27 670.864 102.473 670.864 102.115 671.292C101.733 671.751 102.344 673.658 101.274 674.117C100.205 674.576 91.5072 676.787 90.8187 678.16C90.1336 679.534 91.8886 684.262 92.8808 685.18C92.8808 685.18 93.3027 689.186 94.6358 692.811C96.2761 697.273 95.5977 700.442 95.0644 702.349C94.5312 704.256 93.8731 706.24 93.1103 710.132C92.3476 714.023 92.3138 715.95 92.5771 717.763C93.1272 721.583 121.653 721.661 122.162 717.763C122.27 716.949 122.392 714.023 121.629 710.132C120.866 706.24 120.208 704.256 119.675 702.349Z" stroke="#AECED8" stroke-width="1.875" stroke-linejoin="round"/>
<path d="M110.575 696.724C110.568 697.129 110.909 697.453 111.314 697.426C114.027 697.426 117.298 697.196 119.211 695.961C119.218 695.917 119.228 695.873 119.235 695.826C119.252 695.718 119.275 695.607 119.296 695.499C119.323 695.364 119.346 695.229 119.377 695.09C119.4 694.982 119.431 694.874 119.458 694.763C119.491 694.621 119.525 694.483 119.566 694.338C119.596 694.226 119.636 694.115 119.67 694.003C119.714 693.862 119.758 693.72 119.805 693.575C119.849 693.45 119.9 693.325 119.95 693.2C120.001 693.072 120.045 692.944 120.099 692.815C121.591 689.255 121.854 685.185 121.854 685.185C120.504 682.738 120.558 679.005 121.263 676.659C121.256 676.659 121.25 676.653 121.243 676.653C119.94 676.15 118.367 675.643 116.967 675.215C116.808 678.715 114.436 682.404 111.192 683.44C110.818 683.558 110.564 683.902 110.564 684.294C110.578 686.663 110.625 692.782 110.571 696.724H110.575Z" fill="#AECED8" stroke="#AECED8" stroke-width="1.875" stroke-linejoin="round"/>
<rect x="722.129" y="222.715" width="77.9138" height="75.0943" rx="37.5472" fill="#FFDA6D"/>
<path d="M754.779 269.786V258.615C754.779 255.132 757.604 252.307 761.087 252.307C764.57 252.307 767.395 255.132 767.395 258.615V269.786H754.783H754.779Z" fill="#2F3E43" stroke="#2F3E43" stroke-width="1.875" stroke-linejoin="round"/>
<path d="M747.576 242.225H774.59C774.661 242.225 774.728 242.231 774.796 242.235V239.788C774.796 236.433 772.076 233.713 768.721 233.713H753.442C750.087 233.713 747.367 236.433 747.367 239.788V242.235C747.438 242.235 747.506 242.225 747.573 242.225H747.576Z" stroke="#2F3E43" stroke-width="1.875" stroke-linejoin="round"/>
<path d="M747.576 278.299H774.59C774.661 278.299 774.728 278.292 774.796 278.289V280.736C774.796 284.091 772.076 286.811 768.721 286.811H753.442C750.087 286.811 747.367 284.091 747.367 280.736V278.289C747.438 278.289 747.506 278.299 747.573 278.299H747.576Z" stroke="#2F3E43" stroke-width="1.875" stroke-linejoin="round"/>
<path d="M743.058 250.738H779.11C779.666 250.738 780.193 250.863 780.665 251.082V248.298C780.665 244.943 777.945 242.223 774.59 242.223H747.577C744.222 242.223 741.502 244.943 741.502 248.298V251.082C741.974 250.863 742.501 250.738 743.058 250.738Z" stroke="#2F3E43" stroke-width="1.875" stroke-linejoin="round"/>
<path d="M779.11 269.786H743.058C742.501 269.786 741.974 269.661 741.502 269.441V272.226C741.502 275.581 744.222 278.301 747.577 278.301H774.59C777.945 278.301 780.665 275.581 780.665 272.226V269.441C780.193 269.661 779.666 269.786 779.11 269.786Z" stroke="#2F3E43" stroke-width="1.875" stroke-linejoin="round"/>
<path d="M779.109 269.786H743.057C741.009 269.786 739.352 268.125 739.352 266.08V263.292C739.352 262.037 739.976 260.933 740.931 260.262C741.535 260.687 742.268 260.937 743.061 260.937H779.112C779.906 260.937 780.638 260.687 781.242 260.262C782.194 260.933 782.822 262.04 782.822 263.292V266.08C782.822 268.125 781.161 269.786 779.116 269.786H779.109Z" stroke="#2F3E43" stroke-width="1.875" stroke-linejoin="round"/>
<path d="M779.109 250.738H743.057C741.011 250.738 739.352 252.397 739.352 254.444V257.232C739.352 259.278 741.011 260.938 743.057 260.938H779.109C781.156 260.938 782.815 259.278 782.815 257.232V254.444C782.815 252.397 781.156 250.738 779.109 250.738Z" stroke="#2F3E43" stroke-width="1.875" stroke-linejoin="round"/>
<rect x="769.256" y="335.258" width="77.9138" height="75.0943" rx="37.5472" fill="#94E4BB"/>
<path d="M801.906 382.329V371.157C801.906 367.674 804.731 364.85 808.214 364.85C811.697 364.85 814.522 367.674 814.522 371.157V382.329H801.91H801.906Z" fill="#014924" stroke="#014924" stroke-width="1.875" stroke-linejoin="round"/>
<path d="M794.703 354.768H821.717C821.788 354.768 821.855 354.774 821.923 354.778V352.331C821.923 348.976 819.203 346.256 815.848 346.256H800.569C797.214 346.256 794.494 348.976 794.494 352.331V354.778C794.565 354.778 794.633 354.768 794.7 354.768H794.703Z" stroke="#014924" stroke-width="1.875" stroke-linejoin="round"/>
<path d="M794.703 390.842H821.717C821.788 390.842 821.855 390.835 821.923 390.832V393.279C821.923 396.634 819.203 399.354 815.848 399.354H800.569C797.214 399.354 794.494 396.634 794.494 393.279V390.832C794.565 390.832 794.633 390.842 794.7 390.842H794.703Z" stroke="#014924" stroke-width="1.875" stroke-linejoin="round"/>
<path d="M790.185 363.281H826.237C826.793 363.281 827.32 363.406 827.792 363.625V360.841C827.792 357.486 825.072 354.766 821.717 354.766H794.704C791.349 354.766 788.629 357.486 788.629 360.841V363.625C789.101 363.406 789.628 363.281 790.185 363.281Z" stroke="#014924" stroke-width="1.875" stroke-linejoin="round"/>
<path d="M826.237 382.329H790.185C789.628 382.329 789.101 382.204 788.629 381.984V384.769C788.629 388.123 791.349 390.844 794.704 390.844H821.717C825.072 390.844 827.792 388.123 827.792 384.769V381.984C827.32 382.204 826.793 382.329 826.237 382.329Z" stroke="#014924" stroke-width="1.875" stroke-linejoin="round"/>
<path d="M826.236 382.329H790.184C788.136 382.329 786.479 380.668 786.479 378.623V375.835C786.479 374.58 787.103 373.476 788.058 372.805C788.662 373.23 789.395 373.48 790.188 373.48H826.239C827.033 373.48 827.765 373.23 828.369 372.805C829.321 373.476 829.949 374.583 829.949 375.835V378.623C829.949 380.668 828.288 382.329 826.243 382.329H826.236Z" stroke="#014924" stroke-width="1.875" stroke-linejoin="round"/>
<path d="M826.236 363.281H790.184C788.138 363.281 786.479 364.94 786.479 366.987V369.775C786.479 371.821 788.138 373.481 790.184 373.481H826.236C828.283 373.481 829.942 371.821 829.942 369.775V366.987C829.942 364.94 828.283 363.281 826.236 363.281Z" stroke="#014924" stroke-width="1.875" stroke-linejoin="round"/>
<rect x="633.953" y="474.738" width="77.9138" height="75.0943" rx="37.5472" fill="#E3F7ED"/>
<path d="M661.273 482.624L658.539 482.3C658.448 482.29 658.35 482.283 658.259 482.283C657.577 482.283 656.963 482.577 656.531 483.043C656.656 483.036 656.778 483.022 656.903 483.022C657.807 483.022 658.543 483.765 658.543 484.673C658.543 485.581 657.807 486.323 656.903 486.323C656.815 486.323 656.727 486.33 656.639 486.337C657.061 486.738 657.631 486.988 658.259 486.988C658.354 486.988 658.445 486.981 658.536 486.971C658.536 486.971 660.477 486.755 661.411 486.661C662.549 486.549 663.065 485.53 663.065 484.632C663.065 483.606 662.296 482.739 661.273 482.617V482.624Z" fill="#C5DCD0" stroke="#C5DCD0" stroke-width="1.5" stroke-linejoin="round"/>
<path d="M680.354 502.27C679.27 502.27 678.389 503.147 678.389 504.227V506.37C678.389 509.205 676.81 511.757 674.265 513.029L670.242 515.044C671.056 515.068 671.785 515.527 672.152 516.262C672.419 516.792 672.463 517.393 672.277 517.957C672.203 518.183 672.088 518.385 671.95 518.571L676.03 516.529C679.908 514.588 682.318 510.697 682.318 506.374V504.23C682.318 503.15 681.437 502.273 680.354 502.273V502.27Z" fill="#C5DCD0" stroke="#C5DCD0" stroke-width="1.5" stroke-linejoin="round"/>
<path d="M660.19 516.119C660.555 515.39 661.277 514.931 662.083 514.9L658.371 513.051C655.809 511.775 654.216 509.217 654.216 506.375V504.228C654.216 503.148 653.332 502.268 652.242 502.268C651.152 502.268 650.268 503.148 650.268 504.228V506.375C650.268 510.708 652.694 514.607 656.599 516.554L660.399 518.447C659.91 517.796 659.799 516.895 660.187 516.119H660.19Z" fill="#C5DCD0" stroke="#C5DCD0" stroke-width="1.5" stroke-linejoin="round"/>
<path d="M652.244 502.272C652.956 502.272 653.577 502.653 653.925 503.217V489.339C653.925 487.678 655.262 486.328 656.902 486.328C657.806 486.328 658.542 485.586 658.542 484.678C658.542 483.77 657.806 483.027 656.902 483.027C653.453 483.027 650.645 485.859 650.645 489.342V503.095C651.002 502.599 651.586 502.275 652.244 502.275V502.272Z" stroke="#C5DCD0" stroke-width="1.875" stroke-linejoin="round"/>
<path d="M675.717 486.326C674.803 486.326 674.057 485.584 674.057 484.676C674.057 483.768 674.803 483.026 675.717 483.026C675.879 483.026 676.034 483.039 676.193 483.049C675.761 482.58 675.147 482.283 674.462 482.283C674.371 482.283 674.273 482.29 674.182 482.3L671.444 482.624C670.422 482.746 669.652 483.61 669.652 484.639C669.652 485.537 670.169 486.556 671.306 486.667C672.238 486.758 674.178 486.978 674.178 486.978C674.273 486.988 674.364 486.995 674.458 486.995C675.083 486.995 675.646 486.748 676.068 486.353C675.95 486.34 675.835 486.33 675.714 486.33L675.717 486.326Z" fill="#C5DCD0" stroke="#C5DCD0" stroke-width="1.5" stroke-linejoin="round"/>
<path d="M675.719 486.328C677.393 486.328 678.757 487.678 678.757 489.338V503.098C679.114 502.598 679.695 502.271 680.353 502.271C681.102 502.271 681.747 502.696 682.078 503.311V489.338C682.078 485.858 679.226 483.023 675.719 483.023C674.804 483.023 674.059 483.766 674.059 484.674C674.059 485.582 674.804 486.324 675.719 486.324V486.328Z" stroke="#C5DCD0" stroke-width="1.875" stroke-linejoin="round"/>
<path d="M688.051 529.436C687.514 529.436 686.991 529.379 686.485 529.271V529.878C686.485 532.295 685.557 534.58 683.869 536.311C682.185 538.043 679.93 539.028 677.517 539.082L677.197 539.089C677.129 539.089 676.991 539.089 676.987 539.089C674.571 539.089 672.286 538.157 670.561 536.466C668.779 534.718 667.797 532.379 667.797 529.882V524.738C667.399 525.197 666.819 525.491 666.167 525.491C665.556 525.491 665.006 525.231 664.611 524.819V529.885C664.611 533.25 665.934 536.399 668.337 538.755C670.663 541.033 673.737 542.288 676.987 542.288C677.085 542.288 677.18 542.288 677.281 542.288L677.595 542.282C680.842 542.204 683.883 540.878 686.151 538.545C688.419 536.213 689.667 533.139 689.667 529.882V529.261C689.144 529.376 688.604 529.44 688.047 529.44L688.051 529.436Z" fill="#C5DCD0" stroke="#C5DCD0" stroke-width="1.5" stroke-linejoin="round"/>
<path d="M688.051 529.435C683.914 529.435 680.549 526.091 680.549 521.983C680.549 517.876 683.914 514.531 688.051 514.531C692.189 514.531 695.554 517.876 695.554 521.983C695.554 526.091 692.189 529.435 688.051 529.435Z" stroke="#C5DCD0" stroke-width="1.875" stroke-linejoin="round"/>
<path d="M666.17 525.491C664.972 525.491 664 524.502 664 523.287V520.523L661.172 519.095C660.085 518.545 659.643 517.212 660.19 516.118C660.568 515.366 661.324 514.896 662.167 514.896C662.508 514.896 662.853 514.977 663.16 515.133L666.012 516.57C666.103 516.614 666.204 516.641 666.305 516.641C666.406 516.641 666.511 516.618 666.599 516.57L669.177 515.268C669.484 515.112 669.829 515.031 670.17 515.031C671.01 515.031 671.769 515.501 672.147 516.253C672.414 516.783 672.458 517.384 672.272 517.944C672.087 518.508 671.695 518.963 671.165 519.23L668.587 520.533C668.509 520.573 668.425 520.61 668.34 520.647V523.283C668.34 524.498 667.365 525.487 666.17 525.487V525.491Z" stroke="#C5DCD0" stroke-width="1.875" stroke-linejoin="round"/>
<rect x="711.486" y="704.785" width="77.9138" height="75.0943" rx="37.5472" fill="#F9EBC3"/>
<path d="M738.806 712.671L736.073 712.347C735.981 712.337 735.884 712.33 735.792 712.33C735.111 712.33 734.496 712.624 734.064 713.089C734.189 713.083 734.311 713.069 734.436 713.069C735.34 713.069 736.076 713.812 736.076 714.72C736.076 715.627 735.34 716.37 734.436 716.37C734.348 716.37 734.26 716.377 734.172 716.383C734.594 716.785 735.165 717.035 735.792 717.035C735.887 717.035 735.978 717.028 736.069 717.018C736.069 717.018 738.01 716.802 738.945 716.707C740.082 716.596 740.598 715.577 740.598 714.679C740.598 713.653 739.829 712.786 738.806 712.664V712.671Z" fill="#E7D1A7" stroke="#E7D1A7" stroke-width="1.5" stroke-linejoin="round"/>
<path d="M757.887 732.316C756.804 732.316 755.923 733.194 755.923 734.274V736.417C755.923 739.252 754.343 741.804 751.798 743.076L747.775 745.091C748.589 745.114 749.318 745.573 749.686 746.309C749.952 746.839 749.996 747.44 749.811 748.003C749.736 748.23 749.622 748.432 749.483 748.618L753.564 746.576C757.441 744.635 759.851 740.744 759.851 736.42V734.277C759.851 733.197 758.97 732.32 757.887 732.32V732.316Z" fill="#E7D1A7" stroke="#E7D1A7" stroke-width="1.5" stroke-linejoin="round"/>
<path d="M737.723 746.165C738.088 745.436 738.81 744.977 739.617 744.947L735.904 743.098C733.343 741.822 731.75 739.264 731.75 736.422V734.275C731.75 733.195 730.865 732.314 729.775 732.314C728.685 732.314 727.801 733.195 727.801 734.275V736.422C727.801 740.755 730.227 744.653 734.132 746.601L737.933 748.494C737.443 747.843 737.332 746.942 737.72 746.165H737.723Z" fill="#E7D1A7" stroke="#E7D1A7" stroke-width="1.5" stroke-linejoin="round"/>
<path d="M729.781 732.317C730.494 732.317 731.115 732.698 731.462 733.262V719.384C731.462 717.723 732.799 716.373 734.439 716.373C735.343 716.373 736.079 715.631 736.079 714.723C736.079 713.815 735.343 713.072 734.439 713.072C730.99 713.072 728.182 715.904 728.182 719.387V733.14C728.539 732.644 729.123 732.32 729.781 732.32V732.317Z" stroke="#E7D1A7" stroke-width="1.875" stroke-linejoin="round"/>
<path d="M753.254 716.373C752.34 716.373 751.594 715.631 751.594 714.723C751.594 713.815 752.34 713.073 753.254 713.073C753.416 713.073 753.572 713.086 753.73 713.096C753.298 712.627 752.684 712.33 751.999 712.33C751.908 712.33 751.81 712.337 751.719 712.347L748.982 712.671C747.959 712.792 747.189 713.656 747.189 714.686C747.189 715.584 747.706 716.603 748.843 716.714C749.775 716.805 751.715 717.025 751.715 717.025C751.81 717.035 751.901 717.042 751.995 717.042C752.62 717.042 753.183 716.795 753.605 716.4C753.487 716.387 753.372 716.377 753.251 716.377L753.254 716.373Z" fill="#E7D1A7" stroke="#E7D1A7" stroke-width="1.5" stroke-linejoin="round"/>
<path d="M753.25 716.372C754.924 716.372 756.288 717.722 756.288 719.383V733.143C756.646 732.643 757.226 732.316 757.884 732.316C758.633 732.316 759.278 732.741 759.609 733.355V719.383C759.609 715.903 756.757 713.068 753.25 713.068C752.336 713.068 751.59 713.811 751.59 714.719C751.59 715.627 752.336 716.369 753.25 716.369V716.372Z" stroke="#E7D1A7" stroke-width="1.875" stroke-linejoin="round"/>
<path d="M765.584 759.483C765.047 759.483 764.524 759.426 764.018 759.318V759.925C764.018 762.342 763.09 764.627 761.402 766.358C759.718 768.089 757.464 769.075 755.051 769.129L754.73 769.136C754.662 769.136 754.524 769.136 754.521 769.136C752.104 769.136 749.819 768.204 748.095 766.513C746.313 764.765 745.331 762.426 745.331 759.929V754.785C744.932 755.244 744.352 755.538 743.7 755.538C743.09 755.538 742.539 755.278 742.145 754.866V759.932C742.145 763.297 743.468 766.446 745.871 768.802C748.196 771.08 751.271 772.335 754.521 772.335C754.619 772.335 754.713 772.335 754.814 772.335L755.128 772.328C758.375 772.251 761.416 770.924 763.684 768.592C765.952 766.26 767.201 763.186 767.201 759.929V759.308C766.677 759.422 766.137 759.487 765.581 759.487L765.584 759.483Z" fill="#E7D1A7" stroke="#E7D1A7" stroke-width="1.5" stroke-linejoin="round"/>
<path d="M765.585 759.482C761.447 759.482 758.082 756.137 758.082 752.03C758.082 747.923 761.447 744.578 765.585 744.578C769.722 744.578 773.087 747.923 773.087 752.03C773.087 756.137 769.722 759.482 765.585 759.482Z" stroke="#E7D1A7" stroke-width="1.875" stroke-linejoin="round"/>
<path d="M743.703 755.536C742.505 755.536 741.533 754.547 741.533 753.332V750.568L738.705 749.14C737.618 748.59 737.176 747.257 737.723 746.163C738.101 745.411 738.857 744.941 739.701 744.941C740.041 744.941 740.386 745.022 740.693 745.178L743.545 746.615C743.636 746.659 743.737 746.686 743.838 746.686C743.94 746.686 744.044 746.663 744.132 746.615L746.71 745.313C747.018 745.157 747.362 745.076 747.703 745.076C748.543 745.076 749.302 745.546 749.68 746.298C749.947 746.828 749.991 747.429 749.805 747.989C749.62 748.553 749.228 749.008 748.698 749.275L746.12 750.578C746.042 750.618 745.958 750.655 745.873 750.692V753.328C745.873 754.543 744.898 755.532 743.703 755.532V755.536Z" stroke="#E7D1A7" stroke-width="1.875" stroke-linejoin="round"/>
<rect x="574.662" y="445.434" width="77.9138" height="75.0943" rx="37.5472" fill="#DEF3FA"/>
<path d="M601.982 453.319L599.248 452.995C599.157 452.985 599.059 452.979 598.968 452.979C598.286 452.979 597.672 453.272 597.24 453.738C597.365 453.731 597.487 453.718 597.611 453.718C598.516 453.718 599.252 454.46 599.252 455.368C599.252 456.276 598.516 457.018 597.611 457.018C597.524 457.018 597.436 457.025 597.348 457.032C597.77 457.434 598.34 457.683 598.968 457.683C599.063 457.683 599.154 457.677 599.245 457.666C599.245 457.666 601.186 457.45 602.12 457.356C603.258 457.245 603.774 456.225 603.774 455.328C603.774 454.302 603.005 453.434 601.982 453.313V453.319Z" fill="#AECED8" stroke="#AECED8" stroke-width="1.5" stroke-linejoin="round"/>
<path d="M621.063 472.965C619.979 472.965 619.098 473.842 619.098 474.922V477.065C619.098 479.9 617.519 482.452 614.974 483.724L610.951 485.739C611.765 485.763 612.494 486.222 612.861 486.958C613.128 487.487 613.172 488.088 612.986 488.652C612.912 488.878 612.797 489.08 612.659 489.266L616.739 487.224C620.617 485.284 623.027 481.392 623.027 477.069V474.926C623.027 473.846 622.146 472.968 621.063 472.968V472.965Z" fill="#AECED8" stroke="#AECED8" stroke-width="1.5" stroke-linejoin="round"/>
<path d="M600.899 486.814C601.264 486.085 601.986 485.626 602.792 485.596L599.08 483.746C596.518 482.47 594.925 479.912 594.925 477.07V474.924C594.925 473.844 594.041 472.963 592.951 472.963C591.861 472.963 590.977 473.844 590.977 474.924V477.07C590.977 481.404 593.403 485.302 597.308 487.249L601.108 489.143C600.619 488.491 600.508 487.59 600.896 486.814H600.899Z" fill="#AECED8" stroke="#AECED8" stroke-width="1.5" stroke-linejoin="round"/>
<path d="M592.957 472.967C593.669 472.967 594.29 473.348 594.638 473.912V460.034C594.638 458.373 595.974 457.023 597.615 457.023C598.519 457.023 599.255 456.281 599.255 455.373C599.255 454.465 598.519 453.723 597.615 453.723C594.165 453.723 591.357 456.554 591.357 460.037V473.79C591.715 473.294 592.299 472.97 592.957 472.97V472.967Z" stroke="#AECED8" stroke-width="1.875" stroke-linejoin="round"/>
<path d="M616.43 457.022C615.515 457.022 614.77 456.279 614.77 455.371C614.77 454.464 615.515 453.721 616.43 453.721C616.592 453.721 616.747 453.735 616.906 453.745C616.474 453.276 615.86 452.979 615.175 452.979C615.083 452.979 614.986 452.985 614.894 452.995L612.157 453.319C611.135 453.441 610.365 454.305 610.365 455.334C610.365 456.232 610.882 457.251 612.019 457.363C612.95 457.454 614.891 457.673 614.891 457.673C614.986 457.683 615.077 457.69 615.171 457.69C615.796 457.69 616.359 457.444 616.781 457.049C616.663 457.035 616.548 457.025 616.427 457.025L616.43 457.022Z" fill="#AECED8" stroke="#AECED8" stroke-width="1.5" stroke-linejoin="round"/>
<path d="M616.426 457.023C618.1 457.023 619.464 458.373 619.464 460.033V473.793C619.821 473.294 620.402 472.966 621.06 472.966C621.809 472.966 622.454 473.392 622.785 474.006V460.033C622.785 456.554 619.933 453.719 616.426 453.719C615.511 453.719 614.766 454.461 614.766 455.369C614.766 456.277 615.511 457.02 616.426 457.02V457.023Z" stroke="#AECED8" stroke-width="1.875" stroke-linejoin="round"/>
<path d="M628.76 500.132C628.223 500.132 627.7 500.074 627.194 499.966V500.574C627.194 502.99 626.266 505.275 624.578 507.006C622.894 508.738 620.639 509.723 618.226 509.777L617.906 509.784C617.838 509.784 617.7 509.784 617.696 509.784C615.28 509.784 612.995 508.853 611.27 507.162C609.488 505.413 608.506 503.075 608.506 500.577V495.434C608.108 495.893 607.528 496.186 606.876 496.186C606.265 496.186 605.715 495.926 605.32 495.515V500.58C605.32 503.945 606.643 507.094 609.046 509.45C611.372 511.728 614.446 512.984 617.696 512.984C617.794 512.984 617.889 512.984 617.99 512.984L618.304 512.977C621.551 512.899 624.592 511.573 626.86 509.241C629.128 506.909 630.376 503.834 630.376 500.577V499.956C629.853 500.071 629.313 500.135 628.756 500.135L628.76 500.132Z" fill="#AECED8" stroke="#AECED8" stroke-width="1.5" stroke-linejoin="round"/>
<path d="M628.76 500.131C624.623 500.131 621.258 496.786 621.258 492.679C621.258 488.571 624.623 485.227 628.76 485.227C632.898 485.227 636.263 488.571 636.263 492.679C636.263 496.786 632.898 500.131 628.76 500.131Z" stroke="#AECED8" stroke-width="1.875" stroke-linejoin="round"/>
<path d="M606.879 496.186C605.681 496.186 604.709 495.197 604.709 493.982V491.218L601.881 489.79C600.794 489.24 600.352 487.907 600.899 486.814C601.277 486.061 602.033 485.592 602.876 485.592C603.217 485.592 603.562 485.673 603.869 485.828L606.721 487.266C606.812 487.31 606.913 487.337 607.014 487.337C607.115 487.337 607.22 487.313 607.308 487.266L609.886 485.963C610.193 485.808 610.538 485.727 610.879 485.727C611.719 485.727 612.478 486.196 612.856 486.949C613.123 487.478 613.167 488.079 612.981 488.639C612.796 489.203 612.404 489.659 611.874 489.925L609.296 491.228C609.218 491.269 609.134 491.306 609.049 491.343V493.979C609.049 495.194 608.074 496.183 606.879 496.183V496.186Z" stroke="#AECED8" stroke-width="1.875" stroke-linejoin="round"/>
<rect x="536.656" y="259.348" width="77.9138" height="75.0943" rx="37.5472" fill="#E3F7ED"/>
<path d="M570.15 313.891C570.15 313.891 570.15 313.861 570.153 313.844C570.177 313.645 570.204 313.446 570.245 313.247C570.251 313.216 570.258 313.182 570.265 313.152C570.305 312.953 570.349 312.754 570.407 312.555C570.42 312.511 570.427 312.467 570.43 312.42C570.437 312.325 570.423 312.227 570.393 312.126C570.319 311.87 570.14 311.6 569.88 311.367C569.775 311.272 569.664 311.191 569.549 311.12C569.205 310.911 568.83 310.817 568.533 310.874C568.533 310.874 560.697 313.145 559.563 312.632C559.505 312.605 559.448 312.555 559.394 312.491H559.391C559.893 313.105 563.083 315.589 564.504 316.152C565.418 316.514 568.216 315.754 570.127 315.157C570.099 314.735 570.106 314.31 570.153 313.884L570.15 313.891Z" fill="#C5DCD0" stroke="#C5DCD0" stroke-width="1.875" stroke-linejoin="round"/>
<path d="M565.403 288.579C564.971 288.093 564.488 287.64 563.948 287.242C561.923 285.754 559.318 284.937 557.428 285.717C557.046 285.875 556.493 286.554 555.852 286.027C555.852 286.027 560.172 289.642 560.998 289.632C561.734 289.625 563.752 288.504 565.406 288.579H565.403Z" fill="#C5DCD0" stroke="#C5DCD0" stroke-width="1.875" stroke-linejoin="round"/>
<path d="M590.383 274.631C590.136 274.043 586.154 271.516 586.154 271.516L586.147 271.532C589.107 272.71 591.884 306.153 591.017 306.99C590.143 307.837 580.949 308.971 580.949 308.971C580.936 308.975 580.929 308.981 580.916 308.985C580.858 308.998 580.808 309.019 580.76 309.046C580.744 309.056 580.727 309.062 580.71 309.073C580.656 309.11 580.609 309.15 580.568 309.204C580.531 309.258 580.511 309.319 580.494 309.383C580.49 309.4 580.487 309.42 580.487 309.437C580.48 309.488 580.477 309.538 580.48 309.592C580.48 309.616 580.484 309.64 580.487 309.663C580.497 309.717 580.507 309.775 580.528 309.832C580.538 309.856 580.541 309.876 580.551 309.899C580.582 309.98 580.622 310.058 580.673 310.139C580.673 310.143 580.676 310.149 580.679 310.153C581.182 310.939 581.506 311.833 581.645 312.812C581.915 314.746 581.435 316.714 580.298 318.361C579.171 319.991 578.702 320.315 576.872 320.676C575.414 320.963 574.021 320.733 572.873 320.055L577.625 323.555C584.119 326.221 587.348 318.202 585.458 312.832C585.458 312.832 594.345 311.661 595.648 310.345C596.947 309.029 590.622 275.221 590.379 274.634L590.383 274.631Z" fill="#C5DCD0" stroke="#C5DCD0" stroke-width="1.875" stroke-linejoin="round"/>
<path d="M554.609 277.147C553.282 277.529 555.206 285.5 555.847 286.027C556.489 286.553 557.042 285.875 557.423 285.716C559.317 284.937 561.922 285.754 563.944 287.242C565.665 288.511 566.863 290.269 567.403 292.274C567.403 292.281 567.407 292.291 567.41 292.298C567.508 292.659 567.589 293.023 567.643 293.401C567.96 295.676 567.748 297.843 566.448 299.726C565.159 301.589 563.009 303 561.612 303.209C560.215 303.418 558.655 302.807 558.284 303.496C557.916 304.184 558.426 312.126 559.56 312.635C560.694 313.148 568.531 310.877 568.531 310.877C568.925 310.799 569.459 310.995 569.877 311.366C570.292 311.738 570.502 312.214 570.407 312.554C570.11 313.607 570.036 314.667 570.181 315.7C570.329 316.76 570.691 317.708 571.227 318.498C571.237 318.508 571.247 318.521 571.254 318.532C571.264 318.545 571.268 318.559 571.278 318.572C571.548 318.953 571.865 319.291 572.216 319.585L572.726 319.959C573.897 320.712 575.355 320.968 576.88 320.668C578.706 320.307 579.179 319.983 580.306 318.353C581.443 316.706 581.923 314.738 581.653 312.804C581.514 311.825 581.19 310.931 580.687 310.145C580.687 310.141 580.684 310.135 580.681 310.131C580.63 310.05 580.589 309.969 580.559 309.892C580.549 309.868 580.546 309.848 580.535 309.824C580.515 309.767 580.502 309.709 580.495 309.655C580.492 309.628 580.488 309.605 580.488 309.584C580.485 309.53 580.488 309.48 580.495 309.429C580.495 309.412 580.498 309.392 580.502 309.375C580.519 309.311 580.539 309.25 580.576 309.196C580.613 309.142 580.664 309.102 580.718 309.065C580.735 309.055 580.751 309.048 580.768 309.038C580.816 309.011 580.87 308.99 580.924 308.977C580.937 308.977 580.944 308.967 580.957 308.963C580.957 308.963 590.151 307.829 591.025 306.982C591.899 306.139 589.064 272.078 586.074 271.494C583.073 270.917 555.442 276.908 554.609 277.147Z" stroke="#C5DCD0" stroke-width="1.875" stroke-linejoin="round"/>
<rect x="583.783" y="550.934" width="77.9138" height="75.0943" rx="37.5472" fill="#F9EBC3"/>
<path d="M617.277 605.477C617.277 605.477 617.277 605.447 617.28 605.43C617.304 605.231 617.331 605.032 617.372 604.832C617.378 604.802 617.385 604.768 617.392 604.738C617.432 604.539 617.476 604.34 617.534 604.141C617.547 604.097 617.554 604.053 617.557 604.006C617.564 603.911 617.55 603.813 617.52 603.712C617.446 603.456 617.267 603.186 617.007 602.953C616.902 602.858 616.791 602.777 616.676 602.706C616.332 602.497 615.957 602.402 615.66 602.46C615.66 602.46 607.824 604.731 606.69 604.218C606.632 604.191 606.575 604.141 606.521 604.077H606.518C607.02 604.691 610.21 607.175 611.631 607.738C612.545 608.099 615.343 607.34 617.253 606.743C617.226 606.321 617.233 605.896 617.28 605.47L617.277 605.477Z" fill="#E7D1A7" stroke="#E7D1A7" stroke-width="1.875" stroke-linejoin="round"/>
<path d="M612.526 580.165C612.094 579.679 611.611 579.226 611.071 578.828C609.046 577.34 606.441 576.523 604.551 577.303C604.169 577.461 603.616 578.14 602.975 577.613C602.975 577.613 607.295 581.228 608.121 581.218C608.857 581.211 610.875 580.09 612.529 580.165H612.526Z" fill="#E7D1A7" stroke="#E7D1A7" stroke-width="1.875" stroke-linejoin="round"/>
<path d="M637.511 566.217C637.265 565.629 633.283 563.102 633.283 563.102L633.276 563.118C636.236 564.296 639.013 597.739 638.146 598.576C637.272 599.423 628.078 600.557 628.078 600.557C628.065 600.561 628.058 600.567 628.045 600.571C627.987 600.584 627.937 600.605 627.889 600.632C627.872 600.642 627.856 600.648 627.839 600.659C627.785 600.696 627.737 600.736 627.697 600.79C627.66 600.844 627.64 600.905 627.623 600.969C627.619 600.986 627.616 601.006 627.616 601.023C627.609 601.074 627.606 601.124 627.609 601.178C627.609 601.202 627.613 601.226 627.616 601.249C627.626 601.303 627.636 601.361 627.656 601.418C627.667 601.442 627.67 601.462 627.68 601.485C627.71 601.566 627.751 601.644 627.802 601.725C627.802 601.728 627.805 601.735 627.808 601.739C628.311 602.525 628.635 603.419 628.774 604.398C629.044 606.332 628.564 608.3 627.427 609.947C626.3 611.577 625.831 611.901 624.001 612.262C622.543 612.549 621.149 612.319 620.002 611.641L624.754 615.141C631.247 617.807 634.477 609.788 632.587 604.418C632.587 604.418 641.474 603.247 642.776 601.931C644.076 600.615 637.751 566.807 637.508 566.22L637.511 566.217Z" fill="#E7D1A7" stroke="#E7D1A7" stroke-width="1.875" stroke-linejoin="round"/>
<path d="M601.736 568.733C600.409 569.115 602.333 577.086 602.974 577.613C603.615 578.139 604.169 577.461 604.55 577.302C606.444 576.523 609.049 577.34 611.071 578.828C612.792 580.097 613.99 581.855 614.53 583.86C614.53 583.867 614.534 583.877 614.537 583.884C614.635 584.245 614.716 584.609 614.77 584.987C615.087 587.262 614.874 589.429 613.575 591.312C612.286 593.175 610.136 594.586 608.739 594.795C607.341 595.004 605.782 594.393 605.411 595.082C605.043 595.77 605.553 603.712 606.687 604.221C607.821 604.734 615.657 602.463 615.657 602.463C616.052 602.385 616.586 602.581 617.004 602.952C617.419 603.324 617.628 603.8 617.534 604.14C617.237 605.193 617.163 606.253 617.308 607.286C617.456 608.346 617.817 609.294 618.354 610.084C618.364 610.094 618.374 610.107 618.381 610.118C618.391 610.131 618.395 610.145 618.405 610.158C618.675 610.539 618.992 610.877 619.343 611.171L619.853 611.545C621.024 612.298 622.482 612.554 624.007 612.254C625.833 611.893 626.306 611.569 627.433 609.939C628.57 608.292 629.049 606.324 628.779 604.39C628.641 603.411 628.317 602.517 627.814 601.731C627.814 601.727 627.811 601.721 627.807 601.717C627.757 601.636 627.716 601.555 627.686 601.478C627.676 601.454 627.672 601.434 627.662 601.41C627.642 601.353 627.629 601.295 627.622 601.241C627.618 601.214 627.615 601.191 627.615 601.17C627.612 601.116 627.615 601.066 627.622 601.015C627.622 600.998 627.625 600.978 627.629 600.961C627.645 600.897 627.666 600.836 627.703 600.782C627.74 600.728 627.791 600.688 627.845 600.651C627.861 600.641 627.878 600.634 627.895 600.624C627.942 600.597 627.996 600.576 628.05 600.563C628.064 600.563 628.071 600.553 628.084 600.549C628.084 600.549 637.278 599.415 638.152 598.568C639.026 597.725 636.191 563.664 633.201 563.08C630.2 562.503 602.569 568.494 601.736 568.733Z" stroke="#E7D1A7" stroke-width="1.875" stroke-linejoin="round"/>
<rect x="454.561" y="581.703" width="77.9138" height="75.0943" rx="37.5472" fill="#DEF3FA"/>
<path d="M488.054 636.247C488.054 636.247 488.054 636.216 488.058 636.199C488.081 636 488.108 635.801 488.149 635.602C488.156 635.572 488.162 635.538 488.169 635.508C488.21 635.308 488.254 635.109 488.311 634.91C488.324 634.866 488.331 634.822 488.335 634.775C488.341 634.681 488.328 634.583 488.297 634.482C488.223 634.225 488.044 633.955 487.784 633.722C487.68 633.628 487.568 633.547 487.454 633.476C487.109 633.267 486.735 633.172 486.438 633.229C486.438 633.229 478.601 635.501 477.467 634.988C477.41 634.961 477.352 634.91 477.298 634.846H477.295C477.798 635.46 480.987 637.944 482.408 638.508C483.323 638.869 486.121 638.11 488.031 637.512C488.004 637.09 488.011 636.665 488.058 636.24L488.054 636.247Z" fill="#AECED8" stroke="#AECED8" stroke-width="1.875" stroke-linejoin="round"/>
<path d="M483.303 610.934C482.871 610.448 482.389 609.996 481.849 609.598C479.824 608.109 477.218 607.293 475.328 608.072C474.947 608.231 474.393 608.909 473.752 608.383C473.752 608.383 478.072 611.997 478.899 611.987C479.635 611.98 481.653 610.86 483.307 610.934H483.303Z" fill="#AECED8" stroke="#AECED8" stroke-width="1.875" stroke-linejoin="round"/>
<path d="M508.289 596.986C508.042 596.399 504.06 593.871 504.06 593.871L504.053 593.888C507.013 595.066 509.791 628.509 508.923 629.346C508.049 630.193 498.856 631.327 498.856 631.327C498.842 631.33 498.835 631.337 498.822 631.34C498.765 631.354 498.714 631.374 498.667 631.401C498.65 631.411 498.633 631.418 498.616 631.428C498.562 631.465 498.515 631.506 498.474 631.56C498.437 631.614 498.417 631.674 498.4 631.739C498.397 631.755 498.393 631.776 498.393 631.793C498.387 631.843 498.383 631.894 498.387 631.948C498.387 631.971 498.39 631.995 498.393 632.019C498.403 632.073 498.414 632.13 498.434 632.187C498.444 632.211 498.447 632.231 498.457 632.255C498.488 632.336 498.528 632.414 498.579 632.495C498.579 632.498 498.582 632.505 498.586 632.508C499.089 633.294 499.413 634.189 499.551 635.168C499.821 637.101 499.342 639.069 498.204 640.716C497.077 642.346 496.608 642.67 494.779 643.031C493.321 643.318 491.927 643.089 490.779 642.41L495.531 645.91C502.025 648.576 505.255 640.557 503.365 635.188C503.365 635.188 512.251 634.017 513.554 632.7C514.853 631.384 508.528 597.577 508.285 596.99L508.289 596.986Z" fill="#AECED8" stroke="#AECED8" stroke-width="1.875" stroke-linejoin="round"/>
<path d="M472.513 599.503C471.187 599.884 473.11 607.856 473.752 608.382C474.393 608.909 474.946 608.231 475.328 608.072C477.221 607.292 479.827 608.109 481.848 609.597C483.569 610.866 484.768 612.625 485.308 614.63C485.308 614.636 485.311 614.646 485.314 614.653C485.412 615.014 485.493 615.379 485.547 615.757C485.864 618.032 485.652 620.198 484.352 622.082C483.063 623.945 480.913 625.355 479.516 625.565C478.119 625.774 476.56 625.163 476.188 625.851C475.82 626.54 476.33 634.481 477.464 634.991C478.598 635.504 486.435 633.233 486.435 633.233C486.83 633.155 487.363 633.351 487.781 633.722C488.197 634.093 488.406 634.569 488.311 634.91C488.014 635.963 487.94 637.023 488.085 638.055C488.234 639.115 488.595 640.064 489.131 640.853C489.142 640.863 489.152 640.877 489.158 640.887C489.169 640.901 489.172 640.914 489.182 640.928C489.452 641.309 489.769 641.646 490.12 641.94L490.63 642.315C491.801 643.067 493.259 643.324 494.785 643.023C496.61 642.662 497.083 642.338 498.21 640.708C499.348 639.061 499.827 637.094 499.557 635.16C499.418 634.181 499.094 633.287 498.592 632.5C498.592 632.497 498.588 632.49 498.585 632.487C498.534 632.406 498.494 632.325 498.463 632.247C498.453 632.223 498.45 632.203 498.44 632.18C498.419 632.122 498.406 632.065 498.399 632.011C498.396 631.984 498.392 631.96 498.392 631.94C498.389 631.886 498.392 631.835 498.399 631.785C498.399 631.768 498.403 631.748 498.406 631.731C498.423 631.667 498.443 631.606 498.48 631.552C498.517 631.498 498.568 631.457 498.622 631.42C498.639 631.41 498.656 631.403 498.673 631.393C498.72 631.366 498.774 631.346 498.828 631.332C498.841 631.332 498.848 631.322 498.862 631.319C498.862 631.319 508.055 630.185 508.929 629.338C509.803 628.494 506.968 594.434 503.978 593.85C500.978 593.273 473.347 599.263 472.513 599.503Z" stroke="#AECED8" stroke-width="1.875" stroke-linejoin="round"/>
<path d="M449.988 0L444.215 10H455.762L449.988 0ZM449.988 867.431H450.988V9H449.988H448.988V867.431H449.988Z" fill="#CACACA"/>
<path d="M900 433.707L890 427.934L890 439.481L900 433.707ZM0 433.707L-4.53526e-08 434.707L891 434.707L891 433.707L891 432.707L4.53526e-08 432.707L0 433.707Z" fill="#CACACA"/>
<path d="M782.175 458.43V446.526H784.287L786.767 452.99C787.247 454.286 787.967 456.718 787.967 456.718H787.999C787.999 456.718 788.735 454.302 789.215 452.99L791.647 446.526H793.823V458.43H792.255V451.23C792.255 450.174 792.351 448.174 792.351 448.174H792.319C792.319 448.174 791.839 449.966 791.487 450.894L788.591 458.43H787.311L784.415 450.894C784.079 449.966 783.583 448.174 783.583 448.174H783.551C783.551 448.174 783.647 450.174 783.647 451.23V458.43H782.175ZM800.285 458.67C797.693 458.67 796.077 456.654 796.077 454.142C796.077 451.646 797.693 449.63 800.285 449.63C802.877 449.63 804.461 451.646 804.461 454.142C804.461 456.654 802.877 458.67 800.285 458.67ZM800.269 457.454C802.029 457.454 802.941 455.998 802.941 454.142C802.941 452.286 802.029 450.814 800.269 450.814C798.509 450.814 797.597 452.286 797.597 454.142C797.597 455.998 798.509 457.454 800.269 457.454ZM809.817 458.686C807.449 458.686 806.105 457.566 805.977 455.822H807.481C807.657 457.07 808.617 457.486 809.849 457.486C811.209 457.486 811.785 456.894 811.785 456.126C811.785 455.182 811.065 454.942 809.545 454.638C807.865 454.286 806.345 453.934 806.345 452.046C806.345 450.574 807.497 449.646 809.497 449.646C811.657 449.646 812.729 450.654 812.921 452.142H811.433C811.305 451.262 810.697 450.766 809.465 450.766C808.297 450.766 807.801 451.31 807.801 451.966C807.801 452.862 808.633 453.038 810.089 453.326C811.801 453.662 813.273 454.046 813.273 456.046C813.273 457.79 811.833 458.686 809.817 458.686ZM814.676 450.99V449.838H816.02V447.134H817.492V449.838H819.268V450.99H817.492V456.414C817.492 457.038 817.828 457.214 818.372 457.214C818.628 457.214 818.964 457.15 819.124 457.102H819.172V458.35C818.772 458.446 818.356 458.494 817.972 458.494C816.82 458.478 816.02 458.014 816.02 456.75V450.99H814.676ZM828.071 458.43L825.079 449.838H826.663L828.167 454.478C828.535 455.63 828.951 457.214 828.951 457.214H828.983C828.983 457.214 829.351 455.63 829.735 454.478L831.271 449.838H832.807L829.719 458.43H828.071ZM836.72 458.606C835.088 458.606 833.808 457.806 833.808 456.158C833.808 454.158 835.28 453.726 837.504 453.454C838.768 453.31 839.584 453.102 839.584 452.222C839.584 451.294 838.928 450.718 837.744 450.718C836.384 450.718 835.728 451.358 835.68 452.382H834.24C834.304 450.926 835.408 449.63 837.728 449.63C838.544 449.63 839.264 449.774 839.808 450.094C840.528 450.526 840.96 451.278 840.96 452.43V456.446C840.96 457.134 841.12 457.502 841.872 457.342H841.936V458.382C841.728 458.446 841.488 458.51 841.136 458.51C840.224 458.51 839.776 458.078 839.616 457.166H839.6C839.056 457.918 838.176 458.606 836.72 458.606ZM837.088 457.518C838.8 457.518 839.6 456.254 839.6 455.262V453.854C839.168 454.126 838.416 454.334 837.712 454.462C836.304 454.702 835.376 454.958 835.376 456.142C835.376 457.246 836.224 457.518 837.088 457.518ZM843.672 458.43V446.526H845.16V458.43H843.672ZM854.689 458.43H853.217V457.23H853.185C852.577 458.078 851.825 458.622 850.593 458.622C848.817 458.622 847.681 457.55 847.681 455.758V449.838H849.169V455.678C849.169 456.766 849.857 457.406 851.041 457.406C852.353 457.406 853.201 456.398 853.201 455.07V449.838H854.689V458.43ZM859.8 458.606C858.168 458.606 856.888 457.806 856.888 456.158C856.888 454.158 858.36 453.726 860.584 453.454C861.848 453.31 862.664 453.102 862.664 452.222C862.664 451.294 862.008 450.718 860.824 450.718C859.464 450.718 858.808 451.358 858.76 452.382H857.32C857.384 450.926 858.488 449.63 860.808 449.63C861.624 449.63 862.344 449.774 862.888 450.094C863.608 450.526 864.04 451.278 864.04 452.43V456.446C864.04 457.134 864.2 457.502 864.952 457.342H865.016V458.382C864.808 458.446 864.568 458.51 864.216 458.51C863.304 458.51 862.856 458.078 862.696 457.166H862.68C862.136 457.918 861.256 458.606 859.8 458.606ZM860.168 457.518C861.88 457.518 862.68 456.254 862.68 455.262V453.854C862.248 454.126 861.496 454.334 860.792 454.462C859.384 454.702 858.456 454.958 858.456 456.142C858.456 457.246 859.304 457.518 860.168 457.518ZM870.913 458.686C869.761 458.686 868.785 458.174 868.225 457.214H868.177V458.43H866.705V446.526H868.193V449.566C868.193 450.222 868.161 450.83 868.145 451.198H868.193C868.753 450.286 869.713 449.63 870.961 449.63C873.137 449.63 874.625 451.326 874.625 454.158C874.625 456.926 873.233 458.686 870.913 458.686ZM870.753 457.454C872.337 457.454 873.105 456.062 873.105 454.174C873.105 452.286 872.337 450.878 870.769 450.878C868.945 450.878 868.113 452.35 868.113 454.174C868.113 456.046 868.993 457.454 870.753 457.454ZM876.733 458.43V446.526H878.221V458.43H876.733ZM884.518 458.67C881.878 458.67 880.326 456.654 880.326 454.142C880.326 451.646 881.974 449.63 884.438 449.63C885.718 449.63 886.71 450.126 887.382 450.958C888.086 451.806 888.438 453.038 888.438 454.494H881.846C881.958 456.174 882.87 457.454 884.534 457.454C885.718 457.454 886.534 456.894 886.806 455.982H888.262C887.878 457.582 886.502 458.67 884.518 458.67ZM884.438 450.782C882.886 450.782 882.07 451.902 881.878 453.422H886.854C886.774 451.774 885.926 450.782 884.438 450.782Z" fill="#4B4B4B"/>
<rect x="472.805" y="297.449" width="77.9138" height="75.0943" rx="37.5472" fill="#A8E1F4"/>
<path d="M505.455 344.52V333.349C505.455 329.866 508.28 327.041 511.763 327.041C515.246 327.041 518.071 329.866 518.071 333.349V344.52H505.458H505.455Z" fill="#00384A" stroke="#00384A" stroke-width="1.875" stroke-linejoin="round"/>
<path d="M498.252 316.959H525.266C525.337 316.959 525.404 316.966 525.472 316.969V314.522C525.472 311.168 522.751 308.447 519.397 308.447H504.118C500.763 308.447 498.043 311.168 498.043 314.522V316.969C498.114 316.969 498.181 316.959 498.249 316.959H498.252Z" stroke="#00384A" stroke-width="1.875" stroke-linejoin="round"/>
<path d="M498.252 353.034H525.266C525.337 353.034 525.404 353.027 525.472 353.023V355.47C525.472 358.825 522.751 361.545 519.397 361.545H504.118C500.763 361.545 498.043 358.825 498.043 355.47V353.023C498.114 353.023 498.181 353.034 498.249 353.034H498.252Z" stroke="#00384A" stroke-width="1.875" stroke-linejoin="round"/>
<path d="M493.734 325.472H529.785C530.342 325.472 530.869 325.597 531.341 325.816V323.032C531.341 319.677 528.621 316.957 525.266 316.957H498.253C494.898 316.957 492.178 319.677 492.178 323.032V325.816C492.65 325.597 493.177 325.472 493.734 325.472Z" stroke="#00384A" stroke-width="1.875" stroke-linejoin="round"/>
<path d="M529.785 344.52H493.734C493.177 344.52 492.65 344.395 492.178 344.176V346.96C492.178 350.315 494.898 353.035 498.253 353.035H525.266C528.621 353.035 531.341 350.315 531.341 346.96V344.176C530.869 344.395 530.342 344.52 529.785 344.52Z" stroke="#00384A" stroke-width="1.875" stroke-linejoin="round"/>
<path d="M529.785 344.52H493.733C491.684 344.52 490.027 342.86 490.027 340.815V338.027C490.027 336.771 490.652 335.668 491.607 334.996C492.211 335.421 492.943 335.671 493.736 335.671H529.788C530.581 335.671 531.314 335.421 531.918 334.996C532.87 335.668 533.497 336.775 533.497 338.027V340.815C533.497 342.86 531.837 344.52 529.792 344.52H529.785Z" stroke="#00384A" stroke-width="1.875" stroke-linejoin="round"/>
<path d="M529.785 325.473H493.733C491.686 325.473 490.027 327.132 490.027 329.178V331.966C490.027 334.013 491.686 335.672 493.733 335.672H529.785C531.831 335.672 533.491 334.013 533.491 331.966V329.178C533.491 327.132 531.831 325.473 529.785 325.473Z" stroke="#00384A" stroke-width="1.875" stroke-linejoin="round"/>
<path d="M463.232 21.4297V9.52569H465.344L467.824 15.9897C468.304 17.2857 469.024 19.7177 469.024 19.7177H469.056C469.056 19.7177 469.792 17.3017 470.272 15.9897L472.704 9.52569H474.88V21.4297H473.312V14.2297C473.312 13.1737 473.408 11.1737 473.408 11.1737H473.376C473.376 11.1737 472.896 12.9657 472.544 13.8937L469.648 21.4297H468.368L465.472 13.8937C465.136 12.9657 464.64 11.1737 464.64 11.1737H464.608C464.608 11.1737 464.704 13.1737 464.704 14.2297V21.4297H463.232ZM481.342 21.6697C478.75 21.6697 477.134 19.6537 477.134 17.1417C477.134 14.6457 478.75 12.6297 481.342 12.6297C483.934 12.6297 485.518 14.6457 485.518 17.1417C485.518 19.6537 483.934 21.6697 481.342 21.6697ZM481.326 20.4537C483.086 20.4537 483.998 18.9977 483.998 17.1417C483.998 15.2857 483.086 13.8137 481.326 13.8137C479.566 13.8137 478.654 15.2857 478.654 17.1417C478.654 18.9977 479.566 20.4537 481.326 20.4537ZM490.874 21.6857C488.506 21.6857 487.162 20.5657 487.034 18.8217H488.538C488.714 20.0697 489.674 20.4857 490.906 20.4857C492.266 20.4857 492.842 19.8937 492.842 19.1257C492.842 18.1817 492.122 17.9417 490.602 17.6377C488.922 17.2857 487.402 16.9337 487.402 15.0457C487.402 13.5737 488.554 12.6457 490.554 12.6457C492.714 12.6457 493.786 13.6537 493.978 15.1417H492.49C492.362 14.2617 491.754 13.7657 490.522 13.7657C489.354 13.7657 488.858 14.3097 488.858 14.9657C488.858 15.8617 489.69 16.0377 491.146 16.3257C492.858 16.6617 494.33 17.0457 494.33 19.0457C494.33 20.7897 492.89 21.6857 490.874 21.6857ZM495.733 13.9897V12.8377H497.077V10.1337H498.549V12.8377H500.325V13.9897H498.549V19.4137C498.549 20.0377 498.885 20.2137 499.429 20.2137C499.685 20.2137 500.021 20.1497 500.181 20.1017H500.229V21.3497C499.829 21.4457 499.413 21.4937 499.029 21.4937C497.877 21.4777 497.077 21.0137 497.077 19.7497V13.9897H495.733ZM510.408 21.6857C508.088 21.6857 506.616 19.9257 506.616 17.1577C506.616 14.3257 508.248 12.6297 510.376 12.6297C511.592 12.6297 512.552 13.2377 513.096 14.1497H513.128C513.096 13.7657 513.08 13.1417 513.08 12.5657V9.52569H514.568V21.4297H513.096V20.1977H513.064C512.52 21.1257 511.608 21.6857 510.408 21.6857ZM510.52 20.4537C512.36 20.4537 513.16 19.0617 513.16 17.1737C513.16 15.2377 512.248 13.8777 510.52 13.8777C508.936 13.8777 508.136 15.2857 508.136 17.1737C508.136 19.0617 508.936 20.4537 510.52 20.4537ZM517.06 11.2537V9.52569H518.612V11.2537H517.06ZM517.092 21.4297V12.8377H518.58V21.4297H517.092ZM526.543 21.4297V14.0057H523.391V21.4297H521.903V14.0057H520.575V12.8377H521.903V11.7177C521.903 10.2137 522.639 9.52569 524.543 9.52569C524.687 9.52569 524.927 9.52569 525.151 9.54169V10.7737C523.759 10.6777 523.391 10.9017 523.391 11.7977V12.8377H526.543V11.6537C526.543 10.1497 527.279 9.46169 529.215 9.46169C529.359 9.46169 529.583 9.46169 529.807 9.47769V10.7097C528.399 10.6137 528.031 10.8377 528.031 11.7177V12.8377H529.791V14.0057H528.031V21.4297H526.543ZM535.311 21.6697C532.671 21.6697 531.119 19.6537 531.119 17.1417C531.119 14.6457 532.767 12.6297 535.231 12.6297C536.511 12.6297 537.503 13.1257 538.175 13.9577C538.879 14.8057 539.231 16.0377 539.231 17.4937H532.639C532.751 19.1737 533.663 20.4537 535.327 20.4537C536.511 20.4537 537.327 19.8937 537.599 18.9817H539.055C538.671 20.5817 537.295 21.6697 535.311 21.6697ZM535.231 13.7817C533.679 13.7817 532.863 14.9017 532.671 16.4217H537.647C537.567 14.7737 536.719 13.7817 535.231 13.7817ZM542.769 12.8377V14.3897H542.817C543.345 13.3977 544.225 12.7257 545.361 12.7257C545.601 12.7257 545.745 12.7577 545.905 12.8217V14.2297H545.857C545.649 14.1657 545.505 14.1497 545.249 14.1497C543.921 14.1497 542.785 15.1417 542.785 16.7577V21.4297H541.297V12.8377H542.769ZM551.255 21.6697C548.615 21.6697 547.063 19.6537 547.063 17.1417C547.063 14.6457 548.711 12.6297 551.175 12.6297C552.455 12.6297 553.447 13.1257 554.119 13.9577C554.823 14.8057 555.175 16.0377 555.175 17.4937H548.583C548.695 19.1737 549.607 20.4537 551.271 20.4537C552.455 20.4537 553.271 19.8937 553.543 18.9817H554.999C554.615 20.5817 553.239 21.6697 551.255 21.6697ZM551.175 13.7817C549.623 13.7817 548.807 14.9017 548.615 16.4217H553.591C553.511 14.7737 552.663 13.7817 551.175 13.7817ZM558.713 12.8377V14.0537H558.761C559.385 13.1897 560.233 12.6297 561.481 12.6297C563.273 12.6297 564.377 13.6377 564.377 15.4297V21.4297H562.905V15.6057C562.905 14.5017 562.185 13.8777 561.017 13.8777C559.689 13.8777 558.729 14.8217 558.729 16.1977V21.4297H557.241V12.8377H558.713ZM566.178 13.9897V12.8377H567.522V10.1337H568.994V12.8377H570.77V13.9897H568.994V19.4137C568.994 20.0377 569.33 20.2137 569.874 20.2137C570.13 20.2137 570.466 20.1497 570.626 20.1017H570.674V21.3497C570.274 21.4457 569.858 21.4937 569.474 21.4937C568.322 21.4777 567.522 21.0137 567.522 19.7497V13.9897H566.178ZM572.763 11.2537V9.52569H574.315V11.2537H572.763ZM572.795 21.4297V12.8377H574.283V21.4297H572.795ZM579.367 21.6057C577.735 21.6057 576.455 20.8057 576.455 19.1577C576.455 17.1577 577.927 16.7257 580.151 16.4537C581.415 16.3097 582.231 16.1017 582.231 15.2217C582.231 14.2937 581.575 13.7177 580.391 13.7177C579.031 13.7177 578.375 14.3577 578.327 15.3817H576.887C576.951 13.9257 578.055 12.6297 580.375 12.6297C581.191 12.6297 581.911 12.7737 582.455 13.0937C583.175 13.5257 583.607 14.2777 583.607 15.4297V19.4457C583.607 20.1337 583.767 20.5017 584.519 20.3417H584.583V21.3817C584.375 21.4457 584.135 21.5097 583.783 21.5097C582.871 21.5097 582.423 21.0777 582.263 20.1657H582.247C581.703 20.9177 580.823 21.6057 579.367 21.6057ZM579.735 20.5177C581.447 20.5177 582.247 19.2537 582.247 18.2617V16.8537C581.815 17.1257 581.063 17.3337 580.359 17.4617C578.951 17.7017 578.023 17.9577 578.023 19.1417C578.023 20.2457 578.871 20.5177 579.735 20.5177ZM585.587 13.9897V12.8377H586.931V10.1337H588.403V12.8377H590.179V13.9897H588.403V19.4137C588.403 20.0377 588.739 20.2137 589.283 20.2137C589.539 20.2137 589.875 20.1497 590.035 20.1017H590.083V21.3497C589.683 21.4457 589.267 21.4937 588.883 21.4937C587.731 21.4777 586.931 21.0137 586.931 19.7497V13.9897H585.587ZM595.854 21.6697C593.214 21.6697 591.662 19.6537 591.662 17.1417C591.662 14.6457 593.31 12.6297 595.774 12.6297C597.054 12.6297 598.046 13.1257 598.718 13.9577C599.422 14.8057 599.774 16.0377 599.774 17.4937H593.182C593.294 19.1737 594.206 20.4537 595.87 20.4537C597.054 20.4537 597.87 19.8937 598.142 18.9817H599.598C599.214 20.5817 597.838 21.6697 595.854 21.6697ZM595.774 13.7817C594.222 13.7817 593.406 14.9017 593.214 16.4217H598.19C598.11 14.7737 597.262 13.7817 595.774 13.7817ZM605.168 21.6857C602.848 21.6857 601.376 19.9257 601.376 17.1577C601.376 14.3257 603.008 12.6297 605.136 12.6297C606.352 12.6297 607.312 13.2377 607.856 14.1497H607.888C607.856 13.7657 607.84 13.1417 607.84 12.5657V9.52569H609.328V21.4297H607.856V20.1977H607.824C607.28 21.1257 606.368 21.6857 605.168 21.6857ZM605.28 20.4537C607.12 20.4537 607.92 19.0617 607.92 17.1737C607.92 15.2377 607.008 13.8777 605.28 13.8777C603.696 13.8777 602.896 15.2857 602.896 17.1737C602.896 19.0617 603.696 20.4537 605.28 20.4537Z" fill="#4B4B4B"/>
</svg>
