<svg width="73" height="94" viewBox="0 0 73 94" fill="none" xmlns="http://www.w3.org/2000/svg">
<path d="M43.8297 51.011C46.8865 51.011 49.3645 48.533 49.3645 45.4762C49.3645 42.4194 46.8865 39.9414 43.8297 39.9414C40.7729 39.9414 38.2949 42.4194 38.2949 45.4762C38.2949 48.533 40.7729 51.011 43.8297 51.011Z" fill="#56179B"/>
<path d="M37.0118 59.4983L31.8065 58.7686L19.9941 83.7766H25.5457L37.0118 59.4983Z" fill="#FAF6FF"/>
<path d="M37.0134 59.499H34.2376L22.7715 83.7773L25.2922 84.3153L37.0134 59.499Z" fill="#E9D5FF"/>
<path d="M25.9959 82.2578H20.3401C20.0795 82.2578 19.8412 82.4086 19.7295 82.645L17.5364 87.2881C17.3242 87.7368 17.6519 88.2506 18.1471 88.2506H23.8029C24.0635 88.2506 24.3018 88.0998 24.4135 87.8634L26.6066 83.2203C26.8188 82.7716 26.4911 82.2578 25.9959 82.2578Z" fill="#56179B"/>
<path d="M41.0264 50.4375H35.3706C35.1099 50.4375 34.8716 50.5883 34.7599 50.8247L31.1185 58.534C30.9062 58.9826 31.2339 59.4965 31.7291 59.4965H37.3849C37.6455 59.4965 37.8838 59.3457 37.9955 59.1092L41.637 51.4C41.8492 50.9513 41.5216 50.4375 41.0264 50.4375Z" fill="#9760D2"/>
<path d="M41.024 50.4375H38.5145L34.2363 59.4965H37.3826C37.6432 59.4965 37.8815 59.3457 37.9932 59.1092L41.6347 51.4C41.8469 50.9513 41.5192 50.4375 41.024 50.4375Z" fill="#56179B"/>
<path d="M50.2214 46.3135H37.4317C37.0584 46.3135 36.7559 46.616 36.7559 46.9893V49.873C36.7559 50.2463 37.0584 50.5488 37.4317 50.5488H50.2214C50.5947 50.5488 50.8972 50.2463 50.8972 49.873V46.9893C50.8972 46.616 50.5947 46.3135 50.2214 46.3135Z" fill="#56179B"/>
<path d="M46.725 82.2578H40.9277C40.5545 82.2578 40.252 82.5604 40.252 82.9336V87.5748C40.252 87.948 40.5545 88.2506 40.9277 88.2506H46.725C47.0983 88.2506 47.4008 87.948 47.4008 87.5748V82.9336C47.4008 82.5604 47.0983 82.2578 46.725 82.2578Z" fill="#56179B"/>
<path d="M46.725 50.4375H40.9277C40.5545 50.4375 40.252 50.7401 40.252 51.1133V58.8207C40.252 59.1939 40.5545 59.4965 40.9277 59.4965H46.725C47.0983 59.4965 47.4008 59.1939 47.4008 58.8207V51.1133C47.4008 50.7401 47.0983 50.4375 46.725 50.4375Z" fill="#56179B"/>
<path d="M46.5966 59.499H41.0469V82.2581H46.5966V59.499Z" fill="#FAF6FF"/>
<path d="M46.6019 59.499H43.8262V82.2581H46.6019V59.499Z" fill="#E9D5FF"/>
<path d="M37.4298 46.3135H50.2214C50.5938 46.3135 50.8972 46.6151 50.8972 46.9893V48.4321H36.7559V46.9893C36.7559 46.6169 37.0575 46.3135 37.4316 46.3135H37.4298Z" fill="#9760D2"/>
<path d="M50.6406 59.4983L55.8459 58.7686L67.6564 83.7766H62.1068L50.6406 59.4983Z" fill="#FAF6FF"/>
<path d="M50.6406 59.499H53.4145L64.8807 83.7773L62.3599 84.3153L50.6406 59.499Z" fill="#E9D5FF"/>
<path d="M61.6529 82.2578H67.3087C67.5694 82.2578 67.8077 82.4086 67.9194 82.645L70.1124 87.2881C70.3247 87.7368 69.997 88.2506 69.5018 88.2506H63.846C63.5854 88.2506 63.3471 88.0998 63.2354 87.8634L61.0423 83.2203C60.8301 82.7716 61.1577 82.2578 61.6529 82.2578Z" fill="#56179B"/>
<path d="M46.6236 50.4375H52.2794C52.5401 50.4375 52.7784 50.5883 52.8901 50.8247L56.5315 58.534C56.7438 58.9826 56.4161 59.4965 55.9209 59.4965H50.2651C50.0045 59.4965 49.7662 59.3457 49.6545 59.1092L46.013 51.4C45.8008 50.9513 46.1284 50.4375 46.6236 50.4375Z" fill="#9760D2"/>
<path d="M46.6236 50.4375H49.1332L53.4113 59.4965H50.2651C50.0045 59.4965 49.7662 59.3457 49.6545 59.1092L46.013 51.4C45.8008 50.9513 46.1284 50.4375 46.6236 50.4375Z" fill="#56179B"/>
<path d="M36.4258 34.6562L40.3731 32.4538L45.7676 42.1221C46.3754 43.2113 45.9845 44.5892 44.8952 45.197C43.806 45.8047 42.4281 45.4138 41.8203 44.3245L36.4258 34.6562Z" fill="#E9D5FF"/>
<path d="M38.4004 33.5527L40.374 32.4515L45.7686 42.1198C46.3764 43.209 45.9854 44.5869 44.8962 45.1947L38.4004 33.5527Z" fill="#FAF6FF"/>
<path d="M24.4293 28.3039L34.7739 22.5319L42.0943 35.6517L31.7497 41.4236C31.3026 41.6731 30.7362 41.5137 30.4858 41.065L24.0698 29.5661C23.8204 29.119 23.9797 28.5526 24.4284 28.3022L24.4293 28.3039Z" fill="#56179B"/>
<path d="M24.4288 28.3031L34.7733 22.5312L38.4335 29.0911L27.2793 35.3147L24.0718 29.5661C23.8223 29.119 23.9817 28.5526 24.4304 28.3022L24.4288 28.3031Z" fill="#9760D2"/>
<path d="M24.2029 29.7995L16.3457 34.1836L22.4986 45.211L30.3558 40.8269L24.2029 29.7995Z" fill="#E9D5FF"/>
<path d="M24.2029 29.7995L16.3457 34.1836L19.4226 39.6981L27.2798 35.3141L24.2029 29.7995Z" fill="#FAF6FF"/>
<path d="M45.9319 16.3021L34.7695 22.5303L42.0899 35.65L53.2522 29.4218L45.9319 16.3021Z" fill="#E9D5FF"/>
<path d="M45.9319 16.304L34.7695 22.5322L38.4297 29.0921L49.592 22.8639L45.9319 16.304Z" fill="#FAF6FF"/>
<path d="M13.4215 35.8146L16.3446 34.1836L22.4975 45.211L19.5744 46.842C19.1274 47.0915 18.5609 46.9321 18.3105 46.4834L13.062 37.0769C12.8126 36.6298 12.9719 36.0633 13.4206 35.813L13.4215 35.8146Z" fill="#56179B"/>
<path d="M13.4229 35.8139L16.346 34.1829L19.4229 39.6974L15.6902 41.7801L13.0659 37.0769C12.8165 36.6298 12.9758 36.0633 13.4245 35.813L13.4229 35.8139Z" fill="#9760D2"/>
<path d="M70.8897 20.5068C71.8576 19.9667 70.8277 16.2768 68.5893 12.2651C66.3509 8.25342 63.7517 5.43911 62.7838 5.97917C61.8159 6.51923 62.8458 10.2092 65.0842 14.2208C67.3226 18.2325 69.9218 21.0468 70.8897 20.5068Z" fill="#BA91E8"/>
<path d="M58.7514 7.15021L48.6523 12.7852L57.6799 28.9645L67.779 23.3296L58.7514 7.15021Z" fill="#E9D5FF"/>
<path d="M58.7515 7.14923L48.6523 12.7842L53.1661 20.8739L63.2652 15.2389L58.7515 7.14923Z" fill="#FAF6FF"/>
<path d="M45.8913 14.3208L48.6518 12.7805L57.6794 28.9599L54.9189 30.5002C54.4718 30.7496 53.9053 30.5903 53.655 30.1416L45.5327 15.5847C45.2833 15.1376 45.4426 14.5712 45.8913 14.3208Z" fill="#56179B"/>
<path d="M45.8922 14.3195L48.6527 12.7792L53.1665 20.8689L49.5948 22.8618L45.5327 15.5818C45.2833 15.1347 45.4426 14.5682 45.8913 14.3179L45.8922 14.3195Z" fill="#9760D2"/>
<path d="M13.3578 37.6084L2.29376 43.7799C1.83764 44.0349 1.93259 44.7182 2.44083 44.8392L14.1099 47.6094C14.5325 47.7099 14.9793 47.6485 15.3591 47.4362L18.0138 45.9543L13.3578 37.6084Z" fill="#56179B"/>
<path d="M70.5442 21.7915L67.7837 23.3318L58.7562 7.1524L61.5167 5.61214C61.9638 5.36268 62.5302 5.52203 62.7806 5.97073L70.9028 20.5276C71.1523 20.9747 70.9929 21.5412 70.5442 21.7915Z" fill="#56179B"/>
<path d="M66.8438 13.252L63.272 15.2449L58.7582 7.15518L61.5187 5.61491C61.9658 5.36546 62.5323 5.5248 62.7826 5.97351L66.8438 13.252Z" fill="#9760D2"/>
<mask id="mask0_2122_20249" style="mask-type:luminance" maskUnits="userSpaceOnUse" x="2" y="37" width="17" height="11">
<path d="M13.3578 37.6094L2.29376 43.7809C1.83764 44.0359 1.93259 44.7192 2.44083 44.8402L14.1099 47.6104C14.5325 47.7109 14.9793 47.6495 15.3591 47.4372L18.0138 45.9553L13.3578 37.6094Z" fill="white"/>
</mask>
<g mask="url(#mask0_2122_20249)">
<path d="M13.3621 37.6094L1.01172 44.4995L7.89251 46.134L15.6893 41.7833L13.3621 37.6094Z" fill="#9760D2"/>
</g>
</svg>
