<svg width="48" height="48" viewBox="0 0 48 48" fill="none" xmlns="http://www.w3.org/2000/svg">
<g clip-path="url(#clip0_2135_23448)">
<g clip-path="url(#clip1_2135_23448)">
<path d="M24.8331 26.4026C26.606 26.4026 28.0432 24.9654 28.0432 23.1925C28.0432 21.4196 26.606 19.9824 24.8331 19.9824C23.0602 19.9824 21.623 21.4196 21.623 23.1925C21.623 24.9654 23.0602 26.4026 24.8331 26.4026Z" fill="#282727"/>
<path d="M20.8797 31.3276L17.8607 30.9043L11.0098 45.4085H14.2296L20.8797 31.3276Z" fill="#EDF0F1"/>
<path d="M20.8831 31.3262H19.2732L12.623 45.4071L14.085 45.7192L20.8831 31.3262Z" fill="#CCCCCC"/>
<path d="M14.4933 44.5254H11.213C11.0619 44.5254 10.9237 44.6129 10.8589 44.75L9.58695 47.4429C9.46386 47.7031 9.6539 48.0011 9.94111 48.0011H13.2214C13.3725 48.0011 13.5107 47.9136 13.5755 47.7765L14.8475 45.0836C14.9706 44.8234 14.7805 44.5254 14.4933 44.5254Z" fill="#282727"/>
<path d="M23.2083 26.0703H19.9281C19.7769 26.0703 19.6387 26.1578 19.5739 26.2949L17.462 30.7661C17.3389 31.0263 17.5289 31.3243 17.8161 31.3243H21.0964C21.2475 31.3243 21.3857 31.2369 21.4505 31.0998L23.5625 26.6285C23.6856 26.3683 23.4956 26.0703 23.2083 26.0703Z" fill="#77CFFB"/>
<path d="M23.2102 26.0703H21.7547L19.2734 31.3243H21.0982C21.2494 31.3243 21.3876 31.2369 21.4524 31.0998L23.5643 26.6285C23.6874 26.3683 23.4974 26.0703 23.2102 26.0703Z" fill="#282727"/>
<path d="M28.5422 23.6777H21.1244C20.9079 23.6777 20.7324 23.8532 20.7324 24.0697V25.7422C20.7324 25.9587 20.9079 26.1342 21.1244 26.1342H28.5422C28.7587 26.1342 28.9342 25.9587 28.9342 25.7422V24.0697C28.9342 23.8532 28.7587 23.6777 28.5422 23.6777Z" fill="#282727"/>
<path d="M26.514 44.5254H23.1517C22.9352 44.5254 22.7598 44.7009 22.7598 44.9173V47.6091C22.7598 47.8256 22.9352 48.0011 23.1517 48.0011H26.514C26.7305 48.0011 26.906 47.8256 26.906 47.6091V44.9173C26.906 44.7009 26.7305 44.5254 26.514 44.5254Z" fill="#282727"/>
<path d="M26.514 26.0703H23.1517C22.9352 26.0703 22.7598 26.2458 22.7598 26.4623V30.9324C22.7598 31.1489 22.9352 31.3243 23.1517 31.3243H26.514C26.7305 31.3243 26.906 31.1489 26.906 30.9324V26.4623C26.906 26.2458 26.7305 26.0703 26.514 26.0703Z" fill="#282727"/>
<path d="M26.4394 31.3262H23.2207V44.526H26.4394V31.3262Z" fill="#EDF0F1"/>
<path d="M26.4439 31.3262H24.834V44.526H26.4439V31.3262Z" fill="#CCCCCC"/>
<path d="M21.1233 23.6777H28.5422C28.7582 23.6777 28.9342 23.8527 28.9342 24.0697V24.9065H20.7324V24.0697C20.7324 23.8537 20.9073 23.6777 21.1244 23.6777H21.1233Z" fill="#444444"/>
<path d="M28.7871 31.3276L31.8061 30.9043L38.656 45.4085H35.4372L28.7871 31.3276Z" fill="#EDF0F1"/>
<path d="M28.7871 31.3262H30.3959L37.0461 45.4071L35.5841 45.7192L28.7871 31.3262Z" fill="#CCCCCC"/>
<path d="M35.1735 44.5254H38.4538C38.605 44.5254 38.7432 44.6129 38.8079 44.75L40.0799 47.4429C40.203 47.7031 40.0129 48.0011 39.7257 48.0011H36.4455C36.2943 48.0011 36.1561 47.9136 36.0913 47.7765L34.8194 45.0836C34.6963 44.8234 34.8863 44.5254 35.1735 44.5254Z" fill="#282727"/>
<path d="M26.4567 26.0703H29.737C29.8882 26.0703 30.0264 26.1578 30.0912 26.2949L32.2031 30.7661C32.3262 31.0263 32.1362 31.3243 31.849 31.3243H28.5687C28.4175 31.3243 28.2793 31.2369 28.2146 31.0998L26.1026 26.6285C25.9795 26.3683 26.1695 26.0703 26.4567 26.0703Z" fill="#77CFFB"/>
<path d="M26.4567 26.0703H27.9122L30.3935 31.3243H28.5687C28.4175 31.3243 28.2793 31.2369 28.2146 31.0998L26.1026 26.6285C25.9795 26.3683 26.1695 26.0703 26.4567 26.0703Z" fill="#282727"/>
<path d="M20.5391 16.916L22.8284 15.6386L25.9572 21.2461C26.3097 21.8778 26.0829 22.6769 25.4512 23.0294C24.8194 23.3819 24.0203 23.1552 23.6678 22.5234L20.5391 16.916Z" fill="#CCCCCC"/>
<path d="M21.6855 16.2793L22.8302 15.6406L25.959 21.248C26.3115 21.8798 26.0847 22.6789 25.453 23.0314L21.6855 16.2793Z" fill="#EDF0F1"/>
<path d="M13.5824 13.2326L19.582 9.88495L23.8277 17.4941L17.828 20.8418C17.5687 20.9864 17.2402 20.894 17.095 20.6338L13.3739 13.9646C13.2292 13.7053 13.3216 13.3768 13.5818 13.2316L13.5824 13.2326Z" fill="#282727"/>
<path d="M13.5848 13.2321L19.5845 9.88453L21.7073 13.6891L15.2381 17.2987L13.3778 13.9646C13.2331 13.7054 13.3255 13.3768 13.5857 13.2316L13.5848 13.2321Z" fill="#444444"/>
<path d="M13.4535 14.0999L8.89648 16.6426L12.4651 23.0383L17.0221 20.4956L13.4535 14.0999Z" fill="#CCCCCC"/>
<path d="M13.4535 14.0999L8.89648 16.6426L10.681 19.8409L15.2381 17.2982L13.4535 14.0999Z" fill="#EDF0F1"/>
<path d="M26.0579 6.27057L19.584 9.88281L23.8297 17.492L30.3036 13.8798L26.0579 6.27057Z" fill="#CCCCCC"/>
<path d="M26.0579 6.27057L19.584 9.88281L21.7068 13.6874L28.1808 10.0752L26.0579 6.27057Z" fill="#EDF0F1"/>
<path d="M7.19955 17.5939L8.89488 16.6479L12.4635 23.0436L10.7681 23.9896C10.5088 24.1343 10.1803 24.0418 10.0351 23.7816L6.99104 18.326C6.84636 18.0667 6.93878 17.7381 7.19902 17.5929L7.19955 17.5939Z" fill="#282727"/>
<path d="M7.19808 17.5935L8.89341 16.6475L10.678 19.8458L8.51306 21.0538L6.99104 18.326C6.84636 18.0667 6.93878 17.7381 7.19902 17.5929L7.19808 17.5935Z" fill="#444444"/>
<path d="M40.5322 8.71212C41.0935 8.3989 40.4962 6.25881 39.198 3.93211C37.8998 1.6054 36.3923 -0.0268492 35.8309 0.286374C35.2695 0.599598 35.8669 2.73968 37.1651 5.06639C38.4633 7.3931 39.9708 9.02535 40.5322 8.71212Z" fill="#08B3FF"/>
<path d="M33.4901 0.962303L27.6328 4.23047L32.8686 13.6142L38.7259 10.346L33.4901 0.962303Z" fill="#CCCCCC"/>
<path d="M33.4901 0.962302L27.6328 4.23047L30.2507 8.92234L36.108 5.65417L33.4901 0.962302Z" fill="#EDF0F1"/>
<path d="M26.0311 5.12419L27.6321 4.23087L32.8679 13.6146L31.2669 14.5079C31.0076 14.6526 30.679 14.5602 30.5338 14.2999L25.8231 5.85723C25.6784 5.59793 25.7708 5.2694 26.0311 5.12419Z" fill="#282727"/>
<path d="M26.0316 5.12514L27.6326 4.23181L30.2505 8.92368L28.179 10.0795L25.8231 5.85723C25.6784 5.59793 25.7708 5.2694 26.0311 5.12419L26.0316 5.12514Z" fill="#444444"/>
<path d="M7.16346 18.6289L0.746545 22.2083C0.482008 22.3562 0.537075 22.7524 0.831845 22.8226L7.59968 24.4293C7.84478 24.4876 8.10392 24.452 8.32419 24.3289L9.8639 23.4694L7.16346 18.6289Z" fill="#282727"/>
<path d="M40.3303 9.45393L38.7292 10.3473L33.4934 0.963525L35.0945 0.0701991C35.3538 -0.0744798 35.6823 0.017938 35.8275 0.278178L40.5383 8.7209C40.6829 8.9802 40.5905 9.30873 40.3303 9.45393Z" fill="#282727"/>
<path d="M38.1855 4.50195L36.114 5.65781L33.4961 0.965939L35.0971 0.0726117C35.3564 -0.0720672 35.685 0.0203527 35.8302 0.280593L38.1855 4.50195Z" fill="#444444"/>
<mask id="mask0_2135_23448" style="mask-type:luminance" maskUnits="userSpaceOnUse" x="0" y="18" width="10" height="7">
<path d="M7.16346 18.6289L0.746545 22.2083C0.482008 22.3562 0.537075 22.7524 0.831845 22.8226L7.59968 24.4293C7.84478 24.4876 8.10392 24.452 8.32419 24.3289L9.8639 23.4694L7.16346 18.6289Z" fill="white"/>
</mask>
<g mask="url(#mask0_2135_23448)">
<path d="M7.16302 18.6289L0 22.625L3.99073 23.5731L8.5127 21.0497L7.16302 18.6289Z" fill="#444444"/>
</g>
</g>
</g>
<defs>
<clipPath id="clip0_2135_23448">
<rect width="48" height="48" fill="white"/>
</clipPath>
<clipPath id="clip1_2135_23448">
<rect width="40.742" height="48" fill="white"/>
</clipPath>
</defs>
</svg>
