<svg width="18" height="18" viewBox="0 0 18 18" fill="none" xmlns="http://www.w3.org/2000/svg">
<g clip-path="url(#clip0_2134_21938)">
<path d="M4.60057 8.75288L6.23263 7.84208L4.95481 5.55078L2.92015 6.68558L2.7159 6.80004C2.62315 6.85136 2.5896 6.96977 2.64189 7.06253L3.73224 9.01635C3.78454 9.1091 3.90196 9.14265 3.99471 9.09134L4.31442 8.91273L4.33316 8.90287L4.60254 8.75288H4.60057Z" stroke="#53686F" stroke-width="0.75" stroke-linejoin="round"/>
<path d="M14.6541 3.61933C14.8554 3.50683 14.6413 2.74011 14.1765 1.90727C13.7117 1.07344 13.172 0.489266 12.9707 0.601759L14.6551 3.61933H14.6541Z" stroke="#53686F" stroke-linejoin="round"/>
<path d="M2.70091 7.17188L0.402796 8.4537C0.308069 8.50699 0.327804 8.64908 0.433385 8.67375L2.8578 9.24904C2.94562 9.26977 3.03837 9.25694 3.11731 9.21352L3.6689 8.90564L2.7019 7.17188H2.70091Z" stroke="#53686F" stroke-width="0.75" stroke-linejoin="round"/>
<path d="M14.6552 3.6235L12.9679 0.599027C12.9156 0.50627 12.7982 0.47272 12.7054 0.524032L12.4735 0.6533L10.0333 2.01308L9.46004 2.3328C9.36729 2.3851 9.33374 2.50252 9.38603 2.59528L11.0734 5.61976C11.1257 5.71251 11.2431 5.74606 11.3358 5.69475L11.6792 5.50332L14.0079 4.20472L14.5812 3.88599C14.674 3.83369 14.7075 3.71626 14.6552 3.6235Z" stroke="#53686F" stroke-width="0.75" stroke-linejoin="round"/>
<path d="M14.1788 17.4546L10.6019 9.88008C10.5959 9.86824 10.5851 9.86133 10.5723 9.86133H7.49067C7.47784 9.86133 7.46699 9.86824 7.46107 9.88008L3.88414 17.4546C3.87822 17.4684 3.88119 17.4793 3.88612 17.4862C3.89007 17.4921 3.89796 17.501 3.91375 17.501H5.08895C5.10178 17.501 5.11263 17.4941 5.11855 17.4822L8.19224 10.9744C8.24158 10.8698 8.39748 10.9053 8.39748 11.0208V17.4684C8.39748 17.4862 8.41228 17.501 8.43004 17.501H9.63485C9.65261 17.501 9.66741 17.4862 9.66741 17.4684V11.0198C9.66741 10.9044 9.82332 10.8698 9.87265 10.9734L12.9463 17.4822C12.9513 17.4931 12.9631 17.501 12.9759 17.501H14.1512C14.1669 17.501 14.1748 17.4911 14.1788 17.4862C14.1827 17.4793 14.1867 17.4684 14.1808 17.4546H14.1788Z" fill="#53686F"/>
<path d="M10.9876 5.47158L9.46705 2.74609L7.14822 4.03976L4.9991 5.2387C4.90635 5.29001 4.8728 5.40842 4.9251 5.50118L6.25818 7.89017C6.31048 7.98293 6.4279 8.01648 6.52065 7.96516L7.43437 7.455L10.9886 5.47256L10.9876 5.47158Z" stroke="#53686F" stroke-width="0.75" stroke-linejoin="round"/>
<path d="M9.02965 7.65576C9.08293 7.65576 9.13424 7.66069 9.18555 7.6676L8.67935 6.75977L7.85938 7.21763L8.2669 7.94785C8.47017 7.76727 8.73659 7.65675 9.02965 7.65675V7.65576Z" fill="#53686F" stroke="#53686F" stroke-width="0.75" stroke-linejoin="round"/>
<path d="M10.1652 8.98147C10.174 8.92424 10.18 8.86701 10.18 8.8078C10.18 8.17231 9.66488 7.6582 9.03041 7.6582C8.39594 7.6582 7.88086 8.1733 7.88086 8.8078C7.88086 8.86701 7.88678 8.92523 7.89566 8.98147H10.1661H10.1652Z" stroke="#53686F" stroke-width="0.75" stroke-linejoin="round"/>
<path d="M10.3599 8.98047H7.70262C7.62466 8.98047 7.5625 9.04362 7.5625 9.12059V9.71957C7.5625 9.79752 7.62565 9.85969 7.70262 9.85969H10.3599C10.4379 9.85969 10.5 9.79653 10.5 9.71957V9.12059C10.5 9.04264 10.4369 8.98047 10.3599 8.98047Z" stroke="#53686F" stroke-width="0.75" stroke-linejoin="round"/>
</g>
<defs>
<clipPath id="clip0_2134_21938">
<rect width="18" height="18" fill="white"/>
</clipPath>
</defs>
</svg>
