<svg width="18" height="20" viewBox="0 0 18 20" fill="none" xmlns="http://www.w3.org/2000/svg">
<g clip-path="url(#clip0_2122_18368)">
<path d="M4.46287 9.74043L6.17128 8.78706L4.83368 6.38867L2.70386 7.57651L2.49005 7.69632C2.39296 7.75003 2.35784 7.87398 2.41258 7.97107L3.55393 10.0162C3.60867 10.1133 3.73159 10.1484 3.82868 10.0947L4.16334 9.90776L4.18296 9.89743L4.46494 9.74043H4.46287Z" stroke="#310A5C" stroke-width="0.585366" stroke-linejoin="round"/>
<path d="M14.9867 4.36746C15.1974 4.24971 14.9733 3.44714 14.4868 2.57538C14.0003 1.70258 13.4353 1.0911 13.2246 1.20885L14.9878 4.36746H14.9867Z" stroke="#310A5C" stroke-width="0.585366" stroke-linejoin="round"/>
<path d="M2.47532 8.08691L0.069712 9.42865C-0.0294457 9.48443 -0.00878812 9.63316 0.101731 9.65899L2.63955 10.2612C2.73148 10.2829 2.82857 10.2694 2.9112 10.224L3.48859 9.90172L2.47635 8.08691H2.47532Z" stroke="#310A5C" stroke-width="0.585366" stroke-linejoin="round"/>
<path d="M14.9888 4.37203L13.2225 1.20619C13.1678 1.1091 13.0449 1.07398 12.9478 1.12769L12.7051 1.263L10.1507 2.68634L9.55059 3.021C9.4535 3.07574 9.41838 3.19866 9.47313 3.29575L11.2394 6.46158C11.2941 6.55868 11.417 6.5938 11.5141 6.54009L11.8736 6.3397L14.3112 4.98041L14.9113 4.64678C15.0084 4.59204 15.0435 4.46912 14.9888 4.37203Z" stroke="#310A5C" stroke-width="0.585366" stroke-linejoin="round"/>
<path d="M14.4905 18.8485L10.7463 10.92C10.7401 10.9076 10.7288 10.9004 10.7153 10.9004H7.4896C7.47617 10.9004 7.46481 10.9076 7.45861 10.92L3.71438 18.8485C3.70818 18.863 3.71128 18.8744 3.71644 18.8816C3.72057 18.8878 3.72884 18.8971 3.74536 18.8971H4.97554C4.98897 18.8971 5.00033 18.8899 5.00653 18.8775L8.22399 12.0655C8.27563 11.956 8.43883 11.9932 8.43883 12.114V18.863C8.43883 18.8816 8.45432 18.8971 8.47291 18.8971H9.73407C9.75267 18.8971 9.76816 18.8816 9.76816 18.863V12.113C9.76816 11.9922 9.93136 11.956 9.983 12.0645L13.2005 18.8775C13.2056 18.8888 13.218 18.8971 13.2315 18.8971H14.4616C14.4782 18.8971 14.4864 18.8868 14.4905 18.8816C14.4947 18.8744 14.4988 18.863 14.4926 18.8485H14.4905Z" fill="#310A5C"/>
<path d="M11.1493 6.30697L9.55761 3.4541L7.13031 4.80823L4.88067 6.0632C4.78358 6.11691 4.74846 6.24086 4.80321 6.33796L6.19865 8.8386C6.25339 8.9357 6.3763 8.97082 6.47339 8.9171L7.42985 8.3831L11.1503 6.308L11.1493 6.30697Z" stroke="#310A5C" stroke-width="0.585366" stroke-linejoin="round"/>
<path d="M9.10001 8.59315C9.15579 8.59315 9.2095 8.59831 9.26321 8.60554L8.73333 7.65527L7.875 8.13454L8.30159 8.89888C8.51436 8.70986 8.79324 8.59418 9.10001 8.59418V8.59315Z" fill="#310A5C" stroke="#310A5C" stroke-width="0.585366" stroke-linejoin="round"/>
<path d="M10.2896 9.97984C10.2989 9.91994 10.3051 9.86003 10.3051 9.79805C10.3051 9.13287 9.76591 8.59473 9.10176 8.59473C8.43761 8.59473 7.89844 9.1339 7.89844 9.79805C7.89844 9.86003 7.90463 9.92097 7.91393 9.97984H10.2906H10.2896Z" stroke="#310A5C" stroke-width="0.585366" stroke-linejoin="round"/>
<path d="M10.4927 9.97949H7.71112C7.62952 9.97949 7.56445 10.0456 7.56445 10.1262V10.7531C7.56445 10.8347 7.63056 10.8998 7.71112 10.8998H10.4927C10.5743 10.8998 10.6394 10.8337 10.6394 10.7531V10.1262C10.6394 10.0446 10.5733 9.97949 10.4927 9.97949Z" stroke="#310A5C" stroke-width="0.585366" stroke-linejoin="round"/>
</g>
<defs>
<clipPath id="clip0_2122_18368">
<rect width="18" height="20" fill="white"/>
</clipPath>
</defs>
</svg>
