<svg width="284" height="284" viewBox="0 0 284 284" fill="none" xmlns="http://www.w3.org/2000/svg">
<g clip-path="url(#clip0_2138_25924)">
<path d="M226.823 261.717C225.562 262.347 224.244 262.977 222.869 263.493C221.436 264.066 219.946 264.639 218.398 265.097C217.653 265.326 216.908 265.555 216.163 265.784C211.864 267.045 207.165 267.904 202.121 268.362C200.86 268.477 199.599 268.592 198.339 268.649C196.734 268.706 195.014 268.763 193.352 268.763C191.002 268.763 188.71 268.763 186.36 268.763C185.73 268.763 185.099 268.763 184.411 268.763C167.275 268.878 149.68 269.394 132.658 269.279C132.142 269.279 131.569 269.279 131.053 269.279H130.422C129.849 269.279 129.276 269.279 128.703 269.279C119.476 269.222 110.363 268.935 101.709 268.362C101.25 268.305 100.792 268.305 100.333 268.248C99.6453 268.191 99.0148 268.133 98.3844 268.076C97.6966 268.019 97.0662 267.961 96.4357 267.904C53.6801 264.295 20.5531 251.92 17.1143 212.964C8.80387 118.608 14.5925 97.8122 14.5925 97.8122C14.5352 92.9426 16.5985 11.5918 118.272 11.5918C124.978 11.5918 131.397 11.6491 137.644 11.821C140.968 11.8782 144.235 11.9928 147.444 12.1647C152.259 12.3938 156.958 12.623 161.486 12.9667C163.378 13.0813 165.269 13.2532 167.103 13.4251C235.879 19.555 269.808 42.3561 269.808 104.973C269.808 168.106 271.47 239.431 226.823 261.717Z" fill="#0C87CA"/>
<mask id="mask0_2138_25924" style="mask-type:alpha" maskUnits="userSpaceOnUse" x="12" y="11" width="258" height="259">
<path d="M226.812 261.754C225.551 262.384 224.233 263.015 222.858 263.53C221.425 264.103 219.935 264.676 218.388 265.135C217.643 265.364 216.898 265.593 216.153 265.823C211.855 267.083 207.156 267.943 202.113 268.401C200.853 268.516 199.592 268.631 198.331 268.688C196.727 268.745 195.007 268.803 193.345 268.803C190.996 268.803 188.704 268.803 186.354 268.803C185.724 268.803 185.093 268.803 184.406 268.803C167.271 268.917 149.678 269.433 132.658 269.318C132.143 269.318 131.57 269.318 131.054 269.318H130.423C129.85 269.318 129.277 269.318 128.704 269.318C119.478 269.261 110.366 268.974 101.713 268.401C101.255 268.344 100.796 268.344 100.338 268.287C99.6501 268.229 99.0197 268.172 98.3893 268.115C97.7017 268.058 97.0713 268 96.4409 267.943C53.6906 264.333 20.5677 251.955 17.1293 212.986C8.81997 118.603 14.6079 97.8013 14.6079 97.8013C14.5506 92.9303 16.6136 11.5557 118.275 11.5557C124.979 11.5557 131.398 11.613 137.644 11.7849C140.968 11.8422 144.234 11.9568 147.443 12.1287C152.257 12.3579 156.956 12.5872 161.483 12.931C163.374 13.0456 165.265 13.2175 167.099 13.3895C235.867 19.5212 269.792 42.329 269.792 104.965C269.792 168.116 271.454 239.462 226.812 261.754Z" fill="#444444"/>
</mask>
<g mask="url(#mask0_2138_25924)">
<path d="M108.932 -6.18555L261.431 20.9882L295.584 200.067L126.157 149.135L115.317 126.862L108.932 -6.18555Z" fill="#CDEEF7"/>
</g>
<path d="M218.304 199.326C218.291 200.083 218.172 200.385 217.78 200.777C217.591 200.966 217.756 201.308 218.024 201.309C218.568 201.311 218.81 201.532 219.11 202.009C219.26 202.247 219.619 202.122 219.604 201.841C219.567 201.151 219.695 200.833 220.099 200.519C220.308 200.356 220.217 199.992 219.956 199.944C219.47 199.855 219.175 199.648 218.86 199.177C218.705 198.944 218.308 199.046 218.304 199.326Z" fill="white"/>
<path d="M246.907 145.432C246.895 146.189 246.775 146.492 246.383 146.883C246.194 147.073 246.36 147.414 246.627 147.415C247.171 147.418 247.414 147.639 247.714 148.115C247.864 148.353 248.222 148.228 248.207 147.947C248.171 147.257 248.298 146.939 248.702 146.625C248.912 146.463 248.82 146.098 248.559 146.05C248.074 145.961 247.778 145.755 247.464 145.283C247.308 145.05 246.912 145.152 246.907 145.432Z" fill="#0C87CA"/>
<path d="M189.792 226.289C189.78 227.046 189.66 227.348 189.268 227.74C189.079 227.929 189.244 228.271 189.512 228.272C190.056 228.274 190.298 228.495 190.599 228.972C190.749 229.21 191.107 229.085 191.092 228.804C191.056 228.114 191.183 227.796 191.587 227.482C191.797 227.319 191.705 226.955 191.444 226.907C190.959 226.818 190.663 226.611 190.348 226.14C190.193 225.907 189.797 226.009 189.792 226.289Z" fill="white"/>
<path d="M135.338 60.3477C135.329 61.2046 135.202 61.5211 134.755 61.9574C134.563 62.1444 134.728 62.4867 134.996 62.4821C135.619 62.4712 135.875 62.7165 136.213 63.2643C136.36 63.5038 136.72 63.3793 136.702 63.0984C136.652 62.3132 136.789 61.9734 137.253 61.6267C137.465 61.4678 137.374 61.1033 137.112 61.0599C136.56 60.9683 136.239 60.7431 135.887 60.1997C135.736 59.9647 135.34 60.0679 135.338 60.3477Z" fill="#0C87CA"/>
<path d="M222.872 214.135C222.351 215.715 222.063 216.011 220.951 216.476C220.704 216.579 220.749 216.955 221.009 217.017C222.242 217.306 222.395 217.811 222.642 219.081C222.696 219.357 223.079 219.356 223.143 219.082C223.498 217.566 223.842 217.196 224.937 216.932C225.195 216.87 225.227 216.497 224.985 216.387C223.99 215.934 223.648 215.452 223.412 214.177C223.362 213.902 222.959 213.869 222.872 214.135Z" fill="white"/>
<path d="M251.475 160.242C250.954 161.822 250.667 162.118 249.555 162.583C249.307 162.687 249.352 163.063 249.613 163.124C250.845 163.413 250.998 163.918 251.245 165.188C251.299 165.465 251.683 165.464 251.747 165.19C252.101 163.673 252.445 163.304 253.54 163.04C253.798 162.977 253.83 162.605 253.589 162.495C252.593 162.042 252.251 161.559 252.016 160.284C251.965 160.009 251.563 159.976 251.475 160.242Z" fill="#0C87CA"/>
<path d="M124.492 57.2358C123.928 58.9599 123.633 59.2582 122.418 59.7615C122.17 59.864 122.216 60.2396 122.477 60.2986C123.829 60.6042 123.976 61.1403 124.244 62.5291C124.298 62.8054 124.682 62.8036 124.745 62.5293C125.126 60.8724 125.486 60.4906 126.682 60.2099C126.94 60.1493 126.972 59.7772 126.73 59.6691C125.639 59.1823 125.28 58.6741 125.03 57.278C124.981 57.0025 124.579 56.9699 124.492 57.2358Z" fill="#0C87CA"/>
<path d="M215.986 233.985C215.071 236.878 214.733 237.166 212.687 237.986C212.439 238.086 212.483 238.459 212.746 238.508C215.078 238.941 215.143 239.713 215.599 242.069C215.653 242.345 216.039 242.341 216.098 242.066C216.693 239.264 217.158 238.805 219.177 238.386C219.437 238.332 219.468 237.961 219.223 237.861C217.364 237.102 216.88 236.41 216.511 234.029C216.468 233.752 216.07 233.718 215.986 233.985Z" fill="white"/>
<path opacity="0.2" d="M51.0153 125.17C51.0153 125.607 50.6639 125.959 50.2264 125.959C49.7889 125.959 49.4375 125.743 49.4375 125.17C49.4375 124.732 49.7889 124.381 50.2264 124.381C50.6567 124.381 51.0153 124.668 51.0153 125.17Z" fill="white"/>
<path opacity="0.2" d="M68.6344 124.908C68.6344 125.346 68.283 125.697 67.8455 125.697C67.4081 125.697 67.0566 125.482 67.0566 124.908C67.0566 124.471 67.4081 124.119 67.8455 124.119C68.2758 124.119 68.6344 124.406 68.6344 124.908Z" fill="white"/>
<path opacity="0.2" d="M49.4364 163.036C49.4364 163.62 49.0265 164.088 48.5161 164.088C48.0057 164.088 47.5957 163.801 47.5957 163.036C47.5957 162.453 48.0057 161.984 48.5161 161.984C49.0181 161.984 49.4364 162.367 49.4364 163.036Z" fill="white"/>
<path opacity="0.2" d="M134.109 114.389C134.109 115.118 133.465 115.704 132.663 115.704C131.861 115.704 131.217 115.345 131.217 114.389C131.217 113.66 131.861 113.074 132.663 113.074C133.452 113.074 134.109 113.552 134.109 114.389Z" fill="white"/>
<path opacity="0.2" d="M83.8867 148.968C83.8867 149.77 83.2425 150.414 82.4404 150.414C81.6384 150.414 80.9941 150.02 80.9941 148.968C80.9941 148.166 81.6384 147.521 82.4404 147.521C83.2293 147.521 83.8867 148.047 83.8867 148.968Z" fill="white"/>
<path opacity="0.2" d="M28.6628 158.304C28.6628 159.033 28.0771 159.619 27.348 159.619C26.6189 159.619 26.0332 159.26 26.0332 158.304C26.0332 157.575 26.6189 156.989 27.348 156.989C28.0652 156.989 28.6628 157.467 28.6628 158.304Z" fill="white"/>
<path opacity="0.2" d="M110.181 92.0365C110.181 92.7656 109.654 93.3513 108.998 93.3513C108.342 93.3513 107.814 92.9927 107.814 92.0365C107.814 91.3074 108.342 90.7217 108.998 90.7217C109.643 90.7217 110.181 91.1998 110.181 92.0365Z" fill="white"/>
<path opacity="0.2" d="M132.27 257.178C132.27 257.907 131.685 258.493 130.955 258.493C130.226 258.493 129.641 258.134 129.641 257.178C129.641 256.449 130.226 255.863 130.955 255.863C131.673 255.863 132.27 256.341 132.27 257.178Z" fill="white"/>
<path opacity="0.2" d="M181.445 254.68C181.445 255.337 180.801 255.864 179.999 255.864C179.197 255.864 178.553 255.541 178.553 254.68C178.553 254.024 179.197 253.497 179.999 253.497C180.788 253.497 181.445 253.927 181.445 254.68Z" fill="white"/>
<path d="M131.832 204.103C132.563 203.989 133.57 206.657 133.453 207.07C133.084 208.367 117.81 214.624 115.34 214.726C117.119 213.523 128.696 205.336 129.544 205.252C131.958 205.01 130.708 207.542 131.26 207.74C132.711 208.259 132.439 205.322 131.927 204.964C131.248 204.49 128.255 205.738 131.832 204.103Z" fill="#FF6363"/>
<path d="M186.458 171.565C184.734 172.157 176.129 176.178 173.969 177.307C167.758 180.554 160.917 185.283 154.713 188.791C149.398 189.676 133.87 188.616 132.787 188.791C132.345 188.863 128.086 190.98 128.115 191.375C131.809 193.082 135.293 195.329 138.983 197.213C140.435 197.954 141.85 197.333 137.934 200.849C136.609 202.04 134.349 203.279 134.026 203.529C133.76 203.734 133.352 203.646 133.454 204.103C135.682 206.542 134.836 208.729 137.553 208.314C138.808 208.122 139.441 206.075 141.08 208.505C141.881 206.089 142.703 203.642 143.178 201.136C154.921 193.102 151.894 196.179 147.753 206.782C155.367 203.072 154.069 200.496 154.903 199.509L186.934 179.795C191.689 176.415 193.328 173.715 196.944 169.364C193.447 169.992 189.811 170.415 186.458 171.565ZM159.193 187.643C161.892 185.927 164.656 184.321 167.392 182.666C172.265 187.502 160.129 193.981 159.193 187.643Z" fill="white"/>
<path d="M147.751 206.782L142.889 215.587C132.511 220.943 122.576 227.112 112.383 232.812L111.906 232.525C120.026 227.296 128.992 223.324 136.978 217.883C137.123 217.784 137.273 217.977 137.36 218.075C138.316 217.385 138.363 216.625 138.408 216.543C138.97 215.532 139.167 214.54 139.552 213.481C140.142 211.858 140.534 210.144 141.077 208.505C141.878 206.089 142.7 203.641 143.175 201.136C154.918 193.102 151.891 196.179 147.751 206.782Z" fill="white"/>
<path d="M159.193 187.641C161.892 185.926 164.657 184.32 167.392 182.665C172.265 187.501 160.129 193.979 159.193 187.641Z" fill="#444444"/>
<path d="M109.83 201.86C109.83 201.67 109.83 201.476 109.83 201.286C112.98 199.801 124.156 192.748 125.369 192.29C125.733 192.153 126.336 191.833 126.418 192.386C126.558 193.334 111.456 200.577 109.83 201.86Z" fill="#FFFEFF"/>
<path d="M160.643 174.681C161.474 174.608 158.939 176.157 157.593 176.978C151.98 180.402 146.105 183.494 140.338 186.644C146.751 182.087 153.94 178.781 160.643 174.681Z" fill="#FFFEFF"/>
<path d="M152.445 222.148C153.088 222.128 151.979 222.844 151.873 222.913C145.665 226.983 138.748 230.197 132.33 233.919C138.694 229.448 145.765 226.109 152.445 222.148Z" fill="#C8C8C8"/>
<path d="M168.841 198.415C168.961 198.397 169.09 198.393 169.127 198.511C162.613 202.517 155.902 206.409 149.107 209.994C151.352 208.392 167.71 198.586 168.841 198.415Z" fill="#FFFEFF"/>
<g clip-path="url(#clip1_2138_25924)">
<path d="M73.1589 199.499C77.4158 199.499 80.8667 196.048 80.8667 191.791C80.8667 187.534 77.4158 184.083 73.1589 184.083C68.9021 184.083 65.4512 187.534 65.4512 191.791C65.4512 196.048 68.9021 199.499 73.1589 199.499Z" fill="#282727"/>
<path d="M63.6721 211.317L56.4206 210.301L28.7266 268.94H36.4577L63.6721 211.317Z" fill="#EDF0F1"/>
<path d="M63.6737 211.317H59.8082L32.5938 268.94L36.1067 269.687L63.6737 211.317Z" fill="#CCCCCC"/>
<path d="M36.0871 268.94H28.2108C27.8479 268.94 27.516 269.15 27.3605 269.48L24.3064 275.946C24.0108 276.57 24.4671 277.286 25.1568 277.286H33.0331C33.396 277.286 33.7279 277.076 33.8834 276.747L36.9375 270.281C37.2331 269.656 36.7768 268.94 36.0871 268.94Z" fill="#282727"/>
<path d="M69.2604 198.701H61.3841C61.0212 198.701 60.6893 198.911 60.5337 199.24L55.4626 209.976C55.1671 210.601 55.6234 211.317 56.313 211.317H64.1893C64.5523 211.317 64.8841 211.107 65.0397 210.777L70.1108 200.042C70.4063 199.417 69.95 198.701 69.2604 198.701Z" fill="#444444"/>
<path d="M69.2631 198.701H65.7683L59.8105 211.317H64.192C64.555 211.317 64.8868 211.107 65.0424 210.777L70.1135 200.042C70.4091 199.417 69.9528 198.701 69.2631 198.701Z" fill="#282727"/>
<path d="M77.1961 268.94H69.1227C68.603 268.94 68.1816 269.362 68.1816 269.882V276.345C68.1816 276.865 68.603 277.286 69.1227 277.286H77.1961C77.7158 277.286 78.1372 276.865 78.1372 276.345V269.882C78.1372 269.362 77.7158 268.94 77.1961 268.94Z" fill="#282727"/>
<path d="M77.1961 198.701H69.1227C68.603 198.701 68.1816 199.123 68.1816 199.642V210.376C68.1816 210.895 68.603 211.317 69.1227 211.317H77.1961C77.7158 211.317 78.1372 210.895 78.1372 210.376V199.642C78.1372 199.123 77.7158 198.701 77.1961 198.701Z" fill="#282727"/>
<path d="M82.0667 192.957H64.2556C63.7358 192.957 63.3145 193.378 63.3145 193.898V197.914C63.3145 198.434 63.7358 198.855 64.2556 198.855H82.0667C82.5864 198.855 83.0078 198.434 83.0078 197.914V193.898C83.0078 193.378 82.5864 192.957 82.0667 192.957Z" fill="#282727"/>
<path d="M77.0234 211.317H69.2949V268.938H77.0234V211.317Z" fill="#EDF0F1"/>
<path d="M77.0238 211.317H73.1582V268.938H77.0238V211.317Z" fill="#CCCCCC"/>
<path d="M82.6465 211.317L89.898 210.301L117.592 268.94H109.861L82.6465 211.317Z" fill="#EDF0F1"/>
<path d="M82.6465 211.317H86.512L113.726 268.94L110.214 269.687L82.6465 211.317Z" fill="#CCCCCC"/>
<path d="M110.233 268.94H118.109C118.472 268.94 118.804 269.15 118.96 269.48L122.014 275.946C122.309 276.57 121.853 277.286 121.163 277.286H113.287C112.924 277.286 112.592 277.076 112.437 276.747L109.383 270.281C109.087 269.656 109.543 268.94 110.233 268.94Z" fill="#282727"/>
<path d="M77.0571 198.701H84.9334C85.2964 198.701 85.6283 198.911 85.7838 199.24L90.8549 209.976C91.1505 210.601 90.6942 211.317 90.0046 211.317H82.1283C81.7653 211.317 81.4334 211.107 81.2779 210.777L76.2068 200.042C75.9112 199.417 76.3675 198.701 77.0571 198.701Z" fill="#444444"/>
<path d="M77.0571 198.701H80.552L86.5097 211.317H82.1283C81.7653 211.317 81.4334 211.107 81.2779 210.777L76.2068 200.042C75.9112 199.417 76.3675 198.701 77.0571 198.701Z" fill="#282727"/>
<path d="M64.253 192.957H82.0667C82.5852 192.957 83.0078 193.377 83.0078 193.898V195.907H63.3145V193.898C63.3145 193.38 63.7345 192.957 64.2556 192.957H64.253Z" fill="#444444"/>
<path d="M62.8496 176.721L68.3466 173.654L75.8591 187.118C76.7055 188.635 76.1611 190.553 74.6442 191.4C73.1273 192.246 71.2085 191.702 70.3621 190.185L62.8496 176.721Z" fill="#CCCCCC"/>
<path d="M65.5957 175.185L68.3442 173.651L75.8567 187.115C76.7031 188.632 76.1587 190.551 74.6418 191.397L65.5957 175.185Z" fill="#EDF0F1"/>
<path d="M46.1486 167.874L69.6106 154.783L79.8049 173.053L56.3429 186.144C55.7203 186.492 54.9315 186.27 54.5828 185.645L45.6479 169.632C45.3005 169.009 45.5225 168.22 46.1473 167.872L46.1486 167.874Z" fill="#282727"/>
<path d="M46.149 167.875L69.6109 154.784L74.7081 163.919L50.1187 177.639L45.6518 169.634C45.3044 169.011 45.5264 168.222 46.1512 167.874L46.149 167.875Z" fill="#444444"/>
<path d="M45.8333 169.959L30.3633 178.591L38.9318 193.948L54.4019 185.316L45.8333 169.959Z" fill="#CCCCCC"/>
<path d="M45.8333 169.959L30.3633 178.591L34.6482 186.27L50.1182 177.639L45.8333 169.959Z" fill="#EDF0F1"/>
<path d="M89.6841 143.582L69.6113 154.782L79.8057 173.053L99.8784 161.853L89.6841 143.582Z" fill="#CCCCCC"/>
<path d="M89.6802 143.582L69.6074 154.782L74.7046 163.918L94.7773 152.718L89.6802 143.582Z" fill="#EDF0F1"/>
<path d="M26.2931 180.861L30.3638 178.59L38.9324 193.947L34.8617 196.218C34.2391 196.565 33.4502 196.343 33.1016 195.719L25.7925 182.619C25.4451 181.996 25.667 181.208 26.2919 180.859L26.2931 180.861Z" fill="#282727"/>
<path d="M26.2954 180.86L30.3661 178.589L34.6511 186.268L29.4529 189.169L25.7983 182.619C25.4509 181.996 25.6728 181.208 26.2977 180.859L26.2954 180.86Z" fill="#444444"/>
<path d="M128.965 146.911C130.313 146.159 128.879 141.021 125.762 135.434C122.645 129.847 119.025 125.928 117.677 126.68C116.329 127.432 117.763 132.571 120.88 138.158C123.998 143.744 127.617 147.664 128.965 146.911Z" fill="#20B0FE"/>
<path d="M112.057 128.306L93.4648 138.68L106.037 161.211L124.629 150.837L112.057 128.306Z" fill="#CCCCCC"/>
<path d="M112.057 128.305L93.4648 138.679L99.7507 149.944L118.343 139.571L112.057 128.305Z" fill="#EDF0F1"/>
<path d="M89.62 140.824L93.4643 138.679L106.036 161.21L102.192 163.355C101.569 163.703 100.78 163.481 100.432 162.856L89.1206 142.584C88.7732 141.961 88.9951 141.172 89.62 140.824Z" fill="#282727"/>
<path d="M89.6212 140.824L93.4655 138.679L99.7514 149.945L94.7774 152.72L89.1206 142.582C88.7732 141.959 88.9951 141.17 89.62 140.822L89.6212 140.824Z" fill="#444444"/>
<path d="M26.2032 183.361L8.53213 193.221C7.89695 193.576 8.02917 194.528 8.73695 194.696L24.9873 198.554C25.5758 198.694 26.1981 198.608 26.7269 198.313L32.6899 194.987L26.2058 183.364L26.2032 183.361Z" fill="#282727"/>
<path d="M128.482 148.703L124.637 150.848L112.066 128.316L115.91 126.171C116.532 125.824 117.321 126.046 117.67 126.671L128.981 146.943C129.328 147.565 129.106 148.354 128.482 148.703Z" fill="#282727"/>
<path d="M123.328 136.809L118.354 139.584L112.068 128.318L115.912 126.173C116.535 125.826 117.324 126.048 117.673 126.673L123.328 136.809Z" fill="#444444"/>
<mask id="mask1_2138_25924" style="mask-type:luminance" maskUnits="userSpaceOnUse" x="8" y="183" width="25" height="16">
<path d="M26.2032 183.361L8.53213 193.221C7.89695 193.576 8.02917 194.528 8.73695 194.696L24.9873 198.554C25.5758 198.694 26.1981 198.608 26.7269 198.313L32.6899 194.987L26.2058 183.364L26.2032 183.361Z" fill="white"/>
</mask>
<g mask="url(#mask1_2138_25924)">
<path d="M26.2028 183.361L6.74023 194.219L16.3225 196.495L29.4462 189.174L26.2028 183.361Z" fill="#444444"/>
</g>
</g>
<mask id="path-66-outside-1_2138_25924" maskUnits="userSpaceOnUse" x="135.621" y="27.5869" width="146.786" height="96.7795" fill="black">
<rect fill="white" x="135.621" y="27.5869" width="146.786" height="96.7795"/>
<path d="M252.424 33.035C252.291 32.8117 252.536 32.5578 252.766 32.6794C257.379 35.1224 257.713 35.349 264.185 32.5595C264.442 32.4488 264.676 32.7672 264.49 32.9759C260.687 37.233 260.343 38.6067 261.975 43.0995C262.062 43.3392 261.791 43.5527 261.584 43.4038C259.851 42.1577 258.375 40.9203 256.939 39.3414L233.406 59.5882L214.675 102.354L177.499 90.2288L155.711 122.053L154.739 121.389L177.027 88.8347L214.027 100.905L232.437 58.8728L232.538 58.7857L256.166 38.451C254.96 37.0044 253.755 35.2704 252.424 33.035Z"/>
</mask>
<path d="M252.424 33.035C252.291 32.8117 252.536 32.5578 252.766 32.6794C257.379 35.1224 257.713 35.349 264.185 32.5595C264.442 32.4488 264.676 32.7672 264.49 32.9759C260.687 37.233 260.343 38.6067 261.975 43.0995C262.062 43.3392 261.791 43.5527 261.584 43.4038C259.851 42.1577 258.375 40.9203 256.939 39.3414L233.406 59.5882L214.675 102.354L177.499 90.2288L155.711 122.053L154.739 121.389L177.027 88.8347L214.027 100.905L232.437 58.8728L232.538 58.7857L256.166 38.451C254.96 37.0044 253.755 35.2704 252.424 33.035Z" fill="#0C87CA"/>
<path d="M252.424 33.035L251.755 33.433L251.755 33.433L252.424 33.035ZM252.766 32.6794L252.402 33.3668L252.402 33.3668L252.766 32.6794ZM264.185 32.5595L263.877 31.8453V31.8453L264.185 32.5595ZM264.49 32.9759L263.909 32.4578L263.909 32.4578L264.49 32.9759ZM261.975 43.0995L262.706 42.834L262.706 42.8339L261.975 43.0995ZM261.584 43.4038L261.13 44.0352L261.13 44.0352L261.584 43.4038ZM256.939 39.3414L257.514 38.8181L257.005 38.2583L256.432 38.7518L256.939 39.3414ZM233.406 59.5882L232.899 58.9986L232.764 59.1141L232.693 59.2762L233.406 59.5882ZM214.675 102.354L214.434 103.093L215.105 103.312L215.388 102.666L214.675 102.354ZM177.499 90.2288L177.74 89.4893L177.186 89.3087L176.857 89.7894L177.499 90.2288ZM155.711 122.053L155.273 122.695L155.914 123.133L156.353 122.492L155.711 122.053ZM154.739 121.389L154.097 120.95L153.657 121.592L154.3 122.031L154.739 121.389ZM177.027 88.8347L177.268 88.0953L176.714 87.9146L176.385 88.3953L177.027 88.8347ZM214.027 100.905L213.786 101.644L214.457 101.863L214.74 101.217L214.027 100.905ZM232.437 58.8728L231.93 58.2826L231.795 58.3982L231.724 58.5607L232.437 58.8728ZM232.538 58.7857L233.045 59.3758L233.045 59.3752L232.538 58.7857ZM256.166 38.451L256.673 39.0405L257.253 38.5411L256.763 37.953L256.166 38.451ZM252.424 33.035L253.092 32.6371C253.375 33.1122 252.843 33.6006 252.402 33.3668L252.766 32.6794L253.13 31.9921C252.229 31.515 251.206 32.5112 251.755 33.433L252.424 33.035ZM252.766 32.6794L252.402 33.3668C254.646 34.5551 256.071 35.3439 257.771 35.3594C259.439 35.3745 261.305 34.6479 264.493 33.2738L264.185 32.5595L263.877 31.8453C260.593 33.2606 259.056 33.8154 257.786 33.8039C256.548 33.7926 255.499 33.2467 253.13 31.9921L252.766 32.6794ZM264.185 32.5595L264.493 33.2738C264.239 33.3834 263.989 33.262 263.876 33.1076C263.762 32.9514 263.72 32.6695 263.909 32.4578L264.49 32.9759L265.07 33.494C265.836 32.6356 264.864 31.4199 263.877 31.8453L264.185 32.5595ZM264.49 32.9759L263.909 32.4578C262.019 34.5737 260.849 36.1132 260.44 37.7617C260.021 39.4454 260.425 41.1092 261.244 43.3651L261.975 43.0995L262.706 42.8339C261.894 40.597 261.653 39.3275 261.949 38.137C262.254 36.911 263.157 35.6352 265.07 33.494L264.49 32.9759ZM261.975 43.0995L261.244 43.365C261.16 43.1325 261.26 42.9025 261.411 42.7843C261.566 42.6636 261.827 42.6204 262.038 42.7724L261.584 43.4038L261.13 44.0352C262 44.6617 263.037 43.7431 262.706 42.834L261.975 43.0995ZM261.584 43.4038L262.038 42.7724C260.336 41.5485 258.904 40.3463 257.514 38.8181L256.939 39.3414L256.363 39.8647C257.845 41.4942 259.366 42.7669 261.13 44.0352L261.584 43.4038ZM256.939 39.3414L256.432 38.7518L232.899 58.9986L233.406 59.5882L233.913 60.1778L257.446 39.931L256.939 39.3414ZM233.406 59.5882L232.693 59.2762L213.963 102.041L214.675 102.354L215.388 102.666L234.118 59.9003L233.406 59.5882ZM214.675 102.354L214.916 101.614L177.74 89.4893L177.499 90.2288L177.257 90.9682L214.434 103.093L214.675 102.354ZM177.499 90.2288L176.857 89.7894L155.069 121.614L155.711 122.053L156.353 122.492L178.14 90.6681L177.499 90.2288ZM155.711 122.053L156.15 121.411L155.177 120.747L154.739 121.389L154.3 122.031L155.273 122.695L155.711 122.053ZM154.739 121.389L155.381 121.829L177.669 89.2741L177.027 88.8347L176.385 88.3953L154.097 120.95L154.739 121.389ZM177.027 88.8347L176.786 89.5741L213.786 101.644L214.027 100.905L214.268 100.165L177.268 88.0953L177.027 88.8347ZM214.027 100.905L214.74 101.217L233.149 59.1848L232.437 58.8728L231.724 58.5607L213.315 100.593L214.027 100.905ZM232.437 58.8728L232.943 59.4629L233.045 59.3758L232.538 58.7857L232.031 58.1956L231.93 58.2826L232.437 58.8728ZM232.538 58.7857L233.045 59.3752L256.673 39.0405L256.166 38.451L255.659 37.8614L232.031 58.1962L232.538 58.7857ZM256.166 38.451L256.763 37.953C255.591 36.5457 254.408 34.8474 253.092 32.6371L252.424 33.035L251.755 33.433C253.101 35.6934 254.33 37.463 255.568 38.9489L256.166 38.451Z" fill="#0C87CA" mask="url(#path-66-outside-1_2138_25924)"/>
<path d="M178.976 94.5713C181.546 93.6982 182.921 90.9075 182.048 88.3381C181.174 85.7687 178.384 84.3937 175.814 85.2668C173.245 86.1399 171.87 88.9305 172.743 91.4999C173.616 94.0693 176.407 95.4444 178.976 94.5713Z" fill="#20B0FE"/>
<path d="M234.391 63.5532C236.78 62.7416 238.058 60.1472 237.246 57.7586C236.435 55.37 233.84 54.0917 231.452 54.9034C229.063 55.7151 227.785 58.3094 228.597 60.698C229.408 63.0866 232.003 64.3649 234.391 63.5532Z" fill="#20B0FE"/>
<path d="M215.911 106.219C218.447 105.357 219.804 102.604 218.942 100.068C218.081 97.5331 215.327 96.1762 212.792 97.0377C210.256 97.8993 208.9 100.653 209.761 103.188C210.623 105.723 213.376 107.08 215.911 106.219Z" fill="#F5DC46"/>
<path d="M157.248 126.293C159.62 125.487 160.89 122.911 160.084 120.539C159.278 118.167 156.702 116.898 154.33 117.704C151.958 118.51 150.689 121.086 151.495 123.458C152.3 125.83 154.877 127.099 157.248 126.293Z" fill="#FF6363"/>
<path d="M55.5063 64.9698C52.5414 66.0565 49.989 68.0404 48.2041 70.6453C46.4192 73.2502 45.4906 76.3466 45.5474 79.5038L60.7335 79.2305L55.5063 64.9698Z" fill="#F5DC46"/>
<path d="M45.5449 79.2305C45.5449 83.016 46.9585 86.665 49.5087 89.4626C52.0588 92.2602 55.5617 94.0047 59.331 94.3542C63.1003 94.7037 66.8643 93.6331 69.8854 91.3521C72.9065 89.0712 74.9669 85.7443 75.663 82.0234L60.7335 79.2305L45.5449 79.2305Z" fill="#FF6363"/>
<path d="M64.949 93.8223C66.9113 93.2554 68.7392 92.2985 70.3232 91.0088C71.9072 89.7191 73.2148 88.1232 74.1678 86.3165C75.1207 84.5098 75.6995 82.5294 75.8694 80.4939C76.0393 78.4583 75.7968 76.4094 75.1566 74.4697C74.5163 72.53 73.4914 70.7394 72.1431 69.205C70.7948 67.6705 69.1509 66.4238 67.3096 65.5394C65.4684 64.655 63.4676 64.1511 61.4271 64.0578C59.3866 63.9646 57.3483 64.2838 55.434 64.9965L60.7335 79.2305L64.949 93.8223Z" fill="#20B0FE"/>
<g style="mix-blend-mode:soft-light">
<path d="M61.3567 69.174C62.6674 69.1144 64.0786 70.3018 63.8658 71.6832C63.7061 72.7199 61.7846 73.9834 60.1162 72.9518C58.5156 71.9622 58.9562 69.2833 61.3567 69.174Z" fill="white"/>
</g>
<g style="mix-blend-mode:soft-light">
<path d="M53.5859 73.9089C54.1182 73.6921 54.5626 74.2564 54.4358 74.8579C54.3543 75.2447 53.0491 76.6151 52.6427 75.9361C52.3157 75.3897 53.111 74.1022 53.5859 73.9089Z" fill="white"/>
</g>
<g style="mix-blend-mode:soft-light">
<path d="M66.371 71.6822C67.8531 71.3196 69.1138 75.3787 66.9349 74.1631C65.7323 73.4923 65.8141 71.8184 66.371 71.6822Z" fill="white"/>
</g>
<path d="M79.6212 79.1465C73.3385 85.7878 65.5267 92.6127 57.4149 96.8771C42.4068 104.767 34.4913 101.475 46.2257 86.6346C42.0679 74.8102 49.4289 64.2781 62.0445 65.0121C60.415 65.1967 61.3077 64.7783 59.9971 65.3751C55.4261 67.4566 52.43 66.9903 49.1521 71.8304C48.6599 72.5572 47.7905 73.9799 47.775 74.8429C47.198 75.6712 46.7898 77.4615 46.7422 78.63C46.5115 84.2891 48.7734 89.4806 52.5089 93.6064C60.4781 91.3934 74.2216 80.1476 78.072 73.1215C80.6563 68.4057 79.3894 66.1303 73.9406 67.7851C73.8367 67.6852 72.8084 67.7946 73.252 66.7523C74.3817 66.6697 78.5933 64.3291 81.2566 65.8915C84.4768 67.7808 80.4453 73.2112 78.9327 75.1872C73.8186 81.8677 61.5586 91.9791 53.8 95.1557C50.646 96.447 43.1956 99.1589 44.5043 92.8317C44.9222 90.8113 47.723 87.66 46.4839 87.5814C46.0604 87.5546 42.7328 93.4383 42.6108 95.0696C42.1407 101.352 51.4133 97.3039 54.3164 96.0164C63.2242 92.0656 73.1366 83.9469 79.277 76.3922C87.3453 66.4654 86.3963 60.7382 72.5634 66.408H71.7027C71.7035 66.3131 71.2365 66.0824 71.1863 66.0637C89.9144 57.5915 91.1503 66.214 79.6212 79.1465Z" fill="white"/>
</g>
<defs>
<clipPath id="clip0_2138_25924">
<rect width="284" height="284" fill="white"/>
</clipPath>
<clipPath id="clip1_2138_25924">
<rect width="122.731" height="151.283" fill="white" transform="translate(6.74023 126)"/>
</clipPath>
</defs>
</svg>
