<svg width="284" height="284" viewBox="0 0 284 284" fill="none" xmlns="http://www.w3.org/2000/svg">
<path d="M259.62 161.869C262.75 89.4831 224.888 59.9317 159.224 45.488C85.9094 29.3616 60.5495 65.9459 38.1639 134.522C15.7783 203.098 57.8883 273.031 146.387 259.618C240.008 245.429 257.031 221.707 259.62 161.869Z" fill="#CDEEF7"/>
<path d="M140.838 103.153C142.87 99.6209 142.864 95.2729 140.822 91.7464L129.503 72.1999C127.462 68.6751 123.696 66.5061 119.623 66.5092L97.0216 66.5264C92.9416 66.5295 89.174 68.7114 87.1406 72.2485L75.8766 91.8426C73.8465 95.3739 73.8535 99.7197 75.8947 103.245L87.2141 122.791C89.2563 126.317 93.0245 128.487 97.0996 128.482L119.695 128.454C123.771 128.449 127.535 126.27 129.568 122.737L140.838 103.153Z" fill="#CDEEF7"/>
<path d="M80.826 69.0982C82.8586 65.5662 82.8527 61.2182 80.8106 57.6917L69.4911 38.1452C67.4499 34.6204 63.6841 32.4514 59.6109 32.4545L37.0099 32.4717C32.9299 32.4748 29.1622 34.6567 27.1288 38.1938L15.8649 57.7879C13.8348 61.3192 13.8417 65.665 15.883 69.1898L27.2024 88.7363C29.2446 92.2628 33.0128 94.432 37.0879 94.4271L59.6829 94.3995C63.7591 94.3945 67.5229 92.2149 69.5561 88.6819L80.826 69.0982Z" fill="#0C87CA"/>
<path d="M276.232 167.399C278.265 163.867 278.259 159.519 276.217 155.993L264.897 136.446C262.856 132.921 259.09 130.752 255.017 130.755L232.416 130.772C228.336 130.776 224.568 132.957 222.535 136.495L211.271 156.089C209.241 159.62 209.248 163.966 211.289 167.491L222.609 187.037C224.651 190.564 228.419 192.733 232.494 192.728L255.089 192.7C259.165 192.695 262.929 190.516 264.962 186.983L276.232 167.399Z" fill="#77CFFB"/>
<path d="M73.5819 203.642C75.6145 200.11 75.6086 195.762 73.5664 192.236L62.247 172.689C60.2058 169.164 56.4399 166.995 52.3667 166.998L29.7657 167.016C25.6858 167.019 21.9181 169.201 19.8847 172.738L8.62072 192.332C6.59069 195.863 6.59759 200.209 8.63883 203.734L19.9582 223.28C22.0004 226.807 25.7687 228.976 29.8438 228.971L52.4387 228.943C56.515 228.938 60.2788 226.759 62.3119 223.226L73.5819 203.642Z" fill="#20B0FE"/>
<path d="M29.9053 154.738L36.1259 170.274L22.9026 184.876C22.9026 184.876 16.4662 186.278 15.8766 185.112C15.287 183.945 14.0276 181.897 14.0258 180.867C14.0241 179.838 14.6884 178.143 14.6884 178.143L29.9053 154.738Z" fill="#0C87CA"/>
<path d="M31.6391 154.938C31.6391 154.938 14.7214 182.084 14.6424 182.371C14.5633 182.658 16.4075 183.685 16.4342 183.375C16.461 183.064 35.8853 154.221 35.8853 154.221L31.6391 154.938Z" fill="#CCCCCC"/>
<path d="M35.884 154.221L40.0691 165.112C40.0691 165.112 24.3397 183.085 23.06 183.79C21.7803 184.495 16.4609 183.056 16.4609 183.056L35.884 154.221Z" fill="#EDF0F1"/>
<path d="M37.8623 153.699L17.8778 182.61L20.2 182.05L40.1695 159.756L37.8623 153.699Z" fill="#CCCCCC"/>
<path d="M40.6202 153.206L19.3767 181.73L42.4411 158.743L40.6202 153.206Z" fill="#EDF0F1"/>
<path d="M46.3473 151.325C46.3473 151.325 64.4069 199.179 64.4575 200.279C64.5092 201.382 40.8239 225.721 39.5295 226.816C38.235 227.912 34.0486 228.902 32.0503 226.559C30.0568 224.219 13.4722 181.692 13.4722 181.692C13.4722 181.692 14.9683 183.276 16.4601 183.061C17.9519 182.847 20.0603 182.941 21.7521 180.939C23.4439 178.937 46.3485 151.329 46.3485 151.329L46.3473 151.325Z" fill="#0C87CA"/>
<path d="M19.9354 182.248C25.3676 195.619 37.8026 225.819 39.0038 227.168C35.5998 228.882 32.8897 227.541 32.0524 226.557C30.0553 224.218 13.4707 181.691 13.4707 181.691C13.4707 181.691 15.9606 184.113 19.9354 182.248Z" fill="#165F87"/>
<path d="M46.3471 151.325C46.3471 151.325 22.6568 181.079 21 182.042C19.3433 183.006 16.2027 184.013 14.6578 183.03C13.1141 182.05 13.0824 180.821 13.7918 179.141C14.5024 177.465 28.8065 154.819 29.0437 154.64C29.2808 154.462 29.9643 154.336 29.9057 154.738C29.847 155.14 15.0375 178.704 14.7417 179.285C14.4459 179.865 14.0063 181.733 15.5173 182.347C17.0319 182.959 19.7564 181.621 20.7605 180.791C21.7681 179.96 44.9862 151.707 45.3714 151.381C45.7567 151.055 46.2016 150.899 46.3507 151.324L46.3471 151.325Z" fill="#6FB0E3"/>
<path d="M48.9134 188.599L51.1943 181.842L51.1347 181.696L46.5601 182.707L45.5527 180.181L52.1933 178.768L53.2007 181.294L49.9172 191.127L48.9099 188.6L48.9134 188.599Z" fill="#CDEEF7"/>
<path d="M43.9134 201.754L41.0698 181.125L42.6053 179.384L45.4489 200.013L43.9134 201.754Z" fill="#CDEEF7"/>
<path d="M34.4028 202.596L33.3954 200.07L36.6788 190.237L37.6862 192.764L35.4054 199.52L35.465 199.667L40.0395 198.655L41.0469 201.182L34.4063 202.595L34.4028 202.596Z" fill="#CDEEF7"/>
<path d="M145.08 79.2844C149.248 75.8699 155.921 61.8627 145.919 49.9326" stroke="black" stroke-width="3.11111"/>
<g clip-path="url(#clip0_2138_25584)">
<path d="M113.311 81.3556C111.277 84.6914 110.102 89.392 110.102 94.2442C110.102 98.0349 110.825 101.674 112.091 104.783H99.5724C98.2619 101.75 97.584 98.0349 97.584 94.2442C97.584 89.392 98.759 84.6914 100.793 81.3556C102.826 77.9439 105.538 75.9727 108.43 75.9727H120.948C118.056 75.9727 115.345 77.868 113.311 81.3556Z" fill="#BF7B02"/>
<path d="M192.85 94.2442C192.85 98.0349 192.127 101.674 190.862 104.783H112.092C110.781 101.75 110.104 98.0349 110.104 94.2442C110.104 89.392 111.279 84.6914 113.312 81.3556C115.346 77.9439 118.057 75.9727 120.95 75.9727H181.914C187.925 75.9727 192.85 84.1607 192.85 94.2442Z" fill="#D89A36"/>
<path d="M94.3305 137.155H81.8123C79.1911 133.743 77.6094 128.436 77.6094 122.826C77.6094 117.973 78.7844 113.273 80.818 109.937C82.8065 106.601 85.6084 104.63 88.4555 104.63H100.974C98.1266 104.63 95.3247 106.601 93.3363 109.937C91.3026 113.273 90.1276 117.973 90.1276 122.826C90.1276 128.436 91.7093 133.743 94.3305 137.155Z" fill="#E8A205"/>
<path d="M212.826 122.826C212.826 127.602 211.651 132.302 209.617 135.638C209.301 136.245 208.984 136.7 208.623 137.155H94.3318C91.7106 133.743 90.1289 128.436 90.1289 122.826C90.1289 117.973 91.3039 113.273 93.3375 109.937C95.326 106.601 98.1279 104.63 100.975 104.63H201.934C207.945 104.63 212.826 112.742 212.826 122.826Z" fill="#F5DC46"/>
<path d="M85.971 142.462C83.9374 145.798 82.7624 150.498 82.7624 155.351C82.7624 160.203 83.9374 164.752 85.8806 168.088H81.1355C80.0057 168.088 78.921 168.315 77.8816 168.77C77.4749 168.846 77.0682 168.997 76.6614 169.301C76.5259 169.301 76.3451 169.376 76.2095 169.528C75.7576 169.756 75.3057 170.059 74.8989 170.362C72.0066 166.95 70.2441 161.416 70.2441 155.351C70.2441 150.498 71.4191 145.798 73.4528 142.462C75.4864 139.05 78.198 137.079 81.0903 137.079H93.6085C90.7162 137.079 88.0047 139.05 85.971 142.462Z" fill="#BF7B02"/>
<path d="M220.146 155.351C220.146 160.203 218.971 164.752 216.983 168.088L216.937 168.163C216.485 168.997 215.988 169.68 215.491 170.286C215.175 170.059 214.904 169.907 214.587 169.68C214.09 169.376 213.638 169.149 213.141 168.922C212.509 168.694 211.921 168.467 211.334 168.315C210.656 168.163 209.933 168.088 209.3 168.088H85.88C83.9367 164.752 82.7617 160.203 82.7617 155.351C82.7617 150.498 83.9367 145.798 85.9704 142.462C88.004 139.05 90.7156 137.079 93.6079 137.079H209.39C215.356 137.231 220.146 145.343 220.146 155.351Z" fill="#D89A36"/>
<path d="M85.9727 172.13C83.9391 175.466 82.7641 180.167 82.7641 185.019C82.7641 190.553 84.2102 195.557 86.5602 198.817C86.0631 198.893 85.566 199.045 85.1141 199.272C84.8429 199.348 84.5266 199.5 84.2554 199.651C84.165 199.651 84.1198 199.651 84.0746 199.727C83.5323 199.955 82.99 200.334 82.5381 200.713C81.5891 201.319 80.7304 202.153 79.917 203.139C74.4939 202.153 70.291 194.42 70.291 185.095C70.291 180.243 71.466 175.542 73.4997 172.206C74.2227 170.993 75.0362 169.932 75.9852 169.098C77.4766 167.657 79.2843 166.823 81.1371 166.823H93.6554C91.8025 166.823 89.9948 167.657 88.5035 169.098C87.5092 169.856 86.6506 170.917 85.9727 172.13Z" fill="#E8A205"/>
<path d="M220.146 185.021C220.146 189.797 218.971 194.497 216.937 197.833C216.711 198.212 216.485 198.516 216.259 198.819C215.898 199.35 215.491 199.88 215.084 200.335C214.723 200.714 214.361 201.093 213.955 201.397C213.548 201.776 213.141 202.079 212.689 202.231C211.966 202.686 211.243 202.989 210.52 203.14L210.475 203.065C210.068 202.61 209.616 202.155 209.119 201.7C208.532 201.169 207.899 200.714 207.311 200.335C206.227 199.577 205.097 199.122 203.922 198.895C203.606 198.743 203.244 198.667 202.883 198.667C202.566 198.591 202.205 198.591 201.843 198.591H88.5011C87.8232 198.591 87.1906 198.667 86.5579 198.819C84.2531 195.559 82.7617 190.555 82.7617 185.021C82.7617 180.168 83.9367 175.468 85.9704 172.132C86.6934 170.919 87.5069 169.857 88.4559 169.023C89.9473 167.583 91.755 166.749 93.6079 166.749H209.3C210.249 166.749 211.153 166.976 212.011 167.356C212.915 167.735 213.729 168.341 214.497 169.099C218.022 172.284 220.146 178.425 220.146 185.021Z" fill="#F5DC46"/>
<path d="M112.091 232.455H99.5728C99.4372 232.38 99.2564 232.38 99.1209 232.38H88.4555C82.4901 232.38 77.6094 224.267 77.6094 214.184C77.6094 209.332 78.7392 204.783 80.9084 201.22C81.0892 200.84 81.3603 200.461 81.9026 199.779C83.7555 197.353 86.1055 195.988 88.5007 195.988H101.019C98.6238 195.988 96.319 197.353 94.4209 199.779C93.8786 200.461 93.6074 200.84 93.4266 201.22C91.2574 204.783 90.1276 209.332 90.1276 214.184C90.1276 224.267 95.0084 232.38 100.974 232.38H111.639C111.82 232.38 112.001 232.38 112.091 232.455Z" fill="#BF7B02"/>
<path d="M212.826 214.184C212.826 219.112 211.696 223.585 209.662 227.073C207.583 230.56 204.917 232.38 201.98 232.38H191.269C191.133 232.38 190.953 232.38 190.817 232.455H112.092C111.957 232.38 111.776 232.38 111.64 232.38H100.975C95.0097 232.38 90.1289 224.267 90.1289 214.184C90.1289 209.332 91.2587 204.783 93.4279 201.22C93.6087 200.84 93.8799 200.461 94.4222 199.779C96.2751 197.353 98.625 195.988 101.02 195.988H201.98C204.375 195.988 206.68 197.353 208.623 199.779C211.244 203.191 212.826 208.498 212.826 214.184Z" fill="#D89A36"/>
<path d="M127.049 250.348H114.576C105.944 250.348 98.2162 242.918 95.3691 232.304H98.7586C98.8941 232.38 99.0749 232.38 99.2105 232.38H107.933C110.734 242.918 118.417 250.348 127.049 250.348Z" fill="#E8A205"/>
<path d="M195.155 232.304C194.16 236.019 192.624 239.43 190.545 242.16C186.613 247.467 181.416 250.348 175.903 250.348H127.095C118.463 250.348 110.781 242.918 107.934 232.38H191.313C191.449 232.38 191.63 232.38 191.765 232.304H195.155Z" fill="#F5DC46"/>
<path d="M128.635 145.367C128.635 141.93 131.421 139.145 134.857 139.145H155.76C159.197 139.145 161.983 141.93 161.983 145.367V184.982H128.635V145.367Z" fill="#BF7B02"/>
<path d="M133.703 149.017C133.703 145.581 136.489 142.795 139.925 142.795H155.758C159.194 142.795 161.98 145.581 161.98 149.017V184.982H133.703V149.017Z" fill="#282727"/>
</g>
<path d="M260.98 82.8544L124.23 37.95C123.944 37.8365 123.632 37.7663 123.372 37.6094L91.5859 27.2269C91.4299 27.1918 91.2738 27.1567 91.1439 27.0782L66.6389 19.0228C64.6451 18.4102 62.5019 18.5346 60.6513 19.5448C58.7835 20.4855 57.4257 22.1476 56.8131 24.1414C56.4716 25.2944 56.4252 26.4481 56.6043 27.6198L54.1856 26.928C52.1656 26.3588 50.4774 25.0442 49.4934 23.1503C48.5265 21.3258 48.2632 19.2169 48.9019 17.1798C49.5145 15.186 50.8723 13.5239 52.7401 12.5832C54.6079 11.6425 56.734 11.4486 58.7278 12.0612L83.2327 20.1166C83.3627 20.195 83.5187 20.2302 83.6748 20.2653L115.461 30.6478C115.721 30.8047 116.033 30.8749 116.319 30.9884L259.11 77.8262C259.353 77.9136 259.596 78.001 259.812 78.1317C261.155 78.9421 261.819 80.5836 261.355 82.1353C261.198 82.3952 261.11 82.6379 260.98 82.8544Z" fill="#7F4C3B"/>
<path d="M260.981 82.8549C260.17 84.1975 258.572 84.8873 257.037 84.4929L151.75 54.6203L56.6051 27.6203C56.426 26.4486 56.4725 25.2949 56.8139 24.1419C57.4265 22.1481 58.7843 20.486 60.6521 19.5453C62.5199 18.6046 64.646 18.4107 66.6397 19.0233L91.1447 27.0787C91.2746 27.1571 91.4307 27.1923 91.5868 27.2274L123.373 37.6099C123.633 37.7668 123.945 37.837 124.231 37.9505L260.981 82.8549Z" fill="#915C46"/>
<path d="M169.229 30.9742L124.876 34.0685L124.822 34.0355L102.992 26.9065L156.731 26.9395L169.229 30.9742Z" fill="#915C46"/>
<path d="M24.4865 108.416L27.0799 105.608C27.377 105.265 27.7944 105.006 28.2551 104.852L30.4506 104.173L32.8926 103.44C33.0739 103.377 33.275 103.391 33.437 103.458C33.6433 103.544 33.8277 103.723 33.8724 103.949C33.9293 104.145 33.9212 104.331 33.8542 104.493C33.7689 104.7 33.5953 104.869 33.3637 104.929L33.126 105.003L28.7054 106.349C28.5093 106.406 28.3305 106.504 28.2254 106.633L25.8326 109.249L25.6199 109.471C25.5 109.594 25.466 109.718 25.4797 109.81C25.5082 109.908 25.6138 109.986 25.7881 110.024L29.5046 110.923C29.6788 110.96 29.8922 110.945 30.0735 110.882L34.4733 109.545C34.846 109.061 35.27 108.495 35.7392 107.861C36.052 107.438 36.377 106.986 36.7289 106.51C36.7741 106.443 36.834 106.381 36.8731 106.328C36.8853 106.299 36.9122 106.276 36.933 106.267C37.0234 106.132 37.1224 106.018 37.2301 105.924C37.356 105.786 37.4698 105.678 37.5982 105.576C37.876 105.363 38.2701 105.078 38.7455 104.929L38.7663 104.921C39.423 104.709 40.0462 104.829 40.572 105.185L40.5867 105.191C41.0007 105.483 41.268 105.921 41.3981 106.44L41.5023 106.898C41.6282 106.76 41.7542 106.622 41.8654 106.478C42.1122 106.132 42.2497 105.758 42.3015 105.382C42.3339 105.137 42.3161 104.888 42.2297 104.68C42.1728 104.484 42.0656 104.284 41.9167 104.102C41.902 104.096 41.8934 104.075 41.8847 104.054C41.5342 103.65 41.0075 103.381 40.3842 103.261C40.0211 103.18 39.6335 103.158 39.2155 103.209C38.8539 103.249 38.5308 103.029 38.4012 102.717C38.3753 102.654 38.3555 102.577 38.3504 102.506C38.3051 102.073 38.6144 101.701 39.0471 101.656C39.231 101.628 39.4235 101.622 39.5951 101.624C40.3296 101.6 41.0178 101.729 41.607 101.973C42.0048 102.137 42.3339 102.342 42.6387 102.606C42.8119 102.73 42.9583 102.877 43.0837 103.032C43.3088 103.28 43.4714 103.555 43.5949 103.882C43.6589 103.977 43.696 104.096 43.7331 104.215C43.7702 104.334 43.8073 104.453 43.8088 104.574C43.882 104.897 43.911 105.203 43.8715 105.549C43.8573 105.75 43.8014 105.968 43.7431 106.151C43.6314 106.588 43.4314 106.988 43.1516 107.373C42.7875 107.878 42.3203 108.34 41.7804 108.686C41.6311 108.797 41.4732 108.887 41.3005 108.97C41.074 109.101 40.8018 109.092 40.5869 108.986C40.3426 108.867 40.1973 108.635 40.1795 108.386C40.1769 108.35 40.1744 108.315 40.1657 108.294C40.0996 107.87 40.0386 107.517 39.9888 107.22L39.913 106.861C39.8769 106.657 39.8043 106.54 39.6925 106.477C39.5721 106.393 39.4543 106.344 39.2374 106.409L39.2166 106.418C38.9789 106.492 38.7489 106.673 38.5848 106.778C38.3964 106.941 38.2045 107.155 38.0151 107.405C37.6632 107.88 37.3321 108.347 37.0254 108.755C36.4633 109.488 35.9793 110.116 35.5762 110.674C35.471 110.803 35.3426 110.905 35.1882 110.945L32.7402 111.692C32.7341 111.707 32.7193 111.7 32.7193 111.7L30.5507 112.356C30.0961 112.496 29.6192 112.523 29.1676 112.405L25.4364 111.5C24.7456 111.335 24.1974 110.867 24.0033 110.252C23.8239 109.643 24.0036 108.958 24.4865 108.416Z" fill="black"/>
<path d="M33.872 103.951C33.9289 104.147 33.9208 104.334 33.8538 104.496C33.7685 104.702 33.5948 104.872 33.3632 104.931L33.1255 105.005C33.6888 105.187 34.3553 105.41 35.0953 105.665L36.1595 106.053L36.6811 106.252C36.7548 106.282 36.8198 106.292 36.8995 106.307C36.9117 106.278 36.9386 106.255 36.9595 106.246C37.0498 106.111 37.1489 105.996 37.2565 105.903C37.3825 105.765 37.4962 105.657 37.6247 105.555C37.9025 105.342 38.2966 105.057 38.772 104.908C38.5404 104.968 38.2326 104.961 38.0609 104.959C37.7947 104.935 37.5408 104.882 37.2253 104.769L35.6334 104.197C34.805 103.906 34.0796 103.658 33.4427 103.446C33.6428 103.546 33.8272 103.726 33.872 103.951ZM33.872 103.951C33.9289 104.147 33.9208 104.334 33.8538 104.496C33.7685 104.702 33.5948 104.872 33.3632 104.931L33.1255 105.005C33.6888 105.187 34.3553 105.41 35.0953 105.665L36.1595 106.053L36.6811 106.252C36.7548 106.282 36.8198 106.292 36.8995 106.307C36.9117 106.278 36.9386 106.255 36.9595 106.246C37.0498 106.111 37.1489 105.996 37.2565 105.903C37.3825 105.765 37.4962 105.657 37.6247 105.555C37.9025 105.342 38.2966 105.057 38.772 104.908C38.5404 104.968 38.2326 104.961 38.0609 104.959C37.7947 104.935 37.5408 104.882 37.2253 104.769L35.6334 104.197C34.805 103.906 34.0796 103.658 33.4427 103.446C33.6428 103.546 33.8272 103.726 33.872 103.951ZM33.872 103.951C33.9289 104.147 33.9208 104.334 33.8538 104.496C33.7685 104.702 33.5948 104.872 33.3632 104.931L33.1255 105.005C33.6888 105.187 34.3553 105.41 35.0953 105.665L36.1595 106.053L36.6811 106.252C36.7548 106.282 36.8198 106.292 36.8995 106.307C36.9117 106.278 36.9386 106.255 36.9595 106.246C37.0498 106.111 37.1489 105.996 37.2565 105.903C37.3825 105.765 37.4962 105.657 37.6247 105.555C37.9025 105.342 38.2966 105.057 38.772 104.908C38.5404 104.968 38.2326 104.961 38.0609 104.959C37.7947 104.935 37.5408 104.882 37.2253 104.769L35.6334 104.197C34.805 103.906 34.0796 103.658 33.4427 103.446C33.6428 103.546 33.8272 103.726 33.872 103.951ZM33.872 103.951C33.9289 104.147 33.9208 104.334 33.8538 104.496C33.7685 104.702 33.5948 104.872 33.3632 104.931L33.1255 105.005C33.6888 105.187 34.3553 105.41 35.0953 105.665L36.1595 106.053L36.6811 106.252C36.7548 106.282 36.8198 106.292 36.8995 106.307C36.9117 106.278 36.9386 106.255 36.9595 106.246C37.0498 106.111 37.1489 105.996 37.2565 105.903C37.3825 105.765 37.4962 105.657 37.6247 105.555C37.9025 105.342 38.2966 105.057 38.772 104.908C38.5404 104.968 38.2326 104.961 38.0609 104.959C37.7947 104.935 37.5408 104.882 37.2253 104.769L35.6334 104.197C34.805 103.906 34.0796 103.658 33.4427 103.446C33.6428 103.546 33.8272 103.726 33.872 103.951ZM33.872 103.951C33.9289 104.147 33.9208 104.334 33.8538 104.496C33.7685 104.702 33.5948 104.872 33.3632 104.931L33.1255 105.005C33.6888 105.187 34.3553 105.41 35.0953 105.665L36.1595 106.053L36.6811 106.252C36.7548 106.282 36.8198 106.292 36.8995 106.307C36.9117 106.278 36.9386 106.255 36.9595 106.246C37.0498 106.111 37.1489 105.996 37.2565 105.903C37.3825 105.765 37.4962 105.657 37.6247 105.555C37.9025 105.342 38.2966 105.057 38.772 104.908C38.5404 104.968 38.2326 104.961 38.0609 104.959C37.7947 104.935 37.5408 104.882 37.2253 104.769L35.6334 104.197C34.805 103.906 34.0796 103.658 33.4427 103.446C33.6428 103.546 33.8272 103.726 33.872 103.951ZM33.872 103.951C33.9289 104.147 33.9208 104.334 33.8538 104.496C33.7685 104.702 33.5948 104.872 33.3632 104.931L33.1255 105.005C33.6888 105.187 34.3553 105.41 35.0953 105.665L36.1595 106.053L36.6811 106.252C36.7548 106.282 36.8198 106.292 36.8995 106.307C36.9117 106.278 36.9386 106.255 36.9595 106.246C37.0498 106.111 37.1489 105.996 37.2565 105.903C37.3825 105.765 37.4962 105.657 37.6247 105.555C37.9025 105.342 38.2966 105.057 38.772 104.908C38.5404 104.968 38.2326 104.961 38.0609 104.959C37.7947 104.935 37.5408 104.882 37.2253 104.769L35.6334 104.197C34.805 103.906 34.0796 103.658 33.4427 103.446C33.6428 103.546 33.8272 103.726 33.872 103.951ZM26.818 100.861C26.8629 101.587 27.1526 102.638 28.4606 103.438C28.8807 103.715 29.3668 103.916 29.9926 104.072C30.1018 104.1 30.2612 104.131 30.4649 104.181C30.757 104.267 31.1435 104.375 31.6626 104.538C32.0136 104.649 32.4296 104.769 32.9132 104.935C32.9869 104.965 33.0666 104.981 33.155 105.017C33.7183 105.199 34.3847 105.423 35.1248 105.677L36.1889 106.065L36.7106 106.264C36.7842 106.294 36.8493 106.304 36.929 106.32C37.2739 106.445 37.6076 106.514 37.9596 106.539C38.2821 106.551 38.7763 106.566 39.2456 106.432L39.2603 106.439L39.2664 106.424C39.9231 106.212 40.3807 105.815 40.6157 105.205L40.6218 105.19C40.7873 104.707 40.7786 104.186 40.5723 103.6L40.4254 103.246C40.2872 102.913 40.117 102.532 39.8767 102.07C39.8015 101.918 39.7263 101.767 39.6302 101.623C38.6939 99.9251 37.1753 97.8826 34.8723 96.8611L34.6366 96.7636C32.3386 95.8132 30.4579 96.3982 29.2838 97.0683C27.6627 97.9849 26.7309 99.4453 26.818 100.861ZM30.0403 98.4507C31.3516 97.6993 32.7615 97.6269 34.1894 98.3037C36.2654 99.2485 37.6219 101.224 38.4242 102.746C38.4414 102.788 38.4501 102.809 38.4587 102.829C38.6731 103.229 38.82 103.583 38.9495 103.895L39.105 104.27C39.1655 104.416 39.161 104.552 39.133 104.661C39.0843 104.779 39.0208 104.89 38.7831 104.965L39.0083 105.713L38.7623 104.973C38.5307 105.033 38.2229 105.026 38.0513 105.024C37.7851 105 37.5311 104.947 37.2157 104.834L35.6238 104.262C34.7953 103.971 34.07 103.723 33.433 103.511L33.3741 103.487C31.6989 102.949 30.7664 102.701 30.3737 102.608C29.9074 102.484 29.5539 102.338 29.2776 102.172C28.6929 101.792 28.4048 101.362 28.3666 100.829C28.3264 99.9672 28.9824 99.0482 30.0403 98.4507ZM33.872 103.951C33.9289 104.147 33.9208 104.334 33.8538 104.496C33.7685 104.702 33.5948 104.872 33.3632 104.931L33.1255 105.005C33.6888 105.187 34.3553 105.41 35.0953 105.665L36.1595 106.053L36.6811 106.252C36.7548 106.282 36.8198 106.292 36.8995 106.307C36.9117 106.278 36.9386 106.255 36.9595 106.246C37.0498 106.111 37.1489 105.996 37.2565 105.903C37.3825 105.765 37.4962 105.657 37.6247 105.555C37.9025 105.342 38.2966 105.057 38.772 104.908C38.5404 104.968 38.2326 104.961 38.0609 104.959C37.7947 104.935 37.5408 104.882 37.2253 104.769L35.6334 104.197C34.805 103.906 34.0796 103.658 33.4427 103.446C33.6428 103.546 33.8272 103.726 33.872 103.951ZM33.872 103.951C33.9289 104.147 33.9208 104.334 33.8538 104.496C33.7685 104.702 33.5948 104.872 33.3632 104.931L33.1255 105.005C33.6888 105.187 34.3553 105.41 35.0953 105.665L36.1595 106.053L36.6811 106.252C36.7548 106.282 36.8198 106.292 36.8995 106.307C36.9117 106.278 36.9386 106.255 36.9595 106.246C37.0498 106.111 37.1489 105.996 37.2565 105.903C37.3825 105.765 37.4962 105.657 37.6247 105.555C37.9025 105.342 38.2966 105.057 38.772 104.908C38.5404 104.968 38.2326 104.961 38.0609 104.959C37.7947 104.935 37.5408 104.882 37.2253 104.769L35.6334 104.197C34.805 103.906 34.0796 103.658 33.4427 103.446C33.6428 103.546 33.8272 103.726 33.872 103.951ZM33.872 103.951C33.9289 104.147 33.9208 104.334 33.8538 104.496C33.7685 104.702 33.5948 104.872 33.3632 104.931L33.1255 105.005C33.6888 105.187 34.3553 105.41 35.0953 105.665L36.1595 106.053L36.6811 106.252C36.7548 106.282 36.8198 106.292 36.8995 106.307C36.9117 106.278 36.9386 106.255 36.9595 106.246C37.0498 106.111 37.1489 105.996 37.2565 105.903C37.3825 105.765 37.4962 105.657 37.6247 105.555C37.9025 105.342 38.2966 105.057 38.772 104.908C38.5404 104.968 38.2326 104.961 38.0609 104.959C37.7947 104.935 37.5408 104.882 37.2253 104.769L35.6334 104.197C34.805 103.906 34.0796 103.658 33.4427 103.446C33.6428 103.546 33.8272 103.726 33.872 103.951ZM33.872 103.951C33.9289 104.147 33.9208 104.334 33.8538 104.496C33.7685 104.702 33.5948 104.872 33.3632 104.931L33.1255 105.005C33.6888 105.187 34.3553 105.41 35.0953 105.665L36.1595 106.053L36.6811 106.252C36.7548 106.282 36.8198 106.292 36.8995 106.307C36.9117 106.278 36.9386 106.255 36.9595 106.246C37.0498 106.111 37.1489 105.996 37.2565 105.903C37.3825 105.765 37.4962 105.657 37.6247 105.555C37.9025 105.342 38.2966 105.057 38.772 104.908C38.5404 104.968 38.2326 104.961 38.0609 104.959C37.7947 104.935 37.5408 104.882 37.2253 104.769L35.6334 104.197C34.805 103.906 34.0796 103.658 33.4427 103.446C33.6428 103.546 33.8272 103.726 33.872 103.951ZM33.872 103.951C33.9289 104.147 33.9208 104.334 33.8538 104.496C33.7685 104.702 33.5948 104.872 33.3632 104.931L33.1255 105.005C33.6888 105.187 34.3553 105.41 35.0953 105.665L36.1595 106.053L36.6811 106.252C36.7548 106.282 36.8198 106.292 36.8995 106.307C36.9117 106.278 36.9386 106.255 36.9595 106.246C37.0498 106.111 37.1489 105.996 37.2565 105.903C37.3825 105.765 37.4962 105.657 37.6247 105.555C37.9025 105.342 38.2966 105.057 38.772 104.908C38.5404 104.968 38.2326 104.961 38.0609 104.959C37.7947 104.935 37.5408 104.882 37.2253 104.769L35.6334 104.197C34.805 103.906 34.0796 103.658 33.4427 103.446C33.6428 103.546 33.8272 103.726 33.872 103.951Z" fill="black"/>
<path d="M25.6501 109.486L25.8629 109.263L29.2518 110.078C29.426 110.116 29.6393 110.101 29.8207 110.038L34.2205 108.701C34.5932 108.217 35.0172 107.65 35.4864 107.016C35.7149 106.714 35.9287 106.406 36.1693 106.074L36.691 106.272C36.7647 106.303 36.8297 106.312 36.9094 106.328C36.8703 106.381 36.8104 106.442 36.7652 106.51C36.4133 106.986 36.0822 107.452 35.7755 107.86C35.2916 108.488 34.8676 109.055 34.5096 109.545L30.1098 110.882C29.9138 110.939 29.7005 110.954 29.541 110.923L25.8244 110.024C25.6502 109.986 25.5445 109.908 25.5161 109.81C25.4962 109.733 25.5303 109.609 25.6501 109.486Z" fill="#E29F0A"/>
<path d="M25.8595 109.262L28.2523 106.647C28.3574 106.518 28.5362 106.419 28.7322 106.362L33.1528 105.016C33.7161 105.197 34.3825 105.421 35.1226 105.676L36.1868 106.064C35.9461 106.396 35.7323 106.704 35.5038 107.006C35.0199 107.634 34.5959 108.201 34.2379 108.691L29.8381 110.028C29.642 110.085 29.4287 110.1 29.2692 110.069L25.8595 109.262Z" fill="#FBB302"/>
<path d="M30.0413 98.4501C31.3526 97.6986 32.7625 97.6262 34.1904 98.303C36.2664 99.2479 37.6229 101.223 38.4252 102.745C38.4425 102.787 38.4511 102.808 38.4597 102.829C38.6741 103.228 38.821 103.582 38.9506 103.894L39.1061 104.269C39.1665 104.415 39.162 104.551 39.1341 104.66C39.0853 104.778 39.0219 104.89 38.7842 104.964L38.7633 104.973C38.5317 105.032 38.2239 105.026 38.0523 105.024C37.7861 105 37.5322 104.946 37.2167 104.833L35.6248 104.261C34.7964 103.97 34.071 103.722 33.4341 103.51L33.3751 103.486C31.7 102.948 30.7674 102.701 30.3747 102.607C29.9085 102.483 29.5549 102.337 29.2786 102.171C28.6939 101.791 28.4059 101.362 28.3677 100.828C28.3274 99.9665 28.9834 99.0476 30.0413 98.4501Z" fill="#BCC1BC"/>
<path d="M32.9485 114.07C33.0703 113.775 33.278 113.481 33.6081 113.1C33.959 112.711 34.5861 111.987 35.587 110.693C35.9988 110.156 36.4888 109.513 37.0362 108.774C37.349 108.351 37.674 107.899 38.0259 107.424C38.2214 107.159 38.4072 106.96 38.5956 106.797C38.7658 106.677 38.9958 106.497 39.2274 106.437L39.2421 106.443L39.2482 106.428C39.4651 106.363 39.583 106.412 39.7033 106.496C39.8151 106.559 39.8877 106.676 39.9238 106.88L39.9996 107.239C40.0641 107.542 40.1252 107.895 40.1765 108.313C40.1644 108.343 40.173 108.363 40.1755 108.399C40.3836 110.107 40.3789 112.537 39.1837 114.509C38.357 115.841 37.1819 116.597 35.647 116.721C34.4382 116.807 33.374 116.419 32.9589 115.713C32.6744 115.233 32.6804 114.718 32.9485 114.07Z" fill="#BCC1BC"/>
<path d="M31.5151 113.445C31.7674 112.876 32.161 112.383 32.4398 112.085C32.5119 111.994 32.6256 111.886 32.7429 111.727C32.7429 111.727 32.7576 111.733 32.7637 111.718C33.0999 111.323 33.6194 110.692 34.3648 109.724C34.6263 109.384 35.1154 109.327 35.4558 109.589C35.8048 109.871 35.8526 110.339 35.585 110.695C34.5694 111.982 33.9509 112.727 33.6061 113.102C33.276 113.483 33.0683 113.776 32.9465 114.071C32.6698 114.698 32.6724 115.234 32.9336 115.687C33.3426 116.408 34.4067 116.797 35.6216 116.695C37.1504 116.586 38.3256 115.83 39.1583 114.484C40.3683 112.518 40.3791 110.072 40.1502 108.374C40.1476 108.338 40.139 108.317 40.1512 108.288C40.144 107.888 40.4411 107.545 40.853 107.508C40.9866 107.477 41.1313 107.503 41.2492 107.552C41.4996 107.655 41.6804 107.885 41.7242 108.197C41.743 108.36 41.7618 108.523 41.7746 108.7C41.939 110.597 41.8145 113.15 40.5045 115.317C39.1137 117.553 37.1705 118.164 35.757 118.287C33.923 118.425 32.3087 117.74 31.5771 116.506C31.2174 115.874 30.9008 114.847 31.5151 113.445Z" fill="black"/>
<path d="M46.8371 104.879C47.6768 105.226 48.2767 105.819 48.572 106.649C48.7153 107.053 48.5117 107.503 48.1013 107.661C47.697 107.805 47.2465 107.601 47.0885 107.191C46.5722 105.77 44.2211 106.074 43.2419 106.273C42.8117 106.354 42.4063 106.082 42.3255 105.652C42.2446 105.222 42.5158 104.817 42.946 104.736C44.5306 104.408 45.8502 104.471 46.8371 104.879Z" fill="black"/>
<path d="M40.4125 103.273C41.0357 103.393 41.5772 103.668 41.913 104.066C41.9216 104.087 41.9303 104.108 41.945 104.114C42.0938 104.296 42.201 104.496 42.258 104.692C42.3383 104.915 42.3561 105.164 42.3297 105.394C42.278 105.77 42.1404 106.144 41.8936 106.49C41.7763 106.649 41.6504 106.786 41.5305 106.909L41.4263 106.452C41.3023 105.918 41.029 105.494 40.615 105.202L40.6002 105.196L40.6063 105.182C40.7718 104.698 40.7631 104.177 40.5568 103.591L40.4125 103.273Z" fill="#5A5B5A"/>
<path d="M42.1878 102.817C42.3128 102.765 42.4793 102.696 42.652 102.612C43.6611 102.132 45.1913 101.143 44.8802 99.8936C44.7638 99.4659 45.0203 99.0545 45.4479 98.9381C45.6231 98.8898 45.7887 98.9065 45.9507 98.9735C46.1717 99.0649 46.35 99.2594 46.4034 99.5058C46.8161 101.177 45.8062 102.743 43.6229 103.893C43.3608 104.026 43.0987 104.159 42.8281 104.272C42.5218 104.386 42.2028 104.324 41.9656 104.105C41.9509 104.099 41.9422 104.078 41.9336 104.057C41.8721 103.997 41.8315 103.928 41.7969 103.845C41.612 103.458 41.8008 103.002 42.1878 102.817Z" fill="black"/>
<path d="M246.555 225.238L247.236 221.477C247.302 221.028 247.516 220.586 247.822 220.208L249.31 218.457L250.977 216.528C251.096 216.378 251.274 216.282 251.446 216.252C251.666 216.213 251.918 216.266 252.077 216.432C252.23 216.567 252.324 216.728 252.354 216.901C252.393 217.121 252.337 217.357 252.174 217.532L252.013 217.722L249.005 221.23C248.87 221.383 248.772 221.562 248.753 221.727L248.137 225.219L248.077 225.521C248.042 225.689 248.08 225.811 248.141 225.882C248.218 225.949 248.349 225.958 248.516 225.897L252.134 224.66C252.301 224.599 252.473 224.471 252.592 224.321L255.587 220.831C255.642 220.223 255.696 219.517 255.751 218.731C255.789 218.206 255.82 217.65 255.862 217.06C255.864 216.979 255.881 216.895 255.886 216.829C255.88 216.798 255.891 216.764 255.904 216.745C255.907 216.583 255.93 216.433 255.97 216.297C256.003 216.113 256.041 215.96 256.094 215.805C256.214 215.477 256.394 215.024 256.715 214.644L256.728 214.625C257.169 214.095 257.759 213.861 258.393 213.879L258.409 213.876C258.915 213.9 259.376 214.127 259.764 214.495L260.098 214.825C260.13 214.641 260.162 214.458 260.179 214.277C260.201 213.852 260.116 213.462 259.959 213.118C259.854 212.893 259.706 212.693 259.521 212.563C259.368 212.429 259.17 212.318 258.947 212.244C258.931 212.247 258.913 212.234 258.894 212.221C258.382 212.068 257.793 212.123 257.203 212.357C256.853 212.483 256.514 212.672 256.188 212.94C255.905 213.168 255.514 213.156 255.237 212.962C255.182 212.923 255.124 212.869 255.081 212.811C254.811 212.47 254.872 211.99 255.213 211.72C255.353 211.598 255.512 211.489 255.658 211.399C256.265 210.984 256.915 210.724 257.543 210.613C257.967 210.539 258.355 210.535 258.754 210.594C258.966 210.606 259.168 210.651 259.357 210.715C259.681 210.804 259.965 210.948 260.245 211.157C260.35 211.204 260.445 211.284 260.54 211.364C260.635 211.445 260.73 211.525 260.797 211.627C261.032 211.86 261.22 212.102 261.373 212.415C261.469 212.593 261.539 212.807 261.588 212.993C261.728 213.421 261.774 213.866 261.744 214.341C261.708 214.962 261.562 215.603 261.292 216.185C261.225 216.358 261.14 216.519 261.04 216.682C260.919 216.914 260.684 217.053 260.446 217.078C260.176 217.11 259.929 216.991 259.78 216.791C259.759 216.762 259.738 216.734 259.719 216.721C259.436 216.398 259.195 216.133 258.994 215.91L258.737 215.647C258.597 215.494 258.473 215.435 258.345 215.441C258.198 215.435 258.072 215.457 257.924 215.629L257.911 215.647C257.751 215.837 257.654 216.113 257.571 216.29C257.5 216.529 257.453 216.812 257.427 217.124C257.385 217.714 257.357 218.286 257.317 218.795C257.236 219.715 257.165 220.505 257.124 221.192C257.104 221.357 257.051 221.512 256.942 221.629L255.277 223.573C255.28 223.589 255.264 223.591 255.264 223.591L253.786 225.308C253.477 225.67 253.089 225.949 252.645 226.092L249.011 227.331C248.34 227.562 247.626 227.461 247.132 227.047C246.654 226.629 246.438 225.955 246.555 225.238Z" fill="black"/>
<path d="M252.08 216.432C252.233 216.567 252.326 216.728 252.356 216.901C252.395 217.121 252.34 217.357 252.176 217.532L252.015 217.722C252.588 217.572 253.271 217.404 254.031 217.221L255.138 216.978L255.685 216.865C255.763 216.851 255.823 216.825 255.899 216.795C255.893 216.764 255.903 216.729 255.916 216.711C255.92 216.548 255.942 216.399 255.983 216.262C256.015 216.079 256.053 215.926 256.107 215.771C256.227 215.442 256.406 214.99 256.728 214.61C256.564 214.784 256.301 214.944 256.155 215.034C255.918 215.157 255.675 215.248 255.348 215.322L253.698 215.694C252.843 215.893 252.097 216.073 251.446 216.236C251.669 216.213 251.921 216.265 252.08 216.432ZM252.08 216.432C252.233 216.567 252.326 216.728 252.356 216.901C252.395 217.121 252.34 217.357 252.176 217.532L252.015 217.722C252.588 217.572 253.271 217.404 254.031 217.221L255.138 216.978L255.685 216.865C255.763 216.851 255.823 216.825 255.899 216.795C255.893 216.764 255.903 216.729 255.916 216.711C255.92 216.548 255.942 216.399 255.983 216.262C256.015 216.079 256.053 215.926 256.107 215.771C256.227 215.442 256.406 214.99 256.728 214.61C256.564 214.784 256.301 214.944 256.155 215.034C255.918 215.157 255.675 215.248 255.348 215.322L253.698 215.694C252.843 215.893 252.097 216.073 251.446 216.236C251.669 216.213 251.921 216.265 252.08 216.432ZM252.08 216.432C252.233 216.567 252.326 216.728 252.356 216.901C252.395 217.121 252.34 217.357 252.176 217.532L252.015 217.722C252.588 217.572 253.271 217.404 254.031 217.221L255.138 216.978L255.685 216.865C255.763 216.851 255.823 216.825 255.899 216.795C255.893 216.764 255.903 216.729 255.916 216.711C255.92 216.548 255.942 216.399 255.983 216.262C256.015 216.079 256.053 215.926 256.107 215.771C256.227 215.442 256.406 214.99 256.728 214.61C256.564 214.784 256.301 214.944 256.155 215.034C255.918 215.157 255.675 215.248 255.348 215.322L253.698 215.694C252.843 215.893 252.097 216.073 251.446 216.236C251.669 216.213 251.921 216.265 252.08 216.432ZM252.08 216.432C252.233 216.567 252.326 216.728 252.356 216.901C252.395 217.121 252.34 217.357 252.176 217.532L252.015 217.722C252.588 217.572 253.271 217.404 254.031 217.221L255.138 216.978L255.685 216.865C255.763 216.851 255.823 216.825 255.899 216.795C255.893 216.764 255.903 216.729 255.916 216.711C255.92 216.548 255.942 216.399 255.983 216.262C256.015 216.079 256.053 215.926 256.107 215.771C256.227 215.442 256.406 214.99 256.728 214.61C256.564 214.784 256.301 214.944 256.155 215.034C255.918 215.157 255.675 215.248 255.348 215.322L253.698 215.694C252.843 215.893 252.097 216.073 251.446 216.236C251.669 216.213 251.921 216.265 252.08 216.432ZM252.08 216.432C252.233 216.567 252.326 216.728 252.356 216.901C252.395 217.121 252.34 217.357 252.176 217.532L252.015 217.722C252.588 217.572 253.271 217.404 254.031 217.221L255.138 216.978L255.685 216.865C255.763 216.851 255.823 216.825 255.899 216.795C255.893 216.764 255.903 216.729 255.916 216.711C255.92 216.548 255.942 216.399 255.983 216.262C256.015 216.079 256.053 215.926 256.107 215.771C256.227 215.442 256.406 214.99 256.728 214.61C256.564 214.784 256.301 214.944 256.155 215.034C255.918 215.157 255.675 215.248 255.348 215.322L253.698 215.694C252.843 215.893 252.097 216.073 251.446 216.236C251.669 216.213 251.921 216.265 252.08 216.432ZM252.08 216.432C252.233 216.567 252.326 216.728 252.356 216.901C252.395 217.121 252.34 217.357 252.176 217.532L252.015 217.722C252.588 217.572 253.271 217.404 254.031 217.221L255.138 216.978L255.685 216.865C255.763 216.851 255.823 216.825 255.899 216.795C255.893 216.764 255.903 216.729 255.916 216.711C255.92 216.548 255.942 216.399 255.983 216.262C256.015 216.079 256.053 215.926 256.107 215.771C256.227 215.442 256.406 214.99 256.728 214.61C256.564 214.784 256.301 214.944 256.155 215.034C255.918 215.157 255.675 215.248 255.348 215.322L253.698 215.694C252.843 215.893 252.097 216.073 251.446 216.236C251.669 216.213 251.921 216.265 252.08 216.432ZM244.469 217.61C244.897 218.198 245.705 218.93 247.238 218.903C247.741 218.911 248.26 218.82 248.871 218.615C248.978 218.58 249.129 218.521 249.328 218.454C249.621 218.37 250.005 218.254 250.53 218.113C250.886 218.018 251.302 217.896 251.798 217.776C251.877 217.762 251.953 217.733 252.047 217.716C252.619 217.567 253.302 217.398 254.063 217.215L255.169 216.972L255.716 216.86C255.794 216.846 255.854 216.819 255.93 216.79C256.288 216.71 256.607 216.589 256.917 216.421C257.196 216.259 257.621 216.006 257.945 215.641L257.961 215.639L257.958 215.623C258.399 215.092 258.572 214.511 258.443 213.871L258.44 213.855C258.32 213.358 258.033 212.923 257.545 212.54L257.231 212.32C256.936 212.113 256.588 211.883 256.137 211.622C255.992 211.534 255.847 211.447 255.689 211.377C253.988 210.447 251.61 209.538 249.119 209.912L248.867 209.957C246.418 210.388 245.145 211.891 244.514 213.086C243.638 214.73 243.636 216.462 244.469 217.61ZM245.895 213.847C246.598 212.509 247.749 211.691 249.317 211.496C251.575 211.179 253.78 212.118 255.274 212.972C255.311 212.998 255.329 213.011 255.348 213.024C255.743 213.245 256.057 213.465 256.334 213.659L256.666 213.892C256.795 213.983 256.865 214.1 256.9 214.207C256.922 214.333 256.928 214.461 256.768 214.651L257.359 215.162L256.755 214.67C256.591 214.844 256.328 215.004 256.182 215.094C255.945 215.217 255.702 215.308 255.375 215.382L253.724 215.754C252.869 215.953 252.124 216.133 251.473 216.296L251.41 216.307C249.708 216.752 248.788 217.044 248.407 217.176C247.947 217.321 247.57 217.388 247.248 217.396C246.551 217.389 246.077 217.181 245.759 216.752C245.262 216.046 245.323 214.919 245.895 213.847ZM252.08 216.432C252.233 216.567 252.326 216.728 252.356 216.901C252.395 217.121 252.34 217.357 252.176 217.532L252.015 217.722C252.588 217.572 253.271 217.404 254.031 217.221L255.138 216.978L255.685 216.865C255.763 216.851 255.823 216.825 255.899 216.795C255.893 216.764 255.903 216.729 255.916 216.711C255.92 216.548 255.942 216.399 255.983 216.262C256.015 216.079 256.053 215.926 256.107 215.771C256.227 215.442 256.406 214.99 256.728 214.61C256.564 214.784 256.301 214.944 256.155 215.034C255.918 215.157 255.675 215.248 255.348 215.322L253.698 215.694C252.843 215.893 252.097 216.073 251.446 216.236C251.669 216.213 251.921 216.265 252.08 216.432ZM252.08 216.432C252.233 216.567 252.326 216.728 252.356 216.901C252.395 217.121 252.34 217.357 252.176 217.532L252.015 217.722C252.588 217.572 253.271 217.404 254.031 217.221L255.138 216.978L255.685 216.865C255.763 216.851 255.823 216.825 255.899 216.795C255.893 216.764 255.903 216.729 255.916 216.711C255.92 216.548 255.942 216.399 255.983 216.262C256.015 216.079 256.053 215.926 256.107 215.771C256.227 215.442 256.406 214.99 256.728 214.61C256.564 214.784 256.301 214.944 256.155 215.034C255.918 215.157 255.675 215.248 255.348 215.322L253.698 215.694C252.843 215.893 252.097 216.073 251.446 216.236C251.669 216.213 251.921 216.265 252.08 216.432ZM252.08 216.432C252.233 216.567 252.326 216.728 252.356 216.901C252.395 217.121 252.34 217.357 252.176 217.532L252.015 217.722C252.588 217.572 253.271 217.404 254.031 217.221L255.138 216.978L255.685 216.865C255.763 216.851 255.823 216.825 255.899 216.795C255.893 216.764 255.903 216.729 255.916 216.711C255.92 216.548 255.942 216.399 255.983 216.262C256.015 216.079 256.053 215.926 256.107 215.771C256.227 215.442 256.406 214.99 256.728 214.61C256.564 214.784 256.301 214.944 256.155 215.034C255.918 215.157 255.675 215.248 255.348 215.322L253.698 215.694C252.843 215.893 252.097 216.073 251.446 216.236C251.669 216.213 251.921 216.265 252.08 216.432ZM252.08 216.432C252.233 216.567 252.326 216.728 252.356 216.901C252.395 217.121 252.34 217.357 252.176 217.532L252.015 217.722C252.588 217.572 253.271 217.404 254.031 217.221L255.138 216.978L255.685 216.865C255.763 216.851 255.823 216.825 255.899 216.795C255.893 216.764 255.903 216.729 255.916 216.711C255.92 216.548 255.942 216.399 255.983 216.262C256.015 216.079 256.053 215.926 256.107 215.771C256.227 215.442 256.406 214.99 256.728 214.61C256.564 214.784 256.301 214.944 256.155 215.034C255.918 215.157 255.675 215.248 255.348 215.322L253.698 215.694C252.843 215.893 252.097 216.073 251.446 216.236C251.669 216.213 251.921 216.265 252.08 216.432ZM252.08 216.432C252.233 216.567 252.326 216.728 252.356 216.901C252.395 217.121 252.34 217.357 252.176 217.532L252.015 217.722C252.588 217.572 253.271 217.404 254.031 217.221L255.138 216.978L255.685 216.865C255.763 216.851 255.823 216.825 255.899 216.795C255.893 216.764 255.903 216.729 255.916 216.711C255.92 216.548 255.942 216.399 255.983 216.262C256.015 216.079 256.053 215.926 256.107 215.771C256.227 215.442 256.406 214.99 256.728 214.61C256.564 214.784 256.301 214.944 256.155 215.034C255.918 215.157 255.675 215.248 255.348 215.322L253.698 215.694C252.843 215.893 252.097 216.073 251.446 216.236C251.669 216.213 251.921 216.265 252.08 216.432Z" fill="black"/>
<path d="M248.109 225.516L248.169 225.214L251.466 224.083C251.633 224.021 251.805 223.894 251.924 223.743L254.919 220.254C254.974 219.645 255.028 218.94 255.083 218.153C255.114 217.775 255.129 217.4 255.154 216.991L255.701 216.879C255.779 216.865 255.839 216.838 255.915 216.809C255.91 216.874 255.893 216.958 255.891 217.04C255.849 217.63 255.82 218.201 255.78 218.71C255.709 219.5 255.655 220.205 255.616 220.811L252.621 224.3C252.486 224.454 252.315 224.581 252.163 224.64L248.545 225.876C248.378 225.938 248.246 225.929 248.17 225.861C248.112 225.807 248.074 225.684 248.109 225.516Z" fill="#E29F0A"/>
<path d="M248.17 225.213L248.786 221.721C248.805 221.556 248.903 221.377 249.038 221.224L252.046 217.716C252.618 217.567 253.301 217.398 254.062 217.215L255.168 216.972C255.143 217.381 255.128 217.756 255.098 218.133C255.026 218.923 254.972 219.628 254.933 220.234L251.938 223.724C251.804 223.877 251.632 224.004 251.48 224.063L248.17 225.213Z" fill="#FBB302"/>
<path d="M245.893 213.847C246.596 212.51 247.747 211.692 249.315 211.497C251.574 211.18 253.778 212.119 255.272 212.972C255.309 212.998 255.328 213.011 255.346 213.024C255.741 213.246 256.055 213.466 256.332 213.66L256.664 213.893C256.794 213.983 256.863 214.101 256.898 214.208C256.92 214.333 256.926 214.462 256.766 214.652L256.753 214.67C256.589 214.845 256.326 215.004 256.18 215.095C255.943 215.218 255.7 215.309 255.373 215.383L253.723 215.754C252.868 215.953 252.122 216.133 251.471 216.296L251.408 216.307C249.706 216.753 248.787 217.044 248.405 217.176C247.945 217.322 247.568 217.388 247.246 217.397C246.549 217.39 246.075 217.182 245.757 216.752C245.26 216.047 245.321 214.919 245.893 213.847Z" fill="#BCC1BC"/>
<path d="M256.73 225.471C256.674 225.157 256.692 224.798 256.766 224.299C256.853 223.782 256.994 222.834 257.144 221.206C257.203 220.532 257.272 219.726 257.337 218.808C257.374 218.284 257.405 217.728 257.447 217.138C257.47 216.81 257.52 216.542 257.592 216.303C257.671 216.111 257.768 215.835 257.932 215.661L257.947 215.658L257.945 215.642C258.092 215.471 258.218 215.448 258.365 215.455C258.493 215.449 258.617 215.508 258.757 215.661L259.014 215.923C259.231 216.144 259.472 216.409 259.739 216.734C259.745 216.766 259.763 216.779 259.784 216.807C260.876 218.137 262.177 220.19 262.227 222.496C262.244 224.063 261.658 225.331 260.429 226.26C259.456 226.981 258.35 227.225 257.62 226.852C257.122 226.599 256.851 226.161 256.73 225.471Z" fill="#BCC1BC"/>
<path d="M255.183 225.709C255.091 225.094 255.159 224.467 255.234 224.066C255.246 223.95 255.284 223.798 255.298 223.601C255.298 223.601 255.313 223.598 255.311 223.583C255.382 223.068 255.482 222.258 255.591 221.041C255.629 220.613 256.012 220.303 256.439 220.341C256.885 220.392 257.177 220.761 257.142 221.205C256.976 222.836 256.854 223.797 256.764 224.298C256.69 224.797 256.672 225.156 256.727 225.47C256.831 226.148 257.12 226.598 257.584 226.84C258.316 227.229 259.422 226.986 260.393 226.249C261.624 225.336 262.21 224.067 262.191 222.484C262.156 220.176 260.853 218.107 259.748 216.796C259.727 216.768 259.709 216.755 259.703 216.723C259.482 216.39 259.549 215.941 259.877 215.689C259.973 215.591 260.109 215.535 260.234 215.513C260.501 215.466 260.777 215.563 260.981 215.802C261.085 215.93 261.188 216.057 261.294 216.2C262.451 217.712 263.716 219.933 263.773 222.465C263.8 225.098 262.488 226.656 261.361 227.519C259.888 228.62 258.158 228.908 256.879 228.259C256.236 227.919 255.417 227.222 255.183 225.709Z" fill="black"/>
<path d="M263.517 210.256C264.412 210.098 265.236 210.277 265.931 210.818C266.269 211.082 266.339 211.572 266.077 211.925C265.813 212.263 265.323 212.333 264.97 212.072C263.772 211.15 261.951 212.668 261.231 213.362C260.912 213.661 260.424 213.649 260.125 213.33C259.826 213.01 259.837 212.523 260.157 212.224C261.318 211.096 262.465 210.441 263.517 210.256Z" fill="black"/>
<path d="M257.234 212.351C257.824 212.117 258.429 212.059 258.926 212.214C258.945 212.227 258.963 212.24 258.979 212.238C259.202 212.311 259.4 212.422 259.553 212.557C259.74 212.702 259.889 212.903 259.99 213.111C260.148 213.456 260.233 213.846 260.211 214.27C260.197 214.467 260.164 214.651 260.129 214.819L259.796 214.489C259.405 214.105 258.947 213.894 258.441 213.87L258.425 213.873L258.422 213.857C258.302 213.36 258.015 212.925 257.527 212.542L257.234 212.351Z" fill="#5A5B5A"/>
<path d="M258.487 211.012C258.564 210.901 258.668 210.753 258.768 210.59C259.362 209.644 260.123 207.988 259.19 207.101C258.862 206.802 258.858 206.317 259.156 205.99C259.278 205.855 259.427 205.78 259.599 205.75C259.835 205.708 260.09 205.777 260.267 205.956C261.512 207.145 261.5 209.008 260.275 211.15C260.126 211.403 259.976 211.656 259.808 211.896C259.611 212.157 259.308 212.275 258.99 212.218C258.975 212.221 258.956 212.208 258.938 212.195C258.854 212.177 258.783 212.141 258.709 212.09C258.345 211.862 258.259 211.376 258.487 211.012Z" fill="black"/>
<path d="M249.971 179.246C249.971 180.801 247.748 182.062 245.007 182.062C242.265 182.062 240.043 180.802 240.043 179.246V174.669H249.971V179.246Z" fill="#0C87CA"/>
<path d="M245.007 182.062C243.785 182.062 242.668 181.811 241.803 181.396V181.503C241.803 182.507 243.237 183.321 245.007 183.321C246.776 183.321 248.211 182.507 248.211 181.503V181.396C247.346 181.811 246.229 182.062 245.007 182.062Z" fill="#20B0FE"/>
<path d="M245.008 176.124C241.296 176.124 238.287 174.417 238.287 172.311C238.287 170.205 241.296 168.499 245.008 168.499C248.72 168.499 251.729 170.206 251.729 172.311C251.729 174.416 248.72 176.124 245.008 176.124Z" fill="#0C87CA"/>
<path d="M245.008 176.124C241.44 176.124 238.523 174.547 238.302 172.555L238.287 174.669C238.287 176.775 241.296 178.482 245.008 178.482C248.72 178.482 251.729 176.775 251.729 174.669V172.312C251.729 174.417 248.72 176.125 245.008 176.125V176.124Z" fill="#20B0FE"/>
<path d="M247.659 172.312V163.45C247.659 162.796 248.324 162.838 248.324 162.838C248.812 162.828 249.39 163.251 249.636 163.656C250.079 164.384 249.466 165.114 248.934 165.551C248.641 165.792 248.298 165.945 247.927 166.023C247.154 166.185 246.235 166.106 245.512 165.787C244.69 165.426 244.077 164.592 244.141 163.673C244.198 162.873 244.963 162.424 245.481 163.191C245.712 163.533 245.71 164.257 245.6 164.634C245.461 165.112 245.098 165.49 244.678 165.744C243.815 166.267 242.673 166.304 241.733 165.976C241.229 165.801 240.655 165.48 240.285 165.09C239.769 164.545 239.544 163.73 239.886 163.037C240.403 161.988 241.831 162.513 242.125 163.45V172.311" stroke="#165F87" stroke-width="1.03704" stroke-linecap="round" stroke-linejoin="round"/>
<path opacity="0.4" d="M258.718 153.808C258.718 146.264 252.579 140.147 245.006 140.147C237.434 140.147 231.295 146.264 231.295 153.808C231.295 158.033 233.221 161.809 236.245 164.315H236.198C236.198 164.315 239.198 166.684 239.198 171.755C239.199 173.574 241.795 175.049 244.998 175.049C248.201 175.049 250.797 173.574 250.798 171.755H250.799C250.799 166.684 253.8 164.315 253.8 164.315H253.767C256.792 161.809 258.718 158.033 258.718 153.808H258.718Z" fill="#CDEEF7"/>
<path opacity="0.5" d="M252.28 144.863C254.726 146.89 255.686 149.73 254.424 151.207C253.161 152.683 250.154 152.238 247.708 150.211C245.261 148.184 244.301 145.344 245.564 143.867C246.826 142.391 249.833 142.836 252.28 144.863Z" fill="white"/>
<path opacity="0.4" d="M258.54 155.254C258.063 157.041 257.258 158.696 255.839 160.012C253.961 161.754 251.425 162.807 248.893 163.082C245.885 163.409 243.011 162.582 240.576 160.797C236.971 158.154 235.042 153.931 235.555 149.467C235.888 146.566 237.077 143.847 238.853 141.57C234.373 143.813 231.295 148.444 231.295 153.797C231.295 158.024 233.214 161.801 236.227 164.308H236.18C236.18 164.308 239.17 166.678 239.17 171.751C239.17 173.572 241.757 175.048 244.949 175.048C248.14 175.048 250.727 173.572 250.728 171.751H250.729C250.729 166.678 253.719 164.308 253.719 164.308H253.687C256.349 162.094 258.154 158.886 258.54 155.254Z" fill="#CDEEF7"/>
<path d="M44.3584 47.2998C47.4217 46.32 50.8022 46.2191 53.2959 47.1279L53.3428 47.1445C56.6517 48.3595 59.1934 50.2867 60.8633 52.7529C62.4359 55.0755 63.2412 57.8849 63.1777 61.0469L63.1533 61.6846C63.0501 63.5441 62.2276 65.5852 61.1855 67.5068C60.4051 68.9461 59.5069 70.308 58.7109 71.4648L57.957 72.5488C57.6823 72.9426 57.3857 73.3663 57.1475 73.7227C57.0283 73.9009 56.9222 74.0638 56.8408 74.1992C56.7626 74.3294 56.6973 74.4488 56.6699 74.5332V74.5342C56.345 75.5659 56.2896 76.8776 56.3135 77.9229C56.3358 78.8977 56.428 79.664 56.4453 79.7881V79.7891C56.4759 80.0747 56.266 80.3308 55.9863 80.3613L55.9746 80.3623L55.9639 80.3652C55.9634 80.3654 55.9605 80.3658 55.9541 80.3662C55.9529 80.3663 55.9515 80.3662 55.9502 80.3662C55.948 80.3656 55.9458 80.3648 55.9434 80.3643C55.9325 80.3619 55.9186 80.3604 55.9033 80.3604L44.79 80.3535C44.5146 80.3039 44.326 80.036 44.376 79.7607L44.377 79.7549C44.3772 79.7535 44.3779 79.7506 44.3789 79.7451C44.3805 79.7361 44.383 79.7232 44.3857 79.707C44.3913 79.6747 44.3978 79.6287 44.4062 79.5713C44.4231 79.4564 44.4444 79.2947 44.4609 79.1006C44.4939 78.713 44.5104 78.1917 44.4443 77.6514C44.3215 76.647 43.9016 75.5163 42.7051 75.126L42.4551 75.0576C42.0555 74.9704 41.5673 74.9925 41.0879 75.0059H41.085C40.1374 75.0471 39.1434 75.0791 38.3311 74.4375C37.6053 73.8633 37.2579 72.884 37.1182 71.9043C36.9791 70.9295 37.0512 69.9921 37.1299 69.5488C37.1615 69.3696 37.1884 69.171 37.042 68.959C36.9111 68.7695 36.6527 68.5868 36.2119 68.3525L36.208 68.3506L36.0947 68.3105C36.055 68.2997 36.0088 68.2881 35.9609 68.2773C35.8729 68.2575 35.7458 68.2318 35.665 68.2139L35.6621 68.2129L35.3828 68.1553C35.0945 68.0928 34.782 68.0124 34.4922 67.8828C34.1561 67.7325 33.8634 67.5212 33.6768 67.207L33.6035 67.0664C33.4217 66.662 33.5046 66.2145 33.7842 65.6885C34.0645 65.1611 34.522 64.5934 35.0283 63.9668V63.9658C35.2955 63.6308 35.6023 63.2507 35.8496 62.9014C35.9733 62.7267 36.0845 62.556 36.1699 62.4004C36.2535 62.248 36.3199 62.096 36.3418 61.9609C36.487 61.068 36.4963 60.2801 36.4658 59.4971L36.4258 58.7119C36.3377 56.9422 36.2454 55.1416 37.4023 52.665C38.5875 50.1266 41.2939 48.2801 44.3584 47.2998ZM49.9629 49.8359C49.3064 49.4637 48.2823 49.0011 47.0967 49.5498L47.0957 49.5508C46.3275 49.9118 45.8502 50.4516 45.5674 51.0322C43.8198 50.7351 42.6292 51.7336 42.1064 52.7939C41.9085 53.1966 41.7968 53.6114 41.7549 54.0215C40.472 54.1798 39.3941 55.1285 39.0762 56.4424V56.4434C38.7521 57.8058 39.3452 59.1097 40.5986 59.752V59.7529C41.8334 60.3926 42.8361 59.94 43.5889 59.6074C44.1738 59.3495 44.4804 59.2349 44.8105 59.3301H44.8115C45.4957 59.5241 45.7315 60.0132 46.0557 60.6689C46.3568 61.2985 46.7757 62.1773 47.8125 62.4014C48.9177 62.6415 49.7673 62.142 50.3418 61.8105L50.3428 61.8096C50.5665 61.6787 50.7359 61.5817 50.8779 61.5234C51.0182 61.4659 51.1081 61.4569 51.1787 61.4746L51.1816 61.4756C51.641 61.5817 51.9506 61.9645 52.3623 62.4883C52.887 63.1548 53.594 64.0638 54.9033 64.0713H54.9111C55.9122 64.0713 56.7684 63.7608 57.3779 63.1582L57.3789 63.1572C57.9149 62.6207 58.2139 61.8705 58.2695 61.042C58.7252 60.8417 59.1269 60.5259 59.4443 60.1016L59.4531 60.1191L59.6201 59.8457C60.2757 58.7677 60.279 57.3981 59.6357 56.4277L59.499 56.2393C58.9066 55.487 58.2041 55.2784 57.5576 55.248C57.5649 54.5483 57.2879 53.8902 56.7549 53.4189L56.6357 53.3193C56.1743 52.9517 55.615 52.776 55.0645 52.7822C54.8867 52.0244 54.3912 51.3386 53.6035 50.7275C52.8627 50.1523 52.0448 50.1339 51.416 50.1748L51.1592 50.1943C51.0383 50.2013 50.9235 50.2096 50.8213 50.2129C50.7168 50.2162 50.6464 50.2129 50.6084 50.2051C50.6064 50.2043 50.6038 50.2035 50.6006 50.2021C50.5914 50.1983 50.5797 50.1925 50.5654 50.1855C50.5368 50.1716 50.5016 50.1535 50.4629 50.1318C50.3856 50.0887 50.298 50.0364 50.2256 49.9902L50.2207 49.9873L49.9629 49.8359Z" fill="#CDEEF7" stroke="#CDEEF7" stroke-width="0.345679"/>
<mask id="path-64-outside-1_2138_25584" maskUnits="userSpaceOnUse" x="43.4277" y="51.9248" width="14" height="9" fill="black">
<rect fill="white" x="43.4277" y="51.9248" width="14" height="9"/>
<path d="M44.0934 57.0892V56.0159L47.4378 54.227V55.3004L45.1278 56.5215V56.5837L47.4378 57.8048V58.8781L44.0934 57.0892ZM48.6637 59.9981L51.1604 53.0137H52.1948L49.6981 59.9981H48.6637ZM53.4207 57.8048L55.7307 56.5837V56.5215L53.4207 55.3004V54.227L56.7651 56.0159V57.0892L53.4207 58.8781V57.8048Z"/>
</mask>
<path d="M44.0934 57.0892V56.0159L47.4378 54.227V55.3004L45.1278 56.5215V56.5837L47.4378 57.8048V58.8781L44.0934 57.0892ZM48.6637 59.9981L51.1604 53.0137H52.1948L49.6981 59.9981H48.6637ZM53.4207 57.8048L55.7307 56.5837V56.5215L53.4207 55.3004V54.227L56.7651 56.0159V57.0892L53.4207 58.8781V57.8048Z" fill="#CDEEF7"/>
<path d="M44.0934 57.0892H43.8341V57.2446L43.9711 57.3179L44.0934 57.0892ZM44.0934 56.0159L43.9711 55.7873L43.8341 55.8606V56.0159H44.0934ZM47.4378 54.227H47.6971V53.7943L47.3156 53.9984L47.4378 54.227ZM47.4378 55.3004L47.559 55.5296L47.6971 55.4566V55.3004H47.4378ZM45.1278 56.5215L45.0067 56.2923L44.8686 56.3653V56.5215H45.1278ZM45.1278 56.5837H44.8686V56.7399L45.0067 56.8129L45.1278 56.5837ZM47.4378 57.8048H47.6971V57.6486L47.559 57.5756L47.4378 57.8048ZM47.4378 58.8781L47.3156 59.1067L47.6971 59.3108V58.8781H47.4378ZM44.0934 57.0892H44.3527V56.0159H44.0934H43.8341V57.0892H44.0934ZM44.0934 56.0159L44.2157 56.2445L47.5601 54.4556L47.4378 54.227L47.3156 53.9984L43.9711 55.7873L44.0934 56.0159ZM47.4378 54.227H47.1786V55.3004H47.4378H47.6971V54.227H47.4378ZM47.4378 55.3004L47.3167 55.0712L45.0067 56.2923L45.1278 56.5215L45.249 56.7507L47.559 55.5296L47.4378 55.3004ZM45.1278 56.5215H44.8686V56.5837H45.1278H45.3871V56.5215H45.1278ZM45.1278 56.5837L45.0067 56.8129L47.3167 58.034L47.4378 57.8048L47.559 57.5756L45.249 56.3545L45.1278 56.5837ZM47.4378 57.8048H47.1786V58.8781H47.4378H47.6971V57.8048H47.4378ZM47.4378 58.8781L47.5601 58.6495L44.2157 56.8606L44.0934 57.0892L43.9711 57.3179L47.3156 59.1067L47.4378 58.8781ZM48.6637 59.9981L48.4196 59.9109L48.2957 60.2574H48.6637V59.9981ZM51.1604 53.0137V52.7544H50.9777L50.9162 52.9264L51.1604 53.0137ZM52.1948 53.0137L52.4389 53.101L52.5628 52.7544H52.1948V53.0137ZM49.6981 59.9981V60.2574H49.8808L49.9423 60.0854L49.6981 59.9981ZM48.6637 59.9981L48.9078 60.0854L51.4045 53.101L51.1604 53.0137L50.9162 52.9264L48.4196 59.9109L48.6637 59.9981ZM51.1604 53.0137V53.273H52.1948V53.0137V52.7544H51.1604V53.0137ZM52.1948 53.0137L51.9507 52.9264L49.454 59.9109L49.6981 59.9981L49.9423 60.0854L52.4389 53.101L52.1948 53.0137ZM49.6981 59.9981V59.7389H48.6637V59.9981V60.2574H49.6981V59.9981ZM53.4207 57.8048L53.2995 57.5756L53.1614 57.6486V57.8048H53.4207ZM55.7307 56.5837L55.8518 56.8129L55.9899 56.7399V56.5837H55.7307ZM55.7307 56.5215H55.9899V56.3653L55.8518 56.2923L55.7307 56.5215ZM53.4207 55.3004H53.1614V55.4566L53.2995 55.5296L53.4207 55.3004ZM53.4207 54.227L53.5429 53.9984L53.1614 53.7943V54.227H53.4207ZM56.7651 56.0159H57.0244V55.8606L56.8874 55.7873L56.7651 56.0159ZM56.7651 57.0892L56.8874 57.3179L57.0244 57.2446V57.0892H56.7651ZM53.4207 58.8781H53.1614V59.3108L53.5429 59.1067L53.4207 58.8781ZM53.4207 57.8048L53.5418 58.034L55.8518 56.8129L55.7307 56.5837L55.6095 56.3545L53.2995 57.5756L53.4207 57.8048ZM55.7307 56.5837H55.9899V56.5215H55.7307H55.4714V56.5837H55.7307ZM55.7307 56.5215L55.8518 56.2923L53.5418 55.0712L53.4207 55.3004L53.2995 55.5296L55.6095 56.7507L55.7307 56.5215ZM53.4207 55.3004H53.6799V54.227H53.4207H53.1614V55.3004H53.4207ZM53.4207 54.227L53.2984 54.4556L56.6428 56.2445L56.7651 56.0159L56.8874 55.7873L53.5429 53.9984L53.4207 54.227ZM56.7651 56.0159H56.5058V57.0892H56.7651H57.0244V56.0159H56.7651ZM56.7651 57.0892L56.6428 56.8606L53.2984 58.6495L53.4207 58.8781L53.5429 59.1067L56.8874 57.3179L56.7651 57.0892ZM53.4207 58.8781H53.6799V57.8048H53.4207H53.1614V58.8781H53.4207Z" fill="#CDEEF7" mask="url(#path-64-outside-1_2138_25584)"/>
<defs>
<clipPath id="clip0_2138_25584">
<rect width="158.926" height="205.333" fill="white" transform="translate(65.6172 61.0371)"/>
</clipPath>
</defs>
</svg>
