<svg width="73" height="94" viewBox="0 0 73 94" fill="none" xmlns="http://www.w3.org/2000/svg">
<path d="M54.9481 72.1249C53.757 69.6514 52.566 67.1777 51.3748 64.7042C51.3689 64.3374 51.0611 63.9499 50.5921 64.0531C47.2122 64.7967 43.8169 65.5189 40.3739 65.9014C36.9343 66.2836 33.5279 66.1859 30.0821 65.9625C28.1191 65.8352 26.2047 65.6025 24.3064 65.0675C24.1134 65.0132 23.948 65.0469 23.8199 65.1316C23.7246 65.1771 23.6363 65.25 23.5646 65.3564C22.3259 67.1909 21.3174 69.1685 20.5549 71.2473C19.8925 73.0528 19.2681 75.0466 19.5995 76.9879C19.9631 79.1178 21.7561 80.0739 23.573 80.8566C25.6311 81.7431 27.7839 82.3351 30.005 82.6285C32.3514 82.9385 34.7348 82.9776 37.0989 82.9969C39.3897 83.0155 41.6848 82.9533 43.9635 82.7062C46.1535 82.4688 48.3308 82.0747 50.4357 81.4161C52.2137 80.8597 54.2294 80.1707 55.427 78.6526C57.0579 76.5856 55.9446 74.1951 54.9476 72.1247L54.9481 72.1249Z" fill="#56179B"/>
<path d="M66.4797 35.2016C64.7877 24.5442 57.811 14.9113 46.8265 12.0446C36.2135 9.27485 24.1396 12.0634 16.2432 19.8125C9.63956 26.293 6.22896 35.8889 7.25946 45.0872C9.5122 65.1935 30.707 77.1701 48.9086 68.4885C56.8707 64.6908 63.1006 57.5911 65.6162 49.108C66.9563 44.5893 67.2099 39.8 66.4799 35.2016H66.4797Z" fill="url(#paint0_linear_2122_20236)"/>
<path d="M47.2166 17.7798C47.2688 17.3561 47.5649 17.0128 47.943 16.8326C48.8572 16.3974 49.9138 16.9108 50.7632 17.28C51.5973 17.6424 52.4018 18.0728 53.1692 18.5613C54.708 19.5408 56.0991 20.7505 57.3063 22.1179C58.5238 23.4968 59.5601 25.036 60.3862 26.6804C61.33 28.5596 62.0119 30.5659 62.4527 32.6214C62.8953 34.6851 63.1002 36.7988 63.0995 38.9087C63.0995 39.421 63.0866 39.9332 63.0626 40.445C63.0622 40.4559 63.0604 40.4656 63.0581 40.4754L63.1029 40.9862C63.1185 41.1637 62.8394 41.1959 62.7962 41.0277C62.2473 38.8895 61.6466 36.7623 60.9035 34.6828C60.1843 32.6699 59.33 30.7012 58.2691 28.8442C57.2978 27.1439 56.1572 25.536 54.8204 24.104C53.424 22.6084 51.8228 21.3525 50.0526 20.3305C49.5881 20.0621 49.1125 19.8165 48.6391 19.5642C48.2705 19.3677 47.9012 19.1363 47.6157 18.8267C47.3525 18.5411 47.1675 18.1766 47.2163 17.7788L47.2166 17.7798Z" fill="#EEDEFF"/>
<path d="M61.3788 45.7735C61.5498 45.2914 61.6934 44.6265 62.1962 44.3666C62.4083 44.257 62.668 44.2463 62.8669 44.3893C63.0428 44.516 63.1284 44.7246 63.1616 44.9305C63.1983 45.1566 63.1794 45.3763 63.1466 45.6015C63.1011 45.9151 63.0483 46.2279 62.9878 46.5391C62.8699 47.1461 62.7238 47.7478 62.55 48.3419C62.3412 49.0553 62.0915 49.7569 61.8053 50.444C61.6024 51.08 61.3744 51.7081 61.112 52.3184C60.8979 52.8167 60.5819 53.3415 60.0116 53.4845C59.9078 53.5106 59.8148 53.4359 59.8099 53.3333C59.6886 50.7261 60.5164 48.2036 61.3788 45.7733V45.7735Z" fill="#EEDEFF"/>
<path d="M50.5605 64.0918C51.029 63.9888 51.3368 64.3752 51.3428 64.7412L52.2354 66.5938C51.1521 67.2831 50.0276 67.9113 48.8643 68.4658C39.8166 72.7783 30.0302 71.9912 22.1953 67.6436C22.6138 66.8726 23.0682 66.1209 23.5605 65.3926C23.6322 65.2865 23.7202 65.2133 23.8154 65.168C23.9433 65.0834 24.109 65.0493 24.3018 65.1035C26.1981 65.6374 28.1104 65.8701 30.0713 65.9971C33.5134 66.22 36.9165 66.317 40.3525 65.9355C43.792 65.5539 47.1841 64.8339 50.5605 64.0918Z" fill="#8847CD"/>
<defs>
<linearGradient id="paint0_linear_2122_20236" x1="36.9796" y1="11" x2="36.9796" y2="71.3538" gradientUnits="userSpaceOnUse">
<stop stop-color="#BC90EE"/>
<stop offset="1" stop-color="#E9D5FF"/>
</linearGradient>
</defs>
</svg>
