<svg width="48" height="48" viewBox="0 0 48 48" fill="none" xmlns="http://www.w3.org/2000/svg">
<g clip-path="url(#clip0_2135_23520)">
<path d="M43.2256 17.1047C42.1329 10.227 37.6275 4.01049 30.534 2.16043C23.6803 0.373012 15.8832 2.17258 10.7839 7.17342C6.51936 11.3556 4.31686 17.5482 4.98234 23.4843C6.43711 36.4597 20.1243 44.1888 31.8785 38.5862C37.0203 36.1354 41.0435 31.5536 42.668 26.0791C43.5334 23.163 43.6972 20.0722 43.2258 17.1047H43.2256Z" fill="#77CFFB"/>
<path d="M35.7959 40.9619C35.028 39.3687 34.2601 37.7754 33.492 36.1822C33.4882 35.946 33.2897 35.6964 32.9874 35.7629C30.8081 36.2418 28.6189 36.707 26.399 36.9533C24.1813 37.1995 21.9849 37.1366 19.7633 36.9927C18.4976 36.9107 17.2632 36.7609 16.0393 36.4163C15.9148 36.3813 15.8082 36.403 15.7256 36.4576C15.6641 36.4868 15.6072 36.5338 15.561 36.6023C14.7623 37.7839 14.112 39.0577 13.6204 40.3966C13.1934 41.5595 12.7907 42.8437 13.0044 44.0941C13.2389 45.4659 14.3949 46.0817 15.5664 46.5859C16.8934 47.1569 18.2814 47.5382 19.7135 47.7272C21.2264 47.9268 22.7631 47.952 24.2874 47.9644C25.7644 47.9764 27.2442 47.9363 28.7135 47.7772C30.1255 47.6243 31.5294 47.3704 32.8865 46.9462C34.0329 46.5879 35.3326 46.1441 36.1047 45.1663C37.1563 43.835 36.4384 42.2952 35.7956 40.9617L35.7959 40.9619Z" fill="#444444"/>
<path d="M10.4814 6.85352C15.7019 1.73386 23.665 -0.0974927 30.6592 1.72656C37.8293 3.59675 42.3968 9.79219 43.6143 16.6562H43.6201L43.6807 17.0342L43.7627 17.6035C44.1378 20.4583 43.9395 23.4097 43.1094 26.207C41.4473 31.8075 37.3353 36.4878 32.083 38.9912C20.0456 44.7286 6.03637 36.8106 4.54785 23.5342C3.86705 17.4612 6.11859 11.1323 10.4814 6.85352Z" fill="url(#paint0_linear_2135_23520)" stroke="#CDEEF7" stroke-width="0.897196"/>
<path d="M30.7875 5.86381C30.8213 5.59023 31.0129 5.36847 31.2576 5.2521C31.8492 4.97105 32.5329 5.3026 33.0826 5.54105C33.6224 5.77511 34.143 6.05308 34.6396 6.36852C35.6354 7.00116 36.5356 7.78238 37.3169 8.66548C38.1047 9.55604 38.7753 10.5501 39.3099 11.6121C39.9207 12.8257 40.3619 14.1214 40.6472 15.4489C40.9336 16.7817 41.0662 18.1468 41.0658 19.5094C41.0658 19.8402 41.0574 20.171 41.0419 20.5016C41.0416 20.5086 41.0404 20.5149 41.039 20.5212L41.068 20.8511C41.0781 20.9657 40.8974 20.9865 40.8695 20.8779C40.5143 19.497 40.1256 18.1232 39.6446 16.7802C39.1792 15.4802 38.6264 14.2088 37.9399 13.0095C37.3113 11.9114 36.5732 10.873 35.7081 9.94818C34.8045 8.98224 33.7683 8.17116 32.6228 7.51114C32.3222 7.33783 32.0144 7.17916 31.7081 7.01624C31.4695 6.88933 31.2305 6.73988 31.0458 6.53993C30.8755 6.35549 30.7557 6.12012 30.7874 5.86322L30.7875 5.86381Z" fill="#CDEEF7"/>
<path d="M39.9524 23.9318C40.0609 23.6209 40.1519 23.1921 40.4708 23.0245C40.6053 22.9538 40.7699 22.9469 40.8961 23.0392C41.0076 23.1208 41.0619 23.2554 41.083 23.3881C41.1063 23.5339 41.0943 23.6756 41.0735 23.8208C41.0447 24.0231 41.0111 24.2248 40.9728 24.4255C40.898 24.8169 40.8054 25.205 40.6952 25.588C40.5627 26.0481 40.4043 26.5005 40.2229 26.9436C40.0942 27.3538 39.9496 27.7588 39.7832 28.1524C39.6474 28.4737 39.447 28.8121 39.0854 28.9043C39.0195 28.9212 38.9606 28.873 38.9575 28.8069C38.8805 27.1256 39.4055 25.4989 39.9524 23.9316V23.9318Z" fill="#CDEEF7"/>
<path d="M32.9639 35.7666C33.2662 35.7002 33.4649 35.9493 33.4688 36.1855C33.6608 36.5838 33.8519 36.9826 34.0439 37.3809C33.3445 37.8261 32.6184 38.2318 31.8672 38.5898C26.0282 41.373 19.7128 40.8649 14.6562 38.0596C14.9265 37.5617 15.2192 37.0758 15.5371 36.6055C15.5834 36.537 15.6407 36.4902 15.7021 36.4609C15.7847 36.4064 15.8913 36.385 16.0156 36.4199C17.2396 36.7645 18.4746 36.9141 19.7402 36.9961C21.9618 37.14 24.1584 37.2032 26.376 36.957C28.5957 36.7107 30.7848 36.2455 32.9639 35.7666Z" fill="#0C87CA"/>
<path d="M12.9462 0.166233C10.7253 7.52429 10.4653 7.46571 5.08586 9.79364C4.94204 9.85588 4.97994 10.0708 5.13616 10.0832C11.4642 10.5854 10.9114 12.0495 12.3301 17.9266C12.3678 18.0827 12.5905 18.0755 12.62 17.9177C13.9589 10.7523 14.6117 10.2688 19.9518 9.04425C20.1027 9.00964 20.1083 8.79496 19.9598 8.75114C14.9511 7.27306 14.1675 6.23247 13.2407 0.185305C13.2165 0.0272414 12.9924 0.013145 12.9462 0.166233Z" fill="#ECCB01"/>
</g>
<defs>
<linearGradient id="paint0_linear_2135_23520" x1="24.1868" y1="1.48633" x2="24.1868" y2="40.4353" gradientUnits="userSpaceOnUse">
<stop stop-color="#20B0FE"/>
<stop offset="1" stop-color="#77CFFB"/>
</linearGradient>
<clipPath id="clip0_2135_23520">
<rect width="48" height="48" fill="white"/>
</clipPath>
</defs>
</svg>
