<svg width="18" height="18" viewBox="0 0 18 18" fill="none" xmlns="http://www.w3.org/2000/svg">
<path d="M9.01156 14.4502C7.76824 14.4502 6.60606 14.1088 5.61035 13.5156C4.96551 14.6051 4.92969 15.8674 4.92969 16.2341C4.92969 16.9189 6.75779 17.4732 9.01261 17.4732C11.2674 17.4732 13.0955 16.9179 13.0955 16.2341C13.0955 15.8663 13.0597 14.6051 12.4149 13.5156C11.4192 14.1088 10.2559 14.4502 9.01367 14.4502H9.01156Z" fill="#53686F" stroke="#53686F" stroke-width="0.75" stroke-linejoin="round"/>
<path d="M9.01174 14.4493C12.6901 14.4493 15.6719 11.4674 15.6719 7.78908C15.6719 4.11077 12.6901 1.12891 9.01174 1.12891C5.33342 1.12891 2.35156 4.11077 2.35156 7.78908C2.35156 11.4674 5.33342 14.4493 9.01174 14.4493Z" stroke="#53686F" stroke-width="0.75" stroke-linejoin="round"/>
<path d="M2.32812 3.30494C3.22163 2.91193 3.90018 2.15119 4.19099 1.21975L4.40699 0.525391L4.62299 1.21975C4.91275 2.15119 5.59236 2.91193 6.48586 3.30494C5.59236 3.69796 4.9138 4.4587 4.62299 5.39013L4.40699 6.08449L4.19099 5.39013C3.90124 4.4587 3.22163 3.69796 2.32812 3.30494Z" fill="#53686F" stroke="#53686F" stroke-width="0.75" stroke-linejoin="round"/>
<path d="M6.64648 5.56574C6.96996 5.42349 7.21546 5.14849 7.31977 4.81132L7.39774 4.56055L7.47571 4.81132C7.58108 5.14849 7.82658 5.42349 8.149 5.56574C7.82553 5.70798 7.58003 5.98299 7.47571 6.32016L7.39774 6.57093L7.31977 6.32016C7.21441 5.98299 6.9689 5.70798 6.64648 5.56574Z" fill="#53686F" stroke="#53686F" stroke-width="0.75" stroke-linejoin="round"/>
</svg>
