<svg width="18" height="20" viewBox="0 0 18 20" fill="none" xmlns="http://www.w3.org/2000/svg">
<path d="M9.01156 15.4512C7.76824 15.4512 6.60606 15.1098 5.61035 14.5166C4.96551 15.6061 4.92969 16.8684 4.92969 17.235C4.92969 17.9199 6.75779 18.4741 9.01261 18.4741C11.2674 18.4741 13.0955 17.9189 13.0955 17.235C13.0955 16.8673 13.0597 15.6061 12.4149 14.5166C11.4192 15.1098 10.2559 15.4512 9.01367 15.4512H9.01156Z" fill="#310A5C" stroke="#310A5C" stroke-width="0.585366" stroke-linejoin="round"/>
<path d="M9.01174 15.4502C12.6901 15.4502 15.6719 12.4684 15.6719 8.79006C15.6719 5.11175 12.6901 2.12988 9.01174 2.12988C5.33342 2.12988 2.35156 5.11175 2.35156 8.79006C2.35156 12.4684 5.33342 15.4502 9.01174 15.4502Z" stroke="#310A5C" stroke-width="0.585366" stroke-linejoin="round"/>
<path d="M2.32812 4.30592C3.22163 3.9129 3.90018 3.15216 4.19099 2.22073L4.40699 1.52637L4.62299 2.22073C4.91275 3.15216 5.59236 3.9129 6.48586 4.30592C5.59236 4.69893 4.9138 5.45967 4.62299 6.39111L4.40699 7.08547L4.19099 6.39111C3.90124 5.45967 3.22163 4.69893 2.32812 4.30592Z" fill="#310A5C" stroke="#310A5C" stroke-width="0.585366" stroke-linejoin="round"/>
<path d="M6.64648 6.56574C6.96996 6.42349 7.21546 6.14849 7.31977 5.81132L7.39774 5.56055L7.47571 5.81132C7.58108 6.14849 7.82658 6.42349 8.149 6.56574C7.82553 6.70798 7.58003 6.98299 7.47571 7.32016L7.39774 7.57093L7.31977 7.32016C7.21441 6.98299 6.9689 6.70798 6.64648 6.56574Z" fill="#310A5C" stroke="#310A5C" stroke-width="0.585366" stroke-linejoin="round"/>
</svg>
