<svg width="73" height="94" viewBox="0 0 73 94" fill="none" xmlns="http://www.w3.org/2000/svg">
<path d="M23.0843 10.3744C22.1814 11.8458 21.6597 13.9192 21.6597 16.0595C21.6597 17.7316 21.9807 19.3368 22.5426 20.7079H16.9844C16.4025 19.3702 16.1016 17.7316 16.1016 16.0595C16.1016 13.9192 16.6233 11.8458 17.5262 10.3744C18.4291 8.86949 19.6331 8 20.9173 8H26.4754C25.1912 8 23.9873 8.83605 23.0843 10.3744Z" fill="#FAF6FF"/>
<path d="M58.2869 16.0595C58.2869 17.7316 57.9666 19.3368 57.4061 20.7079H22.5136C21.9331 19.3702 21.6328 17.7316 21.6328 16.0595C21.6328 13.9192 22.1533 11.8458 23.0541 10.3744C23.955 8.86949 25.1561 8 26.4373 8H53.4424C56.1049 8 58.2869 11.6117 58.2869 16.0595Z" fill="#FAF6FF"/>
<path d="M14.7093 35.0575H9.15124C7.98745 33.5522 7.28516 31.2106 7.28516 28.7352C7.28516 26.5944 7.80686 24.5204 8.7098 23.0486C9.59268 21.5768 10.8367 20.707 12.1008 20.707H17.659C16.3948 20.707 15.1508 21.5768 14.2679 23.0486C13.365 24.5204 12.8433 26.5944 12.8433 28.7352C12.8433 31.2106 13.5456 33.5522 14.7093 35.0575Z" fill="#BA91E8"/>
<path d="M67.1905 28.7352C67.1905 30.8426 66.6697 32.9166 65.7685 34.3884C65.6283 34.656 65.4881 34.8568 65.3279 35.0575H14.6771C13.5154 33.5522 12.8145 31.2106 12.8145 28.7352C12.8145 26.5944 13.3352 24.5204 14.2364 23.0486C15.1177 21.5768 16.3594 20.707 17.6212 20.707H62.3637C65.0274 20.707 67.1905 24.2863 67.1905 28.7352Z" fill="#BA91E8"/>
<path d="M10.9828 37.4475C10.0798 38.9291 9.55811 41.0169 9.55811 43.172C9.55811 45.3271 10.0798 47.3475 10.9426 48.8291H8.83576C8.33412 48.8291 7.85255 48.9301 7.39105 49.1322C7.21046 49.1658 7.02987 49.2332 6.84929 49.3679C6.78909 49.3679 6.70883 49.4016 6.64863 49.4689C6.44798 49.5699 6.24732 49.7046 6.06673 49.8393C4.78255 48.324 4 45.8658 4 43.172C4 41.0169 4.5217 38.9291 5.42464 37.4475C6.32758 35.9322 7.53151 35.0566 8.81569 35.0566H14.3738C13.0896 35.0566 11.8857 35.9322 10.9828 37.4475Z" fill="#FAF6FF"/>
<path d="M70.3909 43.1429C70.3909 45.2903 69.8704 47.3035 68.9895 48.7798L68.9695 48.8134C68.7693 49.1825 68.5491 49.4844 68.3289 49.7529C68.1887 49.6522 68.0686 49.5851 67.9285 49.4844C67.7083 49.3502 67.5081 49.2496 67.2879 49.1489C67.0076 49.0482 66.7473 48.9476 66.4871 48.8805C66.1868 48.8134 65.8665 48.7798 65.5862 48.7798H10.9126C10.0518 47.3035 9.53125 45.2903 9.53125 43.1429C9.53125 40.9955 10.0518 38.9152 10.9526 37.4389C11.8535 35.929 13.0547 35.0566 14.336 35.0566H65.6262C68.2688 35.1237 70.3909 38.7139 70.3909 43.1429Z" fill="#FAF6FF"/>
<path d="M10.9627 50.5597C10.0597 52.0447 9.53804 54.1371 9.53804 56.2971C9.53804 58.7608 10.1801 60.9882 11.2235 62.4394C11.0028 62.4732 10.7821 62.5407 10.5814 62.6419C10.4611 62.6757 10.3206 62.7432 10.2002 62.8107C10.1601 62.8107 10.14 62.8106 10.1199 62.8444C9.87916 62.9456 9.63837 63.1144 9.43772 63.2831C9.01634 63.5531 8.6351 63.9244 8.27393 64.3631C5.86608 63.9244 4 60.482 4 56.3308C4 54.1709 4.5217 52.0784 5.42464 50.5935C5.74569 50.0535 6.10686 49.581 6.52824 49.2097C7.19039 48.5685 7.99301 48.1973 8.81569 48.1973H14.3738C13.5511 48.1973 12.7485 48.5685 12.0863 49.2097C11.6449 49.5472 11.2637 50.0197 10.9627 50.5597Z" fill="#BA91E8"/>
<path d="M70.3909 56.3139C70.3909 58.4356 69.8704 60.5237 68.9695 62.0056C68.8694 62.174 68.7693 62.3087 68.6692 62.4434C68.5091 62.6792 68.3289 62.9149 68.1487 63.117C67.9885 63.2854 67.8284 63.4538 67.6482 63.5885C67.468 63.7569 67.2879 63.8916 67.0877 63.959C66.7673 64.161 66.447 64.2958 66.1267 64.3631L66.1067 64.3294C65.9265 64.1274 65.7263 63.9253 65.5061 63.7232C65.2458 63.4875 64.9656 63.2854 64.7053 63.117C64.2249 62.7802 63.7244 62.5781 63.2039 62.4771C63.0637 62.4097 62.9036 62.3761 62.7434 62.3761C62.6033 62.3424 62.4431 62.3424 62.283 62.3424H12.0737C11.7734 62.3424 11.4932 62.3761 11.2129 62.4434C10.1919 60.9952 9.53125 58.7724 9.53125 56.3139C9.53125 54.1584 10.0518 52.0703 10.9526 50.5885C11.273 50.0496 11.6333 49.5781 12.0537 49.2076C12.7144 48.5677 13.5152 48.1973 14.336 48.1973H65.5862C66.0066 48.1973 66.407 48.2983 66.7874 48.4667C67.1878 48.6351 67.5481 48.9045 67.8884 49.2413C69.45 50.6558 70.3909 53.3838 70.3909 56.3139Z" fill="#BA91E8"/>
<path d="M22.5403 77.3188H16.9928C16.9328 77.2852 16.8526 77.2852 16.7926 77.2852H12.0662C9.42267 77.2852 7.25977 73.69 7.25977 69.2212C7.25977 67.0708 7.76044 65.0548 8.72173 63.4756C8.80184 63.3076 8.922 63.1396 9.16232 62.8372C9.98342 61.762 11.0248 61.1572 12.0862 61.1572H17.6337C16.5723 61.1572 15.5509 61.762 14.7098 62.8372C14.4694 63.1396 14.3493 63.3076 14.2692 63.4756C13.3079 65.0548 12.8072 67.0708 12.8072 69.2212C12.8072 73.69 14.9701 77.2852 17.6137 77.2852H22.34C22.4201 77.2852 22.5002 77.2852 22.5403 77.3188Z" fill="#FAF6FF"/>
<path d="M67.1836 69.2212C67.1836 71.4052 66.6829 73.3876 65.7817 74.9332C64.8604 76.4788 63.6789 77.2852 62.3771 77.2852H57.6307C57.5707 77.2852 57.4905 77.2852 57.4305 77.3188H22.5436C22.4835 77.2852 22.4034 77.2852 22.3433 77.2852H17.617C14.9735 77.2852 12.8105 73.69 12.8105 69.2212C12.8105 67.0708 13.3112 65.0548 14.2725 63.4756C14.3526 63.3076 14.4728 63.1396 14.7131 62.8372C15.5342 61.762 16.5756 61.1572 17.637 61.1572H62.3771C63.4385 61.1572 64.4599 61.762 65.3211 62.8372C66.4826 64.3492 67.1836 66.7012 67.1836 69.2212Z" fill="#FAF6FF"/>
<path d="M29.1736 85.2497H23.6462C19.8211 85.2497 16.3965 81.9569 15.1348 77.2529H16.6368C16.6969 77.2865 16.777 77.2865 16.8371 77.2865H20.7022C21.9439 81.9569 25.3485 85.2497 29.1736 85.2497Z" fill="#BA91E8"/>
<path d="M59.3531 77.2529C58.9125 78.8993 58.2316 80.4113 57.3103 81.6209C55.568 83.9729 53.2649 85.2497 50.8216 85.2497H29.1926C25.3674 85.2497 21.9629 81.9569 20.7012 77.2865H57.6508C57.7109 77.2865 57.791 77.2865 57.8511 77.2529H59.3531Z" fill="#BA91E8"/>
<path d="M29.2129 43.4011C29.2129 39.319 32.5221 36.0098 36.6042 36.0098V36.0098C40.6863 36.0098 43.9956 39.319 43.9956 43.4011V56.3251H29.2129V43.4011Z" fill="#8847CD"/>
<path d="M31.4629 43.832C31.4629 40.3705 34.269 37.5645 37.7304 37.5645V37.5645C41.1918 37.5645 43.9979 40.3705 43.9979 43.832V56.3237H31.4629V43.832Z" fill="#5F249F"/>
</svg>
