<svg width="48" height="48" viewBox="0 0 48 48" fill="none" xmlns="http://www.w3.org/2000/svg">
<path d="M16.808 4.93348C16.325 5.73226 16.0459 6.85782 16.0459 8.01969C16.0459 8.9274 16.2176 9.7988 16.5182 10.5431H13.5446C13.2333 9.81695 13.0723 8.9274 13.0723 8.01969C13.0723 6.85782 13.3514 5.73226 13.8345 4.93348C14.3175 4.11654 14.9616 3.64453 15.6487 3.64453H18.6223C17.9352 3.64453 17.2911 4.09839 16.808 4.93348Z" fill="#BF7B02"/>
<path d="M35.7026 8.01969C35.7026 8.9274 35.5309 9.7988 35.2303 10.5431H16.5192C16.2079 9.81695 16.0469 8.9274 16.0469 8.01969C16.0469 6.85782 16.326 5.73226 16.8091 4.93348C17.2921 4.11654 17.9362 3.64453 18.6233 3.64453H33.1048C34.5325 3.64453 35.7026 5.60518 35.7026 8.01969Z" fill="#D89A36"/>
<path d="M12.302 18.2921H9.32843C8.7058 17.4751 8.33008 16.2043 8.33008 14.8609C8.33008 13.699 8.60919 12.5735 9.09226 11.7747C9.5646 10.9759 10.2302 10.5039 10.9065 10.5039H13.8801C13.2038 10.5039 12.5382 10.9759 12.0659 11.7747C11.5828 12.5735 11.3037 13.699 11.3037 14.8609C11.3037 16.2043 11.6794 17.4751 12.302 18.2921Z" fill="#E8A205"/>
<path d="M40.4502 14.8609C40.4502 16.0046 40.1711 17.1302 39.688 17.929C39.6128 18.0742 39.5377 18.1831 39.4518 18.2921H12.303C11.6804 17.4751 11.3047 16.2043 11.3047 14.8609C11.3047 13.699 11.5838 12.5735 12.0669 11.7747C12.5392 10.9759 13.2048 10.5039 13.8811 10.5039H37.863C39.2908 10.5039 40.4502 12.4464 40.4502 14.8609Z" fill="#F5DC46"/>
<path d="M10.3159 19.5663C9.83278 20.3651 9.55367 21.4906 9.55367 22.6525C9.55367 23.8144 9.83278 24.9036 10.2944 25.7024H9.16721C8.89884 25.7024 8.64119 25.7569 8.39429 25.8658C8.29767 25.8839 8.20106 25.9203 8.10445 25.9929C8.07224 25.9929 8.0293 26.011 7.9971 26.0473C7.88975 26.1018 7.7824 26.1744 7.68578 26.247C6.99874 25.4301 6.58008 24.1048 6.58008 22.6525C6.58008 21.4906 6.85919 20.3651 7.34226 19.5663C7.82534 18.7494 8.46944 18.2773 9.15647 18.2773H12.1301C11.443 18.2773 10.7989 18.7494 10.3159 19.5663Z" fill="#BF7B02"/>
<path d="M42.1871 22.6525C42.1871 23.8144 41.908 24.9036 41.4356 25.7024L41.4249 25.7206C41.3175 25.9203 41.1995 26.0836 41.0814 26.2289C41.0062 26.1744 40.9418 26.1381 40.8667 26.0836C40.7486 26.011 40.6412 25.9566 40.5232 25.9021C40.3729 25.8476 40.2333 25.7932 40.0938 25.7569C39.9327 25.7206 39.761 25.7024 39.6107 25.7024H10.2934C9.83184 24.9036 9.55273 23.8144 9.55273 22.6525C9.55273 21.4906 9.83184 20.3651 10.3149 19.5663C10.798 18.7494 11.4421 18.2773 12.1291 18.2773H39.6321C41.0492 18.3137 42.1871 20.2561 42.1871 22.6525Z" fill="#D89A36"/>
<path d="M10.3168 26.6692C9.83376 27.468 9.55465 28.5936 9.55465 29.7554C9.55465 31.0807 9.89817 32.2789 10.4564 33.0595C10.3383 33.0777 10.2202 33.114 10.1129 33.1684C10.0485 33.1866 9.97332 33.2229 9.90891 33.2592C9.88744 33.2592 9.8767 33.2592 9.86597 33.2774C9.73715 33.3318 9.60833 33.4226 9.50098 33.5134C9.27554 33.6586 9.07158 33.8583 8.87835 34.0943C7.59015 33.8583 6.5918 32.0066 6.5918 29.7736C6.5918 28.6117 6.87091 27.4862 7.35398 26.6874C7.52574 26.3969 7.71897 26.1428 7.9444 25.9431C8.29866 25.5981 8.72806 25.3984 9.16819 25.3984H12.1418C11.7016 25.3984 11.2722 25.5981 10.918 25.9431C10.6818 26.1246 10.4779 26.3788 10.3168 26.6692Z" fill="#E8A205"/>
<path d="M42.1871 29.7541C42.1871 30.8978 41.908 32.0233 41.4249 32.8221C41.3712 32.9129 41.3175 32.9855 41.2639 33.0581C41.178 33.1852 41.0814 33.3123 40.9848 33.4212C40.8989 33.512 40.813 33.6027 40.7164 33.6754C40.6198 33.7661 40.5232 33.8388 40.4158 33.8751C40.244 33.984 40.0723 34.0566 39.9005 34.0929L39.8898 34.0748C39.7932 33.9658 39.6858 33.8569 39.5677 33.748C39.4282 33.6209 39.2779 33.512 39.1383 33.4212C38.8807 33.2397 38.6123 33.1307 38.3332 33.0763C38.2581 33.04 38.1722 33.0218 38.0863 33.0218C38.0112 33.0037 37.9253 33.0037 37.8394 33.0037H10.9161C10.7551 33.0037 10.6048 33.0218 10.4545 33.0581C9.90699 32.2775 9.55273 31.0793 9.55273 29.7541C9.55273 28.5922 9.83184 27.4666 10.3149 26.6679C10.4867 26.3774 10.6799 26.1232 10.9053 25.9235C11.2596 25.5786 11.689 25.3789 12.1291 25.3789H39.6107C39.8361 25.3789 40.0508 25.4334 40.2548 25.5241C40.4695 25.6149 40.6627 25.7601 40.8452 25.9417C41.6825 26.7042 42.1871 28.1746 42.1871 29.7541Z" fill="#F5DC46"/>
<path d="M16.5209 41.115H13.5473C13.5151 41.0968 13.4721 41.0968 13.4399 41.0968H10.9065C9.48946 41.0968 8.33008 39.1543 8.33008 36.7398C8.33008 35.578 8.59845 34.4887 9.11373 33.6355C9.15667 33.5447 9.22108 33.4539 9.3499 33.2905C9.79004 32.7096 10.3483 32.3828 10.9172 32.3828H13.8908C13.3218 32.3828 12.7744 32.7096 12.3235 33.2905C12.1947 33.4539 12.1303 33.5447 12.0873 33.6355C11.572 34.4887 11.3037 35.578 11.3037 36.7398C11.3037 39.1543 12.463 41.0968 13.8801 41.0968H16.4135C16.4565 41.0968 16.4994 41.0968 16.5209 41.115Z" fill="#BF7B02"/>
<path d="M40.4502 36.7398C40.4502 37.9198 40.1818 38.9909 39.6987 39.826C39.2049 40.6611 38.5715 41.0968 37.8738 41.0968H35.3296C35.2974 41.0968 35.2544 41.0968 35.2222 41.115H16.5219C16.4897 41.0968 16.4467 41.0968 16.4145 41.0968H13.8811C12.4641 41.0968 11.3047 39.1543 11.3047 36.7398C11.3047 35.578 11.5731 34.4887 12.0883 33.6355C12.1313 33.5447 12.1957 33.4539 12.3245 33.2905C12.7646 32.7096 13.3229 32.3828 13.8918 32.3828H37.8738C38.4427 32.3828 38.9902 32.7096 39.4518 33.2905C40.0744 34.1075 40.4502 35.3783 40.4502 36.7398Z" fill="#D89A36"/>
<path d="M20.074 45.3988H17.1112C15.0608 45.3988 13.2251 43.6197 12.5488 41.0781H13.354C13.3862 41.0963 13.4291 41.0963 13.4613 41.0963H15.5332C16.1987 43.6197 18.0237 45.3988 20.074 45.3988Z" fill="#E8A205"/>
<path d="M36.2517 41.0781C36.0156 41.9677 35.6506 42.7846 35.1568 43.4382C34.2228 44.709 32.9883 45.3988 31.6786 45.3988H20.0848C18.0345 45.3988 16.2095 43.6197 15.5332 41.0963H35.3392C35.3715 41.0963 35.4144 41.0963 35.4466 41.0781H36.2517Z" fill="#F5DC46"/>
<path d="M20.4512 22.7303C20.4512 20.5428 22.2244 18.7695 24.4119 18.7695C26.5994 18.7695 28.3726 20.5428 28.3726 22.7303V29.7453H20.4512V22.7303Z" fill="#BF7B02"/>
<path d="M21.6543 23.003C21.6543 21.1482 23.1579 19.6445 25.0128 19.6445C26.8676 19.6445 28.3712 21.1482 28.3712 23.003V29.7464H21.6543V23.003Z" fill="#282727"/>
</svg>
