<svg width="18" height="18" viewBox="0 0 18 18" fill="none" xmlns="http://www.w3.org/2000/svg">
<path d="M7.03125 11.9725V8.48491C7.03125 7.39754 7.91316 6.51562 9.00054 6.51562C10.0879 6.51562 10.9698 7.39754 10.9698 8.48491V11.9725H7.0323H7.03125Z" fill="#53686F" stroke="#53686F" stroke-width="0.75" stroke-linejoin="round"/>
<path d="M4.78408 3.36826H13.2176C13.2397 3.36826 13.2608 3.37037 13.2818 3.37143V2.60752C13.2818 1.56019 12.4326 0.710938 11.3852 0.710938H6.61534C5.568 0.710938 4.71875 1.56019 4.71875 2.60752V3.37143C4.74088 3.37143 4.76195 3.36826 4.78302 3.36826H4.78408Z" stroke="#53686F" stroke-width="0.75" stroke-linejoin="round"/>
<path d="M4.78408 14.6301H13.2176C13.2397 14.6301 13.2608 14.628 13.2818 14.627V15.3909C13.2818 16.4382 12.4326 17.2874 11.3852 17.2874H6.61534C5.568 17.2874 4.71875 16.4382 4.71875 15.3909V14.627C4.74088 14.627 4.76195 14.6301 4.78302 14.6301H4.78408Z" stroke="#53686F" stroke-width="0.75" stroke-linejoin="round"/>
<path d="M3.37246 6.02557H14.6276C14.8015 6.02557 14.9659 6.06455 15.1134 6.13304V5.26377C15.1134 4.21644 14.2641 3.36719 13.2168 3.36719H4.7833C3.73597 3.36719 2.88672 4.21644 2.88672 5.26377V6.13304C3.03423 6.06455 3.19861 6.02557 3.37246 6.02557Z" stroke="#53686F" stroke-width="0.75" stroke-linejoin="round"/>
<path d="M14.6276 11.9727H3.37246C3.19861 11.9727 3.03423 11.9337 2.88672 11.8652V12.7345C2.88672 13.7818 3.73597 14.6311 4.7833 14.6311H13.2168C14.2641 14.6311 15.1134 13.7818 15.1134 12.7345V11.8652C14.9659 11.9337 14.8015 11.9727 14.6276 11.9727Z" stroke="#53686F" stroke-width="0.75" stroke-linejoin="round"/>
<path d="M14.6269 11.9715H3.37177C2.73219 11.9715 2.21484 11.4531 2.21484 10.8146V9.94423C2.21484 9.55227 2.40977 9.20772 2.70796 8.99805C2.89656 9.13081 3.1252 9.20878 3.37281 9.20878H14.628C14.8756 9.20878 15.1042 9.13081 15.2929 8.99805C15.59 9.20772 15.786 9.55333 15.786 9.94423V10.8146C15.786 11.4531 15.2676 11.9715 14.629 11.9715H14.6269Z" stroke="#53686F" stroke-width="0.75" stroke-linejoin="round"/>
<path d="M14.6269 6.02539H3.37177C2.73282 6.02539 2.21484 6.54336 2.21484 7.18231V8.05263C2.21484 8.69158 2.73282 9.20955 3.37177 9.20955H14.6269C15.2659 9.20955 15.7839 8.69158 15.7839 8.05263V7.18231C15.7839 6.54336 15.2659 6.02539 14.6269 6.02539Z" stroke="#53686F" stroke-width="0.75" stroke-linejoin="round"/>
</svg>
