<svg width="18" height="20" viewBox="0 0 18 20" fill="none" xmlns="http://www.w3.org/2000/svg">
<path d="M7.03125 12.9735V9.48589C7.03125 8.39851 7.91316 7.5166 9.00054 7.5166C10.0879 7.5166 10.9698 8.39851 10.9698 9.48589V12.9735H7.0323H7.03125Z" fill="#310A5C" stroke="#310A5C" stroke-width="0.585366" stroke-linejoin="round"/>
<path d="M4.78408 4.36924H13.2176C13.2397 4.36924 13.2608 4.37135 13.2818 4.3724V3.6085C13.2818 2.56116 12.4326 1.71191 11.3852 1.71191H6.61534C5.568 1.71191 4.71875 2.56116 4.71875 3.6085V4.3724C4.74088 4.3724 4.76195 4.36924 4.78302 4.36924H4.78408Z" stroke="#310A5C" stroke-width="0.585366" stroke-linejoin="round"/>
<path d="M4.78408 15.6311H13.2176C13.2397 15.6311 13.2608 15.629 13.2818 15.6279V16.3918C13.2818 17.4392 12.4326 18.2884 11.3852 18.2884H6.61534C5.568 18.2884 4.71875 17.4392 4.71875 16.3918V15.6279C4.74088 15.6279 4.76195 15.6311 4.78302 15.6311H4.78408Z" stroke="#310A5C" stroke-width="0.585366" stroke-linejoin="round"/>
<path d="M3.37246 7.02654H14.6276C14.8015 7.02654 14.9659 7.06553 15.1134 7.13402V6.26475C15.1134 5.21741 14.2641 4.36816 13.2168 4.36816H4.7833C3.73597 4.36816 2.88672 5.21741 2.88672 6.26475V7.13402C3.03423 7.06553 3.19861 7.02654 3.37246 7.02654Z" stroke="#310A5C" stroke-width="0.585366" stroke-linejoin="round"/>
<path d="M14.6276 12.9737H3.37246C3.19861 12.9737 3.03423 12.9347 2.88672 12.8662V13.7355C2.88672 14.7828 3.73597 15.6321 4.7833 15.6321H13.2168C14.2641 15.6321 15.1134 14.7828 15.1134 13.7355V12.8662C14.9659 12.9347 14.8015 12.9737 14.6276 12.9737Z" stroke="#310A5C" stroke-width="0.585366" stroke-linejoin="round"/>
<path d="M14.6269 12.9734H3.37177C2.73219 12.9734 2.21484 12.455 2.21484 11.8165V10.9462C2.21484 10.5542 2.40977 10.2097 2.70796 10C2.89656 10.1328 3.1252 10.2107 3.37281 10.2107H14.628C14.8756 10.2107 15.1042 10.1328 15.2929 10C15.59 10.2097 15.786 10.5553 15.786 10.9462V11.8165C15.786 12.455 15.2676 12.9734 14.629 12.9734H14.6269Z" stroke="#310A5C" stroke-width="0.585366" stroke-linejoin="round"/>
<path d="M14.6269 7.02637H3.37177C2.73282 7.02637 2.21484 7.54434 2.21484 8.18328V9.05361C2.21484 9.69255 2.73282 10.2105 3.37177 10.2105H14.6269C15.2659 10.2105 15.7839 9.69255 15.7839 9.05361V8.18328C15.7839 7.54434 15.2659 7.02637 14.6269 7.02637Z" stroke="#310A5C" stroke-width="0.585366" stroke-linejoin="round"/>
</svg>
