<svg width="284" height="284" viewBox="0 0 284 284" fill="none" xmlns="http://www.w3.org/2000/svg">
<g clip-path="url(#clip0_2138_25681)">
<path d="M276.955 162.637C280.544 79.6622 237.143 45.7878 161.872 29.2311C77.8331 10.7456 48.7634 52.6818 23.103 131.29C-2.55738 209.898 45.7128 290.061 147.158 274.686C254.475 258.421 273.988 231.229 276.955 162.637Z" fill="#CDEEF7"/>
<mask id="mask0_2138_25681" style="mask-type:alpha" maskUnits="userSpaceOnUse" x="16" y="24" width="262" height="253">
<path d="M276.955 162.711C280.544 79.7364 237.143 45.862 161.872 29.3053C77.8331 10.8199 48.7634 52.756 23.103 131.364C-2.55737 209.972 45.7128 290.135 147.158 274.76C254.475 258.496 273.988 231.304 276.955 162.711Z" fill="#CDEEF7"/>
</mask>
<g mask="url(#mask0_2138_25681)">
<path d="M72.6279 38.9854C99.8741 12.2653 141.473 2.68498 178.021 12.2168C215.633 22.0263 239.569 54.7057 245.724 90.8906H245.733L245.925 92.0928C248.44 107.923 247.568 124.42 242.945 139.996C234.269 169.235 212.794 193.682 185.357 206.76C122.541 236.701 49.4201 195.387 41.6494 126.081C38.0951 94.3767 49.8512 61.3223 72.6279 38.9854Z" fill="#CDEEF7" stroke="#CDEEF7" stroke-width="2.85185"/>
</g>
<path d="M166.184 103.512L167.401 103.066L166.184 103.512ZM265.897 27.0107L254.592 36.8212L268.741 41.7065L265.897 27.0107ZM84.9844 137.14L85.5914 138.286C89.5706 136.177 93.087 132.153 96.2852 127.166C99.4985 122.155 102.479 116.029 105.328 109.548C111.07 96.4872 116.25 82.0982 121.88 71.6927C124.691 66.4978 127.519 62.4906 130.437 60.2013C131.879 59.0695 133.298 58.3943 134.71 58.1692C136.108 57.9463 137.59 58.1495 139.201 58.9203C142.491 60.4943 146.284 64.4207 150.62 71.7518C154.932 79.0423 159.682 89.5268 164.966 103.958L166.184 103.512L167.401 103.066C162.091 88.5667 157.278 77.9165 152.852 70.432C148.449 62.9881 144.328 58.4992 140.32 56.5816C138.283 55.6067 136.27 55.2951 134.302 55.6089C132.348 55.9204 130.529 56.8334 128.836 58.1616C125.483 60.7926 122.449 65.1936 119.6 70.4589C113.911 80.9741 108.578 95.714 102.955 108.504C100.122 114.948 97.2059 120.927 94.1027 125.767C90.9844 130.629 87.7636 134.2 84.3774 135.995L84.9844 137.14ZM166.184 103.512L164.966 103.958C168.95 114.837 173.012 123.312 177.143 129.636C181.268 135.952 185.512 140.197 189.893 142.505C194.317 144.837 198.808 145.151 203.264 143.732C207.672 142.328 211.974 139.254 216.158 134.938C224.52 126.312 232.709 112.414 240.586 95.6326C248.477 78.8238 256.106 59.0103 263.313 38.4662L262.09 38.0371L260.867 37.6079C253.673 58.1152 246.077 77.8359 238.239 94.5309C230.389 111.253 222.348 124.828 214.297 133.133C210.275 137.281 206.326 140.036 202.477 141.262C198.675 142.472 194.904 142.215 191.101 140.212C187.254 138.185 183.305 134.33 179.313 128.219C175.326 122.115 171.345 113.835 167.401 103.066L166.184 103.512Z" fill="#20B0FE"/>
<path d="M244.436 92.3169C238.68 56.0881 214.947 23.3421 177.581 13.5968C141.479 4.18141 100.407 13.6608 73.546 40.0031C51.0824 62.0329 39.4805 94.6532 42.986 125.922C50.6491 194.271 122.747 234.985 184.664 205.472C211.749 192.563 232.941 168.428 241.498 139.59C246.057 124.229 246.92 107.949 244.436 92.3169H244.436Z" fill="#77CFFB"/>
<path d="M205.305 217.988C201.26 209.596 197.215 201.203 193.169 192.81C193.149 191.566 192.103 190.251 190.511 190.601C179.031 193.124 167.5 195.575 155.806 196.872C144.124 198.169 132.555 197.838 120.852 197.08C114.185 196.648 107.682 195.858 101.235 194.043C100.58 193.859 100.018 193.973 99.583 194.261C99.2592 194.415 98.9593 194.662 98.7157 195.023C94.5086 201.247 91.0833 207.957 88.4938 215.01C86.2442 221.136 84.1233 227.9 85.2489 234.487C86.4839 241.713 92.5736 244.957 98.7442 247.612C105.734 250.62 113.046 252.629 120.59 253.624C128.559 254.676 136.654 254.809 144.683 254.874C152.463 254.937 160.258 254.726 167.998 253.888C175.436 253.082 182.831 251.745 189.979 249.511C196.018 247.623 202.864 245.285 206.932 240.135C212.471 233.122 208.689 225.011 205.303 217.987L205.305 217.988Z" fill="#444444"/>
<path d="M66.8223 47.2969C88.1643 26.6275 117.281 19.4233 161.876 29.2324C190.029 35.4251 213.724 44.0411 232.169 56.7422C238.294 67.6425 242.445 79.7702 244.438 92.3164C246.922 107.948 246.059 124.229 241.5 139.59C232.943 168.427 211.751 192.562 184.666 205.472C122.75 234.984 50.6514 194.27 42.9883 125.921C39.8519 97.9433 48.8107 68.8843 66.8223 47.2969Z" fill="#20B0FE"/>
<path d="M114.765 205.822C106.772 203.781 99.1229 200.501 92.1012 196.174C85.1195 191.871 78.7755 186.547 73.338 180.405C70.2705 176.94 67.5051 173.217 65.0774 169.277C64.7189 168.695 63.7977 169.229 64.1585 169.814C68.5328 176.911 74.0026 183.321 80.2888 188.794C86.5758 194.267 93.6623 198.825 101.271 202.23C105.536 204.138 109.955 205.692 114.482 206.849C115.146 207.018 115.429 205.992 114.765 205.822Z" fill="#444444"/>
<path d="M59.8741 158.407C58.0763 155.866 56.6046 153.105 55.5191 150.187C55.2824 149.551 54.2532 149.826 54.493 150.47C55.6108 153.475 57.1026 156.325 58.9552 158.944C59.3476 159.499 60.2704 158.968 59.8741 158.407Z" fill="#444444"/>
<path d="M152.315 233.622C151.984 232.594 151.071 231.79 150.407 230.973C149.643 230.034 148.92 229.061 148.239 228.061C146.735 225.855 145.434 223.515 144.343 221.078C144.189 220.734 143.842 220.745 143.607 220.928C143.414 220.885 143.209 220.95 143.095 221.188C140.616 226.357 137.529 231.228 133.893 235.662C133.727 235.865 133.705 236.071 133.81 236.307C136.201 241.684 139.601 246.511 142.986 251.297C143.232 251.644 143.848 251.65 143.958 251.169C144.945 246.876 147.762 243.382 150.05 239.721C150.61 238.826 151.145 237.913 151.62 236.97C152.135 235.953 152.688 234.78 152.316 233.622L152.315 233.622Z" fill="white"/>
<path d="M150.456 237.399C150.171 237.461 149.878 237.417 149.594 237.367C149.305 237.317 149.016 237.265 148.727 237.214C148.158 237.113 147.538 236.932 146.969 237.115C146.943 237.124 146.925 237.14 146.903 237.152C146.857 236.668 146.575 236.232 146.277 235.841C146.005 235.483 145.688 235.156 145.367 234.83C145.382 234.818 145.399 234.814 145.414 234.799C146.705 233.506 148.074 232.293 149.515 231.167C149.666 231.049 149.639 230.789 149.515 230.665C149.366 230.516 149.165 230.547 149.013 230.665C147.573 231.791 146.203 233.004 144.912 234.297C144.9 234.309 144.897 234.322 144.887 234.334C144.5 233.923 144.14 233.493 143.889 232.986C143.535 232.269 143.563 231.446 143.538 230.666C143.511 229.813 143.494 228.96 143.498 228.106C143.507 226.179 143.625 224.25 143.96 222.349C144.039 221.903 143.355 221.711 143.276 222.161C142.994 223.759 142.852 225.376 142.807 226.997C142.76 228.651 142.712 230.373 142.899 232.019C142.902 232.049 142.911 232.077 142.915 232.106C142.892 232.125 142.871 232.146 142.852 232.17C142.289 232.902 141.757 233.656 141.245 234.425C141.241 234.421 141.238 234.416 141.232 234.413C140.774 234.095 140.351 233.801 139.988 233.362C139.848 233.191 139.693 232.969 139.525 232.763C139.349 232.544 139.149 232.352 138.913 232.199C138.752 232.095 138.522 232.166 138.428 232.326C138.328 232.498 138.394 232.707 138.556 232.812C138.583 232.83 138.61 232.848 138.637 232.867C138.643 232.871 138.667 232.89 138.674 232.896C138.721 232.935 138.765 232.976 138.807 233.019C138.897 233.11 138.979 233.207 139.059 233.307C139.066 233.316 139.074 233.325 139.081 233.335C139.081 233.336 139.081 233.335 139.082 233.337C139.101 233.362 139.119 233.386 139.138 233.41C139.179 233.464 139.219 233.519 139.26 233.573C139.349 233.69 139.438 233.807 139.534 233.918C139.908 234.355 140.387 234.686 140.857 235.012C140.59 235.431 140.328 235.855 140.077 236.284C139.937 236.525 139.799 236.757 139.733 237.003C139.721 237.003 139.709 237.001 139.697 237.003C138.859 237.127 138.043 236.67 137.248 236.486C136.346 236.279 135.423 236.354 134.539 236.043C134.107 235.891 133.922 236.575 134.35 236.727C135.291 237.059 136.285 236.961 137.239 237.215C138.091 237.441 138.883 237.791 139.776 237.695C139.943 238.168 140.239 238.63 140.464 239.073C140.638 239.414 140.813 239.754 140.988 240.094C140.108 240.801 139.229 241.508 138.349 242.215C138.199 242.335 138.224 242.591 138.349 242.717C138.497 242.865 138.701 242.837 138.851 242.717C139.673 242.056 140.495 241.395 141.317 240.734C141.85 241.765 142.389 242.793 142.933 243.819C142.956 243.862 142.987 243.894 143.02 243.921C142.995 244.008 142.988 244.105 142.982 244.202C142.962 244.507 142.957 244.812 142.961 245.116C142.968 245.687 143.01 246.257 143.056 246.826C143.153 248.004 143.271 249.183 143.187 250.366C143.154 250.821 143.864 250.819 143.896 250.366C143.971 249.306 143.886 248.248 143.796 247.192C143.752 246.663 143.706 246.135 143.684 245.604C143.673 245.361 143.668 245.116 143.668 244.873C143.668 244.751 143.672 244.629 143.675 244.507C143.679 244.426 143.682 244.345 143.686 244.264C143.696 244.215 143.699 244.184 143.697 244.164C143.763 244.066 143.787 243.941 143.715 243.807C143.712 243.802 143.709 243.796 143.705 243.79C143.685 243.752 143.655 243.722 143.625 243.697C144.186 242.867 144.708 242.014 145.196 241.139C145.867 241.743 146.502 242.429 147.016 243.122C147.126 243.271 147.328 243.361 147.501 243.249C147.648 243.154 147.746 242.923 147.628 242.764C147.015 241.937 146.321 241.176 145.546 240.499C145.686 240.234 145.826 239.969 145.958 239.701C146.262 239.086 146.665 238.407 146.842 237.73C146.917 237.801 147.023 237.838 147.155 237.796C147.414 237.713 147.677 237.744 147.942 237.79C148.229 237.839 148.516 237.892 148.804 237.943C149.408 238.05 150.029 238.212 150.642 238.081C151.089 237.984 150.9 237.3 150.454 237.397L150.456 237.399ZM146.144 237.596C146.011 238.021 145.786 238.434 145.596 238.835C144.921 240.26 144.14 241.629 143.275 242.945C142.369 241.231 141.476 239.509 140.602 237.779C140.439 237.456 140.36 237.279 140.526 236.93C140.632 236.709 140.777 236.497 140.902 236.287C141.157 235.861 141.42 235.44 141.692 235.023C142.15 234.322 142.637 233.64 143.139 232.969C143.456 233.783 144.027 234.45 144.663 235.105C145.092 235.548 145.54 235.986 145.883 236.501C146.115 236.851 146.276 237.177 146.144 237.597V237.596Z" fill="#444444"/>
<path d="M178.931 33.1062C179.109 31.6651 180.118 30.497 181.407 29.884C184.523 28.4036 188.125 30.15 191.021 31.4061C193.864 32.639 196.606 34.1032 199.222 35.7648C204.467 39.0973 209.209 43.2125 213.325 47.8643C217.475 52.5554 221.007 57.7916 223.823 63.3856C227.04 69.7784 229.365 76.6038 230.867 83.5965C232.376 90.617 233.075 97.8078 233.072 104.986C233.072 106.728 233.028 108.471 232.947 110.212C232.945 110.249 232.939 110.282 232.931 110.315L233.084 112.053C233.137 112.657 232.186 112.766 232.038 112.194C230.167 104.92 228.12 97.6837 225.586 90.6092C223.135 83.7615 220.223 77.0641 216.606 70.7469C213.295 64.9624 209.407 59.4925 204.85 54.621C200.091 49.5328 194.632 45.2604 188.598 41.7837C187.015 40.8708 185.393 40.035 183.78 39.1768C182.523 38.5083 181.264 37.721 180.291 36.6678C179.394 35.6962 178.763 34.4564 178.93 33.1032L178.931 33.1062Z" fill="white"/>
<path d="M227.198 128.275C227.77 126.638 228.249 124.379 229.929 123.496C230.637 123.124 231.505 123.088 232.169 123.573C232.757 124.004 233.043 124.712 233.154 125.412C233.276 126.18 233.213 126.926 233.104 127.691C232.952 128.756 232.775 129.819 232.573 130.876C232.179 132.938 231.691 134.982 231.111 137C230.413 139.423 229.579 141.807 228.623 144.141C227.945 146.301 227.184 148.435 226.307 150.508C225.592 152.2 224.536 153.983 222.631 154.469C222.284 154.558 221.974 154.304 221.957 153.955C221.552 145.099 224.317 136.53 227.198 128.275V128.275Z" fill="white"/>
<path d="M190.389 190.606C191.981 190.257 193.027 191.572 193.047 192.816C194.06 194.919 195.074 197.021 196.087 199.123C192.404 201.467 188.576 203.593 184.621 205.479C153.859 220.141 120.585 217.467 93.9473 202.684C95.3706 200.062 96.9193 197.506 98.5938 195.029C98.8374 194.668 99.1372 194.421 99.4609 194.267C99.8957 193.979 100.458 193.865 101.113 194.049C107.561 195.864 114.063 196.653 120.729 197.085C132.432 197.843 144.002 198.175 155.684 196.878C167.377 195.58 178.909 193.129 190.389 190.606Z" fill="#0C87CA"/>
<mask id="mask1_2138_25681" style="mask-type:alpha" maskUnits="userSpaceOnUse" x="42" y="10" width="204" height="206">
<path d="M244.436 92.3169C238.68 56.0881 214.947 23.3421 177.581 13.5968C141.479 4.18141 100.407 13.6608 73.546 40.0031C51.0824 62.0329 39.4805 94.6532 42.986 125.922C50.6491 194.271 122.747 234.985 184.664 205.472C211.749 192.563 232.941 168.428 241.498 139.59C246.057 124.229 246.92 107.949 244.436 92.3169H244.436Z" fill="#77CFFB"/>
</mask>
<g mask="url(#mask1_2138_25681)">
<path d="M20.9277 79.0479H417.697" stroke="#C3C5C9" stroke-width="0.812637" stroke-dasharray="1.63 1.63"/>
<path d="M20.9277 148.078H417.697" stroke="#C3C5C9" stroke-width="0.812637" stroke-dasharray="1.63 1.63"/>
<path d="M87.0586 10.0234L87.0586 214.945" stroke="#C3C5C9" stroke-width="0.812637" stroke-dasharray="1.63 1.63"/>
<path d="M153.189 10.0234L153.189 214.945" stroke="#C3C5C9" stroke-width="0.812637" stroke-dasharray="1.63 1.63"/>
<path d="M219.32 10.0234L219.32 214.945" stroke="#C3C5C9" stroke-width="0.812637" stroke-dasharray="1.63 1.63"/>
<path d="M76.0317 159.704C39.7949 159.704 22.8301 215.243 22.8301 215.243H418.221V172.04C391.586 182.481 333.495 186.081 314.207 116.956C290.098 30.5489 250.294 102.915 219.148 102.915C192.478 102.915 177.956 58.6309 157.842 58.6309C130.183 58.6309 149.32 192.276 116.204 192.276C101.347 192.276 98.6967 159.704 76.0317 159.704Z" fill="#20B0FE" fill-opacity="0.5" stroke="#20B0FE" stroke-width="0.812637"/>
<path opacity="0.5" d="M90.8727 89.3007C68.535 58.6144 48.8703 90.0998 41.8301 109.678V224.752H247.308V0.598517C209.721 -2.99754 218.296 175.565 165.353 175.565C114.485 175.565 118.795 127.659 90.8727 89.3007Z" fill="#CDEEF7" fill-opacity="0.5" stroke="#CDEEF7" stroke-width="2.59259"/>
<path d="M85.4271 137.226C61.9848 149.718 46.5948 73.5673 41.8301 33.9307V226.108H247.308V75.9695C228.487 124.414 199.134 194.05 166.189 103.595C124.039 -12.1349 114.73 121.612 85.4271 137.226Z" fill="#77CFFB" fill-opacity="0.5" stroke="#CDEEF7" stroke-width="2.59259"/>
</g>
<g clip-path="url(#clip1_2138_25681)">
<path d="M64.3721 70.599L10.8718 80.7718C9.02041 81.1238 7.80491 82.9101 8.15695 84.7615L23.0262 162.961C23.3782 164.813 25.1645 166.028 27.0159 165.676L80.5162 155.503C82.3676 155.151 83.5831 153.365 83.2311 151.514L68.3619 73.3139C68.0098 71.4624 66.2236 70.247 64.3721 70.599Z" fill="#77CFFB"/>
<path d="M48.4816 77.4913L28.1837 81.3508C27.9291 81.3992 27.7619 81.6449 27.8103 81.8995L28.3124 84.5398C28.3608 84.7944 28.6064 84.9616 28.8611 84.9132L49.159 81.0537C49.4136 81.0053 49.5807 80.7596 49.5323 80.505L49.0303 77.8647C48.9819 77.61 48.7362 77.4429 48.4816 77.4913Z" fill="#CDEEF7"/>
<path d="M63.0837 84.0326L16.9972 92.7957C16.4152 92.9064 16.0331 93.4679 16.1437 94.0499L17.7753 102.631C17.886 103.213 18.4475 103.595 19.0295 103.484L65.1161 94.7211C65.6981 94.6105 66.0801 94.049 65.9695 93.467L64.3379 84.8861C64.2272 84.3041 63.6657 83.922 63.0837 84.0326Z" fill="#BDCBCF"/>
<path d="M61.6498 85.819L18.9907 93.9304C18.6269 93.9996 18.3881 94.3505 18.4573 94.7143L19.6832 101.162C19.7523 101.525 20.1033 101.764 20.467 101.695L63.1262 93.5835C63.4899 93.5144 63.7287 93.1634 63.6595 92.7997L62.4336 86.3524C62.3645 85.9887 62.0135 85.7499 61.6498 85.819Z" fill="white"/>
<path d="M54.5442 101.867L51.2701 102.49C50.2871 102.677 49.6418 103.625 49.8287 104.608L49.9725 105.365C50.1594 106.348 51.1078 106.993 52.0908 106.806L55.3649 106.183C56.3479 105.997 56.9932 105.048 56.8063 104.065L56.6625 103.309C56.4755 102.326 55.5272 101.68 54.5442 101.867Z" fill="#165F87"/>
<path d="M65.3333 99.8164L62.0591 100.439C61.0762 100.626 60.4308 101.574 60.6177 102.557L60.7616 103.314C60.9485 104.297 61.8969 104.942 62.8799 104.755L66.154 104.133C67.137 103.946 67.7823 102.997 67.5954 102.014L67.4515 101.258C67.2646 100.275 66.3162 99.6295 65.3333 99.8164Z" fill="#165F87"/>
<path d="M68.0762 109.172L61.5001 110.423C61.0319 110.512 60.7245 110.964 60.8135 111.432L61.5627 115.371C61.6517 115.84 62.1034 116.147 62.5716 116.058L69.1477 114.808C69.616 114.719 69.9233 114.267 69.8343 113.799L69.0852 109.859C68.9962 109.391 68.5444 109.083 68.0762 109.172Z" fill="#165F87"/>
<path d="M54.879 111.681L48.3028 112.932C47.8346 113.021 47.5272 113.472 47.6163 113.941L48.3654 117.88C48.4544 118.348 48.9061 118.656 49.3743 118.567L55.9505 117.316C56.4187 117.227 56.7261 116.776 56.637 116.307L55.8879 112.368C55.7989 111.9 55.3472 111.592 54.879 111.681Z" fill="#165F87"/>
<path d="M41.6817 114.191L35.1056 115.441C34.6374 115.53 34.33 115.982 34.419 116.45L35.1681 120.39C35.2571 120.858 35.7089 121.166 36.1771 121.077L42.7532 119.826C43.2214 119.737 43.5288 119.285 43.4398 118.817L42.6907 114.877C42.6016 114.409 42.1499 114.102 41.6817 114.191Z" fill="#165F87"/>
<path d="M28.4844 116.699L21.9083 117.949C21.4401 118.038 21.1327 118.49 21.2217 118.958L21.9709 122.898C22.0599 123.366 22.5116 123.673 22.9798 123.584L29.5559 122.334C30.0242 122.245 30.3315 121.793 30.2425 121.325L29.4934 117.385C29.4044 116.917 28.9526 116.61 28.4844 116.699Z" fill="#165F87"/>
<path d="M70.0137 119.363L63.4376 120.613C62.9694 120.702 62.662 121.154 62.751 121.622L63.5002 125.562C63.5892 126.03 64.0409 126.337 64.5091 126.248L71.0852 124.998C71.5535 124.909 71.8608 124.457 71.7718 123.989L71.0227 120.049C70.9337 119.581 70.4819 119.274 70.0137 119.363Z" fill="#165F87"/>
<path d="M56.8184 121.873L50.2423 123.123C49.7741 123.212 49.4667 123.664 49.5557 124.132L50.3048 128.072C50.3939 128.54 50.8456 128.847 51.3138 128.758L57.8899 127.508C58.3581 127.419 58.6655 126.967 58.5765 126.499L57.8274 122.559C57.7384 122.091 57.2866 121.784 56.8184 121.873Z" fill="#CDEEF7"/>
<path d="M43.6212 124.381L37.045 125.632C36.5768 125.721 36.2694 126.173 36.3585 126.641L37.1076 130.58C37.1966 131.049 37.6483 131.356 38.1165 131.267L44.6927 130.017C45.1609 129.928 45.4683 129.476 45.3792 129.008L44.6301 125.068C44.5411 124.6 44.0894 124.292 43.6212 124.381Z" fill="#CDEEF7"/>
<path d="M30.4219 126.891L23.8458 128.142C23.3776 128.231 23.0702 128.682 23.1592 129.151L23.9084 133.09C23.9974 133.558 24.4491 133.866 24.9173 133.777L31.4934 132.526C31.9617 132.437 32.269 131.986 32.18 131.517L31.4309 127.578C31.3419 127.109 30.8901 126.802 30.4219 126.891Z" fill="#CDEEF7"/>
<path d="M71.9532 129.552L65.3771 130.803C64.9089 130.892 64.6015 131.343 64.6905 131.812L65.4396 135.751C65.5286 136.22 65.9804 136.527 66.4486 136.438L73.0247 135.187C73.4929 135.098 73.8003 134.647 73.7113 134.179L72.9622 130.239C72.8731 129.771 72.4214 129.463 71.9532 129.552Z" fill="#165F87"/>
<path d="M58.7559 132.063L52.1798 133.313C51.7116 133.402 51.4042 133.854 51.4932 134.322L52.2423 138.262C52.3314 138.73 52.7831 139.038 53.2513 138.949L59.8274 137.698C60.2956 137.609 60.603 137.157 60.514 136.689L59.7649 132.75C59.6759 132.281 59.2241 131.974 58.7559 132.063Z" fill="#CDEEF7"/>
<path d="M45.5567 134.572L38.9806 135.822C38.5124 135.911 38.205 136.363 38.294 136.831L39.0431 140.771C39.1321 141.239 39.5839 141.546 40.0521 141.457L46.6282 140.207C47.0964 140.118 47.4038 139.666 47.3148 139.198L46.5657 135.258C46.4766 134.79 46.0249 134.483 45.5567 134.572Z" fill="#CDEEF7"/>
<path d="M32.3614 137.081L25.7853 138.331C25.3171 138.42 25.0097 138.872 25.0987 139.34L25.8478 143.28C25.9368 143.748 26.3886 144.055 26.8568 143.966L33.4329 142.716C33.9011 142.627 34.2085 142.175 34.1195 141.707L33.3704 137.767C33.2813 137.299 32.8296 136.992 32.3614 137.081Z" fill="#CDEEF7"/>
<path d="M73.9571 140.104L67.381 141.354C66.9128 141.443 66.6054 141.895 66.6944 142.363L67.4435 146.303C67.5325 146.771 67.9843 147.079 68.4525 146.99L75.0286 145.739C75.4968 145.65 75.8042 145.198 75.7152 144.73L74.9661 140.791C74.877 140.322 74.4253 140.015 73.9571 140.104Z" fill="#F5DC46"/>
<path d="M60.7598 142.614L54.1837 143.864C53.7155 143.953 53.4081 144.405 53.4971 144.873L54.2462 148.813C54.3353 149.281 54.787 149.588 55.2552 149.499L61.8313 148.249C62.2995 148.16 62.6069 147.708 62.5179 147.24L61.7688 143.3C61.6798 142.832 61.228 142.525 60.7598 142.614Z" fill="#CDEEF7"/>
<path d="M47.5645 145.123L40.9884 146.373C40.5202 146.462 40.2128 146.914 40.3018 147.382L41.0509 151.322C41.14 151.79 41.5917 152.097 42.0599 152.008L48.636 150.758C49.1042 150.669 49.4116 150.217 49.3226 149.749L48.5735 145.809C48.4845 145.341 48.0327 145.034 47.5645 145.123Z" fill="#CDEEF7"/>
<path d="M34.3692 147.631L27.7931 148.882C27.3249 148.971 27.0175 149.423 27.1065 149.891L27.8556 153.83C27.9446 154.299 28.3964 154.606 28.8646 154.517L35.4407 153.267C35.9089 153.178 36.2163 152.726 36.1273 152.258L35.3782 148.318C35.2891 147.85 34.8374 147.542 34.3692 147.631Z" fill="#CDEEF7"/>
<path d="M53.8064 93.1578C53.9361 93.1472 54.081 93.1056 54.277 93.0472C54.6088 92.9362 54.9036 92.7343 55.106 92.4535C55.3439 92.1378 55.4789 91.7177 55.4612 91.1878L55.4415 91.1915C55.256 91.5311 54.9417 91.7712 54.508 91.8537C53.7255 92.0024 53.1126 91.5097 52.9714 90.7673C52.815 89.9447 53.2726 89.1095 54.1618 88.9405C55.0511 88.7714 55.7363 89.3892 55.9473 90.4987C56.129 91.4546 55.9353 92.1845 55.5866 92.6805C55.3144 93.0718 54.8909 93.3602 54.4341 93.5027C54.2263 93.5767 54.0406 93.6191 53.8986 93.639L53.8071 93.1577L53.8064 93.1578ZM53.5445 90.6174C53.6474 91.1586 54.0476 91.4777 54.5555 91.3811C54.9498 91.3061 55.2209 91.0538 55.3249 90.7635C55.3488 90.7041 55.3551 90.6331 55.3372 90.5393C55.1962 89.7976 54.8141 89.2814 54.1989 89.3983C53.6978 89.4936 53.4269 90.0023 53.5438 90.6176L53.5445 90.6174Z" fill="#20B0FE"/>
<path d="M57.2361 92.5064C57.3658 92.4959 57.5107 92.4542 57.7067 92.3958C58.0385 92.2848 58.3333 92.083 58.5356 91.8022C58.7736 91.4864 58.9085 91.0663 58.8909 90.5364L58.8712 90.5401C58.6857 90.8797 58.3714 91.1198 57.9376 91.2023C57.1551 91.3511 56.5423 90.8583 56.4011 90.1159C56.2447 89.2933 56.7023 88.4582 57.5915 88.2891C58.4808 88.12 59.166 88.7378 59.377 89.8473C59.5587 90.8032 59.365 91.5332 59.0163 92.0292C58.7441 92.4205 58.3206 92.7088 57.8638 92.8513C57.6559 92.9253 57.4703 92.9677 57.3283 92.9876L57.2367 92.5063L57.2361 92.5064ZM56.9749 89.9659C57.0778 90.5071 57.478 90.8262 57.9858 90.7296C58.3801 90.6546 58.6513 90.4023 58.7553 90.1121C58.7792 90.0526 58.7854 89.9816 58.7676 89.8878C58.6266 89.1461 58.2445 88.6299 57.6292 88.7468C57.1282 88.8421 56.8572 89.3508 56.9742 89.9661L56.9749 89.9659Z" fill="#20B0FE"/>
</g>
<g clip-path="url(#clip2_2138_25681)">
<path d="M56.3818 91.4758C66.2566 95.8229 77.7858 91.3418 82.1329 81.467C86.48 71.5922 81.9989 60.063 72.1241 55.7159C62.2493 51.3688 50.7201 55.8499 46.373 65.7247C42.0259 75.5995 46.507 87.1287 56.3818 91.4758Z" fill="#F5DC46"/>
<path d="M57.572 88.7706C65.9527 92.46 75.7375 88.6569 79.4268 80.2762C83.1162 71.8955 79.3131 62.1108 70.9324 58.4214C62.5517 54.732 52.767 58.5351 49.0776 66.9158C45.3882 75.2965 49.1913 85.0813 57.572 88.7706Z" fill="#ECCB01"/>
<path d="M77.8927 64.14C78.3651 67.1641 78.0066 70.3549 76.6817 73.3644C72.9923 81.7452 63.2077 85.5482 54.8269 81.8588C51.9166 80.5776 49.5586 78.5608 47.8741 76.123C48.7176 81.5203 52.2082 86.3888 57.5789 88.7531C65.9597 92.4425 75.7443 88.6395 79.4337 80.2587C81.8417 74.7888 81.0573 68.7211 77.8921 64.1397L77.8927 64.14Z" fill="#ECB501"/>
<path d="M51.1245 69.475C54.3813 62.0769 63.0183 58.7199 70.4164 61.9767C74.7408 63.8804 77.6832 67.6222 78.7324 71.8805C78.1872 66.8471 75.0417 62.2347 70.0747 60.0482C62.6767 56.7914 54.0397 60.1483 50.7829 67.5464C49.4298 70.6201 49.2195 73.9078 49.9651 76.9345C49.6984 74.4708 50.0537 71.9059 51.1239 69.4748L51.1245 69.475Z" fill="#F5DC46"/>
<path d="M69.8164 64.3536L68.9653 66.2869C69.6863 66.7535 70.2082 67.2891 70.5301 67.8941C70.8526 68.4993 71.0602 69.3013 71.1549 70.3003L68.7585 70.5287C68.6427 69.2219 68.1179 68.363 67.1848 67.9522C66.6059 67.6973 66.0507 67.6573 65.519 67.8313C64.9872 68.0053 64.6082 68.3487 64.3823 68.8617C64.1768 69.3286 64.1603 69.7845 64.3334 70.2298C64.5026 70.6653 64.9565 71.2927 65.6948 72.1125C66.3314 72.8244 66.8386 73.4544 67.2181 74.0019C67.597 74.5492 67.853 75.029 67.9856 75.441C68.3751 76.5705 68.3199 77.7039 67.8191 78.8414C67.3183 79.979 66.5576 80.7984 65.5108 81.3574C64.4729 81.913 63.3335 82.0945 62.0921 81.9015L61.1934 83.943L59.4673 83.1831L60.34 81.2008C59.1436 80.4227 58.3563 79.5464 57.9768 78.5712C57.5976 77.5955 57.5582 76.3304 57.8586 74.7746L60.2282 75.2759C60.0838 76.4056 60.1313 77.2783 60.3711 77.8941C60.6387 78.4987 61.1437 78.9643 61.887 79.2916C62.6304 79.6188 63.3176 79.643 64.0105 79.39C64.6928 79.1412 65.1953 78.6518 65.5166 77.9219C65.8032 77.2709 65.8328 76.6601 65.6056 76.0888C65.4855 75.8087 65.2798 75.4606 64.9872 75.0455C64.6947 74.6303 64.3018 74.1454 63.8084 73.5907C62.7848 72.457 62.1778 71.5619 61.9881 70.9056C61.6656 69.9078 61.7244 68.9098 62.1645 67.9102C62.373 67.4366 62.6423 67.0295 62.9733 66.6884C63.3042 66.3474 63.6856 66.0736 64.1177 65.8679C64.5498 65.6621 65.0302 65.53 65.5579 65.4719C66.0857 65.4138 66.6467 65.4329 67.2396 65.5292L68.0907 63.5959L69.8168 64.3558L69.8164 64.3536Z" fill="#FFF6BE"/>
</g>
<g clip-path="url(#clip3_2138_25681)">
<path d="M44.8079 55.3876C52.2257 53.0852 56.3725 45.2054 54.0701 37.7876C51.7677 30.3699 43.8879 26.223 36.4701 28.5254C29.0524 30.8279 24.9055 38.7076 27.2079 46.1254C29.5104 53.5432 37.3901 57.69 44.8079 55.3876Z" fill="#F5DC46"/>
<path d="M44.1782 53.3543C50.4736 51.4003 53.993 44.7128 52.0389 38.4174C50.0849 32.122 43.3974 28.6026 37.102 30.5566C30.8066 32.5107 27.2872 39.1982 29.2412 45.4936C31.1953 51.789 37.8828 55.3084 44.1782 53.3543Z" fill="#ECCB01"/>
<path d="M43.5831 30.3754C45.2681 31.7951 46.5804 33.6979 47.2821 35.9586C49.2361 42.254 45.7168 48.9415 39.4213 50.8955C37.2351 51.5741 35.0016 51.5921 32.9351 51.0634C35.9426 53.5972 40.1382 54.5933 44.1726 53.3411C50.4681 51.387 53.9874 44.6996 52.0334 38.4042C50.758 34.2953 47.466 31.3694 43.5827 30.3755L43.5831 30.3754Z" fill="#ECB501"/>
<path d="M31.5615 45.9162C29.8365 40.3589 32.9431 34.4559 38.5004 32.731C41.7488 31.7227 45.1146 32.3657 47.6958 34.1834C45.0222 31.7065 41.135 30.6865 37.4039 31.8446C31.8466 33.5695 28.74 39.4726 30.465 45.0299C31.1816 47.3387 32.6202 49.2241 34.4548 50.5163C33.1463 49.3038 32.1279 47.7426 31.561 45.9164L31.5615 45.9162Z" fill="#F5DC46"/>
<path d="M42.08 40.9675L38.5377 42.1422C38.5607 42.2696 38.5885 42.392 38.6211 42.5097C38.6517 42.6216 38.6872 42.7383 38.7275 42.8599C38.7679 42.9814 38.8091 43.0962 38.8514 43.2043C38.8937 43.3123 38.9446 43.4271 39.0042 43.5487L42.3988 42.4229L42.6084 43.4617L39.5784 44.4665C39.9825 45.0264 40.4687 45.4658 41.0371 45.7849C41.6055 46.1039 42.2261 46.29 42.899 46.3431C43.5777 46.3942 44.2846 46.2979 45.0197 46.0541L45.6877 48.0684C44.4954 48.4638 43.3555 48.6105 42.2681 48.5086C41.1806 48.4067 40.1957 48.0812 39.3134 47.5322C38.4291 46.9774 37.7013 46.2262 37.1301 45.2785L35.7496 45.7363L35.5401 44.6976L36.6514 44.329C36.5937 44.1939 36.5418 44.0762 36.4957 43.9759C36.4534 43.8678 36.4074 43.7386 36.3575 43.5881C36.3191 43.4723 36.2864 43.3643 36.2596 43.264C36.2328 43.1637 36.2079 43.0498 36.1849 42.9225L34.9521 43.3314L34.7425 42.2927L36.0014 41.8752C35.8912 40.7681 36.0259 39.7309 36.4053 38.7634C36.7847 37.796 37.38 36.9465 38.191 36.2149C39.002 35.4834 40.0037 34.9199 41.196 34.5245L41.864 36.5387C41.1347 36.7806 40.5133 37.1248 39.9996 37.5714C39.486 38.018 39.0967 38.539 38.8316 39.1345C38.5646 39.7241 38.4373 40.367 38.4497 41.0632L41.8704 39.9288L42.08 40.9675Z" fill="#FFF6BE"/>
</g>
<path d="M199.919 169.097C198.851 166.429 201.514 163.766 204.182 164.834L242.966 180.36L243.183 180.456C245.365 181.509 245.7 184.527 243.724 186.021H243.723L236.276 191.642L248.506 203.871C251.134 206.5 251.135 210.796 248.506 213.425C245.877 216.053 241.582 216.054 238.953 213.425L226.723 201.193L221.104 208.638C219.564 210.679 216.395 210.256 215.443 207.881H215.442L199.919 169.097Z" fill="#444444" stroke="#CDEEF7" stroke-width="2.07407"/>
<path d="M181.252 149.025C180.463 148.236 180.463 146.958 181.252 146.169C182.041 145.382 183.318 145.382 184.105 146.169L196.475 158.539C197.262 159.326 197.262 160.604 196.475 161.393C195.686 162.182 194.409 162.182 193.62 161.393L181.252 149.025Z" fill="#444444"/>
<path d="M201.32 139.038C201.32 137.924 202.223 137.021 203.339 137.021C204.453 137.021 205.355 137.924 205.355 139.038V156.531C205.355 157.645 204.453 158.548 203.339 158.548C202.223 158.548 201.32 157.645 201.32 156.531V139.038Z" fill="#444444"/>
<path d="M222.577 146.169C223.366 145.382 224.643 145.382 225.43 146.169C226.219 146.958 226.219 148.236 225.43 149.025L213.062 161.393C212.275 162.182 210.996 162.182 210.209 161.393C209.42 160.604 209.42 159.326 210.209 158.539L222.577 146.169Z" fill="#444444"/>
<path d="M174.12 170.279C173.006 170.279 172.102 169.375 172.102 168.261C172.102 167.147 173.006 166.242 174.12 166.242H191.611C192.727 166.242 193.63 167.147 193.63 168.261C193.63 169.375 192.727 170.279 191.611 170.279H174.12Z" fill="#444444"/>
<path d="M184.105 190.351C183.318 191.138 182.041 191.138 181.252 190.351C180.463 189.562 180.463 188.284 181.252 187.495L193.62 175.127C194.409 174.34 195.686 174.34 196.475 175.127C197.262 175.916 197.262 177.194 196.475 177.983L184.105 190.351Z" fill="#444444"/>
<path d="M181.866 197.172C177.516 213.357 177.043 213.083 165.764 218.027C165.519 218.134 165.582 218.502 165.848 218.529C179.294 219.884 178.084 223.022 181.36 236.116C181.428 236.389 181.821 236.365 181.865 236.087C184.361 220.291 185.65 219.364 196.879 216.889C197.138 216.832 197.156 216.465 196.904 216.383C186.217 212.896 184.59 210.666 182.38 197.191C182.334 196.915 181.939 196.901 181.866 197.172Z" fill="#ECCB01"/>
<path d="M86.9219 -2.28238C80.6323 21.1542 80.1076 20.5282 63.7647 27.7036C63.5195 27.8112 63.5831 28.1828 63.8496 28.2087C83.3671 30.11 81.4072 34.5176 86.2045 53.4857C86.2735 53.7586 86.6705 53.7336 86.7141 53.4556C90.3064 30.5669 92.0282 29.4296 108.302 25.8571C108.561 25.8002 108.579 25.4303 108.327 25.3486C92.8249 20.3291 90.6144 17.287 87.4375 -2.26299C87.3926 -2.53922 86.9944 -2.55267 86.9219 -2.28238Z" fill="#ECCB01"/>
</g>
<defs>
<clipPath id="clip0_2138_25681">
<rect width="284" height="284" fill="white"/>
</clipPath>
<clipPath id="clip1_2138_25681">
<rect width="61.2836" height="86.4256" fill="white" transform="translate(7.51953 81.4092) rotate(-10.7659)"/>
</clipPath>
<clipPath id="clip2_2138_25681">
<rect width="39.0717" height="39.0717" fill="white" transform="translate(54.2441 47.8447) rotate(23.7601)"/>
</clipPath>
<clipPath id="clip3_2138_25681">
<rect width="28.1264" height="28.1264" fill="white" transform="translate(23.0391 32.6943) rotate(-17.2439)"/>
</clipPath>
</defs>
</svg>
