<svg width="90" height="120" viewBox="0 0 90 120" fill="none" xmlns="http://www.w3.org/2000/svg">
<path d="M90 15.2013V1.53569C90 0.687635 89.3094 0 88.4577 0H1.54226C0.690576 0 0 0.687635 0 1.53569V15.2013C0 16.0494 0.690576 16.737 1.54226 16.737H6.52202C6.48559 20.3896 6.46292 25.9141 6.6046 28.8396C6.8831 34.5785 8.81639 39.558 12.1956 43.2404C14.9943 46.29 18.6156 48.3175 22.1179 50.278C23.1833 50.8745 24.1888 51.4372 25.1773 52.0305L25.2955 52.1023C28.0878 53.7911 29.7547 56.7432 29.7547 60C29.7547 63.2568 28.0878 66.2089 25.2955 67.8977L25.1765 67.9695C24.1896 68.562 23.1833 69.1247 22.1179 69.7212C18.6156 71.6817 14.9943 73.71 12.1956 76.7596C8.81639 80.442 6.8831 85.4215 6.6046 91.1604C6.46211 94.0867 6.48559 99.6112 6.52202 103.263H1.54226C0.690576 103.263 0 103.951 0 104.799V120H90C90 120 90 107.016 90 104.799C90 103.951 89.3094 103.263 88.4577 103.263H83.478C83.5144 99.6104 83.5371 94.0859 83.3954 91.1604C83.1169 85.4215 81.1836 80.442 77.8044 76.7596C75.0057 73.71 71.3844 71.6825 67.8821 69.7212C66.8167 69.1247 65.8112 68.562 64.8259 67.9711L64.7037 67.8977C61.9114 66.2089 60.2445 63.2568 60.2445 60C60.2445 56.7432 61.9114 53.7911 64.7037 52.1023L64.8227 52.0305C65.8104 51.438 66.8159 50.8753 67.8813 50.2788C71.3836 48.3183 75.0049 46.29 77.8036 43.2412C81.1828 39.5588 83.1161 34.5793 83.3946 28.8404C83.5371 25.9141 83.5136 20.3896 83.4772 16.7378H88.4569C89.3086 16.7378 89.9992 16.0502 89.9992 15.2021L90 15.2013ZM77.3381 28.5486C77.1924 31.5587 76.3771 35.8441 73.3274 39.1678C71.1852 41.5024 68.1371 43.209 64.9101 45.0155C63.8528 45.6072 62.7599 46.2199 61.6953 46.8583L61.5568 46.9414C56.9381 49.7338 54.1807 54.6158 54.1807 60C54.1807 65.3842 56.9381 70.2662 61.5568 73.0586L61.6945 73.1417C62.7599 73.7809 63.8528 74.3928 64.9101 74.9845C68.1371 76.791 71.186 78.4984 73.3282 80.8322C76.3787 84.1559 77.1932 88.4413 77.3389 91.4514C77.4733 94.2205 77.449 99.6732 77.4134 103.263H12.5874C12.5518 99.674 12.5275 94.2205 12.6619 91.4514C12.8076 88.4413 13.6229 84.1559 16.6726 80.8322C18.8148 78.4976 21.8629 76.791 25.0907 74.9845C26.148 74.3928 27.2409 73.7809 28.3088 73.14L28.444 73.0586C33.0627 70.2662 35.8201 65.3842 35.8201 60C35.8201 54.6158 33.0627 49.7338 28.444 46.9414L28.3063 46.8583C27.2409 46.2191 26.148 45.6072 25.0907 45.0155C21.8637 43.209 18.8148 41.5016 16.6734 39.1678C13.6229 35.8441 12.8085 31.5587 12.6627 28.5486C12.5283 25.7795 12.5526 20.3268 12.5882 16.737H77.4142C77.4498 20.3259 77.4741 25.7795 77.3397 28.5486H77.3381Z" fill="#EDDDFF"/>
<path d="M40.4959 75.6891C33.6759 78.5702 26.1104 81.8012 22.9481 85.295C21.2674 87.1516 20.7914 89.7513 20.7007 91.6176C20.6133 93.4144 20.6036 95.7248 20.6198 98.7527H69.3827C69.3989 95.7248 69.3884 93.4144 69.3018 91.6176C69.2111 89.7513 68.735 87.1516 67.0543 85.295C63.8921 81.8012 56.3265 78.5702 49.5066 75.6891C46.6277 74.4734 43.3756 74.4734 40.4967 75.6891H40.4959Z" fill="#DDC1FF"/>
<path d="M42.7009 48.0247C43.185 48.905 43.8222 49.6128 44.6309 49.6128C45.4397 49.6128 46.0113 48.988 46.4719 48.1931C47.7414 46.0061 49.7726 44.3616 52.1698 43.5361C56.0348 42.2044 61.3861 39.9746 64.142 37.1337C60.0608 37.7061 55.7595 36.7331 51.8023 35.3788C46.8646 33.6891 42.0597 31.4053 36.8784 30.7636C31.9715 30.1558 26.4558 31.3763 23.3672 35.1418C27.8968 39.2224 33.4465 41.8142 37.203 43.2499C39.5451 44.1447 41.4954 45.8344 42.7009 48.0255V48.0247Z" fill="#DDC1FF"/>
</svg>
