<svg width="284" height="284" viewBox="0 0 284 284" fill="none" xmlns="http://www.w3.org/2000/svg">
<path d="M266.246 156.631C269.674 77.3782 228.22 45.0235 156.326 29.2096C76.0574 11.5535 48.2918 51.6083 23.7826 126.689C-0.726505 201.771 45.3781 278.337 142.272 263.653C244.774 248.118 263.412 222.145 266.246 156.631Z" fill="#CDEEF7"/>
<g clip-path="url(#clip0_2138_25856)">
<path d="M273.16 134.778L224.403 167.44C224.345 167.479 224.266 167.483 224.184 167.45C224.102 167.417 224.024 167.35 223.966 167.264C223.909 167.179 223.877 167.081 223.878 166.993C223.879 166.904 223.912 166.833 223.971 166.794L272.727 134.132C272.786 134.093 272.865 134.089 272.947 134.122C273.029 134.155 273.107 134.222 273.164 134.307C273.222 134.393 273.253 134.491 273.253 134.579C273.252 134.667 273.219 134.739 273.16 134.778Z" fill="#444444"/>
<path d="M262.61 141.738L234.901 160.3C234.842 160.339 234.77 160.353 234.701 160.338C234.631 160.324 234.569 160.282 234.529 160.222C234.488 160.162 234.473 160.088 234.486 160.018C234.499 159.948 234.539 159.887 234.598 159.847L262.307 141.285C262.365 141.246 262.437 141.232 262.507 141.247C262.577 141.262 262.639 141.304 262.679 141.364C262.719 141.424 262.735 141.497 262.722 141.567C262.709 141.637 262.669 141.699 262.61 141.738Z" fill="#444444"/>
<path d="M248.864 150.774C248.778 150.831 248.68 150.862 248.591 150.861C248.502 150.859 248.429 150.824 248.389 150.764L238.831 136.496C238.791 136.436 238.787 136.356 238.819 136.272C238.851 136.189 238.917 136.11 239.003 136.053C239.088 135.996 239.187 135.964 239.276 135.966C239.365 135.968 239.437 136.003 239.478 136.063L249.035 150.331C249.076 150.391 249.08 150.471 249.048 150.554C249.016 150.637 248.95 150.716 248.864 150.774Z" fill="#444444"/>
<path d="M262.762 141.462C262.676 141.52 262.578 141.551 262.489 141.549C262.4 141.547 262.327 141.513 262.287 141.452L243.171 112.917C243.131 112.857 243.126 112.776 243.159 112.693C243.191 112.61 243.257 112.531 243.343 112.474C243.428 112.417 243.526 112.385 243.616 112.387C243.705 112.389 243.777 112.424 243.817 112.484L262.933 141.02C262.973 141.08 262.978 141.16 262.946 141.243C262.914 141.326 262.847 141.405 262.762 141.462Z" fill="#444444"/>
<path d="M199.432 146.002C200.773 145.104 201.112 143.261 200.19 141.885C199.269 140.509 197.435 140.122 196.095 141.02C194.754 141.918 194.415 143.761 195.337 145.137C196.258 146.513 198.092 146.9 199.432 146.002Z" fill="#20B0FE"/>
<path d="M208.991 160.269C210.331 159.371 210.671 157.528 209.749 156.152C208.827 154.776 206.994 154.389 205.653 155.286C204.313 156.184 203.974 158.027 204.895 159.403C205.817 160.779 207.651 161.167 208.991 160.269Z" fill="#20B0FE"/>
<path d="M218.55 174.536C219.89 173.639 220.229 171.795 219.308 170.42C218.386 169.044 216.552 168.656 215.212 169.554C213.872 170.452 213.532 172.295 214.454 173.671C215.376 175.047 217.209 175.434 218.55 174.536Z" fill="#20B0FE"/>
<path d="M254.043 106.244L205.286 138.906C205.228 138.945 205.149 138.948 205.067 138.915C204.985 138.883 204.907 138.816 204.849 138.73C204.792 138.645 204.76 138.547 204.761 138.459C204.762 138.37 204.795 138.299 204.853 138.259L253.61 105.598C253.669 105.559 253.747 105.555 253.829 105.588C253.911 105.621 253.99 105.687 254.047 105.773C254.104 105.859 254.136 105.957 254.136 106.045C254.135 106.133 254.101 106.205 254.043 106.244Z" fill="#444444"/>
<path d="M263.601 120.512L214.845 153.173C214.786 153.212 214.707 153.216 214.626 153.183C214.544 153.15 214.465 153.084 214.408 152.998C214.35 152.912 214.319 152.814 214.319 152.726C214.32 152.638 214.354 152.566 214.412 152.527L263.169 119.865C263.227 119.826 263.306 119.823 263.388 119.856C263.47 119.888 263.548 119.955 263.606 120.041C263.663 120.126 263.695 120.224 263.694 120.313C263.693 120.401 263.66 120.472 263.601 120.512Z" fill="#444444"/>
<path d="M236.53 162.491C237.87 161.594 238.21 159.75 237.288 158.375C236.366 156.999 234.533 156.611 233.192 157.509C231.852 158.407 231.513 160.25 232.434 161.626C233.356 163.002 235.19 163.389 236.53 162.491Z" fill="#F5DC46"/>
<path d="M240.979 138.839C242.32 137.941 242.659 136.098 241.737 134.722C240.816 133.346 238.982 132.959 237.642 133.857C236.301 134.755 235.962 136.598 236.884 137.974C237.805 139.349 239.639 139.737 240.979 138.839Z" fill="#E44A69"/>
<path d="M250.538 153.108C251.878 152.21 252.218 150.367 251.296 148.991C250.374 147.615 248.541 147.227 247.2 148.125C245.86 149.023 245.521 150.866 246.442 152.242C247.364 153.618 249.198 154.006 250.538 153.108Z" fill="#F5DC46"/>
<path d="M245.321 115.261C246.661 114.363 247.001 112.52 246.079 111.144C245.157 109.768 243.324 109.381 241.983 110.279C240.643 111.176 240.304 113.02 241.225 114.395C242.147 115.771 243.981 116.159 245.321 115.261Z" fill="#20B0FE"/>
<path d="M254.88 129.529C256.22 128.631 256.559 126.788 255.638 125.412C254.716 124.036 252.882 123.648 251.542 124.546C250.202 125.444 249.862 127.287 250.784 128.663C251.706 130.039 253.539 130.426 254.88 129.529Z" fill="#20B0FE"/>
<path d="M264.438 143.796C265.779 142.898 266.118 141.055 265.196 139.679C264.275 138.303 262.441 137.916 261.101 138.814C259.76 139.712 259.421 141.555 260.343 142.931C261.264 144.307 263.098 144.694 264.438 143.796Z" fill="#E44A69"/>
</g>
<circle cx="49.2587" cy="97.2216" r="27.2685" fill="#0C87CA"/>
<path d="M27.044 109.228C30.0365 114.765 34.9887 118.985 40.9302 121.06C46.8717 123.136 53.3743 122.919 59.1637 120.45C64.9531 117.982 69.6121 113.44 72.2277 107.716C74.8433 101.991 75.227 95.4965 73.3037 89.5038L49.2593 97.2211L27.044 109.228Z" fill="#77CFFB"/>
<path d="M66.9603 115.231C69.3823 112.851 71.2994 110.006 72.5967 106.868C73.894 103.729 74.5449 100.361 74.5105 96.9651C74.4761 93.5692 73.757 90.2152 72.3964 87.1036C71.0357 83.992 69.0614 81.1868 66.5916 78.8559C64.1217 76.525 61.2071 74.7162 58.022 73.5377C54.837 72.3593 51.4469 71.8354 48.0547 71.9974C44.6625 72.1594 41.3378 73.004 38.2796 74.4806C35.2213 75.9572 32.4923 78.0355 30.2558 80.5912L49.2593 97.2211L66.9603 115.231Z" fill="#0C87CA"/>
<path d="M30.3404 80.495C26.2702 85.0989 24.0184 91.0289 24.0069 97.1739C23.9955 103.319 26.2251 109.257 30.2781 113.876L49.2593 97.2211L30.3404 80.495Z" fill="#CDEEF7"/>
<path d="M49.9631 92.1991C47.955 92.1991 46.3326 90.5711 46.3326 88.5678C46.3326 86.5645 47.955 84.9365 49.9631 84.9365C51.9713 84.9365 53.5937 86.5592 53.5937 88.5678C53.5937 90.5764 51.9713 92.1991 49.9631 92.1991Z" fill="#444444"/>
<path d="M36.2891 98.6132C36.2891 96.6047 37.9167 94.982 39.9196 94.982C41.9225 94.982 43.5501 96.6047 43.5501 98.6132C43.5501 100.622 41.9225 102.245 39.9196 102.245C37.9167 102.245 36.2891 100.622 36.2891 98.6132Z" fill="#444444"/>
<path d="M56.3761 98.6132C56.3761 96.6047 58.0038 94.982 60.0067 94.982C62.0148 94.982 63.6372 96.6047 63.6372 98.6132C63.6372 100.622 62.0148 102.245 60.0067 102.245C57.9985 102.245 56.3761 100.622 56.3761 98.6132Z" fill="#444444"/>
<path d="M49.9631 112.285C47.955 112.285 46.3326 110.657 46.3326 108.653C46.3326 106.645 47.955 105.022 49.9631 105.022C51.9713 105.022 53.5937 106.645 53.5937 108.653C53.5937 110.662 51.9713 112.285 49.9631 112.285Z" fill="#444444"/>
<path d="M63.0246 216.277C61.5403 213.358 59.002 211.115 55.9318 210.009L57.9323 197.068C58.0145 196.535 58.2102 196.027 58.5061 195.578C58.802 195.128 59.1912 194.749 59.6471 194.466C60.1031 194.182 60.615 194.001 61.1482 193.935C61.6814 193.868 62.2232 193.918 62.7368 194.081C66.2454 195.183 69.5016 196.982 72.3119 199.369C75.1221 201.756 77.4292 204.683 79.0961 207.976C79.7293 209.218 80.2698 210.505 80.713 211.826C80.8888 212.348 80.9492 212.902 80.8902 213.449C80.8311 213.995 80.6539 214.522 80.371 214.991C80.0914 215.456 79.7138 215.853 79.2648 216.155C78.8157 216.457 78.3058 216.657 77.7708 216.74L64.0188 218.894C63.7829 217.988 63.4495 217.111 63.0246 216.277Z" fill="#F5DC46"/>
<path d="M64.1123 220.344L78.5397 218.069C79.0732 217.984 79.6191 218.015 80.1403 218.16C80.6615 218.305 81.1459 218.561 81.5606 218.909C81.9754 219.258 82.3107 219.691 82.544 220.181C82.7773 220.67 82.903 221.204 82.9127 221.745C82.9806 226.231 81.969 230.663 79.9637 234.668C77.9583 238.672 75.0183 242.131 71.3924 244.75C70.9506 245.069 70.4449 245.287 69.9102 245.391C69.3754 245.495 68.8241 245.482 68.2942 245.353C67.7653 245.224 67.27 244.982 66.8426 244.643C66.4151 244.305 66.0656 243.878 65.8179 243.392L59.9038 231.795C61.4926 230.384 62.7079 228.6 63.442 226.603C64.1762 224.605 64.4064 222.455 64.1123 220.344Z" fill="#444444"/>
<path d="M30.9247 246.595C30.8818 245.996 30.9687 245.394 31.1796 244.83C31.3905 244.267 31.7204 243.755 32.147 243.329L43.3891 232.104C45.1141 233.544 47.1897 234.506 49.4079 234.893C51.626 235.279 53.9089 235.078 56.0279 234.307L63.155 248.282C63.4283 248.818 63.5819 249.408 63.6053 250.01C63.6288 250.612 63.5215 251.212 63.2908 251.77C63.0601 252.328 62.7114 252.829 62.2687 253.241C61.826 253.652 61.2997 253.963 60.7259 254.153C56.0074 255.71 50.9859 256.111 46.0865 255.322C41.1872 254.533 36.5543 252.578 32.5799 249.621C32.1021 249.265 31.707 248.811 31.4214 248.289C31.1358 247.767 30.9664 247.189 30.9247 246.595Z" fill="#165F87"/>
<path d="M17.7172 212.797C17.9097 212.232 18.2221 211.714 18.633 211.279C19.044 210.843 19.5438 210.5 20.0985 210.273C20.6533 210.046 21.2499 209.941 21.8477 209.964C22.4455 209.987 23.0305 210.138 23.5628 210.407L39.1073 218.248C38.5879 219.834 38.3869 221.505 38.5157 223.164C38.6444 224.823 39.1004 226.439 39.8576 227.919C39.9981 228.195 40.1503 228.46 40.3078 228.721L28.1387 240.844C27.7079 241.272 27.1892 241.601 26.6187 241.81C26.0483 242.018 25.4398 242.101 24.8356 242.052C24.2315 242.002 23.6463 241.822 23.1207 241.524C22.5951 241.226 22.1417 240.818 21.7923 240.326C20.8989 239.08 20.1006 237.768 19.4039 236.402C17.5478 232.79 16.442 228.84 16.1523 224.785C15.8625 220.73 16.3947 216.654 17.7172 212.797Z" fill="#20B0FE"/>
<path d="M45.5552 210.773C43.5778 211.779 41.8937 213.278 40.6672 215.123L31.0973 210.28C30.6097 210.033 30.1819 209.684 29.8436 209.256C29.5052 208.828 29.2643 208.332 29.1375 207.801C29.0116 207.281 29.0005 206.74 29.1048 206.214C29.2092 205.689 29.4266 205.192 29.742 204.757C32.3228 201.223 35.6998 198.341 39.5996 196.345C43.4993 194.349 47.8121 193.295 52.1885 193.269C52.7403 193.265 53.2858 193.381 53.7872 193.609C54.2886 193.837 54.7339 194.171 55.0923 194.588C55.4456 194.999 55.7047 195.482 55.8517 196.004C55.9987 196.525 56.0301 197.073 55.9437 197.609L54.0166 209.623C51.151 209.032 48.165 209.438 45.5552 210.773Z" fill="white"/>
<path d="M64.6154 90.2408C64.3131 90.3141 64.02 90.3553 63.736 90.3645C63.4521 90.3737 63.1635 90.3141 62.8704 90.1859C62.6505 90.0943 62.449 89.9294 62.2658 89.6912C62.0826 89.4439 61.9543 89.2057 61.881 88.9767C61.7986 88.6836 61.7665 88.3904 61.7849 88.0973C61.8032 87.8042 61.8398 87.5064 61.8948 87.2041C61.9589 86.9385 62.0871 86.6866 62.2795 86.4484C62.481 86.2011 62.7146 86.0362 62.9803 85.9537C63.191 85.8804 63.4063 85.8392 63.6261 85.8301C63.846 85.8117 64.0612 85.8163 64.2719 85.8438C64.4735 85.853 64.6658 85.8896 64.849 85.9537C65.0322 86.0087 65.2017 86.1003 65.3574 86.2285C65.4307 86.2927 65.4994 86.3797 65.5636 86.4896C65.6277 86.5904 65.6826 86.7003 65.7284 86.8194C65.7742 86.9293 65.8109 87.0438 65.8384 87.1629C65.875 87.282 65.8979 87.3919 65.9071 87.4927C65.9529 87.8408 65.962 88.1614 65.9346 88.4545C65.9162 88.7477 65.8475 89.0546 65.7284 89.3752C65.6368 89.6408 65.4903 89.8332 65.2887 89.9523C65.0872 90.0805 64.8628 90.1767 64.6154 90.2408ZM64.4643 80.6635C64.4826 80.8559 64.446 81.0437 64.3544 81.2269C64.2628 81.4101 64.1666 81.5796 64.0658 81.7353C63.9376 81.9735 63.8093 82.2117 63.6811 82.4498C63.5528 82.688 63.4246 82.9262 63.2963 83.1644C62.9482 83.7873 62.6001 84.4056 62.252 85.0194C61.9131 85.6331 61.5696 86.256 61.2215 86.8881C61.0749 87.1538 60.9283 87.424 60.7818 87.6988C60.6444 87.9645 60.4978 88.2347 60.3421 88.5095C60.2596 88.6469 60.168 88.8026 60.0673 88.9767C59.9757 89.1507 59.8657 89.3111 59.7375 89.4576C59.6184 89.6042 59.481 89.7187 59.3253 89.8011C59.1695 89.8836 58.9909 89.9111 58.7894 89.8836C58.6611 89.8653 58.5558 89.8057 58.4733 89.705C58.3909 89.6042 58.3451 89.4897 58.3359 89.3614C58.3359 89.1507 58.3863 88.9492 58.4871 88.7568C58.5878 88.5645 58.6886 88.3767 58.7894 88.1935C58.9176 87.9461 59.0504 87.7034 59.1879 87.4652C59.3344 87.2179 59.4764 86.9751 59.6138 86.737C59.9619 86.1049 60.31 85.4774 60.6581 84.8545C61.0062 84.2316 61.3543 83.6041 61.7024 82.972C61.8307 82.7155 61.9681 82.459 62.1146 82.2025C62.2612 81.946 62.4032 81.6941 62.5406 81.4468C62.6139 81.3185 62.6917 81.1857 62.7742 81.0483C62.8566 80.9109 62.9482 80.7826 63.049 80.6635C63.1498 80.5353 63.2597 80.4254 63.3788 80.3338C63.4979 80.2422 63.6353 80.1826 63.791 80.1551C63.9467 80.1185 64.0933 80.146 64.2307 80.2376C64.3681 80.3292 64.446 80.462 64.4643 80.6361V80.6635ZM59.5589 84.2361C59.2657 84.3094 58.9588 84.3461 58.6382 84.3461C58.3268 84.3461 58.0245 84.2819 57.7313 84.1537C57.5115 84.0712 57.3191 83.9109 57.1542 83.6728C56.9985 83.4254 56.884 83.1918 56.8107 82.972C56.7374 82.6697 56.7054 82.372 56.7145 82.0788C56.7328 81.7857 56.7695 81.4926 56.8244 81.1994C56.8886 80.9338 57.0214 80.6819 57.2229 80.4437C57.4245 80.1964 57.658 80.0269 57.9237 79.9353C58.1344 79.862 58.3497 79.8208 58.5695 79.8116C58.7894 79.7933 59.0046 79.7887 59.2153 79.7979C59.4169 79.8162 59.6047 79.8574 59.7787 79.9215C59.9619 79.9765 60.1314 80.0681 60.2871 80.1964C60.4428 80.3246 60.5619 80.4803 60.6444 80.6635C60.736 80.8468 60.7909 81.0345 60.8093 81.2269C60.8551 81.575 60.8596 81.9323 60.823 82.2987C60.7955 82.656 60.7314 82.9995 60.6306 83.3292C60.5299 83.5766 60.3833 83.7735 60.1909 83.9201C60.0077 84.0575 59.797 84.1629 59.5589 84.2361ZM64.0933 89.2103C64.249 89.192 64.3635 89.1416 64.4368 89.0591C64.5742 88.9309 64.6567 88.766 64.6841 88.5645C64.7208 88.3629 64.7345 88.1797 64.7254 88.0148C64.7254 87.8774 64.6979 87.7125 64.6429 87.5202C64.5971 87.3186 64.4964 87.1767 64.3406 87.0942C64.2124 87.0209 64.0704 86.9843 63.9147 86.9843C63.7589 86.9751 63.617 87.0026 63.4887 87.0667C63.3605 87.1309 63.2643 87.2179 63.2001 87.3278C63.1452 87.4377 63.1131 87.5614 63.104 87.6988C63.0856 87.8087 63.0719 87.9416 63.0627 88.0973C63.0536 88.253 63.0582 88.4087 63.0765 88.5645C63.104 88.711 63.1543 88.8484 63.2276 88.9767C63.3009 89.0958 63.4154 89.1691 63.5711 89.1965C63.6444 89.2149 63.7269 89.2286 63.8185 89.2378C63.9192 89.2378 64.0109 89.2286 64.0933 89.2103ZM59.0504 83.2056C59.1237 83.1964 59.1833 83.1781 59.2291 83.1506C59.284 83.1231 59.3344 83.0865 59.3802 83.0407C59.5176 82.9033 59.5909 82.7338 59.6001 82.5323C59.6184 82.3216 59.6276 82.1292 59.6276 81.9552C59.6276 81.8086 59.6092 81.6483 59.5726 81.4742C59.536 81.291 59.4398 81.1628 59.284 81.0895C59.1466 81.0162 59.0046 80.975 58.8581 80.9658C58.7115 80.9475 58.5741 80.975 58.4459 81.0483C58.2993 81.1216 58.1985 81.2132 58.1436 81.3231C58.0886 81.4239 58.0474 81.543 58.0199 81.6804C58.0107 81.7811 58.0016 81.914 57.9924 82.0788C57.9924 82.2346 58.0016 82.3903 58.0199 82.546C58.0474 82.7018 58.0978 82.8437 58.171 82.972C58.2443 83.0911 58.3588 83.1644 58.5146 83.1918C58.5878 83.201 58.6703 83.2102 58.7619 83.2193C58.8627 83.2285 58.9588 83.2239 59.0504 83.2056Z" fill="#77CFFB"/>
<g clip-path="url(#clip1_2138_25856)">
<path d="M137.448 7.03711C138.167 5.73587 141.585 5.47459 142.485 7.03711C143.289 8.43257 143.373 205.542 142.741 249.406H169.96C174.605 249.406 178.371 251.834 178.371 254.829V262.649C178.371 265.644 174.605 268.072 169.96 268.072H109.522C104.877 268.072 101.111 265.644 101.111 262.649V254.829C101.111 251.834 104.877 249.406 109.522 249.406H137.201C136.595 205.488 136.805 8.20094 137.448 7.03711Z" fill="#0C87CA"/>
<path d="M140.004 15.1475C143.232 15.1475 146.459 15.2545 148.966 15.4688C150.22 15.5759 151.291 15.7095 152.091 15.8691C152.491 15.949 152.82 16.0343 153.069 16.125C153.324 16.2179 153.474 16.3097 153.54 16.3887C153.713 16.5962 153.837 16.8947 153.923 17.2744C154.009 17.6529 154.055 18.1017 154.081 18.6016C154.107 19.1013 154.113 19.6469 154.12 20.2188C154.127 20.7895 154.133 21.3859 154.162 21.9824C154.22 23.1738 154.365 24.3784 154.771 25.4043C155.178 26.4342 155.85 27.2892 156.962 27.7656C158.044 28.2292 161.045 29.1324 164.962 30.3086C168.885 31.4866 173.741 32.9417 178.548 34.5117C183.356 36.082 188.113 37.7662 191.838 39.4014C193.701 40.219 195.302 41.0223 196.522 41.792C197.748 42.5653 198.568 43.292 198.896 43.9473C199.566 45.2893 199.648 47.477 199.313 50.0889C198.979 52.693 198.235 55.6919 197.278 58.6367C196.322 61.5812 195.157 64.4682 193.981 66.8467C192.804 69.23 191.625 71.0882 190.647 71.9902L190.609 72.0254L190.605 72.0771V72.0791C190.605 72.081 190.605 72.0842 190.604 72.0879C190.604 72.0956 190.604 72.1076 190.603 72.123C190.6 72.1542 190.597 72.2013 190.593 72.2627C190.584 72.3853 190.569 72.5672 190.549 72.8037C190.508 73.2775 190.443 73.9711 190.347 74.8477C190.154 76.6007 189.834 79.0872 189.328 82.0205C188.315 87.8884 186.555 95.5398 183.566 102.682C176.863 118.698 179.651 133.195 181.795 140.912H181.785L181.831 141.076C183.978 148.739 186.618 156.701 189.681 172.325C192.742 187.944 192.251 199.672 191.825 202.931C191.578 204.818 189.825 206.5 186.859 207.958C183.903 209.412 179.783 210.623 174.885 211.591C165.09 213.526 152.213 214.48 139.384 214.464C126.554 214.448 113.78 213.462 104.19 211.52C99.3947 210.548 95.4032 209.339 92.6016 207.896C89.7907 206.449 88.2232 204.792 88.1738 202.944C88.0846 199.642 87.2536 187.94 90.3174 172.325C93.3831 156.704 96.0195 148.742 98.166 141.076C100.316 133.399 103.047 120.65 96.4424 102.688C93.7712 95.4178 92.0099 87.7639 90.917 81.9258C90.3706 79.0072 89.9917 76.5427 89.749 74.8086C89.6277 73.9415 89.5402 73.2567 89.4834 72.7891C89.455 72.5554 89.4346 72.3759 89.4209 72.2549C89.414 72.1944 89.4086 72.1479 89.4053 72.1172C89.4036 72.102 89.4022 72.0906 89.4014 72.083C89.401 72.0792 89.4006 72.0761 89.4004 72.0742V72.0713L89.3955 72.0234L89.3594 71.9902L89.1738 71.8096C88.2347 70.8535 87.1293 69.081 86.0254 66.8467C84.8502 64.4682 83.6837 61.5812 82.7275 58.6367C81.7713 55.6919 81.0264 52.693 80.6924 50.0889C80.3574 47.4771 80.4396 45.2893 81.1104 43.9473C81.4383 43.292 82.2591 42.5654 83.4854 41.792C84.7056 41.0224 86.3072 40.2189 88.1699 39.4014C91.8954 37.7663 96.6521 36.0819 101.46 34.5117C106.267 32.9417 111.123 31.4866 115.046 30.3086C118.963 29.1323 121.963 28.2292 123.045 27.7656C124.156 27.2892 124.829 26.4341 125.236 25.4043C125.642 24.3785 125.786 23.1737 125.844 21.9824C125.873 21.3859 125.88 20.7895 125.887 20.2188C125.893 19.6469 125.9 19.1013 125.926 18.6016C125.952 18.1017 125.998 17.6529 126.084 17.2744C126.17 16.8948 126.293 16.5961 126.466 16.3887C126.532 16.3096 126.683 16.2179 126.938 16.125C127.187 16.0343 127.516 15.949 127.916 15.8691C128.716 15.7095 129.788 15.5759 131.042 15.4688C133.549 15.2545 136.776 15.1475 140.004 15.1475Z" fill="#444444" stroke="white" stroke-width="0.259259"/>
<path d="M102.34 132.835C102.34 132.835 103.502 133.364 105.659 134.133" stroke="white" stroke-width="1.2963" stroke-miterlimit="10" stroke-linecap="round"/>
<path d="M113.098 136.398C119.79 138.133 129.28 139.853 140.611 139.853C153.985 139.853 164.381 137.461 170.717 135.468" stroke="white" stroke-width="1.2963" stroke-miterlimit="10" stroke-linecap="round" stroke-dasharray="6.78 6.78"/>
<path d="M174.398 134.204C176.55 133.396 177.688 132.831 177.688 132.831" stroke="white" stroke-width="1.2963" stroke-miterlimit="10" stroke-linecap="round"/>
<path d="M93.4805 87.5791C93.4805 87.5791 94.6603 88.0159 96.8744 88.6725" stroke="white" stroke-width="1.2963" stroke-miterlimit="10" stroke-linecap="round"/>
<path d="M103.373 90.3868C111.665 92.3418 124.714 94.5969 140.754 94.5969C158.772 94.5969 172.419 91.7476 179.95 89.6797" stroke="white" stroke-width="1.2963" stroke-miterlimit="10" stroke-linecap="round" stroke-dasharray="5.86 5.86"/>
<path d="M126.779 25.8546C129.643 27.0915 134.149 28.5183 139.688 28.5183C145.91 28.5183 150.623 26.7156 153.224 25.4072" stroke="white" stroke-width="1.2963" stroke-miterlimit="10" stroke-linecap="round" stroke-dasharray="5.86 5.86"/>
<path d="M183.174 88.7378C185.382 88.0456 186.544 87.5791 186.544 87.5791" stroke="white" stroke-width="1.2963" stroke-miterlimit="10" stroke-linecap="round"/>
<path d="M112.918 35.0381C115.079 78.752 124.752 103.085 124.372 124.353C123.991 145.62 113.807 181.38 114.555 208.153" stroke="white" stroke-width="1.2963" stroke-miterlimit="10" stroke-linecap="round" stroke-dasharray="6.22 6.22"/>
<path d="M167.084 35.0381C164.923 78.752 155.25 103.085 155.63 124.353C156.01 145.62 166.195 181.38 165.446 208.153" stroke="white" stroke-width="1.2963" stroke-miterlimit="10" stroke-linecap="round" stroke-dasharray="6.22 6.22"/>
<path d="M190.73 72.0886C190.73 72.0886 189.669 88.4267 183.681 102.736C181.856 107.094 180.736 111.34 180.117 115.366C171.811 119.323 155.353 120.797 148.583 121.251C146.96 121.361 145.593 120.063 145.614 118.438C145.822 102.605 145.643 70.8793 145.584 61.3599C145.575 59.7852 146.6 58.4036 148.101 57.9253C162.53 53.3231 164.646 38.6309 165.103 30.2197C171.79 32.2282 181.143 35.0329 188.359 37.8376C185.529 47.265 185.309 62.2601 190.73 72.0886Z" fill="#E44A69"/>
<path d="M142.178 203.574C119.084 203.384 105.03 201.209 95.2135 196.777C93.9029 196.185 93.1035 194.831 93.2372 193.398C95.579 168.233 100.753 157.276 103.829 142.818C104.224 140.955 106.085 139.803 107.933 140.254C116.067 142.239 127.881 143.487 142.265 144.132C144.06 144.212 145.474 145.691 145.477 147.486L145.575 200.199C145.578 202.071 144.051 203.586 142.178 203.571V203.574Z" fill="#57CF85"/>
<path d="M109.602 188.523H104.487C104.349 188.523 104.216 188.467 104.118 188.37C104.02 188.272 103.965 188.139 103.965 188V167.434C103.965 167.295 104.02 167.162 104.118 167.064C104.216 166.966 104.349 166.911 104.487 166.911H109.602C109.741 166.911 109.873 166.966 109.971 167.064C110.069 167.162 110.124 167.295 110.124 167.433V188C110.124 188.139 110.069 188.272 109.971 188.369C109.873 188.467 109.741 188.523 109.602 188.523Z" fill="white"/>
<path d="M118.928 188.522H113.813C113.675 188.522 113.542 188.467 113.444 188.369C113.346 188.271 113.291 188.139 113.291 188V174.121C113.291 173.982 113.346 173.85 113.444 173.752C113.542 173.654 113.675 173.599 113.813 173.599H118.928C119.067 173.599 119.2 173.654 119.297 173.752C119.395 173.85 119.45 173.983 119.451 174.121V188C119.45 188.139 119.395 188.271 119.297 188.369C119.2 188.467 119.067 188.522 118.928 188.522Z" fill="white"/>
<path d="M128.258 188.522H123.144C123.008 188.525 122.877 188.474 122.779 188.381C122.681 188.287 122.624 188.159 122.621 188.023V164.769C122.624 164.634 122.681 164.506 122.779 164.412C122.877 164.319 123.008 164.268 123.144 164.271H128.258C128.394 164.268 128.525 164.319 128.623 164.412C128.72 164.506 128.777 164.634 128.781 164.769V188.023C128.777 188.159 128.72 188.287 128.623 188.381C128.525 188.474 128.394 188.525 128.258 188.522Z" fill="white"/>
<path d="M137.584 188.522H132.47C132.331 188.522 132.198 188.467 132.1 188.369C132.003 188.271 131.947 188.138 131.947 187.999V160.041C131.947 159.902 132.003 159.77 132.1 159.672C132.198 159.574 132.331 159.519 132.47 159.519H137.584C137.723 159.519 137.856 159.574 137.954 159.672C138.052 159.77 138.107 159.902 138.107 160.041V187.999C138.107 188.138 138.052 188.271 137.954 188.369C137.856 188.466 137.723 188.522 137.584 188.522Z" fill="white"/>
<path d="M107.044 164.623C107.627 164.623 108.1 164.15 108.1 163.567C108.1 162.983 107.627 162.511 107.044 162.511C106.461 162.511 105.988 162.983 105.988 163.567C105.988 164.15 106.461 164.623 107.044 164.623Z" fill="white"/>
<path d="M116.372 171.486C116.955 171.486 117.428 171.013 117.428 170.43C117.428 169.847 116.955 169.374 116.372 169.374C115.789 169.374 115.316 169.847 115.316 170.43C115.316 171.013 115.789 171.486 116.372 171.486Z" fill="white"/>
<path d="M125.7 161.279C126.284 161.279 126.756 160.806 126.756 160.223C126.756 159.64 126.284 159.167 125.7 159.167C125.117 159.167 124.645 159.64 124.645 160.223C124.645 160.806 125.117 161.279 125.7 161.279Z" fill="white"/>
<path d="M135.027 157.408C135.61 157.408 136.083 156.935 136.083 156.352C136.083 155.769 135.61 155.296 135.027 155.296C134.443 155.296 133.971 155.769 133.971 156.352C133.971 156.935 134.443 157.408 135.027 157.408Z" fill="white"/>
<path d="M116.393 170.668L107.043 163.665L107.043 163.226L116.349 170.196L125.595 160.077L125.633 160.062L134.96 156.304L135.092 156.63L125.801 160.372L116.393 170.668Z" fill="white"/>
<path d="M183.168 83.8327L176.756 85.0376L176.534 83.8543L179.197 80.3624C179.585 79.8526 179.89 79.3491 180.11 78.8519C180.328 78.3455 180.39 77.8447 180.297 77.3494L180.266 77.1843C180.158 76.6064 179.923 76.1899 179.561 75.9349C179.198 75.6708 178.719 75.5947 178.122 75.7068C177.535 75.8171 177.11 76.0537 176.846 76.4168C176.589 76.7689 176.429 77.2073 176.366 77.7319L175.262 77.5406C175.3 77.239 175.372 76.9405 175.478 76.6452C175.592 76.339 175.752 76.0572 175.96 75.7996C176.168 75.5421 176.435 75.3164 176.759 75.1225C177.093 74.9268 177.493 74.7851 177.961 74.6972C178.438 74.6075 178.873 74.597 179.266 74.6657C179.668 74.7326 180.016 74.8666 180.31 75.0677C180.613 75.2671 180.861 75.5245 181.053 75.8397C181.255 76.1533 181.393 76.5118 181.469 76.9154C181.538 77.2824 181.548 77.6367 181.498 77.9784C181.458 78.3184 181.369 78.6533 181.231 78.983C181.103 79.311 180.932 79.6422 180.72 79.9765C180.515 80.3 180.277 80.6295 180.008 80.965L177.765 83.8082L182.979 82.8283L183.168 83.8327Z" fill="white"/>
<path d="M152.672 87.4087L152.948 85.9972L156.815 86.7554L158.95 75.8695L158.814 75.843L154.79 78.3468L154.043 77.1362L158.276 74.4926L160.809 74.9892L158.44 87.0739L161.997 87.7715L161.721 89.183L152.672 87.4087Z" fill="white"/>
<path d="M169.387 97.2909C169.981 97.4075 170.45 97.3642 170.794 97.1612C171.148 96.9516 171.366 96.6392 171.447 96.224L171.464 96.1385C171.553 95.6826 171.474 95.3119 171.225 95.0265C170.985 94.7426 170.633 94.5552 170.169 94.4642C169.713 94.3749 169.323 94.404 168.998 94.5517C168.683 94.6928 168.404 94.9086 168.161 95.1991L167.506 94.4621C167.646 94.3119 167.809 94.1705 167.995 94.038C168.184 93.8974 168.392 93.7819 168.621 93.6916C168.858 93.6028 169.119 93.544 169.404 93.5153C169.697 93.4882 170.018 93.5089 170.368 93.5776C170.735 93.6494 171.067 93.7653 171.365 93.9252C171.665 94.077 171.915 94.2697 172.114 94.5033C172.315 94.7287 172.455 94.9885 172.532 95.2827C172.618 95.5785 172.627 95.8973 172.56 96.2393C172.506 96.5161 172.412 96.7556 172.28 96.9579C172.155 97.1617 172 97.3299 171.813 97.4624C171.635 97.5965 171.432 97.7006 171.207 97.7746C170.981 97.8487 170.748 97.8919 170.509 97.9042L170.499 97.953C170.726 98.0482 170.938 98.1743 171.135 98.3313C171.335 98.4803 171.502 98.6611 171.638 98.8737C171.775 99.0782 171.868 99.3162 171.916 99.5877C171.974 99.8527 171.972 100.144 171.91 100.461C171.838 100.828 171.699 101.151 171.491 101.432C171.294 101.706 171.043 101.927 170.74 102.096C170.446 102.258 170.104 102.365 169.713 102.415C169.331 102.467 168.92 102.45 168.481 102.363C168.106 102.29 167.78 102.184 167.503 102.045C167.234 101.908 166.999 101.748 166.799 101.564C166.606 101.383 166.441 101.19 166.303 100.985C166.174 100.783 166.063 100.575 165.969 100.362L166.853 99.9266C166.934 100.12 167.022 100.298 167.117 100.46C167.212 100.622 167.326 100.772 167.46 100.908C167.604 101.037 167.772 101.151 167.964 101.248C168.156 101.345 168.387 101.419 168.656 101.472C169.258 101.59 169.745 101.542 170.117 101.327C170.497 101.114 170.737 100.751 170.838 100.239L170.857 100.141C170.956 99.6361 170.874 99.2142 170.61 98.8751C170.355 98.5377 169.914 98.3075 169.287 98.1846L168.274 97.9858L168.446 97.1066L169.387 97.2909Z" fill="white"/>
</g>
<defs>
<clipPath id="clip0_2138_25856">
<rect width="70.9005" height="40.3436" fill="white" transform="translate(193.668 142.646) rotate(-33.8177)"/>
</clipPath>
<clipPath id="clip1_2138_25856">
<rect width="119.259" height="268.074" fill="white" transform="translate(80.3711 5.96191)"/>
</clipPath>
</defs>
</svg>
