<svg width="73" height="94" viewBox="0 0 73 94" fill="none" xmlns="http://www.w3.org/2000/svg">
<path d="M35.8171 0.378895C35.4474 0.83702 35.3542 87.6182 35.8171 88.7186C36.2799 89.8189 37.945 89.5438 38.4063 88.7186C38.8692 87.8933 38.8692 0.929063 38.4063 0.378895C37.9435 -0.171274 36.1868 -0.0792305 35.8171 0.378895Z" fill="#5F249F"/>
<path d="M57.6061 42.2988C59.5121 35.614 60.2179 29.175 60.2179 29.175C62.0313 27.5999 65.2389 19.4636 63.984 17.1009C62.7291 14.7382 46.8277 10.9328 44.8736 10.1452C42.921 9.35767 44.0366 6.0764 43.3388 5.28885C42.6884 4.55346 31.5808 4.55346 30.929 5.28885C30.2312 6.0764 31.3468 9.35767 29.3941 10.1452C27.4414 10.9328 11.54 14.7382 10.2837 17.1009C9.02883 19.4636 12.2364 27.5999 14.0498 29.175C14.0498 29.175 14.8233 36.0645 17.2574 42.2988C20.2568 49.9759 19.0167 55.4226 18.0404 58.7039C17.0641 61.9851 16.9347 63.375 16.3091 66.375C15.6053 69.75 15.1587 72.7983 15.1993 74.2119C15.3859 80.8075 51.3101 80.5485 58.3373 76.6084C60.2464 75.538 60.1832 72.0518 59.5965 70.3124C56.1438 60.0762 54.8034 52.1288 57.6061 42.2988Z" fill="#BA91E8"/>
<path d="M17.4258 66.3809C17.4258 66.3809 18.0337 66.6576 19.1625 67.0602" stroke="white" stroke-width="0.406196" stroke-miterlimit="10" stroke-linecap="round"/>
<path d="M60.2352 30.7251C60.2352 30.7251 59.9136 36.2299 58.6846 42.375C58.3096 44.25 57.9346 45.75 57.5596 47.25C54.0708 48.818 45.3764 50.0238 42.5329 50.2039C41.8514 50.2475 41.2772 49.7331 41.2859 49.0891C41.3733 42.816 41.2984 30.246 41.2735 26.4743C41.2697 25.8504 41.7004 25.303 42.3307 25.1135C48.3908 23.2901 49.4923 13.0826 49.6846 9.75C52.4931 10.5458 55.4807 11.6034 58.5114 12.7146C57.3231 16.4498 57.9585 26.831 60.2352 30.7251Z" fill="#FAF6FF"/>
<path d="M34.8458 75.3897C24.8472 75.3123 19.1192 73.5804 14.8693 71.7746C14.3019 71.5337 13.9999 70.3334 14.0578 69.75C15.0717 59.4987 16.911 56.5295 18.2427 50.6401C18.4138 49.8812 19.2193 49.4116 20.0196 49.5956C23.5412 50.4041 28.6557 50.9124 34.8831 51.175C35.6603 51.2077 36.2727 51.8105 36.274 52.5415L36.3165 74.0148C36.3178 74.7773 35.6564 75.3946 34.8458 75.3885V75.3897Z" fill="#56179B"/>
<rect x="26.4062" y="86.8447" width="21.4471" height="6.90533" rx="2.43718" fill="#5F249F"/>
</svg>
