<svg width="48" height="48" viewBox="0 0 48 48" fill="none" xmlns="http://www.w3.org/2000/svg">
<g clip-path="url(#clip0_2135_23509)">
<path d="M23.4941 0.194336C23.6336 -0.0408695 24.2957 -0.0878437 24.4707 0.194336C24.628 0.449049 24.6418 36.7508 24.5156 44.2461H30.0244C30.9599 44.2462 31.7188 44.7345 31.7188 45.3369V46.9102C31.7185 47.5125 30.9598 48.0009 30.0244 48.001H17.8506C16.9151 48.001 16.1565 47.5125 16.1562 46.9102V45.3369C16.1562 44.7344 16.9149 44.2461 17.8506 44.2461H23.4512C23.3297 36.7409 23.3683 0.406767 23.4941 0.194336Z" fill="#0C87CA"/>
<path d="M32.4991 27.2182C32.0675 25.6768 31.4906 22.7488 32.8453 19.5119C34.0499 16.6335 34.2633 13.3469 34.2633 13.3469C35.065 12.607 36.4831 8.7849 35.9283 7.67503C35.3735 6.56516 28.3436 4.77754 27.4798 4.40758C26.6165 4.03762 27.1097 2.49623 26.8012 2.12628C26.5137 1.78082 21.6031 1.78082 21.315 2.12628C21.0065 2.49623 21.4997 4.03762 20.6364 4.40758C19.7732 4.77754 12.7433 6.56516 12.1879 7.67503C11.6332 8.7849 13.0512 12.607 13.8529 13.3469C13.8529 13.3469 14.1948 16.5833 15.2709 19.5119C16.5969 23.1182 16.0487 25.6768 15.6171 27.2182C15.1854 28.7596 14.6546 30.3625 14.0376 33.5063C13.4207 36.6506 13.5881 39.0072 13.606 39.6712C13.6885 42.7695 34.0959 42.8203 34.5084 39.6712C34.5945 39.0126 34.6932 36.6506 34.0768 33.5063C33.4604 30.3619 32.929 28.759 32.4973 27.2182H32.4991Z" fill="#444444"/>
<path d="M34.2633 13.3462C34.2633 13.3462 34.0498 16.6328 32.8452 19.5111C32.4781 20.3879 32.2528 21.242 32.1284 22.0518C30.4575 22.8479 27.1467 23.1444 25.7849 23.2358C25.4584 23.2579 25.1834 22.9967 25.1876 22.6698C25.2295 19.4848 25.1936 13.1029 25.1817 11.188C25.1799 10.8712 25.3861 10.5933 25.688 10.4971C28.5905 9.5713 29.0161 6.61583 29.1082 4.92383C30.4533 5.32785 32.3347 5.89205 33.7862 6.45625C33.2171 8.35265 33.1728 11.3691 34.2633 13.3462Z" fill="#E44A69"/>
<path d="M24.4964 39.7963C19.8507 39.758 17.0235 39.3205 15.0489 38.4288C14.7853 38.3099 14.6245 38.0374 14.6514 37.7493C15.1224 32.687 16.1633 30.4828 16.782 27.5746C16.8615 27.1998 17.2358 26.9679 17.6076 27.0588C19.2439 27.458 21.6202 27.709 24.5137 27.8387C24.8748 27.8549 25.1594 28.1525 25.16 28.5135L25.1797 39.1173C25.1803 39.4939 24.873 39.7987 24.4964 39.7957V39.7963Z" fill="#57CF85"/>
</g>
<defs>
<clipPath id="clip0_2135_23509">
<rect width="48" height="48" fill="white"/>
</clipPath>
</defs>
</svg>
