<svg width="18" height="18" viewBox="0 0 18 18" fill="none" xmlns="http://www.w3.org/2000/svg">
<path d="M9.69604 1.16201C9.69025 0.793051 9.68445 0.579596 9.67769 0.568971C9.61587 0.468522 8.31667 0.485907 8.26741 0.568971C8.26161 0.57863 8.25678 0.792085 8.25195 1.16298C8.37656 1.16008 9.57047 1.16008 9.69604 1.16201Z" stroke="#53686F" stroke-width="0.75" stroke-linejoin="round"/>
<path d="M11.6423 16.1709H9.69208C9.69595 15.9652 9.69884 15.6976 9.70174 15.3789C9.5694 15.3799 8.3726 15.3808 8.24026 15.3789C8.24316 15.6967 8.24606 15.9642 8.24896 16.1709H6.26586C5.93455 16.1709 5.66602 16.3438 5.66602 16.5573V17.1146C5.66602 17.328 5.93455 17.5009 6.26586 17.5009H11.6423C11.9736 17.5009 12.2422 17.328 12.2422 17.1146V16.5573C12.2422 16.3438 11.9736 16.1709 11.6423 16.1709Z" stroke="#53686F" stroke-width="0.75" stroke-linejoin="round"/>
<path d="M5.8999 14.0883C5.80621 14.0458 5.74921 13.9492 5.75887 13.8478C5.92598 12.0551 6.28628 11.1887 6.50555 10.1582C6.53356 10.0258 6.6659 9.94375 6.79823 9.97562C7.3778 10.1166 8.35823 10.1669 8.96195 10.1997C9.08946 10.2055 9.19088 10.3108 9.19088 10.4383L9.16963 14.181C9.16963 14.3143 9.0798 14.4215 8.92718 14.4215C7.94867 14.4215 6.66204 14.3065 5.8999 14.0883Z" fill="#53686F"/>
<path d="M12.5219 10.1381C12.3692 9.59234 12.1645 8.55501 12.6445 7.40853C13.0715 6.38955 13.1468 5.22472 13.1468 5.22472C13.4308 4.96297 13.9331 3.60883 13.737 3.21573C13.5409 2.82262 11.0507 2.18998 10.7445 2.05863C10.4383 1.92727 10.6131 1.38156 10.504 1.2502C10.4026 1.12754 7.59842 1.12754 7.49603 1.2502C7.38688 1.38156 7.56172 1.92727 7.25551 2.05863C6.94931 2.18998 4.46007 2.82262 4.26301 3.21573C4.06692 3.60883 4.56922 4.96201 4.8532 5.22472C4.8532 5.22472 4.97395 6.3712 5.3555 7.40853C5.82495 8.6854 5.63079 9.59234 5.47817 10.1381C5.32555 10.6838 5.13719 11.2517 4.91889 12.3653C4.70058 13.479 4.69092 14.0305 4.76627 14.5491C4.92372 15.6425 13.0879 15.6647 13.2338 14.5491C13.2647 14.3164 13.2994 13.479 13.0811 12.3653C12.8628 11.2517 12.6745 10.6838 12.5219 10.1381Z" stroke="#53686F" stroke-width="0.75" stroke-linejoin="round"/>
<path d="M9.91892 8.53043C9.91698 8.64634 10.0145 8.73906 10.1305 8.73133C10.9071 8.73133 11.8431 8.66565 12.3908 8.31215C12.3927 8.29959 12.3956 8.28704 12.3975 8.27351C12.4024 8.24261 12.4091 8.21073 12.4149 8.17982C12.4227 8.14119 12.4294 8.10256 12.4381 8.06296C12.4449 8.03205 12.4536 8.00114 12.4613 7.96927C12.4709 7.9287 12.4806 7.8891 12.4922 7.84757C12.5009 7.81569 12.5125 7.78382 12.5221 7.75195C12.5347 7.71138 12.5473 7.67082 12.5608 7.62928C12.5733 7.59355 12.5878 7.55781 12.6023 7.52207C12.6168 7.48537 12.6294 7.44867 12.6448 7.41197C13.0718 6.39298 13.1471 5.22815 13.1471 5.22815C12.7607 4.5279 12.7762 3.45966 12.9781 2.78839C12.9761 2.78839 12.9742 2.78646 12.9723 2.78646C12.5994 2.64254 12.1493 2.49766 11.7484 2.375C11.703 3.3766 11.024 4.43228 10.0957 4.7288C9.98847 4.76261 9.91602 4.86113 9.91602 4.97317C9.91988 5.6512 9.9334 7.40231 9.91795 8.53043H9.91892Z" fill="#53686F"/>
</svg>
