<svg width="18" height="20" viewBox="0 0 18 20" fill="none" xmlns="http://www.w3.org/2000/svg">
<path d="M9.75881 1.44973C9.75249 1.04723 9.74617 0.81437 9.73879 0.80278C9.67136 0.693199 8.25419 0.712165 8.20045 0.80278C8.19413 0.813317 8.18886 1.04618 8.18359 1.45078C8.31952 1.44762 9.62184 1.44762 9.75881 1.44973Z" stroke="#310A5C" stroke-width="0.585366" stroke-linejoin="round"/>
<path d="M11.8842 17.821H9.75688C9.7611 17.5966 9.76426 17.3047 9.76742 16.957C9.62307 16.9581 8.31758 16.9591 8.17323 16.957C8.17639 17.3037 8.17956 17.5955 8.18272 17.821H6.01955C5.65815 17.821 5.36523 18.0096 5.36523 18.2425V18.8505C5.36523 19.0833 5.65815 19.2719 6.01955 19.2719H11.8842C12.2456 19.2719 12.5385 19.0833 12.5385 18.8505V18.2425C12.5385 18.0096 12.2456 17.821 11.8842 17.821Z" stroke="#310A5C" stroke-width="0.585366" stroke-linejoin="round"/>
<path d="M5.61789 15.5516C5.51568 15.5052 5.45351 15.3999 5.46405 15.2892C5.64633 13.3336 6.03934 12.3885 6.27852 11.2643C6.30908 11.1199 6.45344 11.0303 6.59779 11.0651C7.22998 11.2189 8.29944 11.2737 8.95798 11.3096C9.09706 11.3159 9.20769 11.4307 9.20769 11.5698L9.18452 15.6527C9.18452 15.7981 9.08653 15.9151 8.92005 15.9151C7.85269 15.9151 6.44922 15.7897 5.61789 15.5516Z" fill="#310A5C" stroke="#310A5C" stroke-width="0.585366" stroke-linejoin="round"/>
<path d="M12.8422 11.2424C12.6757 10.6471 12.4524 9.51547 12.976 8.26478C13.4417 7.15317 13.5239 5.88246 13.5239 5.88246C13.8337 5.59691 14.3816 4.11968 14.1677 3.69085C13.9538 3.26201 11.2375 2.57186 10.9035 2.42856C10.5695 2.28526 10.7602 1.68995 10.6411 1.54665C10.5305 1.41284 7.47172 1.41284 7.36003 1.54665C7.24097 1.68995 7.43168 2.28526 7.09767 2.42856C6.76366 2.57186 4.04838 3.26201 3.83344 3.69085C3.61954 4.11968 4.16745 5.59586 4.47722 5.88246C4.47722 5.88246 4.60893 7.13315 5.02512 8.26478C5.5372 9.65771 5.32541 10.6471 5.15894 11.2424C4.99246 11.8377 4.787 12.4573 4.54887 13.6722C4.31074 14.887 4.3002 15.4887 4.38239 16.0545C4.55414 17.2472 13.4597 17.2715 13.6188 16.0545C13.6525 15.8005 13.6904 14.887 13.4523 13.6722C13.2142 12.4573 13.0087 11.8377 12.8422 11.2424Z" stroke="#310A5C" stroke-width="0.585366" stroke-linejoin="round"/>
<path d="M10.0012 9.48743C9.9991 9.61386 10.1055 9.71502 10.232 9.70659C11.0791 9.70659 12.1001 9.63494 12.6975 9.2493C12.6996 9.2356 12.7028 9.2219 12.7049 9.20715C12.7102 9.17344 12.7175 9.13867 12.7239 9.10495C12.7323 9.0628 12.7397 9.02066 12.7492 8.97746C12.7565 8.94374 12.766 8.91002 12.7744 8.87525C12.785 8.831 12.7955 8.7878 12.8082 8.74249C12.8176 8.70772 12.8303 8.67295 12.8408 8.63818C12.8545 8.59392 12.8682 8.54967 12.883 8.50436C12.8967 8.46538 12.9125 8.42639 12.9283 8.38741C12.9441 8.34737 12.9578 8.30733 12.9746 8.26729C13.4403 7.15568 13.5225 5.88497 13.5225 5.88497C13.1011 5.12107 13.1179 3.95572 13.3381 3.22343C13.336 3.22343 13.3339 3.22132 13.3318 3.22132C12.9251 3.06432 12.4341 2.90628 11.9968 2.77246C11.9473 3.8651 11.2066 5.01675 10.194 5.34023C10.0771 5.3771 9.99805 5.48458 9.99805 5.6068C10.0023 6.34647 10.017 8.25675 10.0002 9.48743H10.0012Z" fill="#310A5C" stroke="#310A5C" stroke-width="0.585366" stroke-linejoin="round"/>
</svg>
