<svg width="145" height="113" viewBox="0 0 145 113" fill="none" xmlns="http://www.w3.org/2000/svg">
<path d="M50.0297 20.4902C50.9397 20.4902 51.6697 19.7602 51.6697 18.8502C51.6697 18.2202 51.3097 17.6502 50.7497 17.3702L40.5797 10.7302C39.4197 9.97016 37.9197 9.97016 36.7697 10.7302L26.5997 17.3702C26.0397 17.6402 25.6797 18.2202 25.6797 18.8502C25.6797 19.7602 26.4097 20.4902 27.3197 20.4902H28.0397V26.8202C26.7397 26.8202 25.6797 27.8802 25.6797 29.1802V29.2602C25.6797 30.0302 26.0497 30.7502 26.6797 31.1902L29.3997 33.8202L25.6797 113H51.6797L47.9497 33.8202L50.6697 31.1902C51.2997 30.7502 51.6697 30.0302 51.6697 29.2602V29.1802C51.6697 27.8802 50.6097 26.8202 49.3097 26.8202V20.4902H50.0297Z" fill="#EDDDFF"/>
<path opacity="0.58" d="M145 0.76511V48.2394C145 48.7018 144.448 49.0536 143.813 48.9933L45.9107 26.5695C45.3864 26.5192 45 26.1976 45 25.8056V21.6743C45 21.3024 45.3726 20.9807 45.8693 20.9204L143.772 0.0112305C144.42 -0.0691833 145 0.292679 145 0.76511Z" fill="url(#paint0_linear_2142_14301)"/>
<path opacity="0.58" d="M0 13.7651V35.2394C0 35.7018 0.551951 36.0536 1.18669 35.9933L33.0893 26.5695C33.6136 26.5192 34 26.1976 34 25.8056V21.6743C34 21.3024 33.6274 20.9807 33.1307 20.9204L1.22809 13.0112C0.579547 12.9308 0 13.2927 0 13.7651Z" fill="url(#paint1_linear_2142_14301)"/>
<path opacity="0.7" d="M41.7099 21.2207H37.4199C36.8676 21.2207 36.4199 21.6684 36.4199 22.2207V25.9407C36.4199 26.493 36.8676 26.9407 37.4199 26.9407H41.7099C42.2622 26.9407 42.7099 26.493 42.7099 25.9407V22.2207C42.7099 21.6684 42.2622 21.2207 41.7099 21.2207Z" fill="url(#paint2_linear_2142_14301)"/>
<defs>
<linearGradient id="paint0_linear_2142_14301" x1="44.9858" y1="20.681" x2="145.5" y2="20.681" gradientUnits="userSpaceOnUse">
<stop stop-color="#F3DC52"/>
<stop offset="0.99" stop-color="#F3DC51" stop-opacity="0"/>
</linearGradient>
<linearGradient id="paint1_linear_2142_14301" x1="34.0142" y1="20.6809" x2="0" y2="20.6809" gradientUnits="userSpaceOnUse">
<stop stop-color="#F3DC52"/>
<stop offset="0.99" stop-color="#F3DC51" stop-opacity="0"/>
</linearGradient>
<linearGradient id="paint2_linear_2142_14301" x1="42.7099" y1="24.0807" x2="36.4199" y2="24.0807" gradientUnits="userSpaceOnUse">
<stop stop-color="#F3DC51"/>
<stop offset="0.08" stop-color="#F3DC51" stop-opacity="0.92"/>
<stop offset="0.29" stop-color="#F3DC51" stop-opacity="0.73"/>
<stop offset="0.5" stop-color="#F3DC51" stop-opacity="0.59"/>
<stop offset="0.68" stop-color="#F3DC51" stop-opacity="0.48"/>
<stop offset="0.86" stop-color="#F3DC51" stop-opacity="0.42"/>
<stop offset="0.99" stop-color="#F3DC52" stop-opacity="0.4"/>
</linearGradient>
</defs>
</svg>
