<svg width="23" height="15" viewBox="0 0 23 15" fill="none" xmlns="http://www.w3.org/2000/svg">
<path d="M15.5 0C19.6421 0 23 3.35786 23 7.5C23 11.6421 19.6421 15 15.5 15C14.0287 15 12.658 14.5738 11.5 13.8418C10.342 14.5738 8.97127 15 7.5 15C3.35786 15 0 11.6421 0 7.5C0 3.35786 3.35786 0 7.5 0C8.97109 0 10.342 0.425441 11.5 1.15723C12.658 0.425441 14.0289 0 15.5 0ZM7.5 2C4.46243 2 2 4.46243 2 7.5C2 10.5376 4.46243 13 7.5 13C8.3514 13 9.15748 12.8063 9.87695 12.4609C8.70951 11.1387 8 9.40256 8 7.5C8 5.59718 8.70922 3.8604 9.87695 2.53809C9.15758 2.19285 8.35125 2 7.5 2Z" fill="black"/>
</svg>
